<svg width="24" height="19" viewBox="0 0 24 19" fill="none" xmlns="http://www.w3.org/2000/svg">
<path d="M18.4656 7.91307C18.4656 7.44719 18.4656 6.98131 18.4656 6.51543C18.3656 6.04955 18.1656 5.67685 17.9656 5.30414C17.0656 3.90651 15.6656 2.69522 13.9656 2.04299C12.2656 1.39076 10.3656 1.2044 8.56561 1.39076C7.86561 1.48393 7.06561 1.67028 6.46561 1.94981C5.76562 2.32252 5.26562 2.69522 4.66562 3.1611C3.46562 4.09286 2.16562 5.11779 1.56562 6.42225C1.26562 7.07449 1.06562 7.72672 0.865624 8.37895C0.565625 9.12436 0.265625 9.86976 0.265625 10.6152C0.265625 11.081 0.365625 11.4538 0.665624 11.8265C0.965624 12.106 1.36562 12.1992 1.66562 12.4787C1.96562 12.8514 1.96562 13.69 2.06562 14.1559C2.26562 14.8081 2.36562 15.3671 2.56562 16.0194C2.66562 16.3921 2.76562 16.858 3.06562 17.1375C3.46562 17.5102 4.06562 17.6034 4.56562 17.6965C5.16562 17.7897 5.76562 17.8829 6.36562 17.8829C8.56561 18.1624 10.7656 18.4419 12.9656 18.7215C13.9656 18.8146 15.0656 19.001 15.9656 18.4419C16.9656 17.8829 17.3656 16.7648 17.4656 15.7398C17.6656 14.7149 17.6656 13.5968 18.1656 12.665C18.3656 12.2923 18.7656 11.9196 18.8656 11.4538C19.4656 10.3356 18.5656 9.12436 18.4656 7.91307ZM16.2656 8.938C15.8656 9.40388 15.2656 9.59023 14.6656 9.68341C12.9656 10.0561 11.0656 9.86976 9.36561 9.49706C8.06561 9.21753 6.66562 8.938 5.36562 8.65848C4.36562 8.47213 3.16562 8.65848 2.96562 7.54037C2.96562 7.35401 2.96562 7.16766 2.96562 6.98131C3.06562 6.79496 3.16562 6.70178 3.26562 6.51543C4.76562 5.02462 6.56562 3.62698 8.66561 2.97475C10.7656 2.32252 13.3656 2.60204 14.8656 3.99968C15.4656 4.55874 15.8656 5.21097 16.2656 5.95638C16.4656 6.42225 16.6656 6.88813 16.7656 7.44719C16.7656 8.00625 16.6656 8.5653 16.2656 8.938Z" fill="white"/>
<path d="M1.86609 13.2238C1.86609 13.3169 1.86609 13.4101 1.96609 13.5033C2.06609 13.6896 2.26609 13.6896 2.36609 13.7828C2.56609 13.7828 2.6661 13.7828 2.8661 13.6896C3.4661 13.5033 4.06611 13.3169 4.66611 13.1306C4.96612 13.0374 5.16612 12.9442 5.46612 12.8511C5.66612 12.7579 5.86612 12.6647 5.96613 12.4784C5.96613 12.4784 3.4661 12.292 3.1661 12.292C2.8661 12.292 2.16609 12.0125 1.96609 12.1988C1.66609 12.292 1.86609 12.9442 1.86609 13.2238Z" fill="#BCBCBB"/>
<path d="M2.56719 7.72715C2.96719 6.79539 3.16719 5.67728 2.96719 4.65234C2.66719 4.65234 2.36719 4.8387 2.16719 5.02505C1.96719 5.11822 1.86719 5.30457 1.76719 5.5841C1.46719 6.23633 1.36719 7.26127 1.36719 8.00667C1.46719 8.84526 2.36719 8.2862 2.56719 7.72715Z" fill="#BCBCBB"/>
<path d="M11.3645 12.8512C12.2645 11.5468 13.4645 10.4287 14.8645 9.59007C15.0645 9.40372 15.3645 9.31055 15.6645 9.31055C15.7645 9.8696 15.4645 10.3355 15.0645 10.8014C14.5645 11.5468 14.0645 12.3854 13.6645 13.2239C13.3645 13.783 13.1645 14.342 12.7645 14.9011C12.4645 15.367 11.1645 16.7646 10.5645 15.8329C10.0646 15.0875 10.8645 13.5966 11.3645 12.8512Z" fill="#BCBCBB"/>
<path d="M10.3672 16.1137C9.46719 15.741 8.66719 15.2751 8.06719 14.6229C7.26719 13.7843 6.76719 12.7593 5.96719 12.0139C5.56719 11.5481 5.06719 11.1754 4.66719 10.8027C4.26719 10.3368 3.86719 9.8709 3.86719 9.21867C3.86719 9.12549 3.86719 9.03232 3.86719 8.84596C3.96719 8.75279 4.16719 8.65961 4.26719 8.56644C4.86719 8.28691 5.56719 8.28691 6.26719 8.19373C8.86719 7.91421 11.4672 7.72785 13.9672 8.38009C14.3672 8.38009 15.5672 8.65961 15.5672 8.93914C15.4672 9.21867 14.5672 9.8709 14.2672 10.1504C13.4672 10.989 12.6672 11.8276 11.9672 12.7593C11.2672 13.7843 10.6672 14.9024 10.3672 16.1137Z" fill="#EB594B"/>
<path d="M18.6657 9.03207C18.5657 8.37984 18.5657 7.72761 18.4657 7.16855C18.3657 6.14362 17.8657 5.21186 17.2657 4.37328C16.4657 3.34834 15.3657 2.60294 14.0657 2.04388C12.5657 1.48483 10.9657 1.11212 9.26569 1.29848C8.66569 1.39165 8.06569 1.48483 7.46569 1.67118C6.96569 1.76435 6.56569 1.85753 6.06569 2.04388C4.66569 2.60294 3.46569 3.25517 2.56569 4.37328C1.96569 5.21186 1.46569 5.95727 1.46569 6.9822C1.46569 7.44808 1.36569 7.91396 1.36569 8.37984C1.26569 8.37984 1.16569 8.47302 1.06569 8.47302C0.565686 8.47302 0.265685 8.75254 0.165685 9.12525C-0.0343146 9.96383 -0.0343146 10.7092 0.0656855 11.5478C0.0656855 11.8273 0.265686 12.0137 0.565686 12.0137C0.865686 12.1069 1.16569 12.1069 1.36569 12.2001C1.36569 12.4796 1.36569 12.7591 1.46569 13.0386C1.46569 13.3182 1.56569 13.6909 1.56569 13.9704C1.56569 15.1817 1.96569 16.2998 2.46569 17.3247C2.56569 17.4179 2.56569 17.5111 2.66569 17.6042C3.26569 18.2565 4.06569 18.2565 4.86569 18.3497C6.16569 18.0701 7.46569 18.4428 8.66569 18.536C9.56569 18.536 10.4657 18.7224 11.3657 18.7224C12.5657 18.8155 13.8657 18.8155 15.0657 18.7224C15.8657 18.7224 16.5657 18.3497 16.8657 17.6042C17.0657 17.1384 17.2657 16.7657 17.3657 16.2998C17.6657 15.2749 17.8657 14.1567 18.1657 13.1318C18.2657 12.7591 18.3657 12.3864 18.7657 12.2001C19.0657 12.1069 19.0657 11.9205 19.0657 11.641C19.0657 11.1751 19.1657 10.8024 19.2657 10.3365C19.5657 9.87065 19.3657 9.40477 18.6657 9.03207ZM18.1657 7.07538C18.2657 7.63443 18.3657 8.28666 18.3657 8.84572H17.1657C17.1657 8.28666 17.1657 7.82079 17.2657 7.35491C17.2657 7.26173 17.3657 7.07538 17.4657 6.9822C17.5657 6.88903 17.6657 6.79585 17.7657 6.70267C18.0657 6.70267 18.0657 6.88903 18.1657 7.07538ZM17.7657 6.70267C17.5657 6.70267 17.4657 6.79585 17.2657 6.79585C17.1657 6.6095 17.1657 6.42315 17.0657 6.2368C17.2657 6.14362 17.4657 6.05044 17.7657 5.86409C17.9657 6.2368 17.9657 6.42315 17.7657 6.70267ZM1.76569 6.42315C1.96569 6.05044 2.16569 5.58457 2.36569 5.21186C2.56569 4.93233 2.76569 4.65281 2.96569 4.37328C3.06569 4.18693 3.26569 4.00058 3.36569 3.9074C3.56569 3.72105 3.76569 3.5347 4.06569 3.44152C4.06569 3.44152 4.06569 3.44152 4.16569 3.44152C4.26569 3.34834 4.36569 3.34834 4.46569 3.25517C4.66569 3.06882 4.86569 2.97564 5.06569 2.78929C5.66569 2.50976 6.36569 2.32341 7.06569 2.04388C7.96569 1.67118 8.86569 1.578 9.76569 1.578C10.3657 1.578 11.0657 1.578 11.6657 1.67118C13.1657 1.95071 14.6657 2.50976 15.8657 3.44152C16.4657 3.9074 17.4657 5.02551 17.6657 5.77092C17.4657 5.86409 17.2657 5.95727 17.0657 6.14362C16.7657 5.77092 16.5657 5.39821 16.2657 5.02551C15.4657 3.9074 14.2657 3.25517 12.9657 2.97564C11.7657 2.69611 10.5657 2.60294 9.26569 2.69611C8.26569 2.78929 7.16569 2.88247 6.26569 3.25517C5.66569 3.44152 5.16569 3.72105 4.66569 4.09375C4.16569 4.74598 3.36569 5.39821 2.96569 6.2368C2.76569 6.70267 2.66569 7.16855 2.56569 7.63443C2.56569 7.82079 2.56569 8.00714 2.36569 8.19349C2.26569 8.28666 2.06569 8.37984 1.86569 8.37984H1.76569C1.56569 8.28666 1.56569 8.10031 1.56569 7.91396V7.82079C1.56569 7.35491 1.56569 6.88903 1.76569 6.42315ZM1.06569 11.4546C1.06569 11.5478 0.965686 11.641 0.865686 11.641C0.765686 11.641 0.665686 11.641 0.665686 11.5478C0.665686 11.4546 0.565686 11.4546 0.565686 11.3615C0.465686 10.6161 0.465686 9.87065 0.665686 9.12525H0.765686C0.865686 9.87065 0.965686 10.5229 1.06569 11.2683C1.16569 11.2683 1.16569 11.3615 1.06569 11.4546ZM1.96569 12.2932C2.46569 12.9455 2.86569 13.5977 3.26569 14.3431C2.86569 14.5294 2.56569 14.7158 2.16569 14.9022C2.06569 13.9704 1.96569 13.1318 1.96569 12.2932ZM2.86569 16.4861C2.66569 16.1134 2.56569 15.8339 2.36569 15.4612C2.26569 15.2749 2.26569 15.0885 2.56569 14.9953C2.86569 14.809 3.16569 14.6226 3.46569 14.4363C3.76569 14.9022 4.06569 15.2749 4.36569 15.6476C3.86569 15.9271 3.36569 16.2066 2.86569 16.4861ZM3.76569 14.3431C4.16569 14.0636 4.56569 13.784 5.06569 13.5977C5.36569 14.0636 5.56569 14.4363 5.86569 14.809C5.46569 15.0885 5.06569 15.2749 4.56569 15.5544C4.26569 15.1817 4.06569 14.809 3.76569 14.3431ZM17.0657 16.2998C16.7657 15.9271 16.4657 15.5544 16.2657 15.0885C16.6657 14.809 17.0657 14.4363 17.6657 14.3431C17.3657 14.9953 17.4657 15.6476 17.0657 16.2998ZM19.0657 10.4297C18.9657 10.8956 18.8657 11.4546 18.7657 11.9205C18.4657 11.9205 18.3657 11.9205 18.3657 11.641C18.3657 11.0819 18.4657 10.6161 18.4657 10.057C18.4657 9.87065 18.4657 9.77748 18.4657 9.59113C18.1657 10.4297 18.4657 11.3615 18.1657 12.2932C17.8657 11.9205 17.9657 11.641 17.9657 11.3615C17.9657 11.0819 17.9657 10.8024 17.9657 10.5229C17.9657 10.2434 17.9657 9.87065 17.9657 9.59113C17.6657 10.4297 17.9657 11.2683 17.7657 12.2001C17.5657 12.2001 17.2657 12.2001 17.0657 12.2001C16.4657 12.2001 15.8657 12.1069 15.2657 12.1069C15.0657 12.1069 14.8657 12.1069 14.7657 12.2932C15.8657 12.3864 16.9657 12.4796 18.1657 12.5728C18.0657 13.0386 17.9657 13.4113 17.8657 13.784C17.8657 13.8772 17.7657 13.9704 17.7657 13.9704C17.2657 14.3431 16.7657 14.6226 16.2657 14.9953C15.9657 14.6226 15.7657 14.2499 15.4657 13.784C15.9657 13.5045 16.4657 13.225 17.0657 12.8523C16.7657 12.7591 16.7657 12.7591 16.2657 13.1318C15.9657 13.3182 15.7657 13.4113 15.4657 13.5977C15.2657 13.3182 15.0657 13.0386 14.7657 12.8523C14.5657 12.6659 14.4657 12.2932 13.9657 12.2932C14.3657 12.8523 14.7657 13.225 15.1657 13.784C14.7657 14.0636 14.4657 14.2499 14.1657 14.5294C13.8657 14.1567 13.6657 13.8772 13.3657 13.5045C13.3657 13.5045 13.2657 13.5045 13.1657 13.5045C13.3657 13.8772 13.5657 14.2499 13.8657 14.6226C13.2657 15.0885 12.5657 15.4612 11.9657 15.9271C11.9657 15.9271 11.9657 16.0203 12.0657 16.0203C12.7657 15.7407 13.2657 15.1817 13.9657 14.9022C14.2657 15.2749 14.4657 15.6476 14.5657 16.0203C14.1657 16.393 13.5657 16.4861 13.2657 16.952C13.2657 16.952 13.2657 17.0452 13.3657 17.0452C13.6657 16.8588 13.9657 16.6725 14.2657 16.4861C14.5657 16.2998 14.9657 16.1134 15.2657 15.9271C15.5657 15.7407 15.9657 15.5544 16.2657 15.368C16.6657 15.7407 16.9657 16.2066 17.2657 16.6725C17.2657 16.6725 17.2657 16.6725 17.2657 16.7657C17.3657 17.1384 16.7657 18.1633 16.3657 18.3497C16.1657 18.4428 15.8657 18.536 15.6657 18.536C14.3657 18.536 13.0657 18.4428 11.7657 18.3497C10.7657 18.2565 9.66569 18.2565 8.66569 18.1633C7.86569 18.0701 6.96569 17.8838 6.16569 17.7906C5.46569 17.6974 4.86569 17.6042 4.16569 17.6042C3.66569 17.6042 3.56569 17.5111 3.36569 16.952C3.76569 16.5793 4.26569 16.393 4.76569 16.1134C4.86569 16.1134 5.06569 16.2066 5.16569 16.2998C5.36569 16.4861 5.46569 16.6725 5.66569 16.8588C5.76569 16.952 5.86569 16.952 5.96569 16.8588C5.66569 16.4861 5.46569 16.2066 5.16569 15.8339C5.76569 15.5544 6.26569 15.2749 6.96569 14.9022C6.16569 14.7158 6.16569 14.0636 5.86569 13.6909C5.46569 13.3182 5.56569 13.225 5.66569 13.0386C5.46569 13.1318 5.36569 13.1318 5.16569 13.1318C4.86569 12.8523 4.66569 12.5728 4.36569 12.3864C4.36569 12.3864 4.26569 12.3864 4.26569 12.4796C4.26569 12.6659 4.46569 12.7591 4.56569 12.9455C4.66569 13.1318 4.76569 13.225 4.86569 13.4113C4.56569 13.6909 4.06569 13.8772 3.56569 14.0636C3.06569 13.5045 2.76569 12.9455 2.26569 12.2932C3.16569 12.1069 3.96569 12.2001 4.96569 12.2001C4.86569 12.0137 4.86569 11.9205 4.76569 11.9205C4.66569 11.8273 4.56569 11.8273 4.46569 11.8273C3.86569 11.8273 3.16569 11.7342 2.56569 11.7342C2.06569 11.7342 1.96569 11.641 1.86569 11.2683C1.76569 10.7092 1.66569 10.1502 1.66569 9.49795C1.66569 9.3116 1.66569 9.12525 1.56569 8.9389C1.36569 9.87065 1.66569 10.7092 1.76569 11.5478C1.46569 11.7342 1.36569 11.641 1.36569 11.3615C1.36569 11.0819 1.26569 10.8024 1.26569 10.5229C1.16569 9.96383 1.16569 9.3116 1.06569 8.65937C1.26569 8.65937 1.46569 8.56619 1.66569 8.56619C2.16569 8.56619 2.56569 8.56619 3.06569 8.47302C3.46569 8.56619 3.56569 8.65937 3.56569 9.12525C3.66569 9.59113 3.86569 9.96383 4.16569 10.2434C4.66569 10.8024 5.16569 11.2683 5.66569 11.7342C5.66569 11.7342 5.76569 11.8273 5.76569 11.9205C5.66569 12.0137 5.56569 12.0137 5.46569 12.1069C6.06569 12.1069 6.26569 12.5728 6.66569 12.9455C7.36569 13.784 7.96569 14.6226 8.76569 15.2749C9.26569 15.7407 9.96569 16.1134 10.5657 16.393C10.6657 16.393 10.6657 16.393 10.7657 16.393C10.7657 16.2998 10.8657 16.2998 10.8657 16.2998C10.5657 15.9271 10.6657 15.5544 10.7657 15.0885C11.1657 14.1567 11.5657 13.225 12.1657 12.4796C12.2657 12.3864 12.3657 12.2932 12.3657 12.2001C12.6657 11.5478 13.2657 11.0819 13.8657 10.6161C14.3657 10.2434 14.7657 9.96383 15.2657 9.59113C15.3657 9.49795 15.5657 9.40477 15.7657 9.21842C15.0657 9.3116 12.6657 11.2683 12.2657 11.9205C11.4657 13.1318 10.6657 14.2499 10.2657 15.6476C9.46569 15.5544 8.16569 14.2499 7.46569 12.8523C7.66569 12.6659 7.86569 12.4796 8.06569 12.2932C8.26569 12.1069 8.46569 11.9205 8.66569 11.7342C8.66569 11.7342 8.66569 11.7342 8.56569 11.641C8.16569 12.0137 7.76569 12.2932 7.26569 12.6659C7.16569 12.4796 7.06569 12.3864 6.86569 12.2932C7.36569 11.9205 7.76569 11.5478 8.16569 11.0819C8.16569 11.0819 8.16569 10.9888 8.06569 10.9888C7.66569 11.3615 7.16569 11.7342 6.76569 12.1069C5.76569 11.2683 4.86569 10.3365 4.16569 9.3116C3.96569 9.12525 4.06569 8.9389 4.36569 8.84572C4.66569 8.75254 5.06569 8.65937 5.36569 8.56619C5.56569 8.56619 5.66569 8.56619 5.86569 8.56619C7.36569 8.10031 8.96569 8.10031 10.5657 8.19349C11.6657 8.28666 12.7657 8.28666 13.8657 8.56619C14.1657 8.65937 14.5657 8.75254 14.8657 8.84572C14.9657 8.65937 14.9657 8.56619 14.6657 8.47302C13.7657 8.28666 12.8657 8.10031 11.9657 8.00714C11.3657 7.91396 10.8657 7.91396 10.2657 7.91396C8.86569 7.91396 7.56569 7.91396 6.16569 8.19349C5.76569 8.28666 5.26569 8.28666 4.66569 8.28666C4.56569 8.28666 4.46569 8.28666 4.36569 8.28666C3.96569 8.56619 3.46569 8.28666 2.86569 8.37984C2.86569 7.82079 2.96569 7.26173 3.16569 6.79585C3.56569 5.95727 4.16569 5.11869 4.96569 4.55963C5.46569 4.18693 5.96569 3.81422 6.66569 3.62787C8.06569 3.25517 9.56569 2.97564 11.0657 3.06882C12.1657 3.16199 13.1657 3.25517 14.1657 3.72105C14.8657 4.09375 15.4657 4.55963 15.9657 5.21186C16.6657 6.14362 16.9657 7.26173 16.9657 8.37984C16.9657 8.47302 16.9657 8.56619 16.9657 8.65937C16.9657 8.65937 16.9657 8.75254 16.8657 8.75254C16.4657 8.84572 16.0657 8.65937 15.6657 8.84572C15.7657 8.84572 15.8657 8.9389 15.9657 8.9389C16.5657 8.9389 17.2657 9.03207 17.8657 9.03207C18.0657 9.03207 18.1657 9.03207 18.3657 9.12525C18.9657 9.40478 19.1657 9.77748 19.0657 10.4297ZM15.8657 15.1817C15.3657 15.4612 14.9657 15.7407 14.4657 16.0203C14.2657 15.5544 14.0657 15.1817 13.8657 14.7158C14.2657 14.4363 14.5657 14.2499 14.9657 13.9704C15.2657 14.3431 15.5657 14.7158 15.8657 15.1817Z" fill="#020203"/>
<path d="M19.6641 6.51562C19.8641 6.51562 19.9641 6.51562 20.0641 6.51562C21.064 7.07468 22.164 7.44738 23.064 8.09961C22.964 8.28597 22.764 8.28597 22.664 8.19279C21.764 7.72691 20.864 7.26103 19.9641 6.79515C19.8641 6.70198 19.8641 6.70198 19.6641 6.51562Z" fill="#EB594B"/>
<path d="M22.9656 3.62695C22.7656 3.72013 22.7656 3.90648 22.6656 3.90648C21.5656 3.90648 20.4656 4.18601 19.3656 4.55871H19.2656C19.5656 4.09283 21.7656 3.62695 22.9656 3.62695Z" fill="#EB594B"/>
<path d="M18.1641 2.60226C18.6641 1.76368 19.3641 1.01827 20.0641 0.179688C20.1641 0.272863 20.1641 0.366039 20.1641 0.366039C19.5641 1.11145 18.9641 1.85685 18.3641 2.60226C18.4641 2.69544 18.3641 2.69544 18.1641 2.60226C18.2641 2.69544 18.2641 2.60226 18.1641 2.60226Z" fill="#EB594B"/>
</svg>
