<svg width="20" height="19" viewBox="0 0 20 19" fill="none" xmlns="http://www.w3.org/2000/svg">
<path d="M14.8359 6.14293C15.0359 5.58388 17.0359 3.90671 18.4359 3.34766C18.5359 3.53401 18.5359 3.62718 18.3359 3.72036C17.1359 4.27941 16.1359 5.118 15.1359 6.04976C15.1359 6.14293 15.0359 6.14293 14.8359 6.14293Z" fill="#EB594B"/>
<path d="M13.236 0.179688C13.336 0.645567 13.036 1.11145 12.936 1.57733C12.836 2.0432 12.636 2.60226 12.536 3.06814C12.336 3.53402 12.236 3.9999 12.036 4.65213C11.936 4.46578 11.836 4.3726 11.936 4.27943C12.036 3.9999 12.036 3.72037 12.136 3.53402C12.536 2.60226 12.836 1.6705 12.936 0.738743C12.936 0.552391 13.036 0.366039 13.036 0.179688C13.036 0.179688 13.136 0.179688 13.236 0.179688Z" fill="#EB594B"/>
<path d="M19.2375 9.2168C18.2375 8.37822 17.1375 8.09869 15.9375 7.81916V7.72599C16.0375 7.72599 16.1375 7.63281 16.2375 7.63281C17.2375 7.81916 18.1375 8.09869 18.9375 8.65775C19.1375 8.75092 19.2375 8.8441 19.2375 9.2168Z" fill="#EB594B"/>
<path d="M0.833864 10.335C0.733865 10.4281 0.533867 10.335 0.533867 10.2418C0.433868 10.1486 0.433868 10.0554 0.433868 9.96226C0.433868 9.77591 0.333869 9.58956 0.333869 9.4032C0.13387 8.93733 0.0338714 8.2851 0.333869 7.91239C0.533867 7.53969 0.933863 7.44651 1.33386 7.26016C1.43386 7.26016 1.53386 7.16699 1.63386 7.26016C1.73386 7.26016 1.73385 7.35334 1.83385 7.35334C2.33385 7.81922 2.53385 8.37827 2.83384 8.93732C2.93384 9.31003 3.13384 9.68273 3.03384 10.1486C3.03384 10.5213 2.73385 10.9872 2.33385 11.0804C2.13385 11.1735 1.93385 11.1735 1.73386 11.1735C1.43386 11.1735 1.23386 11.1735 1.03386 10.9872C0.533867 10.7077 0.433868 10.0554 0.23387 9.58956" fill="white"/>
<path d="M7.93463 6.60742C8.03463 6.60742 8.13463 6.60742 8.23463 6.60742C8.33463 6.60742 8.43463 6.7006 8.53463 6.79377C8.83463 7.16648 8.93463 7.53918 8.93463 8.00506C8.93463 8.19141 8.93463 8.37776 8.83463 8.56411C8.63463 9.12317 8.03463 9.58905 7.33463 9.68222C6.43463 9.7754 5.83463 9.21634 6.03463 8.37776C6.23463 7.446 7.03463 6.79377 7.93463 6.60742Z" fill="white"/>
<path d="M13.0351 8.84513C13.1351 8.84513 13.1351 8.93831 13.2351 8.93831C13.4351 9.12466 13.6351 9.31101 13.7351 9.59054C14.2351 10.8018 12.0351 12.5722 11.035 11.3609C10.735 10.895 10.635 10.2428 10.935 9.77689C11.2351 9.31101 12.4351 8.65878 13.0351 8.84513Z" fill="white"/>
<path d="M5.83327 11.4527C6.33327 11.2664 6.83327 11.08 7.33327 11.1732C7.73327 11.1732 8.03327 11.3596 8.43327 11.4527C9.53327 12.0118 10.5333 12.8504 10.9333 14.0617C11.3333 15.1798 10.9333 16.5774 9.93327 17.2297C9.13327 17.7887 7.93327 17.8819 6.93327 17.9751C6.33327 17.9751 5.73327 17.9751 5.13327 17.8819C3.93327 17.6024 1.93328 16.2047 2.33328 14.9003C2.53328 13.4094 4.43327 12.0118 5.83327 11.4527Z" fill="white"/>
<path d="M1.9339 10.8952C1.8339 11.0815 -0.166111 9.96339 0.833895 9.21799C1.7339 8.65893 2.1339 10.3361 1.9339 10.8952Z" fill="#BCBCBB"/>
<path d="M6.63459 9.49796C5.93459 9.40478 5.4346 7.35491 6.63459 7.54127C7.63458 7.63444 7.63458 9.68431 6.63459 9.49796Z" fill="#BCBCBB"/>
<path d="M11.132 11.5475C11.032 11.4543 10.932 11.268 10.932 11.0816C10.932 10.8021 10.832 10.4294 10.832 10.1498C10.832 9.68396 10.832 9.12491 11.432 8.93856C11.932 8.75221 12.632 9.21808 12.732 9.68396C12.932 10.243 11.932 12.3861 11.132 11.5475Z" fill="#BCBCBB"/>
<path d="M5.03236 14.2505C5.33236 15.089 5.53236 16.2072 5.03236 16.9526C4.53236 17.5116 3.63236 17.7911 2.83236 17.698C2.63236 17.698 2.43236 17.698 2.23236 17.6048C2.03236 17.4184 1.83236 17.1389 1.83236 16.9526C1.53236 15.9276 1.73236 14.8095 2.23236 13.8778C2.53236 13.4119 3.43236 12.1074 4.13236 12.1074C4.83236 12.1074 4.83236 13.6914 5.03236 14.2505Z" fill="#BCBCBB"/>
<path d="M11.2361 16.0201C11.2361 16.2996 11.1361 16.6723 11.1361 17.1382C11.0361 17.8836 10.5361 18.4426 9.83609 18.7222C9.63609 18.8153 9.33609 18.8153 9.13609 18.8153C8.63609 18.629 8.2361 18.4426 7.7361 18.2563C7.0361 17.8836 6.3361 17.6972 5.53611 17.8836C4.83611 17.9767 4.23611 18.0699 3.53611 18.1631C3.13612 18.1631 2.73612 18.1631 2.33612 18.1631C1.53612 17.9767 1.13612 17.2313 1.33612 16.5791C1.53612 15.9269 1.73612 15.1815 2.03612 14.5292C2.33612 13.6907 2.93612 12.9453 3.73611 12.3862C4.23611 12.0135 4.83611 11.734 5.43611 11.3613C5.73611 11.1749 6.0361 11.0817 6.3361 10.9886C8.1361 10.6159 8.83609 11.0817 9.93609 12.293C10.3361 12.7589 10.5361 13.2248 10.8361 13.6907C11.0361 14.0634 11.1361 14.4361 11.2361 14.8088C11.2361 15.1815 11.2361 15.5542 11.2361 16.0201ZM3.73611 15.1815V15.2746C3.33612 15.461 2.93612 15.5542 2.53612 15.7405C1.93612 15.9269 1.93612 16.0201 1.93612 16.5791C1.93612 16.6723 1.93612 16.7655 1.93612 16.8586C2.03612 17.5109 2.43612 17.7904 3.13612 17.7904C3.43611 17.7904 3.73611 17.6972 4.03611 17.6972C4.53611 17.604 5.13611 17.5109 5.63611 17.5109C6.3361 17.4177 7.0361 17.604 7.7361 17.8836C8.1361 18.0699 8.63609 18.2563 9.03609 18.4426C9.43609 18.629 9.73609 18.5358 10.0361 18.3495C10.3361 18.0699 10.6361 17.7904 10.7361 17.3245C10.9361 16.4859 10.8361 15.7405 10.7361 14.9951C10.5361 13.9702 10.0361 13.1316 9.33609 12.293C9.13609 11.8271 8.73609 11.4544 8.1361 11.3613C7.1361 11.3613 6.0361 11.4544 5.13611 11.9203C5.03611 12.0135 4.83611 12.1067 4.73611 12.1067C4.13611 12.3862 3.73611 12.7589 3.33611 13.318C3.13612 13.6907 2.83612 13.9702 2.63612 14.3429C2.53612 14.5292 2.33612 14.7156 2.43612 14.9019C3.13612 14.7156 3.93611 14.4361 4.63611 14.2497V14.3429C4.53611 14.3429 4.43611 14.4361 4.43611 14.4361C3.93611 14.6224 3.33611 14.8088 2.83612 14.9951C2.53612 15.1815 2.13612 15.2746 2.13612 15.7405C2.73612 15.5542 3.23612 15.3678 3.73611 15.1815Z" fill="#020203"/>
<path d="M3.23499 9.59065C3.23499 10.3361 2.73499 10.9883 2.13499 11.1746C1.63499 11.361 1.035 11.1746 0.734997 10.8019C0.0349998 10.0565 -0.164999 9.31112 0.134999 8.37936C0.334998 7.91348 0.734996 7.54078 1.23499 7.26125C1.43499 7.16808 1.73499 7.26125 1.83499 7.35443C2.43499 7.72713 2.73499 8.19301 2.93499 8.75206C3.13499 9.12477 3.23499 9.4043 3.23499 9.59065ZM0.534998 9.03159C0.634997 9.59065 0.834996 10.1497 1.43499 10.5224C2.13499 11.0815 2.63499 10.8951 2.93499 10.1497C3.03499 9.777 2.93499 9.49747 2.83499 9.12477C2.63499 8.56571 2.33499 8.09983 1.83499 7.72713C1.63499 7.63395 1.43499 7.54078 1.23499 7.72713C0.834996 8.00666 0.534998 8.37936 0.534998 9.03159Z" fill="#020203"/>
<path d="M8.83679 7.72716C8.83679 8.47257 8.43679 8.93844 7.93679 9.4975C7.53679 9.8702 6.43679 9.4975 6.13679 9.03162C5.63679 8.19304 6.13679 7.26128 6.63679 6.88858C6.93679 6.60905 7.43679 6.51587 7.73679 6.32952C7.93679 6.23635 8.13679 6.32952 8.33679 6.51587C8.63679 6.70223 8.83679 7.26128 8.83679 7.72716ZM6.53679 8.84527C6.93679 8.75209 7.23679 8.65892 7.63679 8.56574C7.03679 8.84527 7.03679 8.84527 6.83679 9.1248C7.03679 9.1248 7.23679 9.12479 7.33679 9.21797C7.73679 9.4975 7.93679 9.21797 8.13679 9.03162C8.33679 8.84527 8.43679 8.56574 8.63679 8.28621C8.93679 7.63398 8.63679 6.88858 8.03679 6.51587C7.33679 6.7954 6.53679 7.07493 6.53679 8.00669C6.83679 7.91351 7.13679 7.91351 7.43679 7.82033C7.23679 7.91351 7.13679 8.00669 6.93679 8.09986C6.43679 8.28621 6.43679 8.28621 6.53679 8.84527Z" fill="#020203"/>
<path d="M10.6367 10.5222C10.6367 9.77683 11.3367 8.93824 12.0367 8.65871C12.7367 8.37919 13.3367 8.65871 13.5367 9.31095C13.7367 9.96318 13.6367 10.5222 13.1367 10.9881C12.6367 11.454 12.1367 11.8267 11.3367 11.5472C10.7367 11.3608 10.6367 11.2676 10.6367 10.5222ZM11.4367 9.96318C11.3367 10.0564 11.2367 10.1495 11.0367 10.3359C11.3367 10.3359 11.6367 10.2427 11.8367 10.2427C11.8367 10.2427 11.8367 10.2427 11.8367 10.3359C11.6367 10.4291 11.4367 10.5222 11.1367 10.6154C11.3367 10.8949 11.5367 11.1745 11.7367 11.3608C12.3367 11.3608 12.7367 11.1745 13.1367 10.7086C13.4367 10.3359 13.5367 9.68365 13.1367 9.31095C13.0367 9.21777 12.9367 9.12459 12.7367 9.12459C12.2367 9.03142 11.5367 9.40412 11.3367 9.87C11.3367 9.77682 11.4367 9.87 11.4367 9.96318Z" fill="#020203"/>
<path d="M11.4336 9.96319C11.6336 9.77658 11.8336 9.77658 12.0336 9.86988C11.8336 9.86988 11.6336 9.86988 11.4336 9.96319Z" fill="#020203"/>
</svg>
