<svg width="29" height="19" viewBox="0 0 29 19" fill="none" xmlns="http://www.w3.org/2000/svg">
<path d="M9.19843 2.50931C9.29843 2.22979 9.39842 1.95026 9.49842 1.57755C9.49842 1.57755 9.49842 1.48438 9.59842 1.48438C9.69842 1.3912 9.79841 1.57755 9.89841 1.67073C10.0984 2.22979 10.1984 2.78884 9.99841 3.3479C9.99841 3.44107 9.89841 3.53425 9.79841 3.53425C9.79841 3.53425 9.69842 3.53425 9.69842 3.44107C9.29843 3.16154 9.09843 2.78884 8.89844 2.32296" fill="white"/>
<path d="M20.1016 6.88809C20.3016 6.70174 20.4016 6.51539 20.4016 6.32904C20.4016 6.32904 20.4016 6.23586 20.5016 6.23586C20.6016 6.14268 20.7016 6.23586 20.8016 6.32904C21.0016 6.60856 21.3016 6.79492 21.4016 7.07444C21.5016 7.35397 21.6016 7.72668 21.4016 8.0062C21.4016 8.09938 21.3016 8.19256 21.2016 8.09938C21.2016 8.09938 21.1016 8.09938 21.1016 8.0062C20.7016 7.6335 20.4016 7.2608 20.1016 6.88809Z" fill="white"/>
<path d="M6.30078 16.2068C5.90078 14.9024 7.00078 13.5047 6.40078 12.2935C6.20078 11.8276 5.70078 11.4549 5.30078 11.0822C5.90078 10.7095 6.40078 10.1504 6.90078 9.59135C7.00078 10.0572 7.50078 10.3368 7.90078 10.3368C8.40078 10.3368 8.80078 10.1504 9.30078 9.96405C9.80078 9.68453 10.4008 9.31182 10.5008 8.84594C10.6008 8.47324 10.4008 8.19371 10.6008 7.82101C10.7008 7.63466 10.9008 7.44831 11.1008 7.35513C11.7008 6.88925 12.3008 6.42337 13.0008 5.95749C13.3008 5.67796 13.7008 5.39844 14.2008 5.39844C15.2008 5.39844 15.7008 6.42337 16.6008 6.79608C16.8008 6.88925 17.0008 6.88925 17.2008 6.98243C17.7008 7.26195 17.8008 7.82101 18.1008 8.28689C18.5008 8.84594 19.3008 9.12547 19.5008 9.7777C19.5008 9.96405 19.5008 10.1504 19.6008 10.3368C19.8008 11.1753 21.1008 11.3617 21.3008 12.2003C21.5008 12.9457 20.8008 13.5979 20.1008 13.9706C18.3008 14.9024 16.3008 15.0887 14.3008 15.1819C12.3008 15.2751 10.2008 15.2751 8.30078 15.741" fill="white"/>
<path d="M9.99969 9.49794C10.1997 9.40476 10.2997 9.40476 10.3997 9.31159C10.5997 9.03206 10.4997 8.65936 10.4997 8.37983C10.4997 7.91395 10.8997 7.35489 11.3997 7.26172H11.4997L11.5997 7.35489C12.0997 8.28665 12.4997 9.31159 12.6997 10.3365C12.7997 10.7092 12.7997 11.1751 12.4997 11.5478C12.2997 11.7342 12.0997 11.9205 11.7997 12.0137C10.6997 12.4796 9.19968 12.3864 8.49968 11.3615C7.69967 10.2433 9.09968 9.87064 9.99969 9.49794Z" fill="#BCBCBB"/>
<path d="M7.90001 10.8953L13.9 11.4544L18.7 11.268L21.1 10.8953L23.4 15.3678V17.1381L20.9 18.163L13.2 18.8153L6.5 18.3494L4 17.2313L6.2 11.5476L6.7 11.8271V12.9452L7.50001 10.709L7.90001 10.8953Z" fill="#EB594B"/>
<path d="M21.1008 10.8945C21.5008 10.9877 21.6008 11.1741 21.8008 11.5468C22.1008 12.3853 22.5008 13.2239 22.8008 14.0625C23.0008 14.5284 23.2008 14.9011 23.4008 15.367C23.6008 15.8328 23.7008 16.2987 23.6008 16.8578C23.6008 16.951 23.5008 17.1373 23.4008 17.2305C22.9008 17.6032 22.4008 17.7895 21.8008 17.9759C19.6008 18.535 17.4008 18.8145 15.2008 18.9077C14.4008 18.9077 13.6008 18.9077 12.9008 18.9077C11.7008 18.9077 10.4008 18.9077 9.20078 18.9077C8.00078 18.9077 7.00078 18.535 5.80078 18.3486C5.10078 18.1622 4.50078 17.8827 4.00078 17.4168C3.80078 17.2305 3.80078 17.0441 3.80078 16.8578C4.10078 16.0192 4.40078 15.1806 4.80078 14.342C5.10078 13.783 5.30078 13.1308 5.60078 12.4785C5.60078 12.3853 5.70078 12.2922 5.70078 12.199C5.80078 12.1058 5.90078 12.1058 6.00078 12.1058C6.10078 12.1058 6.20078 12.2922 6.20078 12.2922C6.20078 12.4785 6.10078 12.6649 6.00078 12.8512C5.50078 13.8762 5.10078 14.9011 4.80078 15.926V16.0192C5.60078 16.3919 6.50078 16.3919 7.40078 16.6714C8.30078 16.951 9.20078 17.0441 10.1008 17.0441C11.0008 17.0441 11.9008 17.1373 12.8008 17.2305C12.7008 17.2305 12.6008 17.3237 12.5008 17.3237C11.2008 17.3237 9.90078 17.3237 8.70078 17.2305C8.30078 17.2305 7.90078 17.0441 7.50078 16.951C6.90078 16.8578 6.30078 16.7646 5.70078 16.5783C5.60078 16.951 5.40078 17.3237 5.30078 17.6964C5.30078 17.3237 5.40078 16.951 5.40078 16.5783C5.20078 16.5783 5.10078 16.4851 5.00078 16.4851C4.90078 16.4851 4.70078 16.4851 4.60078 16.4851C4.30078 17.0441 4.30078 17.1373 4.80078 17.51C4.90078 17.6032 5.10078 17.6964 5.30078 17.6964C5.50078 17.7895 5.70078 17.8827 6.00078 18.0691C6.00078 17.6964 6.00078 17.4168 6.10078 17.2305C6.10078 17.2305 6.10078 17.2305 6.20078 17.2305C6.20078 17.51 6.20078 17.7895 6.20078 18.0691C6.80078 18.2554 7.40078 18.3486 8.00078 18.4418C9.10078 18.535 10.2008 18.535 11.3008 18.535C12.1008 18.535 13.0008 18.535 13.8008 18.4418C14.8008 18.4418 15.7008 18.4418 16.7008 18.3486C18.0008 18.2554 19.3008 18.1622 20.6008 17.8827C21.3008 17.7895 21.9008 17.51 22.6008 17.3237C22.8008 17.2305 23.2008 17.1373 23.3008 16.951C23.4008 16.6714 23.4008 16.2056 23.3008 15.926C23.1008 15.1806 22.7008 14.5284 22.5008 13.8762C22.3008 13.2239 22.0008 12.6649 21.8008 12.0126C21.7008 11.8263 21.6008 11.6399 21.3008 11.7331C21.3008 11.2672 21.2008 11.0809 21.1008 10.8945Z" fill="#020203"/>
<path d="M7.8008 10.5214C7.4008 10.4282 7.1008 9.12374 7.1008 8.75104C7.0008 8.75104 7.0008 8.37833 7.0008 8.28516C7.0008 8.28516 6.90079 8.65786 6.80079 8.56468C6.80079 8.75104 6.50079 9.86915 6.40079 10.0555C6.00079 10.335 5.70078 10.7077 5.30078 10.9873C5.60078 11.1736 5.90079 11.2668 6.20079 11.4531C6.60079 11.7327 6.80079 12.0122 6.70079 12.4781C6.60079 12.7576 6.60079 13.0371 6.70079 13.3167C7.0008 13.1303 7.0008 12.8508 7.0008 12.4781C7.0008 12.0122 7.1008 11.6395 7.3008 11.2668C7.4008 10.9873 7.6008 10.8009 8.0008 10.8009C8.1008 10.8009 8.1008 10.8009 8.20081 10.7077C8.1008 10.6146 8.1008 10.5214 8.1008 10.5214C7.9008 10.6146 7.9008 10.6146 7.8008 10.5214ZM6.80079 11.6395C6.40079 11.4531 6.10079 11.1736 5.70078 10.9873C6.10079 10.6146 6.40079 10.335 6.80079 10.0555C7.0008 10.2418 7.1008 10.4282 7.3008 10.7077C7.2008 10.9873 7.0008 11.2668 6.80079 11.6395Z" fill="#020203"/>
<path d="M21.1008 10.6152H21.0008H20.9008C20.8008 10.6152 20.7008 10.6152 20.6008 10.7084C20.5008 10.8016 20.3008 10.8948 20.2008 10.8948C18.9008 11.2675 17.6008 11.3606 16.3008 11.2675C16.1008 11.2675 15.8008 11.2675 15.6008 11.2675C15.2008 11.2675 14.8008 11.2675 14.4008 11.2675C13.9008 11.2675 13.4008 11.1743 12.8008 11.1743C11.6008 11.1743 10.4008 11.0811 9.20078 10.8948C8.90078 10.8948 8.60078 10.8016 8.30078 10.9879C8.50078 11.0811 8.50078 11.1743 8.60078 11.1743C9.40078 11.2675 10.1008 11.4538 10.9008 11.4538C12.7008 11.547 14.5008 11.6402 16.3008 11.6402C16.8008 11.6402 17.3008 11.6402 17.8008 11.6402C19.0008 11.547 20.1008 11.3606 21.2008 10.9879C21.1008 10.8016 21.1008 10.7084 21.1008 10.6152Z" fill="#020203"/>
<path d="M13.1992 14.4352C12.8992 14.0625 12.7992 13.8761 12.5992 13.5966C12.3992 13.4102 12.1992 13.2239 11.9992 13.0375C11.6992 12.8512 11.4992 13.0375 11.4992 13.3171C11.4992 13.7829 11.5992 14.1556 11.9992 14.5284C12.2992 14.8079 12.4992 15.0874 12.7992 15.3669C12.8992 15.4601 12.9992 15.5533 12.9992 15.6465C12.9992 15.6465 12.9992 15.7396 12.8992 15.7396C12.7992 15.7396 12.6992 15.6465 12.5992 15.6465C12.2992 15.3669 11.9992 15.0874 11.6992 14.7147C11.2992 14.342 11.1992 13.7829 11.1992 13.2239C11.1992 12.758 11.5992 12.4785 12.0992 12.758C12.2992 12.8512 12.4992 13.1307 12.6992 13.3171C12.7992 13.4102 12.8992 13.5966 13.0992 13.7829C13.4992 13.3171 13.8992 13.0375 14.3992 12.9444C15.0992 12.758 15.4992 13.0375 15.3992 13.6898C15.2992 14.1556 15.1992 14.6215 14.7992 14.9942C14.3992 15.3669 14.0992 15.7396 13.6992 16.1123C13.5992 16.2055 13.4992 16.2055 13.3992 16.2055C13.3992 16.2055 13.3992 16.1123 13.2992 16.1123C13.5992 15.8328 13.8992 15.5533 14.1992 15.2738C14.5992 14.9011 14.9992 14.4352 15.0992 13.8761C15.1992 13.5966 15.2992 13.3171 14.9992 13.0375C14.7992 12.8512 14.2992 12.9444 13.9992 13.1307C13.7992 13.3171 13.6992 13.5034 13.4992 13.6898C13.2992 14.0625 13.2992 14.2488 13.1992 14.4352Z" fill="white"/>
<path d="M14.8008 16.8574C15.1008 16.6711 15.5008 16.6711 15.8008 16.5779C16.3008 16.4847 16.7008 16.4847 17.2008 16.4847C18.7008 16.3915 20.2008 16.0188 21.6008 15.6461C22.0008 15.553 22.3008 15.3666 22.7008 15.2734C22.7008 15.553 22.6008 15.553 22.5008 15.6461C21.3008 15.9257 20.2008 16.2984 19.0008 16.5779C18.0008 16.7642 17.0008 16.7642 15.9008 16.8574C15.5008 16.8574 15.2008 16.9506 14.8008 16.9506C14.8008 16.9506 14.8008 16.8574 14.8008 16.8574Z" fill="#020203"/>
<path d="M24.8008 8.56628C25.3008 8.19305 26.9008 8.19305 28.1008 8.47297C28.6008 8.56628 28.6008 8.65958 28.8008 8.9395C27.5008 8.47297 26.2008 8.47297 24.8008 8.56628Z" fill="#EB594B"/>
<path d="M24.3984 6.51594C24.3984 6.32959 24.3984 6.32959 24.4984 6.32959C25.3984 5.67736 26.2984 5.02513 27.3984 4.55925C27.5984 4.46607 27.6984 4.46607 27.6984 4.65243C27.3984 4.83878 27.1984 4.83878 26.9984 4.93195C26.2984 5.39783 25.4984 5.86371 24.7984 6.32959C24.6984 6.42277 24.5984 6.42277 24.3984 6.51594Z" fill="#EB594B"/>
<path d="M24.3008 10.9875C24.5008 10.7079 24.6008 10.8943 24.7008 10.9875C25.0008 11.267 25.4008 11.6397 25.7008 11.9192C26.0008 12.3851 26.3008 12.851 26.4008 13.41C25.8008 12.4783 25.3008 11.5465 24.3008 10.9875Z" fill="#EB594B"/>
<path d="M0.898438 5.39844C0.998436 5.39844 1.09843 5.39844 1.19843 5.39844C1.59842 5.58479 1.89842 5.77114 2.29841 6.05067C2.69841 6.3302 3.0984 6.7029 3.59839 7.0756C3.39839 7.26195 3.29839 7.16878 3.0984 7.0756C2.8984 6.88925 2.69841 6.79607 2.49841 6.60972C2.09842 6.05067 1.49843 5.67796 0.898438 5.39844Z" fill="#EB594B"/>
<path d="M2.59998 9.3128C2.09998 9.21949 1.69998 9.03288 1.29999 8.93957C0.899992 8.84627 0.499995 8.84627 0 8.84627C0.0999991 8.75296 0.199998 8.65965 0.199998 8.65965C0.799993 8.56634 1.29999 8.65965 1.89998 8.84627C2.19998 8.93957 2.39998 9.03288 2.59998 9.12619C2.59998 9.21949 2.59998 9.21949 2.59998 9.3128Z" fill="#EB594B"/>
<path d="M1.5 12.1996C1.6 12.1065 1.7 11.9201 1.8 11.8269C2.1 11.4542 2.5 11.1747 2.8 10.8952C3 10.7088 3.2 10.6156 3.5 10.8952C2.6 11.1747 2.1 11.7338 1.5 12.1996Z" fill="#EB594B"/>
<path d="M21.5016 12.1992C21.1016 12.3858 20.6016 12.4791 20.1016 12.6658C20.5016 12.2925 20.9016 12.1992 21.5016 12.1992Z" fill="#020203"/>
<path d="M21.2016 11.5469C20.9016 11.7335 20.5016 11.8268 20.1016 11.9201V11.8268C20.4016 11.6402 20.8016 11.6402 21.2016 11.5469Z" fill="#020203"/>
<path d="M7.7 10.9888C8.2 10.6161 8.7 10.3366 9.4 10.8025C9.6 10.4298 9.6 10.4298 9.3 10.3366C9 10.2434 8.8 10.1502 8.5 10.1502C8.7 9.87071 9 9.77754 9.4 9.68436C9.8 9.68436 10.2 9.68436 10.6 9.59119C10.7 9.59119 10.9 9.59119 11.1 9.49801C11 9.31166 10.8 9.21848 10.7 9.12531C10.5 8.84578 10.5 8.7526 10.9 8.56625C11.1 8.47308 11.3 8.3799 11.5 8.28672C11.5 8.28672 11.5 8.19355 11.4 8.19355C11.1 8.28673 10.8 8.3799 10.4 8.47308C10.4 8.0072 11.1 8.10037 11.5 7.72767C11.1 7.82085 10.8 7.91402 10.5 8.0072C10.6 7.44814 11 7.07544 11.5 6.79591C12 6.70274 12.4 6.70274 12.7 6.51638C13 6.33003 13 6.0505 13.2 5.77098C13.5 5.39827 14 5.49145 14.3 5.6778C14.5 5.77098 14.6 5.95733 14.8 6.14368C14.9 6.23686 14.9 6.33003 15 6.42321C15.1 6.42321 15.2 6.42321 15.3 6.42321C15.7 6.42321 16.1 6.51638 16.4 6.79591C17 7.35497 17.5 7.91402 17.4 8.65943C17.4 8.7526 17.4 8.93896 17.5 9.03213C17.5 9.03213 17.6 9.12531 17.7 9.12531C17.8 9.03213 17.9 8.93896 18 8.84578C18.4 9.12531 18.9 9.40484 19 9.77754C19.1 10.2434 18.8 10.6161 18.4 10.9888C18.5 10.9888 18.5 10.9888 18.6 10.9888C19 10.8956 19.4 10.9888 19.8 11.082C19.9 11.082 20.1 10.9888 20.3 10.9888C20 10.8025 19.7 10.7093 19.3 10.6161C19.4 10.1502 19.7 9.68436 19.3 9.31166C19 8.93896 18.6 8.56625 17.9 8.47308C17.8 7.63449 17.4 6.98226 16.6 6.42321C16.5 6.33003 16.3 6.14368 16.1 6.14368C15.4 6.14368 15.1 5.86415 14.8 5.49145C14.7 5.39827 14.5 5.3051 14.4 5.21192C13.7 4.93239 13.3 5.02557 12.9 5.49145C12.8 5.58463 12.7 5.6778 12.7 5.77098C12.6 5.95733 12.4 6.0505 12.2 6.0505C11.3 6.23686 10.6 6.70274 10.3 7.35497C10.1 7.91402 10 8.3799 10.1 8.93896C9.9 8.93896 9.7 9.03213 9.5 9.03213C8.8 9.21848 8.2 9.40484 8.1 10.0571C8.1 10.1502 8 10.2434 7.9 10.3366C7.7 10.4298 7.6 10.5229 7.5 10.7093C7.5 10.9888 7.6 10.9888 7.7 10.9888Z" fill="#020203"/>
<path d="M11 2.41591C10.9 2.50908 10.9 2.50908 10.8 2.60226C10.4 2.88179 10.2 3.16131 10.3 3.72037C10.4 4.09307 10.3 4.46578 10.3 4.7453C10.3 4.93165 10.2 5.21118 9.9 5.21118C9.9 5.02483 9.8 4.93165 9.8 4.83848C9.8 4.65213 9.8 4.3726 9.8 4.18625C9.8 3.25449 9.5 3.06814 8.6 3.16131C8.4 3.16131 8.2 3.16131 8 3.16131C8 3.06814 8 3.06814 8 2.97496C8.1 2.88179 8.2 2.88179 8.3 2.78861C9 2.60226 9.3 2.22956 9.3 1.48415C9.3 1.01827 9.3 0.552391 9.5 0.179688C9.9 0.179688 9.9 0.459215 9.9 0.645567C9.9 0.925094 9.8 1.20462 9.8 1.48415C9.7 2.0432 10 2.32273 10.6 2.13638C10.8 2.0432 10.9 2.13638 11 2.41591ZM9.9 2.97496C10.2 2.50908 10.1 2.41591 9.4 2.32273C9.4 2.41591 9.3 2.60226 9.2 2.78861C9.5 2.88179 9.7 2.88179 9.9 2.97496Z" fill="#020203"/>
<path d="M20.9984 4.74552C20.9984 4.93187 20.9984 5.2114 20.9984 5.39775C20.9984 5.5841 20.8984 5.86363 20.9984 6.04998C20.9984 6.51586 21.2984 6.79539 21.8984 6.88856C21.9984 6.88856 22.1984 6.98174 22.3984 7.07492C21.3984 7.44762 21.3984 8.00668 21.4984 8.65891C21.5984 8.93843 21.4984 9.12478 21.4984 9.40431C21.4984 9.59066 21.3984 9.77702 20.9984 9.87019C20.9984 9.59066 20.9984 9.31114 20.9984 9.03161C20.9984 8.84526 20.9984 8.56573 20.9984 8.37938C20.8984 7.82032 20.4984 7.5408 19.9984 7.5408C19.7984 7.5408 19.5984 7.5408 19.3984 7.5408C19.6984 7.26127 19.8984 6.98174 20.0984 6.70221C20.3984 6.42269 20.4984 6.04998 20.4984 5.67728C20.4984 5.39775 20.4984 5.11822 20.5984 4.8387C20.5984 4.74552 20.7984 4.74552 20.7984 4.65234C20.7984 4.65234 20.8984 4.74552 20.9984 4.74552ZM21.1984 7.63397C21.2984 7.07492 20.7984 6.98174 20.5984 6.60904C20.3984 6.79539 20.2984 6.98174 20.1984 7.16809C20.5984 7.26127 20.8984 7.44762 21.1984 7.63397Z" fill="#020203"/>
<path d="M13.1992 7.91257C13.1992 7.63304 13.3992 7.35352 13.5992 7.35352C13.7992 7.35352 13.8992 7.53987 13.8992 7.72622C13.8992 8.00575 13.6992 8.09892 13.4992 8.09892C13.2992 8.09892 13.1992 8.00575 13.1992 7.91257Z" fill="#020203"/>
<path d="M11.3008 9.96296C11.5008 9.86965 11.7008 9.49643 11.9008 9.86965C12.0008 10.0563 12.0008 10.3362 11.8008 10.3362C11.5008 10.4295 11.4008 10.2429 11.3008 9.96296Z" fill="#020203"/>
<path d="M15.8008 9.7778C15.9008 9.49788 16.1008 9.40457 16.3008 9.49788C16.4008 9.49788 16.4008 9.7778 16.4008 9.7778C16.2008 9.96442 16.0008 9.87111 15.8008 9.7778Z" fill="#020203"/>
</svg>
