<svg width="18" height="19" viewBox="0 0 18 19" fill="none" xmlns="http://www.w3.org/2000/svg">
<path d="M16.4006 8.09971C16.5006 8.00654 16.6006 8.00654 16.7006 7.91336C16.8006 7.82019 16.8006 7.63383 16.8006 7.54066C16.7006 6.79525 16.6006 5.95667 16.4006 5.21126C16.1006 4.46585 15.6006 3.81362 14.8006 3.44092C13.8006 2.88186 12.5006 3.16139 11.3006 3.06822C10.7006 3.06822 10.2006 2.97504 9.70062 3.16139C9.20062 3.25457 8.80063 3.5341 8.50063 3.81362C8.00063 4.18633 7.60063 4.46585 7.10063 4.83856C7.00063 4.83856 6.90063 4.93173 6.80063 4.93173C6.50063 5.86349 6.60063 6.88843 6.30063 7.82018C6.70063 8.09971 6.70063 8.65877 6.70063 9.21782C6.70063 9.311 6.70063 9.40417 6.60063 9.49735C6.50063 9.59053 6.50063 9.59053 6.40063 9.59053C6.10063 9.77688 6.30063 10.1496 6.40063 10.3359C7.10063 11.3609 8.20063 12.1063 8.80063 13.2244C9.00062 13.5971 9.30062 14.063 9.30062 14.5288C9.40062 15.1811 9.30062 15.647 9.80062 16.206C10.2006 16.5787 10.8006 16.7651 11.4006 16.8582C11.8006 16.8582 12.2006 16.8582 12.6006 16.8582C12.9006 16.8582 13.2006 16.7651 13.4006 16.5787C13.7006 16.2992 13.7006 15.9265 13.7006 15.647C13.7006 15.2743 13.5006 14.9947 13.5006 14.622C13.4006 13.7834 13.9006 13.038 14.4006 12.3858C14.9006 11.7336 15.6006 11.2677 16.2006 10.6155C16.4006 10.4291 16.6006 10.0564 16.4006 9.77688C16.3006 9.6837 16.2006 9.59053 16.1006 9.49735C15.9006 9.12465 15.9006 8.37924 16.4006 8.09971Z" fill="white"/>
<path d="M14.5984 10.2445C14.4984 11.0831 13.9984 11.9216 13.8984 12.7602C13.8984 12.8534 13.8984 12.9466 13.8984 13.0398C13.8984 13.1329 14.0984 13.2261 14.1984 13.1329C14.2984 13.1329 14.2984 13.0398 14.3984 13.0398C15.2984 11.9216 15.6984 10.524 16.0984 9.21954C16.1984 8.84684 16.2984 8.47414 15.9984 8.19461C15.6984 8.00826 14.7984 8.10143 14.5984 8.38096C14.2984 8.84684 14.6984 9.7786 14.5984 10.2445Z" fill="#BCBCBB"/>
<path d="M7.49969 4.09387C7.89969 3.62799 8.3997 3.16211 8.99971 3.16211C9.09971 3.16211 9.09972 3.16211 9.19972 3.16211C9.39972 3.25529 9.39972 3.53481 9.39972 3.72116C9.39972 4.55975 9.29972 5.4915 9.29972 6.33009C9.29972 7.26185 9.29972 7.63455 8.2997 7.72773C6.99968 7.8209 5.99966 7.72773 6.29967 6.23691C6.49967 5.49151 6.89968 4.7461 7.49969 4.09387Z" fill="#BCBCBB"/>
<path d="M10.5984 16.3923C10.5984 16.3923 10.5984 16.4855 10.5984 16.3923C10.5984 16.4855 10.4984 16.4855 10.4984 16.4855C10.2984 16.4855 10.0984 16.2992 9.89842 16.206C9.69843 16.1128 9.59843 16.0196 9.49843 15.8333C9.39844 15.7401 9.39844 15.5538 9.39844 15.3674C9.39844 14.9947 9.39844 14.7152 9.39844 14.3425C9.39844 14.0629 10.4984 14.622 10.5984 14.8084C10.8984 15.1811 10.6984 15.9265 10.5984 16.3923Z" fill="#BCBCBB"/>
<path d="M9.30157 15.7391L11.0016 16.6708L11.9016 16.9504L14.0016 15.5527L15.0016 16.2981L15.2016 17.1367L15.1016 18.1617L14.7016 18.4412L14.0016 17.6026L13.2016 17.4163L12.2016 17.1367L11.2016 17.0435L10.1016 17.1367L8.70157 18.0685L8.30157 18.7207L7.60156 18.0685L8.10156 17.2299L8.40157 16.764V16.3913L9.30157 15.7391Z" fill="#EB594B"/>
<path d="M4.49842 1.85685C4.39842 1.76368 4.39842 1.57733 4.39842 1.48415C4.29842 1.39097 4.19842 1.20462 4.19842 1.11145C3.99843 0.925095 3.99843 0.738743 3.89843 0.552391C3.79843 0.366039 3.69843 0.179688 3.39844 0.179688C3.39844 0.272863 3.49844 0.366039 3.49844 0.552391C3.59843 0.831919 3.79843 1.01827 3.89843 1.2978C4.09842 1.76368 4.19842 2.22956 4.39842 2.69544C4.59841 3.06814 4.79841 3.44084 4.89841 3.81355C4.99841 3.90672 5.0984 3.90672 5.1984 3.9999L5.2984 3.90672C5.1984 3.53402 4.89841 3.16132 4.69841 2.78861C4.59841 2.50908 4.49842 2.22956 4.49842 1.85685Z" fill="#EB594B"/>
<path d="M0 4.18555C1.30001 4.3719 2.50002 4.93095 3.90002 5.11731C3.80002 5.39683 3.70002 5.39683 3.50002 5.30366C3.20002 5.21048 2.90002 5.21048 2.70002 5.11731C1.90001 5.02413 1.10001 4.7446 0.300002 4.55825C0.100001 4.55825 0 4.46507 0 4.18555Z" fill="#EB594B"/>
<path d="M4.3 7.82031C4.4 8.09984 4.2 8.19302 4 8.19302C2.9 8.37937 1.9 8.56572 0.8 8.75207C0.7 8.75207 0.7 8.6589 0.5 8.6589C0.9 8.37937 1.3 8.47255 1.7 8.37937C2.2 8.28619 2.6 8.19302 3 8.09984C3.4 8.00666 3.8 7.91349 4.3 7.82031Z" fill="#EB594B"/>
<path d="M7.50157 11.9197C7.40157 11.7334 7.30157 11.6402 7.30157 11.4538C7.20156 11.1743 7.00156 10.8948 6.70156 10.7084C6.60156 10.6153 6.50156 10.5221 6.40156 10.4289C6.20156 10.2426 6.10156 10.0562 6.20156 9.77667C6.30156 9.49714 6.50156 9.40397 6.80156 9.40397C6.80156 9.40397 6.80156 9.40397 6.90156 9.40397C6.90156 9.03126 6.80156 8.56539 6.80156 8.19268C6.70156 8.19268 6.60156 8.19268 6.40156 8.09951C6.10156 8.09951 6.10156 8.00633 6.10156 7.7268C6.10156 7.44728 6.10156 7.07457 6.20156 6.79504C6.40156 6.14281 6.60156 5.58376 6.80156 5.0247C7.20156 4.2793 7.70157 3.62707 8.50157 3.25436C9.20157 2.97484 9.90157 2.78848 10.7016 2.88166C11.0016 2.88166 11.2016 2.97484 11.5016 2.97484C11.8016 3.06801 12.0016 3.06801 12.3016 2.97484C12.4016 2.88166 12.6016 2.88166 12.8016 2.88166C13.8016 2.88166 14.7016 3.06801 15.5016 3.72024C15.7016 3.90659 15.9016 4.18612 16.0016 4.46565C16.5016 5.30423 16.9016 6.23599 17.0016 7.26092C17.0016 7.44728 17.0016 7.63363 17.0016 7.91315C17.0016 8.09951 16.9016 8.28586 16.7016 8.28586C16.5016 8.37903 16.2016 8.37903 16.0016 8.37903C15.7016 8.37903 15.4016 8.47221 15.2016 8.47221C14.8016 8.47221 14.5016 8.47221 14.1016 8.37903C13.5016 8.28586 12.9016 8.19268 12.3016 8.19268C12.2016 8.19268 12.1016 8.19268 12.1016 8.19268C11.8016 8.37903 11.4016 8.28586 11.1016 8.28586C10.6016 8.28586 10.2016 8.28586 9.70157 8.28586C9.50157 8.28586 9.30157 8.28586 9.10157 8.56539C9.00157 8.75174 8.60157 8.84491 8.30157 8.93809C8.30157 8.93809 8.20157 8.84491 8.00157 8.75174C8.30157 8.65856 8.50157 8.56538 8.70157 8.47221C8.40157 8.28586 7.50157 8.28586 7.10156 8.37903C7.00156 8.65856 7.10156 8.93809 7.10156 9.31079C7.30157 10.1494 7.60157 10.8948 7.90157 11.6402C8.20157 12.5719 8.80157 13.3174 9.50157 13.9696C10.1016 14.4355 10.8016 14.6218 11.5016 14.715C11.6016 14.715 11.8016 14.715 11.9016 14.6218C12.9016 14.3423 13.6016 13.7832 14.2016 13.0378C14.9016 12.1992 15.4016 11.1743 15.7016 10.1494C15.8016 9.6835 15.8016 9.21762 15.9016 8.84491C15.9016 8.75174 15.9016 8.65856 15.9016 8.47221C16.2016 8.56538 16.1016 8.65856 16.1016 8.84491C16.1016 8.93809 16.1016 9.12444 16.1016 9.21762L16.2016 9.31079C16.8016 9.59032 16.9016 9.77667 16.6016 10.3357C16.5016 10.6153 16.3016 10.8016 16.2016 11.0811C16.1016 11.1743 15.9016 11.2675 15.8016 11.3607C15.7016 11.4538 15.6016 11.4538 15.5016 11.547C15.1016 12.4788 14.5016 13.2242 13.8016 13.8764C13.8016 14.0628 13.8016 14.2491 13.8016 14.4355C13.8016 14.6218 13.8016 14.8082 13.8016 14.9945C13.8016 15.274 13.9016 15.4604 14.2016 15.6467C15.0016 16.0195 15.7016 16.9512 15.3016 17.883C15.2016 18.1625 15.1016 18.3488 14.7016 18.442C14.1016 17.883 13.3016 17.3239 12.4016 17.2307C12.1016 17.1376 11.8016 17.1376 11.4016 17.1376C10.6016 17.2307 9.80157 17.4171 9.10157 17.883C8.80157 18.1625 8.50157 18.3488 8.10157 18.6284C8.20157 18.7216 8.10157 18.8147 8.00157 18.8147C7.50157 18.442 7.40156 17.7898 7.70157 17.2307C8.00157 16.5785 8.60157 16.1126 9.30157 15.8331C9.30157 15.3672 9.20157 14.9013 9.30157 14.3423C9.50157 14.4355 9.50157 14.6218 9.50157 14.8082C9.50157 14.9945 9.50157 15.0877 9.60157 15.3672C9.90157 15.274 10.1016 15.0877 10.3016 14.9945C10.3016 14.9945 10.3016 14.9945 10.3016 15.0877C10.1016 15.274 9.90157 15.4604 9.60157 15.6467C9.60157 15.6467 9.60157 15.7399 9.60157 15.8331C9.80157 15.7399 10.1016 15.6467 10.3016 15.5536C10.3016 15.5536 10.3016 15.5536 10.3016 15.6467C10.1016 15.8331 9.90157 15.9263 9.60157 16.1126C9.80157 16.299 10.0016 16.3922 10.3016 16.4853C10.7016 16.5785 11.0016 16.7649 11.4016 16.858C11.6016 16.9512 11.7016 16.9512 11.9016 16.858C12.3016 16.6717 12.7016 16.3922 13.1016 16.2058C13.5016 16.0195 13.7016 15.7399 13.6016 15.274C13.6016 14.9945 13.6016 14.6218 13.6016 14.2491C13.5016 14.3423 13.4016 14.3423 13.3016 14.3423C12.8016 14.5286 12.3016 14.715 11.9016 14.9945C11.6016 15.1809 11.3016 14.9945 10.9016 14.9013C10.6016 14.8082 10.3016 14.715 10.0016 14.6218C9.60157 14.4355 9.30157 14.2491 9.00157 13.9696C8.60157 13.5037 8.20157 13.0378 7.90157 12.5719C7.80157 12.3856 7.60157 12.2924 7.50157 12.1061C7.70157 12.0129 7.60157 11.9197 7.50157 11.7334C7.50157 11.8265 7.50157 11.9197 7.50157 11.9197ZM14.5016 16.1126C14.3016 16.0195 14.1016 15.8331 14.0016 15.7399C13.4016 16.1126 12.8016 16.3922 12.2016 16.7649C12.6016 16.858 12.9016 16.9512 13.2016 17.0444C13.5016 17.1376 13.8016 17.3239 14.1016 17.5103C14.4016 17.6966 14.6016 17.883 14.9016 18.0693C15.4016 17.5103 15.3016 16.6717 14.7016 16.299C14.5016 16.4853 14.2016 16.6717 14.0016 16.858C14.0016 16.858 14.0016 16.7649 13.9016 16.7649C14.1016 16.5785 14.3016 16.4853 14.4016 16.299C14.5016 16.299 14.6016 16.299 14.5016 16.1126ZM15.1016 7.63363C15.2016 7.7268 15.3016 7.81998 15.3016 7.81998C15.4016 8.00633 15.5016 8.09951 15.8016 8.09951C15.9016 8.09951 16.0016 8.09951 16.0016 8.09951C16.7016 8.09951 16.8016 8.00633 16.7016 7.3541C16.6016 6.42234 16.3016 5.67693 15.9016 4.83835C15.7016 4.46565 15.5016 3.99977 15.1016 3.72024C14.6016 3.34754 14.0016 3.25436 13.4016 3.16119C12.9016 3.06801 12.5016 3.16119 12.1016 3.34754C11.9016 3.44071 11.6016 3.44071 11.4016 3.44071C10.9016 3.25436 10.4016 3.25436 9.90157 3.25436C9.10157 3.25436 8.40157 3.53389 7.90157 4.09295C7.20156 4.74518 6.80156 5.49058 6.50156 6.42234C6.50156 6.51552 6.50156 6.60869 6.50156 6.70187C6.80156 6.51552 7.10156 6.23599 7.40156 6.14281C7.20156 6.32917 7.00156 6.42234 6.80156 6.60869C6.60156 6.79504 6.30156 6.88822 6.30156 7.16775C6.60156 7.07457 6.80156 6.79504 7.10156 6.79504C6.90156 7.16775 6.30156 7.16775 6.30156 7.7268C6.60156 7.7268 6.80156 7.7268 7.00156 7.7268C7.90157 7.7268 8.80157 7.81998 9.70157 7.81998C10.1016 7.81998 10.4016 7.81998 10.8016 7.81998C11.0016 7.81998 11.1016 7.81998 11.2016 8.00633C11.3016 8.19268 11.5016 8.09951 11.5016 7.91315C11.5016 7.7268 11.6016 7.63363 11.6016 7.44728C11.6016 7.3541 11.7016 7.3541 11.8016 7.26092C11.8016 7.44728 11.8016 7.63363 11.7016 7.7268C12.5016 7.91316 14.3016 8.09951 14.7016 8.09951C15.0016 8.00633 15.0016 7.91315 15.1016 7.63363ZM10.7016 16.6717C10.2016 16.4853 9.70157 16.3922 9.30157 16.0195C9.20157 16.0195 9.10157 16.0195 9.00157 16.1126C8.60157 16.3922 8.20157 16.7649 8.00157 17.1376C7.80157 17.5103 7.80157 17.883 8.00157 18.2557C8.80157 17.6034 9.80157 17.2307 10.7016 16.6717ZM15.8016 11.0811C16.2016 10.7084 16.4016 10.3357 16.5016 9.96302C16.5016 9.77667 16.4016 9.6835 16.3016 9.6835C16.1016 9.6835 16.1016 9.77667 16.0016 9.86985C15.9016 10.2425 15.8016 10.6153 15.7016 10.8948C15.7016 10.988 15.8016 10.988 15.8016 11.0811ZM7.10156 10.4289C7.10156 10.2426 7.00156 10.0562 6.90156 9.96302C6.80156 9.86985 6.70156 9.77667 6.60156 9.86985C6.50156 9.96302 6.40156 10.1494 6.50156 10.2426C6.60156 10.4289 6.70156 10.5221 6.90156 10.7084C7.00156 10.5221 7.00156 10.4289 7.10156 10.4289Z" fill="#020203"/>
<path d="M13.3008 9.96393C13.4008 9.87075 13.4008 9.6844 13.6008 9.59122C13.7008 9.49805 13.9008 9.49805 14.0008 9.49805C14.2008 9.49805 14.2008 9.6844 14.3008 9.77757C14.3008 10.0571 14.3008 10.3366 14.0008 10.523C13.8008 10.7093 13.5008 10.6162 13.4008 10.3366C13.3008 10.2435 13.3008 10.1503 13.3008 9.96393Z" fill="#020203"/>
<path d="M9.60156 9.68407C9.50156 9.87042 9.40156 10.15 9.30156 10.2431C9.10156 10.4295 8.90156 10.4295 8.80156 10.15C8.70156 9.87042 8.70156 9.5909 8.80156 9.40455C8.90156 9.21819 9.10156 9.12502 9.30156 9.21819C9.50156 9.31137 9.60156 9.40455 9.60156 9.68407Z" fill="#020203"/>
<path d="M12.2023 11.5475C11.9023 11.5475 11.6023 11.6406 11.3023 11.6406C11.0023 11.6406 10.9023 11.5475 11.0023 11.2679C11.0023 10.9884 11.1023 10.6157 11.1023 10.3362C11.1023 10.243 11.1023 10.1498 11.2023 10.0566C11.4023 10.243 11.3023 10.5225 11.3023 10.7089C11.3023 10.8952 11.3023 11.1747 11.3023 11.3611C11.6023 11.5475 11.9023 11.2679 12.1023 11.5475C12.2023 11.4543 12.2023 11.4543 12.2023 11.5475Z" fill="#020203"/>
<path d="M10.8008 12.9453C11.0008 13.0386 11.2008 13.1319 11.5008 13.2252C11.7008 13.2252 12.0008 13.1319 12.2008 13.0386C12.2008 13.0386 12.2008 13.1319 12.2008 13.2252C11.8008 13.5985 11.1008 13.5052 10.8008 12.9453C10.8008 13.0386 10.8008 12.9453 10.8008 12.9453Z" fill="#020203"/>
<path d="M14.6008 8.93757C14.3008 9.03048 14.0008 9.03048 13.8008 8.93757C13.9008 8.65883 14.2008 8.65883 14.6008 8.93757Z" fill="#020203"/>
<path d="M11.7 14.1546C11.6 14.1546 11.5 14.1546 11.5 14.1546C11.5 14.0617 11.5 14.0617 11.6 13.9688C11.6 13.9688 11.6 14.0617 11.7 14.1546C11.7 14.0617 11.7 14.0617 11.7 14.1546Z" fill="#020203"/>
<path d="M14.5016 16.1133C14.2016 16.2999 13.9016 16.4865 13.6016 16.6731C13.7016 16.3932 14.1016 16.2066 14.5016 16.1133Z" fill="#020203"/>
</svg>
