<svg width="86" height="80" viewBox="0 0 86 80" fill="none" xmlns="http://www.w3.org/2000/svg">
<circle cx="48" cy="40.5" r="34.5" fill="#4EACB6" fill-opacity="0.4"/>
<g clip-path="url(#clip0_12765_9128)">
<path d="M50.25 56.25C50.25 64.9485 42.7843 72 34.5 72C26.2157 72 19.5 64.9485 19.5 56.25C19.5 47.5515 26.2157 40.5 34.5 40.5C42.7843 40.5 50.25 47.5515 50.25 56.25Z" fill="white"/>
<path d="M84.75 23.25C84.75 31.9485 77.2843 39 69 39C60.7157 39 54 31.9485 54 23.25C54 14.5515 60.7157 7.5 69 7.5C77.2843 7.5 84.75 14.5515 84.75 23.25Z" fill="white"/>
<path d="M49.735 53.7852C49.735 53.7852 46.6435 73.5627 24.8096 67.912C24.8096 67.912 29.0604 72.9782 35.7265 72.2962C42.3926 71.6142 53.213 60.7024 49.735 53.7852Z" fill="#BCBCBB"/>
<path d="M84.3219 21.2422C84.3219 21.2422 81.2304 41.0198 59.3965 35.369C59.3965 35.369 63.6473 40.4352 70.3134 39.7532C76.8829 38.9738 87.7999 28.1595 84.3219 21.2422Z" fill="#BCBCBB"/>
<path d="M18.8202 55.2422C21.0423 55.437 23.1677 56.0216 25.2931 56.7036C25.2931 56.801 25.2931 56.8984 25.1965 56.9959C22.9745 56.5087 20.8491 56.119 18.7236 55.6319C18.8202 55.5345 18.8202 55.3396 18.8202 55.2422Z" fill="black"/>
<path d="M19.0137 54.5616C20.9459 54.8539 22.8781 55.2436 24.7137 55.5358C24.7137 55.4384 24.7137 55.341 24.8103 55.2436C22.9747 54.8539 21.1391 54.4642 19.2069 54.1719C19.1103 54.2693 19.0137 54.4642 19.0137 54.5616Z" fill="black"/>
<path d="M50.9908 55.8288C50.5077 51.9318 48.962 48.4244 46.7399 45.2093C45.3874 43.3582 43.6484 41.8968 41.523 41.02C40.0738 40.338 38.5281 40.0457 36.9823 39.5586C36.4992 39.5586 35.9196 39.5586 35.4365 39.5586C34.1806 39.656 32.9247 40.0457 31.6687 40.1432C31.5721 40.1432 31.5721 40.1432 31.4755 40.1432C31.2823 40.1432 31.0891 40.2406 30.8959 40.2406C29.4467 40.7277 27.8043 41.1174 26.4518 41.8968C25.4857 42.4814 24.7128 43.0659 23.8433 43.7479C23.3603 44.2351 22.8772 44.6248 22.3942 45.2093C21.4281 46.281 20.5586 47.5476 19.9789 49.009C19.3026 50.5678 18.5298 52.1266 18.2399 53.7829C17.6603 56.316 17.6603 58.9465 18.5298 61.4796C19.5925 64.7921 21.6213 67.4226 24.3264 69.3711C26.4518 70.9299 28.9637 71.9042 31.5721 72.4887C35.0501 73.2682 38.4314 73.1707 41.4264 70.9299C41.6196 70.7351 41.9094 70.6376 42.1992 70.5402C45.5806 68.6891 47.8026 65.6689 49.5416 62.3564C50.4111 60.7001 50.5077 58.6542 50.9908 56.8031C51.184 56.4134 51.0874 56.1211 50.9908 55.8288ZM49.7348 58.0696C49.3484 59.2387 49.1552 60.3104 48.6721 61.4796C48.5755 61.7718 48.2857 62.0641 47.9959 62.3564C47.5128 63.2332 46.4501 64.4998 46.6433 64.4023C42.1026 72.4887 30.0264 73.0733 24.2298 66.9354C24.3264 66.9354 24.3264 66.9354 24.423 66.9354C24.3264 66.838 24.2298 66.838 24.1331 66.7406C23.5535 66.4483 23.0704 65.9612 22.7806 65.3766C22.4908 64.9869 22.1043 64.5972 21.9111 64.0126C21.2348 63.3307 20.8484 62.3564 20.5586 61.2847C20.462 60.9924 20.2687 60.6027 20.1721 60.3104C19.5925 58.4593 19.3992 56.6082 19.8823 54.7571C20.462 52.6137 20.8484 50.2755 22.1043 48.327C22.3942 47.9373 22.684 47.4501 22.9738 47.0604C23.0704 47.0604 23.3603 46.6707 23.5535 46.4759C23.6501 46.3784 23.7467 46.281 23.8433 46.281C23.9399 45.9887 24.0365 45.6965 24.2298 45.599C24.5196 45.4042 24.7128 45.2093 25.0026 45.1119C26.8382 43.8454 28.5772 42.384 30.8959 41.7994C32.6348 41.4097 34.4704 41.2148 36.2094 40.9226C36.306 40.9226 36.4026 40.9226 36.4992 40.9226C38.8179 41.4097 41.0399 41.8968 42.8755 43.5531L42.7789 43.6505C43.262 43.7479 43.6484 44.1376 43.9382 44.5273C44.6145 45.1119 45.0976 45.599 45.5806 46.0862C45.5806 46.0862 45.5806 46.0862 45.5806 46.1836C45.967 46.4759 46.1603 46.963 46.2569 47.4501C46.4501 47.7424 46.7399 47.9373 46.9331 48.2296C48.2857 50.3729 49.1552 52.7112 49.5416 55.1468C49.6382 55.7314 49.6382 56.0237 49.5416 56.3159C49.8315 56.8031 49.7348 58.0696 49.7348 58.0696Z" fill="black"/>
<path d="M5.97076 34.3964C6.45381 35.3706 6.74364 36.3449 7.03347 37.4166C7.51653 36.9295 7.99958 36.3449 8.57924 35.8578C8.57924 35.6629 8.57924 35.4681 8.57924 35.2732C7.80636 33.5195 6.93686 31.9607 6.3572 30.1096C6.3572 30.0122 6.26059 29.9148 6.3572 29.8173C5.97076 29.0379 5.68093 28.1611 5.3911 27.1868C5.19788 26.6023 5.00466 26.1151 4.81144 25.5306C5.3911 25.5306 5.97076 25.5306 6.45381 25.5306C7.90297 25.628 8.96568 25.9203 10.0284 26.31C12.2504 27.0894 14.3758 27.8688 16.5013 28.7456C16.9843 28.3559 17.3708 27.9662 17.8538 27.5765C14.3758 26.31 10.7047 25.1409 7.13008 24.0692C6.45381 23.8743 5.58432 23.7769 4.52161 23.6795C4.13517 23.6795 3.65212 23.582 3.16907 23.582C3.16907 24.1666 3.07246 24.5563 3.07246 25.0434C2.97585 25.8228 2.97585 26.4074 3.07246 26.7971C4.03856 29.4276 4.81144 31.9607 5.97076 34.3964Z" fill="black"/>
<path d="M56.8848 34.202C58.817 32.0586 61.039 30.3049 63.3576 28.7461C63.4543 28.8435 63.4543 28.9409 63.5509 29.0384C61.4254 30.8895 59.3 32.7406 57.1746 34.6891C57.078 34.4943 56.9814 34.3968 56.8848 34.202Z" fill="black"/>
<path d="M56.3055 33.5186C58.141 31.8624 59.9766 30.1087 61.7156 28.4524C61.619 28.355 61.5224 28.2576 61.4258 28.1602C59.5902 29.8164 57.8512 31.3752 56.0156 33.0315C56.2088 33.2263 56.3055 33.4212 56.3055 33.5186Z" fill="black"/>
<path d="M85.7711 22.9968C85.2881 19.0997 83.7423 15.5924 81.5203 12.3773C80.1677 10.5262 78.4287 9.0648 76.3033 8.18796C74.8542 7.50597 73.3084 7.21369 71.7626 6.72656C71.2796 6.72656 70.6999 6.72656 70.2169 6.72656C68.9609 6.82399 67.705 7.21369 66.4491 7.31112C66.3525 7.31112 66.3525 7.31112 66.2559 7.31112C66.0626 7.31112 65.8694 7.40855 65.6762 7.40855C64.227 7.89568 62.5847 8.28539 61.2321 9.0648C58.4304 10.721 56.2084 13.0593 54.8559 16.0795C54.1796 17.6383 53.4067 19.1972 53.1169 20.8534C52.5372 23.3865 52.5372 26.017 53.4067 28.5501C54.4694 31.8626 56.4982 34.4931 59.2033 36.4416C61.3287 38.0005 63.8406 38.9747 66.4491 39.5593C69.927 40.3387 73.3084 40.2413 76.3033 38.0005C76.4965 37.8056 76.7864 37.7082 77.0762 37.6108C80.4576 35.7597 82.6796 32.7394 84.4186 29.4269C85.2881 27.7707 85.3847 25.7247 85.8677 23.8736C85.8677 23.5813 85.7711 23.2891 85.7711 22.9968ZM84.5152 25.2376C84.1287 26.4067 83.9355 27.4784 83.4525 28.6475C83.3559 28.9398 81.327 31.5703 81.4237 31.5703C76.883 39.6567 64.8067 40.2413 59.0101 34.1034C59.1067 34.1034 59.1067 34.1034 59.2033 34.1034C59.1067 34.006 59.0101 34.006 58.9135 33.9085C58.3338 33.6163 57.8508 33.1291 57.5609 32.5446C57.2711 32.1549 56.9813 31.7652 56.6915 31.1806C56.0152 30.4986 55.6287 29.5244 55.3389 28.4527C55.2423 28.1604 55.0491 27.7707 54.9525 27.4784C54.3728 25.6273 54.1796 23.7762 54.6626 21.9251C55.2423 19.7817 55.6287 17.4435 56.8847 15.4949C57.1745 15.1052 57.4643 14.6181 57.7542 14.2284C57.8508 14.2284 58.8169 12.8644 59.0101 12.767C61.1355 11.403 63.0677 9.55193 65.6762 8.96737C67.4152 8.57767 69.2508 8.38281 70.9898 8.09053C71.0864 8.09053 71.183 8.09053 71.2796 8.09053C73.5982 8.57767 75.8203 9.0648 77.6559 10.721C77.6559 10.721 78.4287 11.2082 78.7186 11.5979C79.3948 12.1824 79.8779 12.6696 80.3609 13.1567C80.3609 13.1567 80.3609 13.1567 80.3609 13.2541C80.7474 13.5464 80.9406 14.0335 81.0372 14.5207C81.2304 14.813 81.5203 15.0078 81.7135 15.3001C83.066 17.4435 83.9355 19.7817 84.322 22.2174C84.4186 22.8019 84.4186 23.0942 84.322 23.3865C84.6118 23.971 84.5152 25.2376 84.5152 25.2376Z" fill="black"/>
<path d="M70.0239 65.6714C69.8307 54.9545 70.0239 43.5556 70.6036 38.9766C69.8307 38.9766 69.1544 38.9766 68.3816 38.9766C67.9951 47.8424 67.8985 56.7082 68.0917 65.574C68.768 65.6714 69.4443 65.6714 70.0239 65.6714Z" fill="black"/>
<path d="M20.8487 71.6135C32.4419 59.3378 45.0979 46.4775 50.6046 41.7036C50.025 41.2165 49.5419 40.7293 48.9623 40.2422C38.9148 49.9848 29.1572 59.9223 19.5928 70.1521C19.9792 70.6392 20.3657 71.1264 20.8487 71.6135Z" fill="black"/>
<path d="M25.0995 45.0159C24.8096 45.2107 24.6164 45.4056 24.3266 45.503C24.1334 45.6004 23.7469 46.2824 23.6503 46.3798C23.2639 45.9901 22.8774 45.503 22.491 45.1133C19.3028 41.6059 15.3418 37.514 11.091 33.1298C10.9944 33.0324 10.8011 32.8375 10.7045 32.7401C10.3181 32.3504 9.93166 31.9607 9.54522 31.571C9.352 31.3762 9.15878 31.1813 9.06217 31.0839C7.80623 29.8173 6.64691 28.5508 5.39098 27.2842C4.6181 26.5048 3.94183 25.8228 3.16895 25.0434C3.16895 24.6537 3.26556 24.1666 3.26556 23.582C3.74861 23.6795 4.23166 23.6795 4.6181 23.6795C5.19776 24.264 5.77742 24.8486 6.45369 25.5306C8.09606 27.2842 9.83505 28.9405 11.4774 30.6942C11.574 30.7916 11.6706 30.889 11.7673 30.9864C15.8249 35.1758 19.8825 39.4625 23.9401 43.7493C24.3266 44.2364 24.713 44.6262 25.0995 45.0159Z" fill="black"/>
</g>
<defs>
<clipPath id="clip0_12765_9128">
<rect width="85.5" height="79.5" fill="white"/>
</clipPath>
</defs>
</svg>
