<svg width="104" height="80" viewBox="0 0 104 80" fill="none" xmlns="http://www.w3.org/2000/svg">
<circle cx="55.0011" cy="43.5285" r="34.5011" fill="#4769B2" fill-opacity="0.2"/>
<path d="M21.1108 24.6864C20.8243 27.8219 20.5457 31.0712 21.5346 34.0537C23.328 39.4615 28.8535 42.8403 30.8431 48.1735C31.6083 50.218 31.8006 52.4314 31.9851 54.6133C32.4717 60.2879 32.9544 65.9624 33.441 71.637C33.543 72.8104 33.5627 74.1878 32.6679 74.9295C31.9929 75.4868 30.7607 76.0283 31.2081 76.7896C31.3572 77.0447 31.6594 77.1507 31.938 77.2292C33.5548 77.6844 35.2658 77.7982 36.9258 77.551C39.5983 68.2385 34.8538 57.3603 39.4884 48.8877C48.8283 49.9943 57.7915 45.3754 66.9862 43.374C68.0732 43.1385 69.2152 42.9384 70.2787 43.2523C72.5077 43.9116 73.5437 46.4311 74.5993 48.5384C76.6439 52.6315 79.7795 56.1084 83.4487 58.7652C86.5254 60.9942 90.0847 62.768 92.2353 65.931C93.7383 68.1404 94.4093 70.9228 94.0876 73.5913C94.0091 74.2467 93.8599 74.9217 93.4518 75.4318C92.9927 76.0008 92.2824 76.2834 91.7133 76.7347C91.1443 77.186 90.7009 78.014 91.0737 78.6458C93.3655 79.05 95.7005 79.207 98.0276 79.1128C98.2277 75.4161 98.4318 71.7194 98.6319 68.0227C98.6712 67.3045 98.7065 66.555 98.4239 65.8918C97.9648 64.8165 96.8189 64.271 95.8182 63.6942C90.1122 60.4134 86.8982 53.1456 88.2678 46.6037C90.7794 47.8791 93.0044 49.7353 94.7272 51.9958C95.6494 53.2005 96.45 54.5466 97.6665 55.4413C98.8831 56.3361 100.688 56.6382 101.826 55.6414C102.242 54.1698 101.348 52.604 100.166 51.6543C98.9851 50.7046 97.541 50.1749 96.2577 49.3821C92.0587 46.7764 90.069 41.7101 88.5543 36.9342C88.0598 35.3802 87.5653 33.779 86.5528 32.5154C85.7405 31.5029 84.6456 30.773 83.5233 30.1412C71.244 23.2147 55.9156 26.833 42.2668 23.5169C40.5951 23.1127 38.9115 22.579 37.5419 21.5234C35.7485 20.142 34.6811 18.0189 33.6725 15.9704C32.1774 12.933 30.6822 9.89558 29.187 6.85815C28.3198 5.10005 27.4015 3.27132 25.8514 2.10187C23.5399 0.359466 20.4083 0.465423 17.5396 0.645942C15.86 0.751899 14.047 0.912796 12.7755 2.043C11.4295 3.25169 11.0213 5.27665 9.69491 6.51281C7.42272 8.63195 3.46307 7.59985 1.13202 9.65227C0.735668 13.4196 3.63967 16.9083 7.08523 18.3093C10.5308 19.7103 14.3845 19.4866 18.0773 19.106C20.3102 21.7235 20.0002 21.5704 21.0912 24.863L21.1108 24.6864Z" fill="white"/>
<path d="M23.9015 15.0693C25.1613 15.654 26.625 15.0693 27.8612 14.4335C28.7402 13.9822 29.6428 13.4642 30.1491 12.6048C30.6867 11.6944 30.6749 10.5642 30.6514 9.50066C30.6318 8.59022 30.3963 7.41292 29.5133 7.28342C29.0346 7.21278 28.5715 7.52672 28.2811 7.92308C27.9946 8.31944 27.8337 8.79428 27.6179 9.23773C26.7271 11.0704 25.3535 11.3412 23.7603 12.1849C22.4299 12.8952 21.9394 14.1588 23.9015 15.0693Z" fill="#BCBCBB"/>
<path d="M38.1573 76.1782C38.1926 76.9238 38.2201 77.7793 37.6942 78.2973C37.29 78.6936 36.6778 78.7604 36.1167 78.7878C35.4652 78.8192 34.7549 78.8114 34.233 78.4111C33.5658 77.897 33.4442 76.8885 33.7071 76.0761C33.9661 75.2677 34.5234 74.5967 35.0375 73.9256C36.5797 71.8928 37.808 69.5578 38.2554 67.0266C38.742 64.2835 38.0749 61.6032 38.2554 58.8719C38.5026 55.1241 39.782 58.4363 39.6525 60.4573C39.3189 65.7041 37.914 70.8803 38.1573 76.1782Z" fill="#BCBCBB"/>
<path d="M98.4277 65.4066C98.051 69.3349 99.032 73.271 98.9889 77.2189C98.9889 77.3758 98.985 77.5367 98.9261 77.6859C98.8044 77.9959 98.4748 78.1646 98.1608 78.2431C97.5016 78.4119 96.7599 78.302 96.2144 77.886C95.6689 77.47 95.351 76.7362 95.4845 76.0533C95.5472 75.7355 95.6964 75.4451 95.8376 75.1586C96.858 73.0434 97.376 70.6809 97.3407 68.3263C97.3132 66.686 97.0973 64.8101 98.2079 63.625L98.4277 65.4066Z" fill="#BCBCBB"/>
<path d="M44.1714 29.5676C46.8124 30.6115 49.6615 30.9411 52.4752 31.2629C57.3806 31.8202 62.3331 32.3813 67.2464 31.8829C69.2478 31.6789 71.2688 31.2904 73.0309 30.2975C73.5057 30.0307 73.9884 29.6892 74.2003 29.1791C74.5927 28.2412 73.8785 27.1384 72.9563 26.746C72.0341 26.3575 70.9941 26.4752 70.0052 26.5851C63.0788 27.3386 56.0503 27.0835 49.1906 25.8512C47.2559 25.502 41.4479 23.0022 39.9213 24.2776C37.3823 26.3928 42.7978 29.026 44.1714 29.5676Z" fill="#BCBCBB"/>
<path d="M72.7662 39.9481C72.7622 40.9488 72.7622 41.9534 72.7583 42.9581C72.7583 43.1543 72.7505 43.3701 72.6327 43.5232C72.464 43.7468 72.1461 43.7586 71.8714 43.7508C67.8568 43.6173 63.5989 42.8442 59.9886 44.6416C59.1919 45.0379 58.1912 45.5363 57.5123 44.9555C56.955 44.4768 57.0689 43.5075 57.5594 42.9581C58.0499 42.4086 58.7877 42.1732 59.4902 41.9809C61.2875 41.4864 63.1241 41.094 64.8469 40.3601C66.0006 39.8657 67.1034 39.2221 68.3081 38.8846C69.3716 38.5864 70.4901 38.5393 71.5928 38.5432C72.0009 38.5432 72.4326 38.5589 72.7858 38.7747C73.6531 39.3084 73.5079 40.6113 73.2528 41.6081L72.7662 39.9481Z" fill="#BCBCBB"/>
<path d="M96.782 55.0051C97.9789 55.6565 99.4545 55.9077 100.698 55.3543C100.793 55.3112 100.887 55.2641 100.95 55.1856C101.024 55.0953 101.052 54.9776 101.063 54.8599C101.15 54.1417 100.785 53.4353 100.283 52.9291C99.7802 52.4229 99.1445 52.0775 98.5362 51.7086C96.2993 50.3547 94.4549 48.6123 92.6104 46.7679C91.8452 46.0027 89.4082 43.5696 88.9334 45.5867C88.3565 48.0355 95.0946 54.0868 96.782 55.0051Z" fill="#BCBCBB"/>
<path d="M20.0564 20.0237L26.4295 16.9666L32.1512 13.1836L33.6699 15.9816L28.1209 20.4161L22.8113 23.2534L18.832 24.1089L18.9772 20.3219L20.0564 20.0237Z" fill="white"/>
<path d="M17.2871 4.91016C17.3695 5.36145 17.346 5.8206 17.5343 6.15417C17.8483 6.71142 17.864 7.26868 17.8169 7.85733C17.762 8.55978 17.7227 9.26616 17.6364 9.96861C17.5618 10.5808 17.6324 11.1695 17.9778 11.66C18.5586 12.488 19.159 13.3043 19.8222 14.0578C20.2029 14.4855 20.7327 14.8505 21.3645 14.6307C21.906 14.4423 22.4751 14.2461 22.9303 13.9047C24.6335 12.6254 26.1639 11.142 27.5453 9.50947C27.8357 9.16413 28.079 8.73245 28.2164 8.30077C28.4871 7.4335 28.0084 6.44064 27.0273 5.91478C27.1489 6.35431 27.1921 6.6918 27.3295 6.9822C27.7376 7.85733 27.4668 8.62257 26.9213 9.26616C26.2189 10.0942 25.4497 10.8712 24.6609 11.6129C24.0723 12.1662 23.4091 12.645 22.7615 13.1355C21.9688 13.732 20.7091 13.7517 20.2225 13.1434C19.7398 12.5351 19.3866 11.8444 19.4573 11.04C19.9007 10.7456 20.2971 10.4866 20.8739 10.106C19.9596 10.1491 19.3474 11.142 18.6292 10.3022C18.7352 9.9019 18.8647 9.59188 18.8843 9.27401C18.9039 8.94044 18.794 8.60295 18.7823 8.26546C18.7587 7.59832 18.8058 6.92726 18.7509 6.26797C18.6842 5.52235 18.2368 5.1103 17.2871 4.91016Z" fill="black"/>
<path d="M12.0146 7.49758C12.0342 8.12547 12.3796 8.68665 12.8662 8.78869C13.2979 8.87895 13.7727 8.53753 14.0984 7.90179C14.1534 7.79583 14.1926 7.68595 14.2358 7.57607C14.4163 7.07375 14.4987 6.54005 14.1063 6.13977C13.6864 5.70809 13.2311 6.12407 12.8309 6.27319C12.3521 6.45371 11.9557 6.78335 12.0146 7.49758Z" fill="black"/>
<path d="M21.7465 2.11566C20.6674 1.99793 19.2114 2.47277 18.6816 3.10066C19.9335 3.26941 20.8008 2.55518 21.7465 2.11566Z" fill="black"/>
<path d="M13.4482 4.30895C13.5542 4.48162 13.6484 4.79557 13.7661 4.80342C14.2684 4.84659 14.7825 4.80342 15.2927 4.79165C15.3005 4.68569 15.3084 4.57973 15.3162 4.4777C14.8492 4.35605 14.3901 4.21085 13.9152 4.12451C13.774 4.09704 13.6052 4.24224 13.4482 4.30895Z" fill="black"/>
<path d="M8.09944 12.045C8.0759 12.0882 8.29174 12.3432 8.3506 12.3236C8.50365 12.2805 8.6567 12.1588 8.74696 12.0254C8.77835 11.9822 8.62138 11.8017 8.4958 11.6055C8.31921 11.7938 8.17008 11.8998 8.09944 12.045Z" fill="black"/>
<path d="M6.33984 11.8231C6.17895 11.9212 6.05337 12.086 5.91602 12.2233C6.02197 12.3018 6.14363 12.4588 6.22996 12.4392C6.38301 12.4078 6.51251 12.2665 6.7205 12.1252C6.54391 11.98 6.38301 11.7956 6.33984 11.8231Z" fill="black"/>
<path d="M6.99087 14.2707C6.9163 14.204 6.84567 14.1373 6.72009 14.0156C6.61021 14.1412 6.51995 14.2393 6.42969 14.3413C6.50817 14.4041 6.61021 14.5376 6.6573 14.5219C6.78288 14.4748 6.88099 14.361 6.99087 14.2707Z" fill="black"/>
<path d="M102.537 54.1874C101.482 53.2573 100.402 52.3704 99.2408 51.562C96.8705 49.9138 94.8534 47.8496 93.4093 45.2948C92.1731 43.1129 91.0507 40.8604 89.897 38.6274C88.7432 36.3945 87.5816 34.1694 86.4789 31.909C85.6038 30.1195 84.0223 29.5308 82.2838 29.1384C81.8992 29.0521 81.495 28.9696 81.1614 28.7695C78.9364 27.4431 76.5307 26.8701 73.9682 26.8073C72.2768 26.7642 70.5893 26.5523 68.894 26.4463C67.9011 26.3874 66.9044 26.3757 65.9076 26.3796C65.7506 26.3796 65.5976 26.564 65.2248 26.7956C65.7114 26.8819 65.9429 26.9486 66.1784 26.9565C67.1359 26.9879 68.0974 26.9643 69.0549 27.035C70.9307 27.1762 72.8026 27.4078 74.6785 27.5333C77.1508 27.7021 79.4779 28.2986 81.5892 29.6839C81.8796 29.8762 82.2642 29.9272 82.6134 30.0017C83.9987 30.3 85.2114 30.8533 85.902 32.2229C87.3383 35.072 88.7746 37.9171 90.2109 40.7662C91.659 43.6427 93.0208 46.5624 95.3361 48.8895C97.0981 50.6594 98.8994 52.3665 100.873 53.8852C101.356 54.258 101.909 54.5602 102.157 55.192C101.462 55.6276 100.811 55.5923 100.171 55.3293C98.1616 54.5013 96.1602 53.6458 93.9391 52.7118C94.7514 52.0486 94.3825 51.6209 94.0332 51.2088C92.6754 49.6195 91.2666 48.0693 89.9598 46.4368C89.2416 45.5382 88.6451 44.5296 88.0761 43.5171C87.7111 42.8696 87.511 42.1318 87.2206 41.4412C87.0558 41.0487 86.8478 40.6916 86.2042 41.0173C86.4436 41.6217 86.7261 42.1868 86.8949 42.7833C87.1657 43.7565 87.5032 44.7415 87.5699 45.7383C87.7818 49.0308 88.2449 52.2566 89.4496 55.345C89.536 55.5687 89.6262 55.918 89.5203 56.075C89.2142 56.5341 89.3986 56.8402 89.6733 57.1856C89.8813 57.4485 90.05 57.7428 90.2463 58.0175C92.181 60.7606 94.253 63.3546 97.4317 64.6967C97.8948 64.8929 97.9929 65.2226 98.0007 65.6739C98.0125 66.5765 98.0517 67.483 98.0831 68.3856C98.1616 70.9482 98.2401 73.5068 98.3186 76.0694C98.3461 77.0034 98.0831 77.7922 97.2119 78.2356C95.5363 79.0872 93.7938 79.1343 92.0475 78.526C91.0939 78.1925 90.9997 77.3998 91.7807 76.7209C91.973 76.5521 92.2006 76.403 92.44 76.3088C93.0208 76.0773 93.6173 75.881 94.2059 75.6691C94.7161 75.4847 94.9084 75.1393 94.5826 74.8725C93.9077 74.3231 94.0568 73.5775 94.0215 72.8986C93.9312 71.2817 93.9273 69.6571 93.8802 68.0363C93.8723 67.7459 93.8292 67.4555 93.8056 67.1926C93.4446 67.0081 93.1189 66.9022 92.8638 66.702C90.5092 64.8262 88.0683 63.0485 85.8432 61.0235C83.1982 58.6219 80.7376 56.0161 78.2064 53.4849C77.6178 52.8963 77.6296 52.7 78.1947 52.0643C78.6891 51.5071 79.2189 50.9812 79.7251 50.4279C79.9096 50.2277 80.0626 49.9962 80.2314 49.7803C80.1882 49.7411 80.1411 49.6979 80.098 49.6587C79.164 50.522 78.2261 51.3893 77.3195 52.2252C76.7191 51.8799 76.7937 51.511 77.0841 51.1342C77.657 50.3965 78.2496 49.6744 78.8225 48.9327C78.9364 48.7875 78.9991 48.6031 79.0855 48.4343C79.0227 48.3872 78.9599 48.3401 78.8932 48.293C78.1005 49.2427 77.3078 50.1924 76.468 51.201C74.2232 48.4657 73.6385 45.2124 72.9675 41.916C72.1983 42.4929 72.6574 43.16 72.6339 43.7251C72.5476 43.7761 72.4887 43.8389 72.422 43.8468C72.2415 43.8664 72.0531 43.8782 71.8726 43.8585C69.0745 43.5878 66.2804 43.3837 63.502 44.0194C63.2861 44.0665 63.0585 44.0508 62.8388 44.0822C60.7942 44.3805 58.73 44.6002 56.7835 45.3655C54.6487 46.2053 52.5335 47.0883 50.4065 47.9438C50.1397 48.0497 49.8179 48.2185 49.5706 48.1518C48.4326 47.8496 47.3848 48.2224 46.3095 48.4775C45.2735 48.7247 44.2218 48.9405 43.1661 49.0818C41.7887 49.2702 40.3955 49.3722 39.026 49.5096C38.8494 50.1689 39.0377 50.4161 39.6656 50.3337C42.3263 49.9805 45.0616 50.1532 47.5771 49.1132C48.4522 50.004 48.4875 50.0001 49.5432 49.5253C51.1325 48.815 52.714 48.089 54.323 47.4297C55.5866 46.9117 56.8581 46.378 58.1727 46.0405C59.8131 45.6166 61.4967 45.3459 63.1763 45.0869C65.1816 44.7768 67.1908 44.4236 69.2354 44.6944C69.7927 44.769 70.3028 44.6944 70.8483 44.51C71.4527 44.3098 72.1277 44.3373 72.8026 44.2588C72.9439 44.8396 73.0538 45.2713 73.1519 45.7069C73.7092 48.1792 74.7962 50.3925 76.3973 52.3115C77.5903 53.7439 78.8932 55.0821 80.1686 56.4439C83.2845 59.7756 86.6163 62.8562 90.258 65.5875C91.0861 66.2076 91.8513 66.9179 92.6558 67.5732C93.0365 67.8833 93.1581 68.2639 93.1777 68.7505C93.2444 70.5204 93.3583 72.2903 93.4446 74.0562C93.4603 74.3466 93.4367 74.637 93.4328 74.7626C92.5459 75.312 91.7218 75.6966 91.0586 76.2656C90.0383 77.1447 90.1521 78.373 91.2744 78.9538C93.3308 80.0212 96.6076 79.9388 98.4716 78.2042C98.8602 77.8432 99.0407 77.4586 99.0211 76.9249C98.9465 74.9667 98.8837 73.0124 98.8405 71.0541C98.7934 68.9821 98.7856 66.9061 98.7424 64.8341C98.7346 64.371 98.8759 63.8451 98.3068 63.4449C97.8673 64.1787 97.3297 63.8491 96.8156 63.5665C96.3957 63.335 95.9875 63.072 95.599 62.7856C93.5427 61.259 92.0122 59.238 90.5053 57.1149C90.9252 56.6715 90.9252 56.2319 90.6191 55.7022C89.379 53.583 89.0572 51.1735 88.6373 48.8032C88.5667 48.3951 88.6098 47.9673 88.598 47.5278C90.0618 48.9523 91.4393 50.2944 92.8285 51.6483C92.3262 52.3979 92.3497 52.5588 93.1306 53.0454C93.3818 53.2024 93.6526 53.3279 93.9234 53.4457C94.4963 53.7008 95.1281 53.8577 95.6422 54.1991C97.0589 55.1371 98.6168 55.7061 100.214 56.1692C101.383 56.5066 102.447 56.1927 103.424 55.2312C103.091 54.8545 102.855 54.4699 102.537 54.1874Z" fill="black"/>
<path d="M38.7368 54.5168C38.6975 51.4676 38.6151 48.4184 38.5523 45.3692C38.5445 45.0356 38.568 44.6863 38.101 44.5294C38.0343 44.6549 37.9205 44.7727 37.9166 44.8943C37.8616 46.0991 37.7871 47.3039 37.791 48.5047C37.8067 51.9699 37.8852 55.4351 37.893 58.9002C37.9009 63.1581 37.8695 67.4199 37.8302 71.6778C37.8185 73.071 37.7596 74.468 37.6811 75.8612C37.6536 76.3242 37.6929 76.9364 37.0728 77.0581C36.2527 77.2151 35.4168 77.2739 34.4082 77.3995C34.7261 76.8226 34.9537 76.4067 35.2245 75.9161C34.2042 76.2261 34.2159 77.7292 32.8071 77.6467C33.3408 76.6853 33.796 75.869 34.2512 75.0528C34.1806 75.0057 34.106 74.9625 34.0354 74.9154C33.4782 75.7552 32.9209 76.5911 32.3558 77.4466C31.6612 76.752 31.5945 76.3831 31.9673 75.7042C32.3479 75.0135 32.9562 74.6093 33.643 74.2875C34.5181 73.8755 34.5103 73.848 34.4161 72.8277C34.055 68.923 33.7175 65.0183 33.3447 61.1175C33.125 58.8296 32.8542 56.5496 32.5952 54.2656C32.399 52.5428 32.1871 50.824 31.9712 49.1051C31.932 48.7755 31.8613 48.4537 31.7907 48.0573C31.4532 48.1083 31.1824 48.1515 30.7939 48.2104C29.7422 46.6406 28.663 45.0709 27.6191 43.4698C27.1129 42.6967 27.1404 42.6692 27.7212 41.8922C28.0547 41.4448 28.4158 41.0171 28.765 40.5815C28.7101 40.5305 28.6512 40.4834 28.5963 40.4324C28.0076 41.0171 27.4229 41.5979 26.846 42.1708C26.379 41.7627 26.6891 41.4958 26.8617 41.2329C27.2895 40.5776 27.729 39.93 28.1685 39.2825C28.1018 39.2315 28.0351 39.1805 27.9684 39.1295C27.3994 39.8359 26.8303 40.5383 26.2535 41.2565C26.1004 41.1191 25.9945 41.0602 25.9434 40.97C24.7661 38.9529 23.7301 36.8887 23.6634 34.4556C23.6516 34.0436 23.4947 33.4392 23.2082 33.2744C22.6235 32.933 22.5411 32.4424 22.4351 31.8891C22.1133 30.2252 21.7797 28.5652 21.4344 26.9091C21.2696 26.1164 21.0655 25.3276 20.885 24.5624C26.2456 23.7932 30.323 20.901 33.8078 16.9099C36.08 19.7551 38.5562 22.2156 41.264 24.3544C41.6682 24.2681 42.0489 24.2327 42.3903 24.3348C43.2026 24.5742 43.9836 24.9273 44.7998 25.151C47.2996 25.8339 49.8073 26.4421 52.4327 26.2891C53.3117 26.2381 54.1986 26.3205 55.0855 26.3362C57.8875 26.3872 60.6934 26.6344 63.4914 26.2616C63.7112 26.2302 63.9231 26.1439 64.1389 26.085C64.1311 26.0105 64.1271 25.932 64.1193 25.8574C63.7308 25.826 63.3423 25.7672 62.9498 25.7672C61.5842 25.7632 60.2185 25.8103 58.8529 25.7829C56.2706 25.7318 53.6884 25.6612 51.1102 25.5552C50.0467 25.5121 48.9753 25.4022 47.9275 25.2177C47.0602 25.0647 46.2283 24.6958 45.361 24.5349C44.1052 24.3034 42.9358 23.9109 41.8801 23.1614C41.6486 23.0005 41.264 22.7925 41.0835 22.8828C40.5262 23.1614 40.2398 22.7964 39.9415 22.4943C38.5719 21.1207 37.1709 19.7786 35.8838 18.3306C35.1499 17.5064 34.1649 16.7098 34.5024 15.3284L34.4671 15.2225C33.9412 14.0138 33.0818 13.0602 32.3793 12.1654C32.3362 12.1968 32.2891 12.2243 32.2459 12.2557C31.5238 10.58 30.6212 8.29997 29.6794 6.24755C29.1732 5.14482 28.6552 4.10879 28.1411 3.26506C27.886 2.84124 27.6309 2.46842 27.3758 2.15055C27.1207 1.83661 26.8617 1.5776 26.587 1.39708C26.536 1.36569 26.4811 1.34607 26.4222 1.34214C26.4065 1.32252 26.3869 1.30682 26.3673 1.2872C25.9395 0.820208 25.4765 0.541581 24.927 0.396381C24.2638 0.219786 23.5732 0.0785101 22.8903 0.0431912C19.8333 -0.117706 16.8194 0.160921 13.8683 1.04782C13.001 1.31075 12.4163 1.91509 11.9846 2.67641C11.7806 3.03745 11.8747 3.36317 12.3535 3.41811C12.8009 2.97466 13.1619 2.3507 13.6839 2.14271C14.8572 1.67571 16.0895 1.29113 17.3296 1.10276C18.8797 0.863375 20.4651 0.8673 22.0348 0.745646C23.2671 0.651462 24.3973 0.973257 25.4411 1.59722C25.7943 1.80914 26.124 2.0446 26.4418 2.29968C26.5439 2.39779 26.6538 2.51944 26.7636 2.65679C27.1561 3.13948 27.5877 3.84194 28.0233 4.66605C29.287 7.05204 30.5977 10.4309 31.5749 12.6952C29.7343 13.9157 27.937 15.0223 26.3006 16.337C24.3698 17.8832 21.976 18.5503 20.0413 20.0023C20.4886 21.576 20.5514 22.4825 20.2453 23.232C19.6017 22.4707 19.8961 21.3052 19.2525 20.5635C19.3467 20.4536 19.382 20.2966 19.3231 20.1514C19.1308 19.6805 19.0955 19.4804 19.068 19.241C19.0406 18.9977 19.0327 18.6837 18.9228 18.1383C18.8875 17.9734 18.758 17.8479 18.5932 17.8282C18.5108 17.8165 18.4323 17.8125 18.3499 17.8125C17.7926 17.8125 17.255 18.0598 16.8822 18.4875C15.7598 19.0958 14.5394 19.343 13.2679 19.347C11.3489 19.347 9.42989 19.3156 7.51481 19.2567C6.98503 19.241 6.4317 19.1311 5.93723 18.9388C5.48986 18.7622 5.03464 18.4797 4.70892 18.1265C3.69644 17.0277 3.32756 15.5443 2.55054 14.4062C3.11172 13.3467 3.59834 12.4127 4.10457 11.4865C4.52448 10.7134 4.80703 9.92857 4.50486 9.03382C4.48916 8.98673 4.56764 8.90432 4.63043 8.78659C5.70962 8.50796 6.82806 8.23718 7.93472 7.92324C8.74705 7.6917 9.55939 7.43662 10.3403 7.1109C11.4195 6.66353 12.2672 5.08987 12.1494 3.87726C12.1455 3.84979 12.0945 3.82624 11.9964 3.74383C11.8747 3.82624 11.6824 3.89296 11.6079 4.03031C11.4234 4.37172 11.2665 4.73669 11.1487 5.1095C10.874 5.97677 10.2775 6.46731 9.44951 6.71062C8.60185 6.96178 7.75812 7.23256 6.90262 7.46017C5.45454 7.84475 3.99469 8.17439 2.55447 8.57075C1.21627 8.93964 0.698259 9.5793 0.596226 10.9842C0.560907 11.4865 0.588378 12.0163 0.713956 12.499C1.30261 14.728 2.38572 16.702 3.76316 18.5228C4.26155 19.1821 4.88159 19.6138 5.67823 19.7198C6.62792 19.8453 7.58545 19.8846 8.53514 20.0102C10.6817 20.2888 12.8284 20.1946 14.9671 19.9748C15.8069 19.8885 16.6271 19.6727 17.3531 19.1861C17.5218 19.0762 17.6396 18.9545 17.7024 18.8172C17.8554 18.7191 18.032 18.6523 18.2125 18.6327C18.2596 18.927 18.2675 19.1193 18.2871 19.343C18.3185 19.6374 18.3852 19.9631 18.5971 20.4732C18.6481 20.5949 18.7541 20.6734 18.8718 20.7008C18.656 21.8428 18.7737 22.9652 18.809 24.1032C19.2486 24.221 19.5978 24.3112 19.9981 24.4172C21.1008 27.4311 21.5443 30.6058 22.1447 33.7414C22.2899 34.4949 22.231 34.5066 22.9649 34.8166C23.1062 36.9436 23.9656 38.8548 25.0409 40.5893C26.8186 43.4462 28.7847 46.1815 30.7429 48.9168C31.1824 49.5289 31.4297 50.1215 31.5081 50.8514C31.673 52.4251 31.7318 54.0262 32.085 55.5567C32.7404 58.4058 32.7208 61.3176 33.0622 64.1902C33.3761 66.847 33.5684 69.5195 33.8274 72.1802C33.9334 73.2633 33.9334 73.3104 32.9484 73.8441C32.034 74.3385 31.2962 74.9939 31.0255 76.0574C30.684 77.3877 31.2923 78.3688 32.5952 78.6749C34.3611 79.087 36.025 78.671 37.6968 78.1177C38.258 77.9332 38.4974 77.6742 38.5288 77.117C38.6073 75.7238 38.7524 74.3346 38.7721 72.9415C38.8113 70.3436 38.7878 67.7457 38.776 65.1438C38.7878 61.6002 38.7799 58.0565 38.7368 54.5168ZM20.8811 20.277C20.9635 20.2692 21.0459 20.2613 21.1283 20.2495C21.2853 21.0383 21.4383 21.8271 21.5953 22.6159C21.6777 22.6081 21.7601 22.6002 21.8386 22.5924C21.7758 22.043 21.7523 21.4896 21.6463 20.952C21.5011 20.2182 21.7091 19.708 22.3919 19.4019C22.6274 19.2959 22.8354 19.0997 23.0787 19.0409C24.4208 18.7112 25.398 17.8008 26.4379 16.957C27.1835 16.3527 28.0665 15.9289 28.871 15.3991C29.9816 14.6692 31.0725 13.9118 32.1557 13.174H32.1596C32.2184 13.1897 32.2616 13.1897 32.2852 13.2132C34.0393 14.936 33.9334 15.0263 32.4304 16.7255C31.1707 18.1579 29.7344 19.3901 28.1254 20.4026C27.9095 20.5399 27.678 20.6577 27.4504 20.7715C26.4222 21.2777 25.3783 21.7486 24.3737 22.2902C23.3534 22.8396 22.3056 23.2517 21.0302 23.287C20.7123 22.2117 20.7123 21.2463 20.8811 20.277Z" fill="black"/>
<path d="M52.1918 43.1206C52.1604 43.3443 52.1958 43.5798 52.2036 43.8113C52.4862 43.6622 52.6117 43.4856 52.647 43.2933C52.8668 42.0336 53.1415 40.7778 53.2553 39.5103C53.4201 37.658 53.271 35.8253 52.5215 34.0868C52.3645 33.7258 52.2939 33.2941 51.7759 33.3726C51.7288 33.4707 51.6934 33.506 51.7013 33.5296C51.7445 33.6709 51.7876 33.8121 51.8426 33.9456C52.5607 35.6291 52.9649 37.3754 52.7569 39.2159C52.6078 40.5227 52.3724 41.8178 52.1918 43.1206Z" fill="black"/>
<path d="M46.0664 44.7926C46.1959 44.5454 46.4078 44.3099 46.4431 44.047C46.6001 42.9011 46.8669 41.7356 46.7963 40.5975C46.7021 39.0709 46.345 37.5561 46.0664 36.0453C45.9997 35.6842 45.8231 35.335 45.6386 35.0171C45.5641 34.8876 45.3325 34.8523 45.0107 34.6953C46.2077 38.0938 46.7531 41.3627 45.8231 44.7573C45.9055 44.7651 45.9879 44.7808 46.0664 44.7926Z" fill="black"/>
<path d="M42.3936 35.2305C42.7467 37.0592 43.1941 38.7781 43.3825 40.5283C43.5709 42.2903 43.5002 44.0798 43.5395 45.8575C43.6297 45.8536 43.72 45.8458 43.8102 45.8418C44.4381 42.6631 43.9515 39.5394 43.198 36.4352C43.0999 36.0193 43.0921 35.4424 42.3936 35.2305Z" fill="black"/>
<path d="M48.1133 33.957C48.7529 35.7151 48.7961 37.4418 48.8118 39.1646C48.8314 40.9266 48.8354 42.6887 48.8471 44.4507C48.9178 44.4585 48.9923 44.4664 49.063 44.4742C49.165 44.0151 49.3651 43.552 49.3573 43.0929C49.318 40.7186 49.2553 38.3444 49.1375 35.9781C49.1061 35.3933 48.855 34.8125 48.6431 34.2553C48.5881 34.1062 48.2938 34.0512 48.1133 33.957Z" fill="black"/>
<path d="M40.221 37.1845C40.1425 37.059 39.856 37.0707 39.5264 36.9805C40.9627 39.7393 40.8685 42.5962 41.2334 45.3589C41.3198 45.3589 41.41 45.3589 41.4964 45.3589C41.5317 45.0018 41.6102 44.6447 41.5945 44.2915C41.5042 42.3019 41.308 40.3201 40.7782 38.3932C40.6605 37.9694 40.4525 37.5573 40.221 37.1845Z" fill="black"/>
<path d="M70.9785 37.6484C70.1544 37.7269 66.0849 40.0658 65.2529 40.9841C66.2615 40.9802 66.807 40.419 67.4309 40.0854C68.051 39.7558 68.6278 39.3398 69.2008 38.9278C69.7659 38.5157 70.4958 38.3352 70.9785 37.6484Z" fill="black"/>
<path d="M29.4622 28.2305C29.6584 28.1441 29.8703 28.0421 30.0195 27.893C31.185 26.7 32.4957 25.6404 33.3473 24.1609C33.2845 24.106 33.2217 24.0471 33.1628 23.9922C31.7972 25.3382 30.4276 26.6804 28.9756 28.1088C29.2621 28.1873 29.3837 28.2619 29.4622 28.2305Z" fill="black"/>
<path d="M10.6823 16.6598C10.8942 16.6951 11.1257 16.7187 11.3298 16.6716C12.9349 16.2831 14.5948 16.0829 16.0822 15.2863C16.0586 15.2039 16.0351 15.1254 16.0115 15.043C14.1553 15.4511 12.303 15.8632 10.3291 16.2988C10.5371 16.5185 10.5999 16.648 10.6823 16.6598Z" fill="black"/>
<path d="M58.2403 35.6236C58.0088 34.1402 57.789 33.7399 57.1572 33.3789C57.4516 35.1802 58.1775 36.8519 57.738 38.661C58.5857 37.7585 58.4052 36.6714 58.2403 35.6236Z" fill="black"/>
<path d="M59.584 33.0898C59.7959 33.9846 60.0471 34.7577 60.1491 35.5465C60.2511 36.3274 60.204 37.1241 60.2237 37.9403C61.0831 36.6296 60.7809 33.8551 59.584 33.0898Z" fill="black"/>
<path d="M79.2627 34.0021C80.0947 32.9739 80.8089 32.087 81.684 31C80.4086 31.8359 79.3961 33.0681 79.2627 34.0021Z" fill="black"/>
<path d="M37.7129 37.9147C37.964 38.5936 38.2152 39.2764 38.4624 39.9553C38.5331 39.9279 38.6037 39.9004 38.6743 39.8729C38.6233 39.1037 38.7803 38.26 37.9523 37.7812C37.8738 37.8244 37.7953 37.8715 37.7129 37.9147Z" fill="black"/>
<path d="M78.1074 32.4674C78.1977 32.5538 78.2879 32.6362 78.3782 32.7225C78.9198 31.8552 79.8027 31.2784 80.309 30.3758C80.2462 30.3208 80.1873 30.2659 80.1284 30.2109C79.4495 30.9644 78.7785 31.7179 78.1074 32.4674Z" fill="black"/>
<path d="M13.2027 6.99786C13.2066 7.20585 13.0457 7.38244 12.8417 7.38637C12.6376 7.39029 12.4649 7.22547 12.461 7.01748C12.4571 6.80949 12.618 6.6329 12.822 6.62897C13.0261 6.62505 13.1988 6.78987 13.2027 6.99786Z" fill="white"/>
<path d="M1.48158 10.7559C2.07415 10.2457 2.79623 9.88858 3.55363 9.73553C3.65958 9.71591 3.7263 9.60995 3.70667 9.504C3.68705 9.39804 3.58502 9.3274 3.47906 9.34702C2.65495 9.51577 1.87401 9.90035 1.23042 10.4537C1.14801 10.5243 1.14016 10.6499 1.20688 10.7323C1.27752 10.8186 1.39917 10.8265 1.48158 10.7559Z" fill="white"/>
<path d="M59.0488 18.7402C59.0488 13.6069 59.0488 8.47352 59.0488 3.25009C59.0488 2.79979 58.6886 2.43956 58.2383 2.43956C57.788 2.43956 57.4278 2.79979 57.4278 3.25009C57.4278 8.38346 57.4278 13.5168 57.4278 18.7402C57.4278 19.1905 57.788 19.5508 58.2383 19.5508C58.6886 19.5508 59.0488 19.1905 59.0488 18.7402Z" fill="black"/>
<path d="M57.252 52.2285C57.252 57.3619 57.252 62.4952 57.252 67.7187C57.252 68.169 57.6122 68.5292 58.0625 68.5292C58.5128 68.5292 58.873 68.169 58.873 67.7187C58.873 62.5853 58.873 57.4519 58.873 52.2285C58.873 51.7782 58.5128 51.418 58.0625 51.418C57.6122 51.418 57.252 51.7782 57.252 52.2285Z" fill="black"/>
<path d="M62.74 6.2156C61.8394 4.32436 60.7587 2.52318 59.4979 0.812058C59.4078 0.721999 59.3178 0.541881 59.1377 0.361763C58.9576 0.181645 58.6874 0.00152551 58.4172 0.00152549L58.147 0.00152547C57.7868 0.00152543 57.4265 0.181644 57.2464 0.271703C56.9762 0.451821 56.8862 0.63194 56.7961 0.812058C55.8955 1.89277 55.085 3.06353 54.5447 4.32436C54.3645 4.6846 54.5447 5.22495 54.9049 5.40507C55.2651 5.58519 55.8055 5.40507 55.9856 5.04483C56.526 3.87407 57.2464 2.79336 58.057 1.89277L58.3271 1.62259L58.2371 1.44247L58.2371 1.53253L58.3271 1.53253L58.2371 1.35241L58.2371 1.53253L58.2371 1.26235L58.2371 1.53253L58.2371 1.26235L58.2371 1.53253L58.2371 1.35241L58.147 1.53253L58.2371 1.53253L58.2371 1.35241L58.147 1.53253L58.3271 1.80271C59.4979 3.51383 60.4886 5.22495 61.3891 7.02613C61.5693 7.38637 62.1096 7.56649 62.4699 7.38637C62.8301 7.02613 63.0102 6.57584 62.74 6.2156Z" fill="black"/>
<path d="M53.5598 64.7571C54.4604 66.6483 55.5411 68.4495 56.8019 70.1606C56.892 70.2507 56.982 70.4308 57.1621 70.6109C57.3423 70.791 57.6124 70.9711 57.8826 70.9711L58.1528 70.9711C58.513 70.9711 58.8733 70.791 59.0534 70.701C59.3236 70.5208 59.4136 70.3407 59.5037 70.1606C60.4043 69.0799 61.2148 67.9091 61.7552 66.6483C61.9353 66.2881 61.7552 65.7477 61.3949 65.5676C61.0347 65.3875 60.4943 65.5676 60.3142 65.9278C59.7738 67.0986 59.0534 68.1793 58.2428 69.0799L57.9727 69.3501L58.0627 69.5302L58.0627 69.4401L57.9727 69.4401L58.0627 69.6202L58.0627 69.4401L58.0627 69.7103L58.0627 69.4401L58.0627 69.7103L58.0627 69.4401L58.0627 69.6202L58.1528 69.4401L58.0627 69.4401L58.0627 69.6202L58.1528 69.4401L57.9727 69.17C56.8019 67.4588 55.8112 65.7477 54.9107 63.9465C54.7305 63.5863 54.1902 63.4062 53.83 63.5863C53.4697 63.9465 53.2896 64.3968 53.5598 64.7571Z" fill="black"/>
</svg>
