<svg width="74" height="69" viewBox="0 0 74 69" fill="none" xmlns="http://www.w3.org/2000/svg">
<circle cx="37.5004" cy="34.5004" r="34.5004" fill="#F7BE45" fill-opacity="0.5"/>
<path d="M1.85449 22.1326C1.85449 27.6638 1.85449 33.4162 4.28823 38.2837C5.17322 40.0537 6.50071 41.8237 8.2707 42.9299C9.37694 43.5937 10.7044 44.0362 12.0319 44.6999C14.6869 46.0274 16.8994 48.0186 18.8906 50.0099C19.1119 50.2311 19.5544 50.6736 19.5544 50.8949C19.7756 51.5586 19.3331 52.2224 19.3331 53.1073C18.8906 55.0986 20.6606 57.0898 20.2181 59.081C19.9969 60.4085 18.8906 61.736 19.7756 62.8423C20.8819 63.0635 21.7669 63.2848 22.8731 63.2848C21.9881 64.6123 23.9793 66.161 25.5281 65.9397C27.0768 65.4972 27.9618 63.9485 28.6256 62.621C29.7318 59.7448 30.838 56.6473 33.2718 54.6561C34.5993 53.7711 36.3693 53.3286 37.4755 52.0011C38.1392 51.3374 38.5817 50.2311 39.4667 49.5674C40.3517 48.9036 41.6792 48.6824 42.343 49.5674C42.5642 50.0099 42.7855 50.4524 42.7855 50.8949C43.228 54.4348 43.6705 58.1961 41.9005 61.5148C41.9005 61.736 41.6792 61.736 41.6792 61.9573C41.6792 62.1785 41.9005 62.3998 42.1217 62.621C43.4492 63.2848 45.4404 62.621 46.1042 61.2935C46.7679 59.7448 45.8829 57.9748 46.9892 56.6473C47.2104 56.2048 47.8742 55.9836 48.3167 55.5411C49.2017 54.8773 49.4229 53.7711 50.0867 52.8861C50.7504 52.0011 51.8567 51.3374 52.9629 52.0011C53.4054 52.2224 53.6266 52.6648 54.0691 53.1073C55.6179 56.2048 55.6179 59.9661 53.8479 62.8423C53.6266 63.2848 53.1841 63.7273 53.4054 64.391C53.6266 65.0548 54.5116 65.0548 55.1754 65.0548C56.5029 65.0548 58.0516 64.8335 58.9366 63.9485C60.9278 61.736 58.2729 57.3111 60.7066 55.7623C61.1491 55.5411 61.8128 55.3198 62.0341 54.8773C62.6978 54.2136 62.4766 52.8861 62.0341 52.0011C61.5916 51.1161 60.9278 50.0099 61.1491 49.1249C61.5916 49.1249 61.8128 49.1249 62.2553 49.3461C62.2553 48.2399 62.2553 47.3549 62.0341 46.2486C62.6978 46.0274 62.9191 45.1424 62.9191 44.4787C62.9191 43.8149 62.4766 42.9299 62.4766 42.2662C62.4766 40.4962 64.0253 39.3899 65.3528 38.2837C67.5653 36.2925 69.7778 34.08 71.5478 31.8675C72.2115 30.9825 73.0965 30.0975 73.3177 28.9913C73.539 28.1063 73.0965 27 72.8753 26.115C72.2115 24.5663 71.769 23.0176 71.1053 21.2476C70.6628 20.3626 70.4415 19.4776 69.7778 18.5926C67.5653 15.9376 62.9191 16.6014 60.4853 14.1676C59.6003 14.8314 58.9366 15.7164 58.4941 16.8226C57.1666 16.8226 55.8391 15.9376 54.5116 15.7164C53.4054 15.4951 52.2991 15.9376 51.1929 16.1588C48.3167 16.8226 45.4404 17.7076 42.7855 18.3713C40.3517 19.0351 37.2542 19.4776 35.7055 17.2651C34.5993 15.4951 35.0418 12.3976 33.0505 11.5126C32.608 11.2914 31.9443 11.2914 31.2805 11.0701C30.1743 10.4064 30.1743 8.85766 30.6168 7.53017C27.5193 8.41516 24.4218 8.85765 21.3244 9.0789C19.9969 9.0789 18.8906 9.07891 17.7844 8.63641C16.4569 7.97267 15.5719 7.08767 14.2444 6.86642C12.9169 6.64517 11.5894 7.53016 10.9257 8.41515C10.0407 9.30014 9.59819 10.6276 8.7132 11.7339C7.3857 13.5039 5.39447 14.8314 4.50947 17.0438C3.84573 19.0351 4.28823 21.4688 2.73949 22.7963" fill="white"/>
<path d="M36.8174 27.663C38.3661 27.8842 39.6936 26.778 40.5786 25.6717C41.4636 24.5655 42.3486 23.238 43.2336 22.1318C44.5611 20.583 46.7736 19.698 47.4373 17.7068C47.6586 17.2643 47.6586 16.3793 47.2161 16.158C46.7736 15.9368 46.3311 16.1581 45.8886 16.3793C44.5611 17.0431 43.0123 17.4855 41.4636 17.928C40.5786 18.1493 38.1449 18.1493 37.4811 18.813C37.0386 19.698 36.8174 27.663 36.8174 27.663Z" fill="#BCBCBB"/>
<path d="M24.4242 60.8516C24.4242 61.2941 24.4242 61.9578 24.203 62.179C23.9817 62.6215 23.318 62.6215 22.8755 62.6215C22.6543 62.6215 22.6543 62.6215 22.433 62.4003C22.433 62.4003 22.2118 62.179 22.2118 61.9578C21.9905 60.6303 21.3268 56.4266 22.8755 55.5416C23.7605 55.0991 23.7605 56.4266 23.7605 57.0903C23.9817 58.4178 24.4242 59.7453 24.4242 60.8516Z" fill="#BCBCBB"/>
<path d="M11.1537 9.53044C10.7112 10.1942 10.2687 10.6367 9.8262 11.3004C9.16245 12.1854 8.49871 13.2917 7.83496 14.1767V14.3979C7.83496 14.6192 8.05621 14.6192 8.05621 14.6192C8.49871 14.6192 8.9412 14.8404 9.3837 14.6192C9.8262 14.3979 10.2687 13.9554 10.4899 13.7342C11.3749 12.6279 12.7024 11.5217 14.0299 10.6367C14.2512 10.4154 14.4724 10.4154 14.6937 10.1942C14.9149 9.7517 14.6937 8.8667 14.2512 8.4242C13.8087 7.53921 13.1449 5.54798 12.2599 6.65422C11.5962 6.87547 11.5962 8.64545 11.1537 9.53044Z" fill="#BCBCBB"/>
<path d="M50.0926 53.3375C49.6501 53.5587 49.4288 53.78 48.9863 54.0012C48.5438 54.2225 48.3226 54.665 48.1013 55.1075C47.4376 56.2137 46.5526 57.3199 45.6676 58.2049C45.4463 58.4262 45.2251 58.6474 45.0038 58.6474C44.7826 58.6474 44.7826 58.4262 44.7826 58.4262C43.0126 56.2137 42.5701 53.1162 43.6764 50.6825C43.8976 50.0188 44.3401 49.355 44.7826 49.1338C45.8888 48.6913 48.9863 48.47 50.0926 49.1338C51.8626 49.7975 51.4201 52.2312 50.0926 53.3375Z" fill="#BCBCBB"/>
<path d="M20.2274 27.4616C20.4486 27.4616 20.6699 27.2404 20.6699 27.4616C20.6699 27.6829 20.6699 27.6829 20.6699 27.9041C20.2274 28.5678 19.5636 29.0104 19.1211 29.6741C19.1211 29.8953 18.8999 30.1166 18.8999 30.1166C18.6786 30.3378 18.6786 30.3378 18.4574 30.3378L18.2361 30.1166C18.0149 29.6741 17.1299 28.1254 17.5724 27.6829C17.7936 27.4616 18.4574 27.9041 18.8999 27.9041C19.3424 27.6829 20.0061 27.6829 20.2274 27.4616Z" fill="#BCBCBB"/>
<path d="M64.6925 27.6768C65.3562 29.8893 65.3562 32.3231 65.3562 34.5355C65.3562 35.4205 65.135 36.3055 64.9137 37.1905C64.6925 37.8543 64.25 38.518 64.4712 39.1818C65.7987 38.7393 66.905 37.8543 67.79 37.1905C68.8962 36.3055 69.7812 35.4205 70.6662 34.7568L70.8874 34.5355C71.1087 34.5355 71.3299 34.7568 71.3299 34.7568C71.5512 34.7568 71.7724 34.5355 71.7724 34.3143C71.9937 32.5443 72.2149 30.7743 71.3299 29.2256C70.8874 28.1193 70.0024 27.4556 69.1175 26.5706C66.905 24.5794 64.6925 22.5881 61.8163 21.7031C61.595 22.3669 61.8163 23.0306 62.0375 23.4731C62.7012 25.2431 63.8075 27.2343 64.9137 28.7831" fill="#BCBCBB"/>
<path d="M60.4938 55.7904C61.1576 55.7904 61.8213 55.7904 62.2638 55.1267C62.7063 54.6842 62.4851 53.7992 62.2638 53.3567C61.8213 52.0292 61.3788 50.7017 60.9363 49.5955C60.7151 49.3742 60.2726 49.8167 60.0514 50.0379C58.2814 52.9142 58.0601 56.4542 57.8389 59.7729C57.8389 60.4366 57.8389 61.1004 58.2814 61.5429C58.7239 60.2154 58.9451 58.8879 59.1664 57.5604C59.3876 56.6754 59.6089 56.0117 60.4938 55.7904Z" fill="#BCBCBB"/>
<path d="M22.879 52.8937C22.4365 52.8937 21.994 52.6724 21.7728 52.4512C19.7816 51.3449 17.7903 50.2387 16.2416 48.4687C16.0203 48.0262 15.5778 47.805 15.3566 47.3625C14.9141 47.1412 14.4716 46.92 14.0291 46.4775C13.3653 46.035 12.9229 45.15 12.9229 44.265C12.9229 43.8225 12.9229 43.38 13.3653 43.1587C13.5866 42.9375 13.8078 42.9375 14.0291 42.9375C14.6928 42.9375 15.3566 43.1587 16.0203 43.6012C17.3478 44.265 18.4541 44.7075 19.7816 45.3712C20.4453 45.8137 21.5515 46.035 22.2153 46.6987C22.4365 47.3625 23.764 52.6724 22.879 52.8937Z" fill="#BCBCBB"/>
<path d="M26.4211 8.42669C26.6423 8.20544 26.8636 7.9842 26.8636 7.76296C27.9698 6.21422 29.5185 5.10797 31.2885 4.88672C31.2885 5.99296 30.6248 7.0992 30.4035 8.42669C30.1823 9.53293 30.1823 10.4179 30.4035 11.5242C28.6335 11.0817 26.6423 10.8604 24.6511 11.3029C24.4298 11.3029 24.6511 9.53293 24.6511 9.53293C24.8723 9.09044 25.0936 8.86919 25.0936 8.42669C25.3148 8.42669 25.9786 8.64794 26.4211 8.42669Z" fill="#BCBCBB"/>
<path d="M11.8195 30.5508C11.8195 31.4358 11.1557 32.0995 10.9345 32.9845C11.5982 32.7633 12.262 32.542 12.9257 32.3208C12.9257 33.2058 12.7045 33.8695 12.4832 34.7545C12.9257 34.5333 13.5895 34.312 14.032 34.0908C14.032 34.7545 14.032 35.4182 14.2532 36.082C14.6957 35.6395 15.1382 35.197 15.5807 34.7545C15.5807 35.197 15.8019 35.6395 15.8019 36.082C16.2444 35.8607 16.4657 35.6395 16.9082 35.4183C17.1294 35.8608 17.1294 36.3032 17.1294 36.967C17.1294 37.1882 17.1294 37.1882 17.1294 37.1882C17.1294 37.4095 16.9082 37.4095 16.6869 37.4095C16.0232 37.4095 15.1382 37.4095 14.4745 37.6307C14.032 37.6307 13.5895 37.6307 13.147 37.6307C12.0407 37.4095 11.1557 36.3033 10.492 35.4183C10.2707 34.9758 9.82824 34.5333 9.60699 33.8695C9.38574 33.2058 9.16449 32.3208 9.82824 31.8783C10.2707 31.2145 11.1557 30.772 11.8195 30.5508Z" fill="#BCBCBB"/>
<path d="M20.6702 35.2064L20.8914 34.9851H21.1126C21.3339 35.2064 21.7764 35.4276 21.9976 35.4276C21.9976 34.7639 21.9976 34.1001 21.9976 33.4364C22.2189 33.6576 22.4401 33.8789 22.8826 34.1001C23.1039 34.3214 23.5464 34.5426 23.7676 34.5426C23.5464 33.8789 23.3251 32.9939 22.8826 32.3301C23.5464 32.5514 24.2101 32.7726 25.0951 32.7726C25.0951 32.3301 25.0951 31.8876 24.8739 31.4451V31.2239C24.8739 31.0026 25.0951 31.0026 25.3164 31.0026C25.9801 31.2239 26.6439 31.2239 27.3076 31.4451C26.8651 30.5601 26.4226 29.6752 26.2014 28.7902C26.8651 29.0114 27.5289 29.2327 28.1926 29.4539C28.4138 29.2327 28.4138 29.0114 28.1926 29.0114C28.1926 28.7902 27.9714 28.5689 27.9714 28.3477C29.0776 28.3477 29.9626 28.5689 31.0688 28.7902C31.0688 28.7902 31.2901 28.7902 31.2901 29.0114V29.2327C31.5113 30.3389 31.0688 31.6664 30.1838 32.3301C29.2988 32.9939 28.4138 33.8789 27.3076 34.5426C26.4226 35.2064 25.5376 35.8701 24.4314 36.3126C23.3251 36.7551 22.2189 37.1976 21.1126 36.9764C20.6702 36.9764 20.0064 36.5339 19.7852 36.0914C19.7852 36.0914 20.4489 35.4276 20.6702 35.2064Z" fill="#BCBCBB"/>
<path d="M40.1376 21.7021C39.6951 21.9233 39.2526 22.3658 38.8101 22.5871C38.3676 22.8083 37.9251 23.2508 37.4826 23.6933C37.0401 24.1358 37.0401 24.357 37.4826 24.7995C38.3676 24.1358 39.2526 23.6933 40.3589 23.0296V23.2508C39.6951 23.6933 39.0314 24.1358 38.5889 24.5783C38.1464 25.0208 37.4826 25.0208 37.4826 25.9058L37.2614 26.127C36.8189 26.3483 37.0401 26.5695 37.2614 27.012C38.5889 26.3483 39.4739 25.242 41.0226 24.7995C40.8014 25.0208 40.8014 25.0208 40.5801 25.2421C39.6951 25.9058 38.8101 26.5695 37.7039 27.2333C37.2614 27.4545 37.2614 27.897 37.2614 28.3395C37.2614 28.782 37.4826 29.0033 37.4826 29.4458C37.4826 29.667 37.4826 29.667 37.2614 30.1095C37.0401 29.8883 37.0401 29.667 37.0401 29.667C36.8189 28.3395 36.5976 27.012 36.3764 25.9058C36.3764 25.6845 36.3764 25.4633 36.3764 25.4633C36.8189 24.3571 36.3764 23.4721 36.1551 22.3658C35.9339 21.9233 35.9339 21.4808 36.3764 21.0383C36.5976 20.8171 36.5976 20.8171 37.2614 20.5958C37.0401 20.3746 36.8189 20.1533 36.8189 19.7108C36.5976 19.2683 36.3764 19.0471 36.1551 18.6046C35.9339 17.2771 35.0489 16.1708 34.3852 15.0646C33.7214 13.9584 33.2789 12.6309 32.6152 11.5246C31.9514 11.5246 31.9514 12.4096 31.2877 12.1884C30.6239 9.9759 31.0664 7.98466 32.1727 5.99342C31.2877 5.99342 31.0664 5.99343 29.0752 7.54217C28.1902 8.20592 27.3052 9.09091 26.4202 9.75466C26.199 9.53341 25.9777 9.5334 25.7565 9.31215C25.7565 9.5334 25.7565 9.75466 25.7565 9.75466C25.7565 10.6397 25.7565 10.6396 24.8715 10.4184C24.6502 10.4184 24.429 10.4184 24.429 10.1971C22.8802 9.5334 21.3315 9.75465 19.7828 10.1971C19.5615 10.1971 19.5615 10.1971 19.3403 10.1971C19.3403 10.1971 19.3403 10.1971 19.119 10.1971C19.119 9.9759 19.119 9.75465 19.3403 9.31215C18.4553 8.86965 18.234 9.0909 17.7915 9.31215C17.7915 9.5334 17.7915 9.75465 17.7915 9.9759C17.349 9.9759 16.9065 9.9759 16.2428 9.9759C16.464 9.75465 16.464 9.5334 16.6853 9.31215C16.464 8.64841 16.0215 8.20592 15.3578 7.76342C15.1365 7.98467 14.9153 7.98466 14.694 8.20591C13.809 7.54216 13.1453 6.65717 12.2603 5.99342C11.8178 6.43592 11.8178 6.87841 11.5966 7.32091C11.3753 7.98466 11.1541 8.64841 10.7116 9.09091C10.4903 9.31215 10.4903 9.53341 10.2691 9.9759C9.16283 11.9671 7.83534 13.7371 6.2866 15.2859C6.06535 15.7284 5.62286 15.9496 5.40161 16.3921C5.40161 16.6134 5.18036 16.6134 5.18036 16.8346C5.40161 17.7196 4.95911 18.6046 4.51661 19.4896C3.85287 20.8171 2.96787 22.1446 2.30413 23.6933C2.30413 23.9145 2.08288 24.1358 2.08288 24.3571C2.52538 24.1358 2.96787 24.1358 3.63162 23.9145C3.41037 24.5783 3.41037 24.7996 3.41037 25.2421C3.63162 25.2421 3.63162 25.4633 3.85287 25.6845C3.63162 26.7908 3.18912 28.1183 2.96787 29.4458C3.18912 29.0033 3.41037 28.782 3.63162 28.5608C3.85287 28.782 3.85287 29.0033 3.63162 29.2245C3.41037 29.667 2.96787 30.3308 2.74663 30.7733C2.30413 32.1008 2.30413 32.1007 2.52538 33.6495C4.07412 32.5432 5.18036 30.7733 7.1716 30.3308C6.95035 30.552 6.7291 30.552 6.50785 30.7733C6.06535 31.2158 5.62286 31.437 5.18036 31.8795C4.73786 32.1008 4.51661 32.5432 4.51661 32.9857C4.51661 33.207 4.51661 33.6495 4.51661 34.092C4.51661 34.5345 4.29536 34.7557 4.73786 34.977C4.95911 35.1982 4.73786 35.4195 4.73786 35.6407C4.73786 36.0832 4.73786 36.747 4.95911 37.4107C5.18036 38.0745 5.40161 38.0745 5.8441 37.8532C6.06535 37.8532 6.2866 37.632 6.50785 37.632C6.7291 37.632 6.95035 37.632 6.95035 37.632C7.39284 38.517 6.7291 39.4019 7.1716 40.2869C7.39284 40.0657 7.61409 40.0657 7.61409 40.0657C7.83534 39.8444 8.05659 39.6232 8.27784 39.6232C8.72033 39.402 8.94158 39.6232 8.94158 40.0657C8.94158 40.5082 8.72033 40.7294 8.72033 41.1719C8.72033 41.3932 8.72033 41.8357 8.72033 42.0569C9.38408 42.0569 9.60533 41.1719 10.2691 41.1719C11.1541 42.2782 10.4903 43.8269 10.9328 44.9332C11.5966 44.9332 11.3753 44.2694 11.8178 44.0482C12.0391 44.0482 12.2603 44.2694 12.4816 44.4907C12.9241 45.3757 13.3666 46.0394 13.809 46.9244C14.0303 47.3669 14.4728 48.0306 14.9153 48.4731C14.9153 48.6944 14.694 48.9156 14.4728 48.6944C14.2515 48.4731 14.0303 48.2519 13.809 47.8094C13.3666 47.1456 13.1453 46.4819 12.9241 45.8181C12.7028 45.5969 12.7028 45.3756 12.4816 44.9332C12.2603 45.1544 12.0391 45.1544 11.8178 45.3757C11.1541 45.5969 10.9328 45.5969 10.7116 44.9332C10.7116 44.4907 10.7116 43.8269 10.7116 43.1632C10.7116 42.7207 10.7116 42.2782 10.4903 41.8357C10.0478 41.8357 9.82658 42.2782 9.60533 42.4994C8.94158 42.0569 8.72033 42.2782 8.49909 42.0569C8.27784 41.8357 8.27784 41.6144 8.27784 41.1719C8.27784 40.7294 8.49909 40.0657 8.49909 39.4019C8.05659 39.8444 7.83534 40.0657 7.39284 40.0657C6.7291 40.5082 6.50785 40.2869 6.2866 39.6232C6.2866 39.402 6.2866 38.9594 6.2866 38.7382C6.2866 38.517 6.2866 38.2957 6.2866 37.8532C6.06535 37.8532 5.62286 38.0745 5.40161 38.0745C4.73786 38.2957 4.29536 38.0745 4.07412 37.4107C4.07412 37.1895 4.07412 36.747 4.07412 36.5257C4.07412 36.3045 4.07412 36.0832 4.07412 36.0832C3.41037 35.6407 3.85287 34.977 3.85287 34.3132C3.85287 33.8707 4.07412 33.6495 4.07412 33.207C3.41037 33.207 3.18912 33.8707 2.74663 34.092C2.30413 34.5345 2.08288 34.7557 1.41913 34.977C1.19789 34.5345 2.30413 34.092 1.86163 33.4282C1.64038 33.6495 1.41913 33.6495 1.19789 33.8707C1.19789 33.6495 0.976638 33.6495 0.976638 33.6495C1.19789 32.7645 1.41913 31.8795 1.86163 30.9945C1.41913 31.2158 1.19789 32.1007 0.312893 32.1007C0.534141 30.9945 1.41913 30.3308 1.64038 29.2245C0.976638 29.2245 0.75539 29.8883 0.0916441 29.4458C-0.129604 29.0033 0.0916441 28.782 0.312893 28.5608C0.75539 27.897 1.19789 27.2333 1.64038 26.7908C1.86163 26.5695 2.08288 26.127 2.30413 25.6845C1.64038 25.6845 1.19789 26.127 0.534141 25.9058C2.08288 23.9145 3.18912 21.4808 4.51661 19.0471C3.85287 19.0471 3.41037 19.4896 3.18912 19.7108C2.74663 19.9321 2.30413 20.1533 1.64038 19.9321C1.86163 19.7108 1.86163 19.4896 2.08288 19.4896C2.52538 19.0471 2.96787 18.6046 3.41037 18.1621C4.73786 16.6133 6.06535 15.2859 7.39284 13.7371C8.27784 12.6309 8.94158 11.3034 9.82658 10.1971C10.0478 9.9759 10.2691 9.75465 10.4903 9.31215C10.7116 9.0909 11.1541 8.6484 11.1541 8.42715C11.3753 7.76341 11.8178 6.87842 12.0391 5.99342C12.0391 5.77218 12.0391 5.32967 12.0391 5.10843C12.0391 4.88718 12.0391 4.66594 12.2603 4.66594C12.4816 4.44469 12.7028 4.66593 12.7028 4.88718C13.1453 5.32968 13.3666 5.77217 13.809 6.21467C14.4728 5.77217 14.694 5.99343 15.1365 6.43593C16.0215 7.09968 16.6853 7.98467 17.5703 8.86966C18.234 8.64841 18.8978 7.98467 19.7828 7.54217C19.5615 8.20592 19.5615 8.42716 19.5615 8.86966C20.4465 8.86966 21.3315 8.64842 21.9952 8.64842C22.659 8.64842 23.544 8.86966 24.6502 9.09091C24.6502 8.42716 24.6502 7.76341 24.6502 7.09967C25.5352 7.09967 25.5352 7.98466 26.199 8.20591C26.4202 7.98466 26.6415 7.76342 26.8627 7.54217C28.4114 6.21468 29.7389 5.10843 31.7302 4.66594C32.1727 4.44469 32.1727 4.44469 32.6152 4.66594C31.7302 5.99343 31.0664 7.54217 31.0664 9.09091C31.0664 9.5334 31.0664 9.9759 31.2877 10.4184C31.7302 10.1971 31.9514 9.97589 32.3939 9.5334C32.8364 10.1971 33.0577 10.8609 33.2789 11.5246C33.7214 12.6309 34.3852 13.7371 34.8277 14.8434C35.0489 15.2859 35.2701 15.7284 35.4914 16.1708C35.9339 17.0558 36.5976 17.4983 37.7039 17.2771C37.9251 17.2771 38.1464 17.2771 38.5889 17.2771C39.6951 17.2771 40.8014 17.0559 41.9076 16.8346C42.7926 16.6134 43.4563 16.6134 44.3413 16.3921C45.6688 15.9496 46.9963 15.5071 48.1026 14.6221C48.3238 14.4009 48.5451 14.4009 48.7663 14.1796C48.9876 14.4009 49.2088 14.6221 49.6513 14.6221C49.43 15.0646 49.2088 15.5071 48.7663 16.1708C48.9876 16.1708 49.2088 16.1708 49.43 16.1708C50.315 15.9496 51.2 15.5071 52.085 15.2859C53.6338 14.8434 55.1825 14.4009 56.7313 14.4009C56.9525 14.4009 57.1737 14.4009 57.395 14.4009C57.395 15.0646 56.7313 15.2859 56.2888 15.9496C57.1737 16.3921 58.0587 16.6133 58.9437 17.0558C59.6075 15.5071 59.8287 14.1796 59.8287 12.4096C60.4925 12.4096 60.4925 12.8521 60.7137 13.2946C61.3775 14.6221 62.2625 15.5071 63.1475 16.1708C63.59 15.7284 64.0324 15.5071 64.2537 15.2859C65.3599 14.4009 66.4662 14.1796 67.7937 14.1796C68.0149 14.1796 68.0149 14.1796 68.2362 14.1796L68.4574 14.4009C68.4574 14.6221 68.4574 14.6221 68.2362 14.8434C67.7937 15.0646 67.3512 15.2859 67.1299 15.5071C66.9087 15.7284 66.6874 15.9496 66.6874 16.1708C67.1299 16.6133 67.5724 16.8346 68.0149 17.0558C69.5637 17.4983 70.8912 18.6046 71.9974 19.9321C71.3336 20.3746 70.4487 19.7108 69.7849 20.1533C70.0062 20.5958 70.4487 20.8171 70.6699 21.2596C71.5549 22.1446 72.4399 23.2508 73.1036 24.1358C73.3249 24.3571 73.5461 24.7996 73.5461 25.2421C72.8824 25.4633 72.4399 24.7995 71.7761 25.0208C73.1036 27.012 73.9886 29.0033 73.9886 31.2158C73.5461 31.2158 73.1036 31.437 72.4399 31.437C72.4399 31.8795 72.4399 32.322 72.4399 32.5432C72.4399 33.4282 72.4399 34.5345 72.6611 35.4195C72.6611 36.0832 72.4399 36.5257 71.9974 37.1895C71.1124 36.5257 71.3336 35.4195 70.6699 34.7557C69.7849 35.862 69.5637 37.1895 68.4574 38.0745C68.2362 37.8532 68.0149 37.8532 68.0149 37.8532H67.7937C67.1299 38.2957 66.6874 38.7382 66.0237 39.1807C65.5812 39.4019 65.3599 39.6232 64.9174 40.0657C64.4749 40.5082 64.2537 40.7294 63.8112 40.5082C63.59 40.0657 63.3687 39.6232 63.1475 39.1807C62.705 40.0657 62.705 40.7294 62.9262 41.3932C63.1475 43.1632 63.59 44.7119 63.8112 46.2607C63.8112 46.4819 64.0325 46.9244 63.59 47.1456C63.1475 46.7031 62.9262 46.4819 62.4837 46.0394H62.2625C62.4837 46.7031 62.705 47.3669 63.1475 48.0306C63.3687 48.6944 63.59 49.1369 64.0324 49.8006C64.0324 50.0219 64.2537 50.2431 64.0324 50.4644C63.3687 50.0219 62.9262 49.3581 61.82 49.1369C61.82 49.5794 62.0412 49.8006 62.2625 50.0219C62.4837 50.4644 62.9262 50.9069 63.1475 51.5706C63.59 52.2343 63.3687 52.2344 62.705 52.4556C62.9262 52.8981 62.9262 53.3406 63.1475 53.7831L62.9262 54.0044C62.4837 53.1194 61.82 52.0131 61.3775 51.1281C61.3775 51.1281 61.3775 50.9069 61.5987 50.6856C62.0412 50.9069 62.2625 51.1281 62.705 51.1281C62.0412 51.3494 62.0412 51.1281 61.82 50.9069C61.3775 50.2431 61.1562 49.5794 60.7137 48.9156C60.7137 48.6944 60.7137 48.4731 60.7137 48.4731C60.7137 48.4731 61.1562 48.2519 61.1562 48.4731C61.3775 48.4731 61.82 48.6944 62.0412 48.9156C62.2625 49.1369 62.4837 49.1369 62.9262 49.3581C62.9262 49.1369 62.9262 48.9156 62.705 48.6944C62.4837 48.0306 62.0412 47.3669 61.82 46.4819C61.5987 46.0394 61.3775 45.3757 61.3775 44.7119C62.0412 44.7119 62.4837 45.3757 63.1475 45.8181C63.1475 45.3757 62.9262 44.9332 62.9262 44.4907C62.705 43.3844 62.4837 42.2782 62.2625 41.3932C62.0412 40.2869 62.2625 39.1807 62.705 38.0745C63.3687 38.0745 63.3687 38.0745 63.8112 38.7382C64.2537 38.2957 64.9174 35.4195 64.9174 34.3132C64.0324 34.7557 63.3687 35.1982 62.4837 35.6407V35.4195C62.4837 35.1982 62.705 35.1982 62.9262 34.977C63.59 34.5345 64.0325 34.3132 64.6962 34.092C65.3599 33.8707 65.3599 33.4282 65.3599 32.7645C65.3599 32.5432 65.3599 32.1007 65.3599 31.6582C64.2537 32.1007 63.3687 32.9857 62.2625 33.4282C62.4837 32.9857 62.705 32.7645 63.1475 32.7645C63.59 32.322 64.2537 32.1007 64.9174 31.6582C65.3599 31.437 65.3599 31.2158 65.3599 30.7733C65.1387 29.4458 64.6962 28.1183 63.8112 26.7908C63.59 26.5695 63.59 26.3483 63.59 25.9058C63.8112 25.9058 64.0324 25.9058 64.0324 26.127C64.2537 26.5695 64.4749 27.012 64.9174 27.4545C65.1387 27.6758 65.3599 28.1183 65.5812 28.3395C66.4662 28.1183 67.1299 27.4545 67.7937 27.012C67.3512 27.4545 66.9087 27.897 66.2449 28.3395C65.5812 28.782 65.5812 29.0033 65.8024 29.667C66.0237 30.1095 66.0237 30.552 66.2449 31.2158C66.2449 31.2158 66.0237 31.437 66.0237 31.6582C66.0237 33.207 65.5812 34.7557 65.3599 36.3045C65.1387 36.9682 64.9174 37.8532 64.9174 38.7382C66.0237 38.2957 66.6874 37.632 67.5724 37.1895C68.4574 36.747 68.6787 35.6407 69.3424 34.7557C69.5637 34.977 69.5637 35.1982 69.7849 35.4195C70.2274 34.7557 70.4487 34.092 70.6699 33.207C70.6699 32.9857 70.8912 32.7645 70.8912 32.7645C71.1124 32.7645 71.3336 32.9857 71.3336 33.207C71.5549 33.6495 71.7761 34.092 71.9974 34.5345C72.2186 32.7645 71.7761 30.9945 71.7761 29.2245C72.6611 28.782 72.8824 29.8883 73.5461 29.667C73.3249 27.2333 71.7761 25.4633 70.2274 23.2508C71.3336 23.0296 71.7761 23.6933 72.6611 23.6933C72.4399 23.0296 71.9974 22.5871 71.5549 22.1446C70.6699 21.2596 69.7849 20.3746 68.8999 19.4896C68.6787 19.2683 68.4574 19.0471 68.4574 18.6046C68.8999 18.6046 69.5637 18.8258 70.2274 18.8258C70.0062 18.3833 69.5637 18.1621 69.3424 17.9408C68.6787 17.4983 67.7937 17.2771 67.1299 16.8346C66.9087 16.8346 66.6874 16.6134 66.4662 16.6134C65.5812 16.1709 65.5812 15.9496 66.0237 15.0646C66.2449 14.8434 66.2449 14.6221 66.4662 14.4009C65.5812 14.4009 64.9174 14.6221 64.4749 15.0646C64.0324 15.5071 63.59 16.1709 63.1475 16.8346C62.705 16.3921 62.0412 15.7284 61.5987 15.2859C61.1562 14.8434 60.4925 14.1796 60.05 13.5159C59.8287 14.6221 59.6075 15.7284 59.165 16.8346C59.6075 17.2771 60.2712 17.7196 60.7137 18.1621C60.4925 18.3833 60.4925 18.6046 60.2712 18.8258C60.7137 19.2683 61.3775 19.9321 61.82 20.5958C62.2625 21.0383 62.9262 21.4808 62.9262 22.5871C62.2625 21.9233 61.5987 21.0383 61.1562 20.5958C60.4925 19.9321 59.8287 19.4896 59.165 18.8258C59.3862 18.6046 59.6075 18.6046 59.6075 18.3833C59.6075 17.4983 58.5012 18.1621 58.28 17.4984C57.8375 17.2771 57.1737 17.0559 56.7313 16.8346C56.2888 16.6134 55.625 16.3921 54.9613 16.1708C55.4038 15.7284 55.625 15.5071 55.8463 15.0646C55.625 15.0646 55.4038 15.0646 55.4038 15.0646C54.74 15.2859 54.2975 15.2859 53.6338 15.5071C53.6338 15.7284 53.6338 15.9496 53.6338 16.1708L53.4125 16.3921C51.8638 16.8346 50.315 17.0559 48.7663 17.4984C48.5451 17.4984 48.3238 17.4984 48.3238 17.4984C47.4388 17.4984 47.2176 17.2771 47.2176 16.3921C46.7751 16.6134 46.3326 16.6134 45.8901 16.8346C45.0051 17.2771 44.1201 17.7196 43.0138 17.7196C42.7926 17.7196 42.5714 17.7196 42.5714 17.7196C41.2439 17.9408 39.9164 18.3833 38.5889 18.3833C38.1464 18.3833 37.9251 18.6046 37.4826 18.6046C37.7039 19.0471 37.9251 19.2683 38.3676 19.4896C39.0314 20.3746 39.0314 20.3746 38.1464 20.8171C38.3676 21.2596 38.1464 21.4808 37.7039 21.7021C37.7039 22.1446 37.9251 22.5871 38.1464 23.2508C39.0314 22.8083 39.9164 22.1446 40.5801 21.7021C40.1376 21.7021 40.1376 21.7021 40.1376 21.7021ZM2.30413 27.6758C2.74663 27.4545 2.74663 27.4545 2.96787 26.7908C2.74663 27.012 2.52538 27.4545 2.30413 27.6758ZM37.4826 19.9321C37.4826 19.4896 37.2614 19.2683 37.0401 19.2683C37.0401 19.4896 37.2614 19.7108 37.4826 19.9321Z" fill="black"/>
<path d="M37.2646 52.0214C37.7071 50.6939 37.7071 49.3664 37.9283 48.2601C38.3708 48.2601 38.3708 48.2601 39.0345 49.3664C39.477 48.7026 39.477 47.5964 40.1408 46.7114C40.5833 47.3751 40.5833 48.2601 41.247 48.7026C41.4683 48.4814 41.6895 48.2601 41.9108 48.0389C42.3533 48.0389 42.5745 48.2601 42.7958 48.7026C43.017 48.9239 43.017 49.3664 43.2383 49.5876C43.4595 49.1451 43.4595 49.1451 43.6808 48.9239C43.902 48.7026 43.902 48.4814 44.1233 48.2601C44.5658 47.5964 45.0083 47.5964 45.4508 48.0389C45.672 48.2601 45.8932 48.7026 46.1145 48.9239C46.3357 48.7026 46.7782 48.4814 46.9995 48.2601C47.2207 47.8176 47.6632 47.8176 48.1057 48.0389C48.327 48.2601 48.7695 48.2601 49.212 48.2601C49.6545 48.2601 49.8757 48.0389 49.6545 47.5964C49.4332 47.1539 49.4332 46.9326 49.212 46.7114C48.9907 46.2689 48.7695 45.6052 48.9907 44.9414H49.212C49.4332 45.8264 49.6545 46.7114 50.5395 47.5964C50.982 48.0389 51.2032 48.4814 51.4245 49.1451C52.3095 50.2514 52.9732 51.5789 53.6369 52.6851C53.8582 52.9064 53.8582 53.1276 54.3007 53.3489C54.9644 52.6851 55.6282 52.0214 56.5132 51.3576L56.7344 51.5789C56.0707 52.2426 55.4069 52.9064 54.7432 53.7913C55.1857 54.2338 55.4069 54.4551 55.6282 54.8976C56.0707 55.1188 55.8494 55.5613 55.8494 56.0038C55.8494 56.8888 55.8494 57.7738 55.8494 58.8801C55.8494 59.1013 55.8494 59.5438 56.0707 59.7651C56.7344 59.9863 56.9557 59.1013 57.6194 59.5438C56.9557 59.7651 56.5132 59.9863 56.2919 60.6501C56.2919 60.8713 56.2919 61.0925 56.5132 61.3138C56.9557 61.0925 57.6194 60.8713 58.0619 60.6501V60.8713C57.8407 61.0926 57.6194 61.0925 57.6194 61.3138C56.9557 61.7563 56.2919 62.1988 55.8494 63.0838C55.6282 63.5263 54.9644 63.9688 54.5219 64.19C54.3007 64.4113 54.0794 64.6325 53.8582 64.8538C53.4157 65.2963 53.6369 65.7388 54.3007 65.96C54.3007 65.96 54.3007 65.96 54.5219 65.96C54.7432 65.96 54.5219 65.96 54.7432 65.96C54.7432 65.5175 54.9644 65.2963 54.9644 64.8538C55.4069 65.075 55.4069 65.075 55.1857 66.1813C55.6282 66.1813 56.0707 66.1813 56.5132 66.1813C56.5132 65.7388 56.7344 65.2963 56.9557 64.8538C57.3982 65.2963 56.9557 65.96 57.3982 66.4025C57.8407 66.6238 57.8407 66.1813 57.8407 65.96C58.0619 65.075 58.5044 64.19 58.7257 63.305C59.1682 61.7563 59.3894 60.2076 59.8319 58.6588C59.8319 58.2163 60.0532 57.7738 60.0532 57.3313C60.0532 56.8888 60.2744 56.6676 60.7169 56.8888C61.3806 56.8888 62.0444 56.6676 62.7081 56.2251C62.9294 56.8888 62.9294 56.8888 62.4869 57.1101C62.0444 57.3313 61.6019 57.3313 61.1594 57.5526C60.7169 57.7738 60.4956 57.9951 60.4956 58.2163C60.0532 59.9863 59.8319 61.7563 59.3894 63.5263C59.1682 64.4113 58.7257 65.075 58.5044 65.96C58.2832 66.6238 57.6194 67.0663 56.9557 67.5088C56.7344 67.0663 56.2919 67.0663 55.8494 67.0663C55.1857 67.0663 54.7432 67.0663 54.0794 67.0663C52.5307 66.845 52.5307 65.7388 53.1945 64.6325C53.4157 64.19 53.6369 63.9688 54.0794 63.5263C54.3007 63.305 54.5219 63.0838 54.7432 62.8625C54.9644 62.6413 55.1857 62.42 55.4069 62.42C55.8494 61.9775 56.0707 61.5351 55.8494 60.8713C55.6282 59.7651 55.4069 58.4376 55.1857 57.3313C55.1857 56.6676 54.9644 56.0038 54.9644 55.3401C54.9644 55.1188 54.7432 54.6763 54.7432 54.6763C53.1945 53.1276 51.867 51.3576 50.7607 49.3664C50.097 49.8089 49.4332 49.8089 48.7695 49.3664C48.5482 49.1451 48.1057 49.3664 47.8845 49.5876L47.6632 49.8089C46.7782 50.6939 46.7782 50.6939 45.8933 49.5876C45.672 49.3664 45.672 49.1451 45.4508 49.1451C44.787 49.5876 44.787 50.0301 44.5658 50.6939C44.1233 51.8001 43.6808 52.6851 44.1233 54.0126C44.787 53.7914 45.2295 53.1276 46.1145 53.1276C45.672 53.3489 45.4508 53.5701 45.0083 54.0126C43.902 54.6764 43.902 54.6763 44.1233 56.0038C44.1233 57.1101 44.3445 58.2163 44.3445 59.3226C44.3445 59.5438 44.3445 59.9863 44.1233 59.9863C43.6808 60.4288 43.2383 60.8713 42.7958 61.535C42.5745 61.7563 42.132 62.1988 42.132 62.6413C41.9108 63.5263 42.132 63.9688 43.2383 63.9688C43.4595 63.5263 43.6808 63.0838 43.902 62.42C43.902 62.42 44.1233 62.42 44.3445 62.42C44.1233 62.8625 44.1233 63.305 43.902 63.9688C44.3445 63.9688 44.5658 63.9688 44.787 63.9688C45.0083 63.5263 44.787 63.0838 45.2295 62.6413C45.2295 63.0838 45.2295 63.305 45.4508 63.7475C46.1145 63.7475 46.557 63.305 46.7782 62.8625C46.3357 61.9776 46.557 61.3138 46.7782 60.4288C46.9995 59.7651 46.9995 59.1013 46.9995 58.2163C46.9995 57.7738 46.9995 57.3313 47.2207 56.8888C47.8845 56.8888 48.327 56.8888 48.9907 56.8888C48.7695 56.4463 48.5482 56.2251 48.327 56.0038C48.1057 55.7826 48.1057 55.5613 48.1057 55.5613C48.327 55.5613 48.5482 55.3401 48.5482 55.3401C48.9907 55.3401 49.212 55.3401 49.6545 55.3401C49.4332 54.8976 49.212 54.4551 49.212 53.7913C49.6545 53.3488 49.8757 53.3489 50.3182 53.3489C51.6457 53.3489 51.867 53.3489 51.6457 52.0214C51.6457 52.0214 51.6457 52.0214 51.6457 51.8001C51.867 51.8001 52.0882 51.8001 52.0882 52.0214C52.5307 52.9064 51.867 54.0126 50.7607 54.0126C50.5395 54.0126 50.3182 54.0126 49.6545 54.0126C49.8757 54.4551 49.8757 54.6763 50.097 54.8976C50.3182 55.1188 50.5395 55.3401 50.3182 55.7826C50.097 56.2251 49.8757 56.0038 49.6545 55.7826C49.4332 55.7826 49.212 55.7826 48.7695 55.7826C49.212 56.2251 49.4332 56.4463 49.6545 56.8888C49.6545 57.1101 49.8757 57.3313 49.8757 57.3313C49.6545 57.3313 49.4332 57.5526 49.212 57.5526C48.7695 57.5526 48.327 57.5526 48.1057 57.5526C47.442 57.5526 47.442 57.7738 47.2207 58.2163C47.2207 59.1013 46.9995 59.9863 46.9995 60.8713C46.9995 61.3138 46.9995 61.7563 46.9995 62.1988C46.9995 62.6413 46.9995 63.0838 46.557 63.305C46.1145 63.7475 45.672 63.9688 45.2295 64.19C44.1233 64.4113 42.7958 64.4113 41.6895 63.9688C41.247 63.7475 41.0258 63.0838 41.0258 62.42C41.0258 61.535 41.4683 61.0926 42.132 60.6501C42.3533 60.4288 42.7958 60.2076 43.017 59.7651C43.4595 59.3226 43.4595 58.8801 43.4595 58.4376C43.4595 57.1101 43.2383 55.7826 43.2383 54.6763C43.2383 53.5701 43.2383 52.4639 43.017 51.1364C43.017 50.4726 42.7958 49.8089 42.3533 49.3664C42.132 49.5876 41.9108 50.0301 41.6895 50.2514C41.0258 49.8089 41.0258 49.1451 40.362 48.4814C40.1408 48.9239 40.1408 49.1451 39.9195 49.5876C39.9195 50.2514 39.9195 50.9151 39.6983 51.8001C39.6983 52.0214 39.6983 52.2426 39.477 52.4639C38.8133 51.8001 39.0345 50.9151 38.3708 50.2514C37.9283 51.3576 38.1496 52.4639 37.7071 53.3489C37.2646 53.1276 36.8221 52.9064 36.3796 52.6851C36.3796 53.1276 36.3796 53.5701 36.3796 54.0126C35.9371 54.0126 35.4946 53.7913 35.0521 53.7913C34.8308 54.4551 35.0521 55.1188 34.6096 55.7826C34.3883 55.7826 33.9458 55.7826 33.5033 55.7826L33.2821 56.0038C33.2821 57.3313 33.0608 57.1101 31.9546 57.1101C31.9546 57.1101 31.7333 57.1101 31.5121 57.1101C31.5121 57.3313 31.5121 57.5526 31.5121 57.5526C31.5121 57.9951 31.5121 58.2163 30.8484 58.2163C30.4059 58.2163 30.1846 58.2163 29.5209 58.2163C29.7421 58.6588 29.9634 59.1013 30.1846 59.5438C30.1846 59.7651 30.4059 59.9863 30.4059 59.9863C30.6271 60.4288 30.4059 60.65 29.9634 60.4288C29.5209 60.4288 29.0784 60.2076 28.4146 60.2076C28.6359 60.6501 28.8571 61.0925 29.0784 61.3138C29.2996 61.535 29.2996 61.7563 29.5209 61.9776C29.7421 62.6413 29.7421 62.8625 29.0784 62.8625C28.6359 62.8625 28.1934 62.8625 27.5296 62.8625C27.5296 63.305 27.5296 63.5263 27.5296 63.9688C27.5296 64.6325 27.5296 65.2963 27.5296 65.7388C27.5296 66.1813 27.3084 66.4025 26.8659 66.4025C25.9809 66.4025 24.8746 66.4025 23.9896 66.4025C23.7684 66.4025 23.5471 66.4025 23.1047 66.1813C22.2197 65.96 21.7772 65.075 22.2197 64.4113C22.4409 64.19 22.4409 63.7475 22.6622 63.5263C22.4409 63.5263 22.2197 63.5263 21.9984 63.5263C21.3347 63.5263 20.6709 63.5263 20.0072 63.5263C19.1222 63.5263 18.4584 62.42 19.1222 61.535C19.7859 60.8713 20.2284 60.2076 20.8922 59.5438C20.8922 58.4376 20.6709 57.3313 20.4497 56.0038C20.4497 55.3401 20.2284 54.8976 20.2284 54.2339C20.2284 53.7914 20.4497 53.5701 20.8922 53.5701C21.1134 53.7913 21.1134 54.2338 21.1134 54.4551C21.1134 55.1188 21.3347 55.7826 21.3347 56.6676C21.3347 57.1101 21.3347 57.3313 21.9984 57.3313C21.7772 57.5526 21.3347 57.7738 21.5559 58.4376C21.7772 58.4376 21.7772 58.4376 21.9984 58.2163V58.4376C21.3347 58.8801 21.3347 59.3226 21.5559 60.2076C21.5559 60.4288 21.5559 60.4288 21.5559 60.6501C21.3347 60.6501 21.3347 60.8713 21.1134 60.6501C20.8922 60.6501 20.4497 60.4288 20.2284 60.6501C19.7859 61.0926 19.1222 61.535 19.1222 62.1988C19.1222 62.42 19.3434 62.6413 19.3434 62.6413C19.5647 62.8625 19.7859 62.8625 20.2284 62.8625C20.4497 62.42 20.4497 61.9775 20.8922 61.535C21.3347 61.9775 20.6709 62.1988 20.8922 62.6413C21.1134 62.6413 21.5559 62.6413 21.7772 62.6413C22.2197 62.1988 21.7772 61.535 22.4409 61.0926C22.4409 61.535 22.4409 61.9775 22.4409 62.42C23.3259 62.1988 23.3259 61.9775 23.3259 61.535C23.1047 59.9863 22.8834 58.6588 22.8834 57.1101C22.8834 56.8888 22.8834 56.6676 22.6622 56.4463C22.6622 56.0038 22.4409 55.5613 22.4409 55.1188C22.4409 52.6851 21.9984 50.2514 21.5559 48.0389C21.5559 47.5964 21.5559 47.1539 21.3347 46.4902C21.3347 46.2689 21.3347 46.2689 21.5559 46.0476C21.9984 46.2689 21.9984 46.4902 21.9984 46.7114C21.9984 47.1539 21.9984 47.5964 22.2197 48.0389C22.6622 49.5876 22.6622 51.1364 22.8834 52.6851C23.1047 54.4551 23.3259 56.2251 23.7684 57.9951C24.6534 57.7738 25.3171 56.8888 26.2021 56.8888C25.9809 56.8888 25.9809 57.1101 25.7596 57.1101C25.3171 57.5526 24.6534 57.7738 24.2109 58.2163C23.7684 58.4376 23.7684 58.8801 23.9896 59.3226C24.4321 58.8801 25.0959 58.6588 25.7596 58.2163V58.4376C25.0959 58.8801 24.6534 59.3226 23.9896 59.7651C23.9896 60.4288 24.2109 61.0926 24.2109 61.7563C24.2109 62.1988 24.2109 62.42 23.9896 62.8625C23.7684 63.0838 23.5471 63.305 23.1047 63.7475C22.8834 64.19 22.6622 64.4113 22.4409 64.8538C22.2197 65.5175 22.4409 65.5175 23.3259 65.5175C23.3259 65.2963 23.3259 64.8538 23.5472 64.4113C24.2109 64.6325 23.7684 65.075 24.2109 65.5175C24.4321 65.5175 24.6534 65.5175 25.3171 65.7388C25.3171 65.5175 25.3171 65.2963 25.3171 65.075C25.3171 64.8538 25.3171 64.6325 25.5384 64.4113C25.5384 64.6325 25.7596 64.6325 25.7596 64.8538C25.7596 65.075 25.7596 65.2963 25.7596 65.2963C25.7596 65.5175 25.9809 65.7388 26.2021 65.7388C26.4234 65.7388 26.4234 65.5175 26.6446 65.2963C26.8659 64.6325 26.8659 63.9688 26.6446 63.305C26.6446 62.8625 26.4234 62.42 26.6446 62.1988C26.8659 61.7563 27.3084 62.1988 27.7509 62.1988C27.9721 62.1988 28.4146 62.1988 28.8571 62.1988C28.6359 61.3138 27.7509 60.6501 27.7509 59.7651C28.4146 59.3226 29.0784 59.9863 29.7421 59.5438C29.5209 58.8801 29.0784 58.2163 28.8571 57.7738C29.5209 57.3313 30.1846 57.7738 30.8484 57.3313C30.8484 56.8888 30.8484 56.4463 30.8484 56.0038C31.5121 56.0038 31.9546 56.2251 32.6183 56.2251C32.6183 55.7826 32.6183 55.3401 32.8396 54.8976C33.2821 54.8976 33.7246 54.8976 34.1671 54.8976C34.1671 54.2338 34.1671 53.5701 34.1671 52.6851C34.6096 52.6851 35.0521 52.9064 35.4946 52.9064C35.4946 52.4639 35.4946 52.0214 35.4946 51.3576C35.9371 51.5789 36.1583 51.5789 36.3796 51.5789C36.6008 51.8001 36.8221 51.8001 37.2646 52.0214Z" fill="black"/>
<path d="M24.8677 32.5443C24.6464 32.1018 24.4252 31.6594 24.2039 31.2169C25.0889 30.7744 25.7527 31.2169 26.6377 31.4381C26.4164 31.2169 26.4164 30.9956 26.4164 30.7744C26.1952 30.3319 25.7527 29.6681 25.3102 29.2256C25.3102 29.0044 25.3102 28.7831 25.3102 28.7831C25.3102 28.7831 25.5314 28.5619 25.7527 28.5619C26.1952 28.5619 26.4164 28.7831 26.8589 28.7831C27.0802 28.7831 27.5227 29.0044 27.9652 29.2256C27.5227 28.3406 26.4164 28.1194 25.7527 27.2344C26.1952 27.2344 26.4164 27.2344 26.4164 27.2344C27.3014 27.6769 28.4077 28.3406 29.0714 29.6681C28.8502 29.6681 28.6289 29.8894 28.6289 29.8894C28.1864 29.8894 27.7439 29.6681 27.3014 29.4469C27.0802 29.4469 26.6377 29.2256 26.1952 29.2256C26.4164 29.8894 26.6377 30.3319 27.0802 30.7744C27.3014 31.2169 27.5227 31.4381 27.7439 31.6593C27.7439 31.8806 27.7439 32.1018 27.7439 32.3231C26.8589 32.1018 26.1952 31.8806 25.3102 31.4381C25.5314 32.1018 25.9739 32.7656 26.1952 33.2081C26.1952 33.2081 26.1952 33.4293 25.9739 33.4293C25.0889 33.2081 24.4252 32.7656 23.5402 32.5443C23.7615 33.4293 24.2039 34.0931 23.9827 34.9781C23.319 34.9781 23.0977 34.3143 22.6552 34.0931C22.6552 34.7568 22.434 35.1993 22.434 35.8631C21.9915 36.0843 21.9915 35.8631 21.549 35.6418C21.1065 35.4206 21.1065 35.1993 20.8852 35.1993C20.0002 36.0843 20.0002 36.9693 19.1152 37.1906C19.3365 36.5268 19.5577 35.8631 19.779 35.4206C20.0002 34.5356 20.4427 34.5356 21.1065 34.9781C21.3277 35.1993 21.549 35.1993 21.7702 35.4206C21.9915 34.7568 21.3277 34.0931 21.549 33.2081C22.2127 33.4293 22.6552 33.8718 23.0977 34.3143C23.0977 33.4293 21.9915 32.7656 22.2127 31.8806C23.0977 32.1019 23.9827 32.5443 24.6464 32.7656C24.8677 32.5443 24.8677 32.5443 24.8677 32.5443Z" fill="black"/>
<path d="M17.8011 37.4118C17.3586 37.1906 17.3586 37.1906 17.1374 35.4206C16.2524 35.6418 16.2524 36.7481 15.5886 36.9693C15.3674 36.0843 15.8099 35.4206 15.8099 34.7568C14.9249 35.1993 14.7036 36.3056 13.5974 36.5268C13.8186 35.6418 14.0399 34.7568 14.2611 33.6506C13.3761 33.8718 12.9336 34.9781 11.8274 34.9781C11.8274 34.3143 12.2699 34.0931 12.4911 33.6506C12.7124 33.2081 12.9336 32.9868 12.9336 32.1019C12.7124 32.3231 12.4911 32.3231 12.0487 32.5443C11.8274 32.7656 11.6062 32.9868 11.1637 32.9868C10.9424 32.9868 10.9424 32.9868 10.7212 32.9868C10.7212 32.9868 10.7212 32.7656 10.7212 32.5443C10.9424 32.1018 11.1637 31.8806 11.1637 31.4381C11.3849 31.2169 11.3849 30.7744 11.6062 30.3319C10.4999 30.5531 10.0574 31.6593 8.95117 31.6593C8.95117 31.4381 8.95117 31.2169 8.95117 30.9956C9.17242 30.3319 9.61492 29.6681 9.83617 29.0044C9.83617 28.7831 10.0574 28.5619 10.0574 28.3406C10.0574 27.6769 10.4999 27.4556 10.9424 27.2344C11.1637 28.1194 10.7212 28.3406 10.2787 29.0044C10.0574 29.4469 9.83617 30.1106 9.39367 30.7744C10.2787 30.3319 10.9424 29.6681 11.8274 29.4469C12.0487 29.6681 12.0487 29.8894 12.0487 30.1106C11.8274 30.5531 11.8274 30.7744 11.6062 31.2169C11.3849 31.4381 11.3849 31.8806 11.1637 32.3231C12.0487 32.1018 12.4911 31.4381 13.1549 31.4381C13.3761 32.3231 12.7124 32.9868 12.4911 33.6506C12.9336 33.6506 13.1549 33.2081 13.3761 32.9868C13.5974 32.7656 13.8186 32.5443 14.2611 32.3231C14.7036 33.2081 14.0399 33.8718 14.0399 34.5356C14.7036 34.3143 14.9249 33.4293 15.8099 33.2081C15.8099 33.6506 15.8099 34.0931 15.8099 34.5356C16.2524 34.3143 16.4736 34.3143 16.9161 34.0931C17.5799 35.6418 17.5799 36.5268 17.8011 37.4118Z" fill="black"/>
<path d="M18.9006 24.3553C19.3431 25.019 19.7856 25.2403 20.2281 25.2403C20.6706 25.2403 21.1131 24.7978 21.7769 24.5765C21.3344 25.4615 20.8919 25.904 20.2281 25.904C20.0069 25.904 19.7856 25.904 19.5644 26.1253C18.9006 26.5678 18.4581 26.3465 18.0157 25.904C17.7944 25.6828 17.3519 25.6828 17.1307 25.6828C16.6882 25.6828 16.2457 25.4615 16.0244 25.019C16.0244 24.7978 16.0244 24.7978 16.0244 24.5765C16.2457 24.7978 16.4669 24.7978 16.4669 25.019C17.1307 25.2403 17.7944 25.019 18.2369 24.5765C18.4581 24.134 18.4581 23.9128 18.2369 23.4703C18.0157 23.249 17.7944 22.8066 17.3519 22.3641C18.0157 21.7003 18.6794 21.2578 19.5644 21.2578C20.4494 21.2578 20.6706 21.7003 20.4494 22.5853C20.2281 23.249 19.7856 23.9128 18.9006 24.3553Z" fill="black"/>
<path d="M44.7812 30.764C44.3387 30.5428 43.8962 30.5428 43.6749 30.3215C43.6749 31.2065 44.7812 31.4278 45.0024 32.0915C44.3387 32.3128 43.6749 31.8703 43.0112 32.0915C43.0112 32.7553 43.8962 32.9765 44.1174 33.8615C43.2324 33.6403 42.5687 33.6403 41.905 33.419C42.1262 34.5253 42.7899 35.189 43.2324 36.074C43.0112 35.8527 42.7899 35.8527 42.7899 35.8527C42.1262 34.9678 41.6837 34.0828 41.2412 33.1978C41.6837 32.7553 42.3475 33.1978 42.7899 32.9765C42.5687 32.534 42.3475 32.0915 42.1262 31.649C42.5687 31.649 43.2324 31.649 43.6749 31.649C43.6749 31.2065 43.2324 30.9853 43.0112 30.764C42.7899 30.5428 42.5687 30.3215 42.5687 29.879C43.0112 29.6578 43.4537 30.1003 43.8962 30.1003C43.8962 29.2153 42.7899 28.3303 43.0112 27.4453C43.8962 27.6666 45.0024 29.879 44.7812 30.764Z" fill="black"/>
<path d="M9.83142 17.9283C8.50393 18.8133 7.84019 19.477 7.39769 20.362C7.84019 20.1408 8.28268 20.1408 8.94643 19.9195C8.72518 21.0258 7.84019 21.4682 7.39769 22.5745C8.06143 22.3532 8.50393 22.132 8.94643 22.132C8.94643 22.7957 8.50393 23.017 8.28268 23.4595C8.06143 23.902 7.84019 24.1232 7.39769 24.787C7.84019 24.5657 8.06143 24.5657 8.28268 24.5657C8.72518 24.5657 8.94643 24.787 8.94643 25.2295C8.94643 25.2295 8.94643 25.672 8.94643 26.1145C8.50393 25.8932 8.50393 25.8932 8.72518 24.787C8.06143 25.0082 7.61894 25.2295 6.95519 25.2295C7.17644 24.1232 7.84019 23.6807 8.06143 22.7957C7.61894 23.017 7.17644 23.2382 6.5127 23.2382C6.5127 22.5745 6.95519 22.132 7.17644 21.6895C7.39769 21.247 7.61894 20.8045 8.06143 20.362C7.39769 20.362 6.95519 20.8045 6.5127 20.5833C6.5127 20.362 6.5127 20.362 6.5127 20.362C7.17644 19.477 8.06143 18.592 8.72518 17.9283C8.94643 17.9283 9.38893 17.9283 9.61017 17.707C9.61017 17.707 9.83142 17.707 9.83142 17.9283Z" fill="black"/>
<path d="M19.7846 15.5156C19.7846 15.7369 19.7846 15.9581 19.7846 16.4006C19.7846 17.0644 19.7846 17.7281 19.7846 18.3918C19.7846 19.0556 20.0058 19.4981 20.6696 19.9406C21.3333 20.3831 21.9971 21.0468 22.6608 21.7106C22.8821 21.9318 22.8821 22.3743 22.4396 22.5956C21.9971 22.1531 21.5546 21.4893 20.8908 21.0468C19.1208 19.2768 16.6871 19.7193 15.5809 21.9318C15.5809 21.9318 15.5809 22.1531 15.1384 22.1531C15.1384 21.9318 14.9171 21.7106 15.1384 21.4893C15.5809 20.3831 16.4659 19.4981 17.5721 19.2768C18.6783 19.0556 19.1208 18.6131 19.1208 17.5069C19.1208 17.0644 19.1208 16.4006 19.1208 15.9581C19.1208 15.5156 19.1208 15.5156 19.7846 15.5156Z" fill="black"/>
<path d="M22.8838 53.3306C22.22 53.3306 21.7775 52.8881 21.1138 52.6668C20.8925 52.8881 20.6713 52.8881 20.6713 53.1093C18.4588 51.7818 16.9101 49.7906 15.3613 48.0206C15.3613 48.0206 15.3613 47.7994 15.3613 47.5781C15.5826 47.7994 15.8038 48.0206 16.0251 48.0206C16.9101 48.9056 17.7951 50.0119 18.6801 50.8969C18.9013 51.3393 19.3438 51.7818 20.0075 51.3393C20.0075 51.3393 20.2288 51.3393 20.2288 51.5606C21.1138 52.0031 21.7775 52.4456 22.6625 52.8881C22.6625 52.8881 22.6625 53.1093 22.8838 53.3306Z" fill="black"/>
<path d="M32.4023 23.7023C31.7385 24.1448 31.296 23.4811 30.8535 23.4811C30.8535 23.4811 30.8535 23.2598 30.6323 23.2598C30.8535 23.2598 30.8535 23.0386 31.0748 23.0386C30.6323 22.3748 29.5261 22.1536 29.0836 21.0473C29.3048 21.0473 29.7473 20.8261 29.9685 20.8261C29.7473 20.3836 28.8623 20.1623 28.8623 19.2773C29.9685 19.9411 31.0748 20.8261 31.9598 21.7111C31.9598 21.7111 31.9598 21.9323 31.9598 22.1536C31.5173 22.1536 31.296 21.9323 30.8535 21.9323C31.0748 22.3748 31.5173 22.5961 31.7385 22.8173C31.9598 23.0386 32.181 23.4811 32.4023 23.7023Z" fill="black"/>
<path d="M33.7184 38.3072C33.4971 38.5284 33.0546 38.7497 32.8334 38.7497C32.8334 38.9709 32.8334 39.4134 32.8334 39.6347C32.8334 40.0772 32.8334 40.2984 32.1696 40.2984C31.5059 40.2984 31.2846 40.5197 31.7271 41.1834C31.7271 41.4047 31.9484 41.6259 31.9484 41.8472C32.1696 42.2897 31.9484 42.5109 31.7271 42.5109C31.0634 42.5109 30.1784 42.5109 29.5146 42.5109C29.7359 42.0684 29.7359 42.0684 31.2846 41.8472C31.0634 41.4047 30.8421 40.7409 30.6209 40.2984C30.8421 39.6347 31.5059 39.8559 31.9484 39.6347C31.9484 39.4134 31.9484 39.1922 31.9484 38.7497C31.9484 38.0859 32.1696 38.0859 32.8334 38.0859C33.2759 38.0859 33.4971 38.0859 33.7184 38.3072Z" fill="black"/>
<path d="M21.3344 44.4951C21.3344 44.7164 21.3344 44.7164 21.1131 44.9376C20.4494 45.1589 20.0069 44.4951 19.5644 44.2739C18.9006 44.7164 19.1219 45.6014 18.2369 45.8226C17.7944 45.3801 18.2369 44.7164 17.7944 44.0527C17.1307 44.2739 16.9094 45.1589 16.0244 45.1589C16.0244 44.4952 16.2457 43.3889 16.9094 42.5039C17.3519 42.7252 17.1307 42.9464 16.9094 43.1677C16.6882 43.3889 16.6882 43.6102 16.6882 44.0527C17.1307 43.6102 17.5732 43.3889 18.0157 42.9464C18.4581 43.3889 18.2369 44.0526 18.4581 44.7164C18.9006 44.0526 19.1219 43.6102 19.3431 43.1677C20.0069 43.8314 20.6706 44.0526 21.3344 44.4951Z" fill="black"/>
<path d="M13.8022 10.1897C14.0234 9.96844 14.2447 9.74719 14.6872 9.74719C15.1297 10.4109 15.1297 10.6322 14.4659 10.8534H14.2447C13.8022 11.5172 13.1384 11.2959 12.6959 11.2959C12.2534 11.7384 12.0322 12.1809 11.5897 12.4022C11.3684 11.9597 11.5897 11.7384 11.8109 11.7384C12.0322 11.2959 12.4747 10.8534 11.8109 10.1897C12.2534 10.1897 12.2534 10.1897 12.6959 9.96844C12.6959 9.74719 12.9172 9.52594 13.1384 9.30469C13.3597 9.74718 13.5809 9.96844 13.8022 10.1897Z" fill="black"/>
<path d="M28.8565 10.8534C29.7415 11.5172 29.7415 11.7384 29.0777 12.6234C28.8565 12.1809 28.8565 12.1809 28.8565 11.7384C28.414 11.7384 27.7502 11.7384 27.3077 11.7384C27.0865 11.2959 26.8652 10.8534 26.8652 10.6322C26.8652 10.1897 27.0865 9.74718 27.3077 9.30469C27.9715 9.74718 27.529 10.1897 27.9715 10.6322C28.1927 10.4109 28.6352 10.1897 29.0777 9.96844C28.8565 10.4109 28.8565 10.6322 28.8565 10.8534Z" fill="black"/>
<path d="M33.9471 46.9084C33.5046 47.5721 33.7259 48.2359 33.5046 48.8996C33.0621 48.2359 33.2834 46.9084 33.9471 46.0234C34.1684 46.2446 34.6109 46.4659 34.8321 46.6871C35.0534 46.4659 35.0534 46.2446 35.2746 45.8022C35.4959 45.3597 35.7171 44.9172 36.1596 44.6959C36.8234 44.0322 37.0446 44.0322 37.9296 44.2534C37.9296 44.4747 37.4871 44.4747 37.2658 44.4747C36.6021 44.4747 36.1596 44.9172 35.9384 45.3597C35.7171 45.8022 35.4959 46.2447 35.2746 46.6871C34.8321 47.3509 34.8321 47.3509 34.1684 46.9084H33.9471Z" fill="black"/>
<path d="M23.7678 17.9414C24.4316 17.9414 24.874 18.1627 24.874 18.8264C24.874 19.4901 24.4316 20.1539 23.7678 20.1539C23.1041 20.1539 22.6616 19.7114 22.6616 19.0476C22.4403 18.3839 23.1041 17.9414 23.7678 17.9414Z" fill="black"/>
<path d="M21.5545 26.1328C20.4483 27.9028 18.0146 28.1241 16.4658 26.5753C16.6871 26.5753 16.9083 26.3541 16.9083 26.3541C17.1296 26.3541 17.3508 26.5753 17.3508 26.5753C18.4571 27.2391 19.5633 27.0178 20.4483 26.3541C20.8908 26.1328 21.112 26.1328 21.5545 26.1328Z" fill="black"/>
<path d="M13.5811 18.157C13.5811 17.7145 14.0236 17.0508 14.6873 17.0508C15.1298 17.0508 15.5723 17.4933 15.5723 17.9358C15.5723 18.3783 15.1298 19.2633 14.466 19.2633C14.2448 19.042 13.5811 18.5995 13.5811 18.157Z" fill="black"/>
<path d="M53.6386 20.1445C53.6386 21.2508 53.1961 21.472 51.6474 21.9145C51.6474 22.1358 51.6474 22.357 51.4261 22.7995C50.7624 22.7995 50.9836 22.357 50.9836 21.9145C50.9836 21.472 51.2049 21.2508 51.6474 21.2508C52.5324 21.472 53.1961 21.0295 53.6386 20.1445Z" fill="black"/>
<path d="M31.5076 52.4578C31.5076 52.2366 31.7289 52.0153 31.7289 51.5728C32.1714 51.7941 32.6139 52.2366 33.2776 52.4578C33.0563 52.9003 32.6139 52.4578 32.1714 52.4578C31.9501 52.6791 31.7289 52.9003 31.5076 53.1216C31.0651 52.6791 30.4014 52.2366 30.4014 51.3516C30.6226 51.5728 30.8439 51.7941 31.0651 51.7941C31.2864 52.2366 31.2864 52.2366 31.5076 52.4578Z" fill="black"/>
<path d="M14.0346 15.5156C13.8134 16.1794 13.1496 16.6219 12.4859 17.0644H12.2646C12.2646 16.4006 12.7071 16.1794 14.0346 15.5156Z" fill="black"/>
<path d="M3.41113 31.8933C3.63238 31.672 3.63238 31.4508 3.63238 31.4508C4.51738 30.787 5.40237 29.902 6.50861 29.2383C6.50861 29.2383 6.72986 29.2383 6.95111 29.2383C5.62362 30.1233 4.73862 31.2295 3.41113 31.8933Z" fill="black"/>
<path d="M24.209 16.8258C24.6515 16.3833 25.094 16.6045 25.3152 16.8258C25.7577 17.047 25.979 17.2683 25.979 17.932C25.3152 17.4895 24.8727 17.2683 24.209 16.8258Z" fill="black"/>
<path d="M46.5559 52.6758C45.6709 53.5608 44.7859 54.4458 43.6797 55.1095C43.9009 54.4458 45.2284 53.1183 46.5559 52.6758Z" fill="black"/>
<path d="M14.6914 42.503C15.1339 41.618 16.2401 40.733 17.1251 40.5117C16.2401 40.9542 15.5764 41.618 14.6914 42.503Z" fill="black"/>
<path d="M14.0273 41.4028C14.9123 40.739 15.5761 40.0753 16.4611 39.6328C15.7973 40.2966 14.9123 40.9603 14.0273 41.4028C14.0273 41.624 14.0273 41.624 14.0273 41.4028Z" fill="black"/>
<path d="M47.884 46.7011C47.4415 46.2586 47.2203 45.8161 46.999 45.1523C47.6628 45.3736 47.884 45.8161 47.884 46.7011Z" fill="black"/>
<path d="M30.4014 30.765C30.6226 29.88 31.2864 29.6587 31.9501 29.4375C31.5076 29.88 31.0651 30.3225 30.4014 30.765Z" fill="black"/>
<path d="M23.3213 28.5586C22.6576 29.0011 21.9938 29.4436 21.3301 29.8861C21.5513 29.2223 22.2151 28.7798 23.3213 28.5586Z" fill="black"/>
<path d="M5.83553 28.5586C5.61428 28.7798 5.61428 28.7798 5.61428 29.0011C4.95054 29.4436 4.50804 29.8861 3.62305 30.5498C3.8443 29.8861 4.95054 29.0011 5.83553 28.5586Z" fill="black"/>
<path d="M28.6352 13.9688C27.9715 14.4112 27.3077 15.075 26.8652 15.5175C27.0865 14.6325 27.7502 14.19 28.6352 13.9688Z" fill="black"/>
<path d="M26.1953 14.3904C27.0803 13.2841 27.5228 13.0629 27.9653 13.2841C27.5228 13.5054 26.8591 13.9479 26.1953 14.3904Z" fill="black"/>
<path d="M46.55 46.9251C46.1075 46.4826 46.1075 46.4827 45.665 45.5977C45.8863 45.5977 46.1075 45.5977 46.1075 45.5977C46.55 46.0402 46.7713 46.4826 46.55 46.9251Z" fill="black"/>
<path d="M53.6318 51.787C54.0743 51.3445 54.5168 50.902 55.1806 50.2383C54.9593 50.902 54.5168 51.1233 53.6318 51.787Z" fill="black"/>
<path d="M22.8812 27C22.8812 27.2212 22.8812 27.2212 22.8812 27.2212C22.4387 27.6637 21.9962 27.885 21.5537 28.3275V28.1062C21.9962 27.6637 22.2175 27.2212 22.8812 27Z" fill="black"/>
<path d="M31.073 28.5586C30.6305 29.0011 30.4093 29.2223 29.9668 29.6648C30.188 29.0011 30.188 28.7798 31.073 28.5586Z" fill="black"/>
<path d="M31.0771 28.5427C31.2984 28.1002 31.7409 27.8789 32.1834 27.8789V28.1002C31.9621 28.1002 31.5196 28.3214 31.0771 28.5427Z" fill="black"/>
<path d="M66.4705 26.5664C66.2493 27.0089 65.8068 27.2302 65.5855 27.6726L65.3643 27.4514C65.5855 27.2302 66.028 26.7877 66.4705 26.5664Z" fill="black"/>
<path d="M5.84375 28.5558C5.84375 28.3345 6.065 28.1133 6.5075 28.1133C6.5075 28.5558 6.28625 28.5558 5.84375 28.5558Z" fill="black"/>
<path d="M66.4688 26.5739C66.69 26.3527 66.9112 26.1314 66.9112 25.9102C67.1325 26.5739 66.69 26.5739 66.4688 26.5739Z" fill="black"/>
<path d="M27.0879 57.7603C27.3091 57.7603 27.3091 57.5391 27.5304 57.5391V57.7603C27.5304 57.7603 27.3091 57.7603 27.0879 57.7603Z" fill="black"/>
<path d="M14.2486 17.9503C14.3708 17.9503 14.4698 17.8512 14.4698 17.7291C14.4698 17.6069 14.3708 17.5078 14.2486 17.5078C14.1264 17.5078 14.0273 17.6069 14.0273 17.7291C14.0273 17.8512 14.1264 17.9503 14.2486 17.9503Z" fill="white"/>
<path d="M23.0972 19.0401C23.2194 19.0401 23.3185 18.9411 23.3185 18.8189C23.3185 18.6967 23.2194 18.5977 23.0972 18.5977C22.975 18.5977 22.876 18.6967 22.876 18.8189C22.876 18.9411 22.975 19.0401 23.0972 19.0401Z" fill="white"/>
<path d="M18.6724 22.5792C18.8937 22.358 19.1149 22.358 19.3362 22.358H19.5574H19.7787V22.1367C19.5574 22.1367 19.5574 22.1367 19.3362 22.1367C19.1149 22.1367 18.6724 22.358 18.4512 22.5792V22.8005C18.4512 22.5792 18.6724 22.5792 18.6724 22.5792Z" fill="white"/>
</svg>
