<svg width="105" height="105" viewBox="0 0 105 105" fill="none" xmlns="http://www.w3.org/2000/svg">
<path d="M85.9835 67.783C85.9835 66.9663 85.8668 66.033 85.9835 65.2164V65.0997C85.8668 62.7663 85.6335 60.6663 85.6335 58.4497H85.1668C85.1668 54.5997 85.4001 50.8663 84.5835 46.783C84.4668 45.8497 83.8835 43.8663 83.4168 42.933C82.8335 41.4163 80.1501 40.5997 79.1001 39.433C78.9835 39.3163 78.8668 39.1997 78.7501 39.083C78.4001 38.733 78.0501 38.2663 77.5835 37.9163C77.1168 37.4497 76.6501 36.983 76.0668 36.5163C75.9501 36.3997 75.8335 36.283 75.7168 36.1663C75.0168 35.583 74.3168 34.9997 73.5001 34.4163C73.2668 34.2997 73.1501 34.183 72.9168 34.0663C72.8001 33.9497 72.6835 33.9497 72.5668 33.833C72.4501 33.7163 72.3335 33.7163 72.1001 33.5997C71.9835 33.483 71.8668 33.483 71.6335 33.3663C71.4001 33.2497 71.2835 33.2497 71.0501 33.133C70.7001 33.0163 70.4668 32.8997 70.1168 32.783C70.0001 32.783 69.8835 32.6663 69.7668 32.6663C69.6501 32.6663 69.5335 32.5497 69.4168 32.5497C69.1835 32.5497 69.0668 32.433 68.8335 32.433C68.6001 32.433 68.4835 32.3163 68.2501 32.3163C68.1335 32.3163 68.0168 32.1997 67.7835 32.1997C67.4335 32.083 67.0835 32.083 66.7335 31.9663C66.6168 31.9663 66.5001 31.9663 66.3835 31.9663C66.2668 31.9663 66.1501 31.9663 66.0335 31.9663C65.8001 31.9663 65.6835 31.9663 65.4501 31.9663H65.3335C64.9835 31.9663 64.6335 31.9663 64.4001 31.8497C64.0501 31.8497 63.7001 31.8497 63.4668 31.8497C63.3501 31.8497 63.3501 31.8497 63.2335 31.8497C62.8835 31.8497 62.4168 31.8497 62.0668 31.8497C59.5001 31.733 56.8168 31.733 54.2501 31.6163C53.9001 31.6163 53.5501 31.6163 53.3168 31.6163C53.0835 31.6163 52.7335 31.6163 52.5001 31.6163H52.3835H52.2668C51.9168 31.6163 51.6835 31.6163 51.3335 31.6163C50.8668 31.6163 50.2835 31.6163 49.8168 31.6163C44.3335 31.4997 38.9668 31.2663 33.4835 31.1497C31.7335 31.1497 29.9835 31.033 28.3501 31.4997C27.6501 31.733 27.0668 31.9663 26.4835 32.1997C26.3668 32.433 26.1335 32.5497 26.0168 32.783C24.1501 35.1163 22.0501 37.4497 19.9501 39.783C19.6001 40.483 19.2501 41.2997 18.9001 41.9997C18.9001 42.1163 18.9001 42.233 18.9001 42.3497C18.9001 42.8163 19.0168 43.283 19.0168 43.8663C19.0168 44.2163 19.0168 44.5663 19.0168 44.9163C19.0168 45.033 19.0168 45.2663 19.0168 45.383C19.0168 45.8497 18.9001 46.3163 18.7835 46.783C18.7835 47.0163 18.7835 47.133 18.6668 47.3663C18.6668 47.483 18.6668 47.5997 18.6668 47.7163C18.6668 48.0663 18.5501 48.2997 18.5501 48.6497C18.5501 48.7663 18.5501 48.883 18.5501 48.9997C18.5501 49.1163 18.5501 49.233 18.5501 49.3497C18.5501 49.4663 18.5501 49.583 18.5501 49.6997C18.6668 50.5163 18.6668 51.2163 18.5501 52.033C18.4335 52.383 18.4335 52.6163 18.2001 52.8497C18.0835 54.5997 17.9668 56.233 17.9668 57.8663C17.9668 60.1997 18.0835 62.4163 18.0835 64.7497C18.2001 68.7163 18.2001 72.7997 18.3168 76.7663C18.3168 76.9997 18.4335 77.3497 18.4335 77.583C18.6668 78.7497 18.9001 79.9163 19.6001 80.733C20.7668 82.2497 22.8668 82.483 24.8501 82.5997C25.3168 82.5997 25.9001 82.7164 26.3668 82.7164C28.1168 82.833 29.7501 82.9497 31.5001 82.9497C40.3668 83.2997 48.3001 83.883 57.0501 83.4163L58.5668 83.9997C61.2501 83.9997 63.2335 84.233 65.9168 83.7663C66.6168 83.6497 67.3168 83.2997 67.9001 83.4163L68.0168 83.533C68.9501 83.4163 69.6501 83.0663 70.5835 83.0663C72.4501 82.7163 73.5001 82.2497 75.2501 82.483C75.2501 82.3663 76.1835 82.5997 76.4168 82.5997C77.0001 82.5997 77.5835 82.3663 78.1668 82.133C78.2835 82.133 78.5168 82.0163 78.6335 82.0163C78.7501 81.8997 78.8668 81.8997 78.8668 81.8997C79.1001 81.783 79.3335 81.6663 79.4501 81.6663C82.1335 80.9663 83.5335 79.2163 84.2335 76.6497C84.8168 74.3163 85.5168 72.0997 85.1668 69.6497C85.1668 69.533 85.1668 69.533 85.1668 69.4163C85.1668 69.2997 85.1668 69.183 85.1668 69.0663C85.5168 68.483 85.7501 68.133 85.9835 67.783Z" fill="white"/>
<path d="M38.1501 71.5183C39.0834 73.035 41.3001 74.5516 42.9334 75.2516C44.1001 75.7183 45.6168 75.835 46.3168 77.0016C46.9001 77.935 46.4334 79.1016 45.6168 79.8016C44.8001 80.5016 43.7501 80.6183 42.7001 80.6183C40.2501 80.6183 37.9168 79.4516 35.9334 78.0516C35.3501 77.585 34.6501 77.1183 34.3001 76.535C33.8334 75.9516 33.6001 75.3683 33.3668 74.6683C32.6668 72.8016 30.4501 62.185 33.6001 61.485C35.0001 61.2516 35.1168 64.4016 35.4668 65.335C36.1668 67.5516 36.8668 69.4183 38.1501 71.5183Z" fill="#BBBBBA"/>
<path d="M78.8666 39.3178C77.1166 40.4845 74.4332 40.7178 72.2166 40.7178C60.3166 40.7178 48.4166 40.8345 36.5166 40.8345C34.1832 40.8345 23.6832 42.5845 24.2666 38.3845C24.6166 35.2345 34.8832 33.6011 37.4499 33.0178C42.3499 31.9678 47.4832 31.6178 52.4999 31.6178C55.7666 31.7345 59.4999 31.0345 62.7666 31.1511C65.7999 31.2678 69.2999 30.6845 72.2166 31.9678C75.0166 33.1345 76.6499 36.9845 78.8666 39.3178Z" fill="#BBBBBA"/>
<path d="M18.9003 44.8008C18.7836 45.5008 18.7836 46.0841 18.6669 46.7841C18.5503 47.7174 18.4336 48.6508 18.5503 49.5841C20.0669 48.8841 19.7169 45.9674 18.9003 44.8008Z" fill="#BBBBBA"/>
<path d="M55.1837 53.4328C55.1837 55.5328 54.6004 57.0494 54.8337 59.1494C56.4671 59.3828 58.2171 59.4994 59.7337 59.9661C60.0837 60.0828 60.5504 59.8494 60.6671 60.0828C60.7837 60.3161 61.4837 60.6661 61.4837 60.8994C61.4837 62.2994 61.2504 63.1161 61.2504 64.5161C59.8504 64.5161 57.7504 64.8661 56.3504 65.2161C56.1171 65.2161 55.7671 65.3328 55.5337 65.5661C55.3004 65.7994 55.3004 66.0328 55.1837 66.2661C55.0671 67.0828 54.0171 69.4161 53.7837 70.2328C51.4504 70.3494 50.4004 69.8828 48.0671 69.9994C47.9504 68.7161 48.3004 67.4328 47.9504 66.1494C47.8337 65.7994 47.8337 64.8661 47.6004 64.6328C47.0171 64.1661 44.6837 64.3994 43.8671 64.2828C43.0504 64.1661 42.7004 62.9994 42.5837 62.1828C41.6504 57.8661 45.8504 60.1994 47.7171 57.7494C48.6504 56.5828 47.8337 54.5994 48.8837 53.5494C49.5837 52.9661 55.1837 52.4994 55.1837 53.4328Z" fill="#F15748"/>
<path d="M85.8668 68.8347C85.8668 68.4847 85.8668 68.2514 85.9835 67.7847C85.9835 66.968 85.8668 66.0347 85.9835 65.218V65.1014C85.8668 62.768 85.6335 60.668 85.6335 58.4514C85.6335 58.3347 85.6335 58.218 85.6335 58.1014C85.5168 54.2514 85.4001 50.518 85.2835 46.668C85.1668 43.4014 83.8835 40.9514 80.7335 39.5514C80.2668 39.318 79.8001 38.968 79.5668 38.618C77.8168 36.4014 76.0668 34.3014 73.8501 32.318C71.2835 30.1014 68.6001 29.2847 65.4501 29.9847C64.4001 30.218 63.2335 30.568 61.9501 29.868C61.9501 27.5347 61.1335 25.5514 59.2668 23.918C57.7501 22.7514 56.3501 21.7014 54.3668 21.7014C52.7335 21.7014 50.9835 21.468 49.3501 21.7014C44.4501 22.2847 40.8335 23.918 38.6168 28.5847C38.5001 28.9347 38.3835 29.7514 38.2668 30.1014C36.1668 30.1014 33.6001 30.218 31.7335 29.9847C29.5168 29.7514 27.8835 30.4514 26.4835 31.968C26.3668 32.2014 26.1335 32.318 26.0168 32.5514C24.1501 34.8847 22.0501 37.218 19.9501 39.5514C19.6001 39.9014 19.3668 40.2514 19.0168 40.6014C19.0168 40.9514 18.9001 41.418 18.9001 41.768C18.9001 41.8847 18.9001 42.0014 18.9001 42.118C18.9001 42.5847 19.0168 43.0514 19.0168 43.6347C19.0168 43.9847 19.0168 44.3347 19.0168 44.6847C19.0168 44.8014 19.0168 45.0347 19.0168 45.1514C19.0168 45.618 18.9001 46.0847 18.7835 46.5514C18.7835 46.7847 18.7835 46.9014 18.6668 47.1347C18.6668 47.2514 18.6668 47.368 18.6668 47.4847C18.6668 47.8347 18.5501 48.068 18.5501 48.418C18.5501 48.5347 18.5501 48.6514 18.5501 48.768C18.5501 48.8847 18.5501 49.0014 18.5501 49.118C18.5501 49.2347 18.5501 49.3514 18.5501 49.468C18.6668 50.2847 18.6668 50.9847 18.5501 51.8014C18.4335 52.1514 18.4335 52.3847 18.2001 52.618C18.0835 54.368 17.9668 56.0014 17.9668 57.6347C17.9668 59.968 18.0835 62.1847 18.0835 64.518C18.2001 68.4847 18.2001 72.568 18.3168 76.5347C18.3168 76.768 18.3168 76.8847 18.3168 77.118C18.3168 77.9347 18.5501 78.7514 18.7835 79.568C19.2501 81.4347 20.4168 82.9514 22.2835 83.418C23.6835 83.768 25.0835 84.2347 26.4835 84.3514C29.2835 84.468 32.2001 84.468 35.0001 84.468C40.7168 84.3514 46.3168 84.2347 52.0335 84.2347C54.0168 84.2347 56.0001 84.2347 57.9835 84.2347C60.6668 84.2347 63.2335 84.118 65.9168 83.5347C66.6168 83.418 68.0168 83.3014 68.0168 83.3014C68.9501 83.1847 76.3001 82.368 76.4168 82.368C77.0001 82.368 77.5835 82.1347 78.1668 81.9014C78.2835 81.9014 78.5168 81.7847 78.6335 81.7847C78.7501 81.668 78.8668 81.668 78.8668 81.668C79.1001 81.5514 79.3335 81.4347 79.4501 81.4347C82.1335 80.7347 83.5335 78.9847 84.2335 76.418C84.8168 74.0847 85.4001 72.3347 85.5168 69.8847C85.5168 69.8847 85.5168 69.3014 85.5168 69.068C85.8668 69.1847 85.8668 68.9514 85.8668 68.8347ZM51.1001 23.3347C56.9335 23.3347 59.5001 25.9014 59.8501 30.1014C57.9835 30.1014 50.9835 30.1014 49.2335 30.218C47.4835 30.218 43.0501 30.8014 41.0668 29.9847C41.0668 26.1347 46.2001 23.3347 51.1001 23.3347ZM81.3168 79.4514C81.2001 79.568 81.0835 79.568 80.9668 79.6847C80.5001 80.0347 79.8001 80.1514 79.1001 80.268C78.9835 80.268 78.9835 80.3847 78.8668 80.3847C78.7501 80.3847 78.6335 80.5014 78.5168 80.5014C78.4001 80.5014 78.2835 80.618 78.1668 80.618C78.0501 80.618 77.9335 80.7347 77.8168 80.7347C77.7001 80.7347 77.7001 80.7347 77.5835 80.7347C77.5835 80.7347 77.5835 80.7347 77.4668 80.7347C77.3501 80.7347 77.3501 80.7347 77.2335 80.7347C76.8835 80.7347 76.5335 80.8514 76.1835 80.8514C76.1835 80.8514 69.0668 81.7847 68.9501 81.7847C68.8335 81.9014 68.2501 82.018 68.2501 82.018C68.1335 82.018 68.0168 82.018 67.9001 82.018C67.6668 82.018 66.1501 82.1347 65.6835 82.018C63.1168 82.018 61.0168 82.718 58.4501 82.718C54.7168 82.718 51.1001 82.8347 47.3668 82.8347C43.7501 82.8347 39.4335 82.9514 35.9335 83.1847C34.4168 83.3014 32.7835 83.418 31.2668 83.418C29.5168 83.418 27.5335 83.1847 25.7835 82.9514C25.0835 82.8347 24.5001 82.718 23.8001 82.6014C23.1001 82.368 22.4001 82.1347 21.7001 81.7847C20.7668 81.318 20.3001 80.1514 20.0668 79.1014C19.8335 78.2847 19.4835 76.068 19.4835 75.2514C19.3668 70.5847 18.9001 68.018 19.3668 63.3514C19.4835 62.5347 19.2501 59.268 19.2501 58.218C19.2501 58.218 20.1835 56.9347 21.7001 56.0014C23.1001 55.068 24.5001 53.9014 25.7835 52.618C24.6168 52.7347 23.9168 53.5514 23.1001 54.1347C22.1668 54.718 20.4168 55.8847 19.3668 56.7014C19.2501 55.768 19.4835 54.4847 19.4835 53.7847C19.6001 51.918 19.6001 51.6847 19.6001 49.818C19.6001 48.068 19.7168 45.5014 19.8335 43.168C28.2335 42.468 36.2835 42.3514 44.2168 40.8347C43.8668 40.718 43.5168 40.6014 43.1668 40.6014C42.2335 40.4847 41.3001 40.4847 40.3668 40.6014C39.7835 40.718 39.0835 40.718 38.5001 40.718C36.5168 40.718 34.5335 40.8347 32.5501 40.9514C30.5668 41.068 28.5835 41.1847 26.6001 41.3014C24.6168 41.418 22.7501 42.0014 20.4168 41.418C21.0001 40.368 21.4668 39.5514 22.0501 38.968C23.8001 36.868 25.5501 34.8847 27.3001 32.9014C28.0001 32.0847 28.9335 31.5014 30.1001 31.5014C31.9668 31.5014 33.7168 31.3847 35.5835 31.3847C35.9335 31.3847 37.8001 31.268 38.2668 31.3847C38.2668 31.8514 38.1501 32.7847 38.1501 33.2514C38.1501 33.4847 38.3835 34.768 39.2001 34.768C40.0168 34.768 40.4835 34.3014 40.7168 33.718C40.8335 33.4847 40.8335 33.018 40.8335 32.318C40.8335 32.318 40.9501 31.7347 40.9501 31.618C43.1668 31.5014 47.6001 31.5014 49.9335 31.3847C50.4001 31.3847 50.9835 31.3847 51.4501 31.3847C51.6835 31.3847 51.9168 31.3847 52.0335 31.3847C52.1501 31.3847 52.2668 31.3847 52.2668 31.3847H52.3835H52.5001H52.6168C53.2001 31.3847 55.0668 31.268 55.5335 31.3847L59.5001 31.5014C60.5501 31.7347 59.7335 33.368 60.4335 34.068C60.9001 34.6514 61.7168 34.1847 62.1835 32.7847C62.3001 32.5514 62.1835 32.0847 62.3001 31.7347C62.8835 31.618 62.8835 31.8514 63.4668 31.7347C66.5001 31.268 69.6501 30.568 72.5668 33.2514C72.4501 33.368 72.2168 33.4847 72.1001 33.6014C70.1168 35.2347 68.3668 36.868 66.5001 38.3847C69.0668 37.6847 70.5835 35.468 72.9168 34.068C73.0335 33.9514 73.1501 33.9514 73.2668 33.8347C74.0835 34.5347 75.0168 35.2347 75.8335 35.9347C76.4168 36.518 77.0001 37.218 77.5835 37.918C77.8168 38.1514 78.0501 38.3847 78.2835 38.618C76.0668 39.2014 73.8501 38.618 71.4001 38.8514C71.9835 38.0347 72.3335 37.4514 72.8001 36.6347C71.6335 36.7514 71.1668 37.4514 70.5835 37.918C69.5335 38.7347 68.4835 39.0847 67.2001 39.0847C64.6335 39.0847 61.9501 39.0847 59.3835 39.0847C56.7001 39.2014 53.9001 39.318 51.2168 39.4347C51.1001 39.4347 50.9835 39.668 50.7501 40.018C51.2168 40.1347 51.6835 40.368 52.1501 40.4847C52.2668 40.4847 52.2668 40.4847 52.3835 40.4847C57.8668 40.6014 63.4668 40.8347 68.9501 40.4847C71.9835 40.368 74.9001 40.368 77.8168 40.4847C78.8668 40.4847 79.9168 40.8347 80.8501 41.3014C82.3668 42.0014 83.4168 43.168 83.5335 45.0347C83.6501 46.668 83.8835 48.1847 84.0001 49.818C84.1168 51.568 84.1168 53.318 84.2335 55.068C84.2335 55.8847 84.0001 56.3514 83.5335 57.0514C83.1835 57.4014 82.9501 57.7514 82.7168 58.218C82.1335 59.1514 81.6668 60.2014 81.0835 61.1347C81.4335 60.668 81.9001 60.318 82.2501 59.8514C82.6001 59.3847 82.9501 58.918 83.4168 58.218C83.5335 57.9847 83.6501 57.7514 83.8835 57.6347C84.0001 57.868 84.0001 58.1014 84.1168 58.218C84.4668 59.618 84.3501 60.668 83.6501 61.8347C83.0668 62.8847 82.4835 63.9347 82.3668 65.218C82.9501 64.2847 83.5335 63.3514 84.3501 62.068C84.7001 63.118 84.8168 63.9347 84.7001 64.7514C84.7001 65.3347 84.8168 65.918 84.9335 66.5014C84.9335 66.8514 85.0501 67.2014 84.9335 67.5514C84.9335 67.668 84.9335 67.668 84.9335 67.7847C84.9335 67.9014 84.9335 68.018 84.8168 68.1347C84.7001 71.6347 83.8835 74.668 82.7168 77.468C82.4835 78.0514 82.0168 78.6347 81.5501 78.9847C81.4335 79.4514 81.4335 79.4514 81.3168 79.4514Z" fill="black"/>
<path d="M74.8624 27.2348C76.1378 24.2707 78.3992 21.9926 80.8681 19.8727C83.5464 17.65 83.6512 17.5986 85.5307 17.4568C85.4239 17.769 85.3171 18.0812 85.1076 18.184C81.5418 20.4519 78.6499 23.299 76.327 26.7767C76.1154 27.1403 75.6964 27.3457 75.3288 27.6559C75.1726 27.6025 74.9652 27.4443 74.8624 27.2348Z" fill="black"/>
<path d="M94.5905 26.6589C89.9381 27.7704 85.5999 28.7279 81.3666 29.634C81.2618 29.6854 81.1591 29.4759 81.1077 29.3711C83.4718 27.3025 91.3635 25.6423 94.5905 26.6589Z" fill="black"/>
<path d="M71.5324 12.2351C70.943 14.2132 70.4071 16.0352 69.8711 17.8572C69.3351 19.6792 69.5817 21.5073 68.7848 23.3273C68.4212 23.1157 68.1624 22.8528 68.1624 22.8528C68.5484 20.1948 69.0391 17.4855 69.5812 14.8809C69.7969 13.9956 70.4295 13.1657 70.906 12.2824C70.8546 12.1777 71.2716 12.2331 71.5324 12.2351Z" fill="black"/>
<path d="M66.9665 58.4488C66.8499 57.3988 66.7332 56.3489 66.4999 55.2989C66.2665 54.1322 65.7999 52.9655 64.9832 52.0322C63.1165 49.5822 60.6665 47.9488 57.7499 47.0155C54.3665 45.9655 50.8665 45.6155 47.4832 47.1322C46.5499 47.4822 45.6165 47.7155 44.6832 48.0655C42.4665 48.8822 40.3665 50.0488 38.9665 52.0322C37.9165 53.5488 36.9832 55.0655 36.0499 56.6988C35.1165 58.3322 34.5332 60.0822 34.5332 61.9488C34.5332 62.0655 34.5332 62.2988 34.5332 62.4155C34.6499 65.6822 35.3499 68.8322 37.2165 71.6322C39.5499 75.0155 42.8165 76.8822 46.4332 78.1655C46.5499 78.1655 46.6665 78.2822 46.7832 78.2822C49.9332 79.3322 53.0832 78.6322 56.2332 77.6988C56.9332 77.4655 57.5165 77.2322 58.0999 76.8822C59.8499 75.9489 61.3665 74.7822 62.6499 73.1488C66.1499 68.5988 67.3165 63.6988 66.9665 58.4488ZM65.0999 65.5655C64.1665 68.9488 63.1165 71.8655 60.3165 73.9655C59.8499 74.3155 57.7499 75.5988 57.1665 75.9488C52.8499 78.5155 43.8665 76.9988 40.3665 72.9155C41.1832 72.2155 42.6999 70.8155 43.6332 69.9988C41.9999 69.8822 41.2999 71.7488 39.4332 71.1655C40.3665 70.3488 41.1832 69.6488 41.8832 68.9488C41.8832 68.8322 41.7665 68.7155 41.7665 68.5988C40.8332 69.0655 39.1999 69.8822 38.2665 70.3488C35.9332 67.5488 35.2332 61.7155 36.8665 58.7989C37.0999 58.4489 37.5665 57.0488 37.7999 56.6988C39.1999 54.5988 39.1999 54.4822 40.1332 53.4322C43.1665 49.5822 46.8999 48.5322 51.4499 47.5988C57.0499 46.5488 64.5165 50.6322 65.5665 56.1155C65.7999 56.9322 65.7999 58.3322 65.7999 59.1488C65.9165 61.4822 65.6832 63.2322 65.0999 65.5655Z" fill="black"/>
<path d="M21 58.9172C22.4 56.9339 24.6167 55.8839 26.7167 54.3672C25.7833 55.7672 23.1 58.1005 21 58.9172Z" fill="black"/>
<path d="M80.9666 61.6016C80.7333 63.2349 79.4499 64.1682 78.5166 65.4516C79.2166 64.0516 79.6833 62.6516 80.9666 61.6016Z" fill="black"/>
<path d="M78.9833 61.2484C78.3999 62.1818 77.8166 62.9984 77.2333 63.9318C77.1166 63.8151 76.8833 63.6984 76.7666 63.5818C77.3499 62.6484 77.9333 61.8318 78.5166 60.8984C78.7499 61.0151 78.8666 61.1318 78.9833 61.2484Z" fill="black"/>
<path d="M79.7998 59.6154C80.1498 59.1487 80.3831 58.682 80.7331 58.332C80.8498 58.332 80.9665 58.4487 80.9665 58.4487C80.7331 58.9154 80.3831 59.382 80.1498 59.8487C80.0331 59.732 79.9165 59.732 79.7998 59.6154Z" fill="black"/>
<path d="M83.3005 55.2992C83.0671 55.6492 82.7171 55.9992 82.4838 56.3492C82.3671 56.2326 82.2505 56.2326 82.1338 56.1159C82.3671 55.7659 82.6005 55.2992 82.8338 54.9492C82.9505 55.0659 83.0671 55.1826 83.3005 55.2992Z" fill="black"/>
<path d="M61.7172 59.8508C61.6005 59.3841 60.7838 58.8008 60.2005 58.6841C60.0838 58.6841 59.8505 58.5674 59.7338 58.5674C58.9172 58.4508 58.1005 58.4508 57.2838 58.3341C56.3505 58.2174 55.8838 57.7508 55.8838 56.8174C55.8838 56.0008 56.0005 55.1841 55.8838 54.2508C55.7672 52.5008 55.0672 51.8008 53.2005 51.8008C51.9172 51.8008 50.6338 52.0341 49.3505 52.2674C48.3005 52.3841 47.8338 53.2008 47.8338 54.2508C47.8338 55.3008 47.8338 56.3508 47.8338 57.4008C46.9005 57.5174 46.3172 57.6341 45.6172 57.8674C44.8005 58.1008 43.5172 57.8674 42.8172 58.3341C41.4172 59.1508 41.8838 60.4341 42.0005 62.0674C42.1172 63.0008 42.5838 63.7008 43.2838 64.0508C43.7505 64.2841 44.2172 64.5174 44.8005 64.5174C45.5005 64.6341 46.3172 64.6341 47.2505 64.7508C47.3672 65.4508 47.4838 65.9174 47.3672 66.3841C47.3672 66.7341 47.3672 67.0841 47.3672 67.4341C47.3672 68.4841 47.3672 69.3008 47.6005 69.7674C48.0672 70.7008 49.0005 70.8174 51.3338 71.0508C54.1338 71.2841 54.7172 70.0008 55.3005 67.2008C55.5338 65.6841 55.7672 65.5674 57.1672 65.3341C57.9838 65.2174 60.0838 65.1008 60.2005 65.1008C60.9005 65.1008 61.2505 65.2174 61.4838 64.6341C62.4172 63.2341 62.3005 61.4841 61.7172 59.8508ZM60.5505 63.8174C60.4338 64.2841 59.9672 63.9341 59.3838 64.0508C58.8005 64.0508 58.2172 64.0508 56.9338 64.0508C54.8338 64.0508 54.0172 64.7508 53.7838 66.7341C53.7838 67.2008 53.5505 68.8341 53.4338 69.4174C53.2005 69.5341 52.8505 69.6508 52.6172 69.7674C51.9172 70.0008 51.3338 70.0008 50.5172 69.8841C49.9338 69.8841 49.3505 69.7674 48.6505 69.6508C48.6505 68.8341 48.6505 68.1341 48.6505 67.4341C48.6505 66.7341 48.7672 66.0341 48.6505 65.4508C48.4172 63.9341 47.8338 63.5841 46.3172 63.4674C45.8505 63.4674 44.6838 63.4674 44.2172 63.4674C43.2838 63.4674 43.4005 62.8841 43.2838 61.9508C43.0505 61.0174 42.9338 60.0841 43.6338 59.7341C44.3338 59.5008 45.7338 59.7341 46.5505 59.7341C49.1172 59.3841 49.1172 59.3841 49.1172 56.9341C49.1172 56.2341 49.1172 55.4174 49.1172 54.4841V54.0174C49.2338 54.0174 49.3505 54.0174 49.4672 54.0174C50.8672 53.9008 52.0338 53.7841 53.0838 53.7841C53.7838 53.7841 54.1338 54.0174 54.3672 54.4841C54.4838 54.7174 54.4838 54.9508 54.4838 55.1841C54.4838 55.5341 54.4838 55.7674 54.3672 56.1174C54.3672 56.7008 54.2505 57.7508 54.2505 58.4508C54.2505 59.8508 54.3672 59.5008 55.7672 59.8508C56.3505 59.9674 56.9338 59.9674 57.5172 60.0841C58.1005 60.2008 58.8005 60.2008 59.3838 60.3174C59.6172 60.3174 59.7338 60.3174 59.8505 60.4341C59.8505 60.4341 60.3172 60.4341 60.3172 60.5508C60.3172 60.7841 60.3172 61.6008 60.3172 61.7174C60.7838 62.5341 60.7838 63.3508 60.5505 63.8174Z" fill="black"/>
</svg>
