<svg width="103" height="83" viewBox="0 0 103 83" fill="none" xmlns="http://www.w3.org/2000/svg">
<circle cx="55.0025" cy="40.5015" r="34.5015" fill="#F15748" fill-opacity="0.2"/>
<path d="M102.75 59.7945C103.409 57.8308 102.219 55.7081 100.744 54.2741C99.2691 52.8363 97.4484 51.7276 96.2904 50.0212C93.8711 46.4456 95.0362 41.3716 92.9697 37.5766C90.6572 33.3237 84.258 31.6702 82.2984 29.3054C81.0691 27.8184 79.4337 26.9935 77.5453 26.6946C68.4488 25.2644 60.3678 25.726 49.1265 23.6715C40.0656 22.018 35.0311 16.3916 28.0297 8.62365C27.3313 7.85177 24.6199 6.64855 23.7469 6.08857C22.9274 5.56263 21.9369 5.39236 20.9784 5.23345C17.3441 4.63562 12.8903 4.35941 10.7418 7.38259C10.2786 8.03339 9.96864 8.79392 9.44131 9.39174C7.84863 11.2004 4.88775 10.9431 3.01359 12.449C0.569343 14.4089 1.21425 18.677 3.61574 20.7012C6.01367 22.7217 9.4235 22.9677 12.5233 22.5931C14.1623 22.3963 15.8726 22.0596 17.4261 22.6234C22.8562 24.5985 17.7289 32.1697 18.7302 35.8815C19.0437 37.0506 19.7421 38.0722 20.4226 39.0674C23.3621 43.3543 26.3337 47.6715 30.0713 51.2622C32.1628 53.2714 34.5215 55.0876 35.9895 57.6C37.6891 60.5096 37.9955 64.0096 38.2627 67.3771C38.4587 69.8327 38.5941 72.5191 37.1796 74.5245C36.4598 75.5423 35.3304 76.4466 35.3446 77.699C35.3589 78.7963 36.328 79.6855 37.3755 79.9806C39.7165 80.6352 42.1821 78.8568 43.1833 76.6131C44.1845 74.3693 44.0848 71.804 43.9672 69.3484C43.8389 66.6468 43.7106 63.9452 43.5824 61.2474C43.5645 60.8766 43.5503 60.4869 43.7035 60.1502C43.9636 59.5751 44.6156 59.3178 45.2107 59.1324C49.8961 57.6718 54.781 57.4713 59.7087 57.4486C60.0365 57.2594 60.3857 57.0967 60.7455 56.9605C61.9 56.5329 63.1043 56.2832 64.2943 55.9767C66.9808 54.4027 69.8242 53.1579 73.0523 53.8957C75.3967 54.433 77.3529 56.1735 78.5251 58.2545C78.8778 58.8826 79.1272 59.6015 79.3909 60.275C79.4729 60.4869 79.6866 61.0734 79.6296 60.9637C80.0572 61.9626 80.5382 62.9312 80.9444 63.9414C81.2437 64.0928 81.5466 64.2366 81.853 64.3728C85.1559 65.8257 88.7653 66.5711 91.8794 68.3987C93.2191 69.1857 94.4982 70.2338 95.079 71.6867C95.6562 73.1396 95.307 75.058 93.9744 75.8526C93.6252 76.0607 93.2013 76.2082 93.0053 76.5715C92.6383 77.2525 93.3651 78.0168 94.0635 78.3384C95.5493 79.0195 97.3059 79.0801 98.8344 78.4936C99.3297 75.8563 99.8249 73.2153 100.32 70.5743C100.452 69.8743 100.58 69.144 100.384 68.463C100.121 67.5511 99.3368 66.9117 98.6135 66.3063C95.7132 63.8923 93.0587 61.081 91.3663 57.687C89.6774 54.293 89.0289 50.2558 90.1691 46.6348C93.2832 51.9168 97.6301 56.4611 102.75 59.7945Z" fill="white"/>
<path d="M26.4757 13.3865C27.0529 13.3297 27.5268 13.9389 27.5339 14.5254C27.541 15.1119 27.2168 15.6492 26.8569 16.1108C26.1229 17.0605 19.6168 21.2415 20.219 18.7253C20.4328 17.8286 22.4958 16.8902 23.1585 16.3908C24.0386 15.7286 25.4424 13.4887 26.4757 13.3865Z" fill="#BCBCBB"/>
<path d="M19.7041 31.5385C20.5093 31.8488 21.4001 31.5309 22.2018 31.2169C23.26 30.8007 24.3218 30.3845 25.38 29.9683C27.2577 29.2304 29.1747 28.4699 30.6961 27.1343C32.2175 25.7986 33.29 23.7554 32.9444 21.75C31.8042 21.5533 30.6498 22.0565 29.7198 22.7489C28.7899 23.4414 28.0095 24.323 27.101 25.0457C25.5582 26.2716 23.8657 26.7597 21.9773 27.1078C20.6376 27.3537 20.7374 26.9829 20.1958 28.2996C19.8039 29.2418 19.7611 30.5282 19.7041 31.5385Z" fill="#BCBCBB"/>
<path d="M46.6872 26.664C49.8013 27.7008 52.9582 28.7489 56.2326 28.9191C58.3277 29.0289 60.4263 28.7754 62.5107 28.5256C66.1592 28.0829 69.8078 27.644 73.4563 27.2013C74.2972 27.0992 75.1773 26.9857 75.8721 26.4976C75.9398 26.0133 75.2735 25.8203 74.7889 25.8241C71.3295 25.8317 68.3228 25.2037 64.8671 25.0406C61.4998 24.8816 58.2089 24.6464 54.852 24.3252C53.5697 24.203 51.0321 24.0519 48.9128 23.3182C46.0445 22.3252 42.9795 21.2641 41.2603 21.4664C37.1058 21.9583 45.3154 26.21 46.6872 26.664Z" fill="#BCBCBB"/>
<path d="M42.4482 78.5859C41.4826 78.8357 40.5135 79.0854 39.5479 79.3313C39.3306 79.3881 39.099 79.4411 38.8887 79.373C38.6821 79.3048 38.5289 79.1308 38.4255 78.9378C37.973 78.1092 38.3329 77.0838 38.6963 76.2098C39.979 73.1336 41.0836 69.8002 42.6442 66.8867C42.6549 67.9462 42.8972 78.4687 42.4482 78.5859Z" fill="#BCBCBB"/>
<path d="M46.2454 55.7231C55.1851 54.221 64.1889 52.7151 73.2461 52.9648C72.8969 54.5464 70.8161 54.781 69.2163 54.8756C64.6378 55.148 60.3586 57.1231 55.9832 58.5155C54.0663 59.1285 52.1137 59.6279 50.1541 60.0706C48.768 60.3847 45.5114 60.4922 44.1218 60.0911C41.1181 59.2209 43.9722 56.1053 46.2454 55.7231Z" fill="#BCBCBB"/>
<path d="M100.4 75.7509C100.457 76.4987 100.551 77.2764 100.309 77.9852C100.066 78.694 99.3641 79.3114 98.6376 79.1578C97.7712 78.9759 97.4276 77.9167 97.3239 77.026C97.1403 75.4931 96.8598 69.6333 98.6544 68.9067C101.116 67.914 100.318 74.6249 100.4 75.7509Z" fill="#BCBCBB"/>
<path d="M92.8947 51.687C91.9861 50.6578 91.0704 49.6211 90.4148 48.4103C89.7592 47.2033 89.378 45.7919 89.6203 44.4336C90.2474 44.5017 90.6714 45.0806 91.0562 45.5876C92.3246 47.2714 93.9209 48.6524 95.4672 50.06C96.6965 51.1799 99.1051 52.8599 99.6253 54.521C100.213 56.3977 98.9875 57.0333 97.5445 56.182C95.7487 55.1226 94.2594 53.2307 92.8947 51.687Z" fill="#BCBCBB"/>
<path d="M33.8698 14.8359C34.4079 15.6494 34.8782 16.5046 35.2737 17.3937C35.3948 17.6662 35.516 17.9575 35.5017 18.2564C35.491 18.5667 35.3378 18.8542 35.181 19.1229C33.6347 21.7261 30.9767 23.4968 28.1583 24.5336C25.3399 25.5703 21.8161 27.8897 19.354 26.3119C19.411 26.3044 19.0725 24.2044 19.1295 23.9849C19.3041 23.2925 19.5856 23.2396 20.2198 22.899C21.7876 22.0628 23.3838 21.2909 24.9373 20.4245C28.0015 18.718 30.9873 16.8527 33.8698 14.8359Z" fill="white"/>
<path d="M102.858 57.5947C102.352 56.6563 101.832 55.6952 101.151 54.8855C99.9899 53.5007 98.579 52.3694 97.5813 50.7954C95.7927 47.9765 94.2 45.082 93.3163 41.8431C92.7284 39.6902 92.0123 37.5978 90.7688 35.74C90.1951 34.8849 89.5324 34.0714 88.7948 33.3562C88.2248 32.8038 87.5157 32.3573 86.8031 32.0017C85.9765 31.5893 84.9895 31.9714 84.4266 32.8719C84.7152 32.819 84.9361 32.8379 85.0893 32.7433C85.8625 32.2665 86.6036 32.4217 87.2592 32.9211C87.9504 33.4508 88.6309 34.0184 89.201 34.673C90.5015 36.1562 91.3389 37.9232 91.9873 39.781C92.5004 41.2566 92.8888 42.7777 93.4802 44.2193C94.1715 45.903 94.9803 47.5376 95.8105 49.157C96.8865 51.2532 98.2191 53.1602 100.072 54.6585C101.016 55.4228 101.636 56.4747 102.156 57.572C102.22 57.7082 102.217 57.8747 102.267 58.1433C100.553 58.2417 99.1526 57.6325 97.7559 56.7131C98.2832 56.2174 98.0445 55.8163 97.6597 55.4455C96.9863 54.7947 96.2808 54.1742 95.6394 53.4931C94.7522 52.551 93.8936 51.5786 93.0491 50.5986C92.6109 50.0916 92.2261 49.5429 91.8163 49.0132C92.1192 48.6273 92.3686 48.3095 92.618 47.9916L92.536 47.897C92.2082 48.1203 91.8769 48.3435 91.4814 48.6159C91.3246 48.3359 91.1928 48.1014 90.9826 47.723C91.4279 47.3219 91.8484 46.9473 92.3543 46.4895C91.6381 46.5046 91.3887 47.1403 90.783 47.3484C90.1737 45.8009 89.568 44.2647 88.9659 42.7247C88.7984 42.8723 88.7521 42.9669 88.7628 43.0539C89.0478 44.9836 88.6666 46.8906 88.5953 48.8051C88.5632 49.6829 88.5419 50.5608 88.5775 51.4386C88.606 52.218 88.7307 52.9975 88.7948 53.7769C88.8804 54.8326 89.1262 55.8201 89.7105 56.7282C90.0954 57.326 90.3376 58.0109 90.6868 58.6314C91.1144 59.3919 91.517 60.1827 92.0479 60.8676C93.9933 63.3724 96.3022 65.5026 98.8889 67.3112C99.3985 67.6707 99.6051 68.0415 99.6087 68.6545C99.6301 71.4241 99.6906 74.1938 99.7334 76.9635C99.7441 77.5386 99.7334 78.1175 99.7334 78.6434C98.5896 78.7607 97.5671 78.8629 96.548 78.9651C95.782 79.0445 95.0729 78.8969 94.4387 78.4353C93.8722 78.0191 93.5693 77.1867 93.7974 76.6305C94.0111 76.1121 95.0907 75.5975 95.6751 75.7905C95.9494 75.8813 96.2202 75.9684 96.3521 75.6959C96.4625 75.4689 96.4696 75.1549 96.434 74.8938C96.3521 74.3224 96.1881 73.7587 96.1062 73.1873C96.0064 72.51 95.9993 71.8214 95.8817 71.1479C95.6288 69.7101 94.9803 69.1615 93.5515 68.9723C92.9208 68.889 92.2546 68.7869 91.6916 68.5069C90.498 67.9166 89.2438 67.5307 87.9825 67.1485C86.2722 66.6302 84.7045 65.8318 83.2223 64.8064C82.3101 64.1745 81.7365 63.0621 80.5286 62.8502C80.4823 62.8427 80.4431 62.7594 80.4039 62.7065C80.1046 62.2865 79.8053 61.8703 79.4454 61.367C79.7946 61.0605 80.1153 60.807 80.4075 60.5195C80.6747 60.2584 81.0987 60.1298 81.2483 59.5698C80.4217 59.9898 79.8979 60.6633 79.1176 60.86C78.854 60.5043 79.0535 60.3265 79.2708 60.1676C79.9264 59.6946 80.5927 59.233 81.2448 58.7601C81.5013 58.5709 81.8647 58.4574 81.9396 57.8936C80.7673 58.6995 79.7162 59.4222 78.601 60.1903C78.0558 59.4865 77.5107 58.8849 77.076 58.2076C76.6983 57.6174 76.3527 57.012 76.0107 56.399C76.0249 56.3839 76.0392 56.3725 76.0534 56.3574C75.9964 56.2855 75.9323 56.2174 75.8717 56.1455C75.8076 56.0282 75.7399 55.9071 75.6757 55.7898C75.3978 55.5553 75.1448 55.2942 74.9168 55.0104C74.9025 55.0217 74.8847 55.0369 74.8669 55.052C74.8277 55.0142 74.7921 54.9726 74.7529 54.9347C74.1864 54.3823 73.5343 54.0191 72.7683 53.8375C72.5189 53.7769 72.2695 53.7277 72.0236 53.6899C72.4156 53.2018 72.6863 52.6418 72.7006 52.2067C72.1733 52.6418 71.7991 53.111 71.5284 53.6293C70.8549 53.565 70.1744 53.5953 69.4725 53.7504C69.4155 53.7618 69.3549 53.7769 69.2979 53.7883C69.9392 53.2472 70.6839 52.4337 71.0687 51.817C71.172 51.6543 71.1934 51.4386 71.2718 51.1813C70.8371 51.3326 69.4689 52.884 68.8062 53.8942C67.0674 54.2764 65.3358 54.6509 63.6576 55.2904C61.2133 56.2212 58.7442 57.0839 56.2785 57.9503C55.965 58.0601 55.5731 58.1244 55.2702 58.0298C54.9994 57.9428 54.8141 57.9314 54.5683 58.0487C54.3117 58.1698 54.0338 58.2606 53.7523 58.3249C51.0159 58.9417 48.2795 59.5546 45.4754 59.7854C44.916 59.8308 44.3495 59.8611 43.7046 59.5622C43.6939 59.5206 43.6832 59.479 43.6761 59.4373C44.5882 58.7638 45.4291 58.1395 46.27 57.5152C46.2308 57.4585 46.1916 57.4017 46.1488 57.3449C45.2866 57.9201 44.4172 58.499 43.5442 59.0817C43.5335 59.0817 43.5229 59.0817 43.5122 59.0817C43.5229 58.8319 43.5442 58.5974 43.5549 58.3666C43.5549 58.2341 43.5585 58.1017 43.5656 57.9693C43.5656 57.9655 43.5656 57.9655 43.5656 57.9617C43.8115 57.6968 44.0573 57.432 44.3032 57.1671C44.0573 57.3336 43.8079 57.5039 43.5585 57.6741C43.5407 57.5266 43.334 57.2844 43.2414 57.2958C43.0739 57.3147 42.6998 57.6628 42.5965 57.9466C42.5466 58.1168 42.5074 58.2909 42.4718 58.4687C42.4718 58.8282 42.4682 59.18 42.4789 59.5357C42.4967 59.6076 42.5288 59.8384 42.5644 60.0503C42.5501 60.406 42.5394 60.7616 42.5394 61.1211C42.5323 62.5892 42.5858 64.0535 42.6071 65.5215C42.6463 67.9015 42.6784 70.2852 42.7176 72.6652C42.7461 74.4889 42.6535 76.3051 42.3257 78.0494C41.0394 78.8061 39.7246 79.1467 38.3066 79.1391C37.4336 79.1353 36.8279 78.7342 36.4467 77.9813C36.0405 77.1791 36.3683 76.2635 37.1771 75.8813C37.6403 75.6619 38.1106 75.4311 38.5987 75.2835C39.0619 75.1435 39.2009 74.8749 39.1866 74.4208C39.1581 73.5733 39.2151 72.7182 39.1332 71.8782C39.0405 70.9474 39.4859 70.4101 40.2128 69.9977C40.5798 69.7896 40.9468 69.5815 41.3138 69.3734C41.2781 69.309 41.2425 69.2409 41.2104 69.1766C40.5655 69.4907 39.9171 69.8009 39.1759 70.1604C39.037 68.7301 40.1843 68.5182 41.1107 67.962C40.1736 67.7464 39.7425 68.5069 39.012 68.6847C38.9408 68.3669 38.8766 68.0642 38.8054 67.7615C38.4811 66.3691 38.1997 64.9615 37.8077 63.5881C37.5227 62.5892 37.0452 61.647 36.7353 60.6557C36.0226 58.3817 34.8825 56.3536 33.3682 54.5412C32.7803 53.8375 32.0214 53.3153 31.0771 52.8688C31.1163 53.5839 31.4976 53.8866 31.8681 54.178C32.9014 54.9915 33.6889 56.0131 34.3801 57.1293C35.6378 59.1649 36.3433 61.4465 37.2091 63.6524C37.8184 65.2037 38.075 66.8458 38.2994 68.5031C38.5417 70.2928 38.5845 72.0749 38.3707 73.8646C38.2745 74.6554 37.7258 75.1057 36.9134 75.064C36.7923 75.0565 36.6747 75.0187 36.5393 74.9922C36.3219 75.2759 36.1082 75.5219 35.9336 75.7943C35.7946 76.01 35.6984 76.2559 35.6058 76.4981C35.2245 77.4554 35.4098 78.3786 36.1794 79.0634C36.8208 79.6348 37.5512 80.0169 38.4598 79.9375C39.3577 79.858 40.2627 79.858 41.1606 79.7748C41.5703 79.7369 41.9765 79.6045 42.372 79.4683C42.9456 79.2715 43.2592 78.8705 43.2699 78.2197C43.2806 77.6029 43.3554 76.9862 43.391 76.3694C43.4516 75.2608 43.5585 74.156 43.5478 73.0473C43.5122 68.9685 43.4338 64.8934 43.3803 60.8146C43.3803 60.6822 43.3981 60.5497 43.4231 60.4098C43.4445 60.4098 43.4694 60.4097 43.4908 60.4135C45.283 60.6973 47.0574 60.5043 48.8175 60.2016C50.3888 59.9292 51.9459 59.5849 53.5101 59.2784C53.7595 59.2292 54.0516 59.1044 54.2547 59.1876C54.9638 59.4827 55.5695 59.146 56.193 58.9492C57.1052 58.6617 58.003 58.3325 58.9045 58.0185C59.6242 57.7687 60.344 57.5228 61.0601 57.2541C62.2253 56.819 63.3726 56.3385 64.5448 55.9336C65.628 55.559 66.7325 55.2374 67.837 54.9309C69.0093 54.6055 70.2065 54.4239 71.4286 54.458C72.4405 54.4845 73.4275 54.6699 74.1828 55.3736C74.5462 55.7104 74.8954 56.0698 75.2197 56.4444C75.3693 56.7433 75.5261 57.0385 75.7149 57.3071C77.3112 59.5963 78.9573 61.8513 80.5998 64.1064C80.7103 64.2616 81.006 64.4432 81.1307 64.394C81.5334 64.2351 81.7222 64.4924 81.9752 64.6853C83.5643 65.915 85.1748 67.1107 87.1594 67.6442C88.0929 67.8977 89.0158 68.1966 89.9279 68.522C91.232 68.9874 92.5004 69.5625 93.9114 69.6723C94.5563 69.7215 94.991 70.1717 95.0836 70.8074C95.2475 71.9652 95.3295 73.1381 95.4506 74.3035C95.4934 74.697 95.2867 74.8976 94.9589 75.0451C94.5206 75.2457 94.0753 75.4462 93.6655 75.7073C93.1097 76.063 92.789 76.9521 93.0135 77.5083C93.4125 78.4845 94.0005 79.2299 95.1335 79.4267C96.7796 79.7104 98.4079 79.404 100.043 79.3775C100.407 79.3737 100.453 79.0294 100.442 78.7115C100.382 76.9181 100.303 75.1246 100.268 73.3311C100.232 71.5376 100.229 69.7479 100.232 67.9545C100.236 67.402 99.9792 67.0388 99.5695 66.7285C98.8212 66.161 98.0872 65.5783 97.3426 65.0107C94.8342 63.0924 92.9173 60.667 91.4137 57.8936C91.3674 57.8066 91.3317 57.7158 91.2997 57.6249C90.8151 56.2061 90.3091 54.7985 89.8531 53.3721C89.2402 51.4537 89.1903 49.4975 89.5716 47.3711C91.2712 50.2581 92.9387 53.0013 95.7107 54.8477C95.5326 55.0709 95.4043 55.2412 95.2048 55.4909C95.5575 55.8239 95.9031 56.0396 96.0991 56.3574C96.5658 57.1141 97.2214 57.5947 98.0267 57.886C98.9673 58.2266 99.9008 58.5936 100.863 58.8546C101.305 58.9757 101.828 58.9644 102.277 58.8584C102.933 58.7109 103.182 58.1925 102.858 57.5947Z" fill="black"/>
<path d="M18.9301 26.5867C18.923 26.6283 18.9195 26.6737 18.9123 26.7153C18.8981 26.7872 18.9123 26.8553 18.9373 26.9197C18.9658 27.1996 19.0905 27.404 19.429 27.4153C20.4908 27.4569 21.5597 27.578 22.5751 27.1278C24.1357 26.4391 25.6892 25.7278 27.2605 25.0543C27.6881 24.8689 28.2083 24.8764 28.6038 24.6456C31.2583 23.0868 33.9626 21.5922 35.8225 19.0117C35.8296 19.0193 35.8368 19.0231 35.8475 19.0306C36.4318 19.5225 37.091 19.8706 37.8143 20.1392C38.7371 20.4798 39.5815 21.0549 40.5115 21.35C42.0115 21.8268 43.5579 22.1597 45.0829 22.557C46.1945 22.8484 47.3133 23.117 48.4143 23.4576C50.2742 24.0289 52.127 24.6116 54.1116 24.3846C54.2684 24.3657 54.4358 24.4111 54.6389 24.43C54.6959 25.3343 55.3658 25.3267 55.9929 25.3418C56.9442 25.3683 57.8955 25.3835 58.8469 25.3721C59.8659 25.3608 60.8814 25.3116 61.9004 25.2775C62.9159 25.2435 63.9313 25.1943 64.9468 25.1754C66.8922 25.1375 68.802 25.4781 70.7225 25.7316C73.5337 26.1062 76.2844 26.7191 78.9674 27.6461C79.2952 27.7596 79.598 27.9299 80.0149 28.1229C79.2025 28.8531 78.1942 29.0461 77.5528 29.7839C78.0552 29.6099 78.5042 29.3526 78.9638 29.1104C79.37 28.8947 79.7797 28.6791 80.2002 28.4937C80.5351 28.3461 80.756 28.4823 80.8522 28.7964C80.5921 29.0272 80.3641 29.2353 80.136 29.4396C80.5209 29.3261 80.9092 29.2088 81.3404 29.0802C82.6088 30.0601 83.5459 31.3579 84.4651 32.6898C84.6789 32.3644 84.9248 32.0579 85.1991 31.7817C85.0673 31.7893 84.9283 31.8044 84.7822 31.8347C84.1801 31.1044 83.5779 30.4007 83.0079 29.6704C82.281 28.7434 81.4472 27.9375 80.357 27.4986C78.0624 26.5867 75.7499 25.724 73.2772 25.4251C71.4494 25.2018 69.6322 24.8954 67.8044 24.7213C66.4682 24.5965 65.1143 24.5586 63.771 24.6116C61.2448 24.71 58.715 24.744 56.1889 24.7062C56.0962 24.7062 56.0036 24.657 55.9181 24.6305C55.8611 24.3959 55.8112 24.1802 55.747 23.923C55.1235 23.9192 54.5392 23.9457 53.9548 23.9078C53.0391 23.8511 52.1092 23.8246 51.2113 23.6467C50.0854 23.4235 48.9915 23.0489 47.8763 22.7576C46.3513 22.3603 44.8192 21.9743 43.2906 21.5922C42.1469 21.3084 41.1778 20.5063 39.9556 20.4609C39.8381 20.4571 39.7276 20.336 39.6065 20.283C38.3665 19.723 37.1978 19.0571 36.0862 18.2814C36.0933 18.2701 36.0969 18.255 36.1004 18.2436C36.1004 18.2058 36.104 18.1755 36.104 18.1301C36.0969 18.0166 36.0897 17.9296 36.0862 17.8577C36.0434 17.6458 36.0042 17.4377 35.9543 17.2296C35.484 17.135 35.2596 16.749 35.0173 16.3858C34.6574 15.8447 34.3332 15.281 33.9733 14.7399C33.8985 14.6264 33.8308 14.5394 33.7631 14.4675C33.7524 14.4448 33.7488 14.4258 33.7381 14.4031C33.3248 13.7864 32.7155 13.0297 31.9851 12.201C30.8948 10.96 29.5444 9.56757 28.2439 8.31895C26.9684 7.09681 25.7462 6.01845 24.8519 5.36009C24.5312 5.07252 24.1821 4.87956 23.783 4.76226C23.1595 4.58064 22.5074 4.43308 21.8625 4.38389C18.9693 4.16065 16.1082 4.35362 13.297 5.11793C12.4704 5.34495 11.9038 5.89737 11.4763 6.60493C11.2732 6.94168 11.3551 7.24816 11.8112 7.31248C12.2423 6.90384 12.6022 6.32872 13.101 6.1471C14.2234 5.73467 15.3992 5.40549 16.5785 5.25414C18.0536 5.06874 19.5537 5.10658 21.043 5.02712C22.2117 4.96658 23.2735 5.29576 24.2533 5.90494C25.0942 6.42709 25.8104 7.09681 26.4874 7.80436C26.466 7.75139 26.4553 7.69842 26.4339 7.64923C27.257 8.39084 28.1549 9.24974 29.0278 10.1313C29.8829 10.9978 30.7167 11.8832 31.4329 12.6967C32.0421 13.3891 32.5623 14.0286 32.94 14.5545C32.9258 14.5658 32.9115 14.5772 32.8937 14.5885C29.9043 17.0328 26.7581 19.2387 23.2949 20.949C21.8803 21.6452 20.4658 22.3414 19.1083 23.0111C19.0762 23.2041 19.0406 23.3781 19.005 23.5522C18.9337 23.4273 18.8589 23.3062 18.7769 23.1889C18.2353 22.4133 17.48 21.7927 16.5857 21.456C16.575 21.403 16.5572 21.35 16.5358 21.2895C16.3968 21.3008 16.2721 21.2706 16.1937 21.3198C15.0001 22.0462 13.6889 22.3111 12.3243 22.277C10.5071 22.2354 8.68997 22.1597 6.87638 22.0576C6.37399 22.0273 5.85379 21.9138 5.39059 21.7208C4.97015 21.543 4.54615 21.2706 4.24329 20.9263C3.30977 19.8706 2.99266 18.4706 2.28362 17.3847C2.83945 16.4047 3.32046 15.5383 3.81929 14.6794C4.23616 13.9642 4.51764 13.234 4.25398 12.3864C4.23973 12.341 4.31811 12.2654 4.37869 12.1594C5.40484 11.921 6.47375 11.6978 7.52841 11.4216C8.30516 11.221 9.07834 11.0016 9.82658 10.714C10.8599 10.3205 11.6972 8.86002 11.6117 7.71734C11.6081 7.69085 11.5618 7.66815 11.4727 7.58869C11.3551 7.66436 11.1698 7.72112 11.0986 7.84598C10.9169 8.16381 10.7601 8.50056 10.6389 8.84867C10.3575 9.65459 9.78382 10.1011 8.99282 10.313C8.18401 10.5286 7.37877 10.7632 6.56283 10.9562C5.18393 11.2816 3.79435 11.5578 2.41901 11.8983C1.13988 12.2162 0.641057 12.7989 0.509225 14.1194C0.462905 14.5885 0.477157 15.088 0.587612 15.5458C1.09356 17.6534 2.07696 19.5301 3.34184 21.2706C3.79791 21.8987 4.37512 22.3187 5.12692 22.4397C6.02481 22.5797 6.92982 22.6403 7.82771 22.7803C9.85508 23.0943 11.8896 23.0527 13.9241 22.8976C14.7222 22.837 15.5025 22.6516 16.2009 22.2127C16.2365 22.19 16.2686 22.1673 16.3006 22.1446C17.0524 22.4208 17.7045 22.9505 18.1748 23.6203C18.5596 24.1689 18.8161 24.8083 18.9159 25.4629C18.9301 25.8451 18.9337 26.2159 18.9301 26.5867ZM33.3498 15.2356C33.9377 15.8826 34.3973 16.609 34.8071 17.362C34.889 17.5096 34.7394 17.8577 34.6075 18.0431C34.3082 18.4631 33.9484 18.8377 33.4602 19.4166C32.7975 18.255 32.2915 17.3658 31.7642 16.4388C32.3272 16.0112 32.7868 15.6631 33.3498 15.2356ZM31.3366 16.8663C31.4079 16.9117 31.5005 16.942 31.5433 17.0063C32.0314 17.7631 32.5303 18.516 32.9721 19.2993C33.0433 19.4279 32.8474 19.7117 32.7726 19.9236C32.687 19.9084 32.6015 19.8895 32.5125 19.8744C32.0706 18.8982 31.6324 17.922 31.1906 16.9458L31.3366 16.8663ZM22.992 21.9025C23.7866 21.4787 24.5954 21.0738 25.3686 20.6084C26.7475 19.7798 28.1085 18.9209 29.4696 18.062C29.8722 17.8085 30.2535 17.5134 30.7167 17.188C31.3865 18.202 31.8212 19.2349 32.2595 20.4457C29.5658 22.663 26.6976 24.4527 23.5015 25.8829C22.9421 24.7856 22.6642 23.7376 22.5039 22.6478C22.4433 22.2468 22.6891 22.0614 22.992 21.9025ZM21.7307 22.61C21.8625 22.7235 22.0656 22.8143 22.1084 22.9581C22.4255 23.9457 22.707 24.9408 23.0276 26.0267C22.6678 26.1175 22.3115 26.2083 21.8305 26.3294C21.663 25.1905 21.4884 24.1424 21.3708 23.0905C21.353 22.9468 21.6024 22.7727 21.7307 22.61ZM20.7972 22.9732C21.2639 24.1008 21.2782 25.2283 21.467 26.4959H19.828C19.7639 25.497 19.6998 24.5473 19.6285 23.4538C19.8922 23.344 20.2912 23.1776 20.7972 22.9732Z" fill="black"/>
<path d="M25.2881 43.1832C24.8035 43.4821 24.3225 43.7848 23.8023 44.1064C23.5458 43.6978 23.3391 43.3724 23.136 43.0507C23.6099 42.0859 24.5897 41.681 25.1456 40.8448C24.718 41.0416 24.3368 41.3065 23.9769 41.594C23.6135 41.8854 23.2678 42.1994 22.8438 42.5626C21.4151 39.7135 20.0077 37.0309 19.9613 33.8753C19.7369 33.7807 19.5373 33.7012 19.2844 33.5953C19.5765 32.0326 19.8794 30.5002 20.1324 28.9602C20.1894 28.6046 20.5386 28.0029 19.9293 27.9083C19.4269 27.8327 19.5088 28.491 19.4554 28.824C19.1133 30.8823 18.8176 32.9445 18.5147 35.0066C18.5041 35.0823 18.5753 35.1731 18.6323 35.3131C18.9102 35.2185 19.1632 35.1314 19.3984 35.0482C19.6834 36.0736 19.883 37.0649 20.2357 37.9957C21.0303 40.0881 21.8604 42.1767 23.136 44.0307C23.3925 44.4015 23.3355 44.674 23.1075 44.9956C23.0719 45.0448 23.1146 45.1545 23.1253 45.2529C23.332 45.1658 23.4994 45.0902 23.6562 45.0221C24.5292 46.195 25.3736 47.3415 26.2323 48.4728C26.4853 48.8058 26.8416 49.0706 27.0482 49.4301C27.8749 50.8717 29.1504 51.8819 30.3227 52.9868C30.3547 53.017 30.4367 52.9905 30.679 52.9905C28.4378 50.0809 25.9223 47.5269 24.0481 44.5188C24.4365 43.9361 25.1277 43.8302 25.2881 43.1832Z" fill="black"/>
<path d="M16.457 8.83594C16.5247 9.2635 16.4927 9.69484 16.6637 10.0127C16.9487 10.5424 16.9523 11.0645 16.8953 11.6207C16.8276 12.2791 16.7741 12.9413 16.6779 13.5996C16.5924 14.1747 16.6459 14.7272 16.963 15.1964C17.4939 15.9871 18.0426 16.7704 18.659 17.4931C19.0082 17.9055 19.5034 18.2574 20.1056 18.0682C20.6222 17.9055 21.1674 17.7314 21.6021 17.425C23.2411 16.2634 24.7268 14.905 26.0701 13.4067C26.3552 13.0888 26.5939 12.6915 26.7293 12.2867C27.0072 11.477 26.5761 10.5386 25.6532 10.0165C25.7566 10.4327 25.7922 10.7505 25.9133 11.0267C26.2803 11.8553 26.006 12.5705 25.4751 13.1645C24.791 13.9288 24.0463 14.6364 23.2803 15.3174C22.7102 15.8244 22.0724 16.2596 21.4489 16.7023C20.6864 17.2433 19.4927 17.2358 19.0438 16.6493C18.5984 16.0666 18.2813 15.412 18.3633 14.6553C18.7908 14.3904 19.1685 14.1558 19.7279 13.8115C18.8621 13.8342 18.2564 14.7499 17.5972 13.9439C17.7041 13.5694 17.8359 13.2818 17.8644 12.9867C17.8929 12.6764 17.7967 12.3548 17.7932 12.037C17.786 11.4126 17.8466 10.7808 17.8074 10.1602C17.7647 9.44133 17.3478 9.04404 16.457 8.83594Z" fill="black"/>
<path d="M11.4022 11.1258C11.4058 11.716 11.7229 12.2495 12.1825 12.3555C12.5887 12.4501 13.0448 12.1398 13.369 11.5533C13.4224 11.4587 13.4652 11.3528 13.5044 11.2506C13.6897 10.7852 13.7787 10.2858 13.4153 9.89608C13.0269 9.47987 12.5851 9.86202 12.2039 9.99067C11.7442 10.1534 11.363 10.4523 11.4022 11.1258Z" fill="black"/>
<path d="M20.7348 6.3113C19.7158 6.17509 18.3262 6.58751 17.8096 7.16642C18.9925 7.35561 19.8298 6.70103 20.7348 6.3113Z" fill="black"/>
<path d="M13.1187 8.63912C13.5961 8.6921 14.0807 8.66183 14.5653 8.66183C14.576 8.56345 14.5867 8.46507 14.5973 8.3667C14.1591 8.24183 13.7244 8.09427 13.279 8.00346C13.1472 7.97697 12.9797 8.1094 12.8301 8.16616C12.9227 8.33264 13.0047 8.62777 13.1187 8.63912Z" fill="black"/>
<path d="M7.58951 15.3073C7.56813 15.3489 7.7641 15.5911 7.82111 15.576C7.9672 15.5381 8.11328 15.4284 8.20236 15.3073C8.23086 15.2657 8.08478 15.0954 7.97432 14.9062C7.79973 15.0765 7.65721 15.1711 7.58951 15.3073Z" fill="black"/>
<path d="M5.91854 15.0645C5.76176 15.1515 5.64062 15.3029 5.50879 15.4315C5.60855 15.5072 5.71901 15.6548 5.80452 15.6396C5.95061 15.6131 6.07531 15.4845 6.27484 15.3559C6.11094 15.2159 5.95773 15.0418 5.91854 15.0645Z" fill="black"/>
<path d="M6.47879 17.3748C6.41109 17.3105 6.3434 17.2462 6.22582 17.1289C6.11892 17.2424 6.02985 17.337 5.94434 17.4278C6.0156 17.4884 6.1118 17.617 6.15456 17.6019C6.2757 17.5602 6.3719 17.4581 6.47879 17.3748Z" fill="black"/>
<path d="M12.1711 11.0395C12.3659 11.0395 12.5238 10.8802 12.5238 10.6838C12.5238 10.4874 12.3659 10.3281 12.1711 10.3281C11.9763 10.3281 11.8184 10.4874 11.8184 10.6838C11.8184 10.8802 11.9763 11.0395 12.1711 11.0395Z" fill="white"/>
<path d="M1.35288 13.9462C1.92297 13.4808 2.6142 13.163 3.3375 13.0381C3.43726 13.0192 3.50496 12.9246 3.48714 12.8225C3.46933 12.7203 3.37313 12.6522 3.27336 12.6711C2.48949 12.8111 1.74125 13.1517 1.11772 13.6587C1.03934 13.723 1.02508 13.8403 1.08922 13.9197C1.15692 13.9992 1.2745 14.0106 1.35288 13.9462Z" fill="white"/>
<path d="M58.0039 81.7194C58.0039 76.5774 58.0039 71.4353 58.0039 66.2031C58.0039 65.7521 57.6431 65.3912 57.192 65.3912C56.741 65.3912 56.3801 65.7521 56.3801 66.2031C56.3801 71.3451 56.3801 76.4871 56.3801 81.7194C56.3801 82.1704 56.741 82.5312 57.192 82.5312C57.6431 82.5312 58.0039 82.1704 58.0039 81.7194Z" fill="black"/>
<path d="M57.25 0.811895C57.25 5.9539 57.25 11.0959 57.25 16.3281C57.25 16.7792 57.6108 17.14 58.0619 17.14C58.5129 17.14 58.8738 16.7792 58.8738 16.3281C58.8738 11.1861 58.8738 6.04411 58.8738 0.811896C58.8738 0.360843 58.5129 4.4164e-07 58.0619 2.83911e-07C57.6108 1.26181e-07 57.25 0.360842 57.25 0.811895Z" fill="black"/>
<path d="M61.7017 69.1705C60.7996 67.2761 59.7171 65.4719 58.4541 63.7579C58.3639 63.6677 58.2737 63.4873 58.0933 63.3069C57.9129 63.1264 57.6423 62.946 57.3716 62.946L57.101 62.946C56.7401 62.946 56.3793 63.1264 56.1989 63.2166C55.9282 63.3971 55.838 63.5775 55.7478 63.7579C54.8457 64.8404 54.0338 66.0132 53.4926 67.2761C53.3121 67.637 53.4926 68.1782 53.8534 68.3586C54.2142 68.5391 54.7555 68.3586 54.9359 67.9978C55.4772 66.8251 56.1989 65.7425 57.0108 64.8404L57.2814 64.5698L57.1912 64.3894L57.1912 64.4796L57.2814 64.4796L57.1912 64.2992L57.1912 64.4796L57.1912 64.209L57.1912 64.4796L57.1912 64.209L57.1912 64.4796L57.1912 64.2992L57.101 64.4796L57.1912 64.4796L57.1912 64.2992L57.101 64.4796L57.2814 64.7502C58.4541 66.4642 59.4465 68.1782 60.3486 69.9824C60.529 70.3433 61.0703 70.5237 61.4311 70.3433C61.7919 69.9824 61.9724 69.5314 61.7017 69.1705Z" fill="black"/>
<path d="M53.5512 13.3607C54.4533 15.2551 55.5358 17.0593 56.7988 18.7733C56.889 18.8636 56.9792 19.044 57.1596 19.2244C57.34 19.4048 57.6107 19.5852 57.8813 19.5852L58.1519 19.5852C58.5128 19.5852 58.8736 19.4048 59.0541 19.3146C59.3247 19.1342 59.4149 18.9538 59.5051 18.7733C60.4072 17.6908 61.2191 16.5181 61.7604 15.2551C61.9408 14.8943 61.7604 14.353 61.3995 14.1726C61.0387 13.9922 60.4974 14.1726 60.317 14.5334C59.7757 15.7062 59.054 16.7887 58.2422 17.6908L57.9715 17.9614L58.0617 18.1419L58.0617 18.0517L57.9715 18.0517L58.0617 18.2321L58.0617 18.0517L58.0617 18.3223L58.0617 18.0517L58.0617 18.3223L58.0617 18.0517L58.0617 18.2321L58.1519 18.0517L58.0617 18.0517L58.0617 18.2321L58.1519 18.0517L57.9715 17.781C56.7988 16.067 55.8065 14.353 54.9044 12.5488C54.7239 12.188 54.1827 12.0075 53.8218 12.188C53.461 12.5488 53.2806 12.9999 53.5512 13.3607Z" fill="black"/>
</svg>
