<svg width="93" height="87" viewBox="0 0 93 87" fill="none" xmlns="http://www.w3.org/2000/svg">
<g clip-path="url(#clip0_12765_8739)">
<circle cx="43.5" cy="46.5" r="34.5" fill="#F15748" fill-opacity="0.5"/>
<path d="M87.4306 36.6753C86.4849 37.5283 85.434 38.168 84.3832 38.8077C83.9629 39.1275 83.5425 39.3408 83.0171 39.554C81.4408 40.4069 79.7595 41.0466 78.0781 41.5797C77.3425 41.793 76.712 42.0062 75.9764 42.2194C75.8713 42.2194 75.7662 42.3261 75.6612 42.3261C75.451 42.4327 75.2408 42.5393 75.0306 42.6459C74.9256 42.7525 74.8205 42.7525 74.6103 42.8591C74.5052 42.8591 74.5052 42.9658 74.4001 42.9658L74.295 43.0724C73.9798 43.2856 73.6645 43.6055 73.3493 44.0319H73.2442C73.034 44.0319 72.7188 44.1386 72.4035 44.1386C72.1934 44.8849 71.8781 45.5246 71.773 46.2709C71.6679 46.5908 71.6679 46.9106 71.5628 47.2305C69.0408 52.8812 69.3561 59.8114 72.5086 65.1422C73.2442 66.4216 74.0849 67.5944 74.7154 68.8739C74.8205 69.0871 74.8205 69.1937 74.9256 69.4069C75.0306 69.7268 75.1357 69.94 75.2408 70.2599C75.3459 70.4731 75.3459 70.793 75.451 71.0062C75.7662 72.8187 75.5561 74.7378 75.0306 76.6569C74.7154 77.9364 74.2951 79.2158 73.8747 80.4952C73.6645 81.1349 73.4544 81.7746 73.1391 82.3077C72.7188 83.1606 72.0883 83.9069 71.2476 84.3334C71.0374 84.44 70.8273 84.44 70.7222 84.5467C69.9866 84.6533 69.251 84.5467 68.5154 84.1202C68.095 83.9069 67.6747 83.6937 67.2544 83.3739C67.2544 83.3739 67.1493 83.3739 67.1493 83.2672C66.9391 83.1606 66.729 83.054 66.6239 82.8408C66.2035 82.4143 65.8883 81.9878 65.9934 81.5614C65.9934 81.5614 65.9934 81.5614 65.9934 81.4547C66.2035 80.815 66.9391 80.6018 67.5696 80.3886C67.8849 80.2819 68.095 80.1753 68.4103 79.9621C69.1459 79.5356 69.7764 78.8959 70.3018 78.1496C70.4069 78.043 70.512 77.8297 70.6171 77.7231C70.8272 77.4033 70.9323 77.0834 71.0374 76.7636C71.0374 76.6569 71.1425 76.5503 71.1425 76.4437C71.1425 76.3371 71.2476 76.2305 71.2476 76.0172C71.4578 75.0577 71.5629 74.0981 71.4578 73.1386C71.4578 72.7121 71.3527 72.179 71.1425 71.7525C70.9323 71.1128 70.7222 70.5797 70.4069 70.0466C69.0408 67.5944 66.5188 65.8886 63.8917 64.929C63.8917 65.0356 63.8917 65.0356 63.7866 65.1422C63.6815 65.4621 63.6815 65.6753 63.7866 65.9952C63.8917 66.5283 64.2069 66.9547 64.5222 67.4878C64.5222 67.5944 64.6273 67.5944 64.6273 67.7011C64.6273 67.8077 64.7323 67.8077 64.7323 67.9143C64.7323 67.9143 64.7323 68.0209 64.8374 68.0209C65.1527 68.554 65.4679 69.0871 65.573 69.6202C64.6273 71.1128 63.9967 72.8187 63.5764 74.5246C63.3662 75.2709 63.2612 75.9106 63.051 76.6569C62.7357 77.8297 62.5256 79.1092 62.4205 80.282V80.3886C62.4205 80.4952 62.4205 80.6018 62.3154 80.815C62.2103 81.4547 62.0001 82.0944 61.79 82.6275C61.5798 83.1606 61.2645 83.4805 60.7391 83.5871C60.2137 83.6937 59.6883 83.8003 59.1628 83.9069C58.8476 84.0136 58.5323 84.0136 58.3222 84.1202C56.5357 84.1202 54.7493 83.5871 53.173 82.7342C52.9628 82.6275 52.8578 82.5209 52.7527 82.5209C52.8578 82.4143 52.9629 82.3077 53.0679 82.2011C53.3832 81.9878 53.6984 81.7746 53.9086 81.5614C54.7493 80.9217 55.59 80.1753 56.4306 79.429C57.0612 78.7893 57.6917 78.043 58.2171 77.2967C58.5323 76.7636 58.8476 76.1239 59.1628 75.5908C59.6883 74.418 59.7934 73.032 59.5832 71.7525C59.5832 71.7525 59.5832 71.7525 59.5832 71.6459C59.4781 70.793 59.1629 70.0466 58.8476 69.4069C58.8476 69.3003 58.7425 69.3003 58.7425 69.1937C58.2171 68.3408 57.4815 67.7011 56.5357 67.3812C56.4306 67.3812 56.3256 67.2746 56.3256 67.2746C55.3798 66.6349 54.329 65.8886 53.3832 65.2489C53.0679 65.0356 52.8578 64.929 52.5425 65.0356C52.4374 64.7158 52.3323 64.5025 52.2273 64.2893C51.8069 63.7562 51.2815 63.2231 50.7561 62.7967C50.3357 62.4768 50.2306 62.0503 50.1256 61.6239C50.1256 61.1974 50.0205 60.8775 49.9154 60.4511C49.9154 60.1312 49.8103 59.918 49.7052 59.7047C49.7052 58.5319 49.7052 57.4658 49.6001 56.293C49.4951 55.7599 49.39 55.1202 49.0747 54.6937C48.9696 54.5871 48.8645 54.3739 48.6544 54.2672C48.6544 54.2672 48.6544 54.2672 48.5493 54.2672C48.4442 54.2672 48.4442 54.1606 48.3391 54.1606C47.8137 53.9474 47.0781 54.054 46.4476 54.1606C45.8171 54.2672 45.0815 54.4805 44.451 54.5871C44.2408 54.6937 44.0307 54.6937 43.8205 54.8003C43.4001 54.9069 42.9798 55.0136 42.4544 55.2268C42.2442 55.3334 42.034 55.3334 41.8239 55.44C41.7188 55.44 41.5086 55.5466 41.4035 55.6533C41.2984 55.6533 41.2984 55.6533 41.1934 55.7599C40.773 55.9731 40.2476 56.1864 39.8273 56.3996C39.6171 56.5062 39.512 56.5062 39.4069 56.6128C38.7764 56.9327 38.1459 57.2525 37.5154 57.679C37.0951 57.9989 37.0951 58.3187 36.8849 58.8518C36.6747 59.3849 36.5696 59.918 36.3595 60.4511C36.0442 61.304 35.834 62.1569 35.729 63.0099C35.6239 64.1827 35.834 65.3555 35.729 66.4217C35.729 67.168 35.5188 67.9143 35.4137 68.6606C35.0984 70.2599 34.7832 71.8592 34.4679 73.4584C34.3629 73.8849 34.2578 74.418 34.1527 74.8444C34.0476 75.1643 33.9425 75.4841 33.8374 75.9106C33.6273 76.8702 33.7323 77.9364 33.2069 78.7893C32.9967 79.2158 32.8917 79.7489 32.7866 80.282C32.6815 80.9217 32.4713 81.4547 32.2612 81.9878C32.2612 81.9878 32.2612 81.9878 32.2612 82.0944C32.2612 82.2011 32.1561 82.3077 32.051 82.5209C31.8408 83.054 31.5256 83.5871 31.2103 84.1202C31.0001 84.44 30.79 84.7599 30.4747 84.9731C30.2645 85.1864 30.1595 85.293 29.9493 85.5062C29.4239 85.9327 28.7934 86.3592 28.0578 86.679C27.0069 87.1055 25.851 87.2121 24.6951 86.7856H24.59C24.3798 86.679 24.0645 86.5724 23.8544 86.3592C23.329 85.9327 23.0137 85.3996 23.1188 84.7599C23.1188 84.6533 23.1188 84.6533 23.1188 84.5467C23.1188 84.3334 23.2239 84.2268 23.329 84.0136C23.6442 83.4805 24.1696 83.1606 24.6951 82.8408C25.0103 82.6275 25.2205 82.5209 25.5357 82.3077C25.6408 82.2011 25.7459 82.0944 25.9561 82.0944C26.1662 81.9878 26.3764 81.9878 26.4815 81.8812C26.7968 81.7746 27.0069 81.668 27.2171 81.5614C27.6374 81.2415 27.9527 80.815 28.2679 80.282C28.4781 79.9621 28.5832 79.6422 28.6883 79.3224C28.7934 78.8959 28.8984 78.4694 28.8984 77.9364C29.1086 75.9106 29.3188 73.9915 29.3188 71.9658C29.3188 71.6459 29.3188 71.3261 29.3188 71.0062C29.2137 70.6864 29.1086 70.3665 29.0035 70.0466C28.4781 69.1937 28.373 68.6606 28.373 68.2342C28.373 67.7011 28.373 67.168 28.373 66.7415C28.373 65.9952 28.2679 65.3555 28.0578 64.6091C27.9527 64.1827 27.8476 63.8628 27.6374 63.4364C27.5323 63.2231 27.3222 62.9033 27.2171 62.69C26.9018 62.1569 26.3764 61.7305 25.851 61.304C24.1696 59.918 21.7527 59.2783 19.5459 58.8518C19.4408 58.8518 19.3357 58.8518 19.1256 58.7452C18.9154 58.7452 18.7052 58.7452 18.6001 58.7452C18.39 58.7452 18.1798 58.8518 17.9696 58.9584C17.8645 59.065 17.7595 59.1716 17.6544 59.2783C17.6544 59.2783 17.5493 59.3849 17.5493 59.4915C17.4442 59.7047 17.3391 60.0246 17.234 60.2378C16.9188 61.0908 16.7086 61.9437 16.4984 62.7967C16.4984 62.9033 16.4984 63.0099 16.3934 63.1165C16.2883 63.7562 16.1832 64.2893 16.0781 64.929C16.0781 65.0356 16.0781 65.1422 16.0781 65.2489C15.7629 68.0209 15.7629 70.8996 15.6578 73.7783C15.6578 73.7783 15.6578 73.7783 15.6578 73.8849C15.6578 75.2709 15.5527 76.6569 15.4476 77.9364C15.4476 78.5761 15.3425 79.1092 15.2374 79.7489C15.2374 79.7489 15.2374 79.8555 15.2374 79.9621C15.2374 79.9621 15.2374 80.0687 15.2374 80.1753C15.0273 81.5614 14.712 82.8408 13.9764 84.0136C13.9764 84.0136 13.9764 84.1202 13.8713 84.1202C13.8713 84.2268 13.7662 84.3334 13.6612 84.3334C12.7154 85.6128 11.034 86.5724 9.45777 86.1459C8.09167 85.8261 7.04082 84.2268 7.35607 82.9474C7.35607 82.8408 7.46116 82.8408 7.56624 82.7342C8.30184 82.0944 9.14251 81.4547 9.98319 80.9217C10.6137 80.4952 10.8239 80.2819 10.7188 79.5356C10.7188 79.2158 10.6137 78.8959 10.6137 78.5761C10.4035 77.6165 10.5086 76.5503 10.5086 75.4842C10.6137 73.3518 10.6137 71.1128 10.7188 68.9805C10.7188 68.7672 10.7188 68.554 10.7188 68.4474C10.7188 67.7011 10.6137 66.8481 10.6137 66.1018C10.6137 64.929 10.6137 63.7562 9.98319 62.5834C9.45777 61.8371 9.45777 60.8775 9.14251 60.0246C9.03743 59.7047 8.93234 59.3849 8.82726 59.065C8.512 56.7194 8.09167 54.2672 7.67133 51.9216C7.67133 51.9216 7.67133 51.9216 7.67133 51.815V51.6018V51.3886C7.67133 51.3886 7.67133 51.3886 7.67133 51.2819C7.35607 49.8959 7.25099 48.2966 7.35607 46.804C7.35607 44.6716 7.67133 42.4327 8.30184 40.4069C8.61709 39.2341 9.03743 38.0614 9.45777 36.8886C9.77302 35.929 9.98319 34.8628 10.1934 33.7966C10.2984 32.8371 10.2984 31.8775 10.2984 30.918C10.1934 29.6386 10.0883 28.3591 9.77302 27.0797V26.9731C9.77302 26.6533 9.66794 26.44 9.56285 26.1202C9.45777 25.8003 9.45777 25.3739 9.35268 25.054C9.2476 25.054 9.2476 24.9474 9.14251 24.9474C8.72217 24.7341 8.30184 24.5209 7.8815 24.5209C7.77641 24.5209 7.67133 24.5209 7.56624 24.5209C7.46116 24.5209 7.46116 24.5209 7.35607 24.5209C6.83065 24.5209 6.20014 24.5209 5.67472 24.5209C5.46455 24.5209 5.14929 24.5209 4.93912 24.6275C4.62387 24.6275 3.88828 24.8408 3.57302 24.5209C3.36285 24.3077 3.25777 23.7746 3.15268 23.5614C3.0476 23.1349 3.0476 22.6018 3.0476 22.1753C3.0476 22.0687 3.0476 20.8959 2.94251 20.8959C2.52218 20.7893 2.10184 21.0025 1.78658 20.8959C1.6815 20.8959 1.57641 20.7893 1.57641 20.6827C1.15607 20.2562 0.84082 19.8297 0.63065 19.2966C0.420481 18.7636 0.525565 18.2305 0.525565 17.6974C0.63065 16.9511 0.63065 16.2047 0.525565 15.4584C0.420481 15.0319 0.315396 14.6055 0.420481 14.2856C0.63065 13.4327 1.78658 12.8996 1.78658 11.94C1.78658 11.7268 1.6815 11.4069 1.6815 11.1937C1.57641 10.6606 1.57641 10.1275 1.57641 9.48782C1.57641 8.84812 1.57641 8.10179 1.57641 7.46209C1.57641 6.929 1.78658 6.39591 1.99675 5.96944C2.10184 5.32973 2.20692 5.00988 2.41709 4.69003C3.36285 3.9437 4.51879 3.304 5.56963 2.77091C5.7798 2.66429 5.88489 2.55767 6.09506 2.45106C7.35607 1.70473 8.61709 0.95841 9.98319 0.105469C10.0883 0.105469 10.1934 0.105469 10.2984 0.105469C10.6137 0.425322 11.034 0.425322 11.4544 0.425322C12.19 0.425322 13.0307 0.425322 13.7662 0.425322C15.0273 0.745175 16.1832 1.17165 17.3391 1.70473C18.0747 2.1312 18.9154 2.45106 19.8612 2.77091C20.0713 2.87753 20.2815 2.87753 20.4917 2.98415C21.6476 3.41062 22.8035 3.83709 23.8544 4.37017C24.59 4.79665 25.0103 5.64959 25.4307 6.28929C25.851 6.82238 26.0612 7.5687 26.0612 8.31503C26.0612 8.95473 25.9561 9.59444 25.851 10.1275C25.851 10.1275 25.9561 10.1275 26.0612 10.2341C25.9561 11.0871 25.5357 11.94 25.1154 12.793C25.1154 12.793 25.1154 12.793 25.1154 12.8996C24.4849 13.9658 23.9595 14.9253 23.7493 15.8849C23.6442 16.3114 23.7493 16.8444 23.9595 17.2709C24.0645 17.3775 24.0645 17.4841 24.1696 17.5908C24.2747 17.804 24.4849 17.9106 24.59 18.1239C24.8001 18.3371 25.1154 18.5503 25.4307 18.7636C25.851 19.0834 26.3764 19.4033 26.9018 19.7231C27.112 19.9364 27.3222 20.043 27.6374 20.1496C28.2679 20.5761 29.0035 20.8959 29.634 21.3224C30.1595 21.7489 30.6849 22.2819 31.1052 22.7084C31.7357 23.2415 32.5764 23.3481 33.2069 23.668C34.6781 24.3077 36.2544 24.4143 37.8307 24.5209C38.0408 24.5209 38.3561 24.5209 38.6713 24.5209C39.8273 24.7341 41.0883 24.9474 42.3493 25.054C42.7696 25.054 43.2951 25.1606 43.7154 25.1606C43.7154 25.2672 43.7154 25.3739 43.7154 25.5871C44.3459 25.8003 45.0815 25.6937 45.712 25.6937C47.6035 25.5871 49.6001 25.4805 51.4917 25.2672C51.8069 25.2672 52.1222 25.1606 52.5425 25.1606C55.8001 25.054 58.9527 25.054 62.1052 25.5871C62.5256 25.6937 62.8408 25.6937 63.2612 25.8003C63.4713 25.8003 63.6815 25.9069 63.8917 26.0136C64.7323 26.2268 65.4679 26.5466 66.0984 27.0797C66.5188 27.3996 66.834 27.7194 67.1493 28.0393C67.4645 28.3591 67.7798 28.7856 67.99 29.2121C68.8306 30.3849 69.7764 31.5577 70.7222 32.6239C71.1425 33.0503 71.5628 33.5834 72.0883 33.9033C72.6137 34.3297 73.2442 34.8628 73.8747 35.1827C74.0849 35.3959 74.4001 35.5025 74.7154 35.6091C77.0273 36.6753 79.6544 36.9952 81.8612 35.7158C82.4917 35.3959 83.1222 34.8628 83.6476 34.3297C85.1188 33.3702 86.1696 31.9841 87.2205 30.5981C88.0611 29.5319 88.7967 28.4658 89.6374 27.3996C89.8476 27.1864 90.0578 26.9731 90.2679 26.7599C90.7934 26.44 91.4239 26.3334 92.1595 26.2268C92.1595 26.2268 92.1595 26.2268 92.2645 26.2268C92.2645 26.2268 92.2645 26.2268 92.2645 26.3334C92.8951 30.4915 90.373 34.2231 87.4306 36.6753Z" fill="white"/>
<path d="M7.77542 52.1358L7.25 49.6836C7.35508 50.3233 7.56525 50.963 7.67034 51.6027C7.67034 51.9226 7.67034 52.0292 7.77542 52.1358Z" fill="white"/>
<path d="M4.51845 20.1526C4.09811 20.4724 3.67777 20.8989 3.36251 21.3254C3.25743 21.432 3.25743 21.5386 3.15234 21.6452C3.15234 21.7518 3.15234 21.9651 3.25743 21.9651C3.36251 21.9651 3.36251 22.0717 3.4676 22.0717C3.99302 22.1783 4.41336 21.9651 4.93878 21.8585C5.25404 21.7518 5.56929 21.6452 5.88455 21.432C6.40997 21.1121 6.72522 20.6857 7.04048 20.2592C7.04048 20.1526 7.14556 20.1526 7.14556 20.046C7.14556 19.8327 6.93539 19.8327 6.83031 19.7261C6.09472 19.5129 5.25404 19.5129 4.41336 19.4062L4.51845 20.1526Z" fill="#BCBCBB"/>
<path d="M19.0195 16.7383C19.9653 17.8045 21.5415 18.2309 22.9076 17.8045C23.2229 17.6978 23.6432 17.4846 23.9585 17.5912C24.2737 17.6978 24.4839 17.9111 24.589 18.2309C25.5348 19.617 26.3754 21.2162 27.006 22.8155C27.111 23.1353 27.2161 23.5618 27.111 23.8817C27.0059 24.0949 26.9009 24.2015 26.6907 24.3081C25.4297 25.2677 23.5382 25.2677 22.067 24.628C20.5958 23.9883 19.4398 22.7089 18.7043 21.2162C17.9687 19.9368 17.5483 18.6574 17.2331 17.2714C17.0229 16.2052 16.7076 13.9662 17.4432 13.1133C17.8636 14.4993 17.9687 15.6721 19.0195 16.7383Z" fill="#BCBCBB"/>
<path d="M9.66788 39.9807C10.0882 40.1939 10.5086 39.9807 10.8238 39.6608C12.5052 38.1682 12.6103 35.6094 12.9255 33.3704C13.3458 30.1719 14.5018 26.9733 14.3967 23.7748C14.3967 23.455 14.2916 22.9219 13.8713 22.9219C13.7662 22.9219 13.6611 22.9219 13.556 23.0285C12.5052 23.455 10.5086 23.9881 9.87805 25.0542C9.24754 26.1204 9.87805 28.1461 9.98313 29.3189C10.0882 31.1314 10.0882 32.9439 10.0882 34.6498C10.0882 35.1829 9.45771 39.8741 9.66788 39.9807Z" fill="#BCBCBB"/>
<path d="M16.604 71.6465C16.604 71.8597 16.604 72.1796 16.604 72.4994C16.3938 73.2457 15.6582 73.5656 15.2379 74.0987C14.0819 75.4847 14.8175 77.7237 13.8718 79.2163C13.7667 79.323 13.6616 79.5362 13.4514 79.5362C13.2412 79.5362 13.1362 79.2163 13.1362 79.0031C13.1362 77.8303 13.1362 76.6575 13.1362 75.4847C13.0311 68.6612 11.7701 61.6244 13.2412 55.0141C13.2412 54.8009 13.3463 54.5877 13.5565 54.5877C13.7667 54.481 13.8718 54.6943 14.0819 54.8009C15.1328 55.6538 16.3938 56.72 17.2345 57.8928C17.865 58.959 17.4446 60.1318 17.2345 61.3046C16.604 64.6097 16.3938 68.1281 16.604 71.6465Z" fill="#BCBCBB"/>
<path d="M31.8412 80.9239C31.7361 82.6298 31.8412 84.5489 30.5802 85.6151C30.0548 86.0416 29.4242 86.2548 28.7937 86.3614C27.848 86.5747 26.692 86.3614 26.1666 85.6151C25.7463 84.9754 25.9565 84.0159 26.3768 83.3761C26.7971 82.7364 27.4276 82.2034 27.9531 81.6703C29.7395 79.9644 31.0005 77.7254 31.5259 75.2732C31.7361 74.4203 31.8412 73.5673 31.9463 72.7144C32.4717 70.4754 33.5226 68.4497 34.5734 66.5306C34.7836 66.1041 35.0988 65.571 35.4141 65.1445C35.2039 65.4644 35.4141 66.7438 35.2039 67.1703C35.0988 67.5967 34.8887 68.0232 34.7836 68.4497C34.4683 69.8357 34.2581 71.2217 33.8378 72.6078C33.1022 75.2732 32.0514 78.0453 31.8412 80.9239Z" fill="#BCBCBB"/>
<path d="M59.8981 60.2392C60.5287 60.8789 61.1592 61.412 61.6846 62.1583C61.9998 62.5848 62.1049 63.0113 62.3151 63.5443C62.6303 64.3973 63.0507 65.3568 63.3659 66.2098C63.471 66.423 63.471 66.5296 63.471 66.7429C63.471 67.0627 63.0507 67.3826 62.7354 67.3826C62.4202 67.3826 61.9998 67.1694 61.6846 67.0627C60.2134 66.2098 59.1626 64.8238 57.7965 63.8642C55.0642 61.7319 51.4914 60.4524 49.81 57.4671C49.4948 57.0407 49.2846 56.401 49.4948 55.8679C49.7049 55.0149 50.5456 54.6951 51.3863 54.3752C52.332 54.0554 53.3829 53.8421 54.3287 53.6289C54.4337 53.6289 54.5388 53.6289 54.6439 53.6289C54.749 53.7355 54.749 53.8421 54.8541 53.9488C54.9592 54.5885 55.1693 55.2282 55.3795 55.7613C55.7998 55.3348 56.01 54.6951 56.6405 55.0149C57.1659 55.2282 57.3761 56.0811 57.5863 56.6142C58.1117 57.8936 58.8473 59.173 59.8981 60.2392Z" fill="#BCBCBB"/>
<path d="M71.9827 82.5225C71.8776 82.8424 71.7725 83.1622 71.5623 83.3755C71.142 84.0152 70.4064 84.4417 69.6708 84.4417C69.4607 84.4417 69.2505 84.4417 69.1454 84.335C69.0403 84.2284 68.8301 84.1218 68.7251 84.0152C68.0946 83.3755 67.7793 82.4159 67.7793 81.563C67.8844 80.3902 68.62 79.324 69.4607 78.4711C70.3013 77.5115 71.2471 76.6586 71.8776 75.5924C72.2979 74.9527 72.6132 74.2064 73.1386 73.6733C73.559 73.2468 74.7149 73.0336 75.1352 73.6733C75.4505 74.313 74.6098 75.699 74.3996 76.3387C73.559 78.3644 72.7183 80.4968 71.9827 82.5225Z" fill="#BCBCBB"/>
<path d="M36.5703 58.9591C37.9364 58.5326 38.4618 56.9334 39.7229 56.0804C40.4584 55.5473 41.4042 55.4407 42.35 55.2275C43.8212 55.0142 45.2923 54.801 46.7635 54.5878C47.7093 54.4812 48.7601 54.2679 49.6008 53.8415C50.0212 53.6282 50.5466 53.2017 50.5466 52.6687C50.4415 52.029 49.7059 51.7091 48.9703 51.6025C46.2381 51.0694 43.1907 50.4297 40.3534 50.4297C38.3568 50.4297 37.7262 52.029 37.411 53.8415C36.9907 55.4407 36.7805 57.2532 36.5703 58.9591Z" fill="#BCBCBB"/>
<path d="M83.8582 39.9819C82.4921 40.9415 80.7056 41.5812 79.1294 42.1143C77.8684 42.5408 75.7667 43.7136 74.0853 44.0334C73.8751 44.0334 73.5599 44.14 73.3497 44.14H73.2446C73.1395 44.14 73.1395 44.14 73.0345 44.14C72.1938 44.0334 71.8785 43.5003 71.7734 42.8606C71.7734 42.5408 71.7734 42.2209 71.8785 41.9011C71.9836 41.6878 72.0887 41.368 72.2989 41.1547C72.509 40.9415 72.6141 40.7283 72.8243 40.6217C73.1395 40.4084 73.5599 40.3018 73.9802 40.0886C77.0277 39.0224 80.3904 37.9562 83.5429 38.7025C83.7531 38.7025 83.9633 38.8092 84.1734 39.0224L84.2785 39.129C84.2785 39.129 84.2785 39.2356 84.3836 39.2356C84.4887 39.3422 84.1734 39.7687 83.8582 39.9819Z" fill="#BCBCBB"/>
<path d="M29.4237 70.7953C29.1085 72.6078 29.2135 74.4203 29.1085 76.2328C29.1085 76.6592 29.1085 77.0857 29.0034 77.5122C29.0034 77.7254 28.8983 78.0453 28.7932 78.2585C28.3729 78.0453 28.3729 77.832 28.3729 77.6188C28.3729 75.2732 28.478 72.821 28.478 70.4754C28.478 70.2622 28.478 69.8357 28.2678 69.7291L28.1627 69.6225C27.8474 69.3026 27.8474 68.8761 27.8474 68.4497C27.5322 66.5306 27.2169 64.6114 26.9017 62.6923C26.9017 62.4791 26.7966 62.2659 26.7966 62.1592C26.6915 61.7328 26.5864 61.6262 26.1661 61.5195C25.9559 61.5195 25.7458 61.4129 25.5356 61.3063C25.4305 61.3063 25.2203 61.1997 25.1152 61.1997C22.9085 60.6666 20.9119 59.8137 18.9152 58.8541C18.9152 58.8541 18.9152 58.8541 18.8102 58.8541C18.7051 58.8541 18.6 58.7475 18.3898 58.6409C18.3898 58.7475 18.3898 58.7475 18.3898 58.8541C18.1796 59.8137 17.8644 60.6666 17.7593 61.6261C17.5491 63.8651 16.9186 66.1041 16.9186 68.3431C16.9186 69.6225 16.9186 70.7953 16.9186 72.0747C16.9186 72.6078 16.9186 73.1409 16.9186 73.5673C16.9186 73.9938 16.9186 74.3136 16.2881 74.3136C16.183 74.3136 15.9729 74.5269 15.9729 74.7401C15.7627 75.5931 15.4474 76.446 15.2373 77.2989C15.2373 77.5122 15.1322 77.7254 15.1322 77.9386C15.0271 78.5784 14.922 79.2181 14.922 79.8578C14.922 79.8578 14.922 79.9644 14.922 80.071C14.922 80.2842 14.922 80.4975 14.8169 80.8173C14.7119 81.9901 14.5017 83.1629 14.3966 84.3357C14.2915 84.9754 13.8712 85.4019 13.3457 85.6151C12.5051 85.935 11.7695 86.4681 10.7186 86.2548C10.5085 86.2548 10.1932 86.3614 9.98304 86.3614C9.77287 86.3614 9.45761 86.3614 9.24744 86.2548C8.93219 86.1482 8.61694 86.0416 8.30168 86.0416C7.14575 85.935 6.30507 84.7622 6.72541 83.696C6.8305 83.4828 6.93558 83.1629 7.04066 83.0563C7.04066 82.9497 7.14575 82.9497 7.25083 82.8431C7.98643 82.2034 8.82711 81.5637 9.66778 81.0306C10.2983 80.6041 10.5085 80.3909 10.4034 79.6445C10.4034 79.3247 10.2983 79.0048 10.2983 78.685C10.0881 77.7254 10.1932 76.6592 10.1932 75.5931C10.2983 73.4607 10.2983 71.2217 10.4034 69.0894C10.4034 68.8762 10.4034 68.6629 10.4034 68.5563C10.4034 67.81 10.2983 66.957 10.2983 66.2107C10.2983 65.0379 10.2983 63.8651 9.66778 62.6923C9.45761 61.8394 9.45761 60.8798 9.14236 60.0269C9.03728 59.707 8.93219 59.3872 8.82711 59.0673C8.40677 57.5747 7.98643 56.082 7.88134 54.4828C7.77626 53.6298 7.67117 52.7769 7.67117 51.9239C7.67117 51.9239 7.67117 51.9239 7.67117 51.8173C7.67117 51.8173 7.67117 51.8173 7.67117 51.7107C7.67117 50.9644 7.56609 50.3247 7.461 49.5784C7.461 49.3651 7.461 49.1519 7.461 49.0453C7.461 48.2989 7.35592 47.6592 7.35592 46.9129C7.35592 46.8063 7.35592 46.6997 7.35592 46.4864C7.14575 46.2732 6.62033 46.9129 6.41016 46.1666C7.14575 44.7806 7.35592 43.2879 7.67117 41.7953C7.88134 40.9423 8.09151 40.196 8.1966 39.3431C8.40677 38.0637 8.72202 36.7842 8.82711 35.5048C9.14236 33.0526 9.66778 30.707 9.5627 28.1482C9.5627 27.5085 9.45761 26.7622 9.45761 26.1225V26.0159C9.45761 25.8026 9.45761 25.5894 9.45761 25.2695C9.5627 25.2695 9.5627 25.2695 9.66778 25.2695C9.77287 25.3761 9.87795 25.5894 9.98304 25.696C10.2983 27.4019 10.2983 29.1078 10.0881 30.707C10.0881 30.707 10.0881 30.707 10.0881 30.8136C10.0881 31.0269 9.98304 31.3467 9.98304 31.56C9.77287 33.2659 9.5627 34.9717 9.24744 36.6776C9.14236 37.2107 9.14236 37.6372 9.03728 38.1703C8.72202 40.0894 8.30168 42.0085 7.88134 43.9276C7.88134 44.1409 7.88134 44.4607 7.98643 44.7806C8.1966 45.3137 8.1966 45.7401 8.1966 46.2732C8.1966 47.5526 8.09151 48.7254 8.1966 50.0048C8.30168 51.9239 8.61694 53.8431 8.82711 55.6556C9.14236 57.8945 9.98304 59.9203 10.6135 62.0526C10.8237 62.7989 11.139 63.6519 11.3491 64.3982C11.5593 65.0379 11.5593 65.1445 10.9288 65.4644V76.7659C11.4542 76.446 11.9796 76.2328 12.4 75.9129C12.4 75.9129 12.4 76.0195 12.5051 76.0195C12.1898 76.2328 11.9796 76.446 11.6644 76.6592C11.0339 76.9791 10.9288 77.5122 11.0339 78.1519C11.0339 78.2585 11.0339 78.3651 11.0339 78.5784C11.2441 79.5379 11.139 80.4975 10.9288 81.457C10.2983 81.7769 9.66778 82.0967 9.03728 82.5232C8.61694 82.7364 8.1966 83.1629 7.98643 83.4828C7.67117 83.8026 7.77626 84.2291 8.1966 84.4423C8.51185 84.6556 8.93219 84.8688 9.35253 85.082C9.77287 84.2291 9.87795 83.3761 10.5085 82.7364C10.6135 83.0563 10.7186 83.1629 10.6135 83.2695C10.5085 83.5894 10.2983 83.9092 10.1932 84.2291C10.0881 84.5489 9.87795 84.8688 9.98304 85.2953C10.4034 85.5085 10.5085 85.1886 10.7186 84.9754C10.9288 84.6556 11.139 84.3357 11.4542 84.0159C11.5593 83.9092 11.6644 83.9092 11.9796 83.8026C11.6644 84.3357 11.4542 84.7622 11.139 85.1887C11.7695 85.4019 12.0847 85.1886 12.5051 84.9754C12.5051 84.9754 12.5051 84.9754 12.6102 84.9754C13.1356 84.6556 13.4508 84.4423 13.5559 84.2291C13.5559 84.2291 13.5559 84.1225 13.661 84.1225C13.7661 83.9092 13.8712 83.5894 13.8712 82.9497C14.0813 81.5637 14.0813 80.071 14.2915 78.685C14.5017 77.1923 14.6068 75.5931 15.2373 74.1004V73.9938V73.8872C15.3424 73.674 15.4474 73.4607 15.7627 73.3541C15.8678 73.3541 15.8678 73.3541 15.9729 73.3541V73.1409C15.9729 71.8614 15.9729 70.582 15.8678 69.3026C15.7627 68.0232 15.9729 66.7438 15.9729 65.3578C15.8678 65.3578 15.6576 65.3578 15.5525 65.4644C15.0271 65.6776 14.7119 65.9975 14.1864 66.3173C14.2915 65.8909 14.5017 65.7842 14.7119 65.6776C15.0271 65.571 15.3424 65.3578 15.5525 65.2512C15.9729 64.8247 16.2881 64.185 16.183 63.4387C16.183 63.4387 16.183 63.332 16.183 63.2254C16.078 63.2254 15.9729 63.332 15.8678 63.332C15.7627 63.332 15.6576 63.4387 15.5525 63.4387C15.6576 63.332 15.7627 63.2254 15.8678 63.0122C16.3932 62.3725 16.6034 61.6261 16.7085 60.8798C16.7085 60.8798 16.7085 60.8798 16.7085 60.7732C16.8135 60.3467 16.9186 59.9203 17.0237 59.4938C17.1288 59.1739 17.2339 58.8541 17.2339 58.4276C16.8135 58.1078 16.3932 57.6813 16.078 57.3614C15.6576 57.0416 15.2373 56.6151 14.8169 56.1887C14.6068 56.6151 14.5017 56.935 14.3966 57.3614C13.661 56.8284 13.5559 55.9754 13.2407 55.3357C13.1356 55.1225 13.0305 54.9092 12.9254 54.696C12.7152 54.2695 12.5051 53.7364 12.4 53.2034C12.1898 52.5637 11.8746 51.8173 11.6644 51.1776C11.4542 50.4313 11.2441 49.685 11.139 48.9387C11.0339 48.1923 11.0339 47.446 10.9288 46.6997C11.2441 46.4864 11.4542 46.5931 11.4542 46.9129C11.4542 47.0195 11.4542 47.0195 11.4542 47.1262C11.2441 49.0453 11.8746 50.7512 12.6102 52.457C12.8203 53.2034 13.1356 53.8431 13.3457 54.5894C13.3457 54.696 13.4508 54.696 13.4508 54.8026C13.661 55.1225 13.8712 55.5489 14.0813 55.9754C14.1864 55.7622 14.1864 55.6556 14.2915 55.5489C14.3966 55.3357 14.3966 55.2291 14.5017 55.0159C15.4474 55.8688 16.3932 56.7217 17.339 57.4681C18.2847 58.2144 19.3356 58.6409 20.4915 59.1739C21.3322 58.4276 22.0678 57.6813 22.9085 56.935C22.4881 57.8945 21.4373 58.321 21.122 59.2806C21.4373 59.6004 21.7525 59.6004 21.9627 59.2806C22.4881 58.6409 23.2237 58.2144 24.0644 57.8945C23.539 58.5342 22.5932 58.7475 22.1729 59.6004C22.5932 60.0269 25.4305 61.0931 26.2712 61.0931C26.1661 59.8136 25.9559 58.6409 25.8508 57.4681C25.7458 56.1887 25.6407 54.9092 25.6407 53.6298C25.6407 52.457 25.1152 51.2842 25.1152 50.0048C25.2203 50.0048 25.2203 50.0048 25.3254 50.0048C25.4305 50.2181 25.5356 50.3247 25.5356 50.5379C25.9559 52.3504 26.061 54.1629 26.1661 56.082C26.2712 58.4276 26.7966 60.6666 27.1119 63.0122C27.6373 62.6923 28.0576 62.4791 28.583 62.2659C28.1627 62.6923 27.7424 63.1188 27.322 63.6519C27.4271 64.0784 27.4271 64.3982 27.5322 64.8247C27.6373 65.4644 27.7424 66.2107 27.8474 66.957C27.9525 67.4901 28.0576 67.9166 28.1627 68.4497C28.2678 69.0894 28.583 69.6225 28.8983 70.1556C29.4237 70.2622 29.5288 70.4754 29.4237 70.7953Z" fill="black"/>
<path d="M92.7908 29.8543C92.4755 30.3874 92.3705 31.1337 92.1603 31.7734C91.845 32.5198 91.3196 33.1595 90.8993 33.9058C90.584 34.3323 90.2688 34.7587 89.9535 35.1852C89.7433 35.3984 89.5332 35.6117 89.323 35.8249C88.7976 36.2514 88.2722 36.7845 87.6416 37.2109C86.2755 38.3837 84.9094 39.4499 83.5433 40.6227C81.9671 41.9021 80.0755 42.5418 78.184 43.0749C77.3433 43.2881 76.6077 43.608 75.7671 43.8212C75.2416 43.9278 74.7162 44.0345 74.1908 44.0345C73.9806 44.0345 73.7705 44.0345 73.4552 44.1411H73.3501C73.14 44.1411 72.8247 44.2477 72.5094 44.2477C72.2993 44.994 71.984 45.6337 71.8789 46.3801C71.7739 46.6999 71.7738 47.0198 71.6688 47.3396C71.3535 48.7256 71.0383 50.2183 70.8281 51.7109C70.6179 52.7771 70.5128 53.7367 70.3027 54.8029C70.1976 55.2293 70.1976 55.5492 70.5128 55.869C70.723 56.1889 70.8281 56.5087 70.6179 56.9352C70.3027 57.8948 70.4077 58.8543 70.6179 59.8139C71.2484 62.1595 72.1942 64.2918 73.6654 66.2109C74.2959 67.0639 74.9264 67.8102 75.3467 68.7698C75.662 69.4095 75.9772 70.1558 75.9772 70.7955C75.9772 72.0749 75.8722 73.4609 75.5569 74.7404C75.4518 75.4867 75.2416 76.233 75.0315 76.9793C74.7162 78.3653 74.2959 79.858 73.9806 81.244C73.7705 82.2036 73.5603 83.0565 73.245 84.0161C72.9298 84.869 72.2993 85.2955 71.4586 85.4021C69.7772 85.6154 68.201 85.1889 66.7298 84.4426C65.9942 84.0161 65.5738 83.3764 65.2586 82.6301C64.9433 81.8837 65.2586 81.1374 65.784 80.4977C66.4145 79.858 67.1501 79.4315 67.9908 79.1117C68.5162 78.8984 68.9366 78.5786 69.2518 78.0455C69.7772 77.0859 70.1976 75.9131 70.4077 74.847C70.5128 74.5271 70.5128 74.2073 70.6179 73.8874C70.8281 73.3543 71.0383 72.7146 71.0383 72.0749V71.9683C71.0383 71.8617 71.1433 71.7551 71.2484 71.5418C71.6688 72.1815 71.4586 72.8212 71.3535 73.3543C71.3535 73.4609 71.3535 73.4609 71.2484 73.5676C71.0383 74.4205 70.8281 75.2734 70.6179 76.1264C70.6179 76.233 70.6179 76.3396 70.5128 76.5529C70.723 76.5529 70.8281 76.5528 71.0383 76.4462C71.2484 76.4462 71.3535 76.3396 71.4586 76.233C71.984 76.0198 72.5094 75.8065 73.0349 75.9131C72.9298 76.0198 72.7196 76.0198 72.6145 76.1264C72.0891 76.3396 71.6688 76.5529 71.1433 76.7661C71.0383 76.7661 71.0383 76.8727 70.9332 76.8727C70.3027 77.0859 69.9874 77.5124 69.8823 78.2587C70.0925 78.2587 70.1976 78.2587 70.3027 78.2587C70.5128 78.2587 70.723 78.2587 71.0383 78.1521V78.2587C70.8281 78.3654 70.6179 78.3654 70.5128 78.472C70.4077 78.5786 70.1976 78.5786 70.0925 78.6852C69.8823 78.7918 69.7772 78.7918 69.6722 79.0051C69.462 79.3249 69.1467 79.4315 68.8315 79.6448C68.6213 79.7514 68.4111 79.7514 68.201 79.858C67.5705 80.1779 67.045 80.3911 66.5196 80.8176C66.0993 81.1374 65.8891 81.5639 65.8891 81.9904C65.8891 82.4168 66.0993 82.8433 66.5196 83.2698C66.7298 82.8433 66.94 82.4168 67.1501 82.097C67.3603 81.7771 67.5705 81.4573 67.9908 81.4573C68.0959 81.4573 68.201 81.4573 68.3061 81.4573C68.201 81.6705 67.9908 81.7771 67.8857 81.9904C67.5705 82.4168 67.3603 82.9499 67.045 83.3764C67.045 83.483 66.9399 83.5896 67.045 83.6962C67.045 83.9095 67.1501 84.0161 67.4654 84.1227C67.7806 84.2293 68.0959 84.3359 68.5162 84.4426C68.8315 84.5492 69.2518 84.5492 69.5671 84.5492V84.4426C69.5671 84.1227 69.5671 83.8029 69.5671 83.483C69.5671 83.1632 69.6722 82.8433 69.7772 82.5234C69.8823 82.2036 69.9874 81.8837 70.5128 81.8837C70.4077 82.7367 69.8823 83.483 70.1976 84.4426C70.1976 84.5492 70.1976 84.5492 70.3027 84.6558C70.6179 84.6558 71.0383 84.6558 71.3535 84.6558C71.5637 84.6558 71.6688 84.6558 71.8789 84.6558C72.2993 84.6558 72.6145 84.2293 72.8247 83.9095C73.0349 83.5896 73.1399 83.1631 73.245 82.7367V82.6301C73.7705 80.4977 74.1908 78.472 74.6111 76.3396C74.8213 75.6999 74.9264 74.9536 75.0315 74.3139C75.0315 74.2073 75.1366 73.994 75.1366 73.8874C75.2416 73.1411 75.3467 72.2881 75.4518 71.5418V71.4352C75.4518 71.1154 75.4518 70.9021 75.2416 70.7955C75.1366 70.6889 75.0315 70.5823 74.8213 70.5823C74.9264 70.369 74.9264 70.1558 74.9264 69.9426C74.9264 69.7293 74.8213 69.5161 74.7162 69.4095C74.6111 69.3029 74.5061 69.1962 74.5061 68.983C73.5603 67.7036 72.5094 66.5308 71.8789 65.1448C70.8281 63.119 69.9874 61.0933 69.6722 58.7477C69.462 57.5749 69.462 56.2955 69.6722 55.1227C70.1976 52.5639 70.723 50.0051 71.1433 47.4462C71.3535 46.3801 71.4586 45.4205 71.6688 44.3543C71.6688 44.2477 71.6688 44.1411 71.7739 44.0345C71.8789 43.7146 71.984 43.5014 71.984 43.1815C72.0891 42.8617 72.0891 42.5418 72.0891 42.222C72.1942 41.6889 72.1942 41.0492 72.1942 40.5161C72.1942 40.3028 72.1942 39.983 72.4044 39.7698C72.5094 39.8764 72.6145 40.0896 72.6145 40.1962C72.6145 40.6227 72.6145 41.0492 72.6145 41.4756C72.6145 41.9021 72.6145 42.4352 72.6145 42.8617C72.6145 43.1815 72.6145 43.5014 72.5094 43.9279C73.0349 43.8212 73.3501 43.8212 73.6654 43.7146C74.0857 42.6484 73.8755 41.4756 74.401 40.5161C74.2959 41.5823 74.1908 42.5418 74.0857 43.608C74.401 43.608 74.5061 43.608 74.7162 43.608C74.8213 43.608 74.8213 43.608 74.9264 43.5014C74.9264 43.3948 75.0315 43.2881 75.0315 43.1815C75.1366 42.6484 75.1366 42.222 75.2416 41.6889C75.3467 41.369 75.4518 40.9426 75.4518 40.6227C75.5569 40.6227 75.5569 40.6227 75.662 40.6227C75.5569 41.4756 75.4518 42.4352 75.3467 43.2881C75.7671 43.3948 75.9772 43.2881 75.9772 42.9683C75.9772 42.9683 75.9772 42.9683 75.9772 42.8617C76.0823 42.3286 76.0823 41.6889 76.1874 41.1558C76.1874 41.0492 76.2925 40.9426 76.5027 40.8359C76.5027 41.4756 76.3976 42.1153 76.2925 42.8617C76.2925 42.9683 76.2925 43.0749 76.2925 43.1815C77.4484 42.9683 78.6044 42.7551 79.6552 42.4352C80.1806 42.222 80.8111 42.0087 81.3366 41.7955C82.1772 41.4756 82.8077 40.9426 83.4383 40.3028C83.5433 40.1962 83.5433 40.0896 83.6484 40.0896C83.7535 39.983 83.9637 39.7698 84.1738 39.6631C84.384 39.5565 84.4891 39.4499 84.6993 39.4499C84.9094 39.3433 85.1196 39.2367 85.3298 39.1301C86.2755 38.3837 87.1162 37.6374 87.9569 36.7845C88.9027 35.8249 89.9535 34.972 90.6891 33.7992C91.5298 32.5198 92.3705 31.1337 92.6857 29.6411C92.7908 28.8948 92.6857 28.4683 92.1603 27.9352C91.5298 28.1484 90.8993 28.4683 90.4789 29.108C89.5332 30.494 88.5874 31.8801 87.4315 33.1595C86.2755 34.4389 85.1196 35.9315 83.5433 36.6778C83.4383 36.7845 83.2281 36.8911 83.123 36.8911C81.9671 37.2109 80.706 37.5308 79.5501 37.8506C77.9738 38.1705 76.5027 37.8506 75.0315 37.3176C74.6111 37.1043 74.0857 36.9977 73.6654 36.7845C73.3501 36.6778 73.1399 36.4646 73.245 36.1448C73.4552 36.1448 73.7705 36.1448 73.9806 36.1448C74.5061 36.358 74.9264 36.4646 75.3467 36.6778C75.7671 36.8911 76.2925 36.9977 76.7128 37.1043C78.4993 37.5308 80.2857 37.4242 81.862 36.4646C81.9671 36.358 82.1772 36.2514 82.2823 36.2514C82.9128 36.4646 83.2281 36.0381 83.7535 35.7183C83.9637 35.6117 84.0688 35.5051 84.2789 35.3984C85.7501 34.4389 86.801 33.0528 87.8518 31.6668C88.6925 30.6006 89.4281 29.5345 90.2688 28.4683C90.4789 28.2551 90.6891 28.0418 90.8993 27.8286C91.1094 27.6153 91.4247 27.5087 91.74 27.4021C92.1603 27.1889 92.4755 27.1889 92.7908 27.4021C92.7908 27.4021 92.8959 27.4021 92.8959 27.5087C93.001 27.6153 93.1061 27.722 93.2111 27.9352C92.8959 27.9352 93.3162 28.8948 92.7908 29.8543Z" fill="black"/>
<path d="M70.512 70.1553C70.4069 70.262 70.4069 70.2619 70.3018 70.3686C70.3018 70.3686 70.3018 70.3686 70.1967 70.3686C69.9865 70.2619 69.7764 70.262 69.6713 70.1553C68.7255 69.409 67.6747 68.6627 66.7289 68.023C65.6781 67.2767 64.7323 66.5303 63.8916 65.6774C63.7865 65.5708 63.7865 65.5708 63.6814 65.4642C63.5764 65.3575 63.4713 65.3575 63.3662 65.2509C63.3662 65.4642 63.3662 65.6774 63.3662 65.784C63.4713 65.9972 63.4713 66.1039 63.5764 66.3171C63.7865 66.8502 63.9967 67.2767 64.312 67.8097C64.312 67.9164 64.417 67.9164 64.417 68.023C64.417 68.023 64.417 68.1296 64.5221 68.1296C64.5221 68.1296 64.5221 68.2362 64.6272 68.2362C64.9425 68.5561 65.3628 68.7693 65.7831 68.9825C65.6781 69.1958 65.6781 69.409 65.573 69.5156C65.4679 69.6222 65.4679 69.7289 65.3628 69.7289C64.417 71.2215 63.7865 72.9274 63.3662 74.6333C63.156 75.3796 63.0509 76.0193 62.8408 76.7656C62.6306 77.9384 62.4204 79.2178 62.2103 80.3906V80.4972C62.2103 80.6039 62.2103 80.7105 62.1052 80.9237C62.0001 81.5634 61.7899 82.2031 61.5798 82.7362C61.3696 83.2693 61.0543 83.5892 60.5289 83.6958C60.0035 83.8024 59.4781 83.909 58.9526 84.0156C58.6374 84.1222 58.3221 84.1222 58.112 84.2289C57.9018 84.3355 57.5865 84.3355 57.3764 84.4421H57.2713C56.1153 84.2289 54.9594 84.4421 53.9086 83.909C53.3831 83.6958 53.0679 83.2693 52.9628 82.8428C52.8577 82.6296 52.8577 82.523 52.8577 82.3097C52.8577 81.8833 52.9628 81.4568 53.2781 81.1369C53.9086 80.284 54.6442 79.7509 55.4848 79.2178C55.8001 79.0046 56.0103 79.0046 56.3255 78.7914C56.8509 78.5781 57.1662 78.1517 57.2713 77.6186C57.5865 76.4458 58.112 75.273 58.4272 73.9936C58.7425 72.7142 58.8475 71.3281 58.6374 70.0487C58.6374 69.8355 58.5323 69.6222 58.5323 69.5156C58.5323 69.409 58.4272 69.409 58.4272 69.3024C58.217 68.9825 57.7967 68.6627 57.4815 68.4494C56.956 68.1296 56.4306 67.7031 55.9052 67.3833C54.9594 66.7436 53.9086 65.9972 52.9628 65.3575C52.6476 65.1443 52.4374 65.0377 52.1221 65.1443C52.017 64.8244 51.912 64.6112 51.8069 64.398C51.3865 63.8649 50.8611 63.3318 50.3357 62.9053C49.9153 62.5855 49.8103 62.159 49.7052 61.7325C49.7052 61.3061 49.6001 60.9862 49.495 60.5597C49.495 60.2399 49.3899 60.0267 49.2848 59.8134C49.1798 59.6002 49.0747 59.3869 48.8645 59.1737C48.3391 58.6406 48.3391 57.8943 48.1289 57.2546V57.148C48.6543 56.6149 48.3391 55.9752 48.3391 55.3355C48.3391 55.3355 48.4442 55.2289 48.5492 55.2289C48.8645 55.5487 48.9696 55.9752 49.0747 56.4017C49.0747 56.5083 49.0747 56.6149 49.1798 56.6149C49.3899 57.5744 49.7052 58.6406 49.9153 59.7068C50.0204 60.0267 50.2306 60.3465 50.4408 60.6664C50.6509 60.8796 50.756 61.1994 50.9662 61.4127C51.0713 61.6259 51.2814 61.7325 51.4916 61.9458C51.3865 62.159 51.2814 62.3722 51.0713 62.6921C51.2814 62.9053 51.4916 63.1186 51.7018 63.3318C52.1221 62.9053 52.4374 62.5855 52.8577 62.159C52.6476 62.9053 51.7018 63.2252 52.4374 64.0781C52.9628 63.6517 53.4882 63.3318 54.0137 62.9053L54.1187 63.0119C53.6984 63.3318 53.2781 63.7583 52.7526 64.1847C53.0679 64.5046 53.2781 64.8244 53.5933 64.9311C54.9594 65.8906 56.4306 66.7436 57.7967 67.5965C58.0069 67.7031 58.217 67.8097 58.4272 67.9164C59.0577 68.2362 59.0577 68.2362 58.9526 69.0892C58.9526 69.1958 58.9526 69.3024 58.9526 69.409C59.1628 70.1553 59.1628 71.0083 59.1628 71.7546C59.1628 72.3943 58.9526 73.1406 58.9526 73.7803C58.7425 74.7399 58.3221 75.6994 58.0069 76.659C57.9018 76.8722 57.9018 77.0855 57.7967 77.2987C57.7967 77.4053 57.6916 77.512 57.6916 77.6186C58.0069 77.7252 58.217 77.8318 58.6374 78.045C58.4272 78.2583 58.217 78.3649 58.112 78.4715C57.3764 78.7914 56.7459 79.1112 56.0103 79.4311C55.3798 79.7509 54.8543 80.1774 54.3289 80.6039C54.1187 80.8171 53.9086 81.0303 53.6984 81.3502C53.5933 81.4568 53.5933 81.5634 53.5933 81.5634C53.173 82.4164 53.5933 83.1627 54.8543 83.4825C55.0645 82.9495 55.2747 82.523 55.3798 81.9899C55.4848 81.7767 55.4848 81.67 55.5899 81.4568C55.695 81.2436 55.9052 81.1369 56.1153 81.2436C56.3255 81.4568 56.3255 81.67 56.1153 81.7767C55.695 82.2031 55.4848 82.8428 55.2747 83.4825C55.695 83.4825 56.1153 83.5892 56.4306 83.5892C56.7459 83.1627 56.4306 82.523 57.0611 82.2031C57.1662 82.6296 57.1662 82.9495 57.2713 83.4825C57.4814 83.4825 57.7967 83.4825 58.0069 83.4825C58.6374 83.3759 59.2679 83.2693 59.8984 83.1627C60.3187 83.0561 60.634 82.8428 60.8442 82.3097C61.2645 81.3502 61.3696 80.1774 61.5798 79.1112C61.7899 77.8318 62.1052 76.659 62.3153 75.3796C62.3153 75.1664 62.3153 74.9531 62.3153 74.7399C61.3696 74.5267 60.8442 75.4862 60.0035 75.3796C60.7391 74.6333 61.6848 74.42 62.5255 74.2068C63.2611 72.5009 63.8916 70.9017 64.6272 69.1958C63.8916 68.6627 63.3662 67.9164 63.0509 67.0634C62.8408 66.6369 62.7357 66.1039 62.6306 65.6774C62.6306 65.4642 62.4204 65.2509 62.5255 65.0377C62.5255 64.9311 62.5255 64.8244 62.5255 64.7178C62.5255 64.398 62.4204 64.1847 62.2103 63.9715C62.1052 63.7583 62.0001 63.6517 61.7899 63.545C60.7391 62.2656 59.5831 60.9862 58.6374 59.6002C57.6916 58.2142 57.0611 56.7215 56.3255 55.2289C56.3255 55.1222 56.2204 55.1222 56.2204 55.0156C56.2204 55.0156 56.2204 55.0156 56.2204 54.909C56.2204 54.909 56.2204 54.909 56.1153 54.909C55.695 55.1222 55.5899 55.7619 54.9594 55.8686C54.9594 55.6553 54.8543 55.4421 54.8543 55.2289C54.8543 55.0156 54.8543 54.8024 54.8543 54.6958C54.8543 52.2436 55.0645 49.7914 55.5899 47.4458C55.695 46.6994 55.9052 45.8465 56.0103 45.1002C56.1153 44.7803 56.1153 44.4605 56.5357 44.1406C56.5357 44.4605 56.6408 44.5671 56.6408 44.7803C56.3255 46.8061 55.9052 48.9384 55.5899 50.9642C55.4848 51.8171 55.3798 52.67 55.3798 53.523C55.3798 53.8428 55.3798 54.1627 55.4848 54.5892C55.8001 54.2693 56.1153 54.0561 56.4306 53.7362C56.6408 54.0561 56.956 54.3759 57.1662 54.6958C57.9018 56.0818 58.6374 57.4678 59.4781 58.8539C59.6882 59.2803 59.8984 59.6002 60.2137 59.92C61.3696 61.4127 62.6306 62.9053 63.9967 64.1847C64.9425 65.0377 65.9933 65.784 67.0442 66.6369C68.2001 67.5965 69.2509 68.5561 70.4069 69.5156C70.4069 69.7289 70.4069 69.9421 70.512 70.1553Z" fill="black"/>
<path d="M3.46837 9.59536C3.57345 9.59536 3.57345 9.59536 3.46837 9.59536C3.57345 9.59536 3.57345 9.59536 3.57345 9.48874C3.57345 9.38212 3.57345 9.38212 3.57345 9.27551C3.57345 9.06227 3.57345 8.84904 3.57345 8.6358C3.57345 8.20933 3.67854 7.78286 3.67854 7.35639V7.24977C3.67854 7.14315 3.78362 7.03653 3.78362 6.8233V6.71668V6.61006C3.78362 6.50345 3.78362 6.39683 3.78362 6.39683C3.78362 6.29021 3.78362 6.18359 3.78362 6.18359C3.67854 6.29021 3.36328 6.39683 3.36328 6.8233C3.36328 7.67624 3.36328 8.52918 3.36328 9.38212C3.36328 9.48874 3.36328 9.48874 3.46837 9.59536Z" fill="black"/>
<path d="M16.9195 20.2592C16.6043 20.4724 16.3941 20.579 16.1839 20.7923C15.3432 21.432 14.5026 22.0717 13.5568 22.7114C13.0314 23.0312 12.2958 23.2445 11.6653 23.5643C10.8246 24.0974 9.77376 24.204 8.82799 24.4173C8.72291 24.4173 8.61782 24.4173 8.61782 24.3107C8.51274 24.0974 8.40765 23.8842 8.40765 23.671C8.19748 23.8842 8.0924 24.0974 7.88223 24.4173C7.88223 24.0974 7.88223 23.9908 7.77715 23.7776C7.77715 23.5643 7.77715 23.4577 7.67206 23.2445C7.77715 23.1379 7.77715 23.1379 7.88223 23.1379C7.98731 23.1379 8.0924 23.0313 8.19748 23.0313C10.6144 22.4982 12.611 21.3254 14.3975 19.5129C14.6077 19.2996 14.8178 18.9798 15.028 18.6599C15.2382 18.1268 15.028 17.5938 14.3975 17.7004C14.0822 17.7004 13.6619 17.807 13.4517 17.9136C11.4551 18.8732 9.35342 19.2996 7.14664 19.4063C6.20087 19.4063 5.3602 19.193 4.51952 18.8732C4.20426 18.7665 3.88901 18.5533 3.57376 18.4467C3.15342 16.954 3.15342 16.954 2.83816 16.8474C2.83816 17.4871 2.83816 18.1268 2.73308 18.6599C2.62799 19.2996 2.20765 19.8327 1.99748 20.3658C1.47206 20.3658 1.05172 20.046 1.05172 19.5129C1.05172 18.9798 0.946637 18.4467 1.05172 17.9136C1.15681 17.2739 1.36698 16.6342 1.99748 16.2077C2.31274 16.3143 2.62799 16.421 3.04833 16.5276C3.99409 15.7812 4.83477 14.9283 4.83477 13.5423C4.83477 12.4761 4.51952 12.1562 3.46867 12.1562H2.10257C4.20426 10.557 6.41104 9.27757 7.25172 6.71875C6.93647 7.0386 6.51613 7.46507 6.20087 7.78493C5.67545 7.14522 5.04494 7.14522 4.41443 7.35846V7.46507C4.41443 7.57169 4.41443 7.78493 4.30935 7.89154V7.99816C4.30935 8.2114 4.41443 8.31801 4.51952 8.42463H5.78054C5.25511 8.95772 4.83477 9.38419 4.41443 9.81066C3.15342 10.7702 1.68223 11.5165 0.631383 12.796C0.211044 13.329 -0.10421 13.7555 0.105959 14.5018C0.211044 14.8217 0.211044 15.2482 0.211044 15.568C0.211044 15.9945 0.105959 16.421 0.105959 16.8474C0.211044 17.7004 0.421214 18.6599 0.526298 19.5129C0.631383 19.9393 0.841553 20.2592 1.26189 20.579C1.68223 21.0055 2.31274 21.0055 2.83816 21.0055C2.73308 22.4982 2.83816 23.1379 3.04833 23.7776C3.04833 23.7776 3.04833 23.8842 3.15342 23.8842C3.67884 24.9504 4.72969 25.1636 5.57037 24.4173C5.67545 24.3107 5.67545 24.3107 5.78054 24.204C6.20087 23.8842 6.51613 23.5643 6.93647 23.2445C7.14664 23.0312 7.35681 23.0312 7.56698 23.2445C7.56698 23.5643 7.56698 23.8842 7.46189 24.204C7.14664 24.204 6.83138 24.3107 6.62121 24.3107C6.62121 24.7371 6.93647 24.7371 7.14664 24.7371C7.88223 24.7371 8.51274 24.7371 9.24833 24.7371C9.35342 24.7371 9.56359 24.7371 9.66867 24.7371C9.87884 24.7371 10.089 24.7371 10.2992 24.6305C11.0348 24.4173 11.6653 23.9908 12.4009 23.7776C13.1365 23.5643 13.6619 23.2445 14.2924 22.818C15.3432 22.1783 16.1839 21.3254 17.1297 20.3658C16.9195 20.4724 16.9195 20.4724 16.9195 20.2592ZM12.506 19.9393C13.1365 19.5129 13.6619 18.9798 14.2924 18.3401C14.3975 18.8732 14.0822 19.0864 13.8721 19.2996C12.7161 20.4724 11.4551 21.2188 10.6144 21.3254C11.2449 20.6857 11.8755 20.3658 12.506 19.9393ZM6.41104 22.6048C5.9907 23.1379 5.57037 23.5643 5.04494 23.8842C4.41443 24.5239 3.78393 24.204 3.46867 23.4577C3.2585 22.9246 3.2585 22.4982 3.36359 22.0717C3.46867 21.6452 3.67884 21.3254 4.09918 21.0055C4.41443 20.7923 4.72969 20.579 5.15003 20.2592C4.93986 20.1526 4.93986 20.046 4.83477 20.046C4.72969 19.9393 4.72969 19.9393 4.6246 19.7261C5.25511 19.6195 5.78054 19.9393 6.30596 20.046C6.62121 20.046 6.93647 20.046 7.25172 20.046C7.46189 20.046 7.77715 20.046 7.98731 20.046C7.88223 20.2592 7.88223 20.4724 7.77715 20.579C7.35681 21.3254 6.93647 21.9651 6.41104 22.6048Z" fill="black"/>
<path d="M22.9082 20.1496L23.0133 20.043C23.0133 20.043 23.0133 20.043 22.9082 20.1496Z" fill="black"/>
<path d="M72.5094 35.1834C71.984 34.9702 71.5637 34.5437 71.3535 34.0106C71.1433 33.5841 71.0383 33.2643 70.8281 32.8378C70.6179 32.518 70.5128 32.0915 70.3027 31.7716C69.5671 30.5989 68.8315 29.5327 67.8857 28.6797C67.6755 28.4665 67.4654 28.3599 67.3603 28.2533C66.9399 27.8268 66.4145 27.5069 65.9942 27.1871C65.5738 26.9739 65.1535 26.7606 64.7332 26.5474C64.523 26.4408 64.3128 26.3341 64.1027 26.2275C63.8925 26.1209 63.7874 26.0143 63.5772 25.9077C63.1569 25.9077 62.7366 25.8011 62.3162 25.8011H62.001C60.845 25.8011 59.7942 25.6944 58.6382 25.6944C56.3264 25.6944 54.0145 25.9077 51.8077 26.2275C51.3874 26.2275 51.0722 26.4408 50.862 26.654C50.6518 26.8672 50.4416 26.9739 50.2315 27.0805C50.3366 26.8672 50.4416 26.654 50.6518 26.4408C50.4416 26.4408 50.2315 26.3341 50.0213 26.3341C48.445 26.4408 46.8688 26.5474 45.2925 26.7606C44.1366 26.8672 43.1908 26.7606 42.5603 25.8011C39.723 25.5878 36.8857 25.268 34.0484 25.0547C34.1535 25.4812 34.3637 25.8011 34.784 26.0143C35.4145 26.3341 35.9399 26.654 36.5705 27.0805C36.7806 27.1871 36.8857 27.2937 36.9908 27.5069C36.2552 27.5069 35.5196 27.1871 34.8891 26.7606C33.2077 25.9077 31.8416 24.6283 30.5806 23.4555C30.0552 22.9224 29.4247 22.4959 28.7942 21.9628C28.3738 21.643 27.8484 21.3231 27.323 21.2165C26.6925 21.0033 26.3772 20.5768 25.9569 20.2569C25.7467 20.0437 25.5366 19.8305 25.3264 19.6172C25.1162 19.404 24.906 19.1908 24.5908 18.8709C24.0654 19.2974 23.5399 19.6172 23.0145 20.0437C23.2247 19.8305 23.3298 19.6172 23.5399 19.404C23.7501 19.1908 24.0654 18.8709 24.4857 18.5511C24.1705 18.2312 23.8552 17.9114 23.645 17.6981C23.5399 17.6981 23.5399 17.6981 23.4349 17.6981C22.9094 17.8047 22.384 17.9114 21.8586 18.018C20.9128 18.2312 20.0721 17.8047 19.3366 17.2717C19.1264 17.165 19.0213 16.9518 19.0213 16.7386C19.0213 16.2055 18.601 15.8856 18.2857 15.5658C17.7603 15.1393 17.445 14.4996 17.2349 13.8599C17.2349 13.7533 17.2349 13.7533 17.2349 13.6467C17.2349 13.4334 17.1298 13.2202 17.0247 12.7937C16.6044 13.0069 16.2891 13.2202 15.7637 13.4334C15.8688 12.9003 16.2891 12.7937 16.6044 12.6871C17.0247 12.5805 17.1298 12.3672 17.0247 11.9408C17.0247 11.9408 16.9196 11.8342 16.8145 11.8342C16.9196 11.5143 17.0247 11.3011 17.1298 10.9812C17.3399 9.59518 17.9705 8.42239 18.601 7.24959C18.601 7.14297 18.8111 7.14297 18.9162 7.14297C19.1264 7.46283 19.1264 7.78268 18.9162 8.20915C17.9705 9.91503 17.7603 11.6209 18.0755 13.6467C18.9162 13.3268 19.4416 12.5805 20.3874 12.3672C20.0721 12.6871 19.7569 12.9003 19.3366 13.2202C19.0213 13.54 18.601 13.8599 18.2857 14.0731C18.2857 14.8194 18.8111 15.2459 19.3366 15.6724C19.7569 16.0989 20.1772 16.4187 20.0721 17.0584C20.8077 17.3783 21.5433 17.6981 22.384 17.3783C23.1196 17.165 23.645 16.8452 23.9603 16.0989V15.9922C24.3806 15.0327 24.906 13.9665 25.3264 13.0069C25.3264 13.0069 25.3264 13.0069 25.3264 12.9003C25.4315 12.6871 25.5366 12.3672 25.6416 12.154C25.8518 11.5143 26.062 10.8746 26.2721 10.2349C26.2721 10.1283 26.2721 10.0217 26.3772 9.91503C26.4823 9.38194 26.5874 8.84886 26.3772 8.31577C26.2721 7.99591 26.1671 7.78268 26.062 7.46283C25.9569 7.35621 25.9569 7.24959 25.9569 7.14297C25.3264 5.11724 23.7501 4.15768 21.8586 3.62459C21.5433 3.51797 21.2281 3.51797 20.9128 3.41136C20.8077 3.41136 20.7027 3.19812 20.4925 3.0915C20.5976 3.0915 20.7027 2.98489 20.7027 2.98489C20.8077 2.98489 20.9128 2.87827 20.9128 2.98489C21.9637 3.30474 23.0145 3.51797 23.9603 4.15768C24.906 4.69077 25.6416 5.33047 25.9569 6.29003C26.062 6.50327 26.1671 6.7165 26.2721 6.92974C27.0077 7.99591 26.9027 9.27533 26.6925 10.4481C26.5874 11.1944 26.2721 11.8342 25.9569 12.4739C25.3264 13.8599 24.801 15.3525 24.1705 16.7386C25.0111 17.9114 25.8518 18.9775 26.9027 19.9371C27.1128 20.1503 27.323 20.2569 27.5332 20.4702C27.5332 20.4702 27.6382 20.4702 27.6382 20.3636C28.0586 20.0437 28.4789 20.3636 28.7942 20.6834C29.1094 21.0033 29.3196 21.2165 29.6349 21.5364C30.1603 21.9628 30.6857 22.4959 31.106 22.9224C31.7366 23.4555 32.5772 23.5621 33.2077 23.8819C34.6789 24.5216 36.2552 24.6283 37.8315 24.7349C38.0416 24.7349 38.3569 24.7349 38.6721 24.7349C38.9874 24.7349 39.4077 24.7349 39.723 24.7349C40.7738 24.8415 41.8247 24.6283 42.8755 24.3084C43.401 24.2018 43.506 24.2018 43.6111 24.8415C43.6111 24.9481 43.6111 25.1614 43.6111 25.268C43.6111 25.3746 43.6111 25.4812 43.6111 25.6944C44.2416 25.9077 44.9772 25.8011 45.6077 25.8011C47.4993 25.6944 49.4959 25.5878 51.3874 25.3746C51.7027 25.3746 52.0179 25.268 52.3332 25.268C52.9637 25.1614 53.6993 25.0547 54.3298 24.9481C56.0111 24.6283 57.5874 24.6283 59.2688 24.8415C60.9501 25.0547 62.5264 25.1614 64.3128 25.268C64.3128 25.4812 64.4179 25.6944 64.4179 25.9077C64.523 25.9077 64.6281 26.0143 64.7332 26.1209C66.4145 26.654 67.6755 27.9334 68.8315 29.1062C69.6721 29.9591 70.3027 31.0253 70.9332 32.0915C71.3535 32.7312 71.6688 33.4775 72.0891 34.2239C72.0891 34.3305 72.1942 34.4371 72.2993 34.5437C72.4044 34.7569 72.4044 34.9702 72.5094 35.1834Z" fill="black"/>
<path d="M37.0949 58.3208C37.6203 57.8943 38.1457 57.3612 38.6711 56.9347C39.5118 56.1884 40.3525 55.4421 41.1932 54.6958C41.5084 54.4825 41.7186 54.5892 41.9288 54.8024C42.5593 54.0561 43.1898 53.3097 43.8203 52.5634C43.505 53.523 42.6644 54.1627 42.244 55.1222C42.8745 55.1222 43.2949 55.1222 43.6101 54.5892C44.0305 53.9494 44.5559 53.2031 45.3966 52.67C44.8711 53.4164 44.4508 53.9494 44.0305 54.6958C44.3457 54.6958 44.5559 54.6958 44.7661 54.6958C47.7084 54.1627 50.5457 53.6296 53.4881 53.0965C53.9084 52.9899 54.3288 53.0965 54.7491 53.523C54.5389 53.6296 54.4339 53.6296 54.3288 53.6296C53.1728 53.7362 52.0169 53.8428 50.9661 54.0561C48.7593 54.6958 46.5525 54.8024 44.3457 55.3355C43.6101 55.5487 42.8745 55.6553 42.1389 55.8686C41.7186 55.9752 41.2983 55.9752 41.1932 55.3355C40.8779 55.5487 40.6678 55.762 40.4576 55.8686C39.5118 56.7215 38.6711 57.5745 37.7254 58.3208C37.5152 58.534 37.4101 58.7472 37.305 59.0671C37.2 59.2803 37.2 59.4936 36.9898 59.4936C36.3593 59.8134 36.3593 60.3465 36.2542 60.8796C36.1491 61.9458 35.9389 63.1186 35.8339 64.1847C35.8339 64.2914 35.8339 64.5046 35.9389 64.6112C36.3593 65.0377 36.2542 65.4642 36.044 65.9972C35.5186 68.2362 34.8881 70.4752 34.3627 72.7142C33.9423 74.42 33.7322 76.1259 33.4169 77.7252C33.2067 78.898 32.8915 79.9642 32.6813 81.0303C32.4711 81.8833 32.3661 82.7362 32.1559 83.5892C32.0508 83.909 31.9457 84.1222 31.8406 84.4421C31.2101 84.2289 30.8949 84.5487 30.4745 84.9752C30.0542 85.4017 29.6339 85.6149 29.1084 85.8281C28.0576 86.2546 27.0067 86.3612 25.9559 86.5744C25.4305 86.6811 24.8 86.5744 24.2745 86.0414C23.9593 85.6149 23.3288 85.6149 22.6983 85.295C22.6983 85.295 22.5932 85.0818 22.5932 84.9752C22.4881 83.3759 23.5389 81.67 25.0101 80.9237C25.5355 80.7105 25.9559 80.4972 26.4813 80.284C27.1118 80.0708 27.5322 79.6443 27.7423 79.0046C27.7423 78.7914 27.9525 78.6847 28.0576 78.4715C28.1627 78.6847 28.3728 78.898 28.2677 79.0046C28.0576 79.6443 27.9525 80.1774 27.2169 80.4972C26.5864 80.7105 26.061 81.0303 25.5355 81.2436C24.4847 81.67 23.7491 82.4164 23.3288 83.5892C23.0135 84.4421 23.1186 84.6553 23.8542 85.0818C24.0644 85.1884 24.1694 85.295 24.3796 85.295C24.4847 85.295 24.5898 85.295 24.8 85.295C25.2203 84.3355 25.2203 83.1627 26.3762 82.6296C26.3762 82.8428 26.4813 83.0561 26.4813 83.0561C25.8508 83.6958 25.9559 84.6553 25.4305 85.295C25.9559 85.8281 26.5864 85.7215 27.1118 85.4017C27.322 85.295 27.4271 84.8686 27.5322 84.5487C27.6372 84.1222 27.7423 83.6958 28.2677 83.5892C28.6881 84.0156 28.1627 84.4421 28.2677 84.8686C29.4237 85.0818 30.5796 84.5487 31.2101 83.2693C30.8949 83.3759 30.6847 83.3759 30.3694 83.4825C30.4745 83.3759 30.4745 83.2693 30.4745 83.2693C31.105 82.9494 31.4203 82.2031 31.7355 81.67C31.8406 81.5634 31.7355 81.3502 31.7355 81.1369C31.105 81.3502 30.7898 81.9899 30.0542 82.0965C30.3694 81.5634 30.7898 81.3502 31.2101 81.1369C31.7355 80.9237 31.9457 80.6039 32.0508 80.0708C32.261 78.4715 32.5762 76.8722 32.9966 75.273C33.6271 72.2877 34.3627 69.3024 35.0983 66.3171C35.2033 65.9972 35.3084 65.6774 34.9932 65.3575C34.8881 65.2509 34.8881 64.9311 34.9932 64.7178C35.2033 63.3318 35.4135 62.0524 35.6237 60.6664C35.6237 60.3465 35.7288 60.1333 35.8339 59.8134C36.4644 57.5744 37.0949 55.4421 37.6203 53.2031C37.8305 52.2436 38.1457 51.284 38.3559 50.2178C38.461 49.898 38.5661 49.5781 38.9864 49.5781C39.0915 49.898 38.9864 50.2178 38.8813 50.5377C38.3559 52.5634 37.8305 54.4825 37.2 56.5083C37.0949 56.9347 36.9898 57.2546 36.8847 57.6811C36.9898 58.2142 37.0949 58.3208 37.0949 58.3208Z" fill="black"/>
<path d="M20.0703 3.09191C19.3347 2.98529 18.9143 2.77206 18.494 2.55882C17.9686 2.34559 17.4431 2.02574 17.0228 1.8125C15.8669 1.17279 14.6059 1.06618 13.3448 0.959559C12.3991 0.959559 11.4533 0.852941 10.5075 1.17279C10.4025 1.17279 10.4025 1.17279 10.2974 1.17279C9.56179 0.746324 8.93128 1.27941 8.40585 1.59926C7.56518 2.13235 6.93467 2.55882 6.09399 3.09191C5.56856 3.41177 5.04314 3.625 4.51772 3.94485C3.78212 4.37132 3.04653 4.90441 2.31094 5.4375C2.20585 5.54412 2.10077 5.65074 1.99568 5.75735C1.8906 6.61029 1.8906 7.35662 1.78551 8.31618C2.20585 8.10294 2.52111 7.99632 2.83636 7.78309C2.62619 8.31618 2.31094 8.4228 2.10077 8.63603C1.68043 8.95588 1.57534 9.27574 1.78551 9.80882C1.78551 10.1287 1.78551 10.3419 1.68043 10.7684C1.04992 10.2353 1.15501 9.48897 1.15501 8.84927C1.15501 8.20956 1.26009 7.67647 1.36517 7.03677V6.93015C1.36517 6.82353 1.36517 6.71691 1.36517 6.50368C1.04992 5.75735 1.57534 5.33088 2.10077 4.90441C2.20585 4.79779 2.31094 4.79779 2.41602 4.69118C3.36178 3.94485 4.51772 3.30515 5.56856 2.77206C5.77873 2.66544 5.88382 2.55882 6.09399 2.45221C7.35501 1.70588 8.61602 0.959559 9.98212 0.106618C9.98212 0.106618 10.0872 0 10.1923 0L10.2974 0.106618C10.6126 0.426471 11.033 0.426471 11.4533 0.426471C12.1889 0.426471 13.0296 0.426471 13.7652 0.426471C14.5008 0.426471 15.1313 0.533088 15.8669 0.746324C16.7075 0.959559 17.5482 1.38603 18.2838 1.8125C18.8092 2.02574 19.2296 2.34559 19.6499 2.55882C19.755 2.55882 19.755 2.66544 19.8601 2.77206C19.8601 2.87868 19.9652 2.98529 20.0703 3.09191Z" fill="black"/>
<path d="M13.2403 30.1716C13.5556 29.9584 13.7657 29.8518 14.081 29.7452C14.2911 29.6386 14.5013 29.3187 14.9217 29.5319C14.2911 29.9584 13.7657 30.2783 13.2403 30.5981C13.1352 31.2378 13.1352 31.8775 13.0301 32.5172C13.0301 32.6239 13.0301 32.6239 13.0301 32.7305C13.5556 33.4768 13.1352 34.3297 13.1352 35.0761C13.0301 35.929 12.925 36.6753 12.7149 37.5283C12.7149 37.4216 12.6098 37.2084 12.6098 37.1018C12.6098 36.4621 12.6098 35.7158 12.7149 35.0761C12.7149 34.6496 12.925 34.3297 12.5047 33.9033C12.3996 33.7966 12.5047 33.4768 12.5047 33.2636C12.82 31.1312 12.82 28.9989 12.5047 26.8665C12.3996 26.5466 12.2945 26.2268 12.1895 25.9069C12.1895 25.8003 12.2945 25.6937 12.2945 25.4805C12.3996 25.5871 12.6098 25.5871 12.7149 25.6937C12.82 25.8003 12.925 26.0136 12.925 26.2268C13.0301 27.293 13.1352 28.3591 13.3454 29.4253C13.1352 29.5319 13.2403 29.7452 13.2403 30.1716Z" fill="black"/>
<path d="M12.3999 7.67578C12.7151 7.7824 13.0304 7.7824 13.2406 7.88902C13.4507 7.99563 13.6609 8.20887 13.6609 8.42211C13.6609 8.74196 13.4507 8.84858 13.2406 8.84858C12.8202 9.06181 12.2948 9.16843 11.8745 8.84858C11.7694 8.74196 11.5592 8.63534 11.5592 8.42211C11.4541 8.10225 11.6643 7.99563 11.8745 7.88902C11.9795 7.7824 12.1897 7.7824 12.3999 7.67578Z" fill="black"/>
<path d="M40.5626 39.8739C40.1422 38.7011 39.6168 37.6349 39.5117 36.3555C40.6677 37.315 40.3524 38.7011 40.5626 39.8739Z" fill="black"/>
<path d="M49.7051 29.1085C49.8102 28.2555 50.861 27.1893 52.122 26.6562C51.2813 27.4026 50.4407 28.2555 49.7051 29.1085Z" fill="black"/>
<path d="M34.1517 40.0898C33.206 40.9428 32.2602 41.6891 31.3145 42.5421C31.5246 41.7957 32.6806 40.8362 34.1517 40.0898Z" fill="black"/>
<path d="M28.373 63.9692C28.6883 63.2229 29.4239 62.7964 30.2646 62.4766C30.0544 62.5832 29.8442 62.7964 29.7391 62.903C29.529 63.1163 29.3188 63.2229 29.1086 63.4361C28.8985 63.6494 28.7934 63.8626 28.5832 64.0758C28.4781 64.0758 28.4781 63.9692 28.373 63.9692Z" fill="black"/>
<path d="M31.0005 63.4375C30.37 63.9706 29.7395 64.5037 29.0039 65.1434C29.4242 64.1838 30.1598 63.7574 31.0005 63.4375Z" fill="black"/>
<path d="M60.6348 59.1742C60.7399 58.5345 61.3704 57.8948 62.4212 57.1484C61.7907 57.8948 61.1602 58.5345 60.6348 59.1742Z" fill="black"/>
<path d="M61.895 76.125C61.2645 76.4449 60.5289 76.7647 59.8984 77.0846C60.4239 76.3382 61.0544 76.125 61.895 76.125Z" fill="black"/>
<path d="M13.9767 7.67601C13.4513 7.46278 12.4004 7.35616 11.875 7.24954C11.875 7.03631 12.1903 6.92969 12.9258 6.92969C13.2411 6.92969 13.7665 6.92969 13.9767 7.67601Z" fill="black"/>
<path d="M20.4915 13.7539C19.9661 14.1804 19.3356 14.5002 18.7051 14.9267C19.0203 14.1804 19.2305 14.0738 20.4915 13.7539Z" fill="black"/>
<path d="M50.1263 27.1875C49.6009 28.0404 49.0754 28.5735 48.3398 28.8934C48.9704 28.1471 49.3907 27.5074 50.1263 27.1875Z" fill="black"/>
<path d="M4.51953 6.82487C4.93987 6.29179 6.0958 6.3984 6.72631 6.50502C6.30597 6.93149 5.15004 6.93149 4.51953 6.82487Z" fill="black"/>
<path d="M33.5221 41.9023C33.2069 42.3288 32.8916 42.8619 32.5763 43.2884C32.4713 42.6487 32.7865 42.2222 33.5221 41.9023Z" fill="black"/>
<path d="M22.8027 21.7482C23.3282 21.3217 23.8536 20.8952 24.2739 20.4688L24.379 20.5754C23.8536 21.0018 23.4332 21.4283 22.9078 21.9614C22.9078 21.9614 22.9078 21.8548 22.8027 21.7482Z" fill="black"/>
<path d="M32.5763 39.7695C32.1559 40.4092 31.6305 40.8357 31 41.3688C31.2102 40.8357 31.8407 40.196 32.5763 39.7695Z" fill="black"/>
<path d="M29.2129 62.0529C29.8434 61.3065 30.0536 61.0933 30.9993 60.7734C30.2637 61.3065 29.7383 61.733 29.2129 62.0529Z" fill="black"/>
<path d="M10.8243 55.0156C10.509 55.4421 10.0887 55.762 9.77344 56.1884C9.87852 55.4421 10.4039 55.2289 10.8243 55.0156Z" fill="black"/>
<path d="M15.9723 63.2227C15.6571 63.7557 15.3418 64.1822 14.8164 64.6087C15.1317 63.7557 15.2367 63.5425 15.9723 63.2227Z" fill="black"/>
<path d="M10.4043 56.8267C10.5094 56.187 10.8246 55.9738 11.3501 55.8672C11.0348 56.187 10.7196 56.5069 10.4043 56.8267Z" fill="black"/>
<path d="M9.5625 36.9963C9.87775 36.7831 10.193 36.4632 10.5083 36.25L10.6133 36.3566C10.2981 36.6765 9.98284 36.8897 9.66758 37.2096C9.66758 37.1029 9.5625 36.9963 9.5625 36.9963Z" fill="black"/>
<path d="M12.8204 74.3136C12.5051 74.6335 12.0848 75.06 11.7695 75.3798C11.7695 74.7401 12.295 74.5269 12.7153 74.207C12.7153 74.207 12.8204 74.207 12.8204 74.3136Z" fill="black"/>
<path d="M16.6024 11.9414C16.1821 12.2613 15.7618 12.4745 15.2363 12.901C15.5516 12.1546 15.8668 12.048 16.6024 11.9414Z" fill="black"/>
<path d="M5.99006 16.4187C5.77989 16.4187 5.56972 16.5253 5.35955 16.4187C5.25446 16.4187 5.14938 16.2054 5.25447 16.0988C5.25447 16.0988 5.46463 15.9922 5.56972 15.9922C5.77989 15.9922 5.88497 16.0988 6.09514 16.2054C5.99006 16.312 5.99006 16.4187 5.99006 16.4187Z" fill="black"/>
<path d="M6.72639 14.2858C6.51622 14.2858 6.30605 14.3925 6.09588 14.2858C5.99079 14.2858 5.88571 14.0726 5.99079 13.966C5.99079 13.966 6.20096 13.8594 6.30605 13.8594C6.51622 13.8594 6.6213 13.966 6.83147 14.0726C6.72639 14.1792 6.72639 14.2858 6.72639 14.2858Z" fill="black"/>
<path d="M14.3969 30.92C14.0817 31.1333 13.7664 31.2399 13.4512 31.4531C13.5563 30.8134 13.5563 30.8134 14.3969 30.92Z" fill="black"/>
<path d="M54.3293 59.5977C54.1192 59.8109 53.909 60.0241 53.5938 60.2374C53.8039 59.7043 53.8039 59.7043 54.3293 59.5977Z" fill="black"/>
<path d="M32.5762 39.8764C32.8914 39.5565 33.1016 39.3433 33.4168 39.0234C33.2067 39.4499 32.9965 39.6631 32.5762 39.8764Z" fill="black"/>
<path d="M12.8213 15.9936C11.8755 15.5671 10.8247 15.2473 9.87891 14.8208C10.5094 14.7142 11.6653 15.1406 12.8213 15.9936Z" fill="black"/>
<path d="M7.67188 7.25C7.77696 6.61029 7.98713 6.07721 8.09221 5.4375C8.1973 5.86397 8.09221 6.50368 7.67188 7.25Z" fill="black"/>
<path d="M8.40625 7.25C8.51133 6.61029 8.7215 6.07721 8.82659 5.4375C8.93167 5.75735 8.82659 6.50368 8.40625 7.25Z" fill="black"/>
<path d="M18.0742 8.21094C18.1793 7.57123 18.3895 7.03814 18.4946 6.39844C18.5996 6.71829 18.4946 7.46461 18.0742 8.21094Z" fill="black"/>
<path d="M11.1392 16.2078C10.6137 16.2078 10.1934 16.1012 9.66797 15.9946C10.1934 15.6747 10.6137 15.7813 11.1392 16.2078Z" fill="black"/>
<path d="M12.3997 14.6048C11.7692 14.6048 11.2438 14.2849 10.6133 14.0717C11.1387 13.9651 11.7692 14.2849 12.3997 14.6048Z" fill="black"/>
<path d="M12.4004 14.6055C12.7156 14.7121 13.0309 14.8187 13.3462 14.9253C12.9258 14.9253 12.6106 14.9253 12.4004 14.6055Z" fill="black"/>
<path d="M15.7637 18.2314C15.7637 17.8049 15.7637 17.4851 15.7637 17.0586C16.0789 17.3784 16.0789 17.6983 15.7637 18.2314Z" fill="black"/>
<path d="M17.1292 18.8711C17.1292 19.0843 17.0241 19.4042 17.0241 19.6174C16.919 19.4042 16.919 19.0843 17.1292 18.8711Z" fill="black"/>
<path d="M1.78711 9.80785C1.89219 9.16814 2.31253 9.27476 2.73287 9.38138C2.41762 9.48799 2.10236 9.59461 1.78711 9.80785Z" fill="black"/>
<path d="M62.5262 58.9582C62.3161 59.1714 62.1059 59.3847 61.7906 59.5979L61.6855 59.4913C61.8957 59.278 62.1059 59.0648 62.3161 58.8516C62.4211 58.9582 62.4211 58.9582 62.5262 58.9582Z" fill="black"/>
<path d="M10.509 35.2902C10.2989 35.5034 10.0887 35.6101 9.87852 35.8233L9.77344 35.7167C9.98361 35.5034 10.1938 35.3968 10.4039 35.1836C10.509 35.1836 10.509 35.1836 10.509 35.2902Z" fill="black"/>
<path d="M22.909 20.1523C22.6989 20.4722 22.4887 20.6854 22.0684 20.7921C22.3836 20.4722 22.5938 20.1523 22.909 20.1523Z" fill="black"/>
<path d="M7.46111 15.6719C7.5662 15.7785 7.67128 15.8851 7.67128 15.9917L7.5662 16.205C7.46111 16.205 7.35603 16.0983 7.35603 15.9917C7.25094 15.9917 7.35603 15.8851 7.46111 15.6719Z" fill="black"/>
<path d="M62.9453 56.6156C63.0504 56.509 63.2606 56.4023 63.3656 56.4023C63.3656 56.4023 63.3657 56.509 63.4707 56.509C63.2606 56.6156 63.1555 56.7222 63.0504 56.8288C62.9453 56.7222 62.9453 56.6156 62.9453 56.6156Z" fill="black"/>
<path d="M6.0957 17.6976C6.30587 17.591 6.30587 17.4844 6.41096 17.4844C6.41096 17.4844 6.62113 17.591 6.62113 17.6976C6.62113 17.8042 6.51604 17.9108 6.41096 17.9108C6.41096 17.9108 6.30587 17.8042 6.0957 17.6976Z" fill="black"/>
<path d="M62.9453 58.3187C63.0504 58.2121 63.1555 58.1055 63.2606 58.1055C63.2606 58.1055 63.2606 58.2121 63.3656 58.2121C63.2606 58.3187 63.1555 58.4253 63.0504 58.5319C62.9453 58.4253 62.9453 58.4253 62.9453 58.3187Z" fill="black"/>
<path d="M3.57227 22.711C3.88752 22.2845 4.30786 22.1779 4.7282 22.2845C4.41294 22.6044 3.9926 22.6044 3.57227 22.711Z" fill="black"/>
<path d="M4.9383 7.78355C4.9383 7.89017 4.83322 7.99678 4.72813 7.99678C4.62305 7.99678 4.62305 7.78355 4.62305 7.78355C4.62305 7.67693 4.72813 7.57031 4.83322 7.57031C4.9383 7.57031 4.9383 7.67693 4.9383 7.78355Z" fill="white"/>
<path d="M12.1906 8.20818C12.1906 8.3148 12.0856 8.3148 12.0856 8.3148C11.9805 8.3148 11.9805 8.20818 11.9805 8.20818C11.9805 8.10156 12.0856 8.10156 12.0856 8.10156C12.1906 8.10156 12.1906 8.10156 12.1906 8.20818Z" fill="white"/>
<path d="M1.47101 13.4343C1.57609 13.3277 1.68118 13.3277 1.89135 13.3277C1.99643 13.3277 2.2066 13.3277 2.31169 13.3277H2.41677C2.73202 13.3277 3.04728 13.3277 3.25745 13.4343C3.36253 13.4343 3.36253 13.4343 3.46762 13.4343C3.46762 13.3277 3.46762 13.3277 3.46762 13.221C3.15236 13.0078 2.83711 13.0078 2.52186 13.0078H2.41677C2.2066 13.0078 2.10152 13.0078 1.89135 13.0078C1.68118 13.0078 1.57609 13.1144 1.36592 13.221C1.26084 13.221 1.26084 13.3277 1.36592 13.4343C1.26084 13.4343 1.36592 13.5409 1.47101 13.4343Z" fill="white"/>
<path d="M8.72174 12.5792C8.3014 12.6858 7.77598 12.7925 7.25056 12.5792C7.14547 12.5792 7.04039 12.4726 6.9353 12.366C6.51496 11.9395 6.19971 11.513 6.19971 10.7667C6.19971 10.6601 6.19971 10.6601 6.19971 10.5535C6.19971 10.2336 4.83361 10.0204 4.72852 10.0204C4.51835 10.0204 4.30818 10.0204 4.30818 10.2336C4.09801 10.8733 3.4675 11.1932 2.837 11.2998C2.73191 11.2998 2.52174 11.2998 2.41666 11.2998C2.31157 11.2998 2.31157 11.2998 2.31157 11.2998C1.99632 11.1932 1.68106 10.98 1.36581 10.8733C0.630216 10.4469 0.525131 9.80717 0.630216 9.16746C0.630216 9.06084 0.630216 8.95422 0.735301 8.95422C1.05055 8.74099 1.26072 8.42114 1.68106 8.2079C1.99632 7.99466 2.41666 7.99466 2.837 8.10128C2.94208 8.10128 3.15225 8.10128 3.25733 8.2079C3.57259 8.31452 3.88784 8.52775 3.99293 8.84761C4.2031 9.06084 4.30818 9.38069 4.51835 9.70055C4.72852 9.70055 6.09462 10.0204 6.30479 9.91378C6.51496 9.91378 6.51496 9.70055 6.72513 9.48731C7.04039 9.16746 7.46072 9.06084 7.88106 8.84761C7.98615 8.84761 8.09123 8.84761 8.19632 8.84761C8.51157 9.06084 8.93191 9.16746 9.35225 9.38069C9.35225 9.48731 9.45733 9.59393 9.56242 9.70055C9.6675 10.0204 9.77259 10.3403 9.87767 10.6601C9.98276 11.513 9.56242 12.366 8.72174 12.5792Z" fill="white"/>
<path d="M7.67115 11.6197C7.56607 11.6197 7.56607 11.513 7.46098 11.513C7.25081 11.513 7.04065 11.513 6.93556 11.6197H6.83048C6.83048 11.7263 6.93556 11.7263 6.93556 11.8329C7.14573 11.6197 7.3559 11.7263 7.67115 11.6197ZM1.78641 9.48731C1.68132 9.59393 1.57624 9.70055 1.47115 9.70055C1.57624 9.70055 1.68132 9.70055 1.78641 9.48731C1.89149 9.59393 1.99658 9.59393 2.10166 9.48731C1.89149 9.48731 1.78641 9.48731 1.78641 9.48731ZM9.87793 11.1932C9.87793 11.0866 9.87793 10.8733 9.87793 10.7667C9.87793 10.6601 9.87793 10.5535 9.77285 10.5535C9.77285 10.3403 9.66776 10.2336 9.56268 10.0204C9.56268 9.91378 9.45759 9.80716 9.45759 9.80716V9.70055C9.45759 9.70055 9.45759 9.59393 9.35251 9.59393C9.35251 9.59393 9.24743 9.59393 9.35251 9.48731C8.93217 9.38069 8.51183 9.27408 8.09149 9.06084C7.98641 9.06084 7.98641 9.06084 7.98641 9.06084C7.88132 9.06084 7.88132 9.06084 7.77624 9.06084H7.67115C7.56607 9.06084 7.56607 9.16746 7.46098 9.16746H7.3559C7.46098 9.27408 7.3559 9.27408 7.25081 9.27408C7.04065 9.38069 6.93556 9.48731 6.72539 9.59393H6.62031C6.51522 9.59393 6.51522 9.70055 6.51522 9.70055C6.51522 9.80717 6.41014 9.70055 6.41014 9.80716C6.41014 9.91378 6.30505 9.80716 6.30505 9.80716C6.30505 9.91378 6.19997 9.80717 6.19997 9.91378C6.09488 9.91378 5.9898 9.91378 5.88471 9.91378C5.46437 9.91378 4.6237 9.80716 4.51861 9.80716C4.41353 9.70055 4.41353 9.59393 4.30844 9.59393C4.20336 9.27408 4.09827 9.06084 3.8881 8.84761C3.8881 8.74099 3.78302 8.74099 3.78302 8.63437C3.67793 8.52775 3.57285 8.31452 3.36268 8.31452H3.25759C3.25759 8.2079 3.15251 8.2079 3.15251 8.2079C3.04742 8.2079 2.83726 8.2079 2.73217 8.10128C2.31183 7.99466 1.99658 7.99466 1.57624 8.2079C1.47115 8.2079 1.47115 8.2079 1.47115 8.31452C1.1559 8.52775 0.94573 8.84761 0.73556 9.06084C0.73556 9.16746 0.630475 9.06084 0.630475 9.16746C0.525391 9.16746 0.525391 9.27408 0.525391 9.38069C0.525391 9.59393 0.525391 9.70055 0.525391 9.91378C0.525391 10.0204 0.525391 10.0204 0.525391 10.127V10.2336C0.525391 10.3403 0.525391 10.4469 0.630475 10.5535C0.630475 10.6601 0.73556 10.7667 0.73556 10.7667C0.840645 10.8733 1.05081 11.0866 1.1559 11.1932H1.26098C1.36607 11.1932 1.36607 11.2998 1.47115 11.2998C1.57624 11.2998 1.57624 11.4064 1.68132 11.4064C1.78641 11.513 1.99658 11.513 2.10166 11.6197C2.20675 11.6197 2.20675 11.6197 2.20675 11.6197C2.31183 11.6197 2.522 11.6197 2.62709 11.6197C2.73217 11.6197 2.94234 11.513 3.04742 11.513C3.46776 11.4064 3.78302 11.1932 3.99319 10.7667C4.20336 10.5535 4.20336 10.4469 4.20336 10.3403C4.30844 10.127 4.51861 10.0204 4.6237 10.127C4.83387 10.127 5.56946 10.2336 5.9898 10.5535C6.09488 10.5535 6.09488 10.5535 6.09488 10.6601C6.19997 10.6601 6.19997 10.6601 6.19997 10.6601C6.19997 10.7667 6.19997 10.7667 6.19997 10.8733C6.19997 10.98 6.19997 10.98 6.19997 11.0866C6.19997 11.6197 6.51522 12.0461 6.83048 12.4726C6.83048 12.4726 6.83048 12.4726 6.93556 12.4726C6.93556 12.4726 6.93556 12.4726 7.04065 12.4726C7.04065 12.5792 7.14573 12.5792 7.25081 12.5792C7.67115 12.6858 8.09149 12.6858 8.51183 12.5792C8.61692 12.5792 8.61692 12.5792 8.61692 12.5792H8.722C9.03726 12.4726 9.35251 12.2594 9.56268 12.0461C9.77285 11.8329 9.87793 11.513 9.87793 11.1932ZM1.99658 11.0866C1.78641 11.0866 1.57624 10.98 1.47115 10.8733C1.36607 10.8733 1.36607 10.7667 1.26098 10.7667C1.1559 10.5535 1.05081 10.5535 0.94573 10.3403C1.36607 10.0204 1.78641 10.127 2.10166 9.80716C1.68132 9.80716 1.26098 9.91378 0.94573 10.0204C0.94573 10.0204 0.94573 10.0204 0.840645 10.0204C0.73556 9.91378 0.840645 9.91378 1.05081 9.80716C1.1559 9.80716 1.26098 9.70055 1.47115 9.70055C1.57624 9.59393 1.68132 9.59393 1.78641 9.48731C1.89149 9.48731 1.89149 9.48731 1.99658 9.38069C1.89149 9.38069 1.78641 9.38069 1.68132 9.38069C1.57624 9.48731 1.57624 9.48731 1.47115 9.59393C1.26098 9.59393 1.1559 9.70055 0.94573 9.80716H0.840645C0.840645 9.59393 0.840645 9.38069 1.05081 9.16746C1.47115 8.52775 1.99658 8.31452 2.73217 8.42114C2.94234 8.42114 3.15251 8.52775 3.25759 8.63437C3.57285 8.84761 3.78302 9.16746 3.99319 9.59393C4.09827 9.80716 4.09827 10.0204 4.09827 10.2336C4.09827 10.4469 3.99319 10.6601 3.8881 10.7667C3.78302 10.8733 3.57285 11.0866 3.46776 11.0866C3.36268 11.1932 3.15251 11.1932 3.04742 11.1932C2.62709 11.1932 2.31183 11.1932 1.99658 11.0866ZM8.51183 12.366C8.40675 12.366 8.40675 12.366 8.40675 12.366H8.30166C7.98641 12.4726 7.77624 12.366 7.56607 12.366C7.3559 12.366 7.14573 12.1528 7.04065 12.0461C7.04065 11.9395 6.93556 11.9395 6.93556 11.8329H7.04065C7.14573 11.6197 7.3559 11.7263 7.67115 11.6197C7.67115 11.6197 7.67115 11.6197 7.56607 11.6197C7.46098 11.6197 7.46098 11.513 7.3559 11.513C7.14573 11.513 6.93556 11.513 6.83048 11.6197H6.72539C6.62031 11.6197 6.51522 11.6197 6.51522 11.513C6.51522 11.4064 6.51522 11.4064 6.51522 11.2998C6.51522 11.1932 6.62031 11.2998 6.62031 11.1932C6.72539 11.0866 6.93556 11.0866 7.04065 11.0866C7.14573 11.0866 7.14573 11.0866 7.14573 11.0866C7.25081 11.0866 7.25081 11.0866 7.3559 11.0866V10.98C7.25081 10.98 7.14573 10.98 7.04065 10.98C6.83048 10.98 6.62031 11.0866 6.41014 11.1932C6.41014 11.0866 6.41014 11.0866 6.41014 10.98C6.41014 10.8733 6.41014 10.6601 6.51522 10.5535C6.51522 10.3403 6.51522 10.2336 6.62031 10.0204C6.62031 10.0204 6.62031 10.0204 6.62031 9.91378C6.93556 9.80717 7.25081 9.59393 7.56607 9.48731H7.67115C7.77624 9.48731 7.77624 9.38069 7.88132 9.38069C7.98641 9.38069 7.98641 9.38069 8.09149 9.27408C8.19658 9.27408 8.40675 9.27408 8.51183 9.38069C8.61692 9.48731 8.82709 9.59393 9.14234 9.80716C9.24743 9.80716 9.35251 9.91378 9.35251 10.0204C9.45759 10.3403 9.66776 10.5535 9.66776 10.8733C9.77285 11.513 9.14234 12.1528 8.51183 12.366Z" fill="black"/>
</g>
<defs>
<clipPath id="clip0_12765_8739">
<rect width="93" height="87" fill="white"/>
</clipPath>
</defs>
</svg>
