<svg width="106" height="90" viewBox="0 0 106 90" fill="none" xmlns="http://www.w3.org/2000/svg">
<circle cx="55.9563" cy="48.0071" r="34.4993" fill="#F7BE45" fill-opacity="0.85"/>
<path d="M36.1755 66.6581C37.183 68.0532 38.8881 68.6732 40.5544 69.1382C43.6158 69.952 47.0259 70.2233 49.8548 68.8282C50.3586 68.5957 50.9011 68.1694 50.7849 67.6269C50.7074 67.2781 50.3973 67.0456 50.0873 66.8519C49.351 66.4256 48.576 66.1156 47.7622 65.9606C46.8709 65.7668 45.9409 65.7668 45.0496 65.5731C44.3521 65.4181 43.6933 65.1081 42.9958 64.8368C40.5932 63.8292 31.8353 60.6516 36.1755 66.6581Z" fill="#BCBCBB"/>
<path d="M22.6486 29.0256C24.3924 29.9944 25.8262 33.172 27.26 34.5283C29.8564 36.9697 30.7477 38.4422 30.9802 42.0074C31.1739 45.0687 35.7854 48.9827 35.9791 52.044C36.0954 54.0591 34.8166 59.0581 35.3204 60.9957C37.0642 67.7772 40.6681 69.1335 47.6821 69.1723C49.6585 69.1723 52.1773 68.126 51.9061 66.1496C51.7123 64.8708 50.356 64.1346 49.116 63.9408C47.8372 63.747 46.5196 63.902 45.3183 63.5533C42.9544 62.8557 41.5594 60.2594 41.5206 57.818C41.4819 55.3767 42.4894 53.0516 43.652 50.8815C43.962 50.2615 44.3883 49.6027 45.0858 49.5252C46.0158 49.3702 46.6746 50.339 47.1009 51.1527C49.6197 55.6092 52.9911 59.5231 57.0213 62.7007C58.7264 64.0183 60.5864 65.2583 62.7178 65.7234C64.8491 66.1884 67.2517 65.7234 68.7243 64.1346C70.2356 63.282 69.2668 60.7632 67.6392 60.1819C66.0117 59.6394 64.2291 60.2206 62.524 60.2594C58.1838 60.4144 54.0374 56.6942 53.7662 52.3541C53.6887 51.424 53.8049 50.4165 54.3087 49.6414C54.6574 49.0989 55.1225 48.7114 55.6262 48.2851C57.0213 47.0838 58.4551 45.9213 59.8502 44.7587C60.5477 44.1775 61.2452 43.5962 62.0978 43.2862C63.3378 42.8599 64.6941 43.0924 65.8954 43.6349C69.8481 45.5338 71.2819 50.4552 71.3594 54.8729C71.4369 59.9106 70.0806 65.3359 66.2054 68.5522C64.6554 69.831 62.6015 71.0711 62.6015 73.0474C66.4767 74.0162 70.5844 71.8074 73.0257 68.6297C75.4671 65.4521 76.5909 61.4994 77.6759 57.663C78.761 53.8266 79.8848 49.8352 82.2874 46.6576C84.1087 44.255 86.6275 42.3949 88.4101 39.9535C90.6577 36.8534 91.5878 33.017 93.7966 29.8781C95.1529 27.9405 96.9355 26.3517 98.098 24.2979C99.0281 22.6315 99.4931 20.7715 99.7256 18.8726C100.578 12.6336 98.8343 5.61957 93.7191 1.97692C91.7815 0.581859 89.3789 -0.270678 87.0151 0.0780866C84.6512 0.3881 82.4036 2.05442 81.7836 4.34077C83.7212 5.65832 86.5113 4.57328 88.6426 5.54207C90.0377 6.16209 90.8902 7.55716 91.6653 8.87471C93.0216 11.1998 94.3391 13.6412 94.4554 16.315C94.5716 18.9889 93.0216 21.934 90.4252 22.5153C88.1389 23.0191 85.8525 21.6628 84.2249 19.9964C82.5974 18.3301 81.2411 16.3538 79.3422 14.9975C75.2346 12.1686 69.5381 13.2149 65.0816 15.4625C60.6252 17.7101 56.75 21.0427 52.0611 22.8253C50.8598 23.2903 49.6197 23.6391 48.3409 23.4841C47.0234 23.3291 45.8221 22.6703 44.6983 22.0115C42.5282 20.7715 40.3968 19.5314 38.2267 18.2914C36.7542 17.4388 35.0491 15.8888 35.8241 14.3774C36.1729 13.7187 36.9092 13.3699 37.413 12.8274C39.0018 11.1998 38.188 8.29344 36.3667 6.97588C34.5453 5.65832 32.1427 5.50332 29.8951 5.46457C28.1126 5.42581 26.33 5.46456 24.5087 5.54207C23.3461 5.58082 22.1448 5.65832 21.2148 6.3171C20.3622 6.85962 19.781 7.82842 18.9284 8.37094C17.3396 9.37848 15.2083 8.75846 13.6195 7.71216C12.0306 6.66587 10.6743 5.30956 8.96926 4.57328C6.76041 3.72074 4.35781 4.03075 2.03271 4.34077C0.908912 7.90592 3.19526 12.2073 6.79916 13.2924C7.92296 13.6024 9.08551 13.6799 10.1318 14.1837C11.1781 14.6875 7.88421 15.1912 7.53544 16.315C5.59786 16.5088 7.92296 16.625 5.98538 16.5088C4.0478 16.3925 1.8777 16.78 0.715154 18.3301C-0.873663 20.4615 0.36639 23.7941 2.65274 25.1892C4.93908 26.5842 7.76795 26.623 10.4418 26.4292C12.6507 26.2742 15.712 25.1504 17.8821 25.6154C19.8197 25.9642 20.9435 28.0955 22.6486 29.0256Z" fill="white"/>
<path d="M34.2355 19.884C34.5455 19.884 34.8555 19.8452 35.088 19.6515C35.4368 19.3802 35.4755 18.8764 35.4755 18.4502C35.4755 17.5589 35.5143 16.6288 35.5143 15.7376C33.4604 14.6525 31.0191 15.3113 28.8102 15.1175C28.074 15.04 25.0901 13.9937 24.5863 14.7688C23.85 15.8538 26.7564 18.1402 27.4539 18.5664C29.4303 19.6515 31.9879 19.9615 34.2355 19.884Z" fill="#BCBCBB"/>
<path d="M50.3166 57.4266C51.7892 59.0155 52.8355 60.9918 54.4243 62.4256C57.0594 64.7507 60.8183 65.2932 64.3447 65.0607C64.5772 65.0607 64.8097 65.022 65.0035 64.867C65.1585 64.7119 65.1972 64.5182 65.1972 64.3244C65.236 63.1619 64.2672 62.1931 63.2209 61.7281C62.1746 61.2243 61.0121 61.0693 59.9658 60.5268C56.8656 59.0155 55.9356 55.179 54.4243 52.0789C54.0368 51.2264 53.4942 50.3738 52.6417 49.9863C52.1767 49.7926 51.6729 49.7538 51.1691 49.7538C49.5028 49.7151 45.2014 49.4051 45.0464 52.0014C44.9301 54.1328 48.9991 56.0703 50.3166 57.4266Z" fill="#BCBCBB"/>
<path d="M69.4966 14.8008C69.8066 15.6146 69.4191 16.5446 68.7603 17.1259C68.1016 17.7072 67.2878 18.0172 66.5128 18.4047C64.6914 19.296 63.0251 20.5748 61.7076 22.1248C59.6925 24.4887 58.1036 27.6663 55.1198 28.3639C52.8334 28.9064 50.5083 27.7438 48.4157 26.6588C46.9432 25.8837 45.5094 25.1087 44.0368 24.3337C39.9679 22.1636 45.2381 21.4661 47.2532 21.2723C49.3845 21.0398 51.3609 21.0398 53.4535 20.381C58.8787 18.7534 63.7614 15.4208 69.4966 14.8008Z" fill="#BCBCBB"/>
<path d="M6.41343 6.75371C6.9947 6.09493 8.04099 5.90117 8.93228 6.09493C9.82357 6.28869 10.5986 6.79246 11.3349 7.29623C12.5362 8.14877 14.6288 9.35007 14.3963 11.0551C14.2025 12.4502 12.0324 13.8453 10.7149 13.884C8.04099 13.9615 4.28209 9.15631 6.41343 6.75371Z" fill="#BCBCBB"/>
<path d="M29.9324 12.3897C29.8161 12.8548 29.6999 13.281 29.5836 13.7848C30.3199 14.2886 31.1724 14.5211 32.025 14.4823C33.8851 14.3661 35.6676 13.9398 37.0239 12.4672C37.954 11.4209 38.5352 8.9796 37.7602 7.31327C37.3727 6.49949 36.6752 5.99572 35.7064 5.91821C34.0788 5.76321 32.4512 5.64695 30.8237 5.49195C29.7774 5.41444 28.7698 5.49195 27.801 5.84071C26.9485 6.15072 26.0185 6.22823 25.1659 6.15073C23.3446 5.95697 21.9495 6.65449 20.6707 7.85579C20.5932 7.9333 20.5157 7.97205 20.4382 8.0108C20.3995 8.0108 20.3995 8.0108 20.322 8.0108C20.1282 7.66204 20.322 7.39078 20.5545 7.15827C21.6783 6.18948 22.9183 5.37569 24.5072 5.5307C25.5922 5.6082 26.6385 5.49195 27.7235 5.14318C28.7311 4.83317 29.7774 4.71691 30.8624 4.83317C32.6062 4.98818 34.3501 5.18193 36.0939 5.37569C37.4114 5.5307 38.4965 6.53824 38.8065 7.85579C39.1553 9.40586 39.0778 10.8784 38.3415 12.3122C37.7602 13.4748 36.7914 14.0173 35.7064 14.5598C35.2801 14.7536 34.8538 14.9473 34.3501 15.1799C35.0476 16.0711 35.8226 16.6912 36.6752 17.2337C36.9852 17.4275 37.2952 17.5825 37.5277 17.815C38.574 18.745 39.7753 19.4813 41.0154 20.1788C41.9841 20.7213 43.0692 20.9151 44.1542 21.0313C45.8206 21.2251 47.4869 21.4964 49.1144 20.9926C51.5171 20.2951 53.9584 19.5588 56.361 18.7838C57.2523 18.4737 58.1048 17.97 58.9574 17.5437C61.5925 16.2649 64.4213 15.4899 67.2115 14.7923C69.149 14.2886 71.2029 14.2886 73.1792 14.1336C75.6593 13.9786 78.0232 14.3273 80.387 14.8698C81.8208 15.1799 83.1384 15.9161 84.4172 16.5362C84.9597 16.8074 85.541 17.0399 86.006 17.3887C87.2461 18.28 88.6799 19.0163 89.4549 20.4888C89.6099 20.7988 89.8424 21.0314 90.1137 21.3801C90.3462 21.1864 90.5787 21.0313 90.7337 20.8376C91.4312 19.9463 91.78 18.9388 91.8963 17.8537C92.0513 16.4199 92.1288 14.9861 92.1675 13.5523C92.245 10.8784 91.625 8.39832 89.7262 6.42199C88.8736 5.5307 87.8273 5.10443 86.5485 5.18193C84.8822 5.29819 83.2546 5.37569 81.5883 5.6857C80.9683 5.80196 80.2708 5.64695 79.612 5.56945C79.1857 5.49195 78.8757 5.22068 78.7207 4.75566C79.0695 4.13564 79.5732 3.67062 80.1933 3.2831C80.7358 2.93434 81.2396 2.54682 81.7433 2.19806C82.8671 1.38427 83.9134 0.492986 85.3085 0.221725C85.7735 0.144222 86.2773 0.105469 86.7423 0.105469C89.0286 0.221724 91.1987 0.802999 93.2913 1.81054C94.4926 2.39182 95.3064 3.36061 96.0814 4.4069C97.5928 6.42199 98.7553 8.59208 99.6466 10.9559C100.77 13.9786 100.848 17.0787 100.189 20.2176C100.073 20.7988 99.7628 21.3414 99.5303 21.8839C99.4916 21.9614 99.4141 22.0389 99.3753 22.1164C98.7941 23.899 97.5927 25.3715 96.5852 26.8828C95.6939 28.2004 94.6089 29.4017 92.8263 29.5567C92.71 29.5567 92.5938 29.6342 92.4388 29.673C92.2838 30.4867 92.1288 31.3005 91.9738 32.1143C91.5862 34.2457 90.9275 36.2607 89.6099 38.0433C89.4162 38.3146 89.2224 38.6246 88.9511 38.8571C88.0599 39.6321 87.0911 40.3297 86.2385 41.1047C84.9597 42.2285 83.6809 43.4298 82.4021 44.5923C82.2859 44.7086 82.1696 44.8249 82.1308 44.9799C81.6271 46.0649 80.9295 47.0724 80.697 48.3125C80.5033 49.2425 80.077 50.1338 79.8445 51.0639C79.5732 52.0327 79.2632 53.0014 78.9145 53.9702C78.5657 54.9003 78.3332 55.8691 78.1394 56.8379C77.7519 58.7754 77.2094 60.6743 76.5119 62.5344C76.0468 63.7744 75.6981 65.092 75.3106 66.3708C75.1555 66.8358 74.923 67.2233 74.4968 67.4946C73.1405 68.3471 71.8229 69.2384 70.5054 70.1297C70.1178 70.4009 69.6916 70.6334 69.3428 70.9435C68.3353 71.796 67.3277 72.726 66.3202 73.5786C65.3126 74.4311 64.1501 74.9349 62.8325 74.9349C61.2437 74.9736 59.8487 73.2298 60.2362 71.7572C60.4687 70.9435 61.05 70.3234 61.7862 69.8972C62.9875 69.2384 64.1888 68.5409 65.3514 67.8821C66.9402 66.9908 67.6377 66.2933 68.4903 64.937C68.4128 64.937 68.2965 64.8982 68.2578 64.937C66.7464 65.9832 65.0414 66.0995 63.2975 65.9832C61.8637 65.9057 60.4687 65.6732 59.0736 65.2857C57.8723 64.937 56.671 64.6269 55.5472 64.0844C54.2297 63.4644 53.2996 62.4181 52.4858 61.2943C51.2458 59.6667 50.0445 58.0004 48.7269 56.4503C47.8744 55.4428 46.8669 54.5515 45.8981 53.5827C45.4718 53.1565 45.0455 52.7302 44.658 52.2652C44.4643 52.0327 44.3867 51.7614 44.813 51.4901C45.9368 52.4977 47.0994 53.544 48.3007 54.5903C49.3082 54.164 49.5795 53.0402 50.5095 52.5364C49.9282 53.3115 49.3082 54.0865 48.6882 54.9003C48.8044 55.0553 48.9594 55.2103 49.1532 55.4428C49.8507 54.784 50.4708 54.1252 51.1295 53.5052C51.1683 53.544 51.2458 53.5827 51.2845 53.6602C50.9745 53.9702 50.6645 54.2803 50.3545 54.5903C50.0445 54.9003 49.7732 55.249 49.4245 55.5978C49.6182 55.8303 49.7345 55.9853 49.8895 56.1403C50.4708 55.6366 51.0133 55.1328 51.5558 54.6678H51.517C51.3233 54.939 51.1295 55.249 50.9358 55.5203C50.7033 55.8691 50.432 56.1791 50.1607 56.5278C50.742 57.3416 51.2845 58.1167 51.8658 58.8529C52.6408 59.8605 53.4159 60.7905 54.1909 61.7981C54.9272 62.7281 55.896 63.3481 57.0198 63.6969C59.4224 64.4332 61.8637 65.0532 64.4213 65.3245C65.7777 65.4407 66.9402 65.2082 67.9865 64.4719C68.2578 64.2782 68.4903 64.0069 68.7228 63.7356C69.0328 63.4256 69.0715 62.9219 69.5366 62.7281C69.6141 62.6894 69.6528 62.4568 69.6916 62.3018C70.2341 59.8992 70.7379 57.4966 71.0866 55.094C71.2029 54.2415 71.3191 53.389 71.4354 52.5364C71.6292 50.7539 71.0091 49.6301 69.4591 48.7775C69.2265 48.6613 68.994 48.545 68.7615 48.4288C66.7464 47.5375 65.5839 45.8324 64.5376 44.0111C64.3051 43.5848 64.1113 43.1585 63.8401 42.6935C62.3675 43.2748 61.1662 44.1661 60.1199 45.2511C59.6549 45.7549 59.1511 46.2587 58.6474 46.7624C57.291 48.0025 55.9347 49.2038 54.1909 49.8626C54.0747 49.9013 53.9972 49.9788 53.8421 50.0951C54.0359 50.9089 54.4234 51.6451 54.8497 52.3427C55.5085 53.389 56.1672 54.3578 56.7873 55.404C57.3685 56.4116 57.9111 57.4966 58.4536 58.5429C58.8411 59.2792 59.4224 59.628 60.2362 59.8605C62.0575 60.403 63.9176 60.5968 65.8164 60.7518C66.2427 60.7905 66.5527 60.5968 66.9015 60.4418C67.444 60.1705 67.9865 59.8992 68.529 59.7055C68.994 59.5117 69.4203 59.628 69.8853 60.093C68.8003 60.403 67.5602 60.248 67.1727 61.5656C64.7314 61.4881 62.3288 61.1005 59.9649 60.558C59.2674 60.403 58.6861 60.0155 58.2598 59.3955C57.9498 58.9304 57.6398 58.5042 57.4461 58.0004C56.5935 56.1016 55.4697 54.3578 54.3459 52.6139C54.0359 52.1489 53.8034 51.6064 53.5709 51.1026C53.3384 50.6376 53.0284 50.4051 52.4471 50.4438C50.8195 50.5213 49.192 50.4826 47.5644 50.5988C46.4793 50.6763 45.433 50.9089 44.3867 51.0639C43.6117 52.0714 43.4567 53.2727 43.1467 54.3965C42.7979 55.6366 42.4879 56.9154 42.2167 58.1942C41.9841 59.2405 41.8291 60.2868 41.6741 61.2943C41.5579 61.9918 41.8679 62.5731 42.4492 62.9219C43.573 63.6581 44.6968 64.3944 46.1306 64.3944C46.3631 64.3944 46.5568 64.4719 46.7893 64.5494C46.8281 64.5494 46.8669 64.6269 46.9444 64.7432C46.2856 65.0532 45.6268 65.1307 44.9293 64.937C43.728 64.5882 42.6429 63.9682 41.6741 63.1544C41.0929 62.6506 40.8216 61.9918 41.0154 61.178C41.3641 59.7055 41.6354 58.1942 42.0229 56.6828C42.4492 54.9778 42.9142 53.2727 43.418 51.6064C43.573 51.1414 43.263 50.9089 43.1079 50.6763C43.3405 50.2501 43.6505 50.3276 43.9217 50.3276C44.5418 50.2888 45.1618 50.3663 45.7431 50.2501C47.7194 49.8626 49.6957 50.0176 51.6721 49.8626C52.0983 49.8238 52.5633 49.8238 52.9896 49.7463C53.5321 49.6301 53.9197 49.3975 54.0359 48.7C54.1909 47.6925 54.6172 46.7624 55.3147 45.9487C54.9659 46.9949 54.3072 47.925 54.3072 49.1263C54.7722 49.1263 54.9272 48.8938 55.0822 48.545C55.5085 47.6925 55.9735 46.8787 56.4385 46.0262C56.516 46.0649 56.5548 46.1037 56.6323 46.1037C56.2835 46.8399 55.896 47.5762 55.5085 48.3512C55.9735 48.39 56.206 48.1575 56.4773 47.925C57.5623 46.9174 58.6086 45.9099 59.6936 44.9024C60.2749 44.3598 60.8949 43.8561 61.3987 43.4298C61.3987 42.8485 61.36 42.3835 61.36 41.9185C61.36 41.7635 61.3987 41.5697 61.36 41.4535C60.9724 40.3297 60.7787 39.0896 60.1199 38.0433C59.3061 36.687 58.9186 35.2532 59.3061 33.6644C59.5774 32.4631 59.9262 31.3393 60.5849 30.293C61.3212 29.0529 61.9412 27.7354 62.6775 26.5341C63.9951 24.3252 65.8939 22.8914 68.4515 22.3489C70.5441 21.8839 72.6754 21.6901 74.768 21.1476C77.5969 20.4113 80.4645 19.6363 82.8671 17.7762C83.1384 17.5825 83.4097 17.3499 83.7197 17.0787C83.4484 16.8849 83.2934 16.7687 83.0996 16.6524C81.3171 15.6836 79.3795 15.3349 77.4419 14.9861C74.0318 14.4048 70.6216 14.6761 67.2502 15.3349C66.1652 15.5674 65.1189 15.9936 64.0338 16.3037C61.6312 16.9624 59.3449 17.97 57.136 19.1325C56.2448 19.5975 55.2372 19.8301 54.2684 20.1788C53.8809 20.3338 53.5321 20.4888 53.1446 20.6438L53.1834 20.6051C52.7959 20.7601 52.4083 20.9151 51.9821 21.1089H52.0208C51.9046 21.0313 51.7883 20.9151 51.6721 20.9151C51.362 20.9538 51.052 20.9926 50.742 21.1089C48.2619 22.0389 45.7818 21.7289 43.2629 21.3414C40.9766 20.9926 39.1553 19.8688 37.4502 18.3962C36.8302 17.8537 36.1326 17.4275 35.4739 16.8849C34.9313 16.4199 34.4663 15.9549 33.8463 15.3736C33.4588 15.3736 32.9163 15.4511 32.3737 15.4124C29.9711 15.2574 27.7623 14.5211 25.8635 12.9323C25.2047 12.3897 24.5847 11.886 23.9259 11.3434C22.8796 10.5297 21.6783 10.0259 20.477 9.48337C20.2832 9.40586 20.012 9.32836 19.9345 9.17335C19.6632 8.63083 19.2369 8.70833 18.7719 8.78584C18.6944 8.78584 18.6557 8.82459 18.5782 8.82459C16.1368 9.01834 14.858 10.6072 14.0442 12.661C13.6567 13.6685 13.0754 14.5211 11.9904 14.9086C11.6804 15.0248 11.4091 15.2961 11.0991 15.5286C10.0528 15.7224 8.96775 15.9549 7.84395 16.1874C6.72015 16.4199 5.59635 16.6912 4.55006 17.3887C5.24759 18.28 4.97633 19.2875 4.62756 20.1788C4.24005 21.2251 3.42626 21.9614 2.49622 22.5427C2.30247 22.6589 2.10871 22.7364 1.8762 22.8527C2.0312 24.0927 2.68998 24.9453 3.81378 25.3328C4.39505 25.5265 4.97633 25.604 5.59635 25.6815C6.48764 25.7978 7.37893 25.8366 8.27022 25.9916C10.5566 26.3403 12.8042 25.9141 15.013 25.449C16.1756 25.2165 17.0668 24.4415 18.0356 23.8602C18.1519 23.7827 18.2681 23.6277 18.4231 23.589C18.5394 23.5502 18.8107 23.5502 18.8494 23.6277C18.9269 23.7827 18.9269 24.0152 18.8494 24.1315C18.7332 24.3252 18.5394 24.4415 18.3456 24.5965C18.5782 24.8678 18.7719 25.1003 19.0044 25.3328C19.9732 24.054 19.9732 24.0152 21.6395 23.8215C22.0271 23.7827 22.4921 23.7827 22.8796 23.8602C24.3134 24.1702 25.7472 24.0927 27.181 23.8215C27.7623 23.7052 28.1886 23.434 28.3436 22.8139C28.7698 21.2251 29.8549 20.2951 31.3662 19.7913C32.7225 19.3263 34.0401 18.745 35.1251 17.7762C35.2026 17.6987 35.2801 17.66 35.3576 17.66C35.3964 17.6212 35.4739 17.66 35.5901 17.66C35.6676 18.125 35.3576 18.3575 35.0476 18.5512C34.1563 19.0938 33.3425 19.7525 32.2962 20.0626C31.6375 20.2563 31.0174 20.6051 30.3587 20.9151C29.8161 21.1864 29.5061 21.6901 29.2736 22.1939C29.0411 22.6589 28.8086 23.1239 28.6148 23.589C28.4211 23.9377 28.1498 24.1702 27.7235 24.2477C26.0572 24.5965 24.3521 24.7903 22.6858 24.4415C21.9108 24.2865 21.2133 24.4802 20.5157 24.6353C19.7795 24.829 19.4307 25.7978 19.857 26.4178C20.5932 27.3866 21.3683 28.3167 22.2208 29.363C22.6083 28.8592 22.9183 28.4717 23.2284 28.0841C23.2671 28.1229 23.3059 28.1229 23.3446 28.1617C23.1896 28.4717 23.0346 28.7817 22.8408 29.0917C22.5696 29.518 22.6471 29.8667 23.1896 30.1767C23.4609 29.8667 23.7709 29.518 24.0809 29.1692C24.1196 29.2079 24.1584 29.2079 24.1971 29.2467C23.9646 29.673 23.6934 30.0605 23.4221 30.603C24.8559 32.3081 26.716 33.5869 28.3436 35.1757C28.4986 35.0207 28.6536 34.8657 28.8086 34.7494C29.2349 34.8269 29.4674 35.0982 29.4674 35.4857C29.5449 37.9658 30.5524 40.2134 31.2887 42.4998C31.8312 44.2436 32.5675 45.9099 33.4975 47.4987C34.1563 48.5838 35.0089 49.475 35.8226 50.4051C36.2489 50.8701 36.3652 51.3351 36.2877 51.9552C36.0939 53.544 35.9776 55.1328 35.8226 56.7216C35.7451 57.5741 35.6289 58.4267 35.5901 59.2792C35.5514 59.7442 35.6289 60.2093 35.6289 60.868C36.0939 60.6355 36.4427 60.5193 36.6364 60.3255C37.0627 59.8605 37.4502 59.3567 37.799 58.8142C38.109 58.3492 38.3415 57.8066 38.729 57.3416C39.659 56.2566 39.7753 54.9778 39.8528 53.6602C39.8916 53.0789 39.8528 52.4977 39.9303 51.9552C40.1241 50.4438 39.7365 49.1263 38.9615 47.8475C38.729 47.4212 38.4965 47.0337 38.264 46.5687C37.3727 44.7086 36.2877 43.0035 35.2026 41.2597C34.5438 40.1747 34.0401 38.9734 33.4975 37.8496C33.2263 37.307 33.0325 36.7258 32.7613 36.1832C31.8312 34.2844 31.56 32.3081 31.6762 30.2155C31.7925 27.5804 32.9163 25.294 33.9238 22.9689C34.4276 21.8451 35.0089 20.7988 35.5901 19.7138C35.6676 19.5588 35.8614 19.4425 36.1326 19.365C36.1326 19.52 36.1326 19.675 36.0551 19.7913C34.8926 21.8451 33.8463 23.9377 33.0325 26.1853C32.5675 27.4641 32.18 28.7429 32.1412 30.0992C32.1025 30.9518 32.18 31.8043 32.2575 32.6568C32.4125 33.9744 32.7613 35.292 33.4588 36.4933C33.9626 37.4233 34.2338 38.4696 34.7376 39.3996C35.5514 40.9109 36.4814 42.3447 37.334 43.8561C38.109 45.2124 38.884 46.6074 39.6203 47.9637C40.2403 49.1263 40.5116 50.3663 40.3953 51.6451C40.3178 52.8464 40.2403 54.0477 40.1241 55.2878C40.0466 56.1016 39.7753 56.7991 39.2715 57.4966C38.729 58.2329 38.264 59.0467 37.799 59.8605C37.2952 60.6743 36.7139 61.2555 35.6676 61.333C35.5126 63.0381 35.7839 64.5882 36.5589 66.022C36.8302 66.5645 37.3727 67.0683 37.8765 67.3783C39.2328 68.2308 40.6666 68.9671 42.3329 69.0834C42.7979 68.3083 42.9142 67.3396 43.7667 66.797C43.6117 67.107 43.418 67.4171 43.2629 67.7658C43.1467 68.0371 43.0304 68.3471 42.9529 68.6571C42.9142 68.7734 42.9529 68.8896 42.9529 69.0446C42.9529 69.0834 43.0304 69.1609 43.0692 69.1996C43.2242 69.2384 43.3792 69.2384 43.5342 69.2771C43.883 68.5021 44.2317 67.7658 44.5805 67.0295C44.6193 67.0683 44.6968 67.0683 44.7355 67.107C44.503 67.7271 44.3092 68.3471 44.038 69.0446C44.7355 69.1609 45.0455 68.5796 45.588 68.4633C45.588 68.6571 45.588 68.8509 45.588 69.0834C47.2544 68.8121 48.9594 68.9284 50.587 68.3858C50.7033 68.3471 50.8195 68.3083 50.9745 68.2308C50.8195 67.8821 50.277 67.5721 50.7808 67.262C51.2458 66.952 51.2845 67.6108 51.6333 67.7271C52.2533 67.4946 52.6408 66.9908 52.8346 66.3708C53.1059 65.5182 52.2921 64.3169 51.2845 64.0844C50.3157 63.8519 49.3082 64.0069 48.3394 64.1232C47.9519 64.1619 47.5644 64.1619 47.2156 64.1619C47.0994 64.1619 47.0219 63.9682 46.8281 63.8132C47.0994 63.7357 47.2544 63.6581 47.4481 63.6194C48.4557 63.5031 49.4632 63.3481 50.5095 63.3094C51.0133 63.2706 51.5946 63.3869 51.9821 63.6581C53.5321 64.7044 54.1134 65.7895 53.0671 67.4171C52.5246 68.2696 51.7496 68.8509 50.7033 69.1221C49.812 69.3546 48.9207 69.5096 47.9906 69.5871C46.9444 69.6646 45.8981 69.8197 44.8518 70.0134C43.6117 70.2459 42.3717 70.1684 41.1704 69.8197C39.5815 69.3546 37.9927 68.7734 36.7139 67.6496C36.6364 67.5721 36.5589 67.5333 36.4814 67.4558C35.6676 66.1383 34.5826 64.9757 34.6213 63.2706C34.6988 61.1393 34.7376 59.008 34.8151 56.8379C34.8926 55.1328 34.9313 53.389 35.0476 51.6839C35.0864 51.1026 34.8926 50.6763 34.5438 50.3276C34.5051 50.2888 34.4663 50.2113 34.4276 50.1726C33.11 49.01 32.2962 47.46 31.56 45.9099C31.0949 44.8636 30.7462 43.7398 30.3587 42.6935C29.6611 40.7947 29.0023 38.8959 28.6923 36.9195C28.6536 36.5708 28.4986 36.3382 28.1886 36.1832C26.9098 35.602 25.9022 34.6719 24.9722 33.6644C23.9646 32.5793 22.9183 31.5718 21.9495 30.448C20.5157 28.7042 19.1207 26.9216 17.6869 25.1003C17.6481 25.1003 17.5319 25.139 17.4156 25.2165C15.788 26.3016 13.928 26.5728 12.0291 26.8053C10.4403 26.9991 8.85149 26.9991 7.26267 26.7666C6.48764 26.6503 5.75136 26.5728 4.97633 26.4953C2.26371 26.1853 1.37243 24.8678 0.946158 22.2714C0.907407 21.9226 0.946158 21.5739 0.907406 21.2251C0.907406 20.9538 0.907407 20.6051 0.829904 20.3726C0.442387 19.52 0.907407 18.9 1.37243 18.28C1.52743 18.0475 1.79869 17.9312 2.06996 17.815C2.88374 17.505 3.69753 17.2724 4.51131 16.9237C5.82887 16.3812 7.18517 15.8386 8.61898 15.6449C8.73524 15.6449 8.85149 15.5674 9.0065 15.4899C8.69649 15.0636 8.30897 14.8698 7.92145 14.6761C6.64265 13.9786 5.71261 12.9323 4.86007 11.8472C3.69752 10.3747 3.19375 8.63083 3.19375 6.732C3.19375 6.34448 3.34876 5.91821 3.50377 5.5307C3.73628 5.06568 4.04629 4.56191 4.39505 4.17439C4.70507 3.82563 5.13134 3.59312 5.5576 3.39936C7.14642 2.62432 8.69649 2.74058 10.169 3.82563C11.4091 4.71692 12.5716 5.72446 13.4629 7.00326C13.8505 7.54578 14.3542 7.89455 14.9743 8.08831C15.478 8.24331 15.943 8.43707 16.4468 8.55333C16.7181 8.63083 16.9893 8.59208 17.2606 8.55333C17.9194 8.43707 18.5782 8.28206 19.2369 8.20456C19.5082 8.16581 19.7795 8.28206 20.0507 8.39832C20.787 8.78584 21.4845 9.25085 22.2208 9.59962C23.1508 10.0259 23.9646 10.5297 24.7397 11.1497C25.941 12.0797 27.181 12.8935 28.5373 13.5523C28.8086 13.6685 29.1186 13.7848 29.3511 13.9011C29.3899 13.2035 29.6611 12.816 29.9324 12.3897ZM95.1514 27.0766C95.5002 26.7278 95.8102 26.4566 96.0814 26.1466C97.1277 24.7515 97.9803 23.2789 98.4453 21.5739C98.9491 19.8688 99.4141 18.1637 99.5303 16.3424C99.6466 14.7536 99.5691 13.1648 98.9878 11.731C98.329 10.1034 97.554 8.51457 96.7015 7.00326C96.0814 5.84071 95.4227 5.68571 94.1826 6.15073C94.0664 6.18948 93.9501 6.30573 93.8338 6.30573C93.4851 6.34448 93.1363 6.38323 92.7875 6.38323C92.5938 6.38323 92.4 6.30573 92.245 6.22823C91.8963 6.11197 91.5475 6.15072 91.315 6.46074C91.0825 6.77075 91.0437 7.08076 91.2375 7.42953C91.3537 7.58453 91.3925 7.77829 91.47 7.9333C92.4388 9.98714 92.9426 12.1572 92.6713 14.4436C92.5938 15.2961 92.3613 16.1486 92.4388 17.0012C92.555 18.3575 92.0513 19.52 91.5475 20.6826C91.2762 21.3026 90.9275 21.8839 90.2299 22.1552C89.6099 21.4576 88.9511 20.7988 88.3699 20.1013C87.8273 19.4813 87.1686 19.0938 86.471 18.745C85.851 19.0938 85.5797 19.7913 84.9985 20.1401C84.9597 20.1013 84.921 20.0626 84.8435 19.9851C85.3085 19.52 85.7735 19.0163 86.2385 18.5125C85.5022 17.815 84.6497 17.66 83.9909 17.2724C83.3709 17.6987 82.8284 18.125 82.2859 18.5125C80.9683 19.52 79.5345 20.2176 77.9457 20.6438C76.8994 20.9151 75.8531 21.3026 74.8068 21.5351C72.3267 22.0776 69.7691 22.4264 67.3277 23.1627C66.1652 23.5115 65.1189 24.054 64.3438 24.984C63.6463 25.8366 62.9488 26.7278 62.3675 27.6966C61.5537 29.0917 60.7787 30.5255 60.1199 32.0368C59.4611 33.5481 59.2286 35.1757 59.9262 36.7645C60.0812 37.1133 60.2749 37.462 60.4299 37.7721C61.0887 39.2059 61.7475 40.6784 61.6312 42.3447C61.6312 42.5385 61.67 42.6935 61.7087 43.0035C62.29 42.6935 62.8325 42.4223 63.3751 42.151C62.91 40.5234 62.6 38.9346 62.8325 37.2683C63.065 35.447 63.7238 33.1219 64.2663 32.5406C64.3051 32.8118 64.3438 33.0056 64.3051 33.1994C64.1888 33.6644 64.0338 34.1294 63.9176 34.5944C63.4526 36.1445 63.1813 37.6945 63.3751 39.3221C63.5688 41.1434 64.3826 42.6548 65.2739 44.2048C65.3901 44.4373 65.6614 44.5923 65.8164 44.7861C66.5914 44.2823 66.979 43.4685 67.754 43.081C67.3665 43.6236 66.9015 44.0886 66.4752 44.5923C66.2039 44.9024 66.0102 45.2124 66.4364 45.5999C67.134 45.2511 67.4827 44.5148 68.3353 44.1273C67.7927 44.9411 66.979 45.3286 66.7464 46.1424C67.0565 46.6074 67.4052 46.9562 67.8702 47.0724C68.2578 46.7624 68.5678 46.5299 68.9165 46.2587C70.1953 45.2899 72.5204 45.5224 73.218 47.2662C73.4892 47.925 73.7605 48.6225 73.9155 49.3588C74.1093 50.2888 74.4193 51.1414 75.0005 51.8777C75.3881 52.3814 75.4656 52.9627 75.4656 53.5827C75.4656 54.9778 75.078 56.3341 74.5743 57.5741C73.993 59.0855 72.9855 60.403 71.4354 61.023C70.5829 61.333 70.2341 61.8756 70.0791 62.6506C70.0016 62.9994 69.9628 63.3481 69.8466 63.6581C69.7303 64.0069 69.6141 64.3944 69.3816 64.7044C67.9865 66.7195 66.1264 68.2308 63.9176 69.3159C63.1813 69.6646 62.5225 70.0909 61.8637 70.5559C61.3987 70.866 61.0112 71.331 60.8949 71.8735C61.1275 72.3385 61.36 72.726 61.5925 73.191C61.8637 72.881 62.0962 72.571 62.3675 72.2998C61.98 73.6948 61.98 73.6948 62.3288 74.0436C62.5613 73.5011 62.7938 72.9198 63.4526 72.5323C63.2976 73.1523 62.7163 73.5398 62.8713 74.1598C63.3363 74.3148 63.6076 74.0436 63.9563 73.8498C65.6227 72.881 67.0952 71.6797 68.6453 70.5172C69.1878 70.0909 69.5366 69.7034 69.5366 68.9671C69.5366 68.6184 69.4591 68.1533 69.8853 67.8821C69.8853 68.4246 69.8853 68.9671 69.8466 69.7034C70.3503 69.3546 70.7379 69.0834 71.0479 68.8509C71.1641 68.3083 70.8541 67.8433 71.2416 67.3783C71.3579 67.8046 71.4354 68.1146 71.5516 68.5409C72.2104 68.1533 72.7917 67.8433 73.2955 67.4946C73.9542 67.0683 74.4193 66.487 74.6518 65.712C75.0005 64.5107 75.4268 63.3481 75.8143 62.1468C75.8531 61.9918 75.9306 61.8368 75.9306 61.6818C76.1631 60.0542 76.5894 58.5042 77.2094 56.9929C77.4031 56.4891 77.5582 55.9466 77.6357 55.404C77.9844 53.1952 78.5657 51.0639 79.2245 48.8938C79.8057 47.0337 80.7745 45.4061 81.4721 43.6236C81.6658 43.1198 82.0146 42.6935 82.5571 42.4998C82.6346 42.771 82.7121 42.9648 82.8284 43.236C83.1771 42.926 83.4872 42.6548 83.7584 42.3835C85.1535 41.0659 86.3935 39.6321 87.9823 38.4696C88.3311 38.2371 88.5636 37.7721 88.7961 37.4233C89.5324 36.3382 90.1524 35.2145 90.5787 33.9744C90.7725 33.3544 91.005 32.7731 91.1987 32.1531C91.5475 30.7968 91.6637 29.4017 91.5862 27.9679C91.5475 27.5416 91.5087 27.0766 92.0513 26.7666C92.4388 27.4254 92.1288 28.1617 92.4388 28.7429C93.7176 28.6654 93.9501 28.4717 93.8726 27.2704C93.7951 26.3016 93.6401 25.3715 93.5238 24.4027C93.5238 24.3252 93.5626 24.2477 93.5626 24.0927C93.6788 24.0927 93.8338 24.0927 93.9501 24.0927C94.0664 24.0927 94.1826 24.0927 94.2989 24.1315C94.6476 25.139 94.5701 26.1466 95.1514 27.0766ZM10.5178 14.8698C12.1454 14.1336 12.6492 13.9398 13.2304 12.1185C13.6567 10.8397 14.3542 9.75463 15.3618 8.74708C15.1293 8.70833 14.9355 8.59208 14.7805 8.63083C14.1992 8.78583 13.8117 8.47582 13.4242 8.12706C13.1529 7.89455 12.9204 7.66204 12.7267 7.35203C11.8354 6.03447 10.6341 5.06568 9.35526 4.13564C8.30897 3.36061 7.22392 3.1281 6.02262 3.63187C5.71261 3.74812 5.36385 3.90313 5.05383 4.05814C3.89128 4.67816 3.27126 5.95696 3.38751 7.27452C3.58127 9.48336 4.66632 11.2659 6.21638 12.7773C6.29388 12.8548 6.41014 12.8548 6.56515 12.9323C6.95266 12.3122 7.34018 11.7697 7.72769 11.1884C7.8052 11.2272 7.84395 11.2659 7.92145 11.3047C7.72769 11.6535 7.45643 11.9635 7.30143 12.3122C7.10767 12.661 6.72015 13.0098 7.14642 13.5135C7.84395 12.8935 8.19271 11.9635 9.084 11.576C8.58023 12.2735 7.8827 12.8548 7.61144 13.8623C8.58023 14.2111 9.54902 14.5598 10.5178 14.8698ZM79.767 4.87192C79.8832 5.25944 80.1933 5.29819 80.4645 5.29819C81.3946 5.25944 82.3246 5.22068 83.2159 5.14318C84.5334 5.02693 85.8122 4.83317 87.1298 4.75566C87.4786 4.71691 87.9048 4.83317 88.2536 4.98818C89.0674 5.37569 89.8812 5.84071 90.7337 6.30573C91.2375 5.56945 91.9738 5.49195 92.8651 5.76321C93.2138 5.87946 93.6788 5.80196 94.0663 5.6857C94.4926 5.56945 94.8414 5.33694 95.3064 5.14318C94.4539 3.78687 93.4076 2.58558 91.7025 2.27556C91.5087 2.23681 91.2762 2.19806 91.1987 2.04305C90.9275 1.50053 90.3849 1.46178 89.9199 1.34552C89.2224 1.15176 88.4861 1.03551 87.7498 0.919255C86.471 0.686746 85.231 0.803001 84.1459 1.50053C82.6734 2.50807 81.2783 3.63187 79.8445 4.71691C79.8057 4.71691 79.8057 4.75567 79.767 4.87192ZM68.7228 47.5375C69.3428 48.0412 69.8466 48.5838 70.4666 48.9325C71.6292 49.5913 72.0942 50.5988 71.9779 51.8777C71.8617 53.0014 71.7066 54.0865 71.5516 55.2103C71.2804 57.0316 70.9704 58.8529 70.6604 60.713C71.5129 60.7518 72.0554 60.248 72.5592 59.7055C74.1093 57.9617 74.768 55.8691 74.8068 53.544C74.8068 53.1177 74.6518 52.7689 74.3805 52.4202C73.7605 51.5676 73.4892 50.5988 73.2567 49.5913C73.1017 48.8938 72.908 48.235 72.5979 47.615C71.8229 45.9874 69.6916 45.9874 68.7228 47.5375ZM94.0663 24.7903L93.9889 24.7515C94.0664 25.7591 94.1826 26.7278 94.2601 27.7354C94.6864 27.6191 94.7251 27.3866 94.6476 27.0766C94.4539 26.3016 94.2601 25.5265 94.0663 24.7903Z" fill="black"/>
<path d="M37.6834 19.4531C37.6834 19.6856 37.7221 19.9181 37.6834 20.1507C37.5284 21.7007 37.3346 23.2508 37.2183 24.8008C37.1408 26.2347 37.7609 27.3197 39.0784 27.9785C39.4659 28.1722 39.8535 28.4048 40.2797 28.5985C41.2873 29.0248 41.7135 29.7998 41.791 30.8461C41.8685 31.7761 41.636 32.6674 41.3648 33.5587C41.2485 33.9462 41.0935 34.3338 40.9773 34.76C40.7447 35.5351 40.9773 36.1938 41.6748 36.5814C42.4111 36.9689 43.1861 37.2401 43.9999 37.4726C44.6199 37.6664 45.2012 37.8989 45.6275 38.4414C46.2087 39.1777 46.5962 40.0302 46.7125 40.9603C46.8288 41.8128 46.9063 42.6654 47.0613 43.5179C47.3325 44.7579 48.0301 45.7267 49.0376 46.5018C49.4639 46.8118 49.9289 47.1218 50.3552 47.4318C50.6264 47.6256 50.8977 47.8581 51.0527 48.2456C50.8589 48.2068 50.6264 48.2456 50.4714 48.1681C49.1151 47.5481 47.9138 46.6955 47.0613 45.4555C46.8288 45.1455 46.635 44.7967 46.5575 44.4479C46.3637 43.5179 46.17 42.5879 46.0925 41.6191C46.015 40.7665 45.705 39.9915 45.3174 39.294C44.9299 38.5964 44.2711 38.2864 43.5349 38.1314C42.6823 37.9377 41.8685 37.7051 41.171 37.1626C40.2022 36.4263 40.0085 35.7676 40.396 34.5663C40.706 33.6362 40.9773 32.6674 41.2098 31.6986C41.481 30.4973 41.0935 29.7998 40.0085 29.2573C39.5822 29.0248 39.1559 28.831 38.7297 28.5985C37.7996 28.0947 37.1408 27.3197 36.7533 26.3509C36.6758 26.0797 36.5596 25.8084 36.5596 25.5371C36.7533 23.7158 36.9858 21.8557 37.1796 20.0344C37.2183 19.8406 37.3734 19.6856 37.4509 19.5306C37.5671 19.4531 37.6446 19.4531 37.6834 19.4531Z" fill="black"/>
<path d="M13.2689 25.6102C12.9202 25.5715 12.8039 25.3002 12.8427 24.9902C12.8814 24.4864 12.9202 23.9439 13.1139 23.4789C13.5015 22.5488 13.3852 21.7351 12.6489 21.0375C12.3777 20.805 12.1839 20.5338 11.9126 20.3013C11.3701 19.8362 10.9826 19.2162 10.8663 18.5187C10.7113 17.7436 10.4401 17.1236 9.78129 16.6973C9.70379 16.6586 9.70379 16.5423 9.66504 16.4648C9.82005 16.1161 10.0526 16.1161 10.2851 16.2711C10.7113 16.5811 11.0601 16.9686 11.1764 17.4724C11.4476 18.6737 12.0289 19.6425 12.9977 20.4175C14.0052 21.27 14.2377 22.3551 13.7727 23.5951C13.5015 24.2539 13.4239 24.9127 13.2689 25.6102Z" fill="black"/>
<path d="M16.7966 15.351C16.6804 15.5835 16.5254 16.0098 16.2929 16.3198C16.0216 16.6686 15.5178 16.7461 15.1691 16.5523C14.7428 16.3585 14.4328 15.816 14.549 15.3898C14.6265 15.0797 14.8203 14.7697 15.0528 14.4985C15.3241 14.1497 15.7116 14.0335 16.1379 14.1885C16.5641 14.3047 16.7191 14.6922 16.7966 15.351Z" fill="black"/>
<path d="M105.454 47.5042C105.26 47.5429 105.067 47.6204 104.873 47.6204C104.175 47.6592 103.478 47.6204 102.78 47.6592C100.494 47.8917 98.2463 47.6979 95.9987 47.6592C94.4099 47.6204 92.821 47.6204 91.1935 47.6204C90.5734 47.6204 89.9147 47.5817 89.2946 47.5817C87.7833 47.5042 86.3108 47.6204 84.7994 47.8142C84.5669 47.8529 84.2957 47.8529 84.0244 47.6979C84.2182 47.6204 84.3732 47.5042 84.5669 47.4654C85.652 47.3879 86.737 47.2329 87.8221 47.2329C90.5734 47.2329 93.3248 47.2717 96.0374 47.3879C98.8663 47.5042 101.656 47.5429 104.447 47.1942C104.757 47.1942 105.105 47.0779 105.454 47.5042Z" fill="black"/>
<path d="M99.9607 51.1567C98.7594 51.0404 97.5968 50.9242 96.473 50.8467C95.3105 50.7692 94.1092 50.7304 92.9466 50.6917C91.7841 50.6529 90.6603 50.6142 89.4977 50.6529C88.3739 50.6917 87.2889 50.8854 86.0488 51.0017C86.3201 50.4592 86.6689 50.4979 87.0176 50.4592C88.8002 50.1879 90.5828 50.1492 92.3653 50.2267C94.6129 50.3042 96.8993 50.4592 99.1469 50.5754C99.3794 50.5754 99.5731 50.6142 99.7669 50.7304C99.8832 50.8079 99.9219 51.0017 99.9607 51.1567Z" fill="black"/>
<path d="M45.6689 8.57196C45.979 8.49445 46.2115 8.41695 46.4052 8.41695C48.3041 8.33945 50.2416 8.26194 52.1405 8.18444C53.8068 8.10694 55.4731 8.06819 57.1007 7.95193C58.3407 7.87443 59.5808 7.79693 60.8208 7.71942C61.3634 7.68067 61.3634 7.75817 61.2471 8.3007C59.7745 8.02944 58.302 8.22319 56.7907 8.26194C54.5818 8.30069 52.373 8.41695 50.2029 8.53321C48.9628 8.61071 47.7228 8.57196 46.5215 8.95947C46.2502 9.07573 45.9402 9.07573 45.6689 8.57196Z" fill="black"/>
<path d="M58.688 12.3731C55.3554 12.6444 52.0228 12.1019 48.7289 12.8769C48.6901 12.7994 48.6901 12.7607 48.6514 12.6831C48.7676 12.5669 48.8839 12.3731 49.0001 12.3731C49.5814 12.2569 50.2014 12.1406 50.7827 12.1406C53.1466 12.1406 55.5104 12.2181 57.8743 12.2569C58.1455 12.2569 58.4168 12.3344 58.688 12.3731Z" fill="black"/>
<path d="M30.1677 51.8572C28.2301 52.2447 20.131 52.7872 18.8135 52.5935C18.9685 52.516 19.046 52.3997 19.1235 52.3997C22.7274 52.206 26.2925 52.0122 29.8964 51.5859C29.9352 51.6247 30.0127 51.7409 30.1677 51.8572Z" fill="black"/>
<path d="M17.6865 56.2263C18.0353 55.7225 18.3453 55.6838 18.6553 55.6838C19.8179 55.5675 20.9804 55.4513 22.1817 55.4125C23.6543 55.3738 25.1656 55.3738 26.6769 55.335C27.3357 55.2963 27.9945 55.2188 28.6532 55.2188C27.3744 55.5675 26.0569 55.645 24.7006 55.6838C23.1118 55.7225 21.5229 55.8 19.9341 55.8775C19.2366 55.955 18.5778 56.0713 17.6865 56.2263Z" fill="black"/>
<path d="M49.5037 65.347C50.0074 65.3083 50.4337 65.6183 50.55 66.0446C50.6275 66.4321 50.5112 66.7033 50.0074 66.8971C49.7362 67.0133 49.3874 67.0908 49.1161 67.0908C48.4574 67.0908 48.1861 66.5483 48.4961 65.967C48.6899 65.5795 49.0774 65.3858 49.5037 65.347Z" fill="black"/>
<path d="M16.876 12.7454C17.1085 12.5904 17.2247 12.4354 17.3797 12.3966C17.961 12.3191 18.9686 12.7066 19.5111 13.2104C19.0073 13.4042 17.9998 13.2492 16.876 12.7454Z" fill="black"/>
<path d="M29.6281 11.2734C29.3569 11.8935 29.0856 12.5522 28.7756 13.2885C28.7368 12.5135 28.9693 11.9322 29.6281 11.2734Z" fill="black"/>
<path d="M7.42165 20.3439C7.46028 20.4212 7.46028 20.4598 7.46028 20.4985C7.30574 20.8076 7.11257 21.0394 6.72622 20.8848C6.64895 20.8462 6.61031 20.653 6.64895 20.5758C6.84212 20.228 7.1512 20.3053 7.42165 20.3439Z" fill="black"/>
<path d="M29.9424 12.3935C30.1749 11.6572 30.2524 11.541 30.9112 10.8047C30.6787 11.541 30.4849 11.851 29.9424 12.3935Z" fill="black"/>
<path d="M52.3743 21.7031C52.1805 22.2844 51.9868 22.9044 51.793 23.4857C51.7542 22.8269 51.8705 22.2069 52.3743 21.7031Z" fill="black"/>
<path d="M51.1328 66.1176C51.326 65.9631 51.5192 65.7313 51.5578 65.7699C51.7123 65.8472 51.8282 66.0403 51.9828 66.1949C51.8669 66.3108 51.7123 66.504 51.5964 66.504C51.4805 66.4653 51.326 66.2722 51.1328 66.1176Z" fill="black"/>
<path d="M50.9319 64.8981C50.7387 65.0526 50.5842 65.2458 50.4683 65.2072C50.3524 65.2072 50.1592 65.014 50.1592 64.8594C50.1592 64.7435 50.3524 64.5117 50.4683 64.5117C50.5842 64.5504 50.7387 64.7049 50.9319 64.8981Z" fill="black"/>
<path d="M51.2814 22.207C51.1652 22.6333 51.0489 23.0208 50.9326 23.4471C50.7776 22.9433 50.8939 22.517 51.2814 22.207Z" fill="black"/>
<path d="M8.19367 22.207C8.3486 22.362 8.50354 22.4782 8.4648 22.5169C8.42607 22.6331 8.30987 22.7493 8.19367 22.8268C8.19367 22.8268 8 22.7106 8 22.6718C8.03873 22.5944 8.1162 22.4394 8.19367 22.207Z" fill="black"/>
<path d="M52.8778 20.707C52.9165 20.7845 53.0328 20.9395 52.9941 20.9783C52.8003 21.2496 52.5678 21.4821 52.374 21.7146H52.4128C52.5678 21.4046 52.7228 21.017 52.8778 20.707Z" fill="black"/>
<path d="M8.5 20.3372C8.6162 20.1823 8.69367 20.0273 8.7324 20.0273C8.8486 20.0273 9.00354 20.1048 9.08101 20.1823C9.11974 20.221 9.00354 20.4534 8.9648 20.4534C8.8486 20.4534 8.69367 20.3759 8.5 20.3372Z" fill="black"/>
<path d="M51.2852 22.2104C51.4402 21.8616 51.5952 21.5128 51.7502 21.1641H51.7114C51.7889 21.6291 51.6339 21.9391 51.2852 22.2104Z" fill="black"/>
<path d="M29.6641 11.261C29.78 10.9905 29.8959 10.7587 30.0118 10.4883C30.089 10.5269 30.1277 10.5656 30.205 10.6042C30.0118 10.836 29.8186 11.0678 29.6641 11.261Z" fill="black"/>
<path d="M24.2002 28.7098C24.2781 28.593 24.3949 28.4762 24.4728 28.3594L24.5507 28.4373C24.4728 28.5541 24.3949 28.7098 24.317 28.8267C24.2781 28.7877 24.2391 28.7488 24.2002 28.7098Z" fill="black"/>
<path d="M51.373 54.7614C51.4892 54.6064 51.6442 54.4127 51.7604 54.2578C51.7991 54.2965 51.8378 54.3353 51.9153 54.4128C51.7216 54.529 51.5667 54.6452 51.373 54.7614Z" fill="black"/>
<path d="M86.9388 19.6875C86.6675 20.0363 86.3963 20.385 86.125 20.7725C86.1638 20.1913 86.1637 20.1913 86.9388 19.6875Z" fill="black"/>
<path d="M15.8254 14.8438C15.8254 15.037 15.6709 15.1915 15.4391 15.1915C15.2073 15.1915 15.0527 15.037 15.0527 14.8438C15.0527 14.6506 15.2073 14.4961 15.4391 14.4961C15.6709 14.4961 15.8254 14.6506 15.8254 14.8438Z" fill="white"/>
<path d="M1.41029 19.973C1.5653 19.2754 2.18532 18.7329 2.88285 18.6554C2.99911 18.6554 3.07661 18.5392 3.03786 18.4229C3.03786 18.3066 2.92161 18.2291 2.8441 18.2679C1.99157 18.3841 1.25529 19.0429 1.02278 19.8955C0.984024 20.0117 1.06153 20.0892 1.17778 20.128C1.29404 20.128 1.41029 20.0505 1.41029 19.973Z" fill="white"/>
<path d="M51.3264 89.5197C52.1015 89.5584 52.8765 89.5584 53.6903 89.5584C56.4804 89.5197 59.3093 89.4034 62.1381 89.4034C64.9283 89.3647 67.7571 89.4034 70.5472 89.2871C71.206 89.2484 71.8648 89.2484 72.5236 89.2097C72.7561 89.2097 72.9498 89.1709 73.1824 89.1709C76.36 88.9771 79.7701 88.6671 82.0952 86.497C82.7153 85.9158 83.2965 85.1407 83.2965 84.2494C83.3353 83.0869 82.3665 82.0406 81.2815 81.6143C80.1964 81.1881 78.9951 81.1881 77.7938 81.2268L48.4588 81.9631C45.6299 82.0406 42.7236 82.1181 40.166 83.2419C38.6159 83.9394 37.0271 85.722 37.9571 87.1171C38.4609 87.8921 39.4684 88.1246 40.3597 88.2796C44.0411 88.8996 47.7613 89.2872 51.4814 89.4422L51.3264 89.5197Z" fill="#BCBCBB"/>
</svg>
