<svg width="91" height="80" viewBox="0 0 91 80" fill="none" xmlns="http://www.w3.org/2000/svg">
<circle cx="44.9995" cy="40.4995" r="34.4995" fill="#F7BE45" fill-opacity="0.5"/>
<path d="M47.9444 48.2864C47.9444 49.6001 47.835 50.8044 47.835 52.118C47.835 52.6654 47.835 53.2128 47.9444 53.7602C48.0539 54.417 48.3823 54.9644 48.6013 55.5118C49.5866 57.3728 50.6813 59.3434 52.1045 60.876C52.7613 61.5329 53.3087 61.9707 53.9655 62.6276C55.4982 64.1602 56.4834 66.1308 56.9213 68.3203C57.2498 70.0719 56.9213 72.0424 55.4982 73.0277C55.0603 73.3561 54.4034 73.575 54.1845 74.0129C53.8561 74.5603 54.075 75.3266 54.6224 75.7645C55.0603 76.2024 55.7171 76.3119 56.374 76.4214C56.7024 76.5308 57.0308 76.5308 57.4687 76.4214C58.0161 76.3119 58.454 75.874 58.8919 75.4361C59.6582 74.6698 60.4245 73.9035 60.753 72.9182C61.5193 71.1666 60.9719 69.1961 60.753 67.2255C60.6435 66.0213 60.753 64.9266 60.753 63.7223C60.8624 60.4381 60.9719 57.1539 61.1909 53.7602C61.1909 52.5559 61.3003 51.3517 60.753 50.257C59.8772 48.5054 57.7971 47.7391 55.8266 47.6296C53.6371 47.5201 51.4476 47.958 49.5866 49.0528" fill="white"/>
<path d="M12.1553 43.5C13.25 48.8642 12.9216 57.8412 13.3595 63.3149C13.5784 66.0517 14.1258 68.6791 13.9069 71.416C13.9069 72.1823 13.7974 73.0581 13.3595 73.715C13.0311 74.2623 12.5932 74.8097 12.8121 75.3571C12.9216 75.9044 13.5784 76.1234 14.1258 76.2329C15.0016 76.4518 15.9869 76.4518 16.8627 76.4518C16.9722 76.4518 17.0816 76.4518 17.3006 76.3423C17.5195 76.2329 17.5195 76.0139 17.629 75.795C18.8332 70.5402 17.41 64.957 18.3953 59.5927C18.6143 58.1696 19.0522 56.6369 19.3806 55.2138C19.5995 53.7906 19.8185 52.3674 19.8185 51.0537C19.8185 50.6158 19.8185 50.1779 19.709 49.74C19.3806 48.9737 18.7237 48.4264 18.0669 47.879C17.1911 47.2221 16.3153 46.6748 15.33 46.6748" fill="white"/>
<path d="M77.3942 49.8396C75.0953 45.3511 75.9711 39.549 73.1247 35.3889C71.7016 33.3089 69.6215 31.9952 67.2131 31.01C61.9583 30.4626 56.5941 29.6963 51.3393 29.1489C43.4571 28.1636 35.0276 26.7405 28.6781 21.7046C28.5686 21.5952 28.4591 21.4857 28.3497 21.3762C27.3644 20.9383 26.3791 20.2815 25.7223 19.4057C24.2991 17.6541 24.4086 15.0267 25.1749 12.8372C25.9412 10.6477 27.2549 8.78664 28.1307 6.59715C28.4591 5.72136 28.6781 4.62661 27.9118 4.07924C27.5833 3.86029 27.2549 3.75082 26.817 3.75082C24.737 3.53187 22.657 3.20344 20.577 2.98449C19.5917 2.87502 18.7159 2.76555 17.7306 2.98449C16.0885 3.42239 14.7748 4.84556 13.0232 4.84556C11.1622 4.95504 9.62953 3.31292 8.20636 1.99922C6.78319 0.685529 4.81266 -0.518688 3.17054 0.466583C1.85685 1.2329 1.63789 2.87502 1.41895 4.40766C1.30947 5.39293 1.19999 6.3782 1.09052 7.47295C1.09052 7.80137 0.981041 8.23927 1.30946 8.45822C1.52841 8.67717 1.96632 8.67717 2.29474 8.67717C4.15581 8.89612 4.81265 11.414 4.15581 13.1656C3.49896 14.9172 1.96631 16.3404 1.30946 18.092C0.433668 20.2815 0.981041 22.9088 2.40421 24.7699C2.62316 24.9889 2.84211 25.3173 3.06106 25.4268C4.04633 25.8647 5.0316 24.6604 5.4695 23.6752C6.34529 21.5952 8.20636 20.8288 7.98741 23.7846C7.87794 25.3173 7.22109 26.412 6.78319 27.8352C5.57897 31.8857 7.11161 36.8121 8.97268 40.4248C11.2716 44.9132 14.7748 48.6353 18.278 52.248C18.8254 52.7954 19.2633 53.3428 19.7012 53.8901C20.1391 53.8901 20.577 54.1091 20.9054 54.328C22.9854 55.8607 24.5181 57.8312 25.0654 60.4586C25.5033 62.867 25.5033 65.3849 25.5033 67.7934C25.6128 69.2165 25.6128 70.7492 25.1749 72.1724C24.8465 73.1576 24.1896 74.0334 23.6423 75.0187C23.3138 75.5661 23.2044 76.1134 23.0949 76.6608C24.2991 77.2082 25.6128 77.3177 26.9265 77.4271C27.4739 77.4271 28.1307 77.4271 28.6781 77.0987C29.0065 76.8798 29.2255 76.3324 29.4444 76.004C31.5244 70.7492 32.5097 64.947 32.1813 59.2544C32.0718 57.9407 31.9623 56.5175 32.7287 55.3133C33.3855 54.2185 34.6992 53.7806 35.9034 53.3428C41.5961 51.4817 47.6172 50.2775 53.6383 49.6206C54.5141 49.5111 55.3899 49.5111 56.1562 49.949C57.3604 50.8248 57.1414 52.5764 56.5941 53.8901C56.5941 53.8901 56.5941 53.9996 56.4846 53.9996C56.9225 54.328 57.1415 54.8754 57.3604 55.4228C58.1267 57.5028 59.8783 59.1449 61.3015 60.787C62.8341 62.5386 64.3668 64.3997 65.352 66.5892C66.1183 68.3408 66.8847 70.7492 66.3373 72.7197C65.8994 74.1429 65.0236 75.1282 63.8194 75.785C63.6004 76.3324 63.1625 76.7703 63.1625 77.3177C62.9436 78.5219 64.2573 79.5071 65.4615 79.5071C67.7605 79.6166 69.6215 77.6461 70.3879 75.4566C71.1542 73.3766 71.0447 70.9681 71.0447 68.7786C71.0447 66.4797 71.2637 64.1807 72.5774 62.3197C72.9058 61.8818 73.2342 61.5533 73.6721 61.4439C74.11 61.3344 74.5479 61.5533 74.9858 61.7723C78.8174 63.5239 82.7585 66.3702 86.809 65.4944C87.7943 63.1954 88.6701 61.006 89.6554 58.707C84.948 56.8459 79.6932 54.4375 77.3942 49.8396Z" fill="white"/>
<path d="M5.80251 22.3485C5.69304 22.458 5.58356 22.458 5.47409 22.5675C5.03619 22.8959 4.70777 23.4433 4.37934 23.8812C4.05092 24.3191 3.61302 24.757 3.06565 24.8665C2.95618 24.8665 2.73723 24.9759 2.62776 24.8665C2.40881 24.757 2.18986 24.538 2.08039 24.2096C1.86144 23.6622 1.75196 22.8959 1.97091 22.3485C2.18986 21.8012 2.8467 21.3633 3.50354 21.3633C4.16039 21.3633 4.70777 21.5822 5.25514 22.0201" fill="#BCBCBB"/>
<path d="M22.3311 11.6322C22.4406 11.7416 22.6595 11.7416 22.8785 11.8511C23.4259 12.0701 23.6448 12.6174 23.9732 13.1648C24.0827 13.3838 24.0827 13.4932 24.0827 13.7122C24.0827 13.9311 23.8638 14.1501 23.6448 14.2596C23.0974 14.6974 22.5501 15.0259 22.0027 15.3543C21.7837 15.4638 21.5648 15.5732 21.2364 15.6827C20.9079 15.7922 20.5795 15.6827 20.2511 15.5732C19.0469 15.2448 18.1711 14.369 17.6237 13.2743C17.0763 12.1795 16.9669 10.9753 17.1858 9.7711C17.5142 8.34793 18.7184 7.91003 19.7037 9.00477C20.1416 9.55215 20.47 9.88057 21.1269 10.3185C21.6743 10.5374 21.8932 11.3037 22.3311 11.6322Z" fill="#BCBCBB"/>
<path d="M32.5101 54.5509C33.2764 54.0035 33.9332 53.3467 34.4806 52.5803C34.6995 52.5803 34.6995 52.9088 34.809 53.2372C34.9185 53.7846 35.6848 53.894 36.2322 53.6751C36.7796 53.4561 37.108 52.9088 37.5459 52.5803C38.5312 52.033 39.7354 52.5803 40.8301 52.5803C42.0343 52.5803 43.2386 51.9235 44.3333 51.3761C45.7565 50.5003 47.2891 49.734 48.7123 48.8582C49.0407 48.6393 49.3691 48.4203 49.2596 48.0919C49.2596 47.9824 49.1502 47.8729 49.0407 47.8729C47.946 47.1066 46.4133 47.1066 45.0996 47.435C43.7859 47.7635 42.5817 48.3108 41.268 48.7487C38.969 49.515 36.4511 49.734 34.0427 49.4056C32.6195 49.1866 32.1816 48.9677 32.1816 50.6098C32.1816 51.814 32.2911 53.2372 32.5101 54.5509Z" fill="#BCBCBB"/>
<path d="M11.1611 22.3584C11.3801 23.5626 11.7085 24.8763 12.0369 26.0805C12.1464 26.6279 12.2559 27.2847 12.2559 27.9416C12.1464 28.7079 11.818 29.3648 11.4896 30.1311C10.5043 32.649 10.3948 35.4953 9.84744 38.2322C9.84744 38.4511 9.73797 38.6701 9.6285 38.7796C9.51902 38.889 9.40956 38.889 9.19061 38.889C8.42429 38.889 7.8769 38.1227 7.65795 37.3564C7.54848 36.5901 7.65795 35.8238 7.65795 35.0574C7.65795 34.2911 7.65795 33.4153 7.11058 32.8679C7.00111 32.649 6.78217 32.5395 6.67269 32.3206C6.56322 32.1016 6.56321 31.9921 6.56321 31.7732C6.45374 29.9121 6.78217 28.1605 7.22006 26.409C7.54849 25.4237 7.76744 24.5479 7.76744 23.5626C7.76744 22.9058 7.43901 22.2489 7.65795 21.5921C7.8769 20.9352 8.97165 20.3879 9.6285 20.2784C10.2853 20.1689 10.3948 20.1689 10.7232 20.9352C10.9422 21.2637 11.0517 21.811 11.1611 22.3584Z" fill="#BCBCBB"/>
<path d="M2.29489 8.46143C2.18541 8.5709 2.18541 8.5709 2.07594 8.68038C1.96647 8.78985 1.74752 8.68038 1.52857 8.68038C0.87172 8.46143 0.652758 7.69511 0.762232 7.03826C0.871707 6.38141 1.30961 5.83404 1.74751 5.39614C1.85699 5.28667 1.85698 5.28667 1.96646 5.17719C2.18541 4.95824 2.62331 5.06772 2.84226 5.17719C3.4991 5.50561 5.03174 5.94351 4.70332 6.92878C4.48437 7.80458 2.84226 7.91405 2.29489 8.46143Z" fill="#BCBCBB"/>
<path d="M14.7741 76.0924C14.993 76.2019 15.212 76.2019 15.4309 76.3114C15.4309 76.3114 15.6499 76.3114 15.7593 76.3114C15.7593 76.3114 16.1972 76.2019 16.3067 76.2019C16.3067 76.2019 17.1825 75.8735 16.6351 76.0924C17.073 75.8735 17.5109 75.764 17.8393 75.764C17.9488 75.764 17.9488 75.6545 18.0583 75.5451C18.1678 75.4356 18.1678 75.2166 18.1678 74.9977C18.2772 73.7935 18.2772 72.5892 18.2772 71.385C18.1678 70.1808 18.0583 68.9766 17.9488 67.6629C17.9488 65.2544 18.6057 62.846 17.8393 60.6565C17.7299 60.3281 17.5109 59.8902 17.1825 59.6713C16.7446 59.4523 16.1972 59.7807 15.8688 60.2186C15.6498 60.6565 15.6498 61.2039 15.5404 61.7513C15.4309 64.1597 15.4309 66.4587 15.3214 68.8671C15.3214 70.1808 15.2119 71.604 14.4456 72.6987C14.1172 73.1366 13.6793 73.465 13.4604 73.9029C13.0225 74.5598 12.913 75.3261 13.1319 76.0924C13.7888 75.8735 14.2267 75.8735 14.7741 76.0924Z" fill="#BCBCBB"/>
<path d="M57.3656 56.8391C57.8035 57.058 58.1319 57.3865 58.4604 57.7149C58.5698 57.8244 58.5698 58.0433 58.6793 58.1528C59.0077 58.5907 59.3361 59.1381 59.6646 59.6854C59.774 59.9044 60.1025 60.1233 60.1025 60.3423C60.1025 60.3423 60.2119 60.3423 60.2119 60.2328C60.4309 60.0139 60.5404 59.7949 60.7593 59.576C60.3214 59.2475 60.1025 59.0286 59.8835 58.4812C59.6646 57.9338 59.6646 57.277 59.6646 56.6201C59.6646 56.2917 59.5551 55.8538 59.5551 55.5254C59.4456 55.6349 59.4456 55.6349 59.3361 55.6349C59.2267 55.7443 59.1172 55.8538 59.0077 56.0728C58.7888 56.4012 58.2414 56.0728 58.2414 55.7443C58.2414 54.8686 58.3509 53.9928 58.5698 53.117C58.5698 52.898 58.6793 52.7885 58.6793 52.5696C58.6793 52.4601 58.7888 52.2412 58.8983 52.0222C58.8983 51.9127 59.0077 51.9127 59.0077 51.8033C59.1172 51.5843 59.1172 51.4748 59.2267 51.2559C59.3362 50.9275 59.3361 50.599 59.4456 50.2706C59.1172 50.599 58.4603 50.0517 58.7888 49.6138C58.8982 49.5043 58.8983 49.3948 59.0077 49.2854C58.8983 49.2854 58.8982 49.2854 58.7888 49.1759C58.3509 49.0664 57.913 49.0664 57.4751 49.0664C56.1614 49.0664 54.8477 49.1759 53.6435 49.1759C53.4245 50.4896 53.6435 51.9127 54.1908 53.117C54.8477 54.7591 56.0519 55.9633 57.3656 56.8391Z" fill="#BCBCBB"/>
<path d="M72.5854 59.5835C73.2423 61.1162 74.7749 62.1015 76.3075 62.8678C76.5265 62.9773 76.7454 63.0867 76.9644 62.9773C77.0739 62.8678 77.0739 62.8678 77.1833 62.7583C77.4023 62.5394 77.8402 62.7583 78.0591 62.9773C78.497 63.4152 79.0444 63.9625 79.7012 64.291C80.3581 64.6194 81.0149 64.8383 81.7813 64.6194C82.7665 64.291 83.4234 62.8678 82.876 61.992C82.5476 61.2257 81.7813 60.7878 81.0149 60.4593C78.8254 59.2551 76.7454 57.7225 74.8844 56.0804C74.0086 55.314 73.2423 54.3288 72.6949 55.8614C72.257 56.9562 72.1475 58.4888 72.5854 59.5835Z" fill="#BCBCBB"/>
<path d="M36.0099 25.7475C36.7762 26.1854 37.7614 26.5138 38.6372 26.7328C42.4688 27.8275 46.5194 28.156 50.4605 27.8275C50.7889 28.156 50.57 28.8128 50.2415 29.1412C49.9131 29.4697 49.3657 29.5791 48.9278 29.6886C48.1615 29.9076 47.3952 30.017 46.5194 30.236C44.7678 30.5644 43.0162 31.0023 41.2646 31.1118C38.8562 31.2212 36.4477 30.7834 34.4772 29.4697C32.5067 28.2654 30.974 26.1854 30.5361 23.777C31.4119 23.558 32.2877 23.9959 33.054 24.4338C34.5867 25.3096 36.2288 25.9665 37.9804 26.5138" fill="#BCBCBB"/>
<path d="M6.68254 10.3125C6.68254 10.5312 6.57318 10.6405 6.35446 10.6405C6.13573 10.6405 6.02637 10.5312 6.02637 10.3125C6.02637 10.0937 6.13573 9.98438 6.35446 9.98438C6.46382 9.98437 6.68254 10.0937 6.68254 10.3125Z" fill="white"/>
<path d="M90.2068 58.2602C89.7689 58.1507 89.4405 58.1508 89.0026 58.0413C87.7984 57.7129 86.5941 57.275 85.2805 56.9465C83.8573 56.5086 82.5436 55.9613 81.3394 54.976C79.5878 53.6623 78.0551 52.2391 76.7414 50.597C76.632 50.3781 76.413 50.1591 76.3035 49.9402C75.8656 48.7359 75.6467 47.5317 75.8656 46.218C75.9751 45.7801 75.9751 45.3422 75.7562 44.9043C75.5372 44.357 75.3183 43.8096 75.4277 43.0433C75.8657 43.2622 76.0846 43.4812 76.413 43.7001C76.632 43.3717 76.5225 43.2622 76.413 43.0433C76.0846 42.277 75.7562 41.5106 75.4277 40.7443C74.7709 38.4453 73.4572 36.3653 72.1435 34.3948C71.8151 33.8474 71.3772 33.3 71.1582 32.6432C71.3772 32.6432 71.4867 32.6432 71.7056 32.7527C71.3772 32.4242 71.1582 31.9864 70.8298 31.8769C69.8445 31.5485 68.9687 30.8916 67.874 30.6727C66.9982 30.5632 66.2319 30.2348 65.4656 30.0158C64.9182 29.9063 64.3708 29.7969 63.9329 29.6874C62.6192 29.5779 61.415 29.359 60.1013 29.2495C58.1308 29.14 56.2697 29.0305 54.2992 28.9211C53.2044 28.8116 52.2192 28.8116 51.1244 28.8116C50.9055 28.8116 50.796 28.7021 50.4676 28.7021C50.796 28.4832 51.0149 28.2642 51.2339 28.1547C51.4528 28.0453 51.6718 27.8263 51.6718 27.4979C51.5623 27.4979 51.4528 27.3884 51.3434 27.3884C49.2634 27.4979 47.1833 27.3884 45.1033 27.1695C44.5559 27.1695 44.118 27.06 43.5707 27.06C42.257 27.1695 40.9433 26.9505 39.6296 26.7316C37.1117 26.1842 34.8127 25.1989 32.4043 24.3231C31.419 23.8852 30.6527 23.2284 29.9958 22.3526C29.4485 21.5863 28.7916 20.7105 28.2442 19.9442C28.0253 19.6157 27.8063 19.2873 27.5874 18.9589C26.7116 17.2073 26.0548 15.3462 25.7263 13.2662C25.7263 13.0473 25.7263 12.7188 25.5074 12.6094C25.179 12.7188 25.2884 12.9378 25.2884 13.1567C25.3979 14.2515 25.7263 15.3462 26.0548 16.3315C26.4927 18.0831 27.3684 19.6157 28.4632 21.0389C28.7916 21.4768 29.2295 22.0242 29.5579 22.5716C30.1053 23.3379 30.6527 23.9947 31.5285 24.4326C32.7327 24.98 34.0464 25.5274 35.3601 26.0747C37.7685 26.9505 40.177 27.4979 42.6949 27.6074C42.8043 27.6074 42.9138 27.7168 43.1328 27.8263C43.3517 27.4979 43.7896 27.4979 44.337 27.4979C46.417 27.6074 48.3876 27.7168 50.4676 27.8263C50.577 27.8263 50.6865 27.8263 50.796 27.9358C50.577 28.3737 50.0297 28.3737 50.0297 28.9211C50.1391 29.0305 50.3581 29.14 50.577 29.14C51.2339 29.2495 51.8907 29.2495 52.5476 29.359C53.3139 29.359 54.1897 29.359 54.956 29.359C57.255 29.4684 59.6634 29.6874 61.9624 29.9063C62.9477 30.0158 63.9329 30.1253 64.8087 30.3442C65.6845 30.5632 66.6698 30.7821 67.6551 31.0011C68.4214 31.22 69.1877 31.5485 69.954 31.8769C70.173 31.9864 70.2824 32.0958 70.3919 32.3148C70.8298 32.9716 71.1582 33.519 71.4867 34.1758C72.253 35.3801 73.0193 36.5843 73.6762 37.679C74.5519 39.2117 74.9898 40.8538 75.6467 42.4959C75.6467 42.6054 75.6467 42.6054 75.5372 42.7149C74.9898 42.4959 74.9898 42.4959 74.552 42.7149C74.7709 43.4812 74.9898 44.138 75.0993 44.9043C75.2088 45.4517 75.3183 46.1086 75.2088 46.6559C75.0993 47.0938 75.2088 47.5317 75.3183 47.9696C75.4277 48.517 75.5372 49.0644 75.6467 49.5023C75.7562 50.0496 75.9751 50.597 76.3035 51.0349C76.632 51.3633 76.9604 51.8012 77.2888 52.2391C78.493 53.5528 79.9162 54.757 81.4488 55.8518C82.4341 56.5086 83.4194 57.056 84.6236 57.3844C84.952 57.4939 85.0615 57.6034 85.0615 57.9318C85.3899 57.8223 85.7183 57.7128 86.1562 57.8223C87.1415 58.1507 88.1268 58.3697 89.0026 58.5886C89.331 58.6981 89.6594 58.8076 89.9878 59.0265C89.8784 59.2455 89.7689 59.4644 89.5499 59.6834C89.2215 60.1213 88.8931 60.6687 88.5647 61.216C87.7984 62.5297 87.251 63.9529 86.8131 65.3761C86.7036 65.595 86.8131 65.814 86.3752 65.9234C86.0468 65.3761 85.7183 64.8287 85.3899 64.2813C85.2804 64.0624 85.0615 63.8434 84.8425 63.8434C84.4046 64.2813 84.4046 64.9382 83.9667 65.3761C83.3099 65.0476 83.3099 64.1718 82.6531 63.9529C81.9962 64.5003 81.8867 65.2666 81.1204 65.814C81.0109 65.7045 80.792 65.595 80.6825 65.4855C80.2446 65.0476 79.6973 64.7192 78.9309 64.9382C78.8215 64.9382 78.712 64.8287 78.6025 64.8287C78.8215 64.6097 79.0404 64.3908 79.1499 64.1718C79.1499 64.1718 79.1499 64.0624 79.0404 63.9529C78.8214 64.0624 78.6025 64.1718 78.493 64.2813C78.1646 63.9529 77.9457 63.4055 77.3983 63.515C76.9604 62.8582 77.2888 61.9824 76.632 61.3255C76.413 62.0918 76.3035 62.7487 76.1941 63.4055C76.0846 63.296 75.8656 63.296 75.8656 63.296C74.9898 62.6392 74.1141 62.0918 73.2383 61.435C72.6909 60.9971 72.1435 60.3402 72.1435 59.4644C72.1435 58.4792 72.1435 57.4939 73.1288 56.8371C73.2383 56.7276 73.2383 56.6181 73.3477 56.6181C73.1288 56.7276 72.8004 56.8371 72.4719 56.9465C72.4719 56.8371 72.4719 56.7276 72.4719 56.6181C72.5814 55.8518 72.5814 55.0855 72.6909 54.3191C72.9098 52.7865 73.2382 51.2539 73.5667 49.6117C73.6761 48.9549 73.7856 48.298 74.0046 47.7507C74.0046 47.5317 74.0046 47.3128 73.6762 47.3128C73.5667 47.7507 73.4572 48.1886 73.4572 48.6265C73.1288 50.1591 72.8004 51.6918 72.5814 53.3339C72.4719 54.2097 72.3625 55.1949 72.253 56.0707C72.1435 57.3844 72.034 58.6981 71.8151 60.1213C71.7056 60.6687 71.8151 61.3255 71.5961 61.8729C71.2677 62.6392 70.8298 63.4055 70.5014 64.0624C70.2825 64.5003 70.173 64.5003 69.7351 64.2813C69.5161 64.1718 69.2972 64.0624 69.0782 63.9529C68.6403 64.8287 68.9688 65.7045 68.5309 66.5803C68.2024 66.4708 67.9835 66.2519 67.6551 66.1424C67.5456 66.4708 67.4361 66.7992 67.3266 67.0182C67.2172 66.3613 67.4361 65.814 67.1077 65.0476C66.7793 65.9234 66.9982 66.6898 66.6698 67.4561C66.2319 66.6898 65.9035 65.9234 65.3561 65.1571C64.8087 64.3908 64.1519 63.8434 63.6045 63.1866C63.495 63.0771 63.495 62.9676 63.3856 62.8581C63.1666 62.6392 62.9477 62.4203 62.7287 62.0918C63.2761 61.6539 63.714 61.216 64.2613 60.8876L64.1519 60.7781C63.6045 61.1066 63.0571 61.435 62.6192 61.7634C62.2908 61.3255 62.0719 60.8876 61.8529 60.4497C61.634 60.1213 61.5245 59.6834 60.9771 59.7929C60.8676 59.7929 60.7582 59.6834 60.6487 59.5739C60.4297 59.136 60.2108 58.6981 59.9918 58.2602C59.7729 57.4939 59.7729 56.7276 59.8824 55.9613C59.9918 55.6328 60.1013 55.1949 59.7729 54.757C59.2255 55.0855 59.2255 55.9613 58.5687 56.1802C58.4592 56.0707 58.4592 56.0707 58.4592 55.9613C58.3497 53.8812 58.6782 51.9107 59.7729 50.1591C59.8824 49.9402 59.9918 49.7212 59.7729 49.3928C59.335 49.7212 58.8971 50.2686 58.3497 50.4875C58.3497 49.7212 59.0066 49.6117 59.4445 49.1738C59.116 48.7359 59.4445 48.298 59.6634 47.9696C60.2108 47.0938 60.6487 46.1086 61.415 45.3422C61.5245 45.1233 61.634 45.0138 61.3055 44.7949C61.1961 44.9043 61.0866 44.9043 61.0866 45.0138C60.4297 46.1086 59.7729 47.0938 59.2255 48.1886C58.8971 48.736 58.5687 49.0644 57.9118 49.0644C57.5834 49.0644 57.255 49.0644 57.036 49.0644C55.9413 48.8454 54.956 48.9549 53.8613 49.1738C53.6423 49.2833 53.3139 49.2833 53.0949 49.1738C52.0002 48.9549 51.0149 49.0644 50.2486 49.9402C50.1391 49.7212 49.9202 49.5023 49.8107 49.2833C49.3728 49.7212 48.9349 50.0496 48.497 50.3781C48.2781 50.0496 48.6065 49.5023 48.0591 49.2833C47.7307 49.6117 47.4023 49.9402 46.9644 50.1591C46.636 50.3781 46.417 50.9254 45.8696 51.0349C45.9791 50.597 45.9791 50.1591 46.0886 49.8307C45.5412 49.6117 45.1033 49.8307 44.7749 50.0496C43.5707 50.7065 42.4759 51.3633 41.2717 52.0202C40.6149 52.3486 39.958 52.7865 39.1917 53.2244C39.0822 52.4581 39.7391 51.8012 39.4106 51.0349C38.5348 51.6918 38.0969 52.5676 37.2212 53.2244C36.8927 52.677 37.4401 52.0202 36.8927 51.5823C36.1264 52.4581 35.3601 53.2244 34.4843 54.1002C34.3748 53.4433 34.5938 53.1149 34.7032 52.677C34.7032 52.2391 35.0317 51.8012 34.4843 51.3633C33.6085 52.3486 33.1706 53.4433 32.4043 54.4286C32.1853 53.5528 32.0759 51.1444 32.1853 50.3781C32.2948 49.6117 32.4043 48.8454 32.5137 48.0791C32.5137 47.8601 32.5138 47.5317 32.1853 47.5317C32.1853 47.6412 32.0759 47.6412 32.0759 47.7507C31.9664 49.8307 31.7474 51.9107 31.9664 53.9907C32.0758 54.3191 32.0759 54.757 31.8569 55.0855C31.7474 55.3044 31.7474 55.5234 31.7474 55.8518C31.8569 55.8518 32.0759 55.8518 32.1853 55.8518C32.2948 56.6181 32.5138 57.275 32.6232 57.9318C32.6232 58.1507 32.6232 58.3697 32.5137 58.4792C32.0758 59.0265 31.638 59.5739 31.0906 60.1213C30.4337 60.8876 29.8864 61.6539 29.6674 62.6392C29.5579 63.0771 29.5579 63.515 29.2295 63.8434C29.0106 63.515 28.7916 63.2961 28.5727 62.9676C28.0253 63.9529 28.1348 64.9382 27.6969 65.9234C27.4779 65.814 27.259 65.7045 27.04 65.7045C26.8211 65.7045 26.7116 65.9234 26.4927 66.0329C26.4927 65.814 26.3832 65.595 26.3832 65.2666C26.2737 64.5003 26.2737 63.734 26.2737 62.9676C26.1642 61.3255 25.9453 59.5739 25.7263 57.9318C25.6169 57.056 25.6169 56.1802 25.6169 55.3044C25.5074 54.6476 25.5074 53.9907 25.3979 53.3339C25.2884 52.1297 25.2884 50.816 25.179 49.6117C25.179 49.5023 25.0695 49.3928 24.96 49.2833C24.8505 49.5023 24.7411 49.6117 24.7411 49.8307C24.7411 50.597 24.8505 51.3633 24.8505 52.1297C24.96 53.2244 25.0695 54.4286 25.179 55.5234C25.179 55.9613 25.2884 56.2897 25.2884 56.7276C25.179 58.2602 25.5074 59.6834 25.6169 61.1066C25.8358 63.296 26.0548 65.4855 26.1642 67.5656C26.2737 68.6603 26.2737 69.755 26.2737 70.8498C26.3832 71.9445 26.0548 72.8203 25.3979 73.5866C25.0695 73.9151 24.6316 74.2435 24.4126 74.6814C24.3032 74.7909 24.3032 74.9003 24.1937 74.9003C23.9747 75.3382 23.6463 75.7761 23.3179 76.214V76.3235C23.2084 76.9804 23.4274 77.5277 24.0842 77.7467C24.96 78.0751 25.8358 78.294 26.8211 78.1846C26.9306 78.1846 27.1495 78.1846 27.259 78.1846C27.9158 78.1846 28.6821 78.2941 29.339 78.2941C29.7769 78.2941 30.2148 78.2941 30.5432 77.8562C30.5432 77.0898 30.6527 76.214 30.6527 75.3382C30.6527 74.5719 30.6527 73.8056 30.7622 73.0393C30.7622 72.7109 30.8716 72.273 30.9811 71.9445C31.2001 71.6161 31.3095 71.2877 31.3095 70.8498C31.3095 70.3024 31.2001 69.6456 31.3095 69.0982C31.419 67.894 31.5285 66.7992 31.638 65.595C31.7474 64.8287 31.7474 64.0624 31.8569 63.296C32.0759 63.296 32.2948 63.4055 32.5137 63.4055C32.6232 62.2013 32.2948 60.9971 32.6232 59.9023C33.0611 60.1213 32.9517 60.7781 33.499 60.7781C33.499 60.5592 33.499 60.3402 33.3895 60.2308C33.0611 59.2455 33.0611 58.2602 32.7327 57.275C32.6232 56.9465 32.5137 56.5086 32.5137 56.0707C32.5137 55.8518 32.5137 55.6328 32.5137 55.5234C32.8422 54.6476 33.2801 53.7718 33.718 53.0054C33.8274 52.7865 33.9369 52.677 34.1559 52.5676C34.1559 53.1149 34.0464 53.5528 34.0464 53.9907C34.0464 54.4286 33.718 54.8665 33.9369 55.3044C34.5938 54.976 34.8127 54.3191 35.2506 53.8812C35.6885 53.4433 35.9075 52.7865 36.5643 52.5676C36.8927 53.1149 36.4548 53.7718 36.6738 54.3191C37.2212 54.1002 37.4401 53.6623 37.7685 53.3339C38.0969 53.0055 38.2064 52.4581 38.8633 52.2391C38.7538 52.5676 38.7538 52.896 38.6443 53.1149C38.5348 53.4434 38.4254 53.6623 38.6443 53.9907C38.8633 53.8812 39.0822 53.8812 39.3012 53.7718C40.9433 52.7865 42.6949 51.6918 44.337 50.7065C44.6654 50.4875 44.8844 50.3781 45.3223 50.4875C45.4317 51.1444 44.8844 51.8012 45.2128 52.4581C45.8696 52.3486 45.9791 51.6918 46.417 51.3633C46.8549 51.0349 47.0739 50.4875 47.7307 50.1591C47.6212 50.597 47.6212 50.9254 47.5118 51.2539C47.4023 51.6918 47.5118 52.0202 47.9497 52.1297C48.1686 51.2539 48.8254 50.7065 49.4823 50.1591C49.5918 50.3781 49.5918 50.597 49.7013 50.816C50.1391 50.9254 50.2486 50.597 50.4676 50.3781C51.0149 49.7212 51.6718 49.5023 52.5476 49.7212C53.2044 49.8307 53.7518 49.8307 54.2992 49.6117C55.2844 49.3928 56.1602 49.3928 57.1455 49.5023C57.4739 49.6117 57.8023 49.6117 58.2402 49.7212C58.2402 50.2686 57.6929 50.7065 57.8024 51.3633C58.1308 51.2539 58.4592 51.1444 58.8971 50.9254C58.3497 52.0202 58.1308 53.0054 58.0213 54.1002C57.9118 55.1949 58.0213 56.1802 57.9118 57.275C58.5687 57.1655 58.6781 56.6181 59.116 56.2897C59.116 56.7276 59.116 56.9465 59.116 57.275C59.116 58.6981 59.8824 59.6834 60.7582 60.5592C60.8676 60.6687 60.9771 60.7781 60.9771 60.7781C61.415 60.7781 61.415 60.9971 61.634 61.3255C61.9624 61.8729 62.4003 62.4203 62.8382 62.9676C63.6045 63.8434 64.3708 64.8287 65.1371 65.7045C65.2466 65.814 65.2466 66.0329 65.4656 66.2519C65.3561 66.2519 65.2466 66.2519 65.2466 66.2519C65.3561 66.3613 65.3561 66.4708 65.4656 66.4708C65.575 66.5803 65.5751 66.6898 65.5751 66.7992C65.6845 66.7992 65.6845 66.9087 65.6845 66.9087C66.1224 67.2371 66.5603 67.7845 66.5603 68.4414C66.3414 70.0835 66.3414 71.6161 66.3414 73.2582C66.3414 73.6961 66.2319 74.0245 66.2319 74.4624C65.9035 74.5719 65.575 74.6814 65.3561 74.7909C64.0424 75.1193 63.3856 76.1046 63.0571 77.3088C62.9477 77.7467 63.0571 78.0751 63.495 78.2941C63.9329 78.513 64.3708 78.6225 64.8087 78.7319C65.1371 78.8414 65.575 78.7319 65.9035 78.7319C66.8887 78.6225 67.874 78.513 68.8593 78.2941C69.2972 78.1846 69.8445 77.9656 70.2824 77.7467C70.8298 77.5277 70.9393 77.1993 71.0488 76.6519C71.0488 76.1046 71.1582 75.4477 71.1582 74.9003C71.2677 72.7108 71.3772 70.6308 71.4867 68.4414C71.5961 66.5803 71.8151 64.6097 72.034 62.7487C72.1435 62.0918 72.1435 61.5445 72.6909 61.1066C72.8004 61.216 72.9098 61.216 72.9098 61.3255C73.8951 62.2013 74.8804 62.9676 76.0846 63.6245C76.9604 64.0624 77.6172 64.5003 78.493 64.9382C78.712 65.0476 79.0404 65.1571 79.3688 65.0476C79.9162 64.8287 80.2446 65.0476 80.573 65.4855C81.2299 66.2519 81.4488 66.1424 82.1057 65.3761C82.3246 65.0476 82.6531 64.7192 82.9815 64.3908C83.4194 64.8287 83.5289 65.4855 84.1857 65.814C84.8426 65.595 84.8425 64.8287 85.3899 64.3908C85.4994 64.5003 85.6089 64.6097 85.7183 64.7192C85.9373 65.2666 86.1562 65.9234 86.3752 66.4708C86.4847 66.5803 86.5941 66.7992 86.7036 66.9087C86.9226 66.9087 87.032 66.6898 87.1415 66.4708C87.251 65.9234 87.4699 65.3761 87.5794 64.8287C88.1268 63.2961 88.6742 61.7634 89.6594 60.4497C89.9879 60.0118 90.3163 59.5739 90.5352 59.136C90.8636 58.5886 90.6447 58.3697 90.2068 58.2602ZM31.638 61.435C31.638 61.9824 31.638 62.6392 31.5285 63.1866C31.3095 65.1571 31.2001 67.1277 30.9811 69.0982C30.8716 70.1929 30.6527 71.2877 30.5432 72.3824C30.4337 73.9151 30.3243 75.5572 30.2148 77.0898C30.2148 77.3088 30.1053 77.5277 30.1053 77.7467C29.6674 77.7467 29.12 77.8562 28.6821 77.7467C28.3537 77.7467 28.1348 77.6372 27.8064 77.6372C27.3685 76.9804 27.1495 76.3235 27.3684 75.5572C27.4779 75.3382 27.4779 75.1193 27.1495 75.0098C26.7116 75.8856 26.8211 76.6519 27.1495 77.5277C26.7116 77.0898 26.1642 77.7467 25.6169 77.4183C25.5074 77.0898 25.5074 76.7614 25.7263 76.433C25.8358 76.214 25.9453 75.9951 25.9453 75.7761C25.9453 75.6667 25.8358 75.4477 25.8358 75.1193C25.179 75.8856 25.179 76.6519 24.96 77.3088C24.5221 77.4183 24.1937 77.3088 23.9748 76.9804C23.8653 76.7614 23.7558 76.3235 23.8653 76.214C24.3032 75.6667 24.4126 74.9003 25.0695 74.4624C25.5074 74.0245 25.9453 73.4772 26.2737 72.9298C26.6021 72.4919 26.8211 71.9445 26.6021 71.2877C26.6021 71.0687 26.6021 70.9593 26.6021 70.7403C26.6021 69.8645 26.4927 69.0982 26.7116 68.2224C26.9306 67.675 26.9306 66.9087 26.9306 66.2519C27.259 66.3613 27.4779 66.4708 27.8064 66.5803C27.9158 66.4708 28.0253 66.2519 28.0253 66.1424C28.1348 65.814 28.1348 65.3761 28.1348 65.0476C28.2442 64.7192 28.2443 64.3908 28.3537 63.9529C28.6822 64.1718 28.9011 64.2813 29.12 64.5003C29.2295 64.2813 29.339 64.1718 29.339 63.9529C29.5579 63.296 29.7769 62.6392 29.9958 61.9824C30.3243 61.1066 30.8716 60.3402 31.7474 59.6834C31.7474 60.4497 31.7474 60.8876 31.8569 61.5445C31.9664 61.5445 31.7474 61.5445 31.638 61.435ZM71.7056 63.4055C71.5961 64.7192 71.3772 66.0329 71.2677 67.3466C71.1582 68.9887 71.0488 70.7403 70.8298 72.3824C70.7203 73.8056 70.5014 75.2288 70.5014 76.6519C70.5014 77.1993 70.173 77.4183 69.7351 77.6372C68.7498 77.9656 67.7645 78.1846 66.6698 78.2941C66.6698 77.8562 66.5603 77.5277 66.5603 76.9804C66.4508 77.1993 66.3414 77.1993 66.3414 77.3088C66.2319 77.6372 66.2319 77.9656 66.2319 78.2941C65.794 78.513 65.4656 78.6225 65.0277 78.4035C64.9182 77.8562 64.9182 77.8561 65.4656 76.5425C65.0277 76.5425 65.0277 76.5425 64.3708 78.1846C63.8235 77.9656 63.714 77.8562 63.714 77.4183C63.9329 76.6519 64.2613 75.8856 65.1371 75.5572C65.6845 75.3382 66.2319 75.1193 66.8887 74.9003C66.8887 74.134 66.8887 73.3677 66.8887 72.6014C66.8887 71.6161 66.8887 70.5214 66.9982 69.5361C66.9982 69.4266 66.9982 69.2077 67.1077 69.2077C67.6551 68.7698 67.6551 68.1129 67.7645 67.5656C67.874 67.3466 67.874 67.0182 67.9835 66.6898C68.3119 66.9087 68.5309 67.1277 68.8593 67.4561C69.2972 66.5803 69.0782 65.595 69.4067 64.7192C69.5161 64.7192 69.6256 64.7192 69.6256 64.7192C70.3919 64.9382 70.7203 64.7192 71.0488 63.9529C71.1582 63.6245 71.2677 63.4055 71.5961 63.0771C71.5961 63.1866 71.7056 63.296 71.7056 63.4055ZM78.1646 64.1718C77.9457 64.0624 77.6172 63.9529 77.3983 63.8434C76.8509 63.6245 76.8509 63.515 77.1793 62.7487C77.3983 63.296 77.6172 63.8434 78.2741 63.9529C78.1646 63.9529 78.1646 64.0624 78.1646 64.1718Z" fill="black"/>
<path d="M17.7349 53.335C17.7349 53.0066 17.7349 52.6782 17.7349 52.1308C18.1728 52.7877 18.6107 53.2256 18.9391 53.6635C19.158 53.9919 19.4865 54.4298 19.7054 54.7582C19.9244 54.6487 20.0338 54.6487 20.2528 54.6487C20.3623 54.3203 20.1433 53.9919 20.4717 53.7729C20.8001 53.8824 21.0191 54.1014 21.1286 54.3203C21.3475 54.4298 21.6759 54.6487 21.8949 54.8677C22.3328 55.0866 22.7707 55.3056 23.0991 55.7435L23.2086 55.634C22.7707 55.0866 22.3328 54.6487 21.8949 54.2108C21.5665 53.8824 21.238 53.554 20.8001 53.2256C20.5812 53.1161 20.3623 53.0066 20.1433 53.0066C19.9244 53.0066 19.8149 53.2256 19.5959 53.2256C19.0486 52.8972 18.6107 52.4593 18.3917 51.9119C18.2822 51.5835 18.0633 51.3645 17.8443 51.0361C17.7349 50.9266 17.5159 50.9266 17.4065 50.8171C17.1875 51.255 17.5159 51.6929 17.078 52.1308C16.6401 51.5835 16.2022 51.1456 15.7643 50.5982C15.217 49.9413 14.6696 49.2845 14.5601 48.4087C14.5601 48.0803 14.3412 47.8613 13.9033 47.7519C13.6843 47.7519 13.4654 47.5329 13.3559 47.314C12.4801 46.1097 11.7138 44.9055 11.2759 43.4823C11.0569 42.716 10.619 42.0592 10.1811 41.5118C9.74323 41.0739 9.52428 40.636 9.30533 40.0886C9.08638 39.4318 8.97691 38.7749 8.86744 38.1181C8.75796 37.8991 8.75795 37.5707 8.42953 37.5707C8.10111 37.6802 8.21058 38.2276 7.66321 38.1181C7.33479 36.0381 7.00637 34.0675 7.77269 31.9875C7.88217 31.7686 7.99164 31.4402 7.66321 31.2212C7.11584 31.3307 7.00637 31.9875 6.34952 32.097C6.34952 31.7686 6.34952 31.5496 6.34952 31.3307C6.56847 29.9075 6.78742 28.4843 7.11584 27.0612C7.33479 25.9664 7.77269 24.8717 8.21058 23.7769C8.32006 23.2296 8.64848 22.7917 8.75796 22.2443C8.75796 22.1348 8.75796 21.9159 8.75796 21.8064H8.64849C8.42954 22.0253 8.32007 22.3538 8.10112 22.6822C7.88217 22.4632 7.66321 22.3538 7.33479 22.1348C7.44426 22.0253 7.66322 21.9159 7.77269 21.8064C8.86744 20.9306 9.96217 20.0548 11.1664 19.179C11.4948 18.9601 11.7138 18.7411 12.0422 18.5222C12.2611 18.3032 12.3706 18.1937 12.1517 17.7558C11.9327 17.9748 11.6043 18.0843 11.3854 18.1937C10.0717 19.179 8.64848 20.2738 7.11584 21.0401C6.56847 21.259 6.0211 21.478 5.47372 21.6969C5.03583 21.8064 4.48846 21.6969 4.16003 21.3685C3.94108 21.1496 3.72214 21.0401 3.39372 21.0401C3.50319 20.6022 3.83161 20.1643 4.16003 19.8359C4.70741 19.398 4.92636 18.7411 5.03583 18.0843C5.14531 17.5369 4.92635 17.2085 4.37898 17.099C3.72213 16.88 3.06528 16.7706 2.40843 16.9895C2.18949 17.099 1.97055 17.099 1.53265 17.099C1.97055 16.4422 2.29897 15.8948 2.84634 15.6758C3.28424 15.4569 3.8316 15.3474 4.05055 14.6906C4.05055 14.5811 4.2695 14.4716 4.37898 14.3621C4.92635 13.9242 5.5832 13.4863 6.13058 12.939C7.77269 11.7347 9.08638 10.3116 9.63376 8.23156C9.74323 7.90314 9.96218 7.57472 10.1811 7.24629C10.5096 6.91787 10.7285 6.47997 10.5096 6.04207C11.8232 4.72838 13.4654 4.72838 15.1075 4.72838C15.1075 4.6189 15.1075 4.50943 15.1075 4.50943C14.998 4.39996 14.8885 4.39996 14.7791 4.29048C14.0127 4.07153 13.2464 4.29048 12.4801 4.39995C12.2612 4.18101 12.0422 3.85258 11.9327 3.74311C11.4948 3.52416 11.0569 3.19573 10.619 3.08626C10.0716 2.86731 9.63376 2.53889 9.41481 1.99152C9.30534 1.55362 8.97691 1.11572 8.75796 0.787298C8.42953 0.239925 7.88217 -0.088499 7.22532 0.0209755C6.24005 0.13045 5.25477 0.239924 4.37898 0.568348C3.61266 0.787297 2.95581 1.11572 2.18949 1.33467C2.08001 1.33467 1.97054 1.55362 1.86106 1.66309C2.18949 1.88204 2.40844 1.99152 2.73686 2.10099C2.51791 2.42942 2.29897 2.64837 2.08002 2.86731C1.64213 3.52416 1.20422 4.18101 0.766318 4.83785C0.656843 4.94733 0.766328 5.16628 0.656853 5.38523C0.875802 5.38523 1.09474 5.4947 1.31369 5.4947C1.09474 5.9326 0.985267 6.3705 0.766318 6.69892C0.547369 7.35577 0.218949 8.01261 0 8.66946C0 8.77894 0.109481 8.88841 0.109481 8.99788C0.547379 8.88841 0.766325 8.45051 1.42317 8.45051C1.20422 8.88841 0.985274 9.21683 0.875799 9.65473C0.985274 9.65473 1.20422 9.76421 1.31369 9.76421C1.53264 9.65473 1.64212 9.54526 1.7516 9.32631C2.40845 8.55999 3.17476 8.01261 4.05055 7.57472C4.16003 7.46524 4.37898 7.46524 4.59792 7.35577C4.7074 7.46524 4.70741 7.57472 4.70741 7.57472C4.70741 8.88841 4.59792 10.0926 4.59792 11.4063C4.59792 11.8442 4.59793 12.2821 4.92635 12.72C5.25477 12.1726 5.25477 11.8442 5.1453 11.2968C5.03582 10.9684 5.03583 10.7495 5.03583 10.4211C5.03583 9.43578 5.1453 8.45051 5.25478 7.46524C5.47373 7.13682 5.80215 6.80839 6.0211 6.47997C6.24004 6.15155 6.78742 5.9326 6.56847 5.27575C6.13057 5.71365 5.69268 6.04207 5.25478 6.37049C5.1453 6.47997 4.92636 6.58945 4.81689 6.69892C4.48846 6.91787 4.05057 7.02734 3.72214 7.13682C3.61267 7.24629 3.39371 7.24629 3.06529 7.35577C3.39371 6.80839 3.61266 6.47997 3.83161 6.04207C3.28423 6.3705 2.84635 6.91787 2.6274 7.46524C2.51792 7.79366 2.29897 7.90314 1.97054 8.01261C1.86107 7.68419 1.86107 7.35577 1.7516 7.02734C1.42317 7.24629 1.09474 7.46524 0.766318 7.68419C0.766318 7.46524 0.766325 7.24629 0.875799 7.13682C1.20422 6.47997 1.53265 5.71365 1.7516 5.0568C1.86107 4.72838 1.97055 4.39996 2.08002 4.07153C2.08002 4.07153 1.97054 3.96206 1.97054 3.85258C1.75159 3.96206 1.53264 4.07153 1.31369 4.181C1.75159 3.08626 2.73686 2.53889 3.28423 1.77257C3.17476 1.55362 3.06528 1.44415 2.95581 1.2252C3.61265 1.00625 4.16004 0.677822 4.81689 0.568348C5.58321 0.458873 6.34953 0.349398 7.00638 0.349398C7.66322 0.349398 8.10111 0.677825 8.42953 1.2252C8.53901 1.44415 8.75796 1.66309 8.75796 1.99152C8.86743 2.97679 9.63376 3.19574 10.2906 3.52416C10.4001 3.52416 10.5096 3.52416 10.7285 3.63363C11.1664 3.85258 11.6043 4.07153 11.9327 4.50943C11.0569 5.16628 9.96219 5.4947 9.19587 6.26102C9.41481 6.47997 9.63376 6.58945 9.74324 6.69892C9.30534 7.13682 9.08639 7.68419 8.86744 8.23156C8.53901 9.21683 8.10111 10.2021 7.33479 10.859C6.78741 11.2968 6.34952 11.8442 5.80215 12.2821C4.70741 13.1579 3.72214 13.9242 2.6274 14.6906C2.1895 15.019 1.75159 15.2379 1.42317 15.6758C0.875799 16.3327 0.437898 17.099 0.547372 17.9748C0.656847 18.6316 0.656853 19.179 0.656853 19.8359C0.656853 20.4927 0.766318 20.9306 1.31369 21.3685C1.42316 21.478 1.42318 21.478 1.53265 21.5874C1.09475 22.3538 1.09474 23.2296 1.31369 24.1054C1.31369 24.2148 1.31369 24.3243 1.31369 24.3243C1.42316 25.2001 2.29897 26.1854 3.17477 26.2949C3.83162 26.4043 4.2695 26.2948 4.59792 25.638C4.81687 25.2001 5.03583 24.6527 5.25478 24.1054C5.47373 23.2296 6.0211 22.7917 6.67795 22.3538C7.00637 22.5727 7.33479 22.7917 7.66321 22.9011C7.22532 24.6527 6.459 26.1854 6.34952 27.937C6.24005 29.5791 5.5832 31.2212 5.80215 33.1917C6.24005 32.8633 6.459 32.6444 6.89689 32.3159C6.78742 32.6444 6.78741 32.8633 6.78741 33.0823C6.67794 33.3012 6.67795 33.6296 6.67795 33.8486C6.67795 35.4907 6.78743 37.2423 7.00638 38.8844C7.00638 39.1034 7.11584 39.3223 7.44427 39.3223C7.66322 39.1034 7.7727 38.8844 8.10112 38.556C8.2106 38.9939 8.21059 39.3223 8.32007 39.6507C8.64849 40.4171 8.86743 41.1834 9.30533 41.7308C9.63375 42.1687 9.96219 42.716 10.2906 43.1539C10.619 43.8108 10.838 44.4676 11.1664 45.015C11.8232 46.0003 12.5896 46.9855 13.1369 47.9708C13.6843 49.0655 14.4506 49.9413 15.3264 50.7077L15.4359 50.8171C15.9833 51.474 16.5307 52.1308 17.078 52.6782C17.297 53.3351 17.4064 53.554 17.7349 53.335ZM4.26951 17.7558C4.59794 18.1937 4.59793 18.1937 4.16003 18.7411C4.16003 18.3032 4.26951 17.9748 4.26951 17.7558ZM2.95581 19.398C3.06528 19.6169 3.0653 19.7264 3.17477 19.8359C2.73687 19.8359 2.73686 19.8359 2.95581 19.398ZM1.64212 21.0401C1.42317 20.6022 1.42317 20.0548 1.42317 19.398C2.08002 19.8359 2.51791 20.1643 2.95581 20.6022C2.84633 20.8211 2.73687 20.9306 2.6274 21.1495C2.40845 21.5874 1.86107 21.478 1.64212 21.0401ZM5.5832 22.7917C5.25478 23.1201 5.25477 23.558 5.1453 23.9959C5.03582 24.6527 4.81687 25.2001 4.59792 25.857C4.37898 26.4043 4.16003 26.4043 3.61266 26.1854C3.17476 26.0759 2.84635 25.857 2.6274 25.4191C2.95582 24.7622 3.61266 24.6527 4.16003 24.2148C3.39371 24.2148 2.95581 24.6527 2.51792 24.9812C2.08002 24.3243 2.08001 23.9959 2.73686 23.4485C3.06529 23.2296 3.39372 23.0106 3.72214 22.6822C3.28424 22.9011 2.73687 23.1201 2.29897 23.339C2.08002 22.5727 2.18949 22.3538 2.73686 21.9159C3.06529 21.6969 3.28424 21.3685 3.61266 21.0401C4.05056 22.0253 4.81689 22.4632 5.91163 22.2443C5.69268 22.4632 5.5832 22.6822 5.5832 22.7917Z" fill="black"/>
<path d="M23.6489 42.7039C23.9773 42.4849 24.0868 42.3754 24.3057 42.266C24.8531 41.8281 25.4005 41.2807 26.0573 40.9523C26.9331 40.4049 27.6994 39.6386 28.3563 38.8723C28.9037 38.2154 29.5605 37.7775 30.3268 37.3396C30.4363 37.2301 30.5458 37.3396 30.6552 37.2301C30.6552 37.4491 30.6552 37.668 30.6552 37.7775C30.6552 37.9965 30.5458 38.1059 30.5458 38.4344C31.2026 38.4344 31.531 37.9965 31.9689 37.7775C32.4068 37.5586 32.9542 37.3396 33.3921 37.2301C33.83 37.668 33.3921 38.1059 33.6111 38.5438C35.8005 37.4491 37.5521 35.6975 39.7416 34.6027C40.289 34.8217 39.8511 35.4785 40.1795 35.807C41.3837 35.3691 41.9311 34.2743 42.8069 33.6175C43.0259 33.7269 43.3543 33.8364 43.5732 33.9459C44.0111 33.727 44.2301 33.3985 44.449 33.0701C45.3248 31.9754 46.0912 30.8806 46.967 29.7859C47.2954 29.348 47.7333 29.0196 48.0617 28.5817C48.1712 28.4722 48.2806 28.4722 48.6091 28.3627C48.4996 28.5816 48.3901 28.6911 48.2806 28.8006C47.7333 29.348 47.1859 29.8953 46.748 30.5522C45.9817 31.5375 45.2154 32.5227 44.449 33.6175C44.449 33.7269 44.3396 33.7269 44.3396 33.8364C43.7922 34.4933 43.6827 34.4933 42.6974 34.1648C41.8216 35.0406 40.9458 36.0259 39.6322 36.5733C39.5227 36.3543 39.5227 36.1354 39.5227 35.9164C39.5227 35.6975 39.5227 35.588 39.5227 35.2596C38.9753 35.3691 38.5374 35.588 38.209 35.9164C37.0048 36.7922 35.91 37.5586 34.7058 38.4344C34.3774 38.6533 34.049 38.8722 33.7205 39.0912C33.5016 39.2007 33.3921 39.2007 33.0637 39.4196C33.0637 38.8723 33.0637 38.4344 33.0637 37.9965C32.1879 38.1059 31.6405 38.5438 30.9837 38.9817C30.6553 39.2007 30.4363 39.4196 29.9984 39.3101C29.9984 38.9817 29.9984 38.6533 30.1079 38.3249C29.7795 38.3249 29.5605 38.5438 29.3416 38.6533C29.0131 38.9817 28.6847 39.3101 28.3563 39.6386C27.6994 40.2954 27.1521 40.9523 26.3858 41.3902C25.51 41.9375 24.7436 42.5944 24.0868 43.3607C23.8678 43.5797 23.6489 43.7986 23.4299 43.9081C22.992 43.6891 23.211 43.4702 23.211 43.2512C23.5394 41.8281 23.8678 40.2954 24.1963 38.8723C24.6342 36.6828 25.072 34.3838 25.4005 32.1943C25.5099 31.3185 25.51 30.4427 25.51 29.5669C25.6194 28.0343 25.6194 26.5016 25.6194 25.0785C25.6194 22.7795 25.7289 20.3711 25.51 18.0721C25.4005 17.4153 25.291 16.7584 25.291 16.1016C25.7289 16.1016 25.8384 16.3205 25.8384 16.6489C25.9479 17.6342 26.0573 18.51 26.0573 19.4953C26.0573 21.6848 26.0573 23.9837 26.0573 26.1732C26.0573 28.2532 25.9478 30.4427 25.7289 32.5227C25.5099 34.7122 24.9626 36.7922 24.6342 38.9817C24.4152 39.967 24.1963 41.0617 23.9773 42.047C23.6489 42.1565 23.6489 42.3754 23.6489 42.7039Z" fill="black"/>
<path d="M17.8456 5.06178C17.7361 5.17125 17.5172 5.3902 17.4077 5.3902C17.1887 5.28073 17.1887 5.06178 17.2982 4.84283C17.4077 4.73335 17.4077 4.62388 17.5172 4.40493C17.0793 4.29545 16.7508 4.18598 16.4224 4.07651C15.9845 3.85756 15.8751 3.52913 16.3129 3.20071C17.1887 2.54386 18.0645 1.77754 19.1593 1.66807C19.5972 1.66807 20.0351 1.55859 20.473 1.55859C21.1298 1.55859 21.7867 1.55859 22.4435 1.55859C23.3193 1.55859 24.1951 1.77754 24.9614 2.10597C25.8372 2.43439 26.6035 2.76281 27.3699 3.20071C28.1362 3.52913 28.6836 4.18598 29.4499 4.84283C29.1215 4.9523 28.9025 5.06178 28.5741 5.06178C28.5741 5.28073 28.5741 5.60915 28.5741 5.93757C28.5741 6.266 28.6836 6.59442 28.6836 6.92284C28.6836 6.92284 28.6836 7.03232 28.5741 7.03232C27.8078 7.36074 27.4793 7.90811 27.1509 8.67444C26.932 9.11233 26.713 9.44076 26.3846 9.76918C25.9467 10.426 25.3993 11.0829 24.8519 11.7397C24.414 12.2871 23.9762 12.6155 23.8667 13.2724C23.2098 13.2724 23.2098 13.2724 23.1004 11.5208C22.8814 11.5208 22.553 11.5208 22.334 11.5208C21.4583 11.4113 21.0203 11.3018 21.0203 10.2071C21.0203 10.0976 21.0203 10.0976 21.0203 9.98813C20.9109 9.98813 20.9109 9.87865 20.9109 9.87865C19.9256 9.6597 19.3782 9.00286 19.0498 8.01759C18.9403 7.79864 18.9403 7.47022 18.8308 7.25127C18.6119 6.48495 18.393 5.71862 17.7361 5.17125C17.8456 5.28073 17.8456 5.17125 17.8456 5.06178C18.6119 5.28073 19.0498 5.8281 19.1593 6.59442C19.2688 7.14179 19.4877 7.68916 19.5972 8.23654C19.7067 8.45548 19.8161 8.56496 19.9256 8.78391C20.1445 8.56496 20.3635 8.45548 20.473 8.23654H20.5824C20.473 8.45548 20.3635 8.78391 20.254 9.11233C20.6919 9.22181 21.1298 9.33128 21.5677 9.33128C21.5677 9.44076 21.6772 9.55023 21.6772 9.6597C21.6772 9.87865 21.7867 9.98813 21.7867 10.2071C21.8961 10.7544 21.8961 10.7545 22.4435 10.8639C22.6625 10.8639 22.8814 10.8639 23.2098 10.8639C23.8667 10.8639 23.9762 11.0829 23.9762 11.7397C23.9762 11.8492 23.9762 12.0681 23.9762 12.2871C25.2899 10.9734 26.3846 9.55023 27.1509 8.01759C27.3699 7.47021 27.8078 6.92284 28.2457 6.59442C28.4646 5.71862 27.6983 4.9523 28.1362 4.07651C28.0267 3.96703 27.8078 3.74808 27.5888 3.74808C26.1656 3.20071 24.852 2.65334 23.4288 2.10597C23.3193 2.10597 23.2098 1.99649 22.9909 1.99649C21.6772 1.99649 20.254 1.88702 18.9403 2.21544C18.0645 2.43439 17.2982 2.98176 16.6414 3.63861C17.0793 3.74808 17.4077 3.85756 17.7361 3.96703C18.2835 4.18598 18.2835 4.29546 18.0645 4.84283C17.9551 4.9523 17.8456 4.9523 17.8456 5.06178Z" fill="black"/>
<path d="M20.1465 30.4673C19.5991 31.8905 19.4896 33.0947 19.818 35.1747C20.4749 34.9558 20.6938 34.1894 21.4601 33.9705C20.8033 34.7368 19.9275 35.2842 19.7085 36.4884C20.3654 35.941 20.9128 35.5031 21.5696 35.0652L21.6791 35.1747C21.3507 35.5031 21.0223 35.8316 20.6938 36.16C20.4749 36.3789 20.1464 36.5979 19.9275 36.9263C19.5991 37.2547 19.5991 37.6926 19.818 37.9116C20.1465 38.3495 20.1464 38.8968 20.2559 39.3347C20.3654 41.0863 20.4749 42.9474 20.5843 44.699C20.5843 44.9179 20.5844 45.1369 20.6938 45.4653C20.8033 46.0127 21.0223 46.5601 21.2412 47.1074C21.4602 48.2022 21.898 49.1874 22.4454 50.1727C22.5549 50.5011 22.6644 50.7201 22.6644 51.158C22.5549 51.0485 22.3359 50.939 22.2265 50.7201C21.5696 49.6253 21.0222 48.6401 20.8033 47.4358C20.8033 47.2169 20.6938 47.1074 20.6938 46.8885C20.1465 45.7937 20.1465 44.699 20.1465 43.6042C20.037 42.2905 20.037 41.0863 19.9275 39.7726C19.9275 39.4442 19.9275 38.8968 19.4896 38.7874C19.3801 38.7874 19.3801 38.5684 19.3801 38.4589C19.3801 38.1305 19.3801 37.6926 19.4896 37.3642C19.7086 36.5979 19.5991 35.8316 19.4896 35.0652C19.3801 33.6421 19.3801 32.2189 19.5991 30.7957C19.7086 30.1389 19.7086 30.1389 20.3654 29.8105C20.037 28.0589 19.7086 26.1978 18.9422 24.5557C18.8328 24.3367 18.7233 24.1178 18.5043 24.0083C18.3949 23.7894 18.2854 23.6799 18.5043 23.4609C18.6138 23.5704 18.8327 23.5704 18.8327 23.6799C19.1612 24.2273 19.4896 24.7746 19.5991 25.322C19.9275 26.3073 20.1464 27.402 20.4749 28.3873C20.6938 29.0441 20.8033 29.701 21.0222 30.4673C20.9128 30.7957 20.4749 30.3578 20.1465 30.4673Z" fill="black"/>
<path d="M9.96973 14.481C9.96973 14.3715 10.0792 14.2621 10.0792 14.2621C10.8455 13.6052 11.2834 12.8389 11.7213 12.0726C12.2687 11.0873 12.8161 10.102 13.4729 9.11676C13.3634 8.89781 13.254 8.67887 13.1445 8.45992C15.4434 5.61358 15.5529 5.50411 16.3192 5.28516C16.2098 5.50411 16.2098 5.61358 16.1003 5.72306C15.5529 6.3799 14.8961 7.03675 14.3487 7.6936C14.1298 7.91254 14.0203 8.13149 14.2392 8.45992C14.3487 8.78834 14.1298 9.11676 14.0203 9.33571C13.3634 10.4305 12.7066 11.4157 12.0497 12.5105C11.7213 13.0578 11.3929 13.6052 10.955 14.2621C11.8308 14.5905 12.4876 15.2473 13.035 16.0137C13.254 16.3421 13.5824 16.561 13.8013 16.8894C14.1298 17.2179 14.3487 17.6558 14.5677 18.2031C14.7866 18.9695 15.2245 19.7358 15.7719 20.2832C16.1003 20.1737 16.3192 20.0642 16.6477 20.0642C16.9761 20.0642 17.195 20.3926 17.3045 20.7211C17.5235 21.2684 17.8519 21.8158 18.0708 22.3632C18.1803 22.5821 18.1803 22.6916 18.1803 23.1295C17.6329 22.8011 17.6329 22.2537 17.3045 21.8158C17.0856 21.4874 16.8666 21.0495 16.6477 20.6116C16.4287 20.8305 16.2098 20.94 16.1003 21.159C15.9908 21.159 15.8813 21.159 15.8813 21.0495C15.5529 20.6116 15.2245 20.2832 14.8961 19.8453C14.3487 18.9695 13.8013 17.9842 13.1445 17.1084C12.9255 16.6705 12.5971 16.2326 12.2687 15.7947C11.8308 15.1379 11.1739 14.7 10.4076 14.7C10.2981 14.5905 10.1887 14.481 9.96973 14.481Z" fill="black"/>
<path d="M12.1491 33.4148C13.0249 33.4148 13.3534 34.4 14.2292 34.5095C14.6671 33.9621 14.7765 33.1958 15.105 32.6484C15.2144 33.1958 14.886 34.4 14.5576 34.8379C14.3386 35.0569 14.1197 35.0569 13.7913 34.9474C13.4628 34.8379 13.3534 34.619 13.1344 34.4C12.9155 34.2906 12.6965 34.1811 12.3681 33.9621C12.3681 34.5095 12.3681 34.9474 12.4776 35.2758C12.4776 35.6042 12.587 36.0421 12.2586 36.48C11.8207 35.6042 11.8207 34.1811 12.1491 33.4148Z" fill="black"/>
<path d="M14.5563 12.0712C14.5563 12.5091 14.2279 13.0565 13.8995 13.1659C13.5711 13.2754 13.1332 12.947 12.9142 12.6186C12.5858 12.0712 13.2426 11.0859 13.79 11.0859C14.1184 11.0859 14.5563 11.5238 14.5563 12.0712Z" fill="black"/>
<path d="M5.80664 10.8525C5.80664 10.3051 6.02559 9.86719 6.57296 9.86719C7.01086 9.86719 7.22981 10.0861 7.22981 10.524C7.22981 10.9619 6.79191 11.3998 6.35401 11.3998C6.02559 11.3998 5.80664 11.2904 5.80664 10.8525Z" fill="black"/>
<path d="M60.3154 55.7362C60.3154 55.6267 60.3154 55.5172 60.3154 55.5172C61.1912 54.9698 61.8481 54.2035 62.9428 53.7656C62.8333 54.2035 62.5049 54.4225 62.286 54.5319C61.6291 54.7509 61.0817 55.1888 60.5344 55.6267C60.5344 55.7362 60.4249 55.7362 60.3154 55.7362Z" fill="black"/>
<path d="M11.1726 23.2246C11.0631 22.7867 10.9536 22.5678 10.9536 22.1299C10.7347 22.4583 10.6252 22.7868 10.5157 23.0057H10.4062C10.6252 22.3489 10.8441 21.8015 11.1726 21.0352C11.501 21.4731 11.2821 22.0204 11.3915 22.4583C11.501 22.4583 11.6105 22.4583 11.8294 22.4583C11.6105 22.6773 11.3915 22.8962 11.1726 23.2246Z" fill="black"/>
<path d="M15.8702 11.0834C14.9944 10.5361 14.666 10.0982 14.666 9.55078C15.1039 9.66026 15.7608 10.3171 15.8702 11.0834Z" fill="black"/>
<path d="M75.87 56.5195C74.8847 57.0669 74.0089 57.7237 73.0236 58.2711C72.9142 58.2711 72.9142 58.2711 72.8047 58.2711C73.0236 57.9427 75.1037 56.629 75.87 56.5195Z" fill="black"/>
<path d="M63.3841 54.8633C62.5083 55.4106 61.742 55.958 60.8662 56.6149C60.8662 56.2864 60.8662 56.0675 60.9757 56.0675C61.6325 55.958 62.0704 55.4106 62.7273 55.0822C62.8367 54.8633 63.0557 54.7538 63.3841 54.8633Z" fill="black"/>
<path d="M35.0362 50.2617C34.3793 50.8091 33.613 51.4659 32.8467 52.0133C33.0656 51.3565 34.0509 50.5901 35.0362 50.2617Z" fill="black"/>
<path d="M26.0537 34.2708C26.82 33.8329 27.4769 33.2856 28.2432 32.8477C27.5864 33.5045 26.9295 33.9424 26.1632 34.3803C26.0537 34.3803 26.0537 34.3803 26.0537 34.2708Z" fill="black"/>
<path d="M63.8252 62.3138C64.2631 61.5475 64.9199 61.3285 65.5768 60.8906L65.6863 61.0001C65.0294 61.438 64.3726 61.8759 63.8252 62.3138Z" fill="black"/>
<path d="M2.2998 7.34945C2.62823 6.47365 3.1756 6.03575 3.61349 5.37891C3.39455 5.92628 2.84718 6.80207 2.2998 7.34945Z" fill="black"/>
<path d="M11.9385 21.911C12.048 21.692 12.2669 21.3636 12.4858 21.0352C12.8143 21.3636 13.0332 21.692 13.3616 22.0204C12.9237 22.1299 12.8143 21.692 12.3764 21.4731C12.2669 21.5825 12.2669 21.8015 12.1574 22.0204C12.0479 22.0204 12.048 21.911 11.9385 21.911Z" fill="black"/>
<path d="M14.7767 30.345C14.0104 30.1261 13.5725 29.5787 13.3535 29.0314L13.463 28.9219C13.9009 29.4692 14.3388 29.7977 14.7767 30.345Z" fill="black"/>
<path d="M73.5664 56.2901C74.1138 55.6332 74.8801 55.3048 75.7559 55.1953C75.318 55.4143 74.9896 55.6332 74.5517 55.7427C74.2233 55.9616 73.8948 56.1806 73.5664 56.2901Z" fill="black"/>
<path d="M4.59972 16.2225C4.05234 16.332 3.72393 16.4414 3.39551 16.113C3.94288 15.7846 4.05234 15.7846 4.59972 16.2225Z" fill="black"/>
<path d="M85.6078 59.3555C85.2794 59.7934 84.6226 60.3407 84.0752 60.5597C84.5131 60.0123 85.0605 59.6839 85.6078 59.3555Z" fill="black"/>
<path d="M7.55286 8.54616C7.00549 8.76511 6.67706 9.09353 6.34863 8.76511C6.67706 8.32721 6.67706 8.32721 7.55286 8.54616Z" fill="black"/>
<path d="M26.707 59.349C26.926 58.6921 27.4733 58.2542 28.0207 57.9258C27.5828 58.3637 27.1449 58.9111 26.707 59.349Z" fill="black"/>
<path d="M84.518 59.25C84.1896 59.9068 83.5327 60.1258 82.9854 60.5637C83.3138 60.1258 83.8611 59.5784 84.518 59.25Z" fill="black"/>
<path d="M28.0277 58.9219C27.5898 59.4692 27.2613 60.0166 26.6045 60.4545C26.8234 59.9071 27.4803 59.2503 28.0277 58.9219Z" fill="black"/>
<path d="M43.1326 43.9188C42.6947 43.6998 42.3663 43.4809 42.2568 43.043C42.6947 43.1524 42.6947 43.2619 43.1326 43.9188Z" fill="black"/>
<path d="M41.2695 44.1445C41.7074 44.254 41.9264 44.5824 42.1453 45.0203C41.8169 44.6919 41.4885 44.473 41.2695 44.1445Z" fill="black"/>
<path d="M14.6776 28.9265C14.4586 28.7075 14.2397 28.4886 13.8018 28.1602C14.3491 28.2696 14.3491 28.2696 14.6776 28.9265Z" fill="black"/>
<path d="M42.5859 29.4844C42.4764 29.9223 42.0385 30.2507 41.6006 30.4696C41.8195 30.0317 42.148 29.7033 42.5859 29.4844Z" fill="black"/>
<path d="M83.0994 59.1211C82.8805 59.4495 82.552 59.6685 82.3331 59.9969L82.2236 59.8874C82.4426 59.559 82.6615 59.2306 83.0994 59.1211Z" fill="black"/>
<path d="M5.47751 19.5C5.58687 19.6094 5.69623 19.7187 5.69623 19.8281C5.69623 19.9375 5.58687 20.0468 5.47751 20.0468C5.47751 20.0468 5.25879 19.9375 5.25879 19.8281C5.25879 19.7187 5.36815 19.6094 5.47751 19.5Z" fill="black"/>
<path d="M26.6052 32.4344C26.3857 32.6539 26.0564 32.8734 25.8369 32.9832C25.9467 32.5441 26.276 32.5441 26.4955 32.2148C26.6052 32.3246 26.6052 32.4344 26.6052 32.4344Z" fill="black"/>
<path d="M43.2354 29.036C43.4543 28.817 43.7827 28.4886 44.0017 28.1602C43.8922 28.7075 43.8922 28.7075 43.2354 29.036Z" fill="black"/>
<path d="M5.69245 20.4023C5.91117 20.6211 6.02054 20.7304 5.80181 20.9492H5.58309C5.36437 20.6211 5.47372 20.5117 5.69245 20.4023Z" fill="black"/>
<path d="M85.1699 57.832C84.8415 58.051 84.4036 58.2699 84.0752 58.4889C84.2941 58.1605 84.6226 57.9415 85.1699 57.832Z" fill="black"/>
<path d="M15.113 42.6094C14.894 42.9378 14.6751 43.1568 14.4561 43.4852L14.3467 43.3757C14.4562 42.9378 14.6751 42.7188 15.113 42.6094Z" fill="black"/>
<path d="M33.3982 50.2617C33.2885 50.7008 32.9592 50.8105 32.6299 51.0301C32.7396 50.7008 32.9592 50.3715 33.3982 50.2617Z" fill="black"/>
<path d="M14.666 44.4848C14.7758 44.0458 15.1051 44.0458 15.4343 44.2653C15.2148 44.2653 14.8855 44.3751 14.666 44.4848Z" fill="black"/>
<path d="M83.0908 59.1451C83.3098 58.7072 83.6382 58.4883 84.0761 58.4883C83.7477 58.7072 83.4192 58.9262 83.0908 59.1451Z" fill="black"/>
<path d="M84.5117 59.2523C84.7312 59.0328 84.9508 58.8133 85.2801 58.5938C85.0605 59.0328 84.841 59.2523 84.5117 59.2523Z" fill="black"/>
<path d="M56.1582 41.0797C56.3777 40.9699 56.5973 40.8601 56.8168 40.6406L56.9265 40.7504C56.707 40.8601 56.4875 40.9699 56.268 41.1894C56.1582 41.1894 56.1582 41.0797 56.1582 41.0797Z" fill="black"/>
<path d="M6.78904 18.9609C6.8984 19.0703 7.00778 19.1797 7.00778 19.1797C7.00778 19.289 6.8984 19.3984 6.78904 19.5077C6.67968 19.5077 6.67969 19.3984 6.67969 19.3984C6.67969 19.289 6.67968 19.1797 6.78904 18.9609Z" fill="black"/>
<path d="M42.038 28.7969C41.9287 28.9062 41.8193 29.0156 41.6006 29.1249C41.7099 29.0156 41.8193 28.7969 41.9287 28.6875C42.038 28.6875 42.038 28.6875 42.038 28.7969Z" fill="black"/>
<path d="M15.1143 42.5976C15.333 42.3789 15.5517 42.1601 15.7704 41.9414C15.5517 42.3789 15.5517 42.3789 15.1143 42.5976Z" fill="black"/>
<path d="M28.3564 31.3242C28.247 31.7617 28.1376 31.7617 27.7002 31.5429C28.0283 31.5429 28.1376 31.4336 28.3564 31.3242Z" fill="black"/>
<path d="M34.0449 49.832C34.1543 49.5039 34.373 49.3945 34.7011 49.3945C34.373 49.5039 34.1543 49.6133 34.0449 49.832Z" fill="black"/>
<path d="M56.2753 40.3164C56.0566 40.4258 55.9472 40.5351 55.7285 40.6445L55.6191 40.5351C55.7285 40.4258 55.9472 40.3164 56.0566 40.207C56.2753 40.207 56.2753 40.3164 56.2753 40.3164Z" fill="black"/>
<path d="M43.2441 29.0508C43.0253 29.2695 42.8066 29.3789 42.5879 29.4882C42.6973 29.2695 42.916 29.0508 43.2441 29.0508Z" fill="black"/>
<path d="M41.0595 29.8047C40.9501 29.914 40.8408 30.0234 40.7314 30.1328L40.6221 30.0234C40.7314 29.914 40.8408 29.8047 40.9502 29.6953C40.9502 29.6953 40.9501 29.6953 41.0595 29.8047Z" fill="black"/>
<path d="M34.0478 49.7344C33.9384 50.0625 33.7197 50.1718 33.3916 50.2812C33.6103 50.1718 33.8291 49.9531 34.0478 49.7344Z" fill="black"/>
<path d="M28.0195 58.9218C28.0195 58.8125 28.0195 58.7031 28.1289 58.7031C28.2382 58.5937 28.3476 58.5938 28.457 58.5938C28.3476 58.7031 28.2383 58.8125 28.0195 58.9218Z" fill="black"/>
<path d="M22.0019 7.24219C21.7832 7.35155 21.5644 7.57027 21.3457 7.789C21.4551 7.35155 21.4551 7.35155 22.0019 7.24219Z" fill="black"/>
<path d="M19.8164 7.90622C19.9258 7.79686 20.0351 7.6875 20.0351 7.6875C20.0351 7.6875 20.1445 7.6875 20.1445 7.79686C20.0351 7.90623 20.0351 8.01559 19.9258 8.12495C19.9258 8.01559 19.8164 8.01559 19.8164 7.90622Z" fill="black"/>
<path d="M6.45892 10.3203C6.45892 10.4296 6.34954 10.6484 6.24018 10.6484C6.13082 10.6484 5.91211 10.6484 5.91211 10.4296C5.91211 10.3203 6.02147 10.1016 6.13083 10.1016C6.34955 10.1016 6.45892 10.2109 6.45892 10.3203Z" fill="white"/>
<path d="M13.6835 11.7265C13.6835 11.8359 13.5742 12.0546 13.4648 12.0546C13.3554 12.0546 13.1367 12.0546 13.1367 11.8359C13.1367 11.7265 13.2461 11.5078 13.3554 11.5078C13.4648 11.5078 13.6835 11.6172 13.6835 11.7265Z" fill="white"/>
<path d="M1.53146 17.8754C1.85989 17.7659 2.1883 17.7659 2.40724 17.7659C2.84514 17.7659 3.17357 17.8754 3.50199 17.9849C3.61146 17.9849 3.61148 17.9849 3.72095 17.8754C3.72095 17.7659 3.72094 17.6565 3.61147 17.6565C3.17357 17.4375 2.84514 17.4375 2.40724 17.4375C2.07882 17.4375 1.7504 17.547 1.42198 17.6565C1.31251 17.6565 1.3125 17.7659 1.3125 17.8754C1.3125 17.8754 1.42199 17.8754 1.53146 17.8754Z" fill="white"/>
<path d="M61.3065 60.3488C61.3065 60.4583 61.3065 60.5677 61.3065 60.6772C61.3065 60.7867 61.4159 60.8962 61.4159 61.0056C61.3065 62.3193 61.197 63.633 61.197 64.9467C61.0875 66.5888 61.0875 68.3404 61.0875 69.9825C61.0875 71.4057 60.978 72.8289 60.978 74.2521C60.978 74.7994 60.7591 75.1278 60.3212 75.2373C59.3359 75.5657 58.3507 75.8942 57.2559 76.0036C57.1464 75.5657 57.1464 75.2373 57.037 74.69C56.9275 74.9089 56.818 75.0184 56.818 75.0184C56.7086 75.3468 56.7085 75.6752 56.7085 76.0036C56.3801 76.2226 55.9422 76.3321 55.5043 76.2226C55.3948 75.6752 55.3948 75.6752 55.8327 74.3615C55.3948 74.3615 55.3949 74.3615 54.8475 76.1131C54.3001 76.0036 54.0812 75.7847 54.1906 75.3468C54.3001 74.471 54.6285 73.8142 55.5043 73.3763C56.0517 73.1573 56.5991 72.9384 57.2559 72.6099C57.2559 71.8436 57.1464 71.0773 57.1464 70.311C57.1464 69.3257 57.037 68.231 57.037 67.2457C57.037 67.1362 57.037 66.9173 57.1464 66.9173L57.2559 66.8078C57.2559 66.3699 57.1464 65.932 57.037 65.6036C56.9275 65.3846 56.818 65.2751 56.818 65.0562V65.1657C56.3801 64.3994 55.9422 63.633 55.3949 62.9762C54.8475 62.3193 54.1906 61.6625 53.5338 61.0056C53.4243 60.8962 53.3148 60.7867 53.3148 60.6772C53.0959 60.4583 52.8769 60.2393 52.658 60.0204C53.2054 59.5825 53.6433 59.1446 54.0812 58.7067L53.9717 58.5972C53.4243 58.9256 52.9864 59.3635 52.439 59.692C52.1106 59.2541 51.8917 58.8162 51.5632 58.3783C51.3443 58.0498 51.1253 57.6119 50.578 57.8309C50.4685 57.8309 50.359 57.7214 50.2496 57.6119C50.0306 57.174 49.7022 56.7361 49.5927 56.2982C49.3738 55.5319 49.2643 54.7656 49.3738 53.9993C49.3738 53.6709 49.4832 53.233 49.1548 52.7951C48.6074 53.1235 48.7169 53.9993 48.0601 54.3277C47.9506 54.2182 47.9506 54.2182 47.9506 54.1087C47.8411 52.9045 47.8411 51.7003 48.1695 50.4961C48.0601 50.4961 47.8411 50.6056 47.7316 50.6056C47.6222 51.1529 47.6222 51.8098 47.5127 52.3572C47.5127 53.4519 47.6222 54.4372 47.6222 55.5319C48.279 55.4224 48.3885 54.7656 48.8264 54.4372C48.8264 54.8751 48.9359 55.094 48.9359 55.4224C49.0453 56.8456 49.8117 57.7214 50.6874 58.7067C50.7969 58.8162 50.9064 58.9256 50.9064 58.9256C51.3443 58.9256 51.3443 59.1446 51.5632 59.3635C52.0011 59.9109 52.3296 60.4583 52.7675 60.8962C53.5338 61.772 54.4096 62.6478 55.1759 63.5236C55.2854 63.633 55.3948 63.852 55.5043 64.0709C55.3948 64.0709 55.2854 64.0709 55.2854 64.0709C55.3948 64.1804 55.3948 64.2899 55.5043 64.2899C55.6138 64.3994 55.6138 64.5088 55.6138 64.6183C55.7233 64.6183 55.7233 64.7278 55.7233 64.7278C56.1612 65.0562 56.7085 65.6036 56.5991 66.2604C56.4896 67.9025 56.4896 69.4352 56.5991 71.0773C56.5991 71.5152 56.5991 71.8436 56.5991 72.2815C56.2706 72.391 56.0517 72.6099 55.7233 72.7194C54.4096 73.1573 53.8622 74.1426 53.6433 75.3468C53.5338 75.7847 53.6433 76.1131 54.0812 76.2226C54.5191 76.4415 54.957 76.551 55.3949 76.551C55.7233 76.551 56.1612 76.551 56.4896 76.4415C57.4749 76.2226 58.4601 76.1131 59.4454 75.8942C59.8833 75.7847 60.4307 75.5657 60.8686 75.3468C61.3065 75.1278 61.5254 74.7994 61.5254 74.2521C61.5254 73.7047 61.5254 73.0478 61.5254 72.5005C61.5254 70.311 61.5254 68.231 61.5254 66.0415C61.5254 64.1804 61.6349 62.2099 61.7444 60.3488V60.2393C61.5254 60.3488 61.4159 60.3488 61.3065 60.3488Z" fill="black"/>
<path d="M49.5887 53.9824C49.5887 53.8729 49.4792 53.7634 49.5887 53.7634C50.4645 53.216 51.1213 52.4497 52.2161 51.9023C52.1066 52.3402 51.8877 52.5592 51.5592 52.6687C50.9024 52.8876 50.355 53.435 49.9171 53.8729C49.6982 53.8729 49.6982 53.8729 49.5887 53.9824Z" fill="black"/>
<path d="M52.552 52.793C51.7857 53.4498 51.0194 53.9972 50.1436 54.654C50.1436 54.3256 50.1436 54.1067 50.253 54.1067C50.9099 53.9972 51.3478 53.4498 51.8952 53.0119C52.0046 52.9024 52.2236 52.793 52.552 52.793Z" fill="black"/>
<path d="M53.3105 60.3491C53.639 59.5827 54.4053 59.2543 54.9527 58.8164L55.0621 58.9259C54.5148 59.3638 53.9674 59.8017 53.3105 60.3491Z" fill="black"/>
<path d="M20.2551 57.1585C19.9267 56.1732 19.8172 54.969 19.5983 53.9837C19.5983 53.8742 19.4888 53.7648 19.4888 53.5458C19.2699 53.3269 19.1604 52.9985 19.1604 52.67C19.0509 52.67 19.0509 52.5606 18.9414 52.5606C19.0509 53.3269 19.2698 53.9837 19.3793 54.6406C19.3793 54.8595 19.3793 55.0785 19.2699 55.1879C19.1604 55.2974 19.1604 55.4069 19.0509 55.5164C19.1604 55.6258 19.1604 55.7353 19.1604 55.8448C19.1604 56.0637 19.0509 56.3922 19.0509 56.6111C19.0509 57.3774 19.1604 57.9248 19.1604 58.4722C19.0509 58.4722 18.8319 58.4722 18.613 58.4722C18.613 59.129 18.613 59.7859 18.613 60.3332C18.5035 62.5227 18.394 64.6027 18.2846 66.7922C18.1751 67.9965 18.0656 69.2007 17.9562 70.2954C17.8467 72.047 17.8467 73.6891 17.8467 75.4407C17.8467 75.6597 17.8467 75.8786 17.7372 76.207C17.2993 76.207 16.8614 76.3165 16.533 76.3165C16.314 76.3165 15.9856 76.207 15.7667 76.207C15.3288 75.5502 15.2193 74.7839 15.3288 73.9081C15.3288 73.6891 15.4382 73.4702 15.1098 73.2512C14.7814 74.127 14.8909 75.0028 15.2193 75.9881C14.7814 75.5502 14.3435 76.207 13.9056 75.8786C13.7961 75.5502 13.7961 75.1123 13.9056 74.7839C14.0151 74.5649 14.1246 74.346 14.1246 74.0176C14.1246 73.7986 14.0151 73.6891 14.0151 73.3607C13.4677 74.127 13.4677 75.0028 13.3582 75.7691C13.0298 75.8786 12.7014 75.7691 12.4824 75.4407C12.373 75.2218 12.2635 74.7839 12.373 74.6744C12.8109 74.127 12.8109 73.2512 13.3582 72.7039C13.7961 72.266 14.1246 71.6091 14.3435 71.0617C14.5625 70.5144 14.7814 69.967 14.5624 69.3101C14.5624 69.0912 14.5624 68.8722 14.453 68.6533C14.453 67.9965 14.3435 67.3396 14.3435 66.5733C14.234 65.4785 14.0151 64.2743 14.0151 63.1796C14.0151 62.9606 13.9056 62.8512 13.9056 62.6322C13.7961 61.8659 13.7961 60.9901 13.6866 60.2238C13.4677 58.3627 13.2488 56.6111 13.0298 54.75C12.9203 53.7648 12.9203 52.7795 12.8109 51.9037C12.7014 51.1374 12.5919 50.4805 12.5919 49.7142C12.4824 48.6195 12.373 47.5247 12.2635 46.43C12.154 46.3205 12.0445 46.211 11.9351 46.211L11.8256 46.1016C11.9351 46.8679 11.9351 47.6342 12.0445 48.51C12.154 49.7142 12.2635 50.9184 12.373 52.1227C12.373 52.5606 12.4824 52.9985 12.4824 53.4363C12.4824 55.0785 12.7014 56.6111 12.9203 58.2532C13.1393 60.6617 13.3582 62.9606 13.5772 65.2596C13.6867 66.4638 13.6867 67.668 13.7961 68.8722C13.9056 70.0765 13.6866 70.9523 13.1393 71.9375C12.9203 72.3754 12.4824 72.7039 12.2635 73.1418C12.154 73.2512 12.154 73.3607 12.154 73.4702C11.9351 74.0176 11.7161 74.4554 11.3877 74.8933V75.0028C11.3877 75.7691 11.6066 76.207 12.154 76.5355C12.9203 76.8639 13.7961 77.0828 14.5624 76.9734C14.6719 76.9734 14.8909 76.9734 15.0003 76.9734C15.6572 76.9734 16.2046 76.9734 16.8614 76.9734C17.2993 76.9734 17.6277 76.9734 17.9562 76.5355C17.9562 75.6597 17.9562 74.6744 17.9562 73.7986C17.9562 72.9228 17.9562 72.1565 17.9562 71.3902C17.9562 70.9523 17.9562 70.5144 18.1751 70.1859C18.3941 69.8575 18.3941 69.4196 18.3941 68.9817C18.3941 68.3249 18.2846 67.668 18.2846 67.0112C18.2846 65.807 18.3941 64.4933 18.5035 63.2891C18.5035 62.4133 18.613 61.6469 18.613 60.7711C18.8319 60.7711 18.9414 60.7711 19.1604 60.8806C19.2698 59.5669 18.8319 58.3627 19.1604 57.049C19.4888 57.268 19.4888 57.9248 20.0362 57.9248C20.2551 57.4869 20.2551 57.3774 20.2551 57.1585Z" fill="black"/>
<path d="M14.2354 56.2944C14.3448 55.528 14.8922 55.0901 15.3301 54.7617C14.8922 55.3091 14.5638 55.8565 14.2354 56.2944Z" fill="black"/>
<path d="M15.3253 55.8516C14.9969 56.3989 14.6685 57.0558 14.1211 57.4937C14.34 56.9463 14.8874 56.18 15.3253 55.8516Z" fill="black"/>
<path d="M15.3311 55.8617C15.3311 55.7523 15.3311 55.6429 15.4404 55.6429C15.5498 55.5336 15.6592 55.4242 15.7685 55.5336C15.5498 55.6429 15.4404 55.7523 15.3311 55.8617Z" fill="black"/>
</svg>
