<svg width="70" height="104" viewBox="0 0 70 104" fill="none" xmlns="http://www.w3.org/2000/svg">
<circle cx="34.5004" cy="59.0043" r="34.5004" fill="#F7BE45" fill-opacity="0.5"/>
<path d="M24.3876 98.5189C24.126 98.9548 23.8645 99.4779 23.9517 99.9137C24.126 100.437 24.8234 100.611 25.3465 100.698C26.1311 100.786 27.09 100.786 27.7003 100.35C28.572 99.7394 28.7464 98.4317 28.7464 97.3856C28.8336 94.3344 28.572 91.2833 27.8746 88.3193C27.7003 87.709 27.1772 85.3552 26.3055 86.8372C25.8696 87.709 26.3055 89.8013 26.3055 90.8474C26.2183 93.5498 25.7824 96.2523 24.3876 98.5189Z" fill="#BCBCBB"/>
<path d="M68.9323 93.5526C68.4964 91.3732 67.5375 83.6144 67.4503 81.435C67.1888 75.8557 65.8811 76.4659 65.2709 72.2815C64.7478 68.7944 64.3119 65.3073 63.7889 61.8203C64.5735 63.1279 65.7939 64.6099 67.2759 64.2612C68.8451 63.9125 69.1938 61.8203 68.7579 60.2511C67.799 56.8512 64.835 54.3231 63.7017 51.0103C62.4812 47.6976 63.0914 43.6875 60.7377 41.0722C59.0813 39.2415 56.3788 38.7184 54.1123 37.5851C51.9328 36.539 50.1021 34.8827 47.8355 34.2724C46.4407 33.9237 44.8715 34.0109 43.4767 33.8365C39.9025 33.4007 36.7641 31.3956 33.8001 29.3905C31.3591 27.7342 28.831 25.9035 27.0875 23.5497C25.3439 21.1959 24.2978 17.9704 25.0824 15.0936C25.6927 12.9141 27.1747 11.1706 28.831 9.51425C29.6156 8.72966 30.5745 7.68354 30.0515 6.63742C29.8771 6.20154 29.4413 5.94001 29.0926 5.5913C25.6055 3.15036 21.6825 1.23247 17.498 0.796586C13.3136 0.360703 8.78039 1.75553 5.99074 4.98107C3.63697 7.77072 2.93954 11.4321 2.76519 15.0064C2.67801 17.0986 2.06778 20.8472 4.07284 22.242C5.46767 23.2882 7.47274 22.9395 8.95474 23.6369C11.57 24.8573 11.4829 28.5188 11.1342 30.9597C10.6111 34.534 8.51885 37.5851 7.47273 40.8979C6.16508 44.9952 6.25225 49.4412 6.94966 53.7128C7.99578 60.4254 10.1752 66.9637 11.3085 73.5891C12.4418 80.2145 12.4418 87.4502 9.39062 93.5526C8.51886 95.2089 7.47273 97.1268 8.34449 98.7832C9.39061 100.788 12.7033 100.44 14.0982 98.6088C15.493 96.7781 15.5802 94.3372 15.6673 92.0706C15.7545 83.7016 16.0161 75.3326 16.4519 66.9637C16.4519 66.1791 16.5391 65.3073 17.1493 64.8714C17.5852 64.5227 18.1083 64.5227 18.7185 64.4356C21.0723 64.3484 23.5132 64.6099 25.7798 65.3073C27.5234 76.2044 27.2618 87.4502 24.9952 98.2601C24.8209 98.9575 24.6465 99.7421 24.9081 100.352C25.5183 101.922 28.0464 101.922 29.1797 100.701C30.313 99.4806 30.4874 97.5627 30.5745 95.9063C31.1848 86.6656 31.7078 77.5121 32.3181 68.2713C32.4053 66.1791 32.6668 63.9125 33.9744 62.3433C34.4103 61.8203 35.0206 61.3844 35.718 61.4715C37.0256 61.6459 37.2872 63.4766 37.2 64.7843C37.0256 67.7483 37.2 70.8866 38.8563 73.3276C40.5127 75.7685 43.5639 77.3377 44.5228 80.1274C44.9587 81.435 44.9587 82.917 44.9587 84.3118C44.8715 86.5784 44.7843 88.9322 43.6511 90.8501C43.3895 91.286 43.0408 91.809 42.9536 92.3321C42.8665 93.3782 43.9126 94.1628 44.8715 94.773C45.4818 95.1217 46.2663 95.4705 46.7022 94.9474C46.9638 94.773 47.0509 94.4243 47.1381 94.1628C48.7073 88.9322 50.1893 83.7888 51.7585 78.5582C51.9328 77.8608 52.1072 77.2505 52.1072 76.5531C52.02 74.7224 50.3637 73.4148 49.1432 72.0199C45.3946 67.6611 45.9177 61.0357 50.4508 57.5486C54.2866 65.133 54.2866 63.7381 57.5993 71.8456C59.0813 75.3326 60.7377 72.7173 62.2197 77.6864C62.394 77.8608 62.5684 78.0351 62.6556 78.2095C62.8299 78.3838 63.0043 78.471 63.0915 78.6454C63.5273 78.9941 63.7017 79.5171 63.876 80.0402C63.9632 80.5632 64.0504 81.1735 64.0504 81.6965C64.1376 82.0452 64.2248 82.3068 64.3991 82.6555C64.6606 83.7016 64.9222 84.7477 65.0093 85.7938C65.0093 86.3169 65.0093 86.84 65.1837 87.363C65.2709 87.7989 65.5324 88.2348 65.5324 88.7579C65.5324 88.845 65.5324 88.9322 65.5324 89.0194C65.6196 89.1937 65.6196 89.3681 65.6196 89.5424C65.6196 89.8911 65.4452 90.1527 65.2709 90.4142C65.1837 90.5014 65.1837 90.6757 65.0093 90.7629C65.0093 90.8501 64.9222 90.8501 64.835 90.9373C64.5735 91.1988 64.3991 91.5475 64.2247 91.8962C64.0504 92.2449 63.9632 92.6808 63.876 93.0295C63.7889 93.291 63.7017 93.6397 63.876 93.8141C63.9632 93.9013 63.9632 93.9884 64.0504 94.0756C66.0554 94.8602 69.3682 95.6448 68.9323 93.5526Z" fill="white"/>
<path d="M18.5449 21.6223C19.1552 20.7505 19.7654 19.6172 20.8115 19.6172C21.0731 20.5761 20.8987 21.5351 20.4628 22.4068C20.0269 23.2786 19.5039 24.0632 18.9808 24.935C18.1962 26.2426 17.7603 27.7246 17.0629 29.1194C16.1912 30.9502 15.0579 32.6065 13.9246 34.35C13.4887 34.9603 13.0528 35.5705 12.5298 36.0064C12.0067 36.4423 11.1349 36.7038 10.4375 36.4423C10.6119 34.2629 10.7862 32.1706 10.9606 29.9912C11.0477 28.6836 10.9606 26.94 11.658 25.8067C12.3554 24.7606 13.5759 24.6734 14.7092 24.3247C16.2784 23.8888 17.4988 22.9299 18.5449 21.6223Z" fill="#BCBCBB"/>
<path d="M45.0461 57.7991C45.2204 57.7991 45.3948 57.712 45.4819 57.8863C45.5691 57.9735 45.5691 58.0607 45.5691 58.1478C45.7435 59.194 44.9589 60.1529 44.3487 61.0247C42.3436 64.0759 42.5179 67.9988 42.4308 71.6602C42.4308 72.7063 42.2564 73.9268 41.3846 74.4499C40.6872 74.8858 39.7283 74.6242 39.0309 74.1012C38.4206 73.5781 37.9848 72.7935 37.636 72.0089C36.3284 69.0449 35.3694 64.6861 36.2412 61.4606C36.5899 60.0657 38.3335 59.717 39.5539 59.194C41.4718 58.6709 43.3025 58.1478 45.0461 57.7991Z" fill="#BCBCBB"/>
<path d="M60.8199 49.9396C61.4301 53.7754 61.9532 57.8727 64.3941 60.8367C64.9172 58.6573 63.8711 56.565 63.2608 54.3856C62.3891 51.0729 62.5634 47.5858 61.3429 44.3603C60.9942 43.4885 60.4712 42.6168 60.0353 41.745C59.6866 41.0476 58.4661 38.8682 57.42 39.5656C56.4611 40.263 58.1174 41.745 58.5533 42.3552C59.8609 44.709 60.384 47.4115 60.8199 49.9396Z" fill="#BCBCBB"/>
<path d="M18.892 14.8121C18.8048 15.7711 18.8048 16.8172 19.0663 17.7761C19.415 18.7351 20.1996 19.6069 21.1586 19.694C21.5073 19.694 21.856 19.694 22.1175 19.4325C22.4662 19.171 22.5534 18.7351 22.5534 18.2992C22.6406 17.2531 22.8149 16.207 22.4662 15.248C22.3791 14.8993 22.2047 14.6378 22.1175 14.3763C21.856 13.8532 21.5944 13.3301 21.3329 12.8071C20.9842 12.0225 20.2868 9.84307 19.3279 10.9764C18.7176 11.6738 18.9792 13.8532 18.892 14.8121Z" fill="#BCBCBB"/>
<path d="M5.73135 10.4601C5.73135 10.6345 5.73135 10.8089 5.64417 10.896C5.55699 10.9832 5.46983 11.0704 5.38265 11.0704C4.94677 11.3319 4.51088 11.5063 4.075 11.7678C3.98782 11.855 3.81348 11.855 3.7263 11.855C3.63912 11.855 3.63911 11.7678 3.55194 11.6806C3.11605 10.373 3.55193 6.27567 5.20829 6.01414C7.21335 5.57825 5.81853 9.50121 5.73135 10.4601Z" fill="#BCBCBB"/>
<path d="M37.466 60.6694C38.1634 60.3207 38.8608 59.972 39.5582 59.7105C41.7377 58.8387 43.9171 57.967 46.0965 57.0952C46.5324 56.9208 46.8811 56.7465 47.317 56.6593C47.5785 56.5721 47.84 56.5721 48.1015 56.8337C49.4092 58.1413 50.7168 59.449 51.9373 60.8438C52.3732 61.2797 53.5065 63.7206 53.8552 64.2437C53.5937 63.6334 52.8091 61.7155 52.4604 60.5823C52.286 60.2335 52.1117 59.8848 51.8501 59.6233C51.1527 58.7515 50.3681 57.8798 49.4092 57.2695C49.1477 57.0952 48.9733 56.8337 48.7118 56.6593C48.8861 56.3978 48.9733 56.1362 49.0605 55.9619C48.5374 55.6132 48.5374 55.6132 48.0144 55.7004C46.4452 55.9619 44.9632 56.3978 43.4812 57.0952C41.6505 57.967 39.8197 58.8387 37.9019 59.449C36.7686 59.7977 35.6353 60.4079 34.6763 61.1053C34.502 61.1925 34.3276 61.3668 34.1533 61.454C33.9789 61.5412 33.7174 61.6284 33.3687 61.7156C33.4559 61.1925 33.543 60.8438 33.543 60.5823C34.4148 60.2335 35.984 59.0131 36.4199 58.3157C35.8968 58.6644 35.4609 58.9259 35.025 59.1874C34.5892 59.449 34.3276 59.8848 33.7174 59.8848C33.8917 59.2746 33.8046 58.6644 34.3276 58.2285C34.8507 57.7926 35.3738 57.2695 36.0712 57.0952C36.2455 57.008 36.507 56.9208 36.3327 56.485C35.6353 56.9208 34.9379 57.3567 34.0661 57.7926C34.3276 56.5721 34.5892 55.4388 34.7635 54.3927C34.9379 53.6081 35.025 52.7364 35.1994 51.9518C35.1994 51.8646 35.1122 51.6902 35.025 51.4287C34.9379 51.6902 34.8507 51.8646 34.8507 51.9518C34.7635 52.562 34.5891 53.1722 34.502 53.7825C34.2404 54.9158 33.9789 56.1362 33.7174 57.2695C33.4559 58.2285 33.2815 59.1003 33.02 60.0592C32.6713 61.6284 32.2354 63.1976 31.9739 64.7667C31.7123 65.9872 31.538 67.2077 31.2765 68.341C31.1893 68.6025 31.1893 68.9512 31.0149 69.1256C30.7534 69.3871 30.7534 69.5615 30.8406 69.823C30.9277 70.346 31.0149 70.9563 31.0149 71.4793C30.9277 73.9203 30.8406 76.4484 30.7534 78.8894C30.6662 80.4585 30.7534 82.1149 30.3175 83.6841C30.056 84.7302 30.056 85.9507 29.9688 87.084C29.8816 88.6532 29.8816 90.3095 29.8816 91.8787C29.8816 93.3607 29.7944 94.8427 29.7944 96.3247C29.7944 97.5452 29.7944 98.7656 29.4457 99.8989C29.1842 100.771 28.4868 101.381 27.615 101.73C27.3535 101.032 27.7894 100.335 27.5278 99.5502C26.8304 100.335 27.0048 101.119 27.0048 101.904C26.0458 101.991 25.8715 101.817 25.9587 100.945C25.9587 100.771 26.0459 100.509 26.0459 100.335C26.0459 100.073 26.133 99.8118 26.2202 99.5502C26.0458 99.5502 25.9587 99.4631 25.9587 99.4631C25.4356 99.9861 25.5228 100.771 25.2612 101.468C24.3023 100.858 24.1279 100.422 24.3895 99.5502C24.5638 99.1143 24.8254 98.6785 25.0869 98.3298C25.3484 97.9811 25.7843 97.6323 26.133 97.2836C26.2202 97.1965 26.2202 97.1093 26.3074 96.8478C26.133 96.7606 25.8715 96.6734 25.8715 96.6734C26.0458 95.976 26.2202 95.5401 26.2202 95.017C26.3074 93.1863 26.3946 91.4428 26.3946 89.6121C26.3946 88.3916 26.3946 87.1711 26.3946 86.0378C26.3946 84.12 26.3945 84.12 27.9637 83.0738C28.1381 82.8995 28.3996 82.8123 28.3996 82.3764C27.7894 82.8123 27.1791 83.161 26.5689 83.5969C26.2202 82.8123 26.8304 82.4636 27.2663 82.0277C27.7022 81.5918 28.1381 81.3303 28.6612 80.9816C27.7894 80.9816 27.3535 81.8534 26.4817 82.1149C26.4817 80.3714 26.4817 78.8022 26.4817 77.1458C26.4817 75.751 26.7433 74.4434 26.7433 73.0485C26.8304 71.4793 26.8304 69.823 26.7433 68.2538C26.6561 67.0333 26.3946 65.7257 26.0459 64.5052C25.8715 63.6334 25.3484 62.936 24.7382 62.3258C24.4767 62.0643 24.2151 61.8027 23.7793 61.9771C23.6921 62.413 23.9536 62.5873 24.2151 62.8488C24.3895 63.1104 24.651 63.4591 24.9125 63.8078C22.9947 64.5052 21.1639 64.8539 19.1589 64.1565C19.5948 63.4591 20.2922 63.1976 20.5537 62.5873C19.9435 62.936 19.4204 63.3719 18.8974 63.8078C18.4615 64.1565 18.3743 64.1565 17.6769 63.7206C18.4615 63.0232 19.1589 62.2386 19.9435 61.5412C19.9435 61.454 19.8563 61.454 19.8563 61.3668C18.8974 62.0643 18.0256 62.8488 17.241 63.6334C16.7179 63.4591 17.3282 62.6745 16.6308 62.5001C16.5436 62.936 16.4564 63.2847 16.4564 63.6334C16.0205 65.9872 16.0205 68.341 15.5847 70.6947C15.2359 72.6998 15.2359 74.7921 15.0616 76.7971C15.0616 77.1458 14.8872 77.4074 14.6257 77.5817C13.9283 78.0176 13.2309 78.5406 12.5335 79.0637C12.4463 79.1509 12.3591 79.2381 12.2719 79.4124C13.318 79.0637 14.0155 78.2791 14.9744 77.6689C14.9744 77.9304 15.0616 78.1048 15.0616 78.2791C15.0616 79.0637 15.0616 79.9355 15.0616 80.7201C15.1488 85.2533 14.9744 89.6993 14.7129 94.1453C14.6257 95.6273 14.3642 97.0221 13.6668 98.2426C13.318 98.94 12.3591 99.5502 11.5745 99.6374C11.4873 98.8528 11.7489 98.1554 12.0104 97.1965C11.7489 97.3708 11.5745 97.3708 11.4873 97.458C10.9643 98.2426 11.0514 99.1144 10.9643 100.073C10.7027 100.16 10.4412 100.248 10.0053 100.422C10.0053 99.8989 9.91817 99.4631 9.91817 99.1143C9.91817 98.6785 10.0925 98.3298 10.1797 97.8067C10.0053 97.8939 9.91816 97.8067 9.83099 97.8939C9.74381 97.9811 9.56944 98.1554 9.56944 98.2426C9.39509 98.94 9.30792 99.6374 9.22074 100.248C8.34897 100.16 8.08745 99.9861 8.00027 99.2015C7.82592 97.9811 8.00027 96.7606 8.87204 95.8888C9.13357 95.5401 9.48228 95.2786 9.83099 94.9299C10.2669 94.494 10.6156 94.0581 11.0515 93.6222C11.2258 93.4479 11.4002 93.1863 11.1386 93.012C10.8771 92.8376 10.7899 93.0992 10.6156 93.2735C10.354 93.535 10.0925 93.8838 9.83099 94.1453C9.74381 93.8838 9.74381 93.7094 9.83099 93.535C10.7028 90.9197 11.1386 88.2173 11.4002 85.5148C11.4002 85.2533 11.4002 84.9917 11.5745 84.7302C12.0104 84.0328 12.0104 83.2482 11.9232 82.3764C11.836 81.5047 11.7489 80.6329 11.7489 79.8483C11.6617 78.4535 11.5745 77.1458 11.5745 75.751C11.4873 74.3562 11.4002 72.9613 11.4873 71.5665C11.6617 68.9512 11.4002 66.3359 11.0515 63.8078C10.7899 61.6284 10.0925 59.5361 9.3951 57.3567C8.69769 55.1773 8.2618 53.0851 8.00027 50.9056C8.00027 50.7313 7.9131 50.3826 7.73875 50.2954C7.47722 50.1211 7.39002 49.8595 7.39002 49.5108C7.39002 48.3775 7.39003 47.157 7.47721 46.0237C7.56438 45.0648 7.56438 44.1059 7.82591 43.1469C8.34897 40.8803 8.87203 38.7009 9.56944 36.5215C10.0925 34.6908 10.8771 32.8601 11.4002 31.0294C11.7489 29.8089 12.0976 28.5012 12.0976 27.1936C12.0976 26.4962 12.1847 25.7116 12.2719 25.0142C12.4463 25.0142 12.5335 25.0142 12.7078 25.0142C14.1026 25.1885 15.3231 24.6655 16.3692 23.7065C16.8923 23.1835 17.5025 22.6604 18.1128 22.0502C18.5487 21.6143 18.9845 21.0912 19.3332 20.5682C19.4204 20.3938 19.6819 20.2194 19.4204 19.9579C19.3332 20.0451 19.246 20.0451 19.1589 20.1323C18.1128 21.1784 17.1538 22.2245 16.1077 23.2706C15.6718 23.6193 15.2359 23.968 14.7129 24.2296C13.9283 24.4911 13.0565 24.6655 12.3591 24.2296C10.1797 23.0091 8.78485 21.2656 8.26179 18.7374C8.00026 17.6041 7.82592 16.4708 7.65157 15.3375C8.34898 14.6401 8.78487 13.6812 8.95922 12.6351C9.22075 11.5018 8.78486 11.0659 7.56439 11.0659C7.47721 11.0659 7.4772 11.0659 7.39002 11.0659C6.95414 11.0659 6.4311 11.1531 5.99522 11.1531C5.2978 11.1531 4.68755 11.6761 4.8619 12.4607C4.94908 13.4197 5.29779 14.3786 6.25674 14.9017C6.60544 15.076 6.69262 15.3375 6.69262 15.6863C6.69262 18.04 6.34391 20.3066 5.82085 22.5732C5.82085 22.5732 5.73367 22.6604 5.64649 22.7476C5.47214 22.5732 5.21063 22.486 5.12345 22.2245C4.86192 21.7014 4.68756 21.2656 4.5132 20.7425C3.99014 18.5631 4.16451 16.2965 4.68757 14.1171C4.77474 13.8555 4.86192 13.6812 4.60039 13.5068C4.07733 13.594 4.25167 14.1171 3.99014 14.3786C3.90296 14.2043 3.90296 14.1171 3.90296 14.0299C3.64143 12.4607 3.55425 10.8915 3.55425 9.23518C3.55425 8.18906 3.90297 7.40447 4.60039 6.61988C5.12345 6.00964 5.73368 5.39941 6.25674 4.70199C6.51827 4.44046 6.7798 4.17893 7.1285 4.00458C6.7798 4.96352 6.51827 5.83529 6.25674 6.61988C6.16956 6.5327 6.16957 6.5327 5.99522 6.35835C5.90804 7.666 5.82085 8.88647 5.73367 10.1941C5.38496 10.5428 4.8619 10.9787 4.33884 11.3274C4.68755 11.589 4.86192 11.3274 5.03627 11.2402C5.21062 11.1531 5.38498 10.8915 5.55933 10.8915C5.99522 10.9787 6.25673 10.63 6.60544 10.4557C6.95414 10.1941 7.30286 9.93259 7.65157 9.75824C8.08745 9.49671 8.52333 9.32236 8.87204 8.97365C9.56945 8.27624 10.1797 7.40447 10.7899 6.61988C10.6156 6.61988 10.4412 6.70706 10.3541 6.70706C10.1797 6.70706 10.0925 6.61988 9.91817 6.5327C9.74381 6.88141 9.83097 7.40447 9.13356 7.57882C9.22073 7.23012 9.22074 6.96859 9.30792 6.61988C8.52333 6.61988 7.91308 6.79423 7.39002 7.14294C7.30285 7.23012 7.12851 7.49165 7.21569 7.666C7.30286 8.10188 7.5644 8.53777 7.73875 9.06083C7.39004 9.23518 6.95416 9.49671 6.4311 9.84542C6.16957 9.32236 6.25675 8.7993 6.4311 8.36341C6.86698 6.88141 7.12849 5.31223 7.82591 3.9174C7.91308 3.74305 7.82591 3.48152 7.82591 3.13281C7.39002 3.30717 7.12851 3.30717 6.86698 3.48152C6.51828 3.74305 6.16956 4.09176 5.82085 4.44046C5.29779 4.96352 4.77474 5.57376 4.25168 6.184C3.72862 6.79423 3.11837 7.31729 3.11837 8.10188C2.94402 10.1941 3.03119 12.3735 3.46707 14.4658C3.64143 15.5119 3.90297 16.4708 3.72862 17.517C3.55427 18.7374 3.81579 20.0451 4.07732 21.2656C4.1645 21.7014 4.33886 22.1373 4.60039 22.486C4.94909 23.1835 5.55932 23.3578 6.25674 23.2706C7.1285 23.2706 7.5644 22.5732 8.17463 21.963C8.52334 21.6143 8.26179 21.0912 8.26179 20.6553C8.26179 20.5682 8.26179 20.5681 8.26179 20.3938C8.87203 21.963 9.83098 23.0963 11.0515 24.0552C11.313 24.2296 11.4873 24.5783 11.4873 24.927C11.5745 25.8859 11.313 26.8449 11.1386 27.8038C10.8771 29.1986 10.7028 30.5935 10.3541 32.0755C9.91817 34.2549 8.95921 36.26 8.34897 38.4394C7.91309 39.747 7.5644 41.0547 7.30287 42.3623C7.12851 43.1469 7.21567 44.0187 7.04132 44.8033C6.77979 46.4596 6.86698 48.116 6.86698 49.7723C6.86698 50.0339 6.86696 50.2954 6.95414 50.5569C7.12849 51.2543 7.39003 52.0389 7.56439 52.7364C8.17462 55.2645 8.78487 57.7926 9.3951 60.3207C9.56946 61.1053 9.91816 61.8899 10.1797 62.6745C10.2669 63.1104 10.354 63.6334 10.4412 64.0693C10.6156 65.2026 10.7899 66.3359 10.8771 67.382C10.9643 68.2538 10.8771 69.1256 10.8771 69.9102C10.9643 71.9152 11.1386 73.8331 10.8771 75.8382C10.7899 76.3612 10.7899 76.7971 10.7899 77.3202C10.7899 77.6689 10.7028 78.0176 11.1386 78.2791C11.1386 78.0176 11.2258 77.7561 11.2258 77.4945C11.4002 79.2381 11.4873 80.9816 11.5745 82.7251C11.5745 83.161 11.7489 83.6841 11.2258 83.9456C11.1386 84.0328 11.1386 84.2943 11.1386 84.4687C11.313 85.6891 11.0515 86.8224 10.7899 87.9557C10.4412 90.2223 9.91815 92.4017 9.13356 94.5812C9.04638 94.9299 8.87205 95.2786 8.61052 95.5401C7.5644 96.6734 7.30286 98.0682 7.56439 99.6374C7.65156 100.335 8.00026 100.771 8.69767 100.945C8.9592 101.032 9.22075 101.119 9.48228 101.207C9.74381 101.294 10.0053 101.294 10.2669 101.207C11.5745 100.771 12.795 100.073 13.9283 99.2015C14.1026 99.0272 14.277 98.8528 14.3642 98.6785C14.8 97.7195 15.3231 96.8478 15.4103 95.8016C15.4975 94.6683 15.6718 93.535 15.759 92.4017C15.8462 89.8736 15.9334 87.3455 16.0205 84.8174C16.1077 82.638 16.1949 80.4585 16.1949 78.2791C16.1949 77.8432 16.1949 77.4074 16.1949 77.0586C16.4564 73.6588 16.8051 70.2589 17.0666 66.859C17.1538 66.0744 17.241 65.2898 17.4153 64.3309C20.1178 65.377 22.7331 65.377 25.4356 64.418C25.7843 65.5513 26.0458 66.5974 26.2202 67.7307C26.4817 70.7819 26.3074 73.8331 26.0459 76.8843C26.0459 77.233 25.9587 77.5817 25.9587 77.9304C25.9587 81.679 25.8715 85.4276 26.0459 89.089C26.133 90.9197 26.0458 92.8376 25.9587 94.7555C25.9587 95.4529 25.8715 96.0632 25.7843 96.7606C25.6971 97.1965 25.5228 97.7195 25.1741 97.9811C24.3895 98.6785 24.0408 99.6374 23.9536 100.684C23.8664 101.119 23.9536 101.555 24.3895 101.904C24.9997 102.427 25.6971 102.776 26.4817 102.95C27.2663 103.124 28.0509 102.863 28.7483 102.689C29.9688 102.34 30.579 101.555 30.8406 100.422C31.1893 99.1143 31.3636 97.8067 31.1893 96.4119C31.1021 95.6273 31.1893 94.8427 31.1893 94.0581C31.1893 92.8376 31.2765 91.6172 31.2765 90.4839C31.2765 88.2173 31.2764 85.9507 31.538 83.6841C31.6251 83.3354 31.6252 82.8995 31.6252 82.5508C31.7123 81.4175 31.7123 80.2842 31.7123 79.0637C31.7995 77.1458 31.8867 75.3151 31.9739 73.4844C32.061 72.2639 31.9739 71.0435 32.1482 69.823C32.4969 67.8179 32.7584 65.7257 33.2815 63.7206C33.3687 63.1976 33.543 62.8489 34.0661 62.6745C34.5891 62.413 35.1122 61.9771 35.6353 61.7156C35.8968 61.5412 36.1583 61.5412 36.5071 61.3668C36.5071 62.0643 36.4199 62.6745 36.4199 63.1976C36.4199 63.8078 36.2455 64.5052 36.3327 65.1154C36.4199 66.4231 36.507 67.8179 36.6814 69.1256C36.9429 71.1306 37.6403 72.8742 39.0352 74.3562C39.9941 75.4023 40.8659 76.4484 41.912 77.4945C42.6094 78.1919 43.3068 78.8894 44.0914 79.4124C44.6145 79.7611 44.7888 80.197 44.876 80.8072C44.9632 82.5508 44.876 84.2943 44.6145 86.0378C44.3529 87.5199 44.0914 89.0019 44.2658 90.571C44.2658 90.8326 44.1786 91.0941 43.9171 91.1813C43.1325 91.4428 42.6094 92.1402 42.2607 92.8376C41.6505 93.8838 42.3479 95.2786 43.4812 95.5401C43.8299 95.6273 44.1786 95.6273 44.4401 95.7145C45.7478 95.976 46.8811 95.6273 47.9272 94.9299C48.3631 94.6683 48.6246 94.3196 48.7118 93.7966C48.799 93.0992 48.8861 92.4017 48.9733 91.7043C48.9733 90.9197 48.9733 90.1352 48.9733 89.3506C49.0605 88.4788 49.0605 87.5199 49.322 86.6481C49.8451 84.7302 50.4553 82.8995 51.0655 81.0688C51.2399 80.4585 51.4143 79.8483 51.763 79.3252C52.1117 78.6278 52.1989 77.8432 52.1989 77.0586C52.1989 76.6228 52.0245 76.2741 51.6758 76.0125C50.5425 75.2279 49.7579 74.1818 48.9733 72.9613C47.9272 71.2178 47.4913 69.2999 47.317 67.2949C47.1426 65.377 47.4913 63.5463 48.1887 61.7156C48.5374 60.931 48.799 60.0592 49.0605 59.1874C49.0605 59.1003 49.0605 58.9259 49.0605 58.7515C48.8861 58.8387 48.7118 58.8387 48.6246 58.9259C48.5374 59.0131 48.4502 59.2746 48.3631 59.449C47.9272 60.8438 47.4913 62.2386 47.0554 63.7206C46.8811 64.418 46.7939 65.2026 46.7939 65.9C46.7067 67.4692 46.9682 68.9512 47.317 70.4332C47.9272 72.6126 49.0605 74.5305 50.804 76.0125C50.9784 76.1869 51.2399 76.3612 51.4142 76.5356C51.8501 76.9715 51.763 77.7561 51.1527 78.1048C50.1066 78.8022 48.9733 79.4124 47.9272 80.1098C47.84 80.197 47.7528 80.2842 47.6657 80.3714C47.6657 80.4585 47.7528 80.4585 47.7528 80.4585C48.2759 80.1098 48.8861 79.674 49.4964 79.3252C50.1066 78.9765 50.6297 78.4535 51.4142 78.3663C51.3271 78.8894 50.9784 79.1509 50.6297 79.4124C49.7579 79.9355 48.9733 80.4585 48.1887 80.9816C48.1015 81.0688 48.0144 81.2431 47.9272 81.3303C48.9733 81.0688 49.6707 80.197 50.8912 79.8483C50.804 80.2842 50.7168 80.5457 50.6297 80.7201C50.4553 81.156 50.3681 81.679 50.1938 82.1149C50.0194 82.8123 49.7579 83.5097 49.4964 84.2071C49.0605 85.4276 48.7118 86.6481 48.6246 87.9557C48.5374 89.5249 48.4502 91.1813 48.4502 92.7505C48.4502 94.1453 47.2298 95.1042 45.8349 95.1042C45.4862 94.3196 46.0093 93.4479 45.9221 92.6633C45.2247 93.0992 45.1375 93.3607 45.0504 95.1042C44.0042 95.1914 43.7427 94.9299 43.8299 93.9709C43.8299 93.7094 43.917 93.4479 44.0042 93.1863C44.0042 92.9248 44.0914 92.6633 44.1786 92.4017C43.1325 92.9248 43.394 93.8838 43.1325 94.6683C42.9581 94.4068 42.8709 94.1453 42.7838 93.8838C42.6966 93.0992 43.394 92.1402 44.2658 91.7915C44.4401 91.7043 44.7016 91.6172 44.9632 91.53C44.9632 91.1813 44.876 90.8326 44.876 90.571C45.0503 89.2634 45.0503 87.8686 45.3119 86.5609C45.8349 84.0328 45.6606 81.3303 45.8349 78.8022C45.8349 78.715 45.7478 78.6278 45.6606 78.3663C45.4862 78.715 45.3119 78.9765 45.2247 79.3252C44.7888 79.0637 44.3529 78.8022 44.0042 78.5406C42.5222 77.233 41.2146 75.751 39.9941 74.1818C39.7326 73.8331 39.5582 73.4844 39.2095 73.1357C40.0813 72.4383 40.8659 71.7409 41.7377 71.1306C40.6044 71.3922 39.9069 72.2639 38.948 72.787C38.7736 72.5255 38.5993 72.2639 38.5121 72.0896C39.1223 71.2178 39.9941 70.7819 40.6915 70.0845C39.7326 70.346 39.0352 71.0435 38.2506 71.5665C38.1634 71.1306 37.989 70.8691 37.9019 70.5204C37.3788 67.7307 37.0301 64.8539 37.466 61.9771C37.0301 61.1053 37.1173 60.8438 37.466 60.6694ZM8.17463 12.3735C7.73875 12.1992 7.73875 12.1992 7.73875 11.6761C8.08746 11.7633 8.17463 12.0248 8.17463 12.3735Z" fill="black"/>
<path d="M26.2127 23.0162C25.6896 23.3649 25.2538 23.7136 24.7307 24.0623C24.7307 24.1495 24.8179 24.1495 24.8179 24.2367C25.4281 24.0623 25.7768 23.4521 26.4743 23.2777C26.6486 23.6264 26.9101 23.9752 27.0845 24.2367C27.6075 25.1084 28.1306 25.9802 29.0024 26.6776C29.2639 26.9392 29.6126 27.1135 29.787 27.375C32.0535 29.9032 34.9304 31.3852 38.0687 32.5185C38.2431 32.6056 38.4174 32.6056 38.5046 32.6056C39.4636 32.78 40.4225 32.8672 41.3814 33.0415C42.7763 33.3031 44.2583 33.7389 45.6531 33.9133C47.6582 34.262 49.576 34.7851 51.4068 35.5697C51.6683 35.6568 51.9298 35.8312 52.1914 35.9184C54.1964 37.1388 55.8528 38.708 56.9861 40.7131C57.422 41.4977 57.945 42.3694 58.3809 43.154C58.8168 44.0258 59.1655 44.8976 59.5142 45.7693C60.2116 47.6872 60.9962 49.6923 61.3449 51.6973C61.6065 53.1793 61.9552 54.6614 62.2167 56.1434C62.6526 58.4971 63.1756 60.8509 63.6115 63.2047C63.7859 64.1636 63.9602 65.1226 64.2217 66.0815C64.3961 66.7789 64.6576 67.5635 64.832 68.2609C65.0935 69.2199 65.4422 70.1788 65.7038 71.1377C65.7038 71.2249 65.7038 71.3121 65.7038 71.3993C65.2679 71.1377 65.1807 70.4403 64.5704 70.1788C64.5704 70.3532 64.5704 70.4403 64.5704 70.5275C65.0935 71.9223 65.7037 73.23 66.2268 74.6248C66.314 74.8863 66.4012 75.1479 66.4883 75.4094C66.6627 75.3222 66.8371 75.235 67.0114 75.1479C66.6627 74.2761 66.314 73.4043 65.9653 72.5326C65.8781 72.271 65.7909 72.0095 65.7038 71.748C66.2268 71.6608 66.1396 71.3121 66.0525 71.0506C65.5294 69.1327 65.0063 67.1276 64.3961 65.2097C64.2218 64.4251 64.0474 63.6405 64.0474 62.7688C64.2217 62.856 64.3089 62.9431 64.3961 62.9431C64.832 63.2918 65.2679 63.6405 65.7909 63.9893C66.7499 64.5995 67.8832 64.6867 69.0165 64.861C69.5395 64.9482 69.8882 64.6867 69.801 64.0764C69.6267 62.9431 69.3652 61.8098 68.4934 60.9381C68.319 60.7637 68.0575 60.5022 67.9703 60.3278C67.3601 59.1945 66.6627 58.1484 66.0525 57.0151C65.8781 56.5792 65.6166 56.1434 65.5294 55.7075C65.0935 53.7896 64.5705 51.8717 64.2217 49.9538C63.6987 46.9898 62.8269 44.113 61.4321 41.4105C61.3449 41.2361 61.2577 41.0618 61.0834 40.8874C60.8218 40.5387 60.5603 40.1028 60.2988 39.7541C60.0373 39.3183 59.7757 39.0567 59.2527 39.0567C58.904 39.0567 58.5553 38.9695 58.2937 38.8824C57.7707 38.7952 57.2476 38.708 56.8117 39.1439C56.3758 38.708 56.0271 38.2721 55.5913 37.8362C54.458 36.703 53.2375 35.5697 51.7555 34.9594C50.4478 34.3492 49.053 33.8261 47.571 33.5646C46.3505 33.3031 45.0429 32.9544 43.8224 32.78C42.3404 32.5185 40.8584 32.3441 39.3764 32.0826C39.0277 31.9954 38.5918 31.8211 38.2431 31.7339C37.9816 31.6467 37.72 31.5595 37.4585 31.5595C37.0226 31.4723 36.6739 31.3852 36.238 31.298C33.0125 30.1647 30.7459 27.8109 28.3921 25.4572C28.3049 25.37 28.305 25.2828 28.2178 25.1956C26.7358 23.1034 25.5153 20.8368 25.1666 18.2215C25.1666 18.0471 25.0794 17.7856 24.6435 17.8728C24.5564 18.7446 24.9051 19.6163 25.1666 20.4881C25.5153 21.3599 25.864 22.1444 26.2127 23.0162ZM64.7448 55.2716C64.7448 56.0562 65.0063 56.7536 65.355 57.451C65.8781 58.4099 66.4012 59.4561 66.9242 60.415C67.0986 60.7637 67.3601 61.1996 67.5344 61.5483C67.9703 62.2457 68.3191 62.856 68.7549 63.5534C68.8421 63.6405 68.8421 63.8149 68.9293 63.9021C68.4934 64.2508 68.0575 64.1636 67.6216 64.0764C65.8781 63.5534 64.5705 62.5944 63.7859 61.0252C63.6987 60.7637 63.6115 60.5022 63.5243 60.2407C63.2628 59.1074 63.0884 57.8869 62.8269 56.7536C62.7397 56.2305 62.8269 55.8818 63.2628 55.6203C63.6987 55.3588 64.1346 55.0101 64.6576 54.6614C64.6576 54.9229 64.7448 55.0972 64.7448 55.2716ZM63.6115 49.9538C63.873 51.0871 64.0474 52.3076 64.3961 53.4409C64.5705 54.2255 64.5705 54.2255 63.873 54.6614C63.6987 54.7485 63.4371 54.9229 63.2628 55.0101C63.0884 55.0972 62.9141 55.1844 62.7397 55.3588C62.4782 54.5742 62.4782 54.487 63.0013 54.2255C63.2628 54.1383 63.5243 54.0511 63.6987 53.8768C63.7859 53.7896 63.873 53.7024 64.1346 53.5281C63.4371 53.4409 63.0013 53.9639 62.4782 54.0511C61.9552 52.046 61.4321 50.041 60.909 47.9487C61.5193 47.5129 62.0423 46.9026 62.9141 46.5539C63.0884 47.8616 63.35 48.9077 63.6115 49.9538ZM57.2476 39.7541C57.422 39.5798 57.7707 39.5798 58.0322 39.4926C58.2937 39.4926 58.4681 39.5798 58.7296 39.5798C59.3399 39.5798 59.8629 39.8413 60.1244 40.5387C60.2116 40.8003 60.4731 40.9746 60.5603 41.149C60.8218 41.5848 61.0834 41.9335 61.2577 42.3694C61.6936 43.4156 62.1295 44.4617 62.5654 45.5078C62.8269 46.2924 62.8269 46.2924 62.1295 46.6411C61.6936 46.9026 61.1706 47.2513 60.6475 47.5129C60.5603 47.3385 60.4732 47.2513 60.4732 47.1642C59.6014 44.8104 58.6424 42.5438 57.422 40.3644C57.2476 40.2772 57.1604 39.9285 57.2476 39.7541Z" fill="black"/>
<path d="M20.8222 14.2957C20.2119 14.7316 19.776 15.0803 19.253 15.5162C18.7299 15.9521 18.7299 15.9521 18.9914 16.6495C19.776 16.3008 20.3863 15.429 21.4324 15.3419C20.5606 15.9521 19.8632 16.5623 19.0786 17.0854C19.5145 18.393 20.2991 19.352 21.6067 19.7007C22.3042 19.875 22.9144 19.5263 23.0016 18.7417C23.0887 17.87 23.0887 16.9982 23.0887 16.1264C23.0887 15.6906 23.0887 15.3419 23.0887 14.906C23.0887 14.7316 23.1759 14.4701 23.2631 14.2086C23.6118 14.7316 23.6118 14.906 23.5246 16.3008C23.7861 15.9521 23.7861 15.9521 23.9605 14.6444C24.0477 14.906 24.0477 14.9931 24.1349 15.1675C24.222 15.1675 24.3092 15.0803 24.3092 15.0803C24.9195 13.5983 26.0527 12.465 26.7502 11.0702C27.186 10.2856 27.9706 9.76255 28.4065 8.97796C28.7552 8.28054 29.1911 7.58313 29.5398 6.97289C29.8885 6.27548 29.8885 6.1883 29.1911 5.8396C27.7963 5.14218 26.3143 4.53195 24.9194 3.92171C23.699 3.39865 22.3913 2.96277 21.0837 2.52688C20.9093 2.43971 20.735 2.35253 20.5606 2.26535C20.735 1.82947 20.9965 1.82947 21.258 1.91665C23.0016 2.61406 24.7451 3.2243 26.4886 3.92171C27.5348 4.35759 28.4937 4.88065 29.5398 5.31654C29.8885 5.49089 30.2372 5.75242 30.5859 6.01395C30.4987 6.27548 30.4116 6.62419 30.3244 6.79854C29.7142 7.84466 29.1911 8.97796 28.5809 10.0241C28.4937 10.1113 28.4065 10.3728 28.3193 10.3728C27.7963 10.46 27.6219 10.8958 27.3604 11.3317C26.2271 12.9009 25.0938 14.4701 24.3092 16.3008C24.222 16.4752 24.1349 16.6495 24.0477 16.911C23.7861 17.6084 23.6118 18.3059 23.4375 19.0905C23.1759 19.9622 22.3913 20.4853 21.4324 20.2238C20.0375 19.7879 19.1658 18.8289 18.5556 17.5213C17.6838 15.6034 17.771 13.5983 18.0325 11.5933C18.2068 10.6343 18.294 9.58819 18.3812 8.62925C18.4684 7.75748 18.6427 6.88572 18.8171 6.01395C19.0786 5.22936 19.5145 4.44477 20.1247 3.83453C20.2119 3.83453 20.2119 3.92171 20.2991 3.92171C20.2119 4.09606 20.2119 4.35759 20.1247 4.53195C19.4273 5.57807 19.253 6.79854 19.0786 8.01901C18.8171 9.41384 18.6427 10.8087 18.4684 12.2035C18.3812 13.1624 18.3812 14.1214 18.5556 15.2547C18.9914 14.9931 19.253 14.8188 19.6017 14.5573C20.0375 14.5573 20.2119 14.1214 20.8222 14.2957Z" fill="black"/>
<path d="M7.64746 3.13836C7.64746 2.6153 7.90899 2.44095 8.08334 2.35377C8.6064 2.00506 9.12946 1.74353 9.7397 1.39483C10.7858 0.697413 12.0063 0.52306 13.1396 0.0871767C13.4883 0 13.837 0 14.1857 0C15.4062 0.26153 16.6267 0.52306 17.76 0.78459C18.5445 0.958943 19.1548 1.39483 19.8522 1.74353C20.2881 2.00506 20.4624 2.26659 20.6368 2.78965C20.5496 2.78965 20.4624 2.78965 20.4624 2.78965C19.1548 1.74353 17.5856 1.30765 15.9292 0.871767C15.319 0.697413 14.7959 0.610237 14.1857 0.52306C13.7498 0.435883 13.3139 0.435883 12.9652 0.610237C11.3961 1.1333 9.7397 1.56918 8.43205 2.6153C8.25769 2.87683 7.99617 2.96401 7.64746 3.13836Z" fill="black"/>
<path d="M14.1854 9.86419C13.8367 9.60266 13.488 9.51548 13.3136 9.25395C12.9649 8.73089 12.9649 8.03348 13.2265 7.42324C13.3136 7.07454 13.6624 7.07454 13.8367 7.16171C14.6213 7.68477 15.4931 7.68477 16.3648 7.85913H16.452C16.5392 7.9463 16.7135 8.03348 16.7135 8.20783C16.7135 8.29501 16.5392 8.46936 16.452 8.46936C15.9289 8.38219 15.6674 8.81807 15.3187 9.0796C14.97 9.34113 14.5341 9.60266 14.1854 9.86419Z" fill="black"/>
<path d="M12.7924 48.6407C12.7924 48.292 12.7924 47.8561 12.7924 47.5074C12.8795 44.8921 12.4436 42.2768 11.8334 39.6615C11.7462 39.1384 11.3975 38.7026 11.136 38.1795C11.0488 38.0051 10.9617 37.7436 11.2232 37.6564C11.4847 37.5693 11.659 37.6564 11.7462 38.0051C12.8795 40.7948 13.3154 43.5845 13.2282 46.5485C13.2282 47.2459 13.141 47.9433 13.0539 48.6407C12.9667 48.6407 12.8795 48.6407 12.7924 48.6407Z" fill="black"/>
<path d="M26.042 33.1184C25.9548 32.944 25.7804 32.8569 25.6932 32.6825C24.9086 31.2877 24.1241 29.8929 23.8625 28.2365C23.7754 27.5391 23.4266 26.9289 23.2523 26.3186C23.0779 25.7084 22.9036 25.011 22.8164 24.3136C22.8164 24.2264 22.9036 24.1392 22.9908 23.9648C23.0779 24.052 23.2523 24.1392 23.3395 24.1392C23.3395 24.1392 23.3395 24.1392 23.3395 24.2264C23.7754 25.7084 24.1241 27.1904 24.5599 28.6724C24.8215 29.5442 25.2574 30.3287 25.6061 31.1133C25.8676 31.7236 26.3035 32.2466 26.3035 32.8569C26.1291 33.0312 26.042 33.0312 26.042 33.1184Z" fill="black"/>
<path d="M17.8425 47.0811C16.622 45.1633 17.4938 39.4096 19.063 38.625C18.9758 39.4096 18.5399 40.0198 18.2783 40.7172C18.104 41.4147 18.0168 42.1121 17.8425 42.9838C18.3655 42.6351 18.8014 42.3736 19.3245 42.1121C19.3245 42.548 19.0629 42.6351 18.8014 42.7223C17.6681 43.5941 17.581 43.5941 17.6681 44.9889C17.6681 45.4248 17.7553 45.8607 17.7553 46.2094C17.7553 46.4709 17.7553 46.6453 17.8425 47.0811Z" fill="black"/>
<path d="M12.9649 12.0273C13.7495 12.3761 14.0982 13.0735 14.2725 13.7709C14.7084 15.4272 14.8827 17.0836 14.7956 18.8271C14.7956 19.0015 14.7084 19.1758 14.6212 19.263C14.534 19.263 14.534 19.263 14.4469 19.263C14.4469 19.0015 14.3597 18.7399 14.3597 18.4784C14.1853 17.0836 14.011 15.6888 13.8366 14.2939C13.7495 13.6837 13.4879 13.0735 12.9649 12.6376C12.7033 12.3761 12.7905 12.3761 12.9649 12.0273Z" fill="black"/>
<path d="M19.0693 28.4961C19.3309 27.9731 19.5052 27.45 19.8539 26.7526C19.9411 27.0141 20.0283 27.1885 19.9411 27.2756C19.7667 27.7987 19.6796 28.3218 19.418 28.7576C19.0693 29.3679 18.7206 29.3679 18.3719 28.7576C18.1976 28.4089 18.0232 28.0602 17.936 27.7987C17.5873 27.0141 17.2386 26.3167 16.8899 25.5321C16.8899 25.5321 16.8027 25.4449 16.8027 25.3578C16.8027 25.1834 16.8899 25.0962 16.8899 24.9219C16.9771 24.9219 17.1514 24.9219 17.2386 25.0091C17.413 25.2706 17.5873 25.5321 17.6745 25.7936C18.0232 26.4911 18.2847 27.1885 18.5463 27.8859C18.6334 28.0602 18.7206 28.2346 18.895 28.4089C18.895 28.4961 18.9822 28.4961 19.0693 28.4961Z" fill="black"/>
<path d="M51.5742 48.0364C51.5742 48.1236 51.487 48.2979 51.487 48.3851C50.6153 49.6928 49.7435 51.0004 48.8717 52.3081C48.6102 52.7439 48.1743 53.0055 47.8256 53.3542C47.6513 53.5285 47.3897 53.6157 47.041 53.8772C47.041 53.5285 47.041 53.3542 47.041 53.267C48.6974 52.1337 49.5691 50.2158 50.7024 48.6466C50.8768 48.3851 51.1383 48.2107 51.3998 47.9492C51.487 48.0364 51.5742 48.0364 51.5742 48.0364Z" fill="black"/>
<path d="M11.6537 10.2953C11.1306 9.59787 11.0434 8.81328 10.9562 8.02869C10.8691 7.33128 11.7408 6.54669 12.6126 6.28516C12.4382 6.63386 12.2639 7.06975 12.0895 7.2441C11.5665 7.76716 11.5665 8.29022 11.7408 8.98763C11.828 9.24916 11.9152 9.51069 11.9152 9.77222C11.9152 9.94658 11.9152 10.1209 11.9152 10.2953C11.7408 10.2953 11.6537 10.2953 11.6537 10.2953Z" fill="black"/>
<path d="M13.4 29.8906C12.6154 29.1932 12.3539 27.4497 12.9641 26.3164C13.3128 26.3164 13.3128 26.5779 13.3128 26.8395C13.3128 27.2753 13.2256 27.6241 13.1384 28.0599C13.1384 28.583 13.1384 28.7574 13.5743 29.1932C13.8359 28.8445 14.0974 28.4958 14.3589 28.2343C14.2717 29.1061 13.9231 29.5419 13.4 29.8906Z" fill="black"/>
<path d="M52.5418 51.6953C52.5418 51.9568 52.5418 52.044 52.5418 52.044C51.4957 52.8286 50.5367 53.6132 49.8393 54.7465C49.5778 54.3978 49.7521 54.2234 49.8393 54.1363C50.3624 53.526 50.9726 53.003 51.5828 52.4799C51.8444 52.2184 52.1059 52.044 52.5418 51.6953Z" fill="black"/>
<path d="M52.1928 50.9141C51.321 52.1345 50.1005 52.6576 49.1416 53.5294C49.1416 53.0063 49.5775 52.7448 49.9262 52.4832C50.2749 52.2217 50.6236 51.9602 51.0595 51.7858C51.4082 51.5243 51.4954 51.0012 52.1928 50.9141Z" fill="black"/>
<path d="M9.99893 11.2475C9.65022 10.986 9.38871 10.7245 9.04 10.5501C8.77847 10.3758 8.42976 10.3758 8.08105 10.2014C8.42976 9.85271 9.04 9.76554 9.3887 10.0271C9.82459 10.2886 10.0861 10.6373 9.99893 11.2475Z" fill="black"/>
<path d="M53.243 53.0817C52.4584 53.7791 51.6738 54.5637 50.8892 55.2611C50.802 55.2611 50.802 55.174 50.7148 55.174C50.7148 54.9996 50.7148 54.8252 50.802 54.8252C51.4994 54.215 52.284 53.6048 53.0686 53.0817C53.0686 53.0817 53.1558 53.0817 53.243 53.0817C53.243 53.0817 53.243 52.9945 53.243 53.0817Z" fill="black"/>
<path d="M9.91288 5.4961C9.73852 5.06022 9.47699 4.71151 8.95393 4.62434C8.86675 4.62434 8.77956 4.36281 8.69238 4.27563C8.86674 4.18845 9.04109 4.10128 9.12827 4.18845C9.91286 4.27563 10.1744 4.71151 9.91288 5.4961Z" fill="black"/>
<path d="M12.4395 5.0608C13.3112 4.10186 13.8343 4.01468 14.5317 4.45057C14.183 4.53774 13.8343 4.62492 13.4856 4.79927C13.224 4.88645 12.9625 5.23516 12.4395 5.0608Z" fill="black"/>
<path d="M14.0998 76.5387C13.4024 76.9745 12.7921 77.4104 12.0947 77.8463C12.1819 77.1489 13.4024 76.4515 14.0998 76.5387Z" fill="black"/>
<path d="M20.1989 43.2344C19.4144 43.6703 18.8041 44.1061 18.0195 44.4548C18.2811 43.8446 19.1528 43.3216 20.1989 43.2344Z" fill="black"/>
<path d="M25.7745 22.5742C25.2515 23.0101 24.7284 23.3588 24.1182 23.5332C24.3797 23.0101 24.9899 22.6614 25.7745 22.5742Z" fill="black"/>
<path d="M5.20225 8.89453C4.67919 9.33041 4.15614 9.7663 3.5459 10.2022C3.80743 9.41759 4.41766 8.89453 5.20225 8.89453Z" fill="black"/>
<path d="M10.0942 15.0938C10.1816 15.2686 10.2691 15.4434 10.3565 15.5308C10.2691 15.6182 10.1816 15.7056 10.0068 15.7056C9.91942 15.7056 9.83203 15.5308 9.83203 15.4434C9.83203 15.356 9.91943 15.2686 10.0942 15.0938Z" fill="black"/>
<path d="M10.6985 17.2695C10.7855 17.4435 10.9594 17.5305 10.9594 17.6175C10.9594 17.7045 10.7855 17.7915 10.6985 17.7915C10.6115 17.7915 10.5245 17.6175 10.4375 17.6175C10.4375 17.5305 10.5245 17.4435 10.6985 17.2695Z" fill="black"/>
<path d="M11.6606 15.6164C11.4866 15.7034 11.3126 15.7904 11.3126 15.7904C11.2256 15.7904 11.2257 15.6164 11.1387 15.5294C11.2257 15.4425 11.3126 15.3555 11.3996 15.3555C11.3996 15.4425 11.4866 15.5294 11.6606 15.6164Z" fill="black"/>
<path d="M60.6533 46.6381C60.7405 46.2023 61.0892 46.1151 61.5251 46.2023C61.2636 46.3766 61.002 46.6381 60.7405 46.8125C60.7405 46.8125 60.7405 46.7253 60.6533 46.6381Z" fill="black"/>
<path d="M7.55994 7.76382C7.55994 7.85081 7.47295 7.9378 7.38596 7.9378C7.29897 7.9378 7.125 7.85081 7.125 7.76382C7.125 7.67683 7.212 7.58984 7.29899 7.58984C7.38598 7.58984 7.55994 7.67683 7.55994 7.76382Z" fill="white"/>
<path d="M13.6653 8.1271C13.6653 8.21409 13.5783 8.30108 13.4913 8.30108C13.4044 8.30108 13.3174 8.21409 13.3174 8.1271C13.3174 8.04011 13.4044 7.95313 13.4913 7.95313C13.5783 7.95312 13.6653 8.04011 13.6653 8.1271Z" fill="white"/>
<path d="M5.81177 12.13C6.0733 12.0428 6.33482 12.0428 6.59635 12.0428C6.77071 12.0428 6.85788 12.0428 7.03224 12.0428C7.11941 12.0428 7.11942 12.0428 7.2066 11.9556C7.2066 11.8684 7.20659 11.8684 7.11942 11.7812C6.94506 11.7812 6.77071 11.7812 6.68353 11.7812C6.422 11.7812 6.16047 11.7813 5.81177 11.8684C5.72459 11.8684 5.72459 11.9556 5.72459 12.0428C5.63741 12.13 5.72459 12.2171 5.81177 12.13Z" fill="white"/>
<path d="M69.279 93.0259C68.9303 90.3234 68.5816 87.6209 68.2329 85.0056C68.2329 84.9184 68.2329 84.8312 68.2329 84.7441C68.1457 83.7851 68.0585 82.739 67.9713 81.7801C67.7098 79.6878 67.4483 77.5956 67.1868 75.5033C67.1868 75.329 67.0996 75.0675 67.0124 74.8059C66.9252 74.8059 66.9252 74.8059 66.8381 74.7188C66.6637 75.0675 66.315 75.329 66.315 75.7649C66.315 76.2879 66.2278 76.811 66.4894 77.2469C66.5765 77.4212 66.5765 77.6828 66.6637 77.9443C66.9252 80.1237 67.2739 82.2159 67.5355 84.3954C67.6226 85.18 67.797 85.9645 67.8842 86.662C68.0585 88.2311 68.1457 89.7131 68.2329 91.1951C68.2329 91.3695 68.3201 91.5438 68.3201 91.7182C68.4072 92.4156 68.4072 93.0259 68.3201 93.6361C68.3201 93.6361 68.2329 93.6361 68.2329 93.7233C68.1457 93.8976 67.9714 93.9848 67.797 93.9848H67.7098C67.6226 93.9848 67.5355 93.9848 67.5355 94.072C67.3611 94.1592 67.1868 94.1592 67.0996 94.1592C66.838 94.1592 66.5765 94.1592 66.315 94.1592C66.0535 94.1592 65.8791 94.1592 65.6176 94.1592C65.3561 94.1592 65.0945 94.1592 64.9202 94.072C64.7458 94.072 64.4843 93.8976 64.3971 93.8104C64.2228 93.5489 64.1356 93.2874 64.2228 92.9387C64.2228 92.8515 64.3099 92.6771 64.3971 92.59V92.5028V92.4156C64.4843 92.1541 64.5715 91.8926 64.7458 91.7182C65.0074 91.2823 65.3561 90.9336 65.7048 90.6721C65.7919 90.5849 65.8791 90.4977 66.0535 90.4977C66.1407 90.4106 66.2278 90.3234 66.4022 90.3234C66.2278 89.8003 66.1406 89.2773 65.9663 88.7542C65.8791 88.2311 65.8791 87.8824 66.2278 87.5337C66.6637 87.0978 67.0124 86.662 67.3611 86.2261C67.4483 86.1389 67.5355 85.9645 67.5355 85.8774L67.4483 85.7902C66.9252 86.3133 66.4022 86.8363 65.7919 87.4465C65.2689 86.3133 65.2689 86.1389 66.0535 85.3543C66.2278 85.0928 66.4893 84.9184 66.7509 84.6569C66.8381 84.5697 66.8381 84.3954 66.9252 84.3082L66.8381 84.221C66.4022 84.7441 65.8791 85.18 65.4432 85.703C65.356 85.5287 65.356 85.5287 65.356 85.4415C64.833 83.1749 64.833 80.9083 63.351 78.293C62.1305 77.0725 62.8279 78.0315 62.5664 78.1186C62.6536 78.3802 63.5254 79.4263 63.5254 79.6878C63.7869 81.257 64.0484 82.8262 64.3099 84.3954C64.5715 86.0517 65.0073 87.7081 65.5304 89.2773C65.6176 89.626 65.6176 89.9747 65.2689 90.2362C64.3971 90.9336 63.0895 92.4156 63.0895 93.4617C63.0895 94.5079 64.4843 95.0309 65.5304 94.9437C66.0535 94.8566 66.2278 94.8566 66.4022 94.9437C66.7509 94.8566 67.0124 94.7694 67.2739 94.7694C67.6226 94.7694 67.9714 94.7694 68.3201 94.6822C69.0175 94.595 69.3662 94.072 69.279 93.0259Z" fill="black"/>
<path d="M50.8877 59.5467C51.7595 60.7672 52.8056 62.7722 53.7645 64.6901C54.7235 66.6952 55.508 68.6131 55.8568 69.7464C56.1183 70.5309 56.3798 71.4027 56.8157 72.1873C57.2516 72.8847 57.949 73.495 58.4721 74.018C59.6925 75.1513 60.7387 76.3718 61.7848 77.6794C62.6565 78.7256 63.354 79.8589 63.5283 81.0793L64.0514 80.9922C63.877 79.5973 63.0924 78.3768 62.2207 77.3307C61.1745 76.0231 60.0412 74.8026 58.9079 73.6693C58.2977 73.0591 57.6875 72.536 57.2516 71.9258C56.8157 71.2284 56.5542 70.4438 56.2926 69.6592C55.9439 68.4387 55.1593 66.5208 54.2004 64.5158C53.2415 62.5107 52.1953 60.5056 51.3236 59.2852L50.8877 59.5467Z" fill="black"/>
<path d="M65.5378 94.0739C65.3634 93.8123 65.1891 93.4636 65.1891 93.1149C65.1891 92.7662 65.2763 92.4175 65.5378 92.156C65.625 92.0688 65.625 91.8944 65.4506 91.8073C65.3634 91.7201 65.1891 91.7201 65.1019 91.8944C64.8404 92.2431 64.666 92.679 64.666 93.2021C64.666 93.638 64.7532 94.0739 65.1019 94.4226C65.1891 94.5097 65.3634 94.5969 65.4506 94.5097C65.625 94.3354 65.625 94.2482 65.5378 94.0739Z" fill="black"/>
<path d="M67.1908 94.057C67.1037 93.7083 67.0165 93.3596 67.0165 93.0981V93.0109C67.0165 92.7493 67.1037 92.4006 67.1908 92.2263C67.278 92.1391 67.278 91.9648 67.1037 91.8776C66.9293 91.7904 66.8421 91.7904 66.755 91.9648C66.4934 92.3135 66.4062 92.6622 66.4062 93.0109V93.0981C66.4062 93.4468 66.4934 93.7955 66.5806 94.1442C66.5806 94.3185 66.755 94.3185 66.8421 94.3185C67.1037 94.3185 67.1908 94.2313 67.1908 94.057Z" fill="black"/>
</svg>
