<svg width="74" height="78" viewBox="0 0 74 78" fill="none" xmlns="http://www.w3.org/2000/svg">
<circle cx="34.5" cy="43.5" r="34.5" fill="#F15748" fill-opacity="0.5"/>
<g clip-path="url(#clip0_12762_7823)">
<path d="M68.3677 36.8298C67.5356 37.3827 66.7035 38.0739 65.8714 38.4886C65.4554 38.7651 65.178 38.9033 64.762 39.0415C63.3752 39.7327 61.9884 40.1474 60.6016 40.5621C60.0469 40.7004 59.4922 40.8386 58.9375 40.9768C58.7988 40.9768 58.7988 40.9768 58.6601 41.1151C58.5214 41.1151 58.2441 41.2533 58.1054 41.3915C57.9667 41.3915 57.9667 41.5298 57.828 41.5298C57.828 41.5298 57.6894 41.5298 57.6894 41.668H57.5507C57.2733 41.8062 56.996 42.0827 56.7186 42.3592C56.7186 42.3592 56.7186 42.3592 56.5799 42.3592C56.4412 42.3592 56.1639 42.3592 55.8865 42.3592C55.7478 42.9121 55.4705 43.4651 55.3318 44.018C55.3318 44.2945 55.1931 44.4327 55.1931 44.7092C53.8063 47.4739 53.3903 50.5151 54.0837 53.418C54.361 54.3857 54.4997 53.971 54.9158 54.9386C55.1931 55.3533 55.4705 55.9062 55.7478 56.321C56.3026 57.2886 56.996 58.118 57.5507 59.0857C57.6894 59.2239 57.6894 59.5004 57.828 59.6386C57.9667 59.9151 57.9667 60.0533 57.9667 60.3298C57.9667 60.468 57.9667 60.0533 57.9667 60.3298C58.2441 61.7121 57.9667 63.2327 57.6894 64.6151C57.412 65.5827 57.1346 66.5504 56.7186 67.518C56.5799 67.9327 56.3026 68.4857 56.1639 68.9004C55.7478 69.5915 55.3318 70.1445 54.6384 70.421C54.4997 70.421 54.361 70.5592 54.0837 70.5592C53.3903 70.6974 52.8356 70.5592 52.1422 70.2827C51.8648 70.1445 51.4488 70.0062 51.1714 69.7298H51.0327C50.8941 69.5915 50.7554 69.5915 50.6167 69.4533C50.3394 69.1768 50.062 68.7621 50.062 68.4857C50.062 68.4857 50.062 68.4857 50.062 68.3474C50.2007 67.7945 50.8941 67.6562 51.3101 67.518C51.5875 67.3798 51.7261 67.3798 52.0035 67.2415C52.5582 66.9651 53.1129 66.4121 53.529 65.8592C53.6677 65.721 53.6677 65.5827 53.8063 65.4445C53.945 65.168 54.0837 64.8915 54.2224 64.6151C54.2224 64.4768 54.361 64.4768 54.361 64.3386C54.361 64.2004 54.4997 64.2004 54.4997 64.0621C54.6384 63.371 54.7771 62.5415 54.6384 61.8504C54.6384 61.4357 54.4997 61.1592 54.361 60.7445C54.2224 60.3298 54.0837 60.6063 53.8063 60.1915C52.8356 58.5327 50.7554 57.1504 48.5365 56.4592V56.5974C48.3978 56.7357 48.3978 57.0121 48.5365 57.1504C48.5365 57.5651 48.8139 57.8415 49.0912 58.2562C49.0912 58.2562 49.0912 58.3945 49.2299 58.3945L49.3686 58.5327C49.3686 58.5327 49.3686 58.5327 49.3686 58.671C49.646 59.0857 49.9233 59.5004 49.9233 59.9151C49.0912 61.021 48.5365 61.7121 48.1205 62.9562C47.9818 63.5092 47.8431 64.0621 47.7045 64.6151C47.4271 65.5827 47.2884 66.5504 47.1497 67.3798C47.1497 67.518 47.1497 67.518 47.1497 67.6562C47.0111 68.071 46.8724 68.6239 46.7337 69.0386C46.595 69.4533 46.3177 69.7298 45.9016 69.7298C45.4856 69.7298 45.0695 69.868 44.6535 70.0062C44.3761 70.0062 44.0988 70.1445 43.9601 70.1445C42.4346 70.1445 41.0478 69.7298 39.7997 69.0386C39.6611 69.0386 39.5224 68.9004 39.3837 68.7621C39.5224 68.7621 39.5224 68.6239 39.6611 68.6239C39.9384 68.4857 40.2158 68.3474 40.3545 68.071C41.0478 67.518 41.7412 66.9651 42.4346 66.4121C42.9894 65.8592 43.5441 65.3062 43.9601 64.7533C44.2375 64.3386 44.5148 63.9239 44.7922 63.371C45.2082 62.4033 45.3469 61.4357 45.2082 60.468C45.0695 59.7768 44.9309 59.9151 44.6535 59.3621L44.5148 59.2239C44.0988 58.671 43.4054 58.118 42.712 57.8415C42.5733 57.8415 42.5733 57.8415 42.4346 57.8415C41.6026 57.2886 40.7705 56.7357 39.9384 56.321C39.6611 56.1827 39.3837 56.0445 39.245 56.1827C38.829 56.0445 38.829 55.9062 38.6903 55.768C38.2743 55.3533 37.8582 54.9386 37.4422 54.6621C37.1648 54.3857 37.0261 54.9386 36.8875 54.6621C36.8875 54.3857 36.7488 54.1092 36.7488 53.8327C36.7488 53.5562 36.8875 54.8004 36.7488 54.6621C36.7488 53.8327 36.7488 53.0033 36.6101 52.0357C36.6101 51.621 36.4714 50.3768 36.0554 49.6857C36.0554 49.5474 35.9167 49.4092 35.778 49.4092C35.778 49.4092 35.6394 49.4092 35.6394 49.271C35.2233 49.1327 34.5299 49.1327 34.1139 49.271C33.5592 49.4092 34.3912 49.5474 33.8365 49.6857C33.6978 49.6857 33.5592 49.8239 33.2818 49.8239C32.8658 49.9621 32.5884 49.9621 32.1724 50.1004C32.0337 50.1004 31.895 50.2386 31.7563 50.2386C31.6177 50.2386 31.479 50.3768 31.3403 50.3768H31.2016C30.7856 50.5151 30.3695 50.6533 30.0922 50.7915C29.9535 50.7915 29.8148 50.9298 29.6761 50.9298C29.1214 51.2062 28.5667 51.7592 28.012 52.3121C27.8733 52.4504 27.7346 52.5886 27.7346 52.7268C27.7346 52.8651 27.596 52.8651 27.596 53.0033C27.3186 53.418 27.0412 53.8327 26.7639 54.1092C26.0705 55.0768 25.9318 54.2474 25.7931 55.3533C25.6544 56.5974 25.6544 57.7033 25.5158 58.9474C25.3771 60.6062 25.6544 61.021 25.5158 62.6798C25.3771 63.7857 25.2384 64.8915 24.9611 65.9974C24.8224 66.8268 24.545 67.518 24.2677 68.3474C24.2677 68.4857 24.129 68.4857 24.129 68.6239C23.9903 69.0386 23.7129 69.4533 23.4356 69.868C23.2969 70.1445 23.0195 70.2827 22.8809 70.5592L22.7422 70.6974C22.1875 71.1121 21.4941 71.5268 20.662 71.8033C19.6912 72.0798 18.4431 72.218 17.6111 71.8033C17.6111 71.8033 17.6111 71.8033 17.4724 71.8033C17.195 71.6651 17.0563 71.5268 16.779 71.3886C16.3629 71.1121 16.0856 70.6974 16.0856 70.1445C16.0856 70.0062 16.2243 69.7298 16.2243 69.5915C16.6403 69.0386 17.6111 68.6239 18.3044 68.2092C18.7205 67.9327 18.9978 67.6562 19.2752 67.3798C20.5233 66.1357 21.078 64.2004 21.2167 62.5415C21.2167 61.2974 20.9394 61.2974 20.9394 60.0533C20.9394 59.7768 20.9394 59.3621 20.9394 59.0857C20.9394 58.671 20.9394 58.2562 20.9394 57.8415C20.9394 57.2886 20.8007 56.7357 20.662 56.1827C20.5233 55.9062 20.5233 55.6298 20.246 55.3533C20.1073 55.0768 19.9686 54.8004 19.6912 54.5239C18.9978 53.5562 18.8592 54.1092 17.7497 53.418C16.6403 52.7268 16.3629 52.4504 15.2535 52.1739C15.1148 52.1739 15.1148 52.1739 14.9761 52.1739C14.8375 52.1739 14.6988 52.1739 14.5601 52.1739C14.4214 52.1739 14.1441 52.1739 14.0054 52.3121C14.0054 52.3121 13.8667 52.4504 13.8667 52.5886C13.8667 52.7268 13.728 53.0033 13.728 53.2798C13.5894 53.971 13.5894 53.6945 13.4507 53.8327C13.312 54.2474 13.1733 54.5239 13.1733 54.8004C13.1733 54.9386 13.1733 54.9386 13.1733 55.0768C13.0346 55.4915 12.896 56.0445 12.896 56.4592C12.896 56.5974 12.896 56.7357 12.896 56.8739C12.4799 59.0857 12.896 60.0533 12.7573 62.2651C12.7573 63.2327 12.6186 64.2004 12.6186 65.3063V65.4445C12.6186 65.8592 12.4799 66.4121 12.4799 66.8268C12.4799 66.9651 12.4799 67.1033 12.4799 67.2415C12.4799 67.2415 12.4799 67.2415 12.4799 67.3798C12.3412 68.4857 11.9252 69.5915 11.2318 70.421C10.6771 71.1121 9.2903 71.6651 8.18086 71.8033H8.04219C7.62615 71.8033 7.34879 71.8033 6.93275 71.8033C5.82332 71.5268 4.99124 70.2827 5.2686 69.3151L5.40728 69.1768C6.10068 68.6239 6.65539 68.2092 7.34879 67.7945C7.90351 67.518 8.04218 67.2415 7.90351 66.6886C7.90351 66.4121 8.73558 66.2739 8.5969 65.9974C8.45822 65.168 8.45822 64.4768 8.5969 63.6474C8.5969 61.9886 8.31954 61.4357 8.45822 59.7768C8.45822 59.6386 8.45822 59.5004 8.45822 59.3621C8.45822 58.8092 8.31954 58.118 8.31954 57.5651C8.31954 56.5974 8.31954 55.768 7.76483 54.9386C7.48747 54.3857 7.34879 54.5239 7.21011 53.971C7.21011 53.8327 7.07143 53.5562 7.07143 53.418C6.79407 51.621 6.37803 50.9298 5.962 49.1327V48.9945V48.8562C5.962 48.3033 5.82332 47.7504 5.82332 47.0592C5.82332 46.921 5.82332 46.7827 5.82332 46.6445C5.82332 46.0915 5.68464 45.5386 5.68464 44.8474C5.68464 43.1886 5.962 41.5298 6.51671 40.0092C6.79407 39.0415 7.21011 38.2121 7.48747 37.2445C7.76483 36.4151 7.90351 35.7239 8.04219 34.8945C8.18086 34.2033 8.18086 33.5121 8.18086 32.821C8.18086 31.8533 7.90351 30.7474 7.76483 29.7798C7.76483 29.6415 7.76483 29.5033 7.62615 29.3651L8.04219 28.9504C8.04219 28.8121 8.04218 28.6739 7.90351 28.5357C7.90351 28.5357 7.90351 28.5357 8.04219 28.5357H8.18086C8.18086 28.5357 8.18086 28.5357 8.31954 28.5357C8.73558 28.3974 8.73558 28.5357 9.15162 28.3974C9.42898 28.2592 9.70634 28.2592 9.98369 28.121C10.5384 27.9827 11.0931 27.7062 11.6478 27.4298C12.896 26.8768 14.0054 26.3239 15.1148 25.4945C15.2535 25.3562 15.3922 25.218 15.6695 25.0798C15.8082 24.9415 16.0856 27.4298 16.2243 27.2915C16.3629 27.2915 16.3629 27.1533 16.5016 27.1533C16.779 27.0151 16.9177 26.7386 17.195 26.6004C17.3337 26.6004 17.4724 26.4621 17.7497 26.4621C18.0271 26.4621 18.3044 26.4621 18.5818 26.4621C18.7205 26.4621 18.8592 26.4621 18.9978 26.4621C19.5526 26.4621 20.1073 26.3239 20.662 26.3239C20.662 26.3239 20.662 26.3239 20.8007 26.3239H20.9394C21.078 26.3239 21.078 26.3239 21.078 26.3239C21.078 26.3239 21.2167 26.3239 21.2167 26.4621L21.7714 26.8768C21.9101 27.0151 22.1875 27.1533 22.3261 27.2915C22.4648 27.4298 22.7422 27.568 22.8809 27.568C23.4356 27.8445 23.2969 28.121 23.8516 28.3974C24.2677 28.8121 24.6837 29.0886 25.0997 29.3651C25.6544 29.7798 26.3478 29.7798 26.9026 30.0562C28.1507 30.471 28.428 30.3327 29.6761 30.471C29.9535 30.471 30.0922 30.471 30.3695 30.471C31.3403 30.6092 32.4497 30.7474 33.4205 30.8857C33.8365 30.8857 34.1139 30.8857 34.5299 30.8857C34.5299 31.0239 34.5299 31.1621 34.5299 31.1621C35.0846 31.3004 35.6394 31.3004 36.1941 31.1621C37.8582 31.0239 38.1356 31.0239 39.6611 30.8857C39.9384 30.8857 40.2158 30.8857 40.4931 30.7474C43.128 30.6092 45.7629 30.6092 48.3978 31.1621C48.6752 31.1621 49.0912 31.3004 49.3686 31.3004C49.5073 31.3004 49.7846 31.4386 49.9233 31.4386C50.6167 31.5768 51.3101 31.8533 51.7261 32.268C52.0035 32.5445 52.2809 32.6827 52.5582 33.0974L52.6969 33.2357C53.1129 33.5121 53.6677 33.6504 53.8063 33.7886C54.0837 34.2033 54.361 34.618 54.4997 35.0327C54.6384 35.4474 54.9158 35.7239 55.1931 36.0004C55.4705 36.2768 55.7478 36.968 56.1639 37.2445C56.3026 37.521 55.6092 38.6268 55.7478 38.9033C55.8865 39.0415 55.7478 36.8298 55.7478 36.968C55.8865 36.968 56.1639 36.5533 56.3026 36.5533C56.5799 36.6915 57.828 36.4151 58.1054 36.5533C58.1054 36.5533 58.1054 36.5533 58.2441 36.5533C60.1856 37.521 62.5431 37.2445 64.4846 36.2768C65.0394 36.0004 65.4554 35.5857 65.8714 35.171C67.1195 34.4798 67.9516 33.3739 68.9224 32.268C69.3384 31.7151 70.1705 30.471 70.7252 29.3651C71.696 28.5357 72.8054 27.8445 73.7761 27.8445C73.6375 30.8857 70.8639 34.8945 68.3677 36.8298Z" fill="white"/>
<path d="M10.8142 27.0156C9.56609 27.5686 8.73401 27.7068 7.34722 28.1215C7.06986 28.9509 7.06986 30.6097 7.06986 31.4392C7.20854 32.8215 7.20854 34.2039 7.06986 35.5862C7.06986 36.0009 6.51515 39.595 6.7925 39.7333C7.06986 39.8715 7.4859 39.7333 7.76326 39.4568C9.15005 38.3509 9.28873 36.4156 9.56609 34.6186C9.98213 32.1303 10.9529 29.7803 10.8142 27.1539C10.8142 27.1539 10.8142 27.1539 10.8142 27.0156Z" fill="#BCBCBB"/>
<path d="M12.618 61.8496C12.618 61.9878 13.0341 61.0202 12.8954 61.2966C12.7567 61.8496 12.202 62.1261 11.786 62.5408C10.8152 63.6466 11.3699 65.3055 10.6765 66.4114C10.5378 66.5496 10.5378 66.6878 10.3992 66.6878C10.2605 66.6878 10.1218 66.4113 10.1218 66.2731C10.1218 65.4437 10.1218 64.4761 10.1218 63.6466C10.1218 58.3937 8.59634 54.2466 9.84445 49.1319C9.84445 48.9937 9.98313 48.8555 10.1218 48.8555C10.2605 48.8555 10.3992 48.8555 10.5378 48.9937C11.3699 49.6849 12.4794 50.5143 13.1728 51.3437C13.7275 52.1731 13.4501 53.8319 13.3114 54.7996C12.618 57.4261 12.4794 59.2231 12.618 61.8496Z" fill="#BCBCBB"/>
<path d="M23.8511 67.5198C23.7124 68.7639 23.8511 70.2845 22.8803 71.1139C22.4643 71.3903 21.3549 71.6668 20.8001 71.6668C19.9681 71.8051 18.9973 71.6668 18.5813 71.1139C18.1652 70.5609 18.3039 69.8698 18.72 69.4551C18.9973 68.9021 19.552 68.6256 20.1068 68.2109C21.6322 66.9668 23.1577 65.1698 23.5737 63.2345C23.7124 62.5433 23.4351 63.0962 23.5737 62.4051C23.9898 60.7462 24.8218 59.0874 25.7926 57.5668C26.07 57.1521 26.2086 56.8756 26.486 56.4609C26.3473 56.7374 26.486 57.7051 26.3473 57.9815C26.2086 58.258 26.07 58.6727 25.9313 58.9492C25.6539 60.0551 25.5152 61.0227 25.0992 62.1286C24.5445 64.4786 23.9898 65.308 23.8511 67.5198Z" fill="#BCBCBB"/>
<path d="M45.3459 53.5555C45.9006 53.9702 46.4553 54.5231 46.8713 55.0761C47.1487 55.3525 47.2874 54.9378 47.4261 55.2143C47.7034 55.9055 47.9808 56.5966 48.2581 57.2878C48.2581 57.4261 48.3968 57.5643 48.3968 57.7025C48.3968 57.979 48.1195 58.2555 47.7034 58.2555C47.4261 58.2555 47.1487 58.1172 46.8713 57.979C45.6232 57.2878 44.7912 56.3202 43.6817 55.4908C41.4629 53.8319 38.5506 55.2143 37.1638 52.8643C36.8864 52.4496 36.7478 52.0349 36.8864 51.6202C37.0251 50.929 37.8572 49.5466 38.4119 49.4084C39.244 49.1319 40.0761 48.9937 40.9081 48.8555C41.0468 48.8555 41.1855 48.8555 41.1855 48.8555C41.3242 48.8555 41.3242 50.0996 41.3242 50.2378C41.4628 50.6525 41.6015 51.2055 41.7402 51.6202C42.1562 51.3437 42.2949 50.7908 42.8496 51.0672C43.2657 51.2055 43.543 51.8966 43.6817 52.3114C44.0978 53.1408 44.3751 52.7261 45.3459 53.5555Z" fill="#BCBCBB"/>
<path d="M55.3304 69.0405C55.1918 69.3169 55.1918 69.4552 55.0531 69.7316C54.7757 70.2846 54.0823 70.5611 53.3889 70.5611C53.2503 70.5611 53.1116 70.5611 52.9729 70.5611C52.8342 70.5611 52.6955 70.4228 52.6955 70.2846C52.1408 69.7317 51.8635 69.0405 52.0021 68.3493C52.1408 67.3816 52.6955 66.6905 53.3889 65.9993C54.0823 65.3081 54.9144 64.6169 55.3304 63.7875C55.6078 63.2346 55.8852 62.6816 56.4399 62.4052C56.8559 62.1287 57.8267 61.8522 58.104 62.4052C58.3814 62.8199 57.688 63.9258 57.4106 64.4787C56.5786 65.8611 56.0238 67.5199 55.3304 69.0405Z" fill="#BCBCBB"/>
<path d="M27.457 52.864C28.5665 52.5875 29.1212 51.2052 30.0919 50.6522C30.7853 50.2375 31.4787 50.0993 32.3108 49.961C33.5589 49.8228 33.4202 49.6846 34.6684 49.4081C35.5004 49.2699 36.3325 49.1316 37.0259 48.8552C37.4419 48.7169 37.858 48.3022 37.7193 47.8875C37.7193 47.3346 37.0259 47.1963 36.4712 47.0581C34.1136 46.6434 33.0042 46.0904 30.6467 46.2287C28.9825 46.2287 28.5665 47.4728 28.1504 48.8552C27.7344 50.2375 27.5957 51.4816 27.457 52.864Z" fill="#BCBCBB"/>
<path d="M65.4537 39.3201C64.3442 40.1495 62.8188 40.5642 61.432 40.9789C60.3225 41.2554 58.6584 42.223 57.2716 42.3613C56.9942 42.3613 56.8556 42.3613 56.5782 42.3613C56.5782 42.3613 56.5782 42.3613 56.4395 42.3613H56.3008C55.6074 42.223 55.3301 41.8083 55.1914 41.3936C55.1914 41.1171 55.1914 40.9789 55.3301 40.7024C55.4688 40.426 55.4688 40.2877 55.7461 40.1495C55.8848 40.0113 56.0235 39.873 56.1622 39.7348C56.4395 39.5965 56.7169 39.4583 57.1329 39.3201C59.7678 38.4907 62.4027 37.6613 65.0376 38.2142C65.1763 38.2142 65.4537 38.3524 65.5923 38.4907C65.5923 38.4907 65.5924 38.4907 65.731 38.6289C65.731 38.6289 65.731 38.6289 65.731 38.7671C66.0084 38.9054 65.731 39.1818 65.4537 39.3201Z" fill="#BCBCBB"/>
<path d="M21.4932 60.8829C21.2159 62.2652 21.6319 62.4034 21.6319 63.7858C21.6319 64.0623 21.6319 64.477 21.6319 64.7534C21.6319 64.8917 21.4932 65.1682 21.4932 65.3064C21.2159 65.1682 21.2159 65.0299 21.2159 64.7534C21.2159 62.9564 20.9385 62.2652 20.9385 60.4682C20.9385 60.3299 20.9385 60.0534 20.7998 59.9152C20.7998 59.9152 20.7998 59.9152 20.6611 59.777C20.3838 59.5005 20.3838 59.224 20.3838 58.8093C20.1064 57.1505 19.8291 56.4593 19.5517 54.8005C19.5517 54.6623 19.5517 54.3858 19.413 54.1093C19.2744 53.4182 19.1357 53.5564 18.997 53.5564C18.7196 53.5564 18.4423 53.4182 18.1649 53.2799C17.7489 53.1417 18.0262 53.1417 17.6102 53.0034C16.2234 52.5887 16.0847 52.3123 14.8366 51.7593C14.6979 51.7593 14.6979 51.7593 14.4206 51.6211V51.7593C14.2819 52.727 14.0045 53.9711 14.0045 54.6623C13.8659 56.3211 13.3111 57.1505 13.3111 58.9476C13.3111 59.9152 13.3111 60.8829 13.3111 61.8505C13.3111 62.2652 13.5885 61.4358 13.5885 61.8505C13.5885 62.127 13.5885 62.4034 13.0338 62.4034C12.8951 62.4034 12.7564 62.5417 12.7564 62.6799C12.6177 63.3711 12.3404 63.924 12.2017 64.6152C12.2017 64.7534 12.2017 64.8917 12.2017 64.8917V65.0299C12.063 65.5829 12.063 66.274 11.9244 66.827C11.9244 66.827 11.9244 66.827 11.9244 66.9652C11.9244 67.1034 11.9244 67.2417 11.9244 67.2417C11.7857 68.2093 11.647 69.0387 11.647 70.0064C11.647 70.5593 11.231 70.8358 10.8149 70.974C10.1215 71.2505 8.59605 71.6652 7.76397 71.527C7.76397 71.527 7.76397 71.527 7.62529 71.527H7.48661C7.34794 71.527 7.20926 71.527 7.07058 71.6652C6.9319 71.6652 6.65454 71.6652 6.51586 71.6652C6.2385 71.6652 5.96114 71.527 5.68378 71.527C4.71303 71.3887 4.01963 70.5593 4.43567 69.7299C4.57435 69.5917 4.57435 69.3152 4.71303 69.177L4.85171 69.0387C5.54511 68.4858 6.09982 68.0711 6.79322 67.6564C7.34794 67.3799 7.48662 67.1034 7.34794 66.5505C7.34794 66.274 8.18001 66.1358 8.04133 65.8593C7.90265 65.0299 7.90265 64.3387 8.04133 63.5093C8.04133 61.8505 7.76397 61.2976 7.90265 59.6387C7.90265 59.5005 7.90265 59.3623 7.90265 59.224C7.90265 58.6711 7.76397 57.9799 7.76397 57.427C7.76397 56.4593 7.76397 55.6299 7.20926 54.8005C6.9319 54.2476 6.79322 54.3858 6.65454 53.8329C6.65454 53.6946 6.51586 53.4182 6.51586 53.2799C6.09982 52.0358 5.82246 52.0358 5.68378 50.7917C5.54511 50.1005 5.54511 49.5476 5.54511 48.8564V48.7182C5.54511 48.1652 5.40643 47.6123 5.40643 46.9211C5.40643 46.7829 5.40643 46.6446 5.40643 46.5064C5.40643 45.9534 5.26775 45.4005 5.26775 44.7093C5.26775 44.5711 5.26775 44.5711 5.26775 44.4329C5.12907 44.2946 4.71303 44.7093 4.57435 44.1564C5.12907 43.0505 5.40643 41.9446 5.68378 40.8387C5.82246 40.2858 5.96114 39.5946 6.09982 39.0417C6.2385 38.074 6.51586 37.1064 6.65454 36.1387C6.9319 34.2034 7.34794 32.4064 7.20926 30.4711C7.20926 30.0564 7.07058 29.5034 7.07058 29.0887L7.48661 28.674V28.5358C7.48661 28.3976 7.48661 28.3976 7.48661 28.2593C7.48661 28.2593 7.48661 28.2593 7.48661 28.1211H7.62529C7.62529 28.1211 7.62529 28.1211 7.76397 28.1211C7.90265 28.2593 7.48661 28.5358 7.48661 28.674C7.48661 28.8123 7.48661 28.9505 7.48661 29.0887C7.62529 30.1946 7.62529 31.4387 7.48661 32.5446C7.48661 32.6829 7.48662 32.9593 7.34794 33.0976C7.20926 34.3417 6.9319 35.724 6.79322 36.9682C6.79322 37.3829 6.65454 37.7976 6.65454 38.074C6.37718 39.5946 5.96114 40.977 5.68378 42.4976C5.68378 42.6358 5.68378 42.9123 5.68378 43.1887C5.82246 43.6034 5.82246 43.8799 5.82246 44.2946C5.82246 45.2623 5.68378 46.2299 5.82246 47.1976C5.82246 48.8564 5.96114 50.2387 6.2385 51.7593C6.51586 53.4181 7.20926 53.8329 7.76397 55.4917C8.04133 56.0446 8.18001 55.7682 8.31869 56.4593C8.45737 57.0123 8.45737 57.0123 7.90265 57.2887L8.31869 64.6152C8.73473 64.3387 9.15077 64.2005 9.5668 63.924C9.5668 63.924 9.5668 63.924 9.5668 64.0623C9.28944 64.2005 9.15077 64.477 8.87341 64.6152C8.45737 64.8917 8.31869 65.3064 8.31869 65.7211C8.31869 65.8593 8.31869 65.8593 8.31869 65.9976C8.45737 66.6887 7.62529 67.3799 7.48661 68.2093C6.9319 68.4858 6.37718 68.7623 5.96114 69.0387C5.68379 69.177 5.26775 69.4534 4.99039 69.8682C4.71303 70.1446 4.85171 70.4211 5.12907 70.5593C5.54511 70.6976 5.82246 70.8358 6.09982 70.974C6.51586 70.2829 6.51586 69.7299 7.07058 69.177C7.07058 69.4534 7.20926 69.5917 7.20926 69.5917C7.07058 69.8682 6.9319 70.0064 6.79322 70.2829C6.65454 70.5593 6.51586 70.8358 6.65454 71.1123C7.07058 71.2505 7.07058 71.1123 7.20926 70.8358C7.34794 70.5593 7.62529 70.2829 7.76397 70.0064C7.76397 70.0064 8.04133 70.0064 8.31869 69.8682C8.04133 70.2829 7.90265 70.5593 7.62529 70.974C8.18001 71.1123 8.45737 70.974 8.73473 70.8358C8.73473 70.8358 8.73473 70.8358 8.87341 70.8358C9.84416 70.2829 10.6762 70.2829 10.8149 69.177C10.9536 68.2093 11.0923 67.1035 11.231 65.9976C11.5083 64.7534 11.5083 63.6476 12.063 62.5417V62.4034C12.2017 62.2652 12.2017 61.9887 12.4791 61.9887H12.6177V61.8505C12.6177 60.8829 12.2017 61.0211 12.2017 60.0534C12.063 59.0858 12.2017 58.1182 12.3404 57.0123C12.2017 57.0123 12.2017 57.0123 12.2017 57.0123C11.7857 57.1505 11.3696 57.427 10.9536 57.7034C11.0923 57.2887 11.231 57.1505 11.5083 57.1505C11.9244 57.0123 12.2017 56.874 12.3404 56.5976C12.6177 56.3211 12.7564 55.9064 12.7564 55.3534C12.7564 55.3534 12.7564 55.3534 12.7564 55.2152C12.6177 55.2152 12.4791 55.3534 12.3404 55.3534C12.6177 55.2152 12.7564 55.077 12.8951 54.9387C13.1725 54.8005 13.1725 54.6623 13.3111 54.3858V54.2476C13.4498 53.8329 13.4498 53.5564 13.5885 52.5887C13.5885 52.174 13.7272 51.8976 13.7272 51.7593C13.4498 51.4829 13.0338 51.2064 12.7564 50.9299C12.4791 50.6534 12.063 50.377 11.647 50.1005C11.3696 50.2387 11.231 50.5152 11.0923 50.7917C10.5376 50.377 10.3989 49.824 10.1215 49.2711C9.98284 49.1329 9.98284 48.9946 9.84416 48.7182C9.70548 48.3034 9.5668 48.027 9.42812 47.6123C9.15077 47.0593 9.01209 46.5064 8.87341 46.0917C8.73473 45.5387 8.45737 44.9858 8.45737 44.4329C8.31869 43.8799 8.31869 43.1887 8.18001 42.6358C8.45737 42.4976 8.59605 42.6358 8.59605 42.774V42.9123C8.45737 44.4329 9.01209 45.677 9.5668 47.0593C9.84416 47.6123 9.98284 48.1652 10.2602 48.7182C10.2602 48.7182 10.2602 48.8564 10.3989 48.8564C10.5376 49.1329 10.6762 49.4093 10.9536 49.6858C10.9536 49.5476 11.0923 49.4093 11.0923 49.4093C11.0923 49.2711 11.231 49.1329 11.231 48.9946C12.063 49.6858 12.7564 50.2387 13.5885 50.9299C14.4206 51.4829 15.2527 51.8976 16.2234 52.174C16.9168 51.6211 16.5008 50.7917 17.1942 50.2387C16.7781 50.9299 17.0555 51.4829 16.7781 52.3123C17.0555 52.5887 16.2234 52.3123 16.5008 52.174C16.9168 51.6211 16.7781 51.3446 17.4715 51.0682C17.0555 51.4829 17.0555 51.7593 16.6394 52.4505C16.9168 52.727 18.581 53.5564 19.2744 53.5564C19.1357 52.5887 18.997 53.6946 18.997 52.727C18.8583 51.7593 18.8583 50.7917 18.8583 49.824C18.8583 48.8564 18.4423 48.027 18.4423 47.0593H18.581C18.7196 47.1976 18.7196 47.3358 18.7196 47.474C18.997 48.8564 19.1357 50.2387 19.2744 51.7593C19.413 53.5564 19.8291 53.2799 20.1064 55.077C20.5225 54.8005 20.9385 55.4917 21.3545 55.3534C20.9385 55.6299 20.6611 55.2152 20.2451 55.4917C20.2451 55.7682 20.3838 56.0446 20.3838 56.3211C20.5225 56.874 20.5225 57.427 20.6611 57.9799C20.6611 58.3946 20.7998 58.8093 20.9385 59.0858C21.0772 59.5005 21.2159 60.0534 21.4932 60.4682C21.4932 60.4682 21.6319 60.7446 21.4932 60.8829Z" fill="black"/>
<path d="M72.8043 31.5767C72.5269 31.9914 72.5269 32.5444 72.2496 32.9591C71.9722 33.512 71.5562 34.0649 71.1401 34.6179C70.8628 34.8944 70.5854 35.3091 70.3081 35.5855C70.1694 35.7238 70.0307 35.862 69.7533 36.0002C69.3373 36.4149 68.7826 36.6914 68.3665 37.1061C67.2571 37.9355 66.1477 38.9032 64.8996 39.7326C63.5128 40.7002 61.9873 41.2532 60.4618 41.6679C59.7684 41.8061 59.075 42.0826 58.5203 42.2208C58.1043 42.3591 57.6882 42.3591 57.2722 42.3591C57.1335 42.3591 56.8562 42.3591 56.7175 42.3591C56.7175 42.3591 56.7175 42.3591 56.5788 42.3591C56.4401 42.3591 56.1628 42.3591 55.8854 42.3591C55.7467 42.912 55.4694 43.4649 55.3307 44.0179C55.3307 44.2944 55.192 44.4326 55.192 44.7091C54.9147 45.8149 54.6373 46.9208 54.4986 48.0267C54.3599 48.8561 54.2213 49.6855 54.0826 50.3767C54.0826 50.6532 53.9439 50.9297 54.2213 51.2061C54.3599 51.4826 54.4986 51.7591 54.3599 52.0355C54.0826 52.7267 54.0826 53.1414 54.0826 53.5561C54.0826 53.8326 54.2213 54.1091 54.2213 54.5238C54.4986 55.3532 54.6373 54.5238 54.9147 55.0767C55.3307 55.7679 55.8854 56.3208 56.5788 57.1502C57.1335 57.7032 57.5496 58.3944 57.9656 59.0855C58.243 59.5002 58.5203 60.1914 58.5203 60.6061C58.5203 61.5738 58.3816 61.9885 58.1043 62.9561C57.9656 63.5091 57.8269 64.062 57.6882 64.6149C57.4109 65.7208 57.1335 66.8267 56.8562 67.9326C56.7175 68.6238 56.5788 69.3149 56.3015 70.0061C56.0241 70.6973 55.4694 70.9738 54.776 70.9738C53.3892 71.112 52.0024 70.8355 50.893 70.2826C50.3382 70.0061 49.9222 69.4532 49.6448 68.9002C49.3675 68.3473 49.6448 67.7944 50.0609 67.2414C50.6156 66.6885 51.1703 66.412 51.8637 66.1355C52.2798 65.9973 52.6958 65.7208 52.8345 65.3061C53.2505 64.4767 53.5279 63.6473 53.8052 62.8179C53.8052 62.5414 53.9439 62.4032 53.9439 62.1267C54.0826 61.712 54.3599 61.1591 54.2213 60.7444C54.2213 60.7444 54.2213 60.7444 54.2213 60.6061C54.2213 60.4679 54.3599 60.4679 54.3599 60.1914C54.6373 60.7444 54.6373 61.1591 54.4986 61.5738V61.712C54.3599 62.4032 54.0826 62.9561 53.9439 63.6473C53.9439 63.7855 53.9439 63.7855 53.9439 63.9238C54.0826 63.9238 54.2213 63.9238 54.3599 63.7855C54.4986 63.7855 54.6373 63.7855 54.776 63.6473C55.192 63.5091 55.6081 63.3708 56.0241 63.3708C55.8854 63.3708 55.7467 63.5091 55.6081 63.5091C55.192 63.6473 54.776 63.7855 54.3599 63.9238C54.2213 63.9238 54.2213 63.9238 54.0826 64.062C53.5279 64.2002 53.2505 64.6149 53.2505 65.1679C53.3892 65.1679 53.5279 65.1679 53.6665 65.1679C53.8052 65.1679 54.0826 65.1679 54.2213 65.1679C54.2213 65.1679 54.2213 65.1679 54.2213 65.3061C54.0826 65.3061 53.9439 65.4444 53.8052 65.4444C53.6665 65.4444 53.5279 65.5826 53.3892 65.5826C53.2505 65.5826 53.1118 65.7208 52.9732 65.8591C52.8345 66.1355 52.5571 66.2738 52.2798 66.2738C52.1411 66.2738 52.0024 66.412 51.725 66.412C51.1703 66.6885 50.7543 66.8267 50.3382 67.1032C49.9222 67.3797 49.7835 67.7944 49.7835 68.0708C49.7835 68.3473 49.9222 68.762 50.3382 69.0385C50.4769 68.762 50.6156 68.3473 50.893 68.0708C51.0316 67.7944 51.309 67.6561 51.5864 67.5179C51.725 67.5179 51.725 67.5179 51.8637 67.5179C51.725 67.6561 51.5864 67.7944 51.5864 67.9326C51.309 68.3473 51.1703 68.6238 50.893 69.0385C50.893 69.1767 50.893 69.1767 50.893 69.3149C50.893 69.4532 51.0316 69.5914 51.1703 69.5914C51.4477 69.7296 51.725 69.7297 52.0024 69.8679C52.2798 70.0061 52.6958 70.0061 52.9732 70.0061C52.9732 69.7296 52.9732 69.4532 52.9732 69.1767C52.9732 68.9002 52.9732 68.6238 53.1118 68.4855C53.2505 68.2091 53.2505 67.9326 53.6665 67.9326C53.5279 68.6238 53.1118 69.1767 53.3892 69.8679V70.0061C53.6665 70.0061 53.9439 70.0061 54.2213 70.0061C54.3599 70.0061 54.4986 70.0061 54.6373 70.0061C55.0533 70.0061 55.192 69.7297 55.3307 69.4532C55.4694 69.1767 55.6081 68.9002 55.6081 68.4855C55.6081 68.4855 55.6081 68.4855 55.6081 68.3473C56.0241 66.6885 56.4401 65.1679 56.7175 63.5091C56.8562 62.9561 56.9949 62.5414 57.1335 61.9885C57.1335 61.8502 57.1335 61.712 57.1335 61.712C57.2722 61.1591 57.2722 60.4679 57.4109 59.9149C57.4109 59.9149 57.4109 59.9149 57.4109 59.7767C57.4109 59.5002 57.4109 60.0532 57.2722 59.9149C57.1335 59.9149 57.1335 59.7767 56.9948 59.7767C57.1335 59.6385 57.1335 59.5002 57.1335 59.362C57.1335 59.2238 56.9948 58.9473 56.8562 58.8091L56.7175 58.6708C55.8854 57.7032 55.0533 56.7355 54.4986 55.7679C53.6665 54.2473 53.1118 54.9385 52.8345 53.1414C52.6958 52.1738 52.5571 51.2061 52.8345 50.3767C53.2505 48.4414 53.6665 46.5061 54.0826 44.4326C54.2213 43.6032 54.3599 42.912 54.4986 42.0826C54.4986 41.9444 54.4986 41.9444 54.4986 41.8061C54.6373 41.5296 54.6373 41.3914 54.6373 41.1149C54.6373 40.8385 54.776 40.7002 54.776 40.4238C54.776 40.0091 54.9147 39.5944 54.9147 39.0414C54.9147 38.9032 54.9147 38.6267 55.0533 38.4885C55.0533 38.6267 55.192 38.7649 55.192 38.9032C55.192 39.1796 55.192 39.5944 55.192 39.8708C55.192 40.2855 55.192 40.562 55.192 40.9767C55.192 41.2532 55.192 41.3914 55.192 41.8061C55.6081 41.8061 55.8854 41.6679 56.1628 41.6679C56.5788 40.8385 56.3015 40.0091 56.7175 39.1796C56.5788 40.0091 56.5788 40.7002 56.4401 41.5297C56.7175 41.5297 56.8562 41.5297 56.8562 41.5297C56.9948 41.5297 56.9948 41.5296 56.9948 41.3914C56.9948 41.3914 56.9949 41.2532 57.1335 41.1149C57.1335 40.7002 57.2722 40.2855 57.2722 40.0091C57.2722 39.7326 57.4109 39.4561 57.4109 39.1796H57.5496C57.4109 39.8708 57.4109 40.562 57.2722 41.2532C57.6882 41.3914 57.8269 41.2532 57.8269 40.9767C57.8269 40.562 57.9656 40.1473 57.9656 39.7326C57.9656 39.5944 58.1043 39.4561 58.243 39.4561C58.243 40.0091 58.1043 40.4238 58.1043 40.9767C58.1043 41.1149 58.1043 41.1149 58.1043 41.2532C59.075 41.1149 60.0458 40.9767 60.8779 40.7002C61.2939 40.562 61.8486 40.4238 62.2647 40.1473C62.9581 39.8708 63.5128 39.4561 63.9288 39.0414C64.0675 39.0414 64.0675 38.9032 64.0675 38.9032C64.2062 38.7649 64.3448 38.6267 64.4835 38.6267C64.6222 38.6267 64.7609 38.4885 64.8996 38.4885C65.0382 38.3502 65.3156 38.3502 65.4543 38.212C66.1477 37.6591 66.9798 37.1061 67.6732 36.4149C68.5052 35.7238 69.3373 35.0326 70.0307 34.0649C70.7241 33.0973 71.9722 30.8855 72.2496 29.6414C72.3882 29.0885 72.2496 28.812 71.8335 28.2591C71.2788 28.3973 70.7241 28.2591 70.3081 28.6738C69.476 29.7796 67.9505 32.4061 67.1184 33.3738C66.1477 34.3414 65.1769 35.4473 63.9288 36.1385C63.7901 36.1385 63.6515 36.2767 63.6515 36.2767C62.6807 36.5532 61.5713 36.8296 60.6005 36.9679C59.3524 37.2444 57.9656 37.3826 56.7175 36.9679C56.3015 36.8296 55.0533 36.9679 54.776 36.8296C54.4986 36.6914 54.3599 37.1061 54.4986 36.8296L54.3599 36.6914C54.4986 36.6914 54.776 36.2767 54.9147 36.2767C55.192 36.4149 56.4401 36.1385 56.7175 36.2767C56.7175 36.2767 56.7175 36.2767 56.8562 36.2767C57.2722 36.4149 57.8269 36.1385 58.243 36.2767C59.7684 36.6914 61.1552 36.5532 62.542 35.7238C62.6807 35.7238 62.8194 35.5855 62.8194 35.5855C63.3741 35.7238 63.6515 35.4473 64.0675 35.1708C64.2062 35.1708 64.3448 35.0326 64.4835 34.8944C65.7316 34.2032 66.5637 33.0973 67.5345 31.9914C67.9505 31.4385 68.7826 30.1944 69.3373 29.0885C69.6147 28.5355 69.892 28.1208 70.1694 27.8444C70.4467 27.4296 71.0015 27.1532 71.4175 27.0149C71.8335 26.7385 72.2496 27.2914 72.6656 27.8444C73.6364 28.9502 73.359 30.8855 72.8043 31.5767Z" fill="black"/>
<path d="M38.4121 54.6618C38.2734 54.5236 38.2734 54.5236 38.1348 54.3853C38.2734 54.2471 38.2734 54.5236 38.4121 54.6618Z" fill="black"/>
<path d="M54.2217 60.1902L54.083 60.3284C53.9443 60.3284 53.8056 60.1902 53.667 60.1902C52.8349 59.6373 52.0028 59.0843 51.1707 58.5314C50.3387 57.9784 49.5066 57.4255 48.8132 56.7343L48.6745 56.5961C48.5358 56.5961 48.5358 56.4579 48.3972 56.4579C48.3972 56.5961 48.3972 56.7343 48.3972 56.8726C48.3972 57.0108 48.5358 57.149 48.5358 57.2873C48.6745 57.702 48.8132 57.9784 49.0905 58.3932C49.0905 58.3932 49.0905 58.5314 49.2292 58.5314C49.2292 58.5314 49.2292 58.6696 49.3679 58.6696C49.3679 58.6696 49.3679 58.6696 49.3679 58.8079C49.6453 59.0843 49.9226 59.2226 50.3387 59.3608C50.3387 59.499 50.2 59.6373 50.2 59.7755L50.0613 59.9137C49.2292 61.0196 48.6745 61.7108 48.2585 62.9549C48.1198 63.5079 47.9811 64.0608 47.8424 64.6137C47.7038 65.5814 47.5651 66.549 47.2877 67.3784C47.2877 67.5167 47.2877 67.5167 47.2877 67.6549C47.149 68.0696 47.0104 68.6226 46.8717 69.0373C46.733 69.452 46.4556 69.7284 46.0396 69.7284C45.6236 69.7284 45.2075 69.8667 44.7915 70.0049C44.5141 70.0049 44.2368 70.1432 44.0981 70.1432C43.9594 70.1432 43.6821 70.2814 43.5434 70.2814C43.5434 70.2814 43.5434 70.2814 43.4047 70.2814C42.4339 70.1432 41.4632 70.2814 40.6311 69.8667C40.2151 69.7284 39.9377 69.452 39.799 69.0373C39.799 68.899 39.6604 68.7608 39.6604 68.6226C39.6604 68.3461 39.799 68.0696 40.0764 67.6549C40.6311 67.102 41.1858 66.549 41.8792 66.2726C42.1566 66.1343 42.2953 66.1343 42.5726 65.9961C42.9887 65.8579 43.266 65.5814 43.4047 65.0284C43.6821 64.0608 44.0981 63.2314 44.3755 62.2637C44.6528 61.2961 44.7915 60.8814 44.6528 59.9137C44.6528 59.7755 44.6528 59.6373 44.5141 59.499L44.3755 59.3608C44.2368 59.0843 43.8207 58.9461 43.5434 58.6696C43.1273 58.3931 42.7113 58.1167 42.2953 57.8402C41.4632 57.2873 40.6311 56.7343 39.799 56.3196C39.5217 56.1814 39.2443 56.0432 39.1056 56.1814C38.8283 56.0432 38.8283 55.9049 38.6896 55.7667C38.2736 55.352 37.8575 54.9373 37.4415 54.6608C37.1641 54.3843 37.0255 54.9373 36.8868 54.6608C36.8868 54.3843 36.7481 54.1079 36.7481 53.8314C36.7481 53.5549 36.8868 54.799 36.7481 54.6608C36.6094 54.5226 36.6094 54.3843 36.4707 54.2461C36.0547 53.8314 36.0547 53.2784 35.916 52.7255C36.3321 52.3108 36.0547 51.7579 36.0547 51.3432C36.0547 51.3432 36.1934 51.3432 36.1934 51.2049C36.4707 51.4814 36.6094 51.7579 36.6094 52.1726V52.3108C36.8868 53.1402 36.8868 52.449 37.1641 53.2784C37.3028 53.5549 37.4415 53.6932 37.5802 53.9696C37.7188 54.1079 37.8575 54.3843 37.9962 54.5226L38.1349 54.6608C38.2736 54.799 38.4122 54.9373 38.6896 55.0755C38.967 54.799 39.2443 55.352 39.6604 55.0755C39.5217 55.6284 38.6896 55.0755 39.383 55.6284C39.799 55.352 40.2151 55.0755 40.6311 54.6608C40.6311 54.6608 40.6311 54.6608 40.7698 54.799C40.3538 55.0755 40.0764 55.352 39.6604 55.6284C39.9377 55.9049 40.0764 56.0432 40.3538 56.1814C41.4632 56.8726 42.7113 57.5637 43.8207 58.2549C43.9594 58.3932 44.2368 58.3932 44.3755 58.5314C44.9302 58.8079 44.9302 58.8079 44.7915 59.3608C44.7915 59.3608 44.7915 59.499 44.7915 59.6373C44.9302 60.1902 44.9302 60.1902 44.9302 60.7431C44.9302 61.2961 44.7915 61.7108 44.6528 62.2637C44.5141 63.0932 44.0981 63.7843 43.9594 64.4755C43.9594 64.6137 43.8207 64.752 43.8207 64.8902C43.8207 65.0284 43.6821 65.0284 43.6821 65.1667C43.9594 65.3049 44.0981 65.3049 44.5141 65.4432C44.2368 65.5814 44.2368 65.7196 44.0981 65.7196C43.5434 65.9961 42.9887 66.1343 42.4339 66.4108C41.8792 66.6873 41.4632 66.9637 41.0471 67.3784C40.9085 67.5167 40.6311 67.6549 40.4924 67.9314L40.3538 68.0696C39.9377 68.7608 40.3538 69.3137 41.3245 69.5902C41.4632 69.1755 41.6019 68.899 41.7405 68.4843C41.7405 68.3461 41.8792 68.2079 41.8792 68.0696C42.0179 67.9314 42.1566 67.7931 42.2953 67.9314C42.4339 68.0696 42.4339 68.2079 42.2953 68.3461C42.0179 68.7608 41.7405 69.1755 41.6019 69.7284C42.0179 69.7284 42.2953 69.7284 42.5726 69.8667C42.85 69.452 42.5726 69.0373 43.1273 68.7608C43.1273 69.0373 43.266 69.3137 43.266 69.7284C43.4047 69.7284 43.6821 69.7284 43.9594 69.7284C44.5141 69.7284 44.9302 69.5902 45.4849 69.452C45.9009 69.452 46.0396 69.1755 46.317 68.899C46.733 68.0696 46.733 67.2402 46.8717 66.549C47.149 65.5814 47.2877 64.6137 47.4264 63.6461C47.4264 63.5079 47.4264 63.3696 47.4264 63.0932C46.5943 62.9549 46.1783 63.6461 45.4849 63.6461C46.0396 63.0932 46.8717 62.9549 47.5651 62.6784C48.1198 61.4343 48.8132 60.8814 49.3679 59.499C48.6745 59.0843 48.2585 58.5314 47.9811 57.8402C47.8424 57.4255 47.7038 57.149 47.5651 56.7343C47.5651 56.5961 47.4264 56.3196 47.4264 56.1814C47.4264 56.0432 47.4264 56.0431 47.4264 55.9049C47.4264 55.6284 47.2877 55.4902 47.149 55.352C47.0104 55.2137 46.8717 55.0755 46.8717 54.9373C46.5943 54.6608 46.317 54.3843 46.0396 54.2461C45.4849 53.8314 44.9302 53.5549 44.3755 52.8637C43.6821 51.7579 43.266 52.0343 42.5726 50.9284L42.4339 50.7902C42.0179 50.9284 42.0179 51.4814 41.4632 51.4814C41.4632 51.3432 41.3245 51.2049 41.3245 51.0667C41.3245 50.9284 41.3245 50.7902 41.3245 50.652C41.3245 48.7167 41.6019 46.9196 41.8792 44.9843C42.0179 44.4314 42.1566 43.7402 42.2953 43.1873C42.2953 42.9108 42.4339 42.7726 42.7113 42.4961C42.7113 42.7726 42.7113 42.9108 42.7113 42.9108C42.4339 44.4314 42.1566 46.0902 41.8792 47.749C41.7405 48.4402 41.7405 48.9932 41.6019 49.6843C41.6019 49.9608 41.6019 50.099 41.6019 50.5137C41.8792 50.2373 42.1566 50.099 42.4339 49.8226C42.7113 50.099 42.85 50.3755 42.9887 50.652C43.6821 51.7579 44.0981 51.3432 44.7915 52.449C44.9302 52.7255 45.2075 53.002 45.3462 53.2784C46.317 54.3843 47.2877 54.6608 48.5358 55.6284C49.3679 56.3196 50.2 56.8726 51.0321 57.4255C52.0028 58.1167 52.8349 58.9461 53.8056 59.6373C54.083 59.9137 54.083 60.052 54.2217 60.1902Z" fill="black"/>
<path d="M54.9159 36.9666C54.4999 36.8284 55.332 37.6578 55.1933 37.2431C54.9159 36.8284 54.7773 36.2754 54.4999 35.8607C54.4999 35.7225 54.3612 35.7225 54.3612 35.5842C54.2225 35.3078 54.0839 35.1695 53.8065 34.8931C53.3905 34.3401 52.8357 33.7872 52.281 33.2342C52.1424 33.096 52.1423 33.096 52.0037 32.9578L51.865 32.8195C51.449 32.5431 51.1716 32.2666 50.7556 31.9901C50.4782 31.8519 50.0622 31.7136 49.6461 31.5754C49.5074 31.4372 49.2301 31.4372 49.0914 31.2989C48.9527 31.1607 48.814 31.1607 48.6754 31.0225C48.398 31.0225 47.982 31.0225 47.5659 31.0225C46.5952 31.0225 45.7631 30.8842 44.7923 30.8842C42.8508 30.8842 40.9093 31.0225 39.1065 31.2989C38.8291 31.2989 38.5518 31.4372 38.2744 31.7136C38.1357 31.8519 37.9971 31.9901 37.7197 32.1284C37.8584 31.9901 37.8584 31.8519 37.9971 31.5754C37.8584 31.5754 37.581 31.4372 37.4424 31.4372C36.1942 31.5754 36.1942 31.5754 34.8074 31.7136C33.8367 31.8519 33.0046 31.7136 32.5886 30.8842C30.231 30.746 28.8442 30.746 26.4867 30.4695C26.6254 30.746 26.764 31.0225 27.1801 31.1607C27.7348 31.4372 28.1508 31.7136 28.7056 31.9901C28.8442 32.1284 28.9829 32.1284 29.1216 32.2666C28.4282 32.2666 27.8735 31.9901 27.3188 31.7136C25.932 31.0225 24.8225 30.0548 23.7131 29.0872C23.2971 28.6725 22.7424 28.2578 22.3263 27.9813C21.9103 27.7048 22.3263 27.5666 21.9103 27.5666C21.3556 27.4284 21.0782 27.1519 20.8008 26.7372C20.6622 26.5989 20.5235 26.5989 20.5235 26.4607C20.3848 26.4607 20.3848 26.3225 20.2461 26.1842C20.1074 26.046 19.9688 25.9078 19.6914 25.7695C19.6914 25.7695 19.6914 25.7695 19.8301 25.7695C19.8301 25.7695 19.8301 25.7695 19.9688 25.7695C20.1074 25.7695 20.1074 25.7695 20.1074 25.7695C20.1074 25.7695 20.1074 25.7695 20.2461 25.7695C20.2461 25.7695 20.2461 25.7695 20.3848 25.7695C20.5235 25.7695 20.5235 25.7695 20.5235 25.7695C20.6622 25.9078 20.8008 26.046 20.9395 26.1842C21.0782 26.3225 21.2169 26.4607 21.4942 26.5989C21.6329 26.7372 21.7716 26.8754 21.9103 27.0136C21.9103 27.0136 21.9103 27.0136 22.049 27.0136C22.465 26.7372 21.9103 26.8754 22.3263 27.1519C22.6037 27.4284 22.881 27.5666 23.0197 27.8431C23.4357 28.2578 23.8518 28.5342 24.2678 28.8107C24.8225 29.2254 25.5159 29.2254 26.0707 29.5019C27.3188 29.9166 27.5961 29.7784 28.8442 29.9166C29.1216 29.9166 29.2603 29.9166 29.5376 29.9166C29.815 29.9166 30.0924 29.9166 30.3697 29.9166C31.2018 29.9166 32.1725 29.7784 33.0046 29.6401C33.4207 29.5019 33.5593 29.6401 33.5593 30.0548C33.5593 30.1931 33.5593 30.3313 33.5593 30.3313C33.5593 30.4695 33.5593 30.6078 33.5593 30.6078C34.114 30.746 34.6688 30.746 35.2235 30.6078C36.8876 30.4695 37.165 30.4695 38.6905 30.3313C38.9678 30.3313 39.2452 30.3313 39.5225 30.1931C40.0773 30.0548 40.632 30.0548 41.1867 29.9166C42.5735 29.6401 43.9603 29.6401 45.3471 29.7784C46.7339 29.9166 48.1207 30.0548 49.5074 30.0548C49.5074 30.1931 49.5074 30.3313 49.6461 30.6078C49.6461 30.6078 49.7848 30.746 49.9235 30.746C51.3103 31.1607 52.281 32.1284 53.3905 33.096C54.0839 33.7872 54.6386 34.6166 55.0546 35.3078C55.1933 35.5842 55.332 36.4136 55.4707 36.6901C55.6093 37.3813 54.9159 36.6901 54.9159 36.9666Z" fill="black"/>
<path d="M27.8717 52.3126C28.2878 51.8979 28.7038 51.6214 29.2585 51.2067C29.9519 50.6538 30.6453 50.1008 31.3387 49.5479C31.6161 49.4097 31.7547 49.4097 32.0321 49.6861C32.5868 49.1332 33.0029 48.5802 33.5576 47.8891C33.2802 48.5802 32.5868 49.1332 32.1708 49.8244C32.7255 49.8244 33.0029 49.8244 33.4189 49.4096C33.8349 48.8567 34.251 48.3038 34.9444 48.0273C34.5283 48.5802 34.251 48.9949 33.8349 49.5479C34.1123 49.5479 34.251 49.5479 34.3897 49.5479C36.7472 49.1332 37.8566 48.7185 40.3529 48.3038C40.7689 48.3038 41.0463 48.3038 41.3236 48.5802C41.1849 48.5802 41.0463 48.7185 41.0463 48.7185C40.0755 48.8567 39.1047 48.8567 38.2727 49.1332C36.4698 49.5479 35.9151 49.6861 34.1123 50.1008C33.5576 50.2391 32.8642 50.3773 32.3095 50.5155C31.8934 50.6538 31.6161 50.5155 31.4774 50.1008C31.2 50.2391 31.0613 50.3773 30.9227 50.5155C30.2293 51.2067 29.3972 51.7596 28.7038 52.4508C28.5651 52.5891 28.4264 52.8655 28.2878 53.0038C28.1491 53.142 28.1491 53.2802 28.0104 53.4185C27.4557 53.6949 27.4557 53.9714 27.4557 54.3861C27.317 55.2155 27.1783 55.2155 27.0397 56.0449C27.0397 56.1832 27.0397 56.3214 27.0397 56.3214C27.317 56.5979 27.317 57.0126 27.1783 57.2891C26.7623 58.9479 26.2076 60.7449 25.7915 62.4038C25.5142 63.6479 25.6529 63.7861 25.3755 65.1685C25.2368 65.9979 24.9595 66.8273 24.8208 67.7949C24.6821 68.4861 24.5434 69.1773 24.4047 69.7302C24.4047 70.0067 24.2661 70.1449 24.1274 70.4214C23.5727 70.2832 23.2953 70.5597 23.018 70.8361C22.7406 71.1126 21.7698 71.2508 21.3538 71.3891C20.5217 71.6655 19.551 71.8038 18.7189 71.942C18.3029 72.0802 17.7481 71.942 17.3321 71.5273C17.0547 71.2508 16.5 71.1126 16.084 70.9744C16.084 70.9744 15.9453 70.8361 15.9453 70.6979C15.9453 69.4538 16.7774 68.2096 17.8868 67.6567C18.3029 67.5185 18.7189 67.3802 19.1349 67.1038C19.6897 66.9655 20.1057 66.6891 20.2444 66.1361C20.2444 65.9979 20.383 65.8597 20.5217 65.7214C20.6604 65.8597 20.7991 65.9979 20.7991 66.1361C20.6604 66.5508 20.5217 67.1038 19.967 67.242C19.4123 67.3802 18.9963 67.6567 18.5802 67.7949C17.6095 68.0714 17.0547 68.7626 16.7774 69.592C16.5 70.1449 16.6387 70.4214 17.1934 70.6979C17.3321 70.8361 17.4708 70.8361 17.6095 70.8361C17.7481 70.8361 17.7481 70.8361 17.8868 70.8361C18.1642 70.1449 18.3029 69.1773 19.1349 68.7626C19.1349 68.9008 19.2736 69.0391 19.2736 69.1773C18.7189 69.592 18.8576 70.4214 18.3029 70.8361C18.7189 71.2508 19.2736 71.1126 19.6897 70.9744C19.8283 70.8361 19.967 70.5597 19.967 70.2832C20.1057 70.0067 20.1057 69.592 20.5217 69.4538C20.9378 69.8685 20.383 70.1449 20.5217 70.4214C21.4925 70.5596 23.018 70.1449 23.434 69.1773C23.1566 69.1773 23.018 69.3155 22.7406 69.3155C22.7406 69.1773 22.7406 69.1773 22.8793 69.1773C23.434 68.9008 23.5727 68.3479 23.9887 67.9332C23.9887 67.7949 23.9887 67.6567 23.9887 67.5185C23.434 67.6567 23.2953 68.2097 22.6019 68.2097C22.8793 67.7949 23.1566 67.6567 23.5727 67.5185C23.9887 67.3802 24.2661 67.1038 24.2661 66.6891C24.5434 65.4449 24.6821 64.2008 25.0981 62.9567C25.6529 60.6067 25.9302 59.5008 26.4849 57.2891C26.4849 57.0126 26.6236 56.7361 26.3463 56.5979C26.2076 56.4596 26.3463 56.3214 26.3463 56.1832C26.4849 55.2155 26.7623 54.9391 26.901 53.9714C26.901 53.6949 26.901 54.6626 27.0397 54.5244C27.5944 52.8655 28.0104 50.1008 28.5651 48.3038C28.8425 47.6126 28.9812 46.7832 29.1198 46.092C29.1198 45.8155 29.2585 45.6773 29.6746 45.5391C29.8132 45.8155 29.6746 46.092 29.6746 46.2302C29.2585 47.7508 28.7038 49.2714 28.2878 50.792C28.1491 51.0685 28.1491 51.3449 28.0104 51.7596C27.733 52.3126 27.8717 52.3126 27.8717 52.3126Z" fill="black"/>
<path d="M9.8438 32.1293C10.1212 31.991 10.2598 31.8528 10.5372 31.8528C10.6759 31.7146 10.8146 31.5763 11.2306 31.7146C10.6759 31.991 10.2598 32.2675 9.8438 32.544C9.8438 33.0969 9.70512 33.5116 9.70512 33.9263V34.0646C10.1212 34.6175 9.8438 35.3087 9.70512 35.8616C9.70512 36.4146 9.56644 37.1057 9.42776 37.7969C9.42776 37.6587 9.28908 37.5205 9.28908 37.3822C9.28908 36.8293 9.28908 36.4146 9.28908 35.8616C9.28908 35.5852 9.42776 35.3087 9.15041 35.0322C9.01173 34.894 9.15041 34.7557 9.15041 34.4793C9.42776 32.8205 9.42776 31.1616 9.15041 29.5028C9.15041 29.2263 9.01173 28.9499 8.87305 28.8116C8.87305 28.6734 9.01173 28.6734 9.01173 28.5352C9.15041 28.5352 9.28908 28.5352 9.28908 28.6734C9.42776 28.8116 9.42776 28.9499 9.42776 29.0881C9.56644 29.9175 9.70512 30.7469 9.70512 31.5763C9.70512 31.5763 9.70512 31.8528 9.8438 32.1293Z" fill="black"/>
<path d="M30.7852 39.3179C30.3692 38.4885 29.9531 37.5208 29.9531 36.6914C30.9239 37.3826 30.5078 38.3502 30.7852 39.3179Z" fill="black"/>
<path d="M37.1641 33.5134C37.3027 32.8222 38.1348 31.9928 39.1056 31.5781C38.5509 32.1311 37.8575 32.8222 37.1641 33.5134Z" fill="black"/>
<path d="M20.6621 55.7669C20.9395 55.2139 21.4942 55.7669 22.1876 55.4904C22.0489 55.6287 21.9102 54.7992 21.7715 54.9375C21.6329 55.0757 21.3555 55.2139 21.2168 55.3522C21.0781 55.4904 20.9395 55.6287 20.6621 55.7669C20.8008 55.7669 20.6621 55.7669 20.6621 55.7669Z" fill="black"/>
<path d="M22.8809 55.3555C22.3262 55.7702 21.7715 56.1849 21.2168 56.5996C21.4942 55.9084 22.1876 55.6319 22.8809 55.3555Z" fill="black"/>
<path d="M46.0391 52.7276C46.1777 52.1747 46.5938 51.76 47.4259 51.207C46.8711 51.76 46.4551 52.1747 46.0391 52.7276Z" fill="black"/>
<path d="M47.0099 64.1992C46.4551 64.4757 45.9004 64.7522 45.3457 64.8904C45.6231 64.3375 46.3165 64.1992 47.0099 64.1992Z" fill="black"/>
<path d="M37.5802 31.9922C37.1641 32.6834 36.6094 32.9598 36.1934 33.2363C36.6094 32.6834 37.0254 32.2687 37.5802 31.9922Z" fill="black"/>
<path d="M21.3555 55.077C21.9102 54.5241 22.0489 54.3858 22.8809 54.1094C22.1875 54.5241 21.7715 54.9388 21.3555 55.077Z" fill="black"/>
<path d="M7.76372 51.207C7.48636 51.4835 7.209 51.76 6.93164 52.0364C6.93164 51.4835 7.34768 51.3453 7.76372 51.207Z" fill="black"/>
<path d="M12.0626 55.3555C11.9239 55.7702 11.5078 56.1849 11.0918 56.4614C11.3692 55.9084 11.5078 55.7702 12.0626 55.3555Z" fill="black"/>
<path d="M7.48633 52.5896C7.48633 52.1749 7.90237 51.8984 8.3184 51.8984C7.90237 52.0367 7.76369 52.3131 7.48633 52.5896Z" fill="black"/>
<path d="M6.6543 37.385C6.93166 37.2467 7.20901 36.9703 7.48637 36.832C7.48637 36.832 7.48637 36.9703 7.62505 36.9703C7.34769 37.2467 7.07033 37.385 6.79298 37.6614C6.79298 37.5232 6.79298 37.385 6.6543 37.385Z" fill="black"/>
<path d="M9.84379 62.8185C9.56644 63.095 9.28908 63.3715 9.01172 63.6479C9.01172 63.095 9.42776 62.9568 9.84379 62.8185C9.70511 62.6803 9.84379 62.6803 9.84379 62.8185Z" fill="black"/>
<path d="M10.6758 32.6836C10.3985 32.8218 10.1211 32.9601 9.98242 33.0983C10.1211 32.6836 10.1211 32.6836 10.6758 32.6836Z" fill="black"/>
<path d="M40.7696 53.0039C40.6309 53.1421 40.3535 53.2804 40.0762 53.4186C40.3535 53.1421 40.3535 53.1421 40.7696 53.0039Z" fill="black"/>
<path d="M25.5157 39.457C24.6837 40.1482 23.9903 40.7011 23.1582 41.3923C23.2969 40.8394 24.129 40.01 25.5157 39.457Z" fill="black"/>
<path d="M24.8223 40.8398C24.545 41.2545 24.2676 41.531 23.9902 41.9457C23.9902 41.3928 24.2676 41.1163 24.8223 40.8398Z" fill="black"/>
<path d="M24.129 39.1836C23.8516 39.5983 23.2969 40.013 22.7422 40.4277C23.0195 40.013 23.4356 39.5983 24.129 39.1836Z" fill="black"/>
<path d="M24.1289 39.3201C24.4063 39.0436 24.5449 38.9054 24.8223 38.6289C24.6836 38.9054 24.4063 39.1818 24.1289 39.3201Z" fill="black"/>
<path d="M18.4415 34.3446C17.7481 33.6534 17.0547 32.9622 16.3613 32.1328C16.916 32.271 17.7481 33.1005 18.4415 34.3446Z" fill="black"/>
<path d="M16.9161 33.9308C16.5 33.6543 16.084 33.3778 15.668 33.2396C16.2227 33.1013 16.6387 33.2396 16.9161 33.9308Z" fill="black"/>
<path d="M18.5802 33.0996C18.0254 32.8231 17.7481 32.4084 17.1934 31.8555C17.7481 31.9937 18.1641 32.5466 18.5802 33.0996Z" fill="black"/>
<path d="M18.5801 33.0977C18.8574 33.3741 18.9961 33.5124 19.2735 33.7888C18.8574 33.6506 18.7188 33.3741 18.5801 33.0977Z" fill="black"/>
<path d="M48.8126 36.9696C48.1192 36.2784 47.4258 35.5872 46.7324 34.7578C47.2871 35.0343 48.1192 35.8637 48.8126 36.9696Z" fill="black"/>
<path d="M47.2872 36.5558C46.8711 36.2793 46.4551 36.0028 46.0391 35.8646C46.5938 35.7263 47.0098 35.8646 47.2872 36.5558Z" fill="black"/>
<path d="M48.9512 35.7246C48.3965 35.4481 48.1192 35.0334 47.5645 34.4805C48.1192 34.6187 48.6739 35.1716 48.9512 35.7246Z" fill="black"/>
<path d="M48.9512 35.7227C49.2285 35.9991 49.3672 36.1374 49.6446 36.4138C49.3672 36.2756 49.0899 35.9991 48.9512 35.7227Z" fill="black"/>
<path d="M38.5508 44.71C38.8281 43.7424 38.9668 42.7747 39.2442 41.9453C39.5215 42.4983 39.2442 43.6041 38.5508 44.71Z" fill="black"/>
<path d="M38.1348 43.3277C38.1348 42.913 38.1348 42.4983 38.1348 41.9453C38.4121 42.36 38.5508 42.7747 38.1348 43.3277Z" fill="black"/>
<path d="M39.7988 44.1588C39.7988 43.6059 39.9375 43.0529 40.0762 42.5C40.2149 42.9147 40.0762 43.6059 39.7988 44.1588Z" fill="black"/>
<path d="M39.7981 44.1562C39.7981 44.4327 39.6595 44.7092 39.6595 45.1239C39.5208 44.7092 39.5208 44.4327 39.7981 44.1562Z" fill="black"/>
<path d="M12.3399 45.1226C11.9239 44.1549 11.5078 43.3255 11.0918 42.4961C11.5078 42.7726 12.0626 43.7402 12.3399 45.1226Z" fill="black"/>
<path d="M11.0918 44.1567C10.8145 43.8802 10.5371 43.4655 10.1211 43.0508C10.6758 43.189 10.9532 43.4655 11.0918 44.1567Z" fill="black"/>
<path d="M12.8946 43.88C12.4785 43.4653 12.3399 42.9123 11.9238 42.3594C12.4785 42.6358 12.7559 43.327 12.8946 43.88Z" fill="black"/>
<path d="M12.8945 43.8789C13.0332 44.1554 13.1719 44.4318 13.4492 44.7083C13.0332 44.4318 12.8945 44.1554 12.8945 43.8789Z" fill="black"/>
<path d="M47.5645 52.5881C47.4258 52.7263 47.1485 52.8645 47.0098 53.141C47.0098 53.141 47.0098 53.0028 46.8711 53.0028C47.0098 52.7263 47.1485 52.5881 47.5645 52.5881C47.4258 52.4498 47.4258 52.4498 47.5645 52.5881Z" fill="black"/>
<path d="M7.48636 36C7.34769 36.1382 7.20901 36.2765 6.93165 36.4147C6.93165 36.4147 6.93165 36.2765 6.79297 36.2765C7.07033 36.1382 7.34769 36 7.48636 36Z" fill="black"/>
<path d="M48.1192 52.1757C48.2578 52.0375 48.3965 52.0375 48.5352 52.0375C48.5352 52.0375 48.5352 52.0375 48.5352 52.1757C48.3965 52.3139 48.1191 50.9316 47.9805 50.9316C47.9805 50.7934 48.1192 52.1757 48.1192 52.1757Z" fill="black"/>
<path d="M47.8418 52.0367C47.9805 52.0367 47.9805 51.8984 48.1192 51.8984C48.1192 51.8984 48.1192 51.8984 48.1192 52.0367C48.1192 52.0367 47.9805 52.0367 47.8418 52.0367C47.8418 52.1749 47.8418 52.0367 47.8418 52.0367Z" fill="black"/>
<path d="M10.8146 29.2291C11.2307 29.0909 11.508 28.8144 11.924 28.6762C11.924 28.538 11.924 28.3997 11.924 28.2615C11.924 27.985 11.7854 27.5703 11.508 27.5703C11.3693 27.5703 11.2307 27.5703 11.2307 27.7085C10.3986 28.1233 8.59575 28.3997 8.04103 29.2291C7.90235 29.3674 7.90235 29.6438 7.76367 29.9203C8.59575 29.7821 9.70518 29.5056 10.8146 29.2291Z" fill="#BCBCBB"/>
<path d="M20.7991 24.8047C19.6897 24.9429 18.3029 25.0812 17.1935 25.0812C17.0548 25.0812 16.9161 25.2194 16.6388 25.2194C16.084 25.7723 15.5293 26.187 14.9746 26.6017C14.9746 26.6017 14.9746 26.74 15.1133 26.74C15.8067 27.8459 16.7774 28.8135 18.0256 29.3665C19.2737 29.9194 20.7991 29.9194 21.9086 29.09C22.0473 28.9517 22.1859 28.9517 22.1859 28.8135C22.3246 28.537 22.1859 28.2606 22.0473 27.9841C21.7699 26.8782 21.4925 25.7723 20.7991 24.8047Z" fill="#BCBCBB"/>
<path d="M18.7207 27.0145C19.1367 26.7381 19.5528 26.3233 19.9688 26.0469C19.9688 26.0469 19.9688 26.1851 20.1075 26.1851C19.6915 26.5998 19.2754 26.8763 18.8594 27.291C18.8594 27.1528 18.7207 27.1528 18.7207 27.0145Z" fill="black"/>
<path d="M18.8575 25.7695C18.7188 26.046 18.4414 26.1842 18.1641 26.3225C18.3027 26.046 18.5801 25.7695 18.8575 25.7695Z" fill="black"/>
<path d="M22.7422 18.7199C22.7422 19.5493 22.4649 20.2405 22.0488 20.9317C21.4941 21.7611 20.9394 22.5905 20.9394 23.4199C20.9394 23.8346 20.9394 24.2493 21.0781 24.5258C21.0781 24.5258 21.0781 24.664 21.2168 24.664C21.2168 24.664 21.2168 24.8023 21.3554 24.8023C21.4941 24.9405 21.6328 25.0787 21.6328 25.217C21.6328 25.217 21.4941 25.217 21.4941 25.3552C21.4941 25.3552 21.3554 25.3552 21.3554 25.4934C21.3554 25.4934 21.2168 25.4934 21.2168 25.6317C21.0781 25.7699 20.9394 25.9081 20.8007 26.0464C20.5234 26.3228 20.246 26.4611 19.9686 26.7375C19.83 26.8758 19.6913 26.8758 19.5526 27.014C19.4139 27.014 19.4139 27.1523 19.4139 27.1523C19.2752 27.1523 19.2752 27.2905 19.2752 27.2905C19.1366 27.4287 18.9979 27.567 18.8592 27.7052C18.4432 28.1199 18.1658 28.5346 17.8885 28.9493C17.7498 28.9493 17.6111 28.9493 17.4724 28.8111C17.3337 28.8111 17.0564 28.8111 16.9177 28.8111C15.9469 28.8111 14.9762 28.3964 14.0054 28.2581C13.8668 28.2581 13.8668 28.2581 13.7281 28.2581C13.5894 28.2581 13.4507 28.3964 13.312 28.3964C12.896 28.6728 12.6186 28.8111 12.2026 29.0875C11.6479 29.2258 11.3705 29.364 11.0932 29.5023C10.9545 29.5023 10.8158 29.5023 10.5385 29.6405C10.2611 29.6405 9.98374 29.7787 9.84506 29.917C9.5677 30.0552 9.15166 30.0552 8.87431 30.0552C8.45827 30.0552 8.04223 30.0552 7.62619 30.1934C7.21015 30.1934 6.9328 30.3317 6.51676 30.1934C6.37808 30.1934 6.2394 30.1934 6.2394 30.1934C6.10072 30.1934 5.96204 30.1934 5.82336 30.0552C5.546 30.0552 4.15921 29.5023 3.88185 29.364C3.74317 29.5023 3.74317 29.5023 3.60449 29.5023C2.9111 29.917 2.2177 29.7787 1.66299 29.2258C1.66299 28.5346 1.80166 27.8434 1.80166 27.2905H1.66299C1.80166 26.7375 2.07902 26.1846 2.07902 25.6317C1.66299 25.6317 1.10827 25.4934 0.692231 25.217C0.553551 25.0787 0.414872 24.9405 0.414872 24.8023C0.276193 24.664 0.276193 24.664 0.276193 24.5258C0.137514 23.1434 0.276193 21.7611 0.414872 20.3787C0.553551 19.6875 0.969589 19.964 1.10827 19.2728V19.1346C1.10827 18.9964 1.10827 18.8581 1.10827 18.7199C1.38563 17.8905 1.10827 16.6464 1.38563 15.817L1.24695 15.5405L1.38563 15.264C1.52431 14.8493 1.38563 14.9875 1.52431 14.7111C1.66299 14.5728 1.66299 14.4346 1.66299 14.2964C2.77242 13.6052 3.74317 13.0523 4.85261 12.6375C4.99129 12.4993 5.12997 12.4993 5.26865 12.3611C6.37808 11.6699 7.62619 11.117 8.73563 10.4258C8.87431 10.4258 8.87431 10.4258 9.01299 10.4258C9.29034 10.7023 9.5677 10.7023 9.98374 10.7023C10.6771 10.7023 11.3705 10.7023 12.0639 10.7023C13.1734 10.9787 14.2828 11.3934 15.2536 11.8081C16.0856 12.0846 16.9177 12.4993 17.7498 12.914C17.8885 12.914 18.0271 13.0523 18.0271 13.0523C18.1658 13.0523 18.1658 13.1905 18.3045 13.1905C19.1366 13.6052 19.9686 14.0199 20.8007 14.4346C21.2168 14.7111 21.7715 14.9875 22.1875 15.264C22.3262 15.4023 22.4649 15.5405 22.4649 15.5405C22.8809 15.9552 23.0196 16.5081 23.0196 17.0611V17.1993C23.0196 17.7523 22.8809 18.167 22.7422 18.7199Z" fill="white"/>
<path d="M16.3631 27.7056C16.6405 28.1203 16.9179 28.535 17.3339 28.9497C17.4726 28.9497 17.4726 28.9497 17.6113 28.9497C18.7207 27.4291 19.9688 27.2909 21.4943 26.185C21.3556 26.0468 21.3556 24.8027 21.0782 24.8027C20.8009 24.6644 20.5235 24.8027 20.2462 24.9409C19.1367 25.3556 17.7499 24.9409 16.9179 24.1115C15.9471 23.2821 15.9471 22.1762 15.5311 21.0703C14.9764 21.7615 15.2537 23.5585 15.3924 24.5262C15.2537 25.6321 15.8084 26.738 16.3631 27.7056Z" fill="#BCBCBB"/>
<path d="M2.91016 18.167C3.04884 18.167 3.04884 18.167 2.91016 18.167C3.04884 18.167 3.04884 18.167 2.91016 18.167C3.04884 18.0288 3.04884 18.0288 3.04884 17.8906C3.04884 17.7523 3.04884 17.4759 3.04884 17.3376C3.04884 17.0612 3.04884 16.6465 3.18751 16.37C3.18751 16.37 3.18751 16.37 3.18751 16.2318C3.18751 16.0935 3.18752 15.9553 3.32619 15.9553V15.817C3.32619 15.817 3.32619 15.817 3.32619 15.6788V15.5406V15.4023C3.18752 15.4023 2.91016 15.5406 2.91016 15.817C2.91016 16.5082 2.91016 17.1994 2.91016 17.8906C2.91016 18.0288 2.91016 18.167 2.91016 18.167Z" fill="black"/>
<path d="M14.9747 21.3479C15.1134 22.0391 15.3907 22.4538 15.9454 22.8685C16.2228 23.145 16.6388 23.4215 16.6388 23.8362C16.6388 23.9744 16.7775 24.2509 16.9162 24.2509C17.6096 24.6656 18.303 25.0803 19.2737 24.8038C19.8284 24.6656 20.2445 24.5273 20.7992 24.5273C20.9379 24.6656 21.77 27.1538 22.0473 27.4303C22.186 27.2921 22.0473 27.2921 22.186 27.1538C21.9086 26.8773 21.3539 24.1126 21.2152 23.8362C21.77 22.7303 22.3247 21.4862 22.7407 20.3803C23.0181 19.8273 23.2954 19.2744 23.2954 18.7215C23.2954 18.445 23.4341 18.3068 23.4341 18.0303C23.4341 17.892 23.5728 17.6156 23.4341 17.4773C23.2954 17.8921 23.2954 18.1685 23.1568 18.5832C23.0181 18.8597 23.0181 18.9979 22.8794 19.2744C22.7407 19.8273 22.602 20.5185 22.4634 21.0715C22.4634 21.2097 22.3247 21.3479 22.186 21.4862C22.0473 21.7626 21.9086 22.0391 21.77 22.3156C21.6313 22.5921 21.3539 23.0068 21.3539 23.4215C21.3539 23.5597 21.3539 23.5597 21.3539 23.6979C21.3539 23.8362 21.4926 23.9744 21.4926 24.1126C21.6313 23.8362 21.6313 23.5597 21.77 23.2832V23.4215C21.9086 23.145 22.0473 22.8685 22.186 22.5921C22.186 22.7303 22.186 22.8685 22.186 23.0068C22.186 22.5921 22.3247 22.1773 22.4634 21.6244V21.7626C22.602 21.3479 22.8794 20.9332 23.0181 20.5185C23.0181 20.6568 23.0181 20.6568 23.0181 20.795C23.0181 20.3803 23.1568 20.1038 23.1568 19.6891C23.1568 19.8273 23.1568 19.8273 23.2954 19.9656C23.2954 19.6891 23.2954 19.4126 23.4341 19.1362C23.4341 19.2744 23.4341 19.4126 23.5728 19.4126C23.5728 18.3068 23.7115 17.0626 23.0181 16.095C22.8794 15.9568 22.8794 15.6803 22.7407 15.542C22.3247 14.7126 21.77 14.1597 20.9379 13.745C20.1058 13.3303 19.1351 13.0538 18.1643 12.7773C18.0256 12.7773 17.8869 12.7773 17.7483 12.9156C17.8869 12.9156 18.0256 13.0538 18.1643 13.0538C18.4417 13.192 18.719 13.192 18.9964 13.192C20.6605 13.6068 22.0473 14.4362 22.602 16.095C22.602 16.2332 22.7407 16.2332 22.7407 16.3715C23.1568 17.0626 23.1568 17.7538 23.0181 18.445C22.8794 18.9979 22.7407 19.6891 22.4634 20.2421C22.0473 21.3479 21.3539 22.3156 20.9379 23.4215C20.6605 24.1126 20.2445 24.3891 19.5511 24.5273C18.8577 24.6656 18.1643 24.5273 17.4709 24.2509C17.6096 23.6979 17.1935 23.4215 16.7775 23.145C16.3615 22.8685 15.9454 22.4538 15.8068 21.9009C16.0841 21.6244 16.5001 21.3479 16.7775 21.2097C17.0549 20.9332 17.3322 20.795 17.6096 20.5185C16.7775 20.6568 16.3615 21.3479 15.6681 21.6244C15.3907 19.9656 15.5294 18.445 16.3615 17.0626C16.5001 16.7862 16.5001 16.5097 16.3615 16.2332C16.2228 16.2332 16.0841 16.2332 16.0841 16.3715C15.5294 17.3391 14.9747 18.3068 14.836 19.4126C14.836 19.6891 14.6973 19.8273 14.5586 20.1038C14.6973 20.1038 14.6973 20.1038 14.6973 20.2421C14.836 20.5185 14.6973 20.6568 14.42 20.795C14.1426 20.9332 13.7266 20.9332 13.7266 21.3479C14.1426 21.2097 14.42 20.9332 14.836 20.795C14.836 21.0715 14.9747 21.2097 14.9747 21.3479Z" fill="black"/>
<path d="M17.61 12.7773C16.9166 12.6391 16.6393 12.5008 16.2233 12.3626C15.8072 12.2244 15.2525 11.9479 14.8365 11.6714C13.8657 11.2567 12.7563 11.1185 11.7855 11.1185C10.9534 11.1185 10.1214 10.9802 9.28929 11.2567H9.15061C8.31853 10.9802 7.9025 11.3949 7.34778 11.6714C6.65438 11.9479 5.96099 12.5008 5.40627 12.7773C4.99023 13.0538 4.43552 13.192 4.01948 13.4685C3.32608 13.8832 2.63268 14.2979 1.93929 14.7126C1.93929 14.8508 1.80061 14.9891 1.66193 14.9891C1.66193 15.6802 1.52325 16.3714 1.52325 17.2008C1.93929 17.0626 2.07797 16.9244 2.49401 16.7861C2.21665 17.0626 1.93929 17.2008 1.80061 17.3391C1.38457 17.6155 1.24589 17.892 1.52325 18.3067C1.52325 18.5832 1.52325 18.7214 1.38457 18.9979C0.829855 18.5832 0.968534 18.0302 0.968534 17.6155C0.968534 17.0626 1.10721 16.6479 1.10721 16.0949C1.10721 15.9567 1.10721 15.8185 1.10721 15.6802C0.829855 14.9891 1.24589 14.7126 1.66193 14.2979C2.77136 13.6067 3.74212 13.0538 4.85155 12.6391C4.99023 12.5008 5.12891 12.5008 5.26759 12.3626C6.37702 11.6714 7.62514 11.1185 8.73457 10.4273L8.87325 10.2891C8.87325 10.2891 8.87325 10.2891 9.01193 10.4273C9.28929 10.7038 9.56665 10.7038 9.98268 10.7038C10.6761 10.7038 11.3695 10.7038 11.9242 10.7038C12.4789 10.7038 13.1723 10.842 13.727 10.9802C14.4204 11.1185 15.1138 11.5332 15.8072 11.8097C16.2233 11.9479 16.6393 12.2244 17.0553 12.5008C17.3327 12.5008 17.4714 12.6391 17.61 12.7773Z" fill="black"/>
<path d="M10.3992 16.5078C10.8152 16.646 11.0926 16.646 11.5086 16.646C11.786 16.7843 11.9246 16.9225 11.9246 17.3372C11.9246 17.7519 11.6473 17.7519 11.5086 17.8902C10.9539 18.0284 10.3992 18.1666 9.84446 17.8902C9.70578 17.7519 9.42842 17.6137 9.42842 17.3372C9.28974 17.0608 9.5671 16.9225 9.70578 16.7843C9.98314 16.646 10.2605 16.5078 10.3992 16.5078Z" fill="black"/>
<path d="M12.4787 16.095C11.3692 15.8186 10.6758 15.6803 9.70508 15.5421C9.98244 15.4039 10.2598 15.2656 10.3985 15.2656C11.2305 15.4039 12.0626 15.2656 12.4787 16.095Z" fill="black"/>
<path d="M18.0255 21.625C17.4708 21.9015 17.0547 22.3162 16.5 22.5926C16.7774 21.9015 16.916 21.7632 18.0255 21.625Z" fill="black"/>
<path d="M4.1582 14.5755C4.8516 14.299 5.26764 14.5755 5.96103 14.8519C5.40632 15.1284 4.8516 14.9902 4.1582 14.5755Z" fill="black"/>
<path d="M14.5587 20.1055C14.1426 20.3819 13.8653 20.5202 13.3105 20.9349C13.5879 20.2437 13.8653 20.1055 14.5587 20.1055Z" fill="black"/>
<path d="M1.52344 18.3053C1.52344 17.8906 1.93948 17.8906 2.35551 17.8906C2.07815 18.0289 1.8008 18.1671 1.52344 18.3053Z" fill="black"/>
<path d="M4.29689 16.232C4.29689 16.3702 4.29689 16.3702 4.15821 16.3702C4.01953 16.3702 4.01953 16.3702 4.01953 16.232C4.01953 16.0937 4.01953 16.0938 4.15821 16.0938C4.29689 16.0938 4.29689 16.0937 4.29689 16.232Z" fill="white"/>
<path d="M10.2598 17.064C10.2598 17.2023 10.1211 17.2023 10.1211 17.2023C9.98242 17.2023 9.98242 17.2023 9.98242 17.064C9.98242 16.9258 10.1211 16.9258 10.1211 16.9258L10.2598 17.064Z" fill="white"/>
<path d="M4.4356 15.8203C4.71296 15.9585 4.99032 15.9585 5.26767 16.0968C5.40635 16.0968 5.54503 16.3733 5.54503 16.6497C5.54503 16.9262 5.26767 16.9262 5.12899 17.0644C4.57428 17.0644 4.15824 17.2027 3.7422 16.788C3.7422 16.788 3.60352 16.6497 3.46484 16.3733C3.46484 16.0968 3.60352 15.9585 3.88088 15.9585C4.01956 15.8203 4.29692 15.8203 4.4356 15.8203Z" fill="black"/>
<path d="M4.15822 16.232C4.15822 16.3702 4.15822 16.3702 4.01954 16.3702C3.88086 16.3702 3.88086 16.232 3.88086 16.232C3.88086 16.232 4.01954 16.0938 4.15822 16.0938V16.232Z" fill="white"/>
<path d="M3.88171 25.217C3.46568 25.4935 3.04964 25.6317 2.77228 26.0464C2.77228 26.1847 2.6336 26.1847 2.6336 26.3229C2.6336 26.4611 1.94021 27.567 2.07888 27.567H2.21756C2.6336 27.7052 3.04964 27.567 3.46568 27.567C3.74304 27.567 4.71379 26.4611 4.99115 26.3229C5.40719 26.1847 5.82322 25.9082 6.10058 25.4935L6.23926 25.3552C6.23926 25.217 6.10058 25.217 5.9619 25.0788C5.26851 24.8023 4.57511 24.8023 3.88171 24.6641V25.217Z" fill="#BCBCBB"/>
<path d="M12.7565 28.3976C11.9245 28.8123 11.2311 29.227 10.399 29.6417C10.2603 29.6417 10.2603 29.7799 10.1216 29.7799C9.70559 29.9182 8.18011 29.7799 8.04144 29.7799C8.04144 29.7799 6.79332 29.6417 6.51596 29.7799V29.3652C6.51596 29.227 6.51596 27.9829 6.51596 27.8446C6.65464 27.8446 6.65464 27.8446 6.65464 27.7064C6.79332 27.7064 6.932 27.7064 6.932 27.7064C9.01219 27.4299 10.2603 27.2917 11.7858 26.0476C12.0631 25.9093 12.6178 25.2182 12.7565 24.9417C13.0339 24.527 12.4792 24.6652 11.9245 24.6652C11.6471 24.6652 11.3697 24.6652 10.9537 24.8034C9.15087 25.3564 8.04144 25.0799 6.09993 24.9417C5.26785 24.9417 4.57445 24.6652 3.88106 24.3887C3.6037 24.2505 3.32634 24.1123 3.04898 23.974C2.77162 22.8682 2.77162 22.8682 2.49427 22.7299C2.49427 23.1446 2.49427 23.6976 2.21691 24.1123C2.07823 24.527 1.66219 24.9417 1.38483 25.3564C0.968794 25.2182 0.691436 25.0799 0.691436 24.6652C0.691436 24.2505 0.691436 23.8358 0.830115 23.4211C0.968794 23.0064 1.24615 22.4534 1.80087 22.177C2.07823 22.3152 2.35559 22.3152 2.63295 22.4534C3.6037 22.0387 4.2971 21.3476 4.43578 20.3799C4.57445 19.5505 4.2971 19.274 3.32634 19.274H2.21691C4.15842 18.1682 4.99049 18.1682 5.82257 16.3711C5.68389 16.5093 5.54521 16.5093 5.54521 16.6476C5.40653 16.6476 5.40653 16.7858 5.26785 16.924L5.12917 17.0623C4.99049 17.0623 4.99049 17.2005 4.99049 17.2005L4.85181 17.3387C4.2971 17.7534 3.88106 18.0299 3.46502 18.1682C2.9103 18.4446 2.9103 18.4446 2.9103 18.4446C2.9103 18.4446 2.77162 18.4446 2.63295 18.5829C2.35559 18.7211 1.93955 18.8593 1.66219 19.1358C1.52351 19.1358 1.38483 19.274 1.24615 19.274C1.10747 19.274 1.10747 19.4123 0.968794 19.4123C0.968794 19.4123 0.830115 19.4123 0.830115 19.5505C0.414077 19.827 0.136719 20.2417 0.275398 20.7946C0.414077 21.0711 0.275398 21.3476 0.275398 21.624C0.275398 21.9005 0.136719 22.3152 0.136719 22.5917C0.136719 23.2829 0.275398 23.974 0.275398 24.527V24.6652C0.275398 24.8034 0.414077 24.9417 0.414077 24.9417C0.552757 25.0799 0.552756 25.2182 0.691436 25.3564C1.10747 25.6329 1.52351 25.7711 2.07823 25.7711C1.93955 26.324 1.80087 26.877 1.66219 27.4299C1.52351 28.1211 1.38483 28.674 1.38483 28.9505C1.38483 28.9505 1.38483 28.9505 1.38483 29.0887C1.38483 29.227 1.52351 29.3652 1.66219 29.5034C2.07823 30.0564 2.77162 30.0564 3.6037 29.7799C3.74238 29.7799 3.74238 29.6417 3.88106 29.5034C4.15842 29.5034 5.54521 30.0564 5.68389 30.0564C5.82257 30.0564 5.96125 30.0564 6.09993 30.1946C6.37729 30.3329 6.65464 30.3329 7.07068 30.3329C7.20936 30.3329 7.34804 30.3329 7.48672 30.3329H7.90276C8.04144 30.3329 8.31879 30.3329 8.45747 30.3329C8.73483 30.3329 8.87351 30.1946 9.15087 30.1946C9.01219 30.3329 8.45747 30.6093 8.31879 30.6093C8.59615 30.6093 8.73483 30.4711 9.01219 30.4711C9.28955 30.4711 9.70559 30.3329 9.98294 30.1946C10.2603 30.1946 10.5377 30.0564 10.815 29.9181C11.7858 29.5034 12.6178 28.9505 13.4499 28.3976C13.4499 28.3976 13.4499 28.2593 13.4499 28.1211C13.1726 28.1211 12.8952 28.2593 12.7565 28.3976ZM9.84427 26.324C9.84427 26.324 9.98295 26.324 10.1216 26.1858C10.6763 25.9093 11.2311 25.4946 11.7858 25.2182C11.7858 25.6329 11.5084 25.7711 11.3697 25.9093C10.2603 26.6005 10.399 26.6005 9.70559 26.6005C9.70559 26.324 9.84427 26.324 9.84427 26.324ZM6.09993 29.6417C5.82257 29.6417 4.43578 29.3652 4.01974 29.227L4.15842 29.0887C4.71313 28.674 5.40653 27.8446 5.68389 27.7064C5.96125 27.5682 6.09993 27.5682 6.23861 27.7064C6.09993 28.1211 6.09993 29.3652 6.09993 29.6417ZM4.57445 28.2593C4.15842 28.5358 3.74238 28.8123 3.32634 29.0887C2.63295 29.3652 2.07823 29.227 1.93955 28.5358C1.80087 28.2593 1.93955 27.8446 2.07823 27.5682C2.35559 26.877 2.9103 26.0476 3.46502 25.7711C3.74238 25.6329 4.01974 25.4946 4.43578 25.3564C4.15842 25.3564 4.15842 25.2182 4.01974 25.2182C4.01974 25.2182 3.88106 25.0799 3.88106 24.9417C4.43578 24.9417 4.85181 25.2182 5.26785 25.2182C5.54521 25.2182 5.82257 25.2182 6.09993 25.3564C6.37729 25.3564 6.51596 25.3564 6.79332 25.4946C6.65464 25.6329 6.65464 25.7711 6.51596 25.9093C6.23861 26.324 5.12917 27.8446 4.57445 28.2593Z" fill="black"/>
<path d="M5.40629 22.7311C5.26761 22.7311 4.99025 22.7311 4.85157 22.7311C4.85157 22.7311 4.71289 22.5929 4.71289 22.4546C4.71289 22.4546 4.85157 22.3164 4.99025 22.3164C5.12893 22.3164 5.26761 22.4546 5.40629 22.4546C5.40629 22.5929 5.40629 22.5929 5.40629 22.7311Z" fill="black"/>
<path d="M6.65539 22.3164C6.79406 22.3164 6.93274 22.4546 6.93274 22.4546C6.93274 22.5929 6.79406 22.5929 6.79406 22.5929C6.65539 22.5929 6.65539 22.4546 6.65539 22.4546C6.51671 22.4546 6.65539 22.3164 6.65539 22.3164Z" fill="black"/>
<path d="M5.40625 23.5601C5.54493 23.5601 5.68361 23.4219 5.68361 23.4219L5.82229 23.5601C5.82229 23.6983 5.68361 23.6983 5.68361 23.6983C5.54493 23.8366 5.54493 23.6983 5.40625 23.5601Z" fill="black"/>
<path d="M2.07812 28.1202C2.35548 27.8437 2.77152 27.8438 3.18756 27.8438C2.77152 28.1202 2.49416 28.1202 2.07812 28.1202Z" fill="black"/>
<path d="M1.52258 20.1046C1.66126 20.1046 1.79994 19.9664 1.79994 19.9664C1.93862 19.9664 2.0773 19.9664 2.21598 19.9664C2.21598 19.9664 2.21598 19.9664 2.35466 19.9664C2.63201 19.9664 2.90937 19.9664 3.04805 20.1046H3.18673V19.9664C3.04805 19.9664 2.77069 19.8281 2.49333 19.8281C2.49333 19.8281 2.49333 19.8281 2.35466 19.8281C2.21598 19.8281 2.0773 19.8281 1.93862 19.8281C1.79994 19.8281 1.52258 19.8281 1.3839 19.9664C1.3839 19.9664 1.24522 20.1046 1.3839 20.1046H1.52258Z" fill="white"/>
<path d="M19.5509 16.786C18.8575 16.0948 18.1641 15.2654 17.4707 14.5742C18.0254 14.7125 18.8575 15.5419 19.5509 16.786Z" fill="black"/>
<path d="M18.0255 16.2318C17.6094 15.9553 17.1934 15.6788 16.7773 15.4023C17.3321 15.4023 17.7481 15.6788 18.0255 16.2318Z" fill="black"/>
<path d="M19.6895 15.4043C19.1348 15.1278 18.8575 14.7131 18.3027 14.1602C18.8575 14.4366 19.4122 14.8513 19.6895 15.4043Z" fill="black"/>
<path d="M19.6895 15.4023C19.9668 15.6788 20.2442 15.817 20.3828 16.0935C20.1055 15.9553 19.8281 15.817 19.6895 15.4023Z" fill="black"/>
</g>
<defs>
<clipPath id="clip0_12762_7823">
<rect width="73.5" height="70.5" fill="white"/>
</clipPath>
</defs>
</svg>
