<svg width="70" height="92" viewBox="0 0 70 92" fill="none" xmlns="http://www.w3.org/2000/svg">
<circle cx="34.5008" cy="50.9305" r="34.5008" fill="#4769B2" fill-opacity="0.5"/>
<path d="M66.5397 63.2832C66.5397 63.4219 66.4025 63.6992 66.4025 63.8378C66.128 64.6696 65.8535 65.5015 65.579 66.3333C63.9322 70.3539 61.5992 73.9585 58.3055 76.7313C57.8938 77.1472 57.3448 77.5631 56.9331 77.8404C56.5214 78.1177 55.9724 78.5336 55.5607 78.8109C55.4235 78.9495 55.149 79.0881 55.0118 79.0881C54.8745 79.0881 54.8745 79.2268 54.7373 79.2268C53.6394 79.92 52.5415 80.3359 51.3064 80.7518C49.6595 81.3064 48.1499 81.5837 46.3658 81.7223C45.6796 81.7223 44.9935 81.7223 44.3073 81.7223C43.7583 81.7223 43.2094 81.7223 42.5232 81.5837C41.6998 81.5837 41.0136 81.5837 40.1902 81.5837C39.9157 81.5837 39.7785 81.5837 39.6412 81.7223C39.0923 81.8609 38.6805 81.9996 38.2688 82.2769C37.5827 82.6928 37.0337 83.386 36.2103 83.2473C35.3869 83.1087 34.9751 82.2769 34.7007 81.5837V81.445C33.8772 78.9495 32.9166 76.3154 32.0932 73.8198V73.6812C32.0932 73.5426 31.9559 73.4039 31.9559 73.1266C31.9559 72.988 31.8187 72.8494 31.8187 72.7107C31.8187 72.5721 31.6815 72.4334 31.6815 72.2948C31.6815 72.2948 31.6815 72.4335 31.6815 72.5721C31.6815 72.7107 31.5442 72.8494 31.5442 72.988V73.1266C30.858 75.3449 30.1718 77.4245 29.4857 79.6427C29.2112 80.6132 28.9367 81.5837 28.525 82.5541C28.3878 82.8314 28.3878 83.1087 28.2505 83.2473C28.1133 83.6632 27.9761 84.0792 27.8388 84.4951C27.7016 84.911 27.5643 85.3269 27.4271 85.7428C27.0154 86.9906 26.4664 88.2384 25.3685 89.2088C24.9568 89.6248 24.4079 89.902 23.7217 90.1793C23.4472 90.3179 23.0355 90.318 22.6238 90.4566C21.9376 90.5952 21.1142 90.3179 20.5652 89.902C20.428 89.902 20.428 89.7634 20.2908 89.7634C20.1535 90.0407 20.0163 90.1793 19.8791 90.3179C19.7418 90.4566 19.4673 90.5952 19.1929 90.7339C18.7812 90.8725 18.2322 90.8725 17.8205 90.8725C17.546 90.8725 17.4088 90.7339 17.2716 90.5952C17.2716 90.5952 17.2716 90.5952 17.1343 90.5952L16.9971 90.4566V90.3179C16.9971 90.0407 16.9971 89.6247 16.9971 89.3475V89.2088C16.9971 89.2088 16.9971 89.2088 16.9971 89.0702V88.9315C16.8598 88.9315 16.7226 88.9315 16.5854 88.9315C16.0364 88.7929 15.6247 88.0997 15.7619 87.5452C15.8992 86.852 16.7226 86.436 17.4088 86.1588C18.095 86.0201 18.9184 86.0201 19.6046 85.7428C20.1535 85.6042 20.5652 85.4656 20.977 85.0496C21.2514 84.911 21.5259 84.6337 21.8004 84.3564C22.3493 83.8019 22.761 83.2473 23.0355 82.5541C23.7217 81.1677 23.9962 79.5041 24.1334 77.979C24.4079 75.4835 24.8196 72.8494 23.9962 70.3539C23.9962 70.0766 23.8589 69.9379 23.8589 69.7993C23.4472 68.6902 22.761 67.5811 21.9376 66.8879C21.1142 66.1947 20.2908 65.6401 19.1929 65.5015C18.7812 65.3628 18.3694 65.3628 17.9577 65.5015C17.8205 65.5015 17.8205 65.5015 17.6833 65.5015V65.6401C17.6833 66.1947 17.546 66.7492 17.546 67.3038C17.546 67.5811 17.546 67.997 17.546 68.4129C17.546 69.7993 17.4088 71.1857 17.4088 72.5721C17.4088 73.2653 17.2716 73.9585 17.2716 74.6517C17.2716 74.929 17.2716 75.2062 17.1343 75.4835C17.1343 75.4835 17.1343 75.4835 17.1343 75.6222C16.8598 77.4245 16.4481 79.0881 15.7619 80.6132C15.4875 81.3064 15.0758 81.9996 14.664 82.5541C14.1151 82.8314 13.9779 82.9701 13.8406 83.1087C13.1544 83.9405 12.331 84.6337 11.2331 85.1883C10.9586 85.3269 10.6842 85.4656 10.5469 85.4656C10.4097 85.4656 10.2725 85.6042 10.2725 85.6042C9.17456 85.4656 8.2139 85.1883 7.25324 85.0496C6.42981 84.911 5.46915 84.911 4.50849 84.6337C3.82231 83.8019 3.4106 82.6928 4.09678 81.8609C4.37126 81.445 4.92021 81.1677 5.33192 81.0291C5.88087 80.8905 6.56705 80.7518 7.25324 80.7518C7.39047 80.7518 7.52771 80.7518 7.66495 80.6132C7.93942 80.6132 8.07666 80.4745 8.35113 80.3359C8.48837 80.3359 8.76285 80.3359 9.03732 80.0586C10.4097 79.0881 11.5076 77.5631 12.0565 76.0381C12.88 73.8198 12.7427 71.3243 12.4682 68.9675C12.1938 66.7492 11.9193 64.6696 11.3704 62.59C11.2331 62.3128 11.0959 61.7582 10.9586 61.2036C10.8214 60.6491 10.6842 60.2332 10.5469 59.6786C10.5469 59.4013 10.5469 59.1241 10.5469 58.9854C10.5469 58.8468 10.5469 58.7081 10.6842 58.5695L10.8214 58.4309C10.8214 58.2922 10.9586 58.1536 11.2331 58.1536C11.3704 58.1536 11.5076 58.1536 11.5076 58.1536H11.6448C12.1938 58.1536 12.7427 58.2922 13.1544 58.2922C13.1544 58.2922 13.1544 58.2922 13.2917 58.2922C13.5661 58.2922 13.7034 58.2922 13.8406 58.2922C14.8013 58.2922 15.7619 58.1536 16.5854 57.8763C16.8598 57.8763 17.1343 57.7377 17.2716 57.7377C17.2716 57.7377 17.4088 57.7377 17.546 57.599C18.5067 57.3217 19.3301 57.0445 20.2908 56.6285C20.428 56.6285 20.5652 56.4899 20.7025 56.3513H20.8397C21.1142 56.2126 21.2514 56.2126 21.5259 56.074C21.5259 56.074 21.6631 56.074 21.6631 55.9353C21.8004 55.7967 21.9376 55.7967 22.2121 55.6581C22.8983 55.3808 23.5845 55.1035 24.1334 54.6876C24.5451 54.5489 24.8196 54.2717 25.2313 53.9944C25.5058 53.8558 25.7803 53.5785 26.0547 53.4398C26.192 53.3012 26.3292 53.1626 26.4664 53.1626L26.6037 53.0239C26.7409 52.8853 26.8782 52.7466 27.0154 52.7466C27.1526 52.608 27.1526 52.608 27.2899 52.4694C28.2505 51.4989 29.0739 50.2511 29.3484 49.0034C29.3484 48.8647 29.3484 48.8647 29.3484 48.7261C29.4857 48.3102 29.4857 48.0329 29.4857 47.617C29.4857 47.4783 29.4857 47.3397 29.4857 47.2011C29.4857 46.5079 29.3484 45.8147 29.6229 45.2601C29.6229 45.1215 29.7601 44.9828 29.8974 44.9828L30.0346 44.8442C30.1718 44.7055 30.3091 44.7055 30.3091 44.7055C30.4463 44.5669 30.7208 44.5669 30.9953 44.7055C31.407 44.7055 31.9559 44.9828 32.3676 45.1215C32.9166 45.3987 33.4655 45.676 34.1517 45.9533C34.289 45.9533 34.4262 46.0919 34.4262 46.0919C34.5634 46.2306 34.8379 46.2306 35.1124 46.3692C35.2496 46.3692 35.3869 46.5079 35.6613 46.6465C36.073 46.7851 36.4848 47.0624 36.8965 47.3397C40.1902 49.0034 43.2094 50.9443 45.6796 53.5785C46.2286 54.133 46.7775 54.8262 47.1893 55.3808C47.8754 56.3513 48.5616 57.4604 49.1106 58.5695C49.3851 59.1241 49.6595 59.6786 49.7968 60.0945C50.7574 62.3128 51.4436 64.6696 52.267 66.8879C52.5415 67.5811 52.816 68.4129 53.0905 69.1061C53.5022 70.0766 53.9139 71.0471 54.3256 72.0175C54.6001 72.4334 54.7373 72.988 55.0118 73.4039C58.4427 70.9084 60.6385 67.0265 62.0109 63.006C63.3832 58.9854 63.9322 54.6876 64.4811 50.3898C64.6184 50.5284 64.6184 50.5284 64.7556 50.667C64.8929 50.8057 64.8929 50.9443 65.0301 50.9443C67.7748 54.4103 67.6376 59.2627 66.5397 63.2832Z" fill="white"/>
<path d="M37.4459 76.871C37.3087 76.7324 37.3087 76.7324 37.1715 76.7324C36.6225 76.7324 36.0736 76.5938 36.0736 76.5938C35.9363 76.5938 37.5832 77.0097 37.4459 76.871Z" fill="#BCBBBA"/>
<path d="M31.8199 73.1264C32.7806 73.8196 33.8785 74.3742 34.7019 75.206C35.3881 75.8992 36.486 76.1765 37.3094 76.731C37.5839 76.731 37.8584 76.731 38.1328 76.731C38.1328 76.731 38.1328 76.5924 37.9956 76.5924C37.5839 76.0378 37.035 75.6219 36.6232 75.206C36.0743 74.6514 35.5253 73.9582 34.9764 73.4037C34.2902 72.7105 33.604 72.1559 32.9178 71.6014C32.0944 71.4627 31.4082 71.3241 30.722 71.1855C30.1731 71.0468 29.6241 70.7695 29.0752 70.7695C30.0359 71.3241 30.722 72.4332 31.8199 73.1264Z" fill="#BCBBBA"/>
<path d="M30.1709 71.0508C30.8571 71.3281 31.6805 71.8826 32.5039 71.744C32.6412 71.744 32.6412 71.744 32.7784 71.744C31.955 71.4667 30.9943 71.3281 30.1709 71.0508Z" fill="black"/>
<path d="M28.799 71.0508C28.5245 71.4667 28.799 71.744 29.2107 72.0213C30.9948 73.269 32.6416 74.3781 34.4257 75.7645C34.4257 75.7645 34.4257 75.7645 34.5629 75.7645C34.5629 75.7645 34.7002 75.7645 34.7002 75.9032C34.8374 76.0418 34.9746 76.0418 35.1119 76.1804C35.1119 76.1804 35.1119 76.1804 34.9746 76.1804C35.1119 76.3191 35.1119 76.4577 35.2491 76.4577C35.3863 76.4577 35.3863 76.5964 35.5236 76.5964C35.6608 76.735 35.7981 76.8736 35.9353 77.0123C36.4842 77.0123 37.1704 77.0123 37.7194 77.0123C37.5821 76.8736 37.5821 76.735 37.4449 76.735C37.5821 76.735 37.7194 76.735 37.8566 76.735C37.8566 76.735 37.8566 76.5964 37.7194 76.5964C37.7194 76.4577 37.5821 76.4577 37.5821 76.3191C34.8374 75.4872 31.6809 72.2985 29.2107 71.0508C29.2107 71.0508 29.2107 71.1894 29.0734 71.1894C29.2107 71.4667 29.3479 71.6053 29.4851 71.744L29.3479 71.8826C29.3479 71.744 29.0734 71.3281 28.799 71.0508Z" fill="black"/>
<path d="M27.2902 50.947C26.3295 51.9174 25.3689 52.7493 24.1337 53.4425C23.5848 53.8584 22.8986 54.1357 22.2124 54.413C21.6634 54.6902 21.1145 55.1062 20.4283 55.5221C19.8794 55.7994 19.4677 56.2153 18.7815 56.4926C18.2325 56.7698 17.6836 56.9085 16.9974 57.0471C15.8995 57.3244 14.8016 57.463 13.5665 57.6017C13.0175 57.7403 12.4686 57.8789 11.9196 57.8789C11.5079 57.8789 10.9589 57.8789 10.5472 57.6017C10.41 57.1857 10.1355 56.7698 9.86105 56.3539C9.58658 56.0766 9.3121 55.6607 9.03763 55.3834C9.03763 55.3834 8.90039 55.5221 8.90039 55.6607C8.90039 55.7994 8.90039 55.7994 8.90039 55.938C9.58658 57.3244 9.99829 58.7108 10.9589 59.9585C11.9196 61.2063 13.4292 62.3154 14.9388 62.1768C15.7622 62.0381 16.5857 61.6222 17.2719 61.0677C17.958 60.5131 18.507 59.8199 19.1932 59.2653C20.9773 57.463 23.1731 56.0766 24.9571 54.413C26.4667 53.1652 27.8391 51.5015 28.6625 49.6992C28.2508 50.1151 27.7019 50.5311 27.2902 50.947Z" fill="#BCBBBA"/>
<path d="M28.3874 83.247C28.3874 82.9698 28.3874 82.6925 28.3874 82.4152C28.3874 82.1379 28.3874 80.8902 28.9363 81.1674C29.0736 81.1674 29.2108 81.3061 29.2108 81.1674C29.348 81.1674 29.348 80.8902 29.348 80.8902C29.348 80.6129 29.348 80.3356 29.4853 79.9197C29.4853 79.6424 29.6225 79.2265 29.7598 78.9492C29.348 79.2265 28.9363 79.6424 28.6619 80.0583C28.3874 80.4743 28.2501 81.1675 28.1129 81.5834C27.8384 82.4152 27.8384 82.8311 28.3874 83.247Z" fill="#BCBBBA"/>
<path d="M28.8023 81.4453C28.665 81.4453 28.665 81.7226 28.665 81.7226C28.665 81.9999 28.665 82.4158 28.665 82.6931C28.665 82.5544 28.8023 82.4158 28.8023 82.2772C28.8023 81.9999 28.9395 81.7226 28.8023 81.4453C28.9395 81.4453 28.9395 81.4453 28.8023 81.4453Z" fill="#BCBBBA"/>
<path d="M31.1349 71.3203C29.4881 74.0931 28.8019 77.2818 27.704 80.1932C26.6061 82.966 24.822 85.6002 22.6262 87.6798C22.3517 87.9571 22.0773 88.2343 21.8028 88.6503C21.5283 88.9275 21.5283 89.4821 21.5283 89.898C21.94 91.2844 23.7241 90.4526 24.5475 90.0366C25.5082 89.3435 26.3316 88.2343 26.6061 87.1252C26.8806 86.1547 26.8806 85.0456 27.2923 84.2138C27.5668 83.6592 27.8412 83.2433 28.2529 83.1047C28.2529 82.966 28.2529 82.8274 28.2529 82.6888C28.2529 82.4115 28.2529 81.1637 28.8019 81.441H28.9391C29.2136 80.4705 29.4881 79.5 29.7626 78.5296C30.037 77.4205 30.3115 76.1727 30.586 74.9249C30.7232 74.3704 30.8604 73.6772 30.8604 73.1226C31.1349 72.5681 31.4094 71.3203 31.1349 71.3203Z" fill="#BCBBBA"/>
<path d="M66.5429 63.4256C65.445 67.1689 63.3864 70.6349 60.9162 73.5463C59.2693 75.4873 57.348 77.151 55.7012 79.0919H55.5639C54.466 78.2601 55.1522 76.735 55.7012 75.7646C55.8384 75.4873 55.9756 75.21 56.1129 75.0714C56.3874 74.7941 56.7991 74.6555 57.0735 74.3782C57.897 73.9623 58.7204 73.4077 59.4066 72.7145C60.9162 71.4667 62.0141 69.6644 62.9747 68.0008C63.5237 67.0303 64.0726 65.9212 64.6216 64.9507C64.8961 64.3961 65.1705 63.9802 65.445 63.4256C65.5822 63.287 65.7195 62.8711 65.8567 62.8711C66.2684 62.8711 66.4057 63.1484 66.5429 63.4256C66.5429 63.287 66.5429 63.4256 66.5429 63.4256Z" fill="#BCBBBA"/>
<path d="M21.254 56.2206C20.7051 56.4979 20.0189 56.9138 19.47 57.1911C18.921 57.4684 18.3721 57.8843 17.8231 58.0229C17.2742 58.1616 16.8624 58.3002 16.3135 58.4388C15.4901 58.7161 14.6667 59.132 13.9805 59.4093V59.548C16.4507 58.7161 19.0582 57.7456 21.5285 56.9138V56.7752C20.9796 56.9138 20.4306 57.0524 19.8817 57.1911C20.7051 56.7752 21.3913 56.3592 22.2147 55.8047C21.803 55.9433 21.5285 56.082 21.254 56.2206Z" fill="black"/>
<path d="M28.2536 83.9451C28.2536 83.5292 28.3908 82.9746 28.3908 82.5587C28.3908 82.2814 28.3908 81.5882 28.5281 81.311V81.1723H28.6653C28.8025 81.1723 28.8025 81.1723 28.9398 81.1723C29.077 81.1723 29.2143 81.311 29.2143 81.1723C29.3515 81.1723 29.3515 80.8951 29.3515 80.8951C29.3515 80.6178 29.3515 80.3405 29.4887 79.9246C29.626 79.5087 29.626 79.0927 29.7632 78.6768C29.7632 78.5382 29.9004 78.3995 29.9004 78.2609C30.1749 77.5677 30.3122 77.0131 30.4494 76.3199C30.4494 76.3199 30.4494 76.3199 30.5866 76.4586C30.7239 76.0427 30.8611 75.6267 30.9983 75.2108C31.5473 71.6062 33.3314 68.4175 33.6058 64.8129C33.7431 63.5651 34.9782 64.5356 34.5665 63.0106C34.0176 62.0401 34.4293 61.4855 34.5665 60.6537C34.292 59.6832 34.1548 58.7127 33.4686 58.0195C33.3314 58.0195 33.3314 58.1582 33.1941 58.1582C33.3314 59.1286 33.6058 59.9605 33.7431 60.931C33.6058 60.931 33.3314 61.0696 33.1941 61.0696C33.4686 61.9014 33.6059 62.8719 33.8803 63.7037C32.7824 63.8424 32.9197 63.981 32.7824 64.8129C32.6452 66.0606 32.508 67.5857 31.6845 68.5561C30.3122 72.438 29.4887 76.4586 28.5281 80.4791C28.2536 80.4791 28.1164 80.4791 27.8419 80.3405C27.1557 84.361 27.0185 88.2429 23.0386 90.4612C21.529 90.5998 19.7449 91.4317 20.2938 89.0748C19.6077 89.0748 19.7449 90.0453 19.4704 90.4612C19.4704 90.5998 19.4704 90.5998 19.6077 90.7385C17.1374 91.1544 15.6278 91.4317 17.9608 88.1043C17.1374 88.2429 16.1767 89.3521 16.314 90.0453C17.1374 91.4317 18.2353 91.8476 19.7449 91.1544C19.8821 91.0157 20.2938 91.0157 20.4311 91.0157C21.8035 91.5703 22.6269 90.8771 23.862 90.8771C26.0578 89.3521 27.5674 86.9952 28.1164 84.361C28.2536 84.2224 28.2536 84.0838 28.2536 83.9451Z" fill="black"/>
<path d="M46.9146 69.669C46.0912 68.2826 45.2678 67.0348 44.4443 65.7871C44.4443 65.7871 44.5816 65.7871 44.5816 65.6484C45.6795 66.7576 46.6401 68.0053 47.4636 69.5303C47.1891 69.5303 47.0518 69.669 46.9146 69.669Z" fill="black"/>
<path d="M47.8783 69.5266C47.7411 69.5266 47.6038 69.5266 47.6038 69.5266C47.4666 68.5561 46.2314 67.1697 46.2314 66.1992H46.3687C46.9176 67.1697 47.4666 68.2788 47.8783 69.5266C48.0155 69.5266 48.0155 69.5266 47.8783 69.5266Z" fill="black"/>
<path d="M58.3056 73.5488C58.1684 73.5488 58.1684 73.5488 58.0311 73.5488C58.0311 73.6875 58.0311 73.6875 58.0311 73.8261C58.1684 73.6875 58.1684 73.6875 58.3056 73.5488ZM58.3056 73.5488C58.1684 73.5488 58.1684 73.5488 58.0311 73.5488C58.0311 73.6875 58.0311 73.6875 58.0311 73.8261C58.1684 73.6875 58.1684 73.6875 58.3056 73.5488ZM58.3056 73.5488C58.1684 73.5488 58.1684 73.5488 58.0311 73.5488C58.0311 73.6875 58.0311 73.6875 58.0311 73.8261C58.1684 73.6875 58.1684 73.6875 58.3056 73.5488ZM58.3056 73.5488C58.1684 73.5488 58.1684 73.5488 58.0311 73.5488C58.0311 73.6875 58.0311 73.6875 58.0311 73.8261C58.1684 73.6875 58.1684 73.6875 58.3056 73.5488ZM58.3056 73.5488C58.1684 73.5488 58.1684 73.5488 58.0311 73.5488C58.0311 73.6875 58.0311 73.6875 58.0311 73.8261C58.1684 73.6875 58.1684 73.6875 58.3056 73.5488ZM67.226 54.9711C66.9515 53.1688 64.7557 47.2073 63.9323 52.1984C63.7951 55.1098 63.2461 58.0212 62.2855 60.9326C61.1876 65.6464 59.5407 70.3601 55.5608 73.2716C55.4236 72.9943 55.4236 72.5784 55.2864 72.3011V72.1624C55.1491 71.7465 55.0119 71.3306 55.0119 70.9147C54.8747 70.9147 54.7374 70.9147 54.6002 70.9147C54.4629 71.3306 54.463 71.7465 54.463 72.1624C54.463 72.717 54.6002 73.2716 54.7374 73.8261C54.7374 73.9648 54.7374 73.9648 54.7374 74.1034C54.7374 74.242 54.7374 74.242 54.7374 74.242C54.7374 74.5193 54.7374 74.658 54.7374 74.9352C54.7374 76.0444 54.463 77.8467 54.1885 78.9558C54.1885 79.0944 54.1885 79.0944 54.1885 79.2331C54.3257 79.2331 54.3257 79.2331 54.463 79.2331C54.6002 79.2331 54.7374 79.2331 54.7374 79.2331C54.8747 79.2331 55.0119 79.0944 55.1491 79.2331C58.0311 78.4012 59.9524 76.0444 61.7365 73.8261C65.9909 68.6965 68.1867 61.4872 67.226 54.9711ZM65.0302 50.6733C65.1675 50.6733 65.1674 50.6733 65.1674 50.5347C65.7164 50.9506 65.1674 50.812 65.1674 51.2279V51.3665C66.4026 54.2779 66.4026 58.8531 65.4419 63.2895C64.344 68.2805 62.1482 72.9943 58.9918 74.7966C58.9918 74.242 59.4035 73.5488 59.129 72.9943C58.4428 73.8261 58.8545 75.2125 58.0311 76.0444C57.8939 75.2125 58.3056 74.3807 58.1684 73.5488C58.0311 73.5488 58.0311 73.5488 57.8939 73.5488C57.8939 73.6875 57.8939 73.6875 57.8939 73.8261C57.6194 76.183 57.4822 77.1535 55.2864 78.5399C55.2864 77.708 55.4236 76.8762 55.4236 76.0444C55.4236 75.2125 55.5608 74.3807 55.5608 73.5488C62.6972 68.9737 63.5206 58.5758 64.893 50.9506C65.0302 50.812 65.0302 50.6733 65.0302 50.6733ZM58.3056 73.5488C58.1684 73.5488 58.1684 73.5488 58.0311 73.5488C58.0311 73.6875 58.0311 73.6875 58.0311 73.8261C58.1684 73.6875 58.1684 73.6875 58.3056 73.5488ZM58.3056 73.5488C58.1684 73.5488 58.1684 73.5488 58.0311 73.5488C58.0311 73.6875 58.0311 73.6875 58.0311 73.8261C58.1684 73.6875 58.1684 73.6875 58.3056 73.5488ZM58.3056 73.5488C58.1684 73.5488 58.1684 73.5488 58.0311 73.5488C58.0311 73.6875 58.0311 73.6875 58.0311 73.8261C58.1684 73.6875 58.1684 73.6875 58.3056 73.5488ZM58.3056 73.5488C58.1684 73.5488 58.1684 73.5488 58.0311 73.5488C58.0311 73.6875 58.0311 73.6875 58.0311 73.8261C58.1684 73.6875 58.1684 73.6875 58.3056 73.5488Z" fill="black"/>
<path d="M10.1367 59.5464C11.9208 59.8236 11.7836 61.4873 13.5676 62.5964C16.5869 64.5374 20.4295 66.3397 23.7232 68.142C23.586 64.9533 23.8604 60.2396 22.3508 57.3281C24.4094 57.6054 23.9977 60.1009 24.6839 61.6259C26.3307 60.5168 28.1148 59.4077 29.7616 58.2986C29.7616 58.4372 29.8989 58.4372 29.8989 58.5759C28.6637 59.685 25.6445 60.7941 25.2328 62.3191C27.0169 61.3487 28.5265 59.9623 30.4478 59.4077C30.4478 59.4077 30.4478 59.5464 30.5851 59.5464C23.4487 63.5669 24.9583 62.4578 25.0956 71.3307C26.1935 70.7762 28.1148 69.9443 29.2127 69.5284C28.252 70.6375 25.919 70.7762 25.2328 72.3012C25.2328 72.4398 24.8211 72.9944 24.9583 73.133C26.3307 72.4398 28.6637 71.0534 29.8989 70.3602L30.0361 70.4989C28.9382 71.608 24.4094 72.7171 24.9583 74.5194C26.3307 73.8262 28.252 72.4398 29.4872 71.7466C29.4872 71.7466 29.4872 71.8853 29.6244 71.8853C28.6637 72.4398 28.252 73.2717 27.2914 73.6876C26.0562 73.9649 24.8211 75.074 24.6839 76.1831C24.4094 78.54 24.2721 81.1741 23.3115 83.3924C22.4881 85.056 21.6646 86.0265 19.7433 86.0265C18.0965 86.0265 14.3911 88.1061 17.2731 89.3539C16.1752 89.3539 14.8028 88.522 15.6262 87.4129C16.9986 84.9174 20.2923 86.4424 21.9391 84.7787C23.9977 80.6196 23.586 75.7672 24.2721 71.1921C24.4094 69.3898 23.037 69.2511 18.9199 66.3397C17.1358 65.5079 15.0773 64.676 13.1559 63.5669C12.4698 63.151 11.9208 63.0123 11.7836 62.3191C11.0974 61.3487 10.6857 60.9328 10.1367 59.5464Z" fill="black"/>
<path d="M53.0918 67.58L52.1311 66.6095C51.5822 65.9163 51.4449 65.2231 51.1705 64.9458C50.2098 62.3117 50.2098 62.7276 48.2885 59.8162C47.7395 58.8457 46.7789 56.9047 45.9554 56.2115C44.4458 54.9638 42.5245 53.5774 40.7404 52.6069C38.8191 51.3592 37.1723 50.3887 34.702 49.4182C32.2317 48.5864 30.5849 48.1705 28.5263 46.7841C27.4284 45.9522 23.0368 44.0113 22.6251 42.9022C22.4879 42.6249 22.6251 42.3476 22.8996 42.0703C27.8401 43.734 33.1924 44.7045 36.7606 47.2C38.6819 48.5864 41.1521 49.8341 42.799 51.0819C44.7203 52.6069 46.2299 54.4092 47.4651 56.3502C50.347 60.9253 52.2684 62.3117 53.0918 67.58Z" fill="#BCBBBA"/>
<path d="M50.3457 60.2349C50.2084 59.819 48.6988 57.6008 48.1499 56.7689C45.4051 51.9165 40.4646 48.5892 36.6219 46.2323C32.5048 43.4595 28.1132 42.4891 22.8982 41.2413C22.4865 41.1027 22.0748 41.2413 21.6631 41.2413C21.8003 41.5186 21.9376 41.3799 21.9376 41.5186C24.2706 42.3504 26.3292 42.4891 28.6622 43.3209C32.7793 44.7073 36.6219 46.9255 39.9156 48.8665C39.9156 50.5302 40.0529 52.6097 39.9156 54.2734C40.0529 54.2734 40.0529 54.2734 40.1901 54.2734C40.3273 52.6097 40.4646 51.0847 40.4646 49.421C40.6018 49.421 40.6018 49.421 40.6018 49.421C41.288 51.0847 40.7391 52.887 41.0135 54.6893C41.1508 54.6893 41.1508 54.6893 41.288 54.6893C41.4252 53.1643 41.4252 51.6393 41.4252 50.1142C42.2487 50.2529 41.837 53.9961 41.9742 54.828C42.1114 54.828 42.1114 54.828 42.2487 54.828C42.2487 53.4416 42.3859 52.0552 42.3859 50.6688C45.8168 53.5802 48.0126 56.9076 49.385 59.5417C49.5222 59.4031 50.3457 60.5122 50.3457 60.2349Z" fill="black"/>
<path d="M52.4079 64.125C52.1334 64.2636 51.9962 64.2636 51.7217 64.4023C51.7217 64.8182 51.7217 64.9568 51.8589 65.0955C51.31 64.5409 54.4664 70.5024 52.8196 70.5024C52.8196 70.6411 53.0941 71.1956 53.0941 71.1956C54.6037 71.4729 52.2706 71.8888 53.7802 72.1661C54.0547 72.582 54.7409 73.8298 54.6037 74.3843C54.7409 74.3843 54.7409 74.3843 54.7409 74.3843C56.6622 71.4729 52.8196 67.4523 52.4079 64.125Z" fill="black"/>
<path d="M31.1327 49.6959C30.5837 47.7549 30.0348 45.6753 29.4858 43.7344C30.172 44.1503 31.8189 49.8345 31.8189 51.3595C31.4072 50.6663 30.9955 50.2504 30.5837 49.6959H30.4465C30.8582 51.3596 31.8189 52.8846 31.5444 54.6869C31.2699 54.4096 30.9955 54.271 30.5837 53.9937C30.3093 55.2415 29.8976 56.2119 29.2114 57.1824C28.2507 58.1529 26.7411 58.7074 27.4273 60.0938C26.3294 57.8756 30.0348 57.4597 29.8976 52.8846C30.3093 53.3005 30.5837 53.4391 30.8582 53.7164C31.1327 52.0527 29.8976 50.5277 29.6231 48.864C29.7603 48.864 29.7603 48.7254 29.8976 48.7254C30.3093 49.0027 30.5837 49.28 30.9955 49.6959C30.9955 49.6959 30.9955 49.6959 31.1327 49.6959Z" fill="black"/>
<path d="M26.4672 55.5207C26.3299 55.1048 26.1927 54.5502 25.9182 54.1343C25.781 54.2729 25.781 54.4116 25.6437 54.6888C24.8203 53.9956 25.6437 53.5797 25.5065 53.0252C26.4672 53.3024 26.0554 53.9956 26.4672 54.4116C26.7416 53.5797 27.0161 52.8865 27.2906 52.0547C27.4278 52.0547 27.4278 52.0547 27.5651 52.0547C27.8395 53.3024 26.8789 54.2729 26.6044 55.382C26.6044 55.382 26.6044 55.5207 26.4672 55.5207Z" fill="black"/>
<path d="M33.4697 50.2548C34.1559 48.8684 34.8421 47.3434 35.5283 45.6797C35.6655 46.0956 35.8028 46.3729 35.8028 46.5115C35.1166 47.6206 34.7049 49.9775 33.4697 50.3934C33.607 50.3934 33.607 50.2548 33.4697 50.2548Z" fill="black"/>
<path d="M35.2505 50.9493C34.8388 50.3948 35.7994 45.8197 36.4856 47.4833C36.0739 48.5925 35.6622 49.7016 35.2505 50.9493Z" fill="black"/>
<path d="M21.3874 85.8766C22.2108 85.4607 23.0342 85.1834 23.3087 84.3516C23.9949 85.0448 23.1714 85.5993 21.9363 86.0152C22.348 86.2925 22.7597 86.4312 23.0342 86.7084C22.2108 86.8471 21.3874 86.8471 20.7012 86.9857H21.1129C21.5246 86.8471 21.3874 86.7084 21.7991 86.5698C21.6618 86.2925 21.5246 86.0152 21.3874 85.8766Z" fill="black"/>
<path d="M15.2109 60.3764C16.995 59.4059 18.6419 58.2968 20.7004 58.0195C18.9163 58.8514 16.995 59.5446 15.2109 60.3764Z" fill="black"/>
<path d="M18.0971 69.8042C18.0971 70.0814 18.0971 70.4974 17.9599 70.7746C17.8226 71.6065 17.6854 72.2997 17.4109 73.1315C16.9992 74.6565 16.4503 76.1816 15.9013 77.8453C15.2151 79.9248 15.4896 83.1136 13.8427 84.5C12.4704 85.6091 11.2352 85.7477 9.45116 85.4704C9.03944 85.3318 8.76497 85.3318 8.35326 85.1931C8.21602 85.1931 7.80431 85.1932 7.80431 85.0545C7.52984 84.7772 8.07878 84.3613 8.21602 84.3613C8.4905 84.2227 8.90221 84.2227 9.17668 84.2227C10.2746 84.2227 11.2352 83.8068 12.0587 82.9749C12.8821 82.2817 13.431 81.3112 13.98 80.4794C15.7641 77.0134 16.313 73.1315 16.862 69.3882C16.862 68.9723 16.9992 68.5564 17.4109 68.5564C17.6854 68.4178 17.9599 68.695 18.0971 68.9723C18.0971 69.111 18.0971 69.5269 18.0971 69.8042Z" fill="#BCBBBA"/>
<path d="M16.7245 75.3433C15.3521 75.6206 13.9797 75.8979 12.6073 76.1752C12.8818 74.6501 15.2149 74.7888 16.45 74.2342C16.45 74.0956 16.45 74.0956 16.3128 73.9569C15.2149 74.2342 14.117 74.5115 12.7446 74.9274C14.117 68.6886 12.1956 62.5885 9.86261 56.7656V56.9043C9.86261 57.1815 9.86261 57.3202 9.86261 57.4588C9.86261 57.7361 9.86261 58.152 9.72537 58.2907C10.2743 59.8157 10.8233 61.3407 11.0977 63.0044C11.5095 66.1931 11.7839 69.3818 12.1956 72.5705C12.7446 76.0365 10.4116 78.1161 8.49023 80.7503C10.2743 80.1957 10.9605 77.9775 12.3329 77.007C13.7052 76.1752 15.3521 76.3138 16.7245 75.7592C16.7245 75.6206 16.7245 75.482 16.7245 75.3433Z" fill="black"/>
<path d="M17.6844 72.9922C16.5865 76.5968 16.1748 79.2309 15.2141 82.8356C14.5279 85.4697 12.4694 85.747 10.2736 85.6084C9.17567 85.4697 8.21501 85.1924 7.25435 85.0538C6.43093 84.9152 5.47027 84.9152 4.50961 84.6379C3.82342 84.3606 3.27447 84.0833 3 83.2515C3.13724 80.6173 5.88198 80.0628 8.21501 80.4787C8.35225 80.4787 8.48949 80.4787 8.62672 80.6173C8.62672 80.6173 8.62672 80.6173 8.76396 80.6173C9.03844 80.756 9.31291 80.756 9.58738 80.8946C8.9012 80.756 8.21501 80.756 7.66606 80.756C6.7054 80.756 6.01922 80.8946 5.47027 81.1719C4.78408 81.4492 4.37237 82.1424 4.0979 82.9742C4.78408 84.7765 6.56817 84.3606 7.94054 84.7765C8.07778 84.7765 8.07778 84.7765 8.21501 84.9152V83.2515C8.48949 83.5288 8.62672 83.8061 8.76396 84.222C9.03844 84.9152 9.17567 85.6084 10.2736 85.4697C9.86186 85.0538 9.58738 84.6379 9.58738 84.222C9.58738 83.9447 9.58738 83.6674 9.58738 83.3901C9.72462 83.3901 9.72462 83.3901 9.86186 83.2515C10.1363 83.3901 10.2736 83.6674 10.548 83.9447C10.548 84.4992 10.8225 85.0538 11.2342 85.1924C11.3715 85.1924 11.5087 85.1924 11.6459 85.1924C12.6066 85.0538 13.5673 84.9152 13.8417 83.6674C13.979 83.2515 14.1162 82.9742 14.1162 82.5583C14.5279 81.0333 15.0769 79.5082 15.4886 77.9832C15.7631 77.1514 15.9003 76.4582 16.0375 75.765C16.0375 75.6263 16.1748 75.4877 16.1748 75.349C16.4492 74.2399 16.7237 73.2694 16.861 72.4376C17.1354 71.0512 17.2727 69.9421 17.1354 68.2784C17.1354 68.0011 17.1354 67.5852 17.1354 67.3079C17.1354 66.7534 16.9982 66.1988 16.9982 65.5056C16.9982 65.2284 16.861 64.9511 16.861 64.5352C17.2727 64.6738 17.5471 64.9511 17.5471 65.367C17.5471 65.5056 17.6844 65.6443 17.6844 65.7829C17.8216 66.6148 17.8216 67.5852 18.0961 68.4171C18.645 69.9421 17.9589 71.8831 17.6844 72.9922Z" fill="black"/>
<path d="M12.1971 80.197C11.6482 80.197 11.2364 80.197 10.6875 80.197C10.6875 80.197 10.6875 80.197 10.6875 80.0583C10.962 80.0583 11.2364 79.9197 11.3737 79.9197C11.5109 79.6424 11.6482 79.2265 11.6482 78.9492H11.7854C12.0599 79.5038 12.0599 79.9197 12.1971 80.197Z" fill="black"/>
<path d="M52.9566 24.8908C52.8194 25.168 52.8194 25.3067 52.8194 25.4453C52.5449 26.1385 52.2704 26.6931 51.996 27.2476C51.1726 28.2181 50.0746 29.1886 48.9768 30.0204C48.2906 30.2977 47.7416 30.4363 47.1927 30.8523C46.6437 31.2682 46.232 31.8227 46.0948 32.3773C45.9575 32.5159 45.8203 32.6546 45.6831 32.6546C45.8203 32.7932 45.9575 32.7932 46.0948 32.9319C46.0948 33.0705 46.232 33.2091 46.232 33.3478C45.9575 33.4864 45.6831 33.4864 45.5458 33.625C44.5852 33.625 43.6245 33.7637 43.0756 34.4569C42.9383 34.4569 42.8011 34.4569 42.6638 34.5955C42.6638 34.7342 42.8011 34.7342 42.8011 34.8728L42.6638 35.0114C42.6638 35.1501 42.5266 35.1501 42.5266 35.2887C42.3894 35.566 42.2521 35.7046 42.2521 35.9819C42.1149 36.1206 39.7819 36.2592 39.6446 36.3978L37.8605 36.9524C37.1744 37.7842 36.8999 38.8934 36.8999 38.8934C36.7626 39.032 37.3116 39.5865 37.1744 39.7252C36.6254 39.8638 36.0765 40.0025 35.5275 40.1411C35.5275 40.4184 35.6647 40.557 35.6647 40.8343C34.4296 41.6661 33.1945 42.6366 31.9593 43.6071C31.6849 43.7457 31.5476 43.8844 31.2732 44.1617C31.1359 44.3003 30.9987 44.4389 30.8614 44.4389C30.7242 44.5776 30.587 44.7162 30.4497 44.8549L30.3125 44.9935C30.3125 44.9935 30.3125 44.9935 30.3125 45.1321C30.3125 45.2708 30.3125 45.4094 30.3125 45.548C30.3125 45.8253 30.4497 46.1026 30.4497 46.3799C30.587 46.6572 30.587 46.7958 30.587 47.0731C30.587 47.2117 30.587 47.3504 30.587 47.3504C30.587 47.6276 30.7242 47.9049 30.8614 48.3208V48.4595C30.7242 48.5981 30.4497 48.7368 30.4497 48.8754C30.1753 49.2913 30.1753 49.2913 30.038 49.5686C30.038 49.7072 29.9008 49.8459 29.9008 49.9845C29.6263 50.5391 29.2146 51.0936 28.6657 51.6482C28.3912 51.9255 27.9795 52.2027 27.705 52.48C27.4305 52.6187 27.156 52.8959 27.0188 53.0346C26.8816 53.1732 26.8816 53.1732 26.7443 53.3119L26.6071 53.4505C26.3326 53.5891 26.0581 53.8664 25.7837 54.0051C25.2347 54.421 24.5485 54.6983 23.9996 54.9755C23.7251 55.1142 23.4506 55.2528 23.1762 55.3915C22.7645 55.5301 22.2155 55.8074 21.6666 55.946H21.5293C21.3921 55.946 21.2548 56.0847 21.2548 56.0847C21.2548 56.0847 21.2548 56.0847 21.1176 56.0847C21.1176 56.0847 21.1176 56.0847 20.9804 56.0847C20.5687 56.2233 20.1569 56.2233 19.8825 56.3619C19.3335 56.5006 18.7846 56.7779 18.3729 57.0551C18.2356 57.0551 18.0984 57.1938 17.8239 57.1938C17.4122 57.3324 17.1377 57.3324 16.726 57.3324C15.3536 58.1642 14.5302 58.1642 13.5696 58.3029C13.4323 58.3029 13.4323 58.3029 13.2951 58.3029C12.8834 58.3029 12.6089 58.4415 12.1972 58.4415C11.9227 58.4415 11.7855 58.4415 11.511 58.4415C11.3738 58.4415 11.2365 58.4415 11.2365 58.4415C11.0993 58.4415 10.9621 58.4415 10.8248 58.4415H10.6876C10.5503 58.4415 10.5503 58.4415 10.5503 58.3029C10.4131 58.3029 10.1386 58.1642 10.0014 58.0256C10.0014 58.0256 9.86416 58.0256 9.86416 57.887L9.72692 57.7483C9.58969 57.471 9.45245 57.1938 9.31521 57.0551C9.31521 57.0551 9.17798 56.9165 9.17798 56.7778C9.17798 56.6392 9.04074 56.5006 9.04074 56.5006C9.04074 56.3619 8.9035 56.3619 8.9035 56.2233V56.0847C8.9035 55.946 8.9035 55.946 8.9035 55.946C8.9035 55.8074 8.76626 55.5301 8.76626 55.3915C8.76626 55.1142 8.62903 54.9755 8.49179 54.6983V54.5596C8.35455 54.421 8.35455 54.2823 8.21732 54.1437C8.08008 53.8664 8.08008 53.5891 8.08008 53.3119C8.08008 53.1732 8.21732 53.0346 8.21732 52.8959C8.35455 52.7573 8.35455 52.48 8.35455 52.2027V52.0641C8.62903 50.8163 8.35455 49.43 8.49179 48.3208C8.49179 48.1822 8.49179 48.0436 8.49179 47.9049C8.62903 46.3799 9.04074 44.9935 9.58969 43.6071V43.4685C9.58969 43.3298 9.72692 43.1912 9.72692 43.0525C10.0014 42.2207 10.4131 41.2502 10.6876 40.4184C11.0993 39.1706 11.3738 38.0615 11.2365 36.8138C11.0993 35.566 10.6876 34.3182 10.6876 33.2091C10.6876 30.1591 12.3344 27.8022 12.3344 24.8908C12.3344 24.6135 12.3344 24.4748 12.3344 24.1976C12.1972 23.3657 12.1972 22.5339 12.06 21.702C12.06 21.4248 12.06 21.2861 11.9227 21.0089C11.7855 20.4543 11.6482 20.0384 11.6482 19.4838C11.2365 18.5133 11.0993 17.9588 10.9621 17.2656C10.6876 16.4337 10.5503 15.6019 10.5503 14.7701C10.5503 12.2746 11.3738 9.77905 12.7461 7.69946C13.0206 7.28354 13.9813 4.09483 14.6675 2.29252C15.0792 1.59932 15.3536 1.04476 15.4909 1.04476C15.9026 0.906121 16.3143 0.628842 16.8633 0.490202C17.1377 0.351562 17.4122 0.351562 17.5494 0.351562H17.6867C17.6867 0.351562 17.6867 0.351562 17.8239 0.351562H17.9612C18.5101 0.490202 19.0591 0.767481 19.4708 1.1834L19.608 1.32204C20.1569 1.8766 20.7059 2.70843 20.9804 3.26299C21.5293 4.64939 22.49 6.03578 22.7645 7.42218C22.7645 8.66993 23.1762 9.91769 23.8624 11.0268C24.2741 11.0268 24.4113 11.0268 24.5485 11.0268C24.823 11.72 24.9603 12.2746 24.9603 12.8291C25.0975 13.5223 25.2347 14.0769 25.2347 14.4928C25.372 15.0474 25.372 15.7405 25.6464 16.2951C25.7837 16.5724 26.0581 16.711 26.1954 16.711C26.4699 16.8497 26.7443 16.9883 27.156 16.9883C27.156 16.9883 27.2933 16.9883 27.4305 16.9883C27.9795 16.9883 28.5284 17.1269 29.0774 17.2656C30.1753 17.5429 31.1359 18.2361 31.9593 19.0679C32.6455 19.6225 33.3317 20.3157 34.0179 20.7316C34.2924 21.0089 34.7041 21.0089 34.9786 21.1475C35.5275 21.702 36.0765 22.2566 36.6254 22.6725C37.0371 22.5339 37.5861 21.8407 37.9978 21.2861C38.2723 21.2861 38.4095 21.2861 38.684 21.2861C41.7032 21.1475 44.1735 20.7316 47.3299 20.8702C47.6044 20.8702 47.8789 20.7316 48.1533 20.7316C49.5257 20.7316 51.0353 20.7316 52.1332 21.1475C52.4077 21.2861 52.6822 21.4248 52.8194 21.5634C52.9566 21.702 53.5056 22.2566 53.6428 22.3952C53.9173 23.3657 53.2311 24.0589 52.9566 24.8908Z" fill="white"/>
<path d="M20.9798 13.6548C21.1171 14.2093 20.9798 14.9025 20.7054 15.4571C20.2937 16.5662 19.6075 17.398 18.6468 17.9526C17.6861 18.5071 16.451 18.7844 15.4904 18.3685C15.3531 18.3685 15.0786 18.2299 15.0786 18.0912C14.9414 17.9526 14.9414 17.6753 14.9414 17.398C14.9414 14.4866 16.3138 11.5752 17.6861 8.94102C17.9606 8.38646 18.3723 7.69326 18.784 7.41598C18.9213 7.27734 18.9213 7.27734 19.0585 7.27734C19.0585 7.27734 19.1958 7.27734 19.1958 7.41598C20.5681 8.66374 21.2543 10.6047 21.1171 12.5456L20.9798 13.6548Z" fill="#BCBBBA"/>
<path d="M41.2892 24.8825C43.0732 23.7734 45.269 23.4961 47.3276 23.4961C47.4648 24.3279 46.7786 25.1598 46.2297 25.853C44.8573 27.2394 43.485 28.6258 42.1126 30.0122C41.7009 30.4281 41.2892 30.844 40.603 30.9826C38.9561 31.2599 38.4072 30.0122 38.6817 28.7644C38.9561 27.1007 40.054 25.7143 41.2892 24.8825Z" fill="#BCBBBA"/>
<path d="M14.1152 37.7812C14.6642 38.4744 15.2131 39.1676 15.8993 39.7222C16.0366 39.8608 16.311 39.9995 16.4483 40.2768C16.5855 40.554 16.7227 40.6927 16.7227 40.97C16.9972 41.8018 17.6834 42.6336 18.3696 43.1882C18.5068 43.3268 18.6441 43.4655 18.9185 43.4655C19.0558 43.4655 19.3302 43.4655 19.4675 43.4655C19.8792 43.3268 20.4281 43.4655 20.8399 43.6041C20.8399 43.8814 20.5654 44.02 20.2909 44.1587C20.0164 44.1587 19.742 44.1587 19.4675 44.1587C18.7813 44.1587 18.0951 44.7132 17.2717 44.5746C16.9972 44.4359 16.7227 44.2973 16.4483 44.1587C15.0759 42.9109 14.2525 40.97 14.3897 39.1676L14.1152 37.7812Z" fill="#BCBBBA"/>
<path d="M8.90286 56.0734C9.0401 56.3507 9.17734 56.628 9.31457 56.9053C9.45181 57.1826 9.58905 57.4598 9.72629 57.7371C10.0008 58.0144 10.4125 58.2917 10.9614 58.4303C11.7848 58.569 12.7455 58.4303 13.7062 58.2917C14.6668 58.153 15.4902 58.0144 16.4509 58.0144C16.9999 57.8758 17.5488 57.8758 17.9605 57.5985C18.5095 57.3212 18.9212 57.0439 19.4701 56.9053C20.0191 56.628 20.568 56.628 21.117 56.3507C21.6659 56.2121 22.2149 55.9348 22.7638 55.7962C24.1362 55.2416 25.3713 54.5484 26.6065 53.7166C26.8809 53.4393 27.0182 53.0234 27.1554 52.7461C24.1362 54.687 20.7053 56.0734 17.2743 57.1826C16.4509 57.4598 15.7647 57.5985 14.9413 57.7371C13.9806 57.8758 12.8827 57.8758 11.7848 57.8758C11.3731 57.8758 11.0987 57.8758 10.8242 57.7371C10.4125 57.4598 10.2752 56.9053 10.0008 56.4894C9.86352 56.0734 9.45181 55.5189 8.90286 55.5189H8.76562C8.76562 55.7962 8.76563 55.9348 8.90286 56.0734Z" fill="#BCBBBA"/>
<path d="M11.5095 44.8524C11.9212 45.2683 12.6074 45.6843 13.1563 46.1002C17.5479 48.873 23.0374 49.8434 28.1151 49.1502C28.2524 49.1502 28.2524 49.1502 28.3896 49.1502C28.5269 49.1502 28.5269 49.2889 28.5269 49.4275C28.5269 49.8434 28.1152 50.2594 27.8407 50.6753C24.9587 53.1708 21.665 55.1117 18.0968 56.4981C17.6851 56.6368 17.2734 56.7754 16.7245 56.9141C16.3128 57.0527 15.901 57.0527 15.4893 57.1913C13.9797 57.33 12.4701 57.6073 10.8233 57.7459C10.686 57.7459 10.4116 57.7459 10.2743 57.7459C10.1371 57.7459 9.99984 57.6073 9.86261 57.4686C9.4509 57.0527 9.03918 56.4981 8.90195 55.8049C8.76471 55.5277 8.76471 55.1117 8.76471 54.8345C8.62747 54.5572 8.49024 54.2799 8.49024 54.0026C8.353 53.7254 8.353 53.3094 8.353 53.0322C8.353 50.8139 8.21576 48.4571 8.21576 46.2388C8.21576 45.2683 8.07852 43.466 9.03918 42.7728C9.86261 42.2183 10.9605 44.2979 11.5095 44.8524Z" fill="white"/>
<path d="M27.2926 50.2576C23.5872 52.7531 18.7839 54.1395 14.3923 54.9713C13.4317 55.1099 12.471 55.2486 11.3731 55.2486C10.4125 55.1099 9.45181 54.694 8.76562 54.0008C9.0401 54.8327 8.90286 55.6645 9.17734 56.4963C9.31457 56.7736 9.72629 56.9123 9.86352 57.0509C10.138 57.1895 10.4125 57.1895 10.6869 57.1895C15.7647 56.9122 20.7053 55.5259 25.2341 53.3076C26.4692 52.6144 27.8416 51.9212 28.665 50.6735C28.8023 50.3962 28.9395 50.1189 28.9395 49.8416C28.8023 49.4257 28.2533 49.2871 27.8416 49.2871C27.4299 49.2871 28.5278 49.2871 28.1161 49.1484L27.2926 50.2576Z" fill="#BCBBBA"/>
<path d="M10.408 57.1866C10.5453 57.1866 10.6825 57.1866 10.8197 57.1866C11.2314 57.1866 11.7804 57.1866 12.1921 57.048H12.3293C12.3293 57.048 12.3293 57.048 12.4666 57.048C12.6038 57.048 12.7411 57.048 12.8783 57.048C12.1921 57.1866 11.3687 57.1866 10.408 57.1866ZM10.408 57.1866C10.5453 57.1866 10.6825 57.1866 10.8197 57.1866C11.2314 57.1866 11.7804 57.1866 12.1921 57.048H12.3293C12.3293 57.048 12.3293 57.048 12.4666 57.048C12.6038 57.048 12.7411 57.048 12.8783 57.048C12.1921 57.1866 11.3687 57.1866 10.408 57.1866ZM10.408 57.1866C10.5453 57.1866 10.6825 57.1866 10.8197 57.1866C11.2314 57.1866 11.7804 57.1866 12.1921 57.048H12.3293C12.3293 57.048 12.3293 57.048 12.4666 57.048C12.6038 57.048 12.7411 57.048 12.8783 57.048C12.1921 57.1866 11.3687 57.1866 10.408 57.1866ZM10.408 57.1866C10.5453 57.1866 10.6825 57.1866 10.8197 57.1866C11.2314 57.1866 11.7804 57.1866 12.1921 57.048H12.3293C12.3293 57.048 12.3293 57.048 12.4666 57.048C12.6038 57.048 12.7411 57.048 12.8783 57.048C12.1921 57.1866 11.3687 57.1866 10.408 57.1866ZM10.408 57.1866C10.5453 57.1866 10.6825 57.1866 10.8197 57.1866C11.2314 57.1866 11.7804 57.1866 12.1921 57.048H12.3293C12.3293 57.048 12.3293 57.048 12.4666 57.048C12.6038 57.048 12.7411 57.048 12.8783 57.048C12.1921 57.1866 11.3687 57.1866 10.408 57.1866ZM37.7182 39.7181C37.581 39.5794 37.4438 39.5794 37.3065 39.5794C37.032 39.4408 36.8948 39.3021 36.6203 39.1635C36.8948 38.6089 37.1693 37.9157 37.4438 37.3612C36.4831 37.7771 36.0714 38.7476 36.6203 39.5794C36.0714 39.7181 35.3852 39.9953 34.5618 40.2726C35.1107 40.9658 34.8362 41.3817 34.2873 41.7977C33.3266 42.4908 32.366 43.3227 31.4053 43.8772C31.2681 43.8772 31.2681 44.0159 31.1308 44.0159C30.9936 43.8772 30.8564 43.7386 30.8564 43.7386C30.7191 43.6 30.5819 43.3227 30.3074 43.184C30.4447 43.3227 30.4447 43.4613 30.5819 43.6C30.7191 43.8772 30.8564 44.0159 30.9936 44.2932C30.8564 44.2932 30.8564 44.4318 30.7191 44.4318C30.4447 44.5704 30.1702 44.7091 30.0329 44.7091C29.8957 44.7091 29.8957 44.8477 29.7585 44.8477C29.3468 44.9864 29.0723 45.125 28.6606 45.4023C29.0723 45.5409 29.3468 45.6796 29.7585 45.6796C29.7585 46.2341 29.7585 46.7887 29.8957 47.3432C29.8957 47.4819 29.8957 47.6205 29.8957 47.8978C29.6212 47.6205 29.3468 47.3432 29.0723 47.066C29.0723 47.066 28.935 47.066 28.935 47.2046C29.0723 47.8978 29.2095 48.591 29.484 49.2842C28.6606 49.4228 28.5233 48.4524 27.9744 48.4524C27.151 49.5615 23.9945 49.2842 22.7594 49.2842C18.6423 48.591 14.3879 47.3432 11.2314 44.4318C10.8197 44.0159 10.2708 43.6 9.99632 43.0454C9.99632 43.0454 9.99632 42.9068 9.85908 42.9068C9.72184 42.7681 9.72184 42.7681 9.5846 42.6295C10.1336 41.9363 10.408 41.1045 10.957 40.4113C11.5059 39.3021 12.1921 38.4703 13.4272 38.0544C12.6038 37.3612 12.1921 38.0544 11.6432 38.0544C11.6432 37.3612 11.0942 36.2521 11.7804 35.6975C12.8783 35.2816 13.839 34.8657 14.9369 35.143C13.839 34.4498 12.8783 35.0043 11.7804 35.143C11.5059 33.202 15.3486 33.6179 16.4465 34.1725C14.9369 32.9247 13.4272 33.3406 11.7804 33.7566C11.5059 32.2315 10.6825 30.8451 11.6432 29.4587C12.1921 28.6269 11.3687 27.7951 12.1921 27.1019C12.6038 26.4087 13.4272 25.5768 13.29 24.6063C13.0155 23.4972 12.6038 22.2495 11.9176 21.279C11.7804 21.0017 11.6432 20.7244 11.5059 20.4472H11.9176H12.0549C11.9176 19.8926 11.7804 19.338 11.6432 18.9221C11.0942 17.5357 10.5453 16.1493 10.6825 14.6243C11.0942 14.9016 11.3687 15.1789 11.7804 15.5948C12.0549 11.5742 12.8783 7.83097 15.2113 4.64226C15.7603 3.81042 16.172 2.83995 16.172 1.73083C15.8975 1.86947 15.7603 2.00811 15.623 2.00811C15.7603 1.31491 16.172 0.621714 16.8582 0.344435C17.1326 0.205795 17.2699 0.205795 17.5444 0.205795C17.6816 0.205795 17.6816 0.205795 17.8188 0.205795H17.9561C17.9561 0.205795 18.0933 0.205795 18.0933 0.344435C19.8774 1.31491 20.2891 3.67178 21.2498 5.33546C22.2104 7.55369 22.3477 10.3265 23.5828 12.4061C25.0924 13.2379 23.4456 16.0107 24.4062 17.5357C25.0924 16.0107 24.8179 14.347 24.8179 12.822C24.8179 12.4061 24.8179 11.9902 24.8179 11.5742C24.8179 11.1583 24.6807 11.0197 24.4062 10.881C24.269 10.881 23.9945 10.881 23.8573 11.0197C23.1711 9.91056 22.8966 8.66281 22.7594 7.41505C22.4849 5.89002 21.5242 4.64226 20.9753 3.25586C20.7008 2.56267 20.2891 1.86947 19.6029 1.31491L19.4657 1.17627C18.2305 -0.071484 16.4465 -0.626042 15.3486 1.03763C15.3486 1.03763 15.2113 1.17627 15.2113 1.31491C15.2113 1.59219 14.9369 1.86947 14.7996 2.28539C14.5251 2.70131 14.2507 3.11722 13.9762 3.3945C12.1921 6.16729 10.5453 9.21736 10.408 12.5447C10.1336 12.822 9.85908 12.9606 9.72184 13.0993C9.44737 12.9606 9.17289 12.822 8.76118 12.822C8.48671 15.3175 9.44737 17.5357 10.5453 19.6153C9.85908 19.338 9.17289 19.0608 8.48671 18.9221V19.0608C8.76118 19.8926 11.5059 22.5268 12.1921 23.9132C12.3293 24.1904 12.4666 24.4677 12.3293 24.6063C11.6432 25.2995 10.957 26.1314 10.2708 26.8246C9.31013 27.6564 9.99632 28.3496 10.408 29.3201C10.2708 31.1224 10.957 33.8952 9.99632 35.2816C10.1336 35.143 10.2708 35.143 10.5453 35.0043C11.2314 36.2521 8.76118 36.5294 8.76118 38.193C9.44737 37.4998 9.99632 36.9453 10.6825 36.3907L10.8197 36.5294C10.6825 38.3317 10.2708 39.9953 8.89842 41.5204C9.03566 41.659 9.17289 41.659 9.44737 41.7977C9.03565 42.2136 8.76118 42.6295 8.62394 43.184C8.48671 43.6 8.34947 44.1545 8.21223 44.5704C8.07499 45.2636 7.93776 45.9568 7.80052 46.5114C7.52605 48.591 8.21223 50.8092 7.93776 52.8888V53.0275C7.93776 53.3047 7.93776 53.7207 8.075 53.9979C8.075 54.1366 8.21223 54.2752 8.34947 54.4138C8.62394 54.6911 8.76118 55.107 8.89842 55.6616C8.89842 55.6616 8.89842 55.6616 8.89842 55.8002C8.89842 55.9389 9.03566 56.0775 9.03566 56.3548C9.31013 56.9094 9.44737 57.4639 9.85908 57.8798C10.1336 58.0185 10.2708 58.1571 10.408 58.1571C10.6825 58.1571 11.0942 58.1571 11.3687 58.1571H11.5059C12.3293 58.1571 13.0155 58.1571 13.839 58.1571C14.6624 58.0185 15.3486 58.0185 16.172 57.8798C16.7209 57.7412 17.2699 57.7412 17.6816 57.4639C18.2305 57.1866 18.6423 56.9094 19.1912 56.7707C19.7402 56.4934 20.2891 56.4934 20.8381 56.2162H20.9753C21.1125 56.2162 21.2498 56.0775 21.5242 56.0775C21.5242 56.0775 21.5242 56.0775 21.6615 56.0775C21.9359 55.9389 22.2104 55.8002 22.4849 55.8002C22.8966 55.6616 23.3083 55.3843 23.72 55.2457C24.269 54.9684 24.6807 54.6911 25.0924 54.4138C25.3669 54.2752 25.6414 53.9979 25.9158 53.8593C26.0531 53.7207 26.1903 53.7207 26.3275 53.582L26.4648 53.4434C26.7393 53.3047 26.8765 53.1661 27.151 53.0275C27.151 53.0275 27.151 53.0275 27.2882 53.0275C27.5627 52.7502 27.9744 52.4729 28.2489 52.1956C28.7978 51.6411 29.3468 51.0865 29.6212 50.2547C29.6212 50.116 29.7585 49.9774 29.7585 49.8387C29.7585 49.7001 30.0329 49.5615 30.1702 49.5615C30.1702 49.0069 30.0329 48.4523 30.0329 47.8978C30.0329 47.3432 29.8957 46.9273 29.8957 46.3728V46.2341C29.8957 46.0955 29.8957 45.9568 29.8957 45.8182C29.8957 45.8182 30.0329 45.8182 30.0329 45.6796C30.4447 45.5409 30.7191 45.2636 31.1308 45.125C31.1308 45.125 31.2681 45.125 31.2681 44.9864C31.5426 44.8477 31.6798 44.7091 31.9543 44.5704C32.7777 44.0159 33.6011 43.3227 34.4245 42.6295C34.9735 42.2136 35.1107 42.0749 35.1107 41.5204C35.1107 41.3817 35.1107 41.1045 34.9735 40.8272C35.5224 40.6885 36.0714 40.5499 36.6203 40.4113C37.1693 39.8567 37.4437 39.8567 37.7182 39.7181ZM9.17289 42.7681C9.31013 42.9068 9.44737 43.0454 9.5846 43.184C13.9762 47.7592 20.9753 50.8092 27.2882 49.5615V50.3933C27.4254 50.116 27.6999 49.9774 27.8371 49.7001C27.8371 49.5615 27.9744 49.5615 28.1116 49.4228C28.1116 49.4228 28.2489 49.2842 28.2489 49.1455L28.3861 49.0069C28.3861 49.1455 28.3861 49.1455 28.3861 49.2842C28.3861 49.2842 28.3861 49.2842 28.3861 49.4228C28.3861 49.8387 28.1116 50.116 27.6999 50.5319L27.5627 50.6706C27.2882 50.9479 27.0137 51.0865 26.8765 51.3638C23.9945 53.4434 21.7987 54.8298 19.6029 55.6616C19.6029 55.6616 19.6029 55.6616 19.4657 55.6616C17.6816 56.3548 15.7603 56.7707 13.29 56.9094C13.1528 56.9094 13.1528 56.9094 13.0155 56.9094H12.8783C12.0549 56.9094 11.3687 57.048 10.408 57.048C10.408 57.048 10.408 57.048 10.2708 57.048H10.1336L9.99632 56.9094C9.99632 56.9094 9.99632 56.9094 9.85908 56.7707C9.5846 56.4934 9.44737 56.0775 9.31013 55.523C9.31013 55.523 9.31013 55.3843 9.31013 55.2457C9.17289 54.8298 9.03566 54.2752 9.03566 53.7206C8.76118 51.7797 8.76118 49.5615 8.62394 48.7296C9.99632 48.4524 11.3687 48.3137 12.7411 48.0364C12.7411 47.8978 12.7411 47.7592 12.7411 47.7592C11.2314 48.1751 9.85908 48.3137 8.62394 48.4524C8.48671 48.1751 8.48671 48.0364 8.48671 47.7592C8.21223 46.0955 8.76118 44.4318 9.17289 42.7681ZM10.408 57.1866C10.5453 57.1866 10.6825 57.1866 10.8197 57.1866C11.2314 57.1866 11.7804 57.1866 12.1921 57.048H12.3293C12.3293 57.048 12.3293 57.048 12.4666 57.048C12.6038 57.048 12.7411 57.048 12.8783 57.048C12.1921 57.1866 11.3687 57.1866 10.408 57.1866ZM10.408 57.1866C10.5453 57.1866 10.6825 57.1866 10.8197 57.1866C11.2314 57.1866 11.7804 57.1866 12.1921 57.048H12.3293C12.3293 57.048 12.3293 57.048 12.4666 57.048C12.6038 57.048 12.7411 57.048 12.8783 57.048C12.1921 57.1866 11.3687 57.1866 10.408 57.1866ZM10.408 57.1866C10.5453 57.1866 10.6825 57.1866 10.8197 57.1866C11.2314 57.1866 11.7804 57.1866 12.1921 57.048H12.3293C12.3293 57.048 12.3293 57.048 12.4666 57.048C12.6038 57.048 12.7411 57.048 12.8783 57.048C12.1921 57.1866 11.3687 57.1866 10.408 57.1866ZM10.408 57.1866C10.5453 57.1866 10.6825 57.1866 10.8197 57.1866C11.2314 57.1866 11.7804 57.1866 12.1921 57.048H12.3293C12.3293 57.048 12.3293 57.048 12.4666 57.048C12.6038 57.048 12.7411 57.048 12.8783 57.048C12.1921 57.1866 11.3687 57.1866 10.408 57.1866Z" fill="black"/>
<path d="M53.9149 24.3261C53.366 25.4352 52.6798 26.4057 51.8564 27.2376C51.0329 28.208 49.9351 29.1785 48.8372 30.0103C47.8765 30.8422 46.9158 31.674 45.9552 32.5059C45.8179 32.6445 45.6807 32.7831 45.5435 32.7831C45.6807 32.9218 45.8179 32.9218 45.9552 33.0604C46.0924 33.199 46.2296 33.199 46.3669 33.3377C46.2296 33.3377 46.2296 33.3377 46.0924 33.4763C45.8179 33.615 45.5435 33.615 45.4062 33.7536C44.5828 34.0309 43.7594 34.3082 42.936 34.5854C42.7987 34.5854 42.6615 34.5854 42.5242 34.7241C42.5242 34.8627 42.6615 34.8627 42.6615 35.0014C42.7987 35.2786 43.0732 35.4173 43.2104 35.5559C42.7987 35.6946 42.387 35.9718 41.9753 36.1105C40.6029 36.665 39.0933 37.081 37.5837 37.081C38.9561 35.9718 40.6029 35.8332 42.2498 35.4173C42.387 35.4173 42.5242 35.4173 42.6615 35.2786C42.5242 35.2786 42.5242 35.14 42.387 35.14C42.1125 35.0014 41.7008 34.8627 41.4263 34.7241C42.5242 33.8922 43.7594 33.7536 44.9945 33.3377C44.8573 33.199 44.72 33.0604 44.4456 32.7831C46.2297 31.2581 51.1702 27.7921 52.9543 24.8807C53.5032 23.9102 53.6405 23.0784 53.366 22.2465C53.2287 22.1079 52.9543 21.9692 52.817 21.8306C51.5819 21.2761 49.2489 21.4147 48.151 21.276C45.5435 21.276 42.7987 20.9988 40.3285 21.692C39.9167 21.8306 39.505 21.9692 39.0933 21.692C38.6816 21.5533 38.2699 22.2465 37.8582 22.3852C37.3092 22.8011 36.7603 23.0784 37.3092 23.9102C37.3092 23.9102 37.3092 24.0488 37.172 24.1875C36.0741 23.0784 35.1134 21.9692 33.8783 20.9988C33.1921 20.4442 32.5059 19.8897 31.8197 19.3351C30.4474 18.3646 28.9378 17.6714 27.2909 17.2555C27.2909 17.2555 27.1537 17.2555 27.0164 17.2555C26.4675 17.1169 26.0558 17.1169 25.5068 17.1169C25.6441 17.1169 25.9185 16.9782 26.193 16.9782C29.2122 16.7009 32.5059 19.1965 34.839 21.4147C35.3879 21.9692 35.9369 22.5238 36.4858 22.9397C36.8975 22.8011 37.4465 22.1079 37.8582 21.5533C38.2699 21.1374 38.6816 20.8601 38.9561 21.1374C39.2306 21.4147 39.3678 21.4147 39.6423 21.276C41.5636 20.5829 43.6221 20.5829 45.5435 20.7215C46.2296 20.8601 47.0531 20.8601 47.8765 20.8601C49.2489 20.8601 50.7585 20.8601 51.8564 21.276C53.5032 21.692 54.4639 22.5238 53.9149 24.3261Z" fill="black"/>
<path d="M21.3865 35.8371C25.3664 37.3621 25.7781 39.8576 21.1121 40.5508C18.5046 40.6895 18.5046 35.0053 21.3865 35.8371Z" fill="black"/>
<path d="M15.8989 26.5438C16.1734 26.2666 16.3106 26.4052 17.2713 27.237C18.3692 28.2075 19.4671 29.5939 19.3298 30.1485C18.5064 30.5644 14.801 26.8211 15.8989 26.5438Z" fill="black"/>
<path d="M30.5876 35.1509C31.9599 35.5668 33.8813 36.1214 32.6461 36.3986C31.1365 36.6759 29.3524 35.9827 28.2545 35.4282C27.4311 34.8736 29.3524 34.8736 30.5876 35.1509Z" fill="black"/>
<path d="M16.9988 41.0967C17.8222 43.1763 18.6456 43.0376 20.7042 43.1763C18.0967 40.1262 15.6264 42.0672 13.7051 37.0761C14.254 37.0761 14.803 36.9375 15.4892 36.9375V37.0761C15.2147 37.2148 14.9402 37.3534 14.6657 37.6307C15.2147 40.1262 17.2732 40.6808 19.3318 41.2353C19.469 40.958 19.6063 40.6808 19.7435 40.2648H19.8808C19.7435 41.0967 19.1946 41.2353 20.018 41.9285C21.2531 43.7308 23.4489 43.3149 25.233 42.899C25.233 42.7604 25.233 42.6217 25.0958 42.6217C25.5075 42.899 26.0564 43.0376 26.4681 43.3149V43.4536C26.1937 43.4536 25.9192 43.3149 25.6447 43.3149C24.9585 44.7013 23.5862 44.7013 20.7042 43.3149C19.6063 44.9786 16.8615 42.7604 16.7243 41.2353C16.8615 41.2353 16.8615 41.0967 16.9988 41.0967Z" fill="black"/>
<path d="M15.3516 19.8941C16.3122 17.8145 19.3314 17.9532 20.0176 15.4577C18.9197 15.319 17.8218 15.1804 16.8612 15.0417V14.9031C18.0963 14.7645 19.3314 15.5963 20.5666 14.9031C20.7038 14.7645 21.1155 15.0417 21.39 15.1804C21.6645 13.6553 18.0963 14.6258 17.1356 14.2099C18.3708 13.9326 19.8804 14.2099 21.2528 14.2099C20.841 12.8235 20.5666 11.2985 20.1549 9.91208C20.1549 9.91208 20.2921 9.91208 20.2921 9.77344C21.2528 11.853 21.6645 14.2099 22.0762 16.5668L21.9389 16.7054C21.6645 16.2895 21.39 15.8736 20.9783 15.5963C20.841 15.7349 20.5666 15.8736 20.5666 16.1509C19.8804 18.3691 17.4101 19.0623 15.626 20.1714C15.3516 20.0328 15.3516 19.8941 15.3516 19.8941Z" fill="black"/>
<path d="M44.4451 27.5186C43.0728 27.2413 41.5632 27.1027 40.0536 26.8254C39.9163 27.5186 39.2301 28.3505 39.2301 29.1823C39.0929 30.4301 39.7791 31.6778 39.2301 32.7869C38.6812 31.4005 39.2301 30.2914 38.6812 29.0437C38.5439 28.2118 39.2301 27.38 39.3674 26.5481C39.0929 26.4095 38.9557 26.2709 38.5439 26.1322C40.1908 25.1618 41.7004 24.1913 43.3472 23.6367C43.3472 23.7754 43.4845 23.7754 43.4845 23.914C42.5238 24.4686 41.7004 24.8845 40.7397 25.5777C42.1121 25.855 43.4845 26.1322 44.7196 26.4095C44.7196 26.4095 44.7196 26.4095 44.7196 26.5481C43.0728 26.4095 41.4259 25.8549 39.7791 25.9936C40.4653 27.38 43.0728 26.4095 44.4451 27.5186Z" fill="black"/>
<path d="M23.3121 27.2344C23.861 28.7594 22.2142 30.839 20.8418 31.2549C21.6652 30.0072 22.4886 28.6208 23.3121 27.2344Z" fill="black"/>
<path d="M13.0168 42.3516C13.4285 42.3516 13.5657 42.3516 13.703 42.7675C13.8402 43.5993 14.5264 44.1539 14.8009 44.9857C14.3892 44.7084 13.8402 44.5698 13.4285 44.2925C13.4285 44.2925 13.4285 44.2925 13.2913 44.4312C13.8402 44.8471 14.3892 45.4016 14.9381 45.9562C14.9381 45.9562 14.9381 45.9562 14.8009 46.0948C13.9774 45.4016 13.154 44.8471 12.1934 44.1539C12.6051 43.4607 13.4285 44.4312 14.1147 44.7084C13.703 43.8766 12.8795 43.322 13.0168 42.3516Z" fill="black"/>
<path d="M26.4666 34.8662C26.0549 32.7866 26.7411 30.4297 27.7018 30.5683C27.29 31.9547 26.8783 33.3411 26.4666 34.8662Z" fill="black"/>
<path d="M24.4115 31.5337C24.4115 32.5041 24.4115 33.336 23.5881 33.8905C23.8625 34.0292 23.9998 34.1678 24.2743 34.4451C23.7253 34.5837 23.7253 34.5837 22.7646 33.8905C23.7253 33.4746 23.8625 32.3655 24.137 31.5337C24.2743 31.395 24.4115 31.395 24.4115 31.5337Z" fill="black"/>
<path d="M28.6648 20.0232C29.0765 20.855 29.3509 20.9937 28.253 21.4096L28.1158 21.2709C29.2137 20.1618 28.2531 20.5777 27.7041 19.6073C28.2531 19.6073 28.9392 19.7459 29.6254 19.7459C29.2137 19.4686 28.802 19.1913 28.5275 19.0527C28.5275 19.0527 28.5275 19.0527 28.5275 18.9141C29.2137 19.1913 29.7627 19.6073 30.4488 19.8845V20.0232C29.7627 20.0232 29.2137 20.0232 28.6648 20.0232Z" fill="black"/>
<path d="M33.0575 33.0626C31.8224 32.9239 30.45 32.2308 29.3521 32.9239C29.2149 32.9239 29.0777 32.9239 28.9404 32.9239C29.4894 31.3989 32.0969 32.2308 33.0575 33.0626Z" fill="black"/>
<path d="M31.5462 41.3795C29.6249 40.2704 27.8408 39.8544 25.7822 40.1317C26.6056 39.2999 30.1738 40.1317 31.5462 41.3795Z" fill="black"/>
<path d="M27.2939 42.4922C28.5291 43.4627 28.5291 45.4036 27.2939 46.5127C27.7057 45.1263 27.9801 43.8786 27.2939 42.4922Z" fill="black"/>
<path d="M30.4501 42.8979C29.215 41.9274 27.8426 41.5115 26.333 40.9569C27.1564 40.541 29.4895 41.7888 30.4501 42.8979C30.4501 42.8979 30.3129 42.8979 30.4501 42.8979Z" fill="black"/>
<path d="M20.1517 28.0698C19.74 27.3766 19.191 26.5448 18.7793 25.8516C19.6027 26.2675 20.1517 27.0993 20.4261 27.9312C20.1517 27.9312 20.1517 27.9312 20.1517 28.0698Z" fill="black"/>
<path d="M13.5655 49.5651C11.9187 49.8424 10.4091 50.1197 8.625 49.8424C9.58566 49.4265 12.8794 49.1492 13.5655 49.5651Z" fill="black"/>
<path d="M20.9781 36.953C21.1154 36.953 21.2526 36.953 21.3898 36.953C22.076 37.0916 22.625 37.5076 23.0367 38.0621C23.1739 38.2008 23.3111 38.2008 23.3111 38.0621C23.4484 37.9235 23.4484 37.7848 23.3111 37.7848C22.8994 37.2303 22.076 36.6757 21.3898 36.5371C21.2526 36.5371 21.1154 36.5371 20.8409 36.3984C20.7036 36.3984 20.5664 36.5371 20.5664 36.6757C20.8409 36.8144 20.8409 36.8144 20.9781 36.953Z" fill="white"/>
<path d="M58.0343 50.2576C57.7598 50.2576 57.4854 50.3962 57.2109 50.3962C55.7013 50.5348 54.3289 50.6735 52.9565 51.0894C51.8586 51.3667 50.6235 51.5053 49.3884 51.6439C48.9766 51.6439 48.7022 51.3667 48.8394 50.9508C48.8394 50.8121 48.9766 50.6735 49.1139 50.6735C49.2511 50.5348 49.5256 50.5348 49.6628 50.5348C51.0352 50.2576 52.4076 49.9803 53.7799 49.703C54.7406 49.5644 55.7013 49.4257 56.6619 49.1484C57.6226 49.1484 57.7598 49.1484 58.0343 50.2576Z" fill="black"/>
<path d="M52.1303 41.7891C52.4048 42.3436 52.2675 42.7595 51.8558 43.1755C51.4441 43.73 50.8952 44.1459 50.4835 44.7005C49.66 45.671 48.8366 46.5028 48.0132 47.4733C47.876 47.6119 47.876 47.6119 47.7387 47.7506C47.4642 48.0278 47.1898 48.0278 47.0525 47.8892C46.7781 47.7506 46.7781 47.4733 47.0525 47.196C47.1898 47.0574 47.327 46.9187 47.4643 46.7801C48.6994 45.5323 49.7973 44.2846 50.7579 43.0368C51.0324 42.7595 51.3069 42.4823 51.5814 42.0663C51.7186 41.9277 51.9931 41.7891 52.1303 41.7891Z" fill="black"/>
<path d="M45.5437 38.6016C45.4065 39.0175 45.2692 39.4334 45.132 39.7107C44.9948 40.2652 44.8575 40.8198 44.583 41.3744C44.1713 42.6221 43.8969 43.8699 43.4851 45.1176C43.3479 45.3949 43.3479 45.5335 43.0734 45.5335C42.799 45.5335 42.6617 45.2563 42.799 44.979C42.799 44.7017 42.9362 44.4244 42.9362 44.1471C43.3479 42.4835 43.8969 40.9584 44.4458 39.2948C44.583 38.7402 44.7203 38.6016 45.5437 38.6016Z" fill="black"/>
<path d="M47.6053 70.0812C47.6053 70.0812 46.5074 69.6653 45.2722 69.8039C44.0371 69.9426 40.7434 71.0517 40.7434 71.0517C40.7434 71.0517 38.6849 72.2994 38.1359 75.9041L37.587 74.5177L36.9008 72.5767L35.9401 68.2789L34.5677 61.7628C34.5677 61.7628 33.6071 57.1877 31.823 58.5741C30.1762 59.9605 30.1762 61.4856 30.3134 64.1197C30.4506 66.7539 32.5092 73.6858 32.5092 73.6858L34.5677 81.7269C34.5677 81.7269 35.2539 84.3611 36.7635 83.5292C38.4104 82.6974 38.8221 81.311 40.6062 81.5883C42.3903 81.8656 45.5467 82.1428 45.5467 82.1428C45.5467 82.1428 50.35 81.1724 51.1734 80.4792C51.9969 79.6473 53.7809 78.8155 53.7809 78.8155C53.7809 78.8155 51.4479 77.0132 49.8011 74.379C48.8404 73.2699 50.7617 70.6358 47.6053 70.0812Z" fill="white"/>
<path d="M31.8177 71.0574C31.955 70.9188 32.0922 70.7801 32.0922 70.5029C32.3667 68.5619 32.6412 66.6209 33.1901 64.68C33.4646 63.7095 33.7391 62.8777 34.0135 61.9072C34.288 60.5208 34.4253 57.748 32.5039 57.6094C31.955 57.6094 31.5433 57.748 30.9943 57.8867C30.8571 58.1639 30.7198 58.4412 30.5826 58.8571C30.4454 59.4117 30.4454 59.8276 30.4454 60.3822C30.4454 60.9367 30.3081 61.3526 30.1709 61.9072C30.1709 62.739 30.1709 63.5709 30.3081 64.2641C30.4454 65.5118 30.7198 66.8982 30.8571 68.146C30.8571 68.5619 31.1316 71.3347 31.8177 71.0574Z" fill="#BCBBBA"/>
<path d="M46.2314 83.108C47.1921 82.9694 48.1528 82.6921 49.1134 82.2762C49.3879 82.1375 49.5251 82.1375 49.6624 81.9989C48.29 81.7216 46.6432 81.8603 46.2314 83.108Z" fill="#BCBBBA"/>
<path d="M40.8774 82.2795C42.387 82.5567 44.1711 82.4181 45.5434 83.1113C45.5434 83.1113 45.5434 83.2499 45.6807 83.2499C45.8179 83.2499 45.9551 83.2499 46.0924 83.1113C46.2296 83.1113 46.3668 83.1113 46.6413 82.9727L46.5041 82.834C47.8765 82.4181 49.2488 81.8635 50.6212 81.4476C51.5819 80.8931 52.4053 80.3385 53.3659 79.9226C53.7777 79.6453 54.4638 79.5067 54.8755 79.2294C54.8755 79.0908 54.4638 79.0908 54.4638 78.9521C52.9542 79.0908 51.5819 80.1999 50.0722 80.7544C47.3275 81.8635 44.5828 82.2795 41.7008 81.5863C39.7795 81.0317 38.1326 82.0022 36.4858 82.9727C34.4272 83.9431 33.4666 74.2384 32.6431 72.7133C31.8197 69.9405 30.4473 66.6132 30.4473 63.7018L30.9963 64.2563C31.408 64.8109 31.8197 65.2268 32.2314 65.7814C32.2314 65.7814 32.2314 65.7814 32.3687 65.7814C32.0942 65.3654 31.2708 64.2563 30.9963 63.7018C31.408 63.8404 32.2314 64.6722 32.3687 64.8109C32.6431 63.0086 29.4867 63.7018 30.3101 61.8995C31.1335 62.5927 32.5059 63.5631 33.3293 64.2563L33.4666 64.1177C32.6431 63.4245 31.2708 62.1767 30.4473 61.4835C30.5846 61.2063 30.5846 60.5131 30.859 60.5131C31.408 60.5131 32.5059 61.3449 32.5059 61.3449C32.6431 60.5131 31.2708 60.0971 30.859 59.6812C34.1527 55.1061 35.7996 72.9906 37.0347 74.5156L37.3092 74.377C37.172 74.2384 36.0741 68.9701 35.9368 68.6928C35.2506 67.0291 35.3879 66.0586 35.1134 64.2563C34.9762 63.7018 34.7017 62.8699 34.7017 62.1767C34.5644 61.7608 34.5644 61.0676 34.4272 60.6517C34.0155 59.6812 34.1527 58.7107 32.9176 58.0175C32.7804 57.8789 32.6431 57.8789 32.5059 57.8789V58.0175C32.0942 57.8789 31.8197 57.8789 31.408 57.8789H31.2708C29.4867 58.4335 29.075 62.1767 29.6239 63.979C29.7611 64.5336 29.3494 65.2268 29.8984 65.7814C30.4473 67.861 30.859 69.9405 31.408 72.0201C31.6825 73.9611 32.2314 75.7634 32.7804 77.5657C33.741 79.9226 33.6038 83.2499 35.9368 84.4977C37.4464 85.1909 39.0933 82.1408 40.8774 82.2795Z" fill="black"/>
<path d="M39.2305 72.8487C39.2305 73.4033 39.0933 73.8192 39.0933 74.3738C39.2305 74.3738 39.2305 74.3738 39.3677 74.3738C39.9167 70.9078 41.1518 71.601 43.7593 70.7691C44.8572 70.4919 46.2296 69.5214 47.1902 70.3532C47.3275 70.4919 47.602 70.6305 47.7392 70.6305C47.8764 70.3532 48.5626 70.3532 48.2881 69.66C48.2881 69.5214 48.1509 69.3827 48.0137 69.2441C47.7392 69.1055 47.3275 69.1055 47.053 69.1055C46.7785 69.1055 46.5041 69.1055 46.2296 69.1055C46.0924 69.1055 46.0923 69.2441 45.9551 69.3827C41.838 69.66 38.956 70.0759 38.1326 75.2056H37.9954L37.8581 74.5124L37.4464 73.9579C37.4464 73.8192 36.8975 73.6806 36.8975 73.5419L37.9954 76.4534C38.4071 75.2056 38.8188 73.9578 39.2305 72.8487Z" fill="black"/>
</svg>
