<svg width="69" height="81" viewBox="0 0 69 81" fill="none" xmlns="http://www.w3.org/2000/svg">
<circle cx="34.5" cy="40.5" r="34.5" fill="#129D6F" fill-opacity="0.8"/>
<g clip-path="url(#clip0_12765_8894)">
<path d="M16.3503 71.551C16.3503 71.551 14.7003 65.851 15.1503 64.501C15.1503 64.501 13.9503 61.951 14.1003 59.851L13.5003 59.401C13.5003 59.401 10.2003 53.851 10.0503 52.801C9.90029 51.751 8.10029 43.051 9.15029 39.451L8.40029 37.501L9.45029 36.901L8.55029 35.401L5.55029 31.201C5.55029 31.201 2.70029 29.101 4.80029 20.551L5.40029 19.651C5.40029 19.651 3.75029 12.301 4.50029 8.10104C5.25029 3.90104 7.20029 0.751038 9.00029 0.601038C10.8003 0.451038 14.1003 1.80104 16.6503 5.10104C19.2003 8.40104 21.9003 16.201 21.9003 16.201L23.2503 19.651C23.2503 19.651 25.3503 19.051 29.1003 19.051C32.8503 19.051 38.7003 19.651 38.7003 19.651L46.6503 21.001L47.7003 18.901C47.7003 18.901 59.4003 5.25104 63.3003 5.70104C67.2003 6.15104 67.3503 6.15104 66.0003 20.251L64.9503 26.101C64.9503 26.101 67.2003 30.601 64.2003 33.901C61.2003 37.201 57.3003 41.401 57.3003 41.401L57.6003 46.651L55.8003 59.101L56.5503 60.001C56.5503 60.001 51.1503 74.851 45.9003 75.451C40.6503 76.051 16.3503 71.551 16.3503 71.551Z" fill="white"/>
<path d="M18.7499 73.6492C19.3499 74.2492 20.0999 74.8492 20.3999 75.7492C20.5499 76.1992 20.5499 76.6492 20.6999 77.0992C21.1499 78.5992 23.2499 79.1992 24.4499 78.1492C24.8999 77.6992 25.1999 77.2492 25.6499 76.7992C26.0999 76.3492 26.9999 76.3492 27.2999 76.7992C27.4499 76.9492 27.4499 77.2492 27.5999 77.3992C27.7499 77.5492 27.8999 77.5492 28.0499 77.5492C29.5499 77.8492 31.0499 78.1492 32.3999 78.2992C32.6999 78.2992 32.9999 78.2992 33.2999 78.2992C33.5999 78.1492 33.7499 77.9992 33.8999 77.8492C34.6499 77.2492 35.6999 77.6992 36.4499 77.9992C37.7999 78.5992 39.1499 79.3492 40.4999 79.9492C40.9499 80.0992 41.5499 80.3992 41.8499 80.0992C42.4499 79.6492 42.1499 78.5992 42.2999 77.9992C42.4499 77.3992 43.1999 76.9492 43.7999 76.6492C47.3999 74.5492 50.5499 71.6992 52.9499 68.3992C54.7499 65.8492 56.3999 62.6992 55.6499 59.6992C53.0999 61.3492 50.3999 63.1492 48.7499 65.8492C48.5999 66.1492 48.4499 66.4492 48.1499 66.5992C47.8499 66.7492 47.6999 66.7492 47.3999 66.8992C45.5999 67.1992 43.7999 67.1992 42.1499 66.8992C41.6999 66.8992 41.3999 66.7492 40.9499 66.8992C40.4999 67.0492 40.0499 67.3492 39.5999 67.6492C35.9999 70.6492 30.4499 71.0992 26.3999 68.6992C25.1999 67.9492 24.1499 67.0492 22.6499 66.8992C21.5999 66.7492 20.5499 67.0492 19.4999 67.0492C18.1499 67.0492 14.9999 65.2492 15.4499 67.9492C16.0499 70.1992 17.3999 72.1492 18.7499 73.6492Z" fill="white"/>
<path d="M17.3998 69.1508C18.1498 69.3008 18.8998 69.1508 19.7998 69.0008C21.5998 68.8508 23.3998 69.6008 24.7498 70.8008C26.0998 72.0008 26.8498 73.9508 26.8498 75.7508C27.2998 75.6008 27.5998 75.0008 27.5998 74.4008C27.5998 73.9508 27.5998 73.3508 27.5998 72.7508C27.7498 72.3008 28.3498 71.7008 28.7998 72.0008C29.2498 72.1508 29.3998 72.7508 29.6998 73.0508C30.1498 73.5008 31.0498 73.3508 31.6498 73.3508C32.3998 73.5008 32.9998 73.9508 33.4498 74.7008C33.8998 75.3008 34.0498 76.0508 34.3498 76.8008C34.6498 75.7508 34.7998 74.7008 35.0998 73.6508C35.0998 73.3508 35.2498 73.0508 35.5498 72.9008C35.9998 72.6008 36.4498 72.9008 36.7498 73.3508C37.0498 73.8008 37.1998 74.2508 37.4998 74.4008C37.9498 74.8508 38.6998 74.8508 39.2998 74.5508C39.8998 74.4008 40.4998 74.1008 41.0998 73.9508C41.6998 73.9508 42.4498 74.1008 42.7498 74.7008C42.7498 73.3508 44.0998 72.3008 45.2998 71.5508C46.3498 70.6508 47.3998 69.7508 48.4498 68.8508C50.6998 66.7508 53.0998 64.5008 54.4498 61.8008C53.2498 63.4508 52.0498 65.1008 50.5498 66.3008C48.8998 67.5008 46.9498 68.2508 44.9998 67.8008C43.6498 67.5008 42.4498 66.7508 41.2498 66.9008C40.0498 67.0508 39.1498 67.9508 38.0998 68.7008C36.2998 70.0508 33.8998 70.8008 31.6498 70.6508C29.3998 70.5008 27.1498 69.6008 25.3498 68.1008C24.2998 67.2008 23.3998 66.0008 22.0498 66.0008C21.2998 66.0008 20.5498 66.3008 19.7998 66.6008C19.0498 66.9008 18.1498 67.0508 17.5498 66.4508C17.2498 66.1508 17.0998 65.8508 16.7998 65.5508C16.4998 65.2508 16.1998 65.1008 15.7498 65.2508C15.2998 65.4008 15.2998 65.8508 15.2998 66.3008C15.2998 66.6008 15.5998 66.9008 15.7498 67.2008C15.8998 67.5008 15.7498 67.6508 15.8998 67.9508C16.1998 68.7008 16.7998 69.0008 17.3998 69.1508Z" fill="#BCBBBA"/>
<path d="M48.1502 52.3492C47.1002 51.1492 46.6502 49.4992 45.9002 48.1492C44.7002 46.1992 43.2002 44.6992 41.5502 43.1992C40.9502 42.7492 40.3502 42.1492 39.7502 41.6992C39.1502 41.2492 38.5502 41.0992 37.8002 40.7992C36.3002 40.3492 34.6502 40.1992 33.1502 40.1992C31.2002 40.1992 29.2502 40.4992 27.3002 40.6492C26.4002 40.7992 25.3502 40.9492 24.4502 41.3992C22.8002 42.1492 21.7502 43.4992 20.7002 44.8492C20.1002 45.4492 19.6502 46.3492 19.2002 47.0992C18.9002 47.5492 18.7502 47.8492 18.4502 48.1492C18.3002 48.4492 17.7002 48.8992 17.7002 49.1992C17.5502 53.0992 14.8502 56.3992 15.0002 60.2992C15.0002 62.0992 15.6002 63.8992 16.3502 65.6992C16.5002 65.9992 16.6502 66.2992 16.8002 66.5992C17.1002 66.8992 17.4002 66.8992 17.7002 67.0492C19.6502 67.3492 21.6002 66.7492 23.5502 67.1992C25.6502 67.6492 27.4502 69.2992 29.5502 69.7492C30.6002 70.0492 31.8002 69.8992 32.8502 69.7492C34.0502 69.5992 35.4002 69.5992 36.6002 68.9992C37.2002 68.6992 37.8002 68.2492 38.4002 67.9492C40.0502 67.0492 42.0002 67.0492 43.9502 66.8992C45.9002 66.7492 47.8502 66.2992 49.0502 64.9492C50.8502 62.9992 50.4002 59.8492 49.5002 57.4492C49.2002 55.7992 48.4502 53.9992 48.1502 52.3492Z" fill="#BCBBBA"/>
<path d="M56.2504 59.4016C57.3004 55.8016 58.5004 52.0516 58.2004 48.1516C57.4504 43.2016 57.9004 38.5516 56.4004 33.6016C56.5504 39.0016 57.3004 43.8016 57.7504 48.9016C57.3004 54.3016 56.1004 59.1016 51.7504 62.5516C50.7004 59.1016 50.2504 55.5016 47.2504 53.2516C45.0004 51.3016 44.8504 48.1516 41.8504 46.6516C43.0504 48.0016 44.4004 49.2016 45.0004 51.1516C44.5504 50.8516 44.1004 50.7016 43.6504 50.4016C43.6504 50.4016 43.5004 50.5516 43.5004 50.7016C45.1504 52.5016 47.5504 53.7016 48.6004 56.1016C49.2004 58.6516 50.8504 61.3516 49.8004 63.9016C48.1504 67.0516 43.0504 68.8516 40.2004 64.3516C38.2504 61.3516 36.0004 58.6516 33.0004 56.7016C33.0004 55.9516 33.0004 55.3516 33.1504 54.6016C33.1504 54.6016 33.0004 54.6016 33.0004 54.4516C31.6504 58.0516 27.0004 58.3516 25.5004 61.9516C24.1504 65.1016 17.7004 69.1516 16.3504 64.3516C13.9504 62.8516 16.2004 58.2016 16.3504 55.9516C16.2004 55.9516 16.0504 55.8016 15.9004 55.8016C14.8504 56.8516 14.2504 57.7516 13.8004 59.2516C12.9004 57.4516 12.1504 55.8016 11.2504 54.3016C12.7504 52.5016 14.2504 50.8516 15.7504 49.2016C15.6004 49.2016 15.6004 49.0516 15.4504 48.9016C14.1004 50.5516 12.6004 52.0516 11.1004 53.8516C9.75039 49.3516 9.15039 45.0016 10.2004 40.3516C10.5004 39.1516 9.90039 38.5516 9.45039 37.6516C9.75039 37.6516 10.0504 37.6516 10.2004 37.5016C10.0504 36.4516 9.75039 35.7016 8.55039 35.4016C8.55039 36.0016 8.70039 36.4516 8.70039 36.9016C8.40039 36.9016 8.10039 36.9016 7.65039 37.0516C8.40039 37.9516 9.00039 38.5516 8.85039 39.9016C8.25039 43.3516 8.25039 46.9516 9.00039 50.4016C9.60039 54.1516 12.4504 57.0016 13.8004 60.3016C13.8004 61.8016 14.2504 63.0016 14.7004 64.0516C13.9504 66.0016 14.5504 67.8016 13.8004 69.4516C14.1004 69.6016 14.2504 69.7516 14.5504 69.9016L14.8504 70.2016C15.0004 70.3516 15.3004 70.6516 15.4504 70.8016C15.9004 71.2516 16.0504 71.8516 16.0504 72.4516C17.8504 74.1016 20.4004 74.1016 19.9504 77.4016C19.8004 79.6516 22.2004 79.6516 24.0004 79.3516C24.4504 78.9016 25.2004 78.7516 25.9504 78.7516C26.4004 78.0016 26.8504 77.2516 27.3004 76.5016C28.3504 78.9016 30.7504 78.7516 32.8504 79.0516C34.6504 79.0516 34.6504 79.0516 35.4004 77.5516C36.7504 78.1516 37.8004 78.9016 38.7004 79.9516C39.4504 79.8016 40.3504 79.9516 40.8004 80.5516L40.9504 80.7016L41.1004 80.8516C43.6504 81.6016 43.5004 79.8016 43.8004 76.9516C46.2004 76.9516 48.3004 75.9016 50.1004 74.5516C50.8504 73.6516 51.4504 72.9016 52.2004 72.0016C53.5504 70.3516 54.9004 68.5516 55.8004 66.7516C56.2504 65.8516 56.5504 64.9516 57.0004 64.0516C57.1504 63.3016 57.4504 62.7016 57.4504 61.9516C57.4504 61.5016 57.4504 61.2016 57.4504 60.7516C57.1504 60.3016 57.0004 59.8516 56.7004 59.4016C56.4004 59.4016 56.4004 59.4016 56.2504 59.4016ZM34.2004 77.1016C33.0004 76.6516 31.9504 76.2016 30.7504 75.9016C31.2004 75.4516 31.8004 75.1516 32.4004 74.7016C32.2504 74.5516 32.2504 74.4016 32.1004 74.2516C30.9004 75.0016 29.5504 75.6016 28.3504 76.3516C28.3504 76.2016 28.2004 76.2016 28.2004 76.0516C29.2504 75.3016 30.1504 74.4016 31.2004 73.6516C31.2004 73.5016 31.0504 73.3516 30.9004 73.3516C30.0004 73.9516 29.1004 74.5516 28.0504 75.1516C28.2004 73.8016 28.2004 72.7516 28.3504 71.4016C28.2004 71.4016 27.9004 71.4016 27.6004 71.2516C27.0004 73.0516 27.6004 75.3016 25.6504 76.5016C24.3004 77.2516 22.9504 78.1516 21.3004 77.7016C20.4004 75.4516 22.9504 74.7016 24.3004 73.3516C24.3004 73.3516 24.1504 73.2016 24.1504 73.0516C23.2504 73.6516 22.3504 74.2516 21.1504 75.0016C21.7504 73.2016 23.5504 72.7516 24.0004 71.1016C23.2504 71.7016 22.3504 72.3016 21.6004 73.0516C21.6004 73.0516 21.4504 73.0516 21.4504 72.9016C21.7504 71.4016 21.9004 69.9016 22.2004 68.4016C19.9504 67.5016 20.2504 73.0516 19.8004 74.5516C17.1004 72.4516 16.2004 69.1516 15.9004 65.8516C19.2004 69.9016 23.5504 67.6516 25.9504 63.9016C27.7504 60.9016 30.4504 59.2516 32.8504 57.3016C36.4504 59.4016 38.2504 63.1516 40.8004 66.3016C36.6004 68.5516 32.4004 72.0016 27.4504 69.1516C28.8004 67.8016 30.0004 66.4516 31.3504 65.1016L31.2004 64.9516C26.7004 67.9516 29.1004 70.6516 23.7004 67.0516C25.6504 69.7516 29.1004 70.8016 32.1004 72.1516C32.5504 72.3016 33.0004 72.1516 33.4504 72.0016C35.5504 71.1016 34.0504 75.7516 34.2004 77.1016ZM46.8004 73.5016C46.2004 71.8516 46.8004 70.2016 45.9004 68.7016C45.7504 68.7016 45.7504 68.7016 45.6004 68.7016V74.1016H45.4504C45.0004 72.7516 45.4504 69.6016 44.5504 69.0016C43.8004 70.9516 45.4504 73.6516 43.8004 75.1516C43.8004 73.2016 43.8004 71.2516 43.8004 69.3016C43.8004 68.4016 43.8004 68.4016 42.7504 67.8016C42.3004 70.6516 42.1504 73.6516 41.7004 76.5016C40.8004 80.1016 37.3504 76.8016 35.1004 76.5016C34.9504 74.7016 35.8504 73.0516 34.6504 71.4016C37.0504 70.2016 40.2004 69.6016 41.1004 66.3016C41.7004 66.7516 42.4504 67.0516 43.0504 67.5016C45.0004 69.0016 49.9504 67.6516 51.0004 65.2516C52.8004 63.4516 54.9004 61.9516 56.1004 59.7016C55.6504 64.3516 50.2504 70.8016 46.8004 73.5016Z" fill="black"/>
<path d="M33.1504 44.1006C36.1504 43.5006 40.5004 46.5006 37.6504 49.6506C36.3004 50.7006 35.1004 53.7006 33.0004 52.8006C28.8004 49.9506 25.0504 44.2506 33.1504 44.1006Z" fill="black"/>
<path d="M22.8001 18.4508C19.8001 13.3508 19.2001 6.30083 13.8001 3.00083C9.00014 -1.94917 4.65014 4.35083 4.80014 9.30083C4.95014 11.5508 4.95014 13.8008 5.10014 16.2008C6.15014 15.0008 7.05014 13.9508 7.80014 12.9008C7.95014 12.9008 7.95014 13.0508 8.10014 13.0508C7.35014 14.2508 6.60014 15.3008 5.70014 16.5008C5.70014 16.5008 5.70014 16.5008 5.85014 16.6508C6.75014 15.6008 7.65014 14.7008 8.55014 13.6508C8.70014 13.6508 8.70014 13.8008 8.85014 13.8008C8.25014 14.7008 7.50014 15.6008 7.05014 16.5008C6.60014 17.4008 5.25014 17.7008 5.55014 19.2008C6.75014 17.8508 7.95014 16.5008 9.00014 15.3008L9.15014 15.4508C8.25014 17.1008 6.90014 18.3008 5.70014 19.6508C6.15014 20.8508 6.60014 22.0508 7.20014 23.2508H7.05014C6.60014 22.5008 6.15014 21.7508 5.70014 20.8508C3.00014 26.5508 4.80014 30.1508 8.25014 34.8008C3.30014 29.4008 2.70014 26.5508 4.65014 19.5008C5.10014 19.6508 5.25014 19.8008 5.55014 19.9508C4.80014 18.6008 4.35014 17.1008 4.35014 15.6008C4.20014 10.9508 3.00014 5.25083 6.60014 1.05083C9.90014 -2.54917 16.3501 4.05083 18.3001 7.05083C20.1001 10.6508 22.2001 14.4008 23.1001 18.4508C22.9501 18.4508 22.9501 18.4508 22.8001 18.4508Z" fill="black"/>
<path d="M65.2504 26.7023C64.6504 27.3023 64.2004 28.0523 63.4504 28.3523C66.1504 22.2023 66.6004 15.3023 66.9004 8.70233C66.1504 2.40233 56.2504 9.15233 54.6004 12.1523C52.5004 14.5523 50.2504 18.0023 47.4004 19.2023C51.9004 14.2523 54.7504 7.05233 61.8004 5.55233C65.7004 4.65233 68.5504 7.35233 68.1004 11.4023C67.2004 16.5023 67.0504 21.7523 65.2504 26.7023Z" fill="black"/>
<path d="M50.2505 40.2002C49.6505 44.7002 43.6505 43.5002 42.9005 39.6002C42.3005 33.7502 50.2505 35.1002 50.2505 40.2002Z" fill="black"/>
<path d="M20.3998 41.9992C15.7498 41.5492 14.9998 35.5492 19.7998 34.9492C23.2498 35.0992 24.7498 41.6992 20.3998 41.9992Z" fill="black"/>
<path d="M49.3502 21.6C49.8002 22.05 50.2502 22.65 50.8502 23.1C50.8502 23.1 50.7002 23.25 50.7002 23.4C46.9502 21.75 43.2002 20.1 39.0002 20.55C33.1502 20.4 26.8502 18.6 21.4502 21C24.3002 16.05 35.2502 19.65 40.2002 19.35C42.9002 19.5 45.4502 19.8 47.8502 20.7C49.5002 20.55 50.7002 18.75 52.0502 18C52.0502 18 52.2002 18.15 52.3502 18.3C51.4502 19.65 49.5002 20.25 49.3502 21.6Z" fill="black"/>
<path d="M16.3503 41.1021C16.9503 42.3021 17.8503 43.3521 18.3003 44.7021L18.1503 44.8521C13.8003 42.1521 13.6503 34.3521 19.2003 33.0021C21.3003 32.5521 24.0003 33.6021 24.3003 36.6021C20.4003 29.4021 13.6503 34.9521 16.3503 41.1021Z" fill="black"/>
<path d="M42.2998 37.3521C42.5998 34.3521 45.2998 33.3021 47.3998 33.7521C52.9498 35.1021 52.7998 42.9021 48.4498 45.6021L48.2998 45.4521C48.7498 44.1021 49.6498 43.0521 50.2498 41.8521C53.0998 35.8521 46.3498 30.3021 42.2998 37.3521Z" fill="black"/>
<path d="M29.25 43.0507C24.9 44.7007 24 49.8007 20.55 52.5007C19.8 49.6507 26.55 42.0007 29.25 42.7507C29.25 42.9007 29.25 43.0507 29.25 43.0507Z" fill="black"/>
<path d="M27.4502 38.85C30.6002 37.8 31.2002 36.3 30.6002 33.9C29.4002 30.15 30.4502 26.1 31.6502 22.5C31.0502 24.75 31.2002 27 30.7502 29.55C30.4502 30 30.6002 30.9 30.7502 31.5C31.5002 34.35 32.2502 37.5 29.1002 39.15C28.5002 39.6 27.9002 39.6 27.4502 38.85Z" fill="black"/>
<path d="M16.5004 54C16.2004 49.8 22.0504 41.85 24.7504 41.25C21.1504 45 18.4504 49.2 16.5004 54Z" fill="black"/>
<path d="M65.2498 26.6992C66.5998 29.9992 65.9998 32.8492 63.5998 35.2492C61.9498 36.5992 60.7498 38.8492 58.7998 39.7492C61.3498 34.7992 66.7498 34.1992 65.2498 26.6992C65.3998 26.6992 65.2498 26.6992 65.2498 26.6992Z" fill="black"/>
<path d="M29.1006 21.75C28.0506 22.95 27.7506 24.15 27.0006 25.2C26.2506 26.25 25.9506 27.45 26.2506 29.1C24.7506 27.9 26.2506 22.05 29.1006 21.75Z" fill="black"/>
<path d="M40.9502 46.6527C37.9502 42.3027 36.9002 44.1027 34.2002 41.5527C36.9002 40.9527 39.0002 42.9027 41.1002 46.5027C41.1002 46.5027 41.1002 46.6527 40.9502 46.6527Z" fill="black"/>
<path d="M41.5506 41.2516C39.1506 41.2516 37.5006 38.8516 34.9506 39.6016C34.9506 39.6016 34.6506 39.3016 34.3506 38.8516C37.0506 39.0016 39.7506 38.8516 41.5506 41.2516Z" fill="black"/>
<path d="M35.8506 34.6523C36.9006 31.0523 37.5006 27.6023 36.4506 24.1523C37.9506 26.1023 37.9506 33.0023 35.8506 34.6523Z" fill="black"/>
<path d="M18.7502 28.1992C19.0502 28.4992 18.9002 28.3492 19.2002 28.6492C17.4002 29.6992 16.5002 30.7492 14.7002 31.7992C14.7002 31.6492 14.7002 31.6492 14.7002 31.4992C16.0502 30.4492 17.2502 29.3992 18.7502 28.1992Z" fill="black"/>
<path d="M47.7 51.6016C46.8 49.5016 45.9 47.5516 45 45.6016C46.35 46.0516 48.3 49.9516 47.7 51.6016Z" fill="black"/>
<path d="M23.8506 31.5C25.6506 32.25 27.3006 35.25 26.8506 37.5C25.6506 35.4 25.6506 33.45 23.8506 31.5Z" fill="black"/>
<path d="M38.8503 37.5C38.4003 35.25 40.0503 32.25 41.8503 31.5C40.0503 33.45 40.0503 35.4 38.8503 37.5Z" fill="black"/>
<path d="M49.3506 21.6016C49.8006 19.8016 51.9006 19.5016 53.2506 18.6016C52.9506 19.5016 50.4006 21.4516 49.3506 21.6016Z" fill="black"/>
<path d="M33.9006 24C33.9006 27.9 33.9006 31.8 33.9006 35.7C33.4506 31.8 33.3006 27.9 33.9006 24Z" fill="black"/>
<path d="M48.7502 30.6016C49.9502 31.8016 51.3002 33.0016 52.5002 34.2016C52.5002 34.2016 52.3502 34.3516 52.3502 34.5016C51.0002 33.4516 49.6502 32.4016 48.4502 31.0516C48.4502 30.7516 48.6002 30.7516 48.7502 30.6016Z" fill="black"/>
<path d="M57 50.55C55.35 51.75 53.55 52.8 51.9 54C51.9 54 51.75 53.85 51.75 53.7C53.4 52.5 55.05 51.15 56.85 50.25C57 50.4 57 50.4 57 50.55Z" fill="black"/>
<path d="M25.6501 54.1523C26.1001 54.4523 26.5501 54.6023 27.0001 54.9023C27.9001 56.8523 23.4001 54.7523 25.6501 54.1523Z" fill="black"/>
<path d="M22.0498 58.8008C23.5498 58.8008 23.9998 59.1008 24.1498 60.1508C23.2498 60.3008 22.1998 59.7008 22.0498 58.8008Z" fill="black"/>
<path d="M51.4502 52.05C53.1002 51 54.7502 49.8 56.5502 48.75C56.5502 48.75 56.7002 48.9 56.7002 49.05C55.0502 50.1 53.4002 51.3 51.6002 52.35C51.6002 52.2 51.6002 52.2 51.4502 52.05Z" fill="black"/>
<path d="M20.8506 54.7517C21.9006 54.6017 22.5006 54.9017 22.9506 55.8017C22.2006 56.2517 21.3006 55.8017 20.8506 54.7517Z" fill="black"/>
<path d="M43.35 60.7499C42.45 61.0499 42 60.2999 41.25 59.8499C42 59.0999 42.6 59.9999 43.35 60.2999C43.35 60.4499 43.35 60.5999 43.35 60.7499Z" fill="black"/>
<path d="M16.2002 64.65C17.4002 63.6 18.1502 61.95 19.8002 61.5C18.6002 62.55 17.4002 63.75 16.2002 64.65Z" fill="black"/>
<path d="M11.4004 50.8492C12.3004 49.7992 13.2004 48.7492 14.1004 47.6992C14.2504 47.8492 14.4004 47.9992 14.5504 47.9992C13.5004 49.0492 12.4504 49.9492 11.4004 50.8492Z" fill="black"/>
<path d="M43.0498 56.1C43.9498 55.95 44.3998 56.25 44.8498 57C44.8498 57.15 44.6998 57.15 44.6998 57.3C44.0998 57 43.4998 56.7 43.0498 56.4C43.0498 56.4 43.0498 56.25 43.0498 56.1Z" fill="black"/>
<path d="M18.0002 60.9023C17.4002 61.5023 16.8002 61.9523 16.2002 62.5523C16.8002 61.9523 17.4002 61.3523 18.0002 60.9023Z" fill="black"/>
<path d="M29.1002 63.4492C28.2002 64.3492 26.8502 65.9992 25.5002 67.4992C25.5002 67.4992 25.3502 67.3492 25.2002 67.1992C26.4002 65.5492 28.0502 64.1992 29.1002 63.4492Z" fill="black"/>
<path d="M26.25 68.0992C27.45 66.7492 28.65 65.5492 29.85 64.1992C29.85 64.1992 30 64.3492 30.15 64.4992C28.95 65.8492 27.75 67.0492 26.55 68.3992C26.4 68.2492 26.25 68.0992 26.25 68.0992Z" fill="black"/>
<path d="M44.85 38.3992C45.15 38.3992 45.45 38.0992 45.45 37.7992C45.45 37.4992 45.15 37.1992 44.85 37.1992C44.55 37.1992 44.25 37.4992 44.25 37.7992C44.25 38.0992 44.55 38.3992 44.85 38.3992Z" fill="white"/>
<path d="M18.3002 37.5008C18.6002 37.5008 18.9002 37.2008 18.9002 36.9008C18.9002 36.6008 18.6002 36.3008 18.3002 36.3008C18.0002 36.3008 17.7002 36.6008 17.7002 36.9008C17.5502 37.2008 17.8502 37.5008 18.3002 37.5008Z" fill="white"/>
<path d="M31.1998 46.2023C31.1998 46.2023 31.3498 46.2023 31.4998 46.0523C32.0998 45.9023 32.6998 45.9023 33.2998 45.9023C33.7498 45.9023 34.1998 45.9023 34.6498 46.0523C34.7998 46.0523 34.7998 46.0523 34.7998 46.0523C34.7998 46.2023 35.0998 46.3523 35.2498 46.2023C35.3998 46.2023 35.5498 45.9023 35.3998 45.7523C35.2498 45.6023 35.0998 45.4523 35.0998 45.4523C34.9498 45.4523 34.7998 45.3023 34.6498 45.3023C34.1998 45.1523 33.5998 45.1523 33.1498 45.1523C32.5498 45.1523 31.7998 45.3023 31.1998 45.4523C31.0498 45.4523 30.7498 45.4523 30.5998 45.6023C30.4498 45.7523 30.4498 45.9023 30.5998 46.0523C30.7498 46.3523 31.0498 46.3523 31.1998 46.2023Z" fill="white"/>
<path d="M17.2502 17.2516C17.4002 18.0016 17.4002 18.9016 17.2502 19.6516C16.9502 21.1516 16.2002 22.5016 15.0002 23.4016C13.9502 24.3016 12.3002 24.9016 10.9502 24.6016C10.8002 24.6016 10.5002 24.4516 10.3502 24.3016C10.0502 24.1516 10.0502 23.8516 9.90016 23.4016C9.45016 19.6516 10.8002 15.7516 12.0002 12.0016C12.3002 11.2516 12.6002 10.3516 13.2002 9.75156C13.3502 9.60156 13.5002 9.60156 13.5002 9.60156C13.5002 9.60156 13.6502 9.60156 13.8002 9.75156C15.7502 11.2516 17.1002 13.5016 17.2502 16.0516" fill="#BCBBBA"/>
<path d="M55.3505 22.05C56.2505 19.05 58.3505 16.5 60.7505 14.25C61.8005 15 61.8005 16.5 61.6505 17.7C61.3505 20.55 61.2005 23.4 61.0505 26.25C61.0505 27.15 60.9005 28.05 60.3005 28.65C58.8005 30.6 57.0005 30 56.1005 28.35C55.0505 26.55 54.9005 24.15 55.3505 22.05Z" fill="#BCBBBA"/>
<path d="M11.1006 26.5508C12.0006 23.7008 16.0506 23.2508 16.3506 19.9508C14.8506 19.9508 13.5006 19.9508 12.1506 19.9508C12.1506 19.9508 12.1506 19.8008 12.1506 19.6508C13.8006 19.3508 15.6006 20.1008 16.8006 18.9008C16.9506 18.7508 17.5506 18.9008 18.0006 19.0508C18.0006 17.1008 13.6506 18.9008 12.3006 18.6008C13.9506 17.8508 15.7506 18.1508 17.7006 17.7008C16.9506 15.9008 16.2006 14.1008 15.4506 12.4508C15.4506 12.4508 15.6006 12.4508 15.6006 12.3008C17.2506 14.8508 18.3006 17.8508 19.2006 20.7008L19.0506 20.8508C18.6006 20.4008 18.1506 19.8008 17.7006 19.5008C17.5506 19.8008 17.2506 19.9508 17.2506 20.2508C16.8006 23.2508 13.6506 24.7508 11.5506 26.4008C11.2506 26.5508 11.1006 26.5508 11.1006 26.5508Z" fill="black"/>
<path d="M61.3504 21.3016C59.5504 22.5016 57.7504 23.8516 55.9504 25.2016C56.4004 26.1016 56.5504 27.7516 57.3004 28.5016C58.3504 29.8516 60.1504 30.4516 60.6004 32.1016C58.8004 31.5016 58.2004 29.7016 56.4004 29.1016C55.5004 28.3516 55.3504 26.8516 54.7504 25.8016C54.4504 25.9516 54.0004 26.1016 53.4004 26.2516C54.3004 23.5516 54.9004 21.0016 56.2504 18.6016C56.4004 18.6016 56.5504 18.7516 56.7004 18.7516C56.2504 20.2516 55.8004 21.7516 55.2004 23.2516C57.0004 22.0516 58.8004 21.0016 60.4504 19.9516C58.5004 21.4516 56.2504 22.6516 54.4504 24.6016C56.8504 25.3516 58.8004 21.4516 61.3504 21.3016Z" fill="black"/>
</g>
<defs>
<clipPath id="clip0_12765_8894">
<rect width="68.85" height="81" fill="white"/>
</clipPath>
</defs>
</svg>
