<svg width="93" height="86" viewBox="0 0 93 86" fill="none" xmlns="http://www.w3.org/2000/svg">
<g clip-path="url(#clip0_12765_8673)">
<circle cx="43.5" cy="43.5" r="34.5" fill="#F15748" fill-opacity="0.5"/>
<path d="M87.4769 36.1452C86.4729 36.8983 85.4688 37.6513 84.4648 38.2788C84.0883 38.5299 83.5862 38.7809 83.0842 39.0319C81.4526 39.9104 79.8211 40.538 78.064 41.04C77.3109 41.291 76.6834 41.4165 75.9304 41.6675C75.8049 41.6675 75.6794 41.793 75.5538 41.793C75.3028 41.9185 75.1773 41.9185 74.9263 42.044C74.8008 42.044 74.6753 42.1695 74.5498 42.295L74.4243 42.4206L74.2988 42.5461C73.9223 42.7971 73.6712 43.0481 73.4202 43.4246C73.4202 43.4246 73.4202 43.4246 73.2947 43.4246C73.0437 43.4246 72.7927 43.4246 72.4162 43.5501C72.1652 44.3031 71.9142 44.9307 71.7887 45.6837C71.6632 45.9347 71.6632 46.3112 71.5376 46.6878C69.0275 52.3355 69.404 59.1129 72.4162 64.3841C73.1692 65.6392 74.0478 66.7687 74.5498 68.0238C74.6753 68.1493 74.6753 68.4003 74.8008 68.5258C74.9263 68.7768 75.0518 69.1533 75.0518 69.4044C75.1773 69.6554 75.1773 69.9064 75.1773 70.1574C75.4283 72.04 75.3028 73.9226 74.8008 75.6797C74.5498 76.9347 74.0478 78.1898 73.6712 79.4448C73.4202 80.0724 73.1692 80.6999 72.9182 81.2019C72.4162 82.0805 71.9142 82.8335 71.0356 83.21C70.9101 83.3355 70.6591 83.3355 70.4081 83.3355C69.6551 83.461 68.902 83.3355 68.2745 82.959C67.7725 82.708 67.396 82.457 67.0194 82.3315C67.0194 82.3315 66.8939 82.3315 66.8939 82.206C66.6429 82.0805 66.5174 81.955 66.3919 81.8295C66.0154 81.4529 65.6389 80.9509 65.7644 80.5744C65.7644 80.5744 65.7644 80.5744 65.7644 80.4489C66.0154 79.8214 66.7684 79.5704 67.396 79.3193C67.647 79.1938 67.898 79.0683 68.2745 78.9428C69.0275 78.4408 69.6551 77.9388 70.1571 77.1857C70.2826 77.0602 70.4081 76.9347 70.4081 76.6837C70.6591 76.4327 70.7846 76.0562 70.9101 75.6797C70.9101 75.5542 71.0356 75.4286 71.0356 75.3031C71.0356 75.1776 71.1611 75.0521 71.1611 74.9266C71.4121 74.0481 71.5377 73.044 71.4121 72.04C71.4121 71.538 71.2866 71.1614 71.1611 70.6594C70.9101 70.0319 70.7846 69.5299 70.4081 69.0278C69.0275 66.6432 66.5174 64.8861 63.8818 64.0076C63.8818 64.0076 63.8818 64.1331 63.7563 64.1331C63.6308 64.3841 63.6308 64.6351 63.7563 65.0116C63.8818 65.5137 64.1328 66.0157 64.5093 66.5177L64.6348 66.6432L64.7603 66.7687C64.7603 66.7687 64.7603 66.7687 64.8858 66.8942C65.2623 67.3963 65.5134 67.8983 65.6389 68.5258C64.7603 70.0319 64.1328 71.6635 63.6308 73.2951C63.3798 73.9226 63.2542 74.6756 63.1287 75.3031C62.7522 76.4327 62.6267 77.6878 62.5012 78.9428V79.0683C62.5012 79.1938 62.5012 79.3193 62.3757 79.4448C62.2502 80.0724 62.1247 80.6999 61.8737 81.3274C61.7482 81.8295 61.3717 82.206 60.8696 82.3315C60.3676 82.457 59.8656 82.5825 59.2381 82.5825C58.987 82.5825 58.6105 82.708 58.3595 82.708C56.6024 82.708 54.8453 82.206 53.2138 81.3274C53.0883 81.2019 52.9627 81.2019 52.7117 81.0764C52.8372 80.9509 52.9627 80.9509 53.0883 80.8254C53.3393 80.5744 53.7158 80.4489 53.9668 80.1979C54.8453 79.5704 55.7239 78.8173 56.4769 78.0643C57.1044 77.4367 57.732 76.6837 58.234 76.0562C58.6105 75.5542 58.8615 74.9266 59.1125 74.2991C59.6146 73.1695 59.7401 71.789 59.4891 70.5339C59.4891 70.5339 59.4891 70.5339 59.4891 70.4084C59.3636 69.6554 59.1125 68.7768 58.736 68.1493C58.736 68.0238 58.6105 68.0238 58.6105 67.8983C58.1085 67.1452 57.3555 66.3922 56.3514 66.1412C56.2259 66.1412 56.2259 66.1412 56.1004 66.0157C55.0964 65.3882 54.0923 64.6351 53.0883 64.0076C52.8372 63.7566 52.4607 63.6311 52.2097 63.8821C52.0842 63.6311 52.0842 63.3801 51.8332 63.1291C51.3312 62.627 50.8291 62.125 50.3271 61.623C49.9506 61.2465 49.8251 60.8699 49.6996 60.3679C49.6996 59.9914 49.5741 59.6149 49.5741 59.2384C49.5741 58.9874 49.4486 58.7363 49.4486 58.4853C49.4486 57.3558 49.4486 56.2262 49.3231 55.2222C49.1976 54.7201 49.0721 54.0926 48.821 53.5906C48.6955 53.4651 48.57 53.3396 48.4445 53.2141C48.4445 53.2141 48.4445 53.2141 48.319 53.2141C48.319 53.2141 48.1935 53.0886 48.068 53.0886C47.4405 52.8376 46.813 52.9631 46.1854 53.0886C45.5579 53.2141 44.8049 53.3396 44.1773 53.5906C43.9263 53.5906 43.8008 53.7161 43.5498 53.7161C43.0478 53.8416 42.6712 53.9671 42.1692 54.0926C41.9182 54.0926 41.7927 54.2181 41.5417 54.3436C41.4162 54.3436 41.2907 54.4691 41.1652 54.4691C41.1652 54.4691 41.0397 54.4691 40.9142 54.5946C40.4121 54.7201 39.9101 54.9712 39.5336 55.2222C39.4081 55.3477 39.2826 55.3477 39.0316 55.4732C38.404 55.7242 37.7765 56.1007 37.149 56.4772C36.7725 56.7282 36.647 57.1048 36.5215 57.6068C36.3959 58.1088 36.1449 58.7363 36.0194 59.2384C35.7684 60.1169 35.5174 60.8699 35.3919 61.7485C35.2664 62.878 35.3919 64.0076 35.3919 65.1372C35.3919 65.8902 35.2664 66.6432 35.0154 67.3963C34.7644 68.9023 34.3878 70.5339 34.1368 72.04C34.0113 72.542 34.0113 72.9185 33.7603 73.4206C33.6348 73.7971 33.5093 74.0481 33.3838 74.4246C33.1328 75.3031 33.2583 76.4327 32.7563 77.1857C32.5053 77.5623 32.5053 78.1898 32.3797 78.6918C32.2542 79.3193 32.0032 79.8214 31.8777 80.4489C31.8777 80.4489 31.8777 80.4489 31.8777 80.5744C31.8777 80.6999 31.7522 80.8254 31.7522 80.9509C31.5012 81.4529 31.2502 81.955 30.8737 82.457C30.6227 82.708 30.4972 83.0845 30.2461 83.3355C30.1206 83.461 29.9951 83.7121 29.7441 83.8376C29.2421 84.3396 28.4891 84.7161 27.8615 84.9671C26.732 85.3436 25.6024 85.4691 24.4729 84.9671H24.3474C24.0963 84.8416 23.8453 84.7161 23.5943 84.4651C23.0923 84.0886 22.8413 83.461 22.8413 82.959V82.8335C22.8413 82.708 22.9668 82.457 22.9668 82.3315C23.3433 81.8295 23.8453 81.4529 24.3474 81.2019C24.5984 81.0764 24.8494 80.8254 25.2259 80.6999C25.3514 80.5744 25.4769 80.5744 25.6024 80.4489C25.7279 80.3234 25.9789 80.3234 26.1044 80.1979C26.3555 80.0724 26.6065 79.9469 26.8575 79.8214C27.3595 79.5704 27.6105 79.0683 27.8615 78.5663C27.987 78.3153 28.2381 77.9388 28.3636 77.5622C28.4891 77.1857 28.4891 76.6837 28.6146 76.1817C28.8656 74.1736 28.9911 72.291 29.1166 70.2829C29.1166 69.9064 29.1166 69.6554 29.1166 69.2789C28.9911 68.9023 28.8656 68.6513 28.7401 68.2748C28.6146 67.8983 28.3636 67.3963 28.3636 66.8942C28.3636 66.3922 28.3636 65.8902 28.3636 65.3882C28.3636 64.6351 28.238 64.0076 27.987 63.3801C27.8615 63.0035 27.736 62.627 27.6105 62.2505C27.485 61.9995 27.3595 61.7485 27.1085 61.4975C26.732 60.9954 26.3555 60.4934 25.7279 60.1169C23.9708 58.7363 21.5862 58.1088 19.4526 57.7323C19.3271 57.7323 19.2016 57.7323 19.0761 57.7323C18.9506 57.7323 18.6996 57.7323 18.5741 57.7323C18.3231 57.7323 18.1976 57.8578 17.9466 57.8578C17.821 57.9833 17.6955 57.9833 17.57 58.1088L17.4445 58.2343C17.319 58.4853 17.1935 58.7363 17.068 58.9874C16.817 59.8659 16.566 60.6189 16.4405 61.4975C16.4405 61.623 16.4405 61.623 16.4405 61.7485C16.315 62.376 16.1895 63.0035 16.1895 63.6311C16.1895 63.7566 16.1895 63.8821 16.1895 63.8821C15.8129 66.6432 15.8129 69.4044 15.8129 72.291C15.8129 72.291 15.8129 72.291 15.8129 72.4165C15.8129 73.7971 15.6874 75.0521 15.5619 76.4327C15.5619 77.0602 15.4364 77.5622 15.3109 78.1898V78.3153V78.4408C15.0599 79.8214 14.8089 81.0764 14.0559 82.206C14.0559 82.206 14.0559 82.3315 13.9304 82.3315C13.9304 82.457 13.8048 82.457 13.8048 82.5825C12.8008 83.8376 11.1692 84.7161 9.66315 84.3396C8.28258 83.9631 7.27853 82.457 7.52955 81.2019C7.40404 81.7039 7.40404 81.5784 7.52955 81.5784C8.28258 80.9509 9.16112 80.3234 9.91416 79.8214C10.5417 79.4448 10.6672 79.1938 10.6672 78.4408C10.6672 78.1898 10.5417 77.8133 10.5417 77.5622C10.4162 76.5582 10.4162 75.5542 10.4162 74.5501C10.5417 72.4165 10.5417 70.2829 10.5417 68.1493C10.5417 67.8983 10.5417 67.7728 10.5417 67.6473C10.5417 66.8942 10.4162 66.0157 10.4162 65.2627C10.4162 64.0076 10.4162 62.878 9.78866 61.7485C9.41214 60.9955 9.28663 60.1169 9.03562 59.3639C8.91011 58.9874 8.78461 58.7363 8.78461 58.3598C8.53359 55.9752 8.03157 53.7161 7.52955 51.3315C7.52955 51.3315 7.52955 51.3315 7.52955 51.206V51.0805V50.955C7.52955 50.955 7.52955 50.955 7.52955 50.8295C7.27853 49.3234 7.15303 47.8173 7.27853 46.3112C7.27853 44.1776 7.65505 42.044 8.28258 40.0359C8.6591 38.9064 9.03562 37.6513 9.41214 36.5218C9.66315 35.5177 9.91416 34.5137 10.1652 33.5096C10.2907 32.6311 10.2907 31.627 10.2907 30.7485C10.2907 29.4934 10.0397 28.2384 9.78866 26.9833V26.8578C9.78866 26.6068 9.66315 26.2303 9.66315 25.9793C9.53764 25.6027 9.53764 25.2262 9.41214 24.9752L9.28663 24.8497C8.91011 24.5987 8.40809 24.4732 8.03157 24.3477C7.90606 24.3477 7.78056 24.3477 7.65505 24.3477H7.52955C7.02752 24.3477 6.39999 24.3477 5.89797 24.3477C5.64695 24.3477 5.39594 24.3477 5.14493 24.3477C4.76841 24.3477 4.14088 24.5987 3.76436 24.3477C3.51335 24.0967 3.38784 23.5946 3.38784 23.3436C3.26234 22.8416 3.26234 22.4651 3.26234 21.9631C3.26234 21.8376 3.26234 20.708 3.13683 20.708C2.76031 20.5825 2.25829 20.8335 2.00728 20.708C1.88177 20.708 1.88177 20.5825 1.75627 20.5825C1.37975 20.206 1.00323 19.7039 0.752217 19.2019C0.626711 18.6999 0.626711 18.1979 0.626711 17.6959C0.626711 16.9428 0.752217 16.1898 0.626711 15.4367C0.501205 15.0602 0.375699 14.6837 0.501205 14.1817C0.752217 13.3031 1.88177 12.8011 1.88177 11.9226C1.88177 11.6716 1.75627 11.4205 1.75627 11.1695C1.50525 10.1655 1.50525 9.53796 1.50525 9.03593C1.50525 8.4084 1.50525 7.65536 1.50525 7.02783C1.50525 6.52581 1.75627 6.02379 2.00728 5.52176C2.13278 5.14524 2.25829 4.89423 2.5093 4.64322C3.51335 3.89018 4.5174 3.26265 5.64695 2.76063C5.64695 2.63512 5.89797 2.50962 6.02347 2.50962C7.27853 1.75658 8.6591 1.00354 9.91416 0.125C10.0397 0.125 10.1652 0.125 10.1652 0.125C10.5417 0.501518 10.7927 0.501518 11.2947 0.501518C12.0478 0.501518 12.8008 0.501518 13.5538 0.501518C14.8089 0.75253 15.9385 1.25455 17.068 1.75658C17.9466 2.1331 18.6996 2.38411 19.5781 2.76063C19.8291 2.88613 19.9546 2.88613 20.2057 3.01164C21.5862 3.38816 22.8413 3.76468 23.8453 4.39221C24.5984 4.76872 24.9749 5.64727 25.4769 6.2748C25.8534 6.77682 26.1044 7.52986 26.1044 8.2829C26.1044 8.91043 26.1044 9.53796 25.8534 10.1655H25.9789C25.8534 11.044 25.4769 11.9226 24.9749 12.6756C24.3474 13.6797 23.7198 14.6837 23.5943 15.6878C23.5943 16.1898 23.5943 16.5663 23.8453 17.0683C23.8453 17.1938 23.9708 17.3193 24.0963 17.4448C24.2219 17.6959 24.3474 17.8214 24.5984 17.9469C24.8494 18.1979 25.1004 18.3234 25.3514 18.5744C25.8534 18.9509 26.3555 19.2019 26.8575 19.5784C27.1085 19.7039 27.3595 19.8295 27.6105 20.0805C28.2381 20.457 28.9911 20.8335 29.6186 21.21C30.1206 21.712 30.6227 22.0886 31.1247 22.5906C31.7522 23.0926 32.5053 23.2181 33.2583 23.4691C34.7644 24.0967 36.2704 24.2222 37.902 24.3477C38.153 24.3477 38.404 24.3477 38.6551 24.3477C39.9101 24.5987 41.0397 24.7242 42.2947 24.8497C42.7968 24.8497 43.1733 24.9752 43.6753 24.9752C43.6753 25.1007 43.6753 25.2262 43.6753 25.3517C44.3028 25.6027 45.0559 25.4772 45.6834 25.4772C47.566 25.3517 49.5741 25.2262 51.4567 25.1007C51.8332 25.1007 52.0842 24.9752 52.4607 24.9752C55.7239 24.8497 58.8615 24.8497 61.9992 25.4772C62.3757 25.4772 62.7522 25.6027 63.1287 25.7282C63.3797 25.7282 63.5053 25.8537 63.7563 25.8537C64.5093 26.1048 65.3878 26.3558 66.0154 26.8578C66.3919 27.1088 66.7684 27.4853 67.0194 27.8618C67.2704 28.2384 67.647 28.6149 67.898 28.9914C68.7765 30.121 69.6551 31.376 70.6591 32.3801C71.0356 32.8821 71.5377 33.2586 72.0397 33.6351C72.5417 34.1371 73.1692 34.5137 73.7968 34.8902C74.0478 35.0157 74.2988 35.1412 74.6753 35.3922C76.9344 36.5218 79.6955 36.7728 81.8291 35.5177C82.4567 35.1412 83.0842 34.7647 83.5862 34.1371C84.9668 33.1331 86.0964 31.878 87.1004 30.4975C87.8534 29.4934 88.732 28.3639 89.485 27.3598C89.6105 27.1088 89.8615 26.9833 90.1125 26.7323C90.6146 26.4813 91.2421 26.2303 91.9951 26.2303C91.9951 26.2303 91.9951 26.2303 92.1206 26.2303C92.1206 26.2303 92.1206 26.2303 92.1206 26.3558C92.9992 30.121 90.3635 33.7606 87.4769 36.1452Z" fill="white"/>
<path d="M7.78132 51.4588L7.2793 49.0742C7.4048 49.7017 7.53031 50.3293 7.65581 50.9568C7.65581 51.2078 7.78132 51.3333 7.78132 51.4588Z" fill="white"/>
<path d="M4.51873 19.8302C4.14221 20.2067 3.64019 20.5832 3.38918 20.9597C3.26367 21.0852 3.26367 21.2107 3.26367 21.3362C3.26367 21.4617 3.26367 21.5872 3.38918 21.7127C3.38918 21.7127 3.51468 21.7127 3.64019 21.8382C4.14221 21.8382 4.64424 21.7127 5.14626 21.5872C5.52278 21.4617 5.77379 21.3362 6.15031 21.2107C6.65234 20.9597 7.02885 20.4577 7.40537 20.0812C7.40537 20.0812 7.53088 19.9557 7.53088 19.8302C7.53088 19.7046 7.40537 19.5791 7.15436 19.5791C6.40132 19.3281 5.52278 19.3281 4.76974 19.3281L4.51873 19.8302Z" fill="#BCBCBB"/>
<path d="M18.9509 16.566C19.955 17.57 21.4611 18.072 22.8416 17.57C23.2181 17.4445 23.4692 17.319 23.8457 17.319C24.0967 17.4445 24.3477 17.6955 24.4732 17.9465C25.4773 19.3271 26.2303 20.9587 26.8578 22.4647C26.9833 22.8413 27.1088 23.2178 26.9833 23.4688C26.8578 23.5943 26.7323 23.7198 26.6068 23.8453C25.3517 24.8494 23.4692 24.8494 21.9631 24.2218C20.457 23.5943 19.3275 22.3392 18.5744 20.8332C17.8214 19.5781 17.3194 18.323 17.1939 16.9425C17.0683 15.9384 16.6918 13.6793 17.4449 12.8008C17.8214 14.3069 17.9469 15.4364 18.9509 16.566Z" fill="#BCBCBB"/>
<path d="M9.66474 39.4077C10.0413 39.6587 10.5433 39.4077 10.7943 39.1566C12.4259 37.6506 12.5514 35.1405 12.9279 33.0068C13.4299 29.8692 14.5595 26.7315 14.434 23.4684C14.434 23.0919 14.3085 22.5898 13.9319 22.5898C13.8064 22.5898 13.6809 22.5898 13.5554 22.7154C12.5514 23.2174 10.5433 23.5939 9.91575 24.7234C9.28822 25.7275 9.91575 27.8611 10.0413 28.9907C10.1668 30.7477 10.1668 32.5048 10.0413 34.2619C10.0413 34.7639 9.41372 39.2822 9.66474 39.4077Z" fill="#BCBCBB"/>
<path d="M16.5663 70.6582C16.5663 70.9092 16.5663 71.1602 16.5663 71.4112C16.3153 72.0387 15.6878 72.4153 15.1858 73.0428C14.0562 74.4233 14.6838 76.557 13.8052 78.063C13.6797 78.1885 13.5542 78.314 13.4287 78.314C13.1777 78.314 13.1777 77.9375 13.1777 77.6865C13.1777 76.557 13.1777 75.4274 13.1777 74.2978C13.0522 67.5205 11.7971 60.6177 13.3032 54.0914C13.3032 53.9659 13.4287 53.7148 13.5542 53.7148C13.6797 53.7148 13.9307 53.7148 14.0562 53.8404C15.0603 54.7189 16.4408 55.7229 17.1939 56.8525C17.8214 57.8565 17.4449 59.1116 17.1939 60.2412C16.5663 63.6298 16.4408 67.144 16.5663 70.6582Z" fill="#BCBCBB"/>
<path d="M31.879 79.8206C31.7535 81.4521 31.879 83.3347 30.624 84.4643C30.1219 84.8408 29.4944 85.0918 28.8669 85.2173C27.8628 85.3428 26.7333 85.2173 26.2312 84.4643C25.8547 83.8368 25.9802 82.9582 26.3568 82.2052C26.7333 81.5777 27.3608 81.0756 27.9883 80.5736C29.7454 78.942 31.0005 76.6829 31.5025 74.2983C31.628 73.4198 31.7535 72.6667 32.0045 71.7882C32.5066 69.6546 33.5106 67.6465 34.6402 65.6384C34.8912 65.1364 35.1422 64.7598 35.3932 64.2578C35.1422 64.5088 35.3932 65.8894 35.1422 66.2659C35.0167 66.6424 34.7657 67.0189 34.7657 67.521C34.5146 68.9015 34.3891 70.2821 33.8871 71.5372C33.1341 74.2983 32.0045 76.9339 31.879 79.8206Z" fill="#BCBCBB"/>
<path d="M59.8669 59.4917C60.4944 60.1192 61.122 60.6212 61.624 61.3743C61.875 61.7508 62.126 62.2528 62.2515 62.7548C62.628 63.6334 63.0046 64.5119 63.2556 65.3905C63.2556 65.516 63.3811 65.767 63.3811 65.8925C63.3811 66.269 63.0046 66.52 62.628 66.52C62.2515 66.52 61.875 66.3945 61.624 66.1435C60.2434 65.2649 59.1139 64.0099 57.7333 63.0058C55.0977 60.8722 51.458 59.6172 49.7009 56.605C49.4499 56.103 49.1989 55.601 49.3244 54.9734C49.5754 54.2204 50.454 53.7184 51.207 53.5929C52.211 53.3419 53.2151 53.0909 54.0936 52.8398C54.2191 52.8398 54.3446 52.8398 54.4702 52.8398C54.5957 52.9653 54.5957 53.0909 54.7212 53.2164C54.8467 53.8439 54.9722 54.4714 55.2232 55.099C55.7252 54.7224 55.8507 54.0949 56.4782 54.3459C56.9803 54.5969 57.2313 55.35 57.4823 55.852C58.2353 57.1071 58.8629 58.3621 59.8669 59.4917Z" fill="#BCBCBB"/>
<path d="M72.0402 81.3273C71.9147 81.5783 71.7892 81.9548 71.6637 82.2058C71.2872 82.8334 70.5342 83.2099 69.7811 83.3354C69.6556 83.3354 69.4046 83.3354 69.2791 83.2099C69.1536 83.0844 69.0281 83.0844 68.9026 82.9589C68.2751 82.3314 67.8985 81.4528 68.024 80.5743C68.1496 79.4447 68.9026 78.3152 69.6556 77.4366C70.5342 76.5581 71.4127 75.6795 72.0402 74.55C72.4168 73.9224 72.6678 73.1694 73.2953 72.6674C73.7973 72.2909 74.9269 72.0399 75.3034 72.6674C75.6799 73.2949 74.8014 74.6755 74.5504 75.303C73.5463 77.3111 72.7933 79.3192 72.0402 81.3273Z" fill="#BCBCBB"/>
<path d="M36.6484 58.1086C38.029 57.7321 38.531 56.1005 39.7861 55.222C40.5391 54.72 41.5432 54.5945 42.4217 54.469C43.9278 54.2179 45.3084 54.0924 46.8144 53.8414C47.8185 53.7159 48.8225 53.5904 49.7011 53.0884C50.2031 52.8374 50.7051 52.4609 50.5796 51.8333C50.5796 51.2058 49.7011 50.8293 49.0735 50.7038C46.3124 50.2018 43.3003 49.5742 40.4136 49.5742C38.4055 49.5742 37.778 51.2058 37.527 52.9629C36.8994 54.72 36.7739 56.4771 36.6484 58.1086Z" fill="#BCBCBB"/>
<path d="M83.8382 39.4073C82.4576 40.4114 80.7005 40.9134 79.0689 41.4154C77.8139 41.7919 75.6803 42.9215 74.0487 43.298C73.7977 43.298 73.5467 43.4235 73.2956 43.4235C73.2956 43.4235 73.2956 43.4235 73.1701 43.4235C73.0446 43.4235 73.0446 43.4235 72.9191 43.4235C72.0406 43.298 71.6641 42.796 71.6641 42.1684C71.6641 41.9174 71.6641 41.5409 71.7896 41.1644C71.9151 40.9134 72.0406 40.6624 72.1661 40.4114C72.2916 40.1604 72.5426 40.0348 72.6681 39.9093C73.0446 39.6583 73.4211 39.5328 73.7977 39.4073C76.9353 38.4033 80.1985 37.3992 83.3361 38.0267C83.5871 38.0267 83.8382 38.1523 83.9637 38.2778L84.0892 38.4033C84.0892 38.4033 84.0892 38.5288 84.2147 38.5288C84.5912 38.7798 84.2147 39.1563 83.8382 39.4073Z" fill="#BCBCBB"/>
<path d="M29.4935 69.7811C29.2425 71.5382 29.2425 73.2953 29.2425 75.0524C29.2425 75.4289 29.2425 75.8054 29.2425 76.3074C29.2425 76.5584 29.117 76.8094 28.9915 77.0605C28.615 76.935 28.615 76.6839 28.615 76.4329C28.615 74.0483 28.7405 71.7892 28.7405 69.4046C28.7405 69.1536 28.7405 68.7771 28.615 68.6516C28.615 68.6516 28.4895 68.6516 28.4895 68.526C28.1129 68.1495 28.2384 67.773 28.1129 67.3965C27.8619 65.5139 27.4854 63.6313 27.2344 61.7487C27.2344 61.4977 27.2344 61.3722 27.1089 61.1212C27.1089 60.7447 26.8579 60.6192 26.4814 60.4937C26.2303 60.4937 26.1048 60.3681 25.8538 60.3681C25.7283 60.3681 25.6028 60.2426 25.3518 60.2426C23.2182 59.7406 21.0846 58.8621 19.0765 57.858C19.0765 57.858 19.0765 57.858 18.951 57.858C18.8255 57.858 18.7 57.7325 18.449 57.7325V57.858C18.198 58.7366 17.9469 59.7406 17.8214 60.6192C17.5704 62.8783 16.9429 65.0119 17.0684 67.271C17.0684 68.526 17.0684 69.6556 17.0684 70.9107C17.0684 71.4127 17.0684 71.9147 17.0684 72.4167C17.0684 72.7933 17.0684 73.1698 16.4409 73.1698C16.3154 73.1698 16.1899 73.4208 16.0644 73.5463C15.8133 74.4248 15.5623 75.1779 15.4368 76.0564C15.4368 76.3074 15.3113 76.4329 15.3113 76.6839C15.1858 77.3115 15.1858 77.939 15.0603 78.5665V78.692C15.0603 78.9431 15.0603 79.1941 14.9348 79.4451C14.8093 80.5746 14.6838 81.7042 14.5583 82.9592C14.4328 83.5868 14.0563 83.9633 13.5542 84.2143C12.8012 84.5908 11.9227 85.0928 10.9186 84.8418C10.6676 84.8418 10.4166 84.9673 10.1656 84.9673C9.91456 84.9673 9.66355 84.9673 9.41254 84.8418C9.03602 84.8418 8.78501 84.5908 8.40849 84.5908C7.27893 84.4653 6.40039 83.3358 6.77691 82.2062C6.90242 81.9552 7.02792 81.7042 7.15343 81.5787C7.40444 81.7042 7.40444 81.5787 7.52995 81.5787C8.28298 80.9511 9.16152 80.3236 9.91456 79.8216C10.5421 79.4451 10.6676 79.1941 10.6676 78.441C10.6676 78.19 10.5421 77.8135 10.5421 77.5625C10.4166 76.5584 10.4166 75.5544 10.4166 74.5503C10.5421 72.4167 10.5421 70.2831 10.5421 68.1495C10.5421 67.8985 10.5421 67.773 10.5421 67.6475C10.5421 66.8945 10.4166 66.0159 10.4166 65.2629C10.4166 64.0078 10.4166 62.8783 9.78905 61.7487C9.41254 60.9957 9.28703 60.1171 9.03602 59.3641C8.91051 58.9876 8.78501 58.7366 8.78501 58.3601C8.40849 56.854 8.03197 55.3479 7.78096 53.8418C7.65545 52.9633 7.65545 52.2103 7.52995 51.3317C7.52995 51.3317 7.52995 51.3317 7.52995 51.2062C7.52995 50.4532 7.40444 49.8256 7.40444 49.0726C7.40444 48.8216 7.40444 48.6961 7.40444 48.5706C7.40444 47.8175 7.27893 47.19 7.27893 46.437C7.27893 46.3115 7.27893 46.186 7.27893 46.0605C7.02792 45.8094 6.5259 46.437 6.40039 45.8094C7.15343 44.4289 7.40444 42.9228 7.65545 41.4167C7.78096 40.6637 8.03197 39.7852 8.28298 39.0321C8.53399 37.7771 8.78501 36.522 8.91051 35.2669C9.16152 32.8823 9.78905 30.4977 9.66355 28.1131C9.66355 27.4856 9.53804 26.7325 9.53804 26.105V25.9795C9.53804 25.7285 9.53804 25.4775 9.53804 25.352C9.66355 25.352 9.66355 25.352 9.78905 25.352C9.91456 25.1009 10.0401 25.2264 10.0401 25.352C10.2911 26.9835 10.4166 28.7406 10.1656 30.3722C10.1656 30.6232 10.1656 30.8742 10.0401 31.1252C9.78905 32.7568 9.53804 34.5139 9.28703 36.1455C9.16152 36.6475 9.16152 37.1495 9.03602 37.6515C8.78501 39.5341 8.28298 41.4167 7.90646 43.2993C7.90646 43.5503 7.90646 43.9268 8.03197 44.0524C8.28298 44.5544 8.28298 45.0564 8.15748 45.5584C8.15748 46.8135 8.03197 48.0686 8.15748 49.1981C8.28298 51.0807 8.53399 52.9633 8.78501 54.8459C9.16152 56.9795 9.91456 59.1131 10.5421 61.2467C11.0441 61.9997 11.2951 62.7528 11.4206 63.6313C11.6716 64.2588 11.5461 64.3843 10.9186 64.6354V75.6799C11.4206 75.4289 11.9227 75.0524 12.4247 74.8013C12.4247 74.8013 12.4247 74.9269 12.5502 74.9269C12.2992 75.1779 12.0482 75.4289 11.6716 75.5544C11.0441 75.9309 10.9186 76.4329 11.0441 77.0605C11.0441 77.186 11.0441 77.3115 11.0441 77.437C11.4206 78.441 11.2951 79.3196 11.0441 80.3236C10.4166 80.7001 9.78905 80.9511 9.16152 81.3277C8.78501 81.5787 8.40849 81.9552 8.03197 82.3317C7.78096 82.7082 7.78096 83.0848 8.28298 83.3358C8.6595 83.5868 9.03602 83.7123 9.41254 83.9633C9.78905 83.2103 9.91456 82.3317 10.6676 81.5787C10.7931 81.8297 10.9186 82.0807 10.7931 82.2062C10.6676 82.5827 10.5421 82.8337 10.4166 83.0847C10.1656 83.3358 10.0401 83.7123 10.1656 84.0888C10.5421 84.3398 10.6676 83.9633 10.9186 83.7123C11.1696 83.3358 11.4206 83.0848 11.6716 82.7082C11.7972 82.5827 11.9227 82.5827 12.2992 82.5827C11.9227 83.0848 11.7972 83.4613 11.4206 83.9633C12.0482 84.0888 12.4247 83.9633 12.8012 83.7123C12.8012 83.7123 12.8012 83.7123 12.9267 83.7123C13.4287 83.3358 13.6797 83.2103 13.9308 82.9592C13.9308 82.9592 13.9308 82.8337 14.0563 82.8337C14.1818 82.5827 14.1818 82.2062 14.3073 81.7042C14.4328 80.3236 14.5583 78.9431 14.8093 77.437C15.0603 75.9309 15.0603 74.4248 15.8133 72.9188V72.7933V72.6677C15.9389 72.4167 16.0644 72.1657 16.3154 72.1657C16.3154 72.1657 16.4409 72.1657 16.5664 72.1657V71.9147C16.5664 70.6596 16.5664 69.4046 16.4409 68.1495C16.3154 66.8945 16.5664 65.6394 16.5664 64.2588C16.4409 64.2588 16.3154 64.2588 16.1899 64.2588C15.6878 64.3843 15.3113 64.8864 14.8093 65.1374C14.8093 64.7609 15.0603 64.5099 15.3113 64.5099C15.6878 64.3843 15.9389 64.2588 16.0644 64.0078C16.5664 63.6313 16.6919 63.0038 16.6919 62.2507C16.6919 62.2507 16.6919 62.2507 16.6919 62.1252C16.5664 62.1252 16.4409 62.2507 16.3154 62.2507C16.1899 62.2507 16.0644 62.2507 16.0644 62.3762C16.1899 62.2507 16.3154 62.1252 16.4409 61.9997C16.9429 61.3722 17.0684 60.6192 17.3194 59.8661C17.3194 59.8661 17.3194 59.8661 17.3194 59.7406C17.4449 59.3641 17.5704 58.8621 17.5704 58.4856C17.6959 58.109 17.6959 57.858 17.8214 57.4815C17.4449 57.105 17.0684 56.7285 16.5664 56.352C16.1899 55.9754 15.8133 55.5989 15.3113 55.2224C15.1858 55.5989 15.0603 55.9754 14.8093 56.352C14.0563 55.8499 13.9308 54.9714 13.6797 54.3439C13.5542 54.0928 13.4287 53.9673 13.4287 53.7163C13.1777 53.2143 13.0522 52.7123 12.9267 52.3358C12.5502 51.5827 12.2992 50.9552 12.1737 50.2022C11.9227 49.4491 11.7972 48.6961 11.6716 48.0686C11.5461 47.3155 11.5461 46.5625 11.5461 45.9349C11.9227 45.6839 12.0482 45.935 12.0482 46.0605C12.0482 46.0605 12.0482 46.186 12.0482 46.3115C11.7972 48.1941 12.5502 49.9511 13.1777 51.5827C13.4287 52.3358 13.6797 52.9633 13.9308 53.7163C13.9308 53.8418 13.9308 53.8418 14.0563 53.9673C14.1818 54.3439 14.4328 54.7204 14.6838 55.0969C14.8093 54.9714 14.8093 54.8459 14.9348 54.7204C15.0603 54.5949 15.0603 54.4694 15.1858 54.2184C16.1899 55.0969 17.0684 55.8499 17.9469 56.603C18.8255 57.356 19.955 57.858 21.0846 58.2345C21.8376 57.4815 22.7162 56.7285 23.4692 56.1009C23.0927 56.9795 21.9631 57.4815 21.7121 58.4856C21.9631 58.8621 22.3397 58.8621 22.5907 58.4856C23.0927 57.858 23.8457 57.4815 24.7243 57.105C24.2223 57.7325 23.2182 57.9835 22.8417 58.7366C23.2182 59.1131 26.1048 60.2426 26.9834 60.2426C26.8579 58.9876 26.6069 57.858 26.4814 56.603C26.3559 55.3479 26.2303 54.0928 26.2303 52.8378C26.2303 51.5827 25.7283 50.4532 25.7283 49.3236H25.8538C25.9793 49.4491 26.1048 49.7001 26.1048 49.8256C26.4814 51.5827 26.6069 53.4653 26.7324 55.2224C26.8579 57.4815 27.3599 59.7406 27.6109 62.1252C28.1129 61.8742 28.615 61.6232 28.9915 61.3722C28.615 61.7487 28.1129 62.2507 27.7364 62.7528C27.7364 63.1293 27.8619 63.5058 27.8619 63.8823C27.9874 64.5099 28.1129 65.2629 28.2384 65.8904C28.364 66.3924 28.364 66.8945 28.4895 67.3965C28.615 68.024 28.866 68.526 29.2425 69.0281C29.4935 69.2791 29.4935 69.5301 29.4935 69.7811Z" fill="black"/>
<path d="M92.7494 29.493C92.4984 30.1205 92.3729 30.7481 92.1219 31.3756C91.7453 32.1286 91.2433 32.7562 90.8668 33.5092C90.6158 34.0112 90.2393 34.3877 89.8627 34.7643C89.7372 35.0153 89.4862 35.1408 89.2352 35.3918C88.7332 35.8938 88.1057 36.3958 87.6036 36.7724C86.2231 37.9019 84.968 39.0315 83.4619 40.0355C81.8304 41.2906 80.0733 41.9181 78.0652 42.4201C77.3121 42.6711 76.4336 42.9222 75.6806 43.1732C75.1785 43.2987 74.551 43.2987 74.049 43.4242C73.798 43.4242 73.547 43.4242 73.2959 43.4242H73.1704C72.9194 43.4242 72.6684 43.4242 72.2919 43.5497C72.0409 44.3027 71.7899 44.9303 71.6644 45.6833C71.5389 45.9343 71.5389 46.3108 71.4133 46.6873C71.1623 48.0679 70.7858 49.574 70.5348 50.9545C70.2838 51.9586 70.1583 52.9626 70.0328 53.9667C69.9073 54.3432 69.9073 54.7197 70.1583 54.9707C70.4093 55.2218 70.4093 55.5983 70.2838 55.9748C70.0328 56.8533 70.0328 57.8574 70.2838 58.7359C70.9113 60.995 71.7899 63.1286 73.2959 65.1367C73.9235 65.8898 74.551 66.7683 75.053 67.6469C75.4295 68.2744 75.6806 69.0274 75.6806 69.6549C75.6806 70.91 75.555 72.2906 75.304 73.5456C75.1785 74.2987 75.053 75.0517 74.802 75.6792C74.4255 77.0598 74.049 78.4404 73.798 79.9464C73.5469 80.825 73.4214 81.829 73.0449 82.7076C72.6684 83.5861 72.1664 83.9626 71.2878 84.0881C69.6563 84.3392 68.0247 83.9626 66.5186 83.0841C65.7656 82.7076 65.2635 82.0801 65.0125 81.327C64.7615 80.574 65.0125 79.8209 65.5146 79.1934C66.1421 78.5659 66.8951 78.0639 67.7737 77.8128C68.4012 77.5618 68.6522 77.3108 69.0287 76.6833C69.5308 75.6792 69.9073 74.5497 70.1583 73.5456C70.2838 73.2946 70.2838 72.9181 70.4093 72.6671C70.6603 72.0396 70.9113 71.5375 70.7858 70.91V70.7845C70.7858 70.659 70.9113 70.5335 71.0368 70.2825C71.4133 70.91 71.2878 71.5375 71.1623 72.0396C71.1623 72.1651 71.1623 72.1651 71.1623 72.2906C70.9113 73.1691 70.6603 73.9222 70.5348 74.8007C70.5348 74.9262 70.5348 75.0517 70.4093 75.1772C70.5348 75.1772 70.7858 75.1772 70.9113 75.0517C71.0368 75.0517 71.1623 74.9262 71.4133 74.9262C71.9154 74.6752 72.4174 74.5497 73.0449 74.5497C72.9194 74.5497 72.7939 74.6752 72.6684 74.6752C72.1664 74.9262 71.6644 75.0517 71.1623 75.3027C71.0368 75.3027 71.0368 75.3027 70.9113 75.4282C70.2838 75.6792 69.9073 76.0558 69.9073 76.8088C70.0328 76.8088 70.1583 76.8088 70.4093 76.8088C70.6603 76.8088 70.9113 76.8088 71.1623 76.6833V76.8088C70.9113 76.9343 70.7858 76.9343 70.6603 77.0598C70.5348 77.0598 70.4093 77.1853 70.1583 77.1853C69.9073 77.3108 69.7818 77.3108 69.6563 77.4363C69.4052 77.8128 69.1542 77.9384 68.7777 78.0639C68.5267 78.1894 68.4012 78.1894 68.1502 78.3149C67.5227 78.5659 66.8951 78.8169 66.3931 79.3189C65.8911 79.6954 65.7656 80.0719 65.7656 80.574C65.7656 80.9505 66.0166 81.4525 66.3931 81.829C66.6441 81.4525 66.7696 80.9505 67.0206 80.574C67.2716 80.323 67.3972 79.9464 67.8992 79.9464C68.0247 79.9464 68.1502 79.9464 68.2757 79.9464C68.1502 80.072 68.0247 80.323 67.8992 80.4485C67.6482 80.9505 67.3972 81.327 67.1461 81.829C67.1461 81.9545 67.0206 82.0801 67.1461 82.2056C67.1461 82.4566 67.2716 82.5821 67.5227 82.5821C67.8992 82.7076 68.1502 82.8331 68.5267 82.9586C68.9032 83.0841 69.2797 83.0841 69.6563 83.0841V82.9586C69.6563 82.5821 69.6563 82.3311 69.6563 81.9545C69.6563 81.7035 69.7818 81.327 69.7818 81.076C69.9073 80.825 70.0328 80.4485 70.5348 80.4485C70.4093 81.327 69.9073 82.08 70.1583 82.9586C70.1583 83.0841 70.1583 83.0841 70.1583 83.2096C70.5348 83.2096 70.9113 83.2096 71.1623 83.2096C71.2878 83.2096 71.5389 83.2096 71.6644 83.2096C72.1664 83.2096 72.4174 82.8331 72.5429 82.4566C72.6684 82.08 72.7939 81.7035 72.9194 81.2015V81.076C73.4214 78.9424 73.9235 76.9343 74.3 74.8007C74.4255 74.1732 74.551 73.4201 74.802 72.7926C74.802 72.6671 74.802 72.5416 74.9275 72.4161C75.053 71.663 75.1785 70.91 75.1785 70.0315V69.906C75.1785 69.6549 75.1785 69.4039 75.053 69.2784C74.9275 69.1529 74.802 69.1529 74.6765 69.0274C74.802 68.7764 74.802 68.5254 74.802 68.3999C74.802 68.1489 74.6765 68.0234 74.551 67.8979C74.4255 67.7724 74.4255 67.6469 74.3 67.5213C73.4214 66.2663 72.2919 65.1367 71.6644 63.7562C70.6603 61.7481 69.7818 59.74 69.4052 57.4809C69.2797 56.2258 69.1542 55.0962 69.4052 53.8412C69.9073 51.3311 70.4093 48.8209 70.9113 46.3108C71.1623 45.3068 71.2878 44.3027 71.4133 43.2987C71.4133 43.1732 71.4133 43.0477 71.5389 42.9222C71.6644 42.6711 71.6644 42.2946 71.7899 42.0436C71.9154 41.6671 71.9154 41.4161 71.9154 41.0396C71.9154 40.5375 72.0409 39.91 72.0409 39.408C72.0409 39.157 72.0409 38.906 72.1664 38.6549C72.1664 38.7805 72.2919 38.906 72.2919 39.157C72.2919 39.5335 72.2919 39.91 72.2919 40.412C72.2919 40.9141 72.2919 41.2906 72.2919 41.7926C72.2919 42.0436 72.2919 42.4201 72.1664 42.7966C72.6684 42.6711 73.0449 42.6711 73.2959 42.6711C73.6725 41.5416 73.5469 40.412 74.049 39.5335C73.9235 40.5375 73.798 41.5416 73.6725 42.5456C73.9235 42.5456 74.1745 42.5456 74.3 42.5456C74.4255 42.5456 74.4255 42.5456 74.4255 42.4201C74.4255 42.2946 74.4255 42.2946 74.551 42.0436C74.6765 41.5416 74.6765 41.0396 74.802 40.5375C74.802 40.161 74.9275 39.7845 75.053 39.5335C75.053 39.5335 75.1785 39.5335 75.304 39.5335C75.1785 40.412 75.053 41.2906 74.9275 42.1691C75.304 42.2946 75.555 42.1691 75.555 41.9181C75.555 41.9181 75.555 41.9181 75.555 41.7926C75.555 41.2906 75.6806 40.663 75.8061 40.161C75.8061 40.0355 75.9316 39.91 76.0571 39.7845C76.0571 40.412 75.9316 41.0396 75.9316 41.7926C75.9316 41.9181 75.9316 42.0436 75.9316 42.0436C77.1866 41.7926 78.1907 41.6671 79.3202 41.2906C79.8223 41.0396 80.4498 40.9141 80.9518 40.663C81.7048 40.2865 82.4579 39.7845 83.0854 39.157C83.2109 39.0315 83.2109 39.0315 83.3364 38.906C83.4619 38.7805 83.5874 38.6549 83.8385 38.5294C83.964 38.4039 84.215 38.4039 84.3405 38.2784C84.5915 38.1529 84.8425 38.0274 84.968 37.9019C85.8465 37.1489 86.7251 36.3958 87.6036 35.6428C88.6077 34.6388 89.6117 33.8857 90.3648 32.6307C91.1178 31.3756 91.9963 29.995 92.3729 28.489C92.4984 27.7359 92.3729 27.3594 91.7453 26.7319C91.1178 26.9829 90.4903 27.2339 89.9882 27.8614C88.9842 29.242 88.1057 30.6226 86.9761 31.8776C85.8465 33.1327 84.717 34.5132 83.0854 35.3918C82.9599 35.5173 82.8344 35.5173 82.7089 35.6428C81.4538 36.0193 80.3243 36.2703 79.0692 36.5213C77.5631 36.8979 76.0571 36.5213 74.551 36.0193C74.049 35.8938 73.5469 35.6428 73.1704 35.5173C72.9194 35.3918 72.6684 35.2663 72.6684 34.8898C72.9194 34.8898 73.1704 34.8898 73.4214 34.8898C73.9235 35.0153 74.4255 35.2663 74.802 35.3918C75.304 35.5173 75.6806 35.7683 76.1826 35.8938C77.9397 36.3958 79.6968 36.2703 81.3283 35.2663C81.4538 35.1408 81.5793 35.0153 81.7048 35.1408C82.3324 35.3918 82.7089 34.8898 83.0854 34.6388C83.2109 34.5132 83.4619 34.3877 83.5874 34.3877C84.968 33.3837 86.0976 32.1286 87.1016 30.7481C87.8546 29.744 88.7332 28.6145 89.4862 27.6104C89.6117 27.3594 89.8627 27.2339 90.1138 26.9829C90.3648 26.8574 90.6158 26.6064 90.8668 26.4809C91.2433 26.3554 91.6198 26.2298 91.8708 26.4809C91.8708 26.4809 91.8708 26.4809 91.9963 26.6064C92.1219 26.7319 92.2474 26.8574 92.2474 26.9829C93.0004 27.6104 93.3769 28.489 92.7494 29.493Z" fill="black"/>
<path d="M70.5349 69.1555C70.4094 69.281 70.4094 69.281 70.2839 69.281C70.1584 69.281 69.9074 69.1555 69.7819 69.03C68.7778 68.277 67.7738 67.524 66.7697 66.8964C65.7657 66.2689 64.7616 65.3904 63.8831 64.5118C63.8831 64.5118 63.7576 64.3863 63.6321 64.2608C63.5065 64.2608 63.5065 64.1353 63.381 64.0098C63.381 64.2608 63.381 64.3863 63.381 64.5118C63.5065 64.6373 63.5065 64.8883 63.6321 65.0138C63.8831 65.5159 64.0086 66.0179 64.3851 66.5199L64.5106 66.6454C64.5106 66.6454 64.5106 66.7709 64.6361 66.7709C64.6361 66.7709 64.6361 66.7709 64.7616 66.8964C65.0126 67.1474 65.5146 67.3985 65.8912 67.6495C65.7657 67.775 65.7657 68.026 65.6402 68.1515C65.6402 68.277 65.5146 68.277 65.5146 68.4025C64.6361 69.9086 64.0086 71.5402 63.5065 73.1717C63.2555 73.7993 63.13 74.5523 63.0045 75.1798C62.7535 76.3094 62.628 77.5644 62.377 78.8195V78.945C62.377 79.0705 62.377 79.196 62.2515 79.3215C62.126 79.9491 62.0005 80.5766 61.7495 81.2041C61.624 81.7061 61.2474 82.0827 60.7454 82.2082C60.2434 82.3337 59.7414 82.4592 59.1138 82.4592C58.8628 82.4592 58.4863 82.5847 58.2353 82.5847C57.9843 82.5847 57.7333 82.7102 57.4823 82.7102C57.4823 82.7102 57.4823 82.7102 57.3568 82.7102C56.2272 82.5847 55.0976 82.7102 54.0936 82.2082C53.5916 81.9572 53.3406 81.5806 53.0895 81.2041C53.0895 81.0786 52.964 80.8276 52.964 80.7021C52.964 80.3256 53.0895 79.9491 53.3406 79.5725C53.9681 78.8195 54.7211 78.192 55.5997 77.69C55.8507 77.5644 56.2272 77.4389 56.4782 77.3134C56.9802 77.0624 57.2312 76.6859 57.4823 76.1839C57.8588 74.9288 58.3608 73.7993 58.6118 72.6697C58.9883 71.4146 58.9883 70.0341 58.8628 68.779C58.8628 68.528 58.7373 68.4025 58.7373 68.277C58.7373 68.1515 58.6118 68.1515 58.6118 68.026C58.3608 67.6495 57.9843 67.3985 57.6078 67.1474C57.1057 66.7709 56.6037 66.3944 56.1017 66.1434C55.0976 65.5159 54.0936 64.7628 53.0895 64.1353C52.8385 63.8843 52.462 63.7588 52.211 64.0098C52.0855 63.7588 52.0855 63.5078 51.8345 63.2568C51.3325 62.7547 50.8304 62.2527 50.3284 61.7507C49.9519 61.3742 49.8264 60.9976 49.7009 60.4956C49.7009 60.1191 49.5754 59.7426 49.5754 59.3661C49.5754 59.1151 49.4499 58.864 49.4499 58.613C49.3244 58.362 49.1989 58.2365 49.0733 57.9855C48.5713 57.4835 48.4458 56.7304 48.3203 56.1029V55.9774C48.8223 55.4754 48.4458 54.8478 48.5713 54.2203C48.5713 54.2203 48.6968 54.0948 48.8223 54.0948C49.0734 54.3458 49.1989 54.8478 49.3244 55.2244C49.3244 55.3499 49.3244 55.3499 49.4499 55.4754C49.7009 56.4794 49.9519 57.4835 50.2029 58.4875C50.3284 58.864 50.4539 59.1151 50.7049 59.3661C50.8304 59.6171 51.0814 59.8681 51.207 60.1191C51.3325 60.2446 51.5835 60.4956 51.709 60.6211C51.5835 60.7466 51.458 60.9976 51.207 61.3742C51.458 61.4997 51.5835 61.7507 51.8345 62.0017C52.211 61.6252 52.5875 61.2487 53.0895 60.8721C52.964 61.6252 51.96 61.8762 52.713 62.7547C53.215 62.3782 53.7171 62.0017 54.2191 61.6252L54.3446 61.7507C53.9681 62.1272 53.4661 62.5037 52.964 62.8802C53.3406 63.2568 53.4661 63.5078 53.8426 63.6333C55.2231 64.5118 56.6037 65.3904 58.1098 66.2689C58.3608 66.3944 58.6118 66.5199 58.7373 66.6454C59.3648 67.0219 59.3648 67.0219 59.2393 67.775C59.2393 67.9005 59.2393 68.026 59.2393 68.026C59.4904 68.779 59.4904 69.5321 59.4904 70.4106C59.4904 71.0381 59.3648 71.7912 59.2393 72.4187C59.1138 73.4227 58.6118 74.3013 58.3608 75.3053C58.2353 75.5563 58.2353 75.6819 58.1098 75.9329C58.1098 76.0584 57.9843 76.1839 57.9843 76.3094C58.3608 76.4349 58.4863 76.5604 58.9883 76.6859C58.7373 76.8114 58.6118 77.0624 58.4863 77.0624C57.7333 77.3134 57.1057 77.69 56.4782 78.0665C55.8507 78.443 55.3487 78.8195 54.8466 79.196C54.5956 79.447 54.3446 79.5725 54.2191 79.8236C54.2191 79.9491 54.0936 79.9491 54.0936 80.0746C53.5916 80.9531 54.0936 81.7062 55.3487 81.9572C55.4742 81.4551 55.7252 80.9531 55.8507 80.4511C55.9762 80.3256 55.9762 80.0746 56.1017 79.9491C56.2272 79.698 56.3527 79.5725 56.6037 79.8236C56.8547 79.9491 56.8547 80.2001 56.6037 80.3256C56.2272 80.8276 55.9762 81.3296 55.7252 81.9572C56.2272 81.9572 56.6037 82.0827 56.8547 82.0827C57.2312 81.5806 56.8547 81.0786 57.4823 80.7021C57.4823 81.0786 57.6078 81.4551 57.6078 81.9572C57.8588 81.9572 58.1098 81.9572 58.3608 81.9572C58.9883 81.8317 59.6159 81.7061 60.2434 81.5806C60.7454 81.4551 60.9964 81.2041 61.2474 80.8276C61.7495 79.8236 61.7495 78.694 62.0005 77.69C62.2515 76.4349 62.5025 75.1798 62.7535 74.0503C62.7535 73.7993 62.7535 73.6738 62.7535 73.4227C61.875 73.1717 61.2474 74.1758 60.3689 74.0503C61.1219 73.2972 62.0005 73.1717 62.879 72.7952C63.6321 71.1636 64.2596 69.5321 65.0126 67.9005C64.2596 67.3985 63.7576 66.6454 63.381 65.7669C63.2555 65.2649 63.13 64.8883 63.0045 64.3863C63.0045 64.1353 62.879 63.8843 62.879 63.7588C62.879 63.6333 62.879 63.5078 62.879 63.5078C62.879 63.2568 62.7535 63.0057 62.628 62.7547C62.5025 62.6292 62.377 62.5037 62.2515 62.2527C61.2474 60.9976 59.9924 59.7426 59.1138 58.362C58.2353 56.9814 57.4823 55.4754 56.7292 54.0948C56.7292 53.9693 56.6037 53.9693 56.6037 53.8438C56.6037 53.8438 56.6037 53.8438 56.4782 53.8438C55.9762 54.0948 55.9762 54.7223 55.3487 54.7223C55.3487 54.4713 55.2231 54.3458 55.2231 54.0948C55.2231 53.9693 55.2231 53.7183 55.2231 53.5928C55.2231 51.2082 55.4742 48.8236 55.9762 46.4389C56.1017 45.6859 56.2272 44.9329 56.3527 44.1798C56.3527 43.9288 56.4782 43.5523 56.8547 43.1758C56.8547 43.4268 56.9802 43.6778 56.8547 43.8033C56.4782 45.8114 56.1017 47.945 55.8507 49.9531C55.7252 50.8316 55.5997 51.5847 55.5997 52.4632C55.5997 52.7142 55.5997 53.0908 55.5997 53.5928C55.9762 53.3418 56.2272 53.0908 56.4782 52.8397C56.7292 53.2163 56.9802 53.4673 57.2312 53.8438C57.9843 55.2244 58.7373 56.6049 59.4904 57.9855C59.7414 58.362 59.9924 58.7385 60.2434 59.115C61.3729 60.6211 62.628 62.0017 64.0086 63.2568C65.0126 64.1353 66.0167 64.8883 67.0207 65.6414C68.1503 66.5199 69.2798 67.524 70.4094 68.528C70.4094 68.779 70.4094 69.03 70.5349 69.1555Z" fill="black"/>
<path d="M3.38867 9.53761C3.51418 9.53761 3.51418 9.53761 3.38867 9.53761C3.51418 9.53761 3.51418 9.53761 3.51418 9.4121C3.51418 9.4121 3.51418 9.2866 3.51418 9.16109C3.51418 8.91008 3.51418 8.78457 3.51418 8.53356C3.51418 8.15704 3.51418 7.78052 3.63968 7.2785V7.15299C3.63968 7.02749 3.63968 6.90198 3.76519 6.77647V6.65097C3.76519 6.65097 3.76519 6.65097 3.76519 6.52546C3.76519 6.39996 3.76519 6.39996 3.76519 6.27445C3.76519 6.14894 3.76519 6.14894 3.76519 6.02344C3.76519 6.27445 3.38867 6.27445 3.38867 6.77647C3.38867 7.65502 3.38867 8.40805 3.38867 9.2866C3.38867 9.2866 3.38867 9.4121 3.38867 9.53761Z" fill="black"/>
<path d="M16.9433 19.9555C16.6923 20.081 16.4413 20.332 16.1903 20.4575C15.3117 21.085 14.5587 21.7126 13.5547 22.3401C12.9271 22.7166 12.2996 22.8421 11.6721 23.2186C10.7935 23.8462 9.78947 23.8462 8.91093 23.9717C8.78542 23.9717 8.78543 23.9717 8.65992 23.8462C8.53441 23.5952 8.53441 23.4697 8.40891 23.2186C8.2834 23.4697 8.1579 23.7207 7.90688 23.9717C7.90688 23.7207 7.90688 23.4697 7.90688 23.3441C7.90688 23.2186 7.90688 22.9676 7.90688 22.8421C8.03239 22.8421 8.03239 22.7166 8.15789 22.7166C8.2834 22.7166 8.40891 22.5911 8.53441 22.5911C10.919 21.9636 13.0526 20.9595 14.6842 19.2024C14.9352 18.9514 15.1862 18.7004 15.3117 18.4494C15.5628 17.8219 15.3117 17.4454 14.6842 17.4454C14.3077 17.4454 13.9312 17.5709 13.6802 17.6964C11.6721 18.5749 9.53846 19.0769 7.40486 19.2024C6.40081 19.2024 5.64777 18.9514 4.76923 18.7004C4.51822 18.5749 4.1417 18.4494 3.89069 18.1984C3.51417 16.6923 3.51417 16.6923 3.13765 16.5668C3.13765 17.1943 3.13765 17.8219 3.01215 18.4494C2.88664 19.0769 2.51012 19.579 2.25911 20.2065C1.75708 20.2065 1.38057 19.83 1.38057 19.328C1.38057 18.8259 1.25506 18.1984 1.38057 17.6964C1.50607 17.0688 1.75708 16.4413 2.38462 16.0648C2.76113 16.1903 3.01215 16.1903 3.38866 16.3158C4.39271 15.5628 5.14575 14.6842 5.14575 13.4292C5.14575 12.2996 4.89474 12.0486 3.76518 12.0486H2.51012C4.51822 10.417 6.77733 9.28747 7.65587 6.77734C6.90283 7.02836 6.52632 7.27937 6.1498 7.65589C5.64777 7.02836 5.02024 7.02836 4.39271 7.15386V7.27937C4.39271 7.40487 4.39271 7.53038 4.26721 7.65589C4.26721 7.78139 4.39271 8.0324 4.51822 8.15791H5.77328C5.27125 8.78544 4.76923 9.28746 4.39271 9.66398C3.13765 10.668 1.75708 11.4211 0.62753 12.5506C0.125506 13.0526 -0.125506 13.5547 0.125506 14.1822C0.251012 14.5587 0.251012 14.9352 0.125506 15.3118C0.125506 15.6883 0 16.1903 0 16.5668C0.125506 17.4454 0.251012 18.3239 0.376518 19.2024C0.502024 19.7045 0.753036 19.9555 1.00405 20.332C1.50607 20.7085 2.0081 20.7085 2.51012 20.7085C2.38462 22.0891 2.51012 22.8421 2.76113 23.4697V23.5952C3.26316 24.5992 4.26721 24.8502 5.27125 24.0972C5.39676 24.0972 5.39676 23.9717 5.52227 23.9717C5.89879 23.7207 6.2753 23.3441 6.65182 22.9676C6.90283 22.7166 7.02834 22.7166 7.27935 22.9676C7.27935 23.2186 7.27935 23.5952 7.27935 23.9717C6.90283 23.9717 6.65182 24.0972 6.40081 24.0972C6.40081 24.4737 6.77733 24.5992 6.90283 24.4737C7.65587 24.4737 8.2834 24.4737 9.03644 24.4737C9.16194 24.4737 9.28745 24.4737 9.41296 24.4737C9.66397 24.4737 9.78947 24.4737 10.0405 24.3482C10.7935 24.0972 11.4211 23.7207 12.0486 23.5952C12.6761 23.3441 13.3036 23.0931 13.9312 22.7166C14.9352 22.0891 15.8138 21.2105 16.6923 20.332C16.9433 20.2065 16.9433 20.2065 16.9433 19.9555ZM12.5506 19.7045C13.1781 19.2024 13.6802 18.7004 14.3077 18.1984C14.4332 18.7004 14.0567 18.9514 13.9312 19.0769C12.8016 20.2065 11.5466 20.9595 10.668 21.085C11.17 20.4575 11.9231 20.081 12.5506 19.7045ZM6.40081 22.3401C6.02429 22.8421 5.52227 23.2186 5.02024 23.5952C4.39271 24.0972 3.63968 23.8462 3.38866 23.0931C3.13765 22.5911 3.13765 22.0891 3.26316 21.7126C3.51417 21.336 3.76518 21.085 4.1417 20.7085C4.39271 20.4575 4.76923 20.2065 5.14575 19.9555C5.02024 19.83 4.89474 19.83 4.76923 19.7045C4.76923 19.7045 4.64372 19.579 4.51822 19.4535C5.14575 19.328 5.64777 19.7045 6.1498 19.7045C6.52632 19.7045 6.77733 19.7045 7.15385 19.7045C7.40486 19.7045 7.65587 19.7045 7.90688 19.7045C7.78138 19.9555 7.78138 20.081 7.65587 20.2065C7.40486 20.9595 6.90283 21.7126 6.40081 22.3401Z" fill="black"/>
<path d="M22.9668 19.8286C22.9668 19.8286 23.0923 19.8286 23.0923 19.7031C23.0923 19.7031 22.9668 19.8286 22.9668 19.8286Z" fill="black"/>
<path d="M50.0762 26.8598C50.2017 26.7342 50.2017 26.7342 50.0762 26.8598C50.2017 26.7342 50.2017 26.8598 50.0762 26.8598Z" fill="black"/>
<path d="M72.5418 34.7669C72.0397 34.5159 71.5377 34.1393 71.2867 33.5118C71.1612 33.1353 70.9102 32.7588 70.7847 32.3822C70.6592 32.0057 70.4082 31.7547 70.2826 31.3782C69.5296 30.2486 68.7766 29.2446 67.7725 28.3661C67.647 28.2405 67.396 27.9895 67.2705 27.864C66.7685 27.4875 66.392 27.111 65.8899 26.86C65.5134 26.609 65.0114 26.4835 64.6349 26.2325C64.3839 26.1069 64.2584 25.9814 64.0073 25.8559C63.8818 25.7304 63.6308 25.6049 63.5053 25.6049C63.1288 25.6049 62.7523 25.6049 62.2503 25.4794H62.1248C60.9952 25.4794 59.8656 25.3539 58.7361 25.3539C56.477 25.3539 54.2179 25.6049 51.8333 25.9814C51.4567 25.9814 51.0802 26.1069 50.8292 26.4835C50.7037 26.609 50.4527 26.7345 50.2017 26.9855C50.3272 26.7345 50.4527 26.609 50.5782 26.358C50.3272 26.358 50.2017 26.2325 49.9507 26.2325C48.4446 26.358 46.813 26.4835 45.3069 26.609C44.1774 26.7345 43.1733 26.609 42.5458 25.6049C39.6592 25.3539 36.898 25.1029 34.0114 24.8519C34.1369 25.2284 34.3879 25.6049 34.7644 25.7304C35.392 26.1069 36.0195 26.358 36.5215 26.7345C36.647 26.86 36.898 26.9855 37.0235 27.111C36.2705 27.111 35.5175 26.7345 34.8899 26.4835C33.2584 25.6049 31.8778 24.4754 30.6227 23.2203C30.1207 22.7183 29.4932 22.2163 28.8656 21.8397C28.4891 21.5887 27.9871 21.3377 27.4851 21.2122C26.8575 21.0867 26.6065 20.5847 26.1045 20.2082C25.8535 19.9571 25.728 19.8316 25.477 19.5806C25.226 19.3296 24.975 19.0786 24.7239 18.8276C24.2219 19.2041 23.7199 19.5806 23.0924 19.9571C23.2179 19.7061 23.4689 19.5806 23.5944 19.3296C23.8454 19.0786 24.0964 18.8276 24.4729 18.4511C24.2219 18.0746 23.8454 17.8235 23.5944 17.5725H23.4689C22.9669 17.698 22.4648 17.8235 21.8373 17.949C20.8332 18.2001 20.0802 17.698 19.3272 17.196C19.2017 17.0705 18.9507 16.8195 18.9507 16.694C18.9507 16.0665 18.5741 15.8154 18.1976 15.5644C17.6956 15.0624 17.3191 14.5604 17.1936 13.8073V13.6818C17.1936 13.4308 17.0681 13.1798 16.9426 12.9288C16.566 13.1798 16.1895 13.3053 15.6875 13.5563C15.813 13.0543 16.1895 12.9288 16.4405 12.8033C16.8171 12.6778 16.9426 12.4268 16.8171 12.0503C16.8171 12.0503 16.6915 12.0503 16.566 11.9248C16.6915 11.6737 16.8171 11.4227 16.8171 11.0462C17.0681 9.66565 17.6956 8.53609 18.1976 7.40654C18.1976 7.40654 18.3231 7.28103 18.4486 7.28103C18.8252 7.53204 18.8252 7.78306 18.6996 8.15957C17.6956 9.79115 17.5701 11.5482 17.9466 13.4308C18.8252 13.1798 19.3272 12.3013 20.2057 12.1758C19.8292 12.4268 19.5782 12.6778 19.2017 13.0543C18.8252 13.3053 18.4486 13.6818 18.0721 13.9329C18.0721 14.6859 18.5741 15.0624 19.0762 15.4389C19.5782 15.8154 19.9547 16.192 19.8292 16.8195C20.5822 17.196 21.3353 17.447 22.0883 17.196C22.8413 16.945 23.3434 16.694 23.7199 15.941V15.8154C24.0964 14.8114 24.5984 13.8073 25.1005 12.8033C25.226 12.5523 25.3515 12.3013 25.3515 12.0503C25.6025 11.4227 25.8535 10.7952 25.979 10.1677C25.979 10.0422 25.979 9.91666 26.1045 9.91666C26.23 9.41463 26.23 8.7871 26.1045 8.28508C26.1045 8.03407 25.979 7.78306 25.728 7.40654C25.6025 7.28103 25.6025 7.15552 25.6025 7.03002C24.9749 5.02192 23.4689 4.01787 21.4608 3.51585C21.2098 3.39034 20.8332 3.39034 20.5822 3.26484C20.4567 3.26484 20.3312 3.13933 20.0802 2.88832C20.2057 2.88832 20.3312 2.88832 20.3312 2.76281C20.4567 2.76281 20.5822 2.63731 20.5822 2.76281C21.5863 3.01382 22.7158 3.26484 23.7199 3.89237C24.5984 4.39439 25.3515 5.02192 25.728 6.02597C25.8535 6.27698 25.979 6.52799 26.1045 6.6535C26.8575 7.78306 26.732 8.91261 26.481 10.1677C26.3555 10.9207 26.1045 11.5482 25.728 12.1758C25.1005 13.5563 24.5984 15.0624 23.9709 16.443C24.8494 17.5725 25.6025 18.5766 26.732 19.5806C26.983 19.7061 27.1086 19.9571 27.3596 20.0827H27.4851C27.9871 19.8316 28.2381 20.0827 28.6146 20.4592C28.8656 20.7102 29.2422 20.9612 29.4932 21.2122C29.9952 21.7142 30.4972 22.0907 30.9992 22.5928C31.6268 23.0948 32.3798 23.2203 33.1328 23.4713C34.6389 24.0988 36.145 24.2244 37.7766 24.3499C38.0276 24.3499 38.2786 24.3499 38.5296 24.3499C38.9061 24.3499 39.2826 24.3499 39.5337 24.3499C40.6632 24.3499 41.6673 24.2244 42.6713 23.9733C43.2988 23.8478 43.2988 23.8478 43.4243 24.4754C43.4243 24.6009 43.4243 24.7264 43.4243 24.9774C43.4243 25.1029 43.4243 25.2284 43.4243 25.3539C44.0519 25.6049 44.8049 25.4794 45.4324 25.4794C47.315 25.3539 49.3231 25.2284 51.2057 25.1029C51.5822 25.1029 51.8333 24.9774 52.2098 24.9774C52.8373 24.8519 53.5903 24.7264 54.2179 24.6009C55.8494 24.3499 57.481 24.2244 59.2381 24.4754C60.8697 24.7264 62.5013 24.7264 64.2584 24.8519C64.2584 25.1029 64.2584 25.2284 64.3839 25.4794C64.5094 25.4794 64.5094 25.6049 64.6349 25.6049C66.2665 26.1069 67.5215 27.362 68.7766 28.4916C69.6551 29.2446 70.1571 30.3742 70.7847 31.3782C71.1612 32.0057 71.5377 32.7588 71.9142 33.5118C71.9142 33.6373 72.0397 33.7628 72.0397 33.8883C72.4163 34.2648 72.4163 34.5159 72.5418 34.7669Z" fill="black"/>
<path d="M37.1503 57.4831C37.6523 56.9811 38.2798 56.6046 38.7819 56.1026C39.6604 55.3495 40.4134 54.722 41.292 53.969C41.543 53.7179 41.794 53.8434 42.045 54.0945C42.6725 53.3414 43.3001 52.5884 43.9276 51.8354C43.5511 52.8394 42.7981 53.3414 42.296 54.3455C42.9236 54.3455 43.3001 54.3455 43.6766 53.8435C44.1786 53.2159 44.5551 52.4629 45.4337 51.9609C44.9317 52.7139 44.5551 53.2159 44.0531 53.969C44.4296 53.969 44.5551 53.969 44.8062 53.969C47.6928 53.4669 50.5794 52.9649 53.4661 52.4629C53.8426 52.3374 54.3446 52.4629 54.7211 52.8394C54.4701 52.9649 54.4701 52.9649 54.3446 52.9649C53.2151 53.0904 52.0855 53.0904 50.9559 53.4669C48.8223 54.0945 46.5632 54.22 44.3041 54.722C43.5511 54.8475 42.7981 55.0985 42.045 55.224C41.543 55.3495 41.292 55.3495 41.041 54.722C40.79 54.973 40.5389 55.0985 40.2879 55.224C39.4094 55.9771 38.4053 56.8556 37.5268 57.7341C37.2758 57.8596 37.2758 58.2362 37.1503 58.4872C37.0248 58.6127 37.0248 58.8637 36.8993 58.9892C36.2717 59.2402 36.2717 59.8677 36.1462 60.3698C36.0207 61.4993 35.8952 62.5034 35.7697 63.6329C35.7697 63.7584 35.7697 64.0094 35.8952 64.0094C36.2717 64.386 36.1462 64.888 36.0207 65.39C35.3932 67.5236 34.8912 69.7827 34.3891 71.9163C34.0126 73.5479 33.7616 75.305 33.3851 76.9366C33.1341 78.0661 32.8831 79.1957 32.6321 80.1997C32.5066 81.0783 32.2555 81.9568 32.13 82.7099C32.13 82.9609 32.0045 83.2119 31.879 83.5884C31.2515 83.4629 30.875 83.7139 30.4985 84.0904C30.1219 84.4669 29.6199 84.7179 29.1179 84.8435C28.1138 85.22 26.9843 85.3455 25.9802 85.5965C25.3527 85.722 24.8507 85.5965 24.3487 85.0945C23.9721 84.718 23.3446 84.5924 22.7171 84.3414C22.7171 84.3414 22.5916 84.2159 22.5916 84.0904C22.4661 82.4588 23.5956 80.8273 24.9762 80.1997C25.4782 79.9487 25.9802 79.6977 26.4823 79.5722C27.1098 79.3212 27.6118 78.9447 27.7373 78.3171C27.7373 78.1916 27.8628 78.0661 28.1138 77.8151C28.2393 78.0661 28.3649 78.1916 28.3649 78.3171C28.1138 78.9447 27.9883 79.5722 27.3608 79.8232C26.7333 80.0742 26.2312 80.3252 25.6037 80.5762C24.4742 80.9528 23.7211 81.7058 23.3446 82.8354C23.0936 83.5884 23.0936 83.8394 23.8466 84.2159C23.9721 84.3414 24.2232 84.3414 24.3487 84.4669C24.4742 84.4669 24.5997 84.4669 24.7252 84.4669C25.1017 83.5884 25.1017 82.4588 26.3568 81.8313C26.3568 82.0823 26.4823 82.2078 26.4823 82.3333C25.8547 82.9609 25.9802 83.8394 25.3527 84.4669C25.9802 84.969 26.4823 84.8435 26.9843 84.5924C27.2353 84.4669 27.2353 84.0904 27.3608 83.8394C27.4863 83.3374 27.6118 82.9609 28.1138 82.8354C28.6159 83.3374 27.9883 83.7139 28.1138 84.0904C29.2434 84.3414 30.373 83.7139 31.0005 82.5843C30.7495 82.5843 30.4985 82.7099 30.2474 82.7099C30.2474 82.5843 30.373 82.4588 30.373 82.4588C31.0005 82.0823 31.2515 81.4548 31.628 80.8273C31.7535 80.7018 31.628 80.5762 31.628 80.3252C31.0005 80.5762 30.7495 81.0783 29.9964 81.2038C30.2474 80.7017 30.7495 80.4507 31.126 80.3252C31.628 80.0742 31.879 79.8232 32.0045 79.1957C32.2555 77.5641 32.6321 76.058 32.8831 74.4264C33.5106 71.5398 34.2636 68.5277 35.0167 65.641C35.1422 65.2645 35.2677 65.0135 34.8912 64.637C34.7657 64.5115 34.7657 64.2605 34.8912 64.0094C35.1422 62.6289 35.2677 61.3738 35.5187 59.9932C35.5187 59.7422 35.6442 59.4912 35.6442 59.1147C36.2717 56.9811 36.8993 54.722 37.4013 52.5884C37.6523 51.5843 37.9033 50.7058 38.1543 49.7017C38.2798 49.3252 38.2798 49.0742 38.7819 49.0742C38.9074 49.4507 38.7819 49.7018 38.7819 50.0783C38.2798 52.0864 37.6523 53.969 37.1503 55.9771C37.0248 56.3536 37.0248 56.7301 36.8993 57.1066C37.0248 57.4831 37.0248 57.4831 37.1503 57.4831Z" fill="black"/>
<path d="M20.0808 3.01215C19.3278 2.88664 18.9512 2.63563 18.4492 2.51012C17.9472 2.25911 17.4452 2.0081 16.9432 1.75709C15.8136 1.12955 14.5585 1.00405 13.3035 1.00405C12.4249 1.00405 11.4209 0.878543 10.5423 1.12955H10.4168C9.53829 0.753036 9.03627 1.25506 8.40874 1.63158C7.6557 2.0081 6.90267 2.51012 6.14963 3.01215C5.6476 3.26316 5.02007 3.51417 4.51805 3.89069C3.76501 4.26721 3.01198 4.76923 2.25894 5.39676C2.13343 5.39676 2.00793 5.64777 2.00793 5.77328C1.88242 6.52632 1.88242 7.40486 1.75692 8.2834C2.13343 8.03239 2.38445 7.90688 2.76097 7.78138C2.63546 8.1579 2.25894 8.2834 2.13343 8.53441C1.75692 8.78543 1.5059 9.16194 1.75692 9.66397C1.75692 9.91498 1.75692 10.166 1.63141 10.5425C1.00388 10.0405 1.12939 9.41296 1.12939 8.78543C1.12939 8.1579 1.25489 7.53036 1.3804 7.02834C1.3804 7.02834 1.3804 7.02834 1.3804 6.90283C1.3804 6.77733 1.3804 6.65182 1.3804 6.52632C1.12939 5.77328 1.63141 5.27126 2.13343 4.89474C2.25894 4.76923 2.38445 4.76923 2.38445 4.64372C3.3885 3.89069 4.39254 3.26316 5.5221 2.76113C5.6476 2.63563 5.89862 2.51012 6.02412 2.51012C7.27918 1.75709 8.65975 1.00405 9.91481 0.125506C10.0403 0.125506 10.1658 0 10.1658 0C10.1658 0 10.1658 0.125506 10.2913 0.125506C10.6678 0.502024 10.9189 0.502024 11.4209 0.502024C12.1739 0.502024 12.927 0.502024 13.68 0.502024C14.433 0.502024 15.0606 0.62753 15.8136 0.753036C16.6921 1.00405 17.4452 1.38057 18.1982 1.75709C18.7002 2.0081 19.2023 2.25911 19.5788 2.51012C19.7043 2.51012 19.7043 2.63563 19.8298 2.63563C19.9553 2.76113 19.9553 2.88664 20.0808 3.01215Z" fill="black"/>
<path d="M13.3034 29.7463C13.6799 29.6208 13.8054 29.4953 14.0564 29.3698C14.3074 29.2443 14.4329 28.9933 14.935 29.1188C14.3074 29.4953 13.8054 29.8718 13.3034 30.1228C13.1779 30.7503 13.1779 31.3779 13.0524 32.0054V32.1309C13.5544 32.884 13.1779 33.7625 13.1779 34.5155C13.0524 35.2686 13.0524 36.1471 12.8014 36.9001C12.8014 36.7746 12.6759 36.6491 12.6759 36.3981C12.6759 35.7706 12.6759 35.0176 12.6759 34.39C12.6759 34.0135 12.9269 33.637 12.4248 33.2605C12.2993 33.135 12.4248 32.884 12.4248 32.6329C12.8014 30.4993 12.8014 28.3657 12.4248 26.2321C12.4248 25.8556 12.1738 25.6046 12.1738 25.2281C12.1738 25.1026 12.2993 24.9771 12.2993 24.8516C12.2993 25.1026 12.5503 25.1026 12.5503 25.2281C12.6759 25.3536 12.6759 25.6046 12.8014 25.7301C12.9269 26.7342 13.0524 27.8637 13.1779 28.8678C13.1779 29.1188 13.1779 29.3698 13.3034 29.7463Z" fill="black"/>
<path d="M12.2992 7.53125C12.6757 7.65676 13.0522 7.65676 13.3032 7.78226C13.6797 7.90777 13.8052 8.15878 13.8052 8.40979C13.8052 8.78631 13.5542 8.91182 13.3032 8.91182C12.8012 9.16283 12.1736 9.28833 11.6716 8.91182C11.5461 8.91182 11.4206 8.6608 11.2951 8.5353C11.1696 8.15878 11.4206 8.03327 11.6716 7.90777C11.9226 7.78226 12.1736 7.65676 12.2992 7.53125Z" fill="black"/>
<path d="M40.5392 39.4082C40.1627 38.2786 39.5352 37.1491 39.5352 36.0195C40.7902 36.8981 40.4137 38.1531 40.5392 39.4082Z" fill="black"/>
<path d="M49.7012 28.7401C49.8267 27.987 50.9562 26.8575 52.0858 26.3555C51.3328 26.983 50.4542 27.8615 49.7012 28.7401Z" fill="black"/>
<path d="M34.2636 39.5352C33.2595 40.2882 32.381 41.1667 31.377 41.9198C31.628 41.2922 32.632 40.2882 34.2636 39.5352Z" fill="black"/>
<path d="M28.3652 63.0022C28.7418 62.2491 29.3693 61.8726 30.2478 61.4961C29.9968 61.6216 29.8713 61.7471 29.7458 61.8726C29.4948 61.9981 29.3693 62.2491 29.1183 62.3746C28.8673 62.6256 28.7418 62.7512 28.6162 63.0022C28.4907 63.1277 28.4907 63.1277 28.3652 63.0022Z" fill="black"/>
<path d="M31.0003 62.5039C30.3728 63.0059 29.7452 63.6335 28.9922 64.1355C29.4942 63.2569 30.2472 62.8804 31.0003 62.5039Z" fill="black"/>
<path d="M60.6191 58.3597C60.7446 57.7321 61.3722 57.1046 62.3762 56.3516C61.7487 57.1046 61.2467 57.7321 60.6191 58.3597Z" fill="black"/>
<path d="M62.0003 75.0508C61.3728 75.4273 60.6197 75.6783 59.9922 76.0548C60.3687 75.3018 61.1217 75.0508 62.0003 75.0508Z" fill="black"/>
<path d="M14.5594 6.90392C14.0574 6.77842 12.9278 6.65291 12.4258 6.52741C12.4258 6.4019 12.6768 6.15089 13.4298 6.27639C13.9319 6.27639 14.3084 6.15089 14.5594 6.90392Z" fill="black"/>
<path d="M20.4583 13.5547C19.9562 13.9312 19.3287 14.3077 18.7012 14.6842C19.0777 14.0567 19.2032 13.9312 20.4583 13.5547Z" fill="black"/>
<path d="M50.0774 26.8594C49.4499 27.6124 48.9478 28.2399 48.3203 28.491C48.9478 27.7379 49.4499 27.1104 50.0774 26.8594Z" fill="black"/>
<path d="M4.51758 6.27342C5.0196 5.7714 6.14916 5.89691 6.77669 6.02241C6.27466 6.39893 5.14511 6.52444 4.51758 6.27342Z" fill="black"/>
<path d="M33.5099 41.293C33.1334 41.795 32.8824 42.1715 32.5059 42.6735C32.5059 42.046 32.7569 41.6695 33.5099 41.293Z" fill="black"/>
<path d="M22.8418 21.4621C23.3438 21.0856 23.8458 20.5835 24.3479 20.207L24.4734 20.3325C23.9714 20.8346 23.4693 21.2111 22.9673 21.7131C22.9673 21.5876 22.8418 21.4621 22.8418 21.4621Z" fill="black"/>
<path d="M32.5066 39.2852C32.1301 39.9127 31.5025 40.2892 30.875 40.9167C31.2515 40.2892 31.879 39.6617 32.5066 39.2852Z" fill="black"/>
<path d="M29.2422 61.1222C29.8697 60.3692 30.1207 60.1182 30.9993 59.8672C30.2462 60.4947 29.7442 60.8712 29.2422 61.1222Z" fill="black"/>
<path d="M10.7931 54.2188C10.4166 54.5953 10.1656 54.9718 9.78906 55.3483C9.78906 54.7208 10.4166 54.4698 10.7931 54.2188Z" fill="black"/>
<path d="M15.9387 62.25C15.6876 62.752 15.3111 63.2541 14.6836 63.6306C15.0601 62.8775 15.3111 62.6265 15.9387 62.25Z" fill="black"/>
<path d="M10.418 56.1017C10.418 55.4742 10.92 55.2232 11.422 55.0977C11.0455 55.3487 10.669 55.7252 10.418 56.1017Z" fill="black"/>
<path d="M9.53906 36.5226C9.91558 36.2716 10.1666 36.0205 10.5431 35.7695L10.6686 35.895C10.2921 36.1461 10.0411 36.3971 9.66457 36.6481L9.53906 36.5226Z" fill="black"/>
<path d="M12.8009 73.2974C12.4244 73.6739 12.0479 74.0504 11.7969 74.4269C11.7969 73.7994 12.4244 73.5484 12.6754 73.1719C12.6754 73.1719 12.8009 73.1719 12.8009 73.2974Z" fill="black"/>
<path d="M16.5661 11.7969C16.1896 12.0479 15.6876 12.4244 15.1855 12.8009C15.5621 12.0479 15.9386 11.7969 16.5661 11.7969Z" fill="black"/>
<path d="M6.02452 16.1902C5.77351 16.1902 5.648 16.3157 5.39699 16.1902L5.27148 15.9392C5.27148 15.8137 5.39699 15.6882 5.5225 15.8137C5.648 15.8137 5.89902 15.9392 6.02452 16.0647V16.1902Z" fill="black"/>
<path d="M14.3082 30.4992C13.9317 30.7502 13.6807 30.8757 13.4297 31.0012C13.5552 30.3737 13.5552 30.3737 14.3082 30.4992Z" fill="black"/>
<path d="M54.3448 58.7383C54.0938 58.9893 53.8428 59.1148 53.5918 59.3658C53.8428 58.8638 53.8428 58.8638 54.3448 58.7383Z" fill="black"/>
<path d="M32.6309 39.2848C32.8819 39.0338 33.1329 38.7828 33.5094 38.4062C33.2584 38.9083 33.0074 39.1593 32.6309 39.2848Z" fill="black"/>
<path d="M1.88281 9.66461C1.88281 9.03708 2.38484 9.16259 2.88686 9.16259C2.51034 9.4136 2.13382 9.53911 1.88281 9.66461Z" fill="black"/>
<path d="M62.5016 58.2349C62.2506 58.4859 61.9996 58.6114 61.7486 58.8624L61.623 58.7369C61.8741 58.4859 62.1251 58.3604 62.2506 58.1094C62.3761 58.1094 62.5016 58.1094 62.5016 58.2349Z" fill="black"/>
<path d="M10.5421 34.7661C10.2911 34.8916 10.1656 35.1426 9.91457 35.2682L9.78906 35.1426C10.0401 35.0171 10.1656 34.7661 10.4166 34.6406C10.5421 34.6406 10.5421 34.7661 10.5421 34.7661Z" fill="black"/>
<path d="M22.9679 19.8281C22.8424 20.2046 22.4659 20.3301 22.2148 20.4557C22.3403 20.2046 22.5914 19.8281 22.9679 19.8281Z" fill="black"/>
<path d="M7.53101 15.5625C7.65651 15.688 7.78202 15.8135 7.78202 15.8135L7.65651 16.0645C7.53101 16.0645 7.4055 15.939 7.4055 15.8135C7.28 15.688 7.4055 15.688 7.53101 15.5625Z" fill="black"/>
<path d="M63.0039 55.8487C63.1294 55.7232 63.2549 55.7232 63.5059 55.5977C63.5059 55.5977 63.5059 55.7232 63.6314 55.7232C63.5059 55.8487 63.2549 55.8487 63.1294 55.9742C63.0039 55.9742 63.0039 55.8487 63.0039 55.8487Z" fill="black"/>
<path d="M6.15039 17.4463C6.2759 17.3208 6.4014 17.1953 6.52691 17.1953L6.65242 17.3208C6.65242 17.4463 6.52691 17.5718 6.52691 17.5718C6.4014 17.6973 6.2759 17.5718 6.15039 17.4463Z" fill="black"/>
<path d="M63.0039 57.6065C63.1294 57.481 63.2549 57.481 63.3804 57.3555C63.3804 57.3555 63.3804 57.3555 63.5059 57.481C63.2549 57.481 63.1294 57.6065 63.0039 57.6065Z" fill="black"/>
<path d="M3.51367 22.3419C3.89019 21.8398 4.26671 21.8398 4.64323 21.8398C4.39221 22.3419 4.0157 22.3419 3.51367 22.3419Z" fill="black"/>
<path d="M4.8941 7.65676C4.8941 7.78226 4.76859 7.78226 4.76859 7.78226L4.51758 7.65676L4.64308 7.53125C4.64308 7.53125 4.8941 7.53125 4.8941 7.65676Z" fill="white"/>
<path d="M12.1734 8.15676C12.1734 8.28226 12.0479 8.28226 12.0479 8.28226C12.0479 8.28226 11.7969 8.28226 11.7969 8.15676C11.7969 8.03125 11.9224 8.03125 11.9224 8.03125L12.1734 8.15676Z" fill="white"/>
<path d="M1.38051 13.3023C1.50601 13.1768 1.63152 13.1768 1.75702 13.1768C1.88253 13.1768 2.00804 13.1768 2.25905 13.1768C2.25905 13.1768 2.25905 13.1768 2.38455 13.1768C2.63557 13.1768 3.01208 13.1768 3.2631 13.3023C3.3886 13.3023 3.3886 13.3023 3.51411 13.3023C3.51411 13.1768 3.51411 13.1768 3.51411 13.0513C3.2631 12.9258 2.88658 12.9258 2.51006 12.9258H2.38455C2.25905 12.9258 2.00804 12.9258 1.88253 12.9258C1.75702 12.9258 1.38051 12.9258 1.255 13.0513C1.255 13.0513 1.12949 13.1768 1.255 13.3023H1.38051Z" fill="white"/>
</g>
<defs>
<clipPath id="clip0_12765_8673">
<rect width="93" height="85.7207" fill="white"/>
</clipPath>
</defs>
</svg>
