<svg width="95" height="83" viewBox="0 0 95 83" fill="none" xmlns="http://www.w3.org/2000/svg">
<circle cx="49.4993" cy="47.9993" r="34.4993" fill="#F7BE45" fill-opacity="0.85"/>
<path d="M23.0979 5.75865C25.121 5.64413 27.106 6.21672 29.0528 6.78931C30.6942 7.28556 32.3357 7.7818 33.9771 8.23987C34.9696 8.54526 36.0002 8.85064 36.7637 9.57592C38.4815 11.2937 37.6417 14.4239 35.6949 15.9126C33.7481 17.3632 31.1905 17.5922 28.7856 17.7831C27.9076 19.9589 29.5109 22.3256 31.305 23.8525C34.9696 26.9063 39.9702 28.3569 44.7036 27.708C53.407 26.5246 60.7743 18.7755 69.5159 19.8062C72.0353 20.1116 74.4402 21.1422 76.9214 21.6767C79.4408 22.2111 82.2656 22.1347 84.2124 20.4933C85.4721 19.4245 86.1592 17.8976 86.8081 16.3707C88.5259 12.477 90.2437 8.54526 90.969 4.38443C91.1598 3.39194 91.2743 2.3231 91.9233 1.55965C92.5722 0.796197 93.9464 0.528988 94.5572 1.33062C94.7862 7.32373 94.2136 15.8362 90.5491 20.5697C89.3657 22.1347 87.1517 22.5546 86.2355 24.2724C85.2812 26.0665 85.7775 37.9764 85.4721 39.9614C84.5178 46.069 82.7618 40.9539 83.0672 47.0997C83.1435 48.3976 83.2199 49.7336 82.7236 50.917C82.3037 51.9095 81.5021 52.7111 80.7387 53.4745C79.2118 54.9633 77.723 56.452 76.1961 57.9789C75.738 58.437 75.2418 58.8951 75.0509 59.544C74.8219 60.3074 75.0128 61.1472 75.0128 61.9489C74.9746 63.0559 74.5165 64.0865 74.0584 65.079C72.9133 67.5984 71.7299 70.156 70.5847 72.6754C69.6686 74.6604 68.1417 76.9889 66.004 76.569C64.2481 76.2255 63.4083 74.0878 63.7518 72.37C64.0954 70.6523 65.1642 69.1635 66.0422 67.6366C66.9201 66.1097 67.5691 64.2392 66.9583 62.5978C65.3551 62.3306 63.6755 63.4376 63.2556 65.0027C63.1029 65.6516 63.1029 66.4151 62.6448 66.9113C61.9959 67.5984 60.7743 67.2931 60.0872 66.6823C58.6748 65.4226 58.3313 63.2467 58.9802 61.4526C59.591 59.6585 61.0034 58.2461 62.5303 57.1391C63.6373 56.3757 64.897 55.6122 65.2405 54.3143C65.9277 51.9476 63.1029 50.0772 60.698 49.6954C54.9721 48.7029 48.7881 51.1078 45.238 55.6885C43.4439 58.0171 42.2987 60.7655 40.4283 63.0177C38.5196 65.2317 35.4277 66.9113 32.7174 65.8425C31.8394 65.4989 30.8088 64.9263 30.0453 65.4989C29.7781 65.6898 29.6254 66.0333 29.5109 66.3006C28.5947 68.4764 28.5184 70.8813 28.3275 73.2098C28.1367 75.5384 27.6786 77.9814 26.1517 79.8137C24.663 81.6078 21.8 82.4858 19.8914 81.1116C19.5096 80.8062 19.1279 80.3863 19.1279 79.9282C19.1279 79.3938 19.5096 78.9357 19.815 78.5158C22.0672 75.5765 22.1054 71.5684 22.029 67.8656C21.9909 65.4989 21.9145 63.0559 20.9984 60.88C20.3113 59.2386 19.1661 57.8644 18.2881 56.3375C14.0509 49.2374 15.1961 40.3431 15.1579 32.0596C15.1579 30.9145 14.8907 29.4257 13.7456 29.1967C12.9821 29.044 12.2186 29.5784 11.5697 29.9983C8.89762 31.7543 5.11852 32.0978 2.59912 30.0747C0.117895 28.0897 -0.111141 23.5853 2.59912 21.9057C4.88948 20.4933 8.40137 21.2186 9.96646 19.0428C10.5772 18.1648 10.6917 17.0196 10.9589 15.9508C11.7224 12.8969 13.8601 11.2937 16.265 9.49957C18.3645 7.89632 20.2731 5.91134 23.0979 5.75865Z" fill="white"/>
<path d="M27.8278 18.3396C28.0186 18.4541 28.2095 18.5686 28.2858 18.7595C28.3622 18.9122 28.3622 19.0649 28.324 19.2176C28.2858 20.2864 28.2477 21.3552 28.2095 22.3859C28.2095 22.6531 28.1713 22.9585 28.0568 23.1875C27.8278 23.5692 27.3697 23.7219 26.9498 23.6838C26.5299 23.6456 26.11 23.4547 25.7664 23.2639C24.1632 22.4241 22.5218 21.4316 21.682 19.8283C21.033 18.645 19.9642 14.9804 22.3691 15.1712C23.0944 15.2476 24.3541 16.4691 25.003 16.8508C25.9191 17.3853 26.9116 17.8052 27.8278 18.3396Z" fill="#BCBCBB"/>
<path d="M30.5374 59.8699C30.0412 60.9388 29.5831 62.0458 29.5449 63.2291C29.5449 63.8399 29.8121 64.5652 30.3847 64.6415C30.6138 64.6797 30.8428 64.6033 31.0337 64.527C32.0261 64.2216 33.095 64.1071 34.1256 64.2216C35.2327 64.3361 36.5305 64.6415 37.2558 63.8017C37.8284 63.1909 37.7521 62.1985 37.294 61.4732C36.8741 60.7861 36.1488 60.2898 35.4617 59.8317C34.6982 59.3355 33.1332 57.8468 32.2552 57.8086C31.1482 57.8468 30.9955 58.9156 30.5374 59.8699Z" fill="#BCBCBB"/>
<path d="M20.6586 58.0171C19.8951 57.4063 19.1317 56.8337 18.5209 56.0703C17.9101 55.3068 17.4902 54.3907 17.5666 53.3982C17.6047 53.0164 17.7193 52.5965 17.9483 52.2912C18.4827 51.6422 19.5134 51.6804 20.315 51.9858C20.7731 52.1385 21.193 52.4057 21.5365 52.7492C21.9564 53.2073 22.1473 53.8562 22.3 54.5052C22.529 55.345 22.7199 56.1848 22.9489 57.0246C23.7505 60.002 22.5672 59.4676 20.6586 58.0171Z" fill="#BCBCBB"/>
<path d="M62.7516 49.1977C62.408 48.2052 62.5226 46.9455 63.286 46.2202C63.4769 46.0293 63.7059 45.8766 63.9731 45.8385C64.8129 45.6858 65.5 46.5256 65.9581 47.2509C66.7215 48.4724 67.485 49.6557 68.2485 50.8773C69.3555 52.6714 67.3323 54.2365 65.5764 53.473C64.4312 52.9386 63.1333 50.3429 62.7516 49.1977Z" fill="#BCBCBB"/>
<path d="M66.8799 69.1459C66.8799 69.6422 67.0326 70.2911 67.5288 70.2529C67.7579 70.2529 67.9105 70.062 68.0632 69.9094C69.1321 68.6878 69.6283 67.0846 70.0482 65.4813C70.3918 64.0689 71.4988 61.206 71.1171 59.7936C70.7353 58.4194 68.9412 59.45 68.2541 60.5189C67.6815 61.3587 67.796 62.5039 67.6433 63.4582C67.3761 65.3668 66.9181 67.1991 66.8799 69.1459Z" fill="#BCBCBB"/>
<path d="M42.9034 33.4722C48.1331 34.0447 53.2101 31.678 57.7144 28.9296C59.8139 27.6317 62.1043 25.7994 61.9898 23.3182C61.9898 22.9365 61.8753 22.5166 61.5699 22.2876C61.3408 22.0967 61.0355 22.0585 60.7301 22.0585C57.2564 21.944 54.3552 24.4252 51.3396 26.1048C48.5148 27.6699 45.3465 28.5479 42.14 28.7006C40.4985 28.7769 38.8953 28.7006 37.2539 28.4334C36.2232 28.2425 33.7801 27.0973 32.9785 27.5936C34.8108 30.9528 39.277 33.0523 42.9034 33.4722Z" fill="#BCBCBB"/>
<path d="M17.1797 40.7566C16.7217 41.5201 16.2636 42.2836 15.7673 43.0088C15.4238 43.5051 15.3093 44.0013 15.5383 44.6884C16.2636 43.8486 16.9507 43.047 17.6378 42.2836C17.676 42.3217 17.7142 42.3599 17.7905 42.3981C17.2943 43.0852 16.8362 43.8105 16.2636 44.4212C15.0802 45.7191 15.4238 47.017 16.2254 48.2385C17.2561 49.8036 18.8593 50.6816 20.4626 51.5214C20.8825 51.7504 21.3406 51.9412 21.7605 52.2085C21.9132 52.323 22.0277 52.5138 22.1804 52.7429C21.7605 53.0483 21.4169 53.0101 21.0352 52.8956C18.554 52.1703 16.5308 50.8342 15.1948 48.5821C14.8512 47.9713 14.5458 47.2842 14.4313 46.5971C14.1641 45.2229 14.1259 43.8105 14.3931 42.4362C14.4313 42.2072 14.4313 41.9782 14.4695 41.7491C14.5458 39.8405 14.6222 37.8937 14.6603 35.9851C14.6603 35.2979 14.6222 34.649 14.584 33.9619C14.5458 33.1603 14.5458 32.3968 14.5076 31.5952C14.4695 30.9081 14.5458 30.221 14.0496 29.6484C13.2861 29.6102 12.5608 29.8011 11.8737 30.0683C10.2705 30.7172 8.55271 31.1371 6.87311 31.4425C5.30803 31.7097 3.81929 31.2898 2.36873 30.6027C1.60527 30.2592 1.29989 29.5339 1.03268 28.8468C0.650957 27.9306 0.345577 27.0145 0.11654 26.0602C-0.341532 24.1897 0.574612 22.4338 2.44507 21.8993C3.93381 21.4794 5.3462 20.8305 6.64407 20.0289C7.36935 19.5708 8.05646 19.0364 8.74357 18.502C9.77423 17.7003 10.385 16.6697 10.5759 15.3718C10.6904 14.532 10.8812 13.654 11.1103 12.8142C11.492 11.44 12.2936 10.4093 13.6678 9.83676C14.813 9.37868 15.92 8.72975 17.1034 8.42437C18.2486 8.11898 19.2029 7.50822 20.2336 6.93563C20.5771 6.74477 20.9207 6.43939 21.2642 6.24852C21.8368 5.90497 22.4094 5.56141 23.0202 5.25603C23.2492 5.14151 23.5546 5.17969 23.7836 5.21786C25.3487 5.67593 26.9138 5.98131 28.4025 6.66842C30.5402 7.66091 32.7542 8.30985 35.1591 8.30985C36.2279 8.30985 37.1441 8.76792 37.793 9.60772C38.0984 9.98945 38.3656 10.4093 38.6328 10.7911C39.0909 11.44 39.0909 12.1653 38.671 12.8142C38.1747 13.5777 37.6785 14.3793 37.0295 14.9519C35.8844 16.0207 34.6628 17.0514 33.365 17.9294C31.5708 19.1891 29.5859 19.2654 27.5245 18.6165C27.2573 18.5401 26.9901 18.3874 26.7229 18.1966C25.6541 17.4713 24.6234 16.7078 23.5164 16.0589C21.3787 14.761 20.0045 12.8906 18.9739 10.7147C18.6685 10.0658 18.3249 9.45503 17.9814 8.80609C16.569 9.03513 15.3856 9.72224 14.1641 10.2948C13.3243 10.6766 12.6754 11.211 12.2555 11.9744C11.9882 12.4325 11.7974 12.9287 11.6829 13.425C11.492 14.1884 11.3775 14.9901 11.263 15.7535C11.1103 16.5552 10.8049 17.2423 10.2705 17.8912C10.0796 18.1202 9.92692 18.3493 9.73606 18.6547C10.0033 18.8073 10.2323 18.96 10.4613 19.0746C11.7974 19.8762 12.599 20.945 12.37 22.5864C12.2555 23.3117 12.4081 23.8461 13.0189 24.3806C14.0114 25.1822 14.6603 26.251 14.4695 27.6252C14.4313 27.8543 14.584 28.1215 14.6603 28.3887C15.7292 28.2742 16.6453 27.8543 17.3706 27.2435C18.0959 26.6327 18.5921 25.7548 19.2411 24.9531C19.3938 25.0677 19.5846 25.2204 19.8518 25.4112C20.4626 24.7623 21.1879 24.8005 21.9895 25.0677C22.5239 25.2585 23.0965 25.3349 23.6309 25.4876C24.7379 25.7548 25.7304 25.5257 26.5702 24.7623C27.1046 24.3042 27.6391 23.808 28.2116 23.2736C28.2116 22.1284 28.2116 20.945 28.2116 19.7617C28.6315 19.609 28.7842 19.7617 28.8224 20.067C28.8606 20.6015 28.8224 21.1359 28.8224 21.6703C28.8224 22.4719 29.0896 23.159 29.6622 23.7316C31.38 25.3731 33.2886 26.7854 35.5026 27.7016C37.2967 28.465 39.2054 28.3123 41.0758 28.1597C44.8168 27.8924 48.2905 26.5946 51.7642 25.3349C52.7185 24.9913 53.5965 24.4187 54.5126 23.9988C55.9632 23.2736 57.4901 22.701 58.8643 21.8612C60.2004 21.0214 61.5746 20.6778 63.0633 20.4106C66.7279 19.7235 70.3925 19.5326 74.0571 20.2579C75.3168 20.5251 76.5765 20.7923 77.7598 21.2504C79.0577 21.7085 80.2792 22.3956 81.2717 23.7316C79.9738 23.4262 79.134 22.5864 78.1415 22.2811C76.5383 23.5789 75.0496 24.915 73.4081 26.022C71.6904 27.2053 69.7817 28.0833 67.6822 28.2742C63.5596 28.6941 61.1547 31.2135 59.5896 34.7635C59.4369 35.0689 59.3224 35.3743 59.2079 35.7178C58.3681 37.741 58.0245 39.8405 58.2154 42.0163C58.3299 43.3524 58.3681 44.7266 58.4826 46.0627C58.5208 46.368 58.6353 46.6352 58.788 47.017C59.2079 46.8261 59.5133 46.7116 59.8568 46.5589C60.8493 46.1008 61.8036 45.6046 62.8343 45.1465C63.4451 44.8793 63.4451 44.8793 64.1703 45.1847C63.5977 45.6046 63.1778 46.1008 62.4526 46.3299C61.4601 46.6352 60.5058 47.1315 59.5896 47.6277C56.803 49.1928 54.0164 50.8342 51.2298 52.3993C50.1228 53.0101 48.9776 53.6209 47.8324 54.1553C47.1835 54.4607 46.8399 54.8424 46.8399 55.6058C46.8018 56.6747 46.4964 57.7053 45.6184 58.3924C45.2367 58.6978 44.7786 58.8505 44.3205 59.1177C44.4732 59.3849 44.6641 59.614 44.8549 59.9194C43.8625 60.7592 42.9081 61.599 41.9156 62.4006C41.3049 62.8968 40.6941 63.3931 40.007 63.813C37.564 65.3399 34.93 65.8743 32.1053 65.1872C31.4182 65.0345 30.731 64.8436 29.9294 64.6528C29.5859 65.9506 29.2805 67.1722 29.0133 68.3555C28.5552 70.3023 28.1735 72.2491 27.7154 74.1959C27.2573 76.1428 26.7611 78.0514 26.2648 79.9982C26.1503 80.4563 25.8831 80.838 25.425 80.9525C24.8143 81.1052 24.2035 81.2579 23.5546 81.3342C22.5621 81.4488 21.5314 81.4869 20.5389 81.5633C20.3099 81.5633 20.0809 81.6396 19.8518 81.6396C18.8975 81.6014 18.3249 80.8762 18.554 79.96C18.7448 79.1966 19.1647 78.5476 19.8518 78.2041C20.8061 77.7078 21.226 76.868 21.5696 75.9137C22.5239 73.2416 22.9056 70.4932 23.2492 67.7448C23.4401 66.3324 23.6691 64.92 23.7073 63.5076C23.7454 62.5914 23.5546 61.6371 23.4019 60.721C23.3637 60.5301 23.0965 60.3011 22.8675 60.1866C22.4094 59.843 21.9132 59.5758 21.4551 59.2704C19.9663 58.2779 19.0884 56.8655 18.4776 55.2241C18.2104 54.537 18.2104 53.7354 18.1722 53.0101C18.1722 52.8574 18.3249 52.7047 18.4394 52.4757C18.8975 52.7811 18.8593 53.2391 18.8975 53.6209C19.012 55.2241 19.89 56.4456 20.8061 57.629C21.4169 58.4306 22.1804 59.1177 23.211 59.5758C23.1728 59.2704 23.1729 59.0414 23.1347 58.8123C22.7148 55.7967 22.4857 52.7429 22.6003 49.6891C22.6003 49.5364 22.5621 49.3837 22.6003 49.231C22.6766 49.0401 22.7911 48.8493 22.8675 48.6966C23.0583 48.8493 23.211 48.9638 23.4401 49.1546C23.5546 49.0783 23.7454 48.9256 23.8981 48.8111C24.0127 48.8874 24.089 48.9638 24.089 49.002C24.0508 49.46 23.9745 49.8799 23.8981 50.338C23.4782 52.5902 23.6691 54.8424 23.9363 57.0946C24.2035 59.4995 24.5852 61.8662 24.8906 64.271C24.967 64.7673 25.1197 65.3781 24.2799 65.6453C24.089 65.6834 23.9745 66.2178 23.9363 66.5232C23.7454 67.7448 23.5928 68.9663 23.4401 70.226C23.3637 70.7222 23.3255 71.1803 23.2492 71.7529C23.9363 71.7529 24.1272 71.0276 24.7761 70.7604C24.4326 71.3712 24.0508 71.7529 23.6309 72.0583C23.2492 72.3255 23.0965 72.6309 22.982 73.0889C22.6766 74.3105 22.2949 75.5702 21.9513 76.7917C21.7223 77.5551 21.1497 78.0132 20.5389 78.5095C20.1954 78.7767 19.8518 79.0821 19.5464 79.4256C19.2411 79.7692 19.012 80.1891 19.2792 80.6471C19.4701 80.9907 19.6228 81.0289 20.5389 80.9525C20.997 80.3418 20.9588 79.3874 21.875 78.7767C21.5314 79.5019 20.9588 79.9982 21.2642 80.7235C21.7223 80.7998 21.7605 80.4181 21.875 80.1891C21.9895 79.9219 22.1422 79.6928 22.4094 79.4638C22.3712 79.8073 22.3331 80.1127 22.2949 80.4944C23.2874 80.6853 24.1272 80.3036 24.9288 79.9219C25.196 79.8073 25.3869 79.4256 25.4632 79.1202C26.1121 76.8299 26.6466 74.5395 26.9901 72.1728C27.181 70.9894 27.6009 69.8443 27.8681 68.6991C28.3643 66.6377 28.8988 64.6146 29.3568 62.5533C29.4332 62.1334 29.4332 61.6753 29.395 61.2172C29.2805 60.1866 29.0514 59.1177 28.9369 58.0871C28.8606 57.4763 28.9751 56.9037 29.0514 56.2929C29.3187 54.537 29.4713 52.7811 29.2041 50.9869C28.9751 49.46 28.4025 48.0858 27.5627 46.8261C26.8756 45.7191 26.074 44.6503 25.425 43.5051C24.5852 42.0927 24.0508 40.604 23.8218 38.9625C23.3637 35.7178 23.7454 32.664 25.5014 29.8011C26.6466 27.9688 27.7536 26.0983 28.9369 24.1515C28.7461 24.1897 28.5552 24.1134 28.4407 24.2279C27.7917 24.7241 27.1428 25.2585 26.4939 25.7929C26.074 26.1365 25.6159 26.3655 25.0433 26.2892C24.089 26.1365 23.0583 26.1365 22.1422 25.8693C20.9588 25.5257 19.89 25.8693 19.2792 26.6327C18.1341 27.9688 16.6071 28.5414 15.0802 29.1521L15.0039 29.2285C15.0039 29.3048 14.9275 29.3812 14.9657 29.4194C15.8437 31.328 15.6528 33.3893 15.7673 35.3743C15.8819 37.3975 15.7673 39.4588 15.7292 41.4819C15.7292 41.711 15.7673 41.9018 15.8055 42.3217C16.4163 41.711 16.8744 41.2147 17.3706 40.7566H17.1797ZM26.9138 13.1578C26.6847 13.5395 26.4175 13.9212 26.1885 14.2648C25.8068 14.8374 25.3487 15.2955 25.2342 16.0971C25.5396 16.2879 25.8068 16.4406 26.1121 16.6315C26.6847 15.2955 27.181 13.9976 28.3643 13.1578C27.6391 14.303 26.7993 15.41 26.4557 16.8605C27.3718 17.2041 28.2116 17.5858 29.0514 17.853C30.1966 18.1966 31.2655 18.0821 32.2961 17.4713C33.7849 16.5552 35.1591 15.5245 36.457 14.3793C37.1441 13.8067 37.564 13.0433 37.7548 12.1653C37.9457 11.2491 37.5258 9.98945 36.7623 9.60772C36.1897 9.30234 35.5026 9.0733 34.8537 8.99696C32.9451 8.88244 31.1128 8.50071 29.395 7.73726C27.7154 7.01198 25.9595 6.40121 24.1272 6.01949C23.1729 5.82862 22.4476 6.09583 21.7223 6.66842C21.226 7.01198 20.7298 7.35553 20.2717 7.69909C19.9663 7.92812 19.661 8.15716 19.3556 8.34802C19.012 8.61523 18.9357 8.92061 19.2029 9.30234C19.4319 9.68407 19.6228 10.104 19.8137 10.5239C20.8825 12.7761 22.4476 14.532 24.7761 15.7154C25.0433 15.3718 25.2724 15.0282 25.5396 14.7229C25.9595 14.1884 26.4557 13.6922 26.9138 13.1578ZM60.8493 21.9375C60.4676 21.594 60.124 21.8612 59.8568 22.052C58.9788 22.6246 58.1009 23.1972 57.0702 23.5408C55.8105 23.9988 54.6653 24.7623 53.4438 25.3731C52.4513 25.8311 51.4588 26.251 50.4282 26.6709C49.8937 26.8618 49.3593 27.0145 48.8249 27.1672C46.7636 27.8543 44.7023 28.6559 42.4882 28.8468C41.8011 28.8849 41.1522 28.9995 40.4651 29.114C38.1747 29.4575 36.0371 29.0376 34.0139 28.007C33.594 27.7779 33.1741 27.5107 32.6397 27.2435C32.3725 27.4725 31.9907 27.6634 31.8381 27.9688C30.6929 30.2592 30.6165 32.5877 31.7235 34.9544C31.8381 35.2216 32.0671 35.4888 32.2961 35.6415C33.5177 36.4813 34.7774 37.2066 36.2661 37.4738C37.6403 37.6647 38.5564 38.5045 39.4344 39.4588C40.4269 40.5658 40.8086 41.94 41.3431 43.276C41.763 44.2685 42.3737 45.1083 43.2517 45.7191C45.1603 47.0551 47.069 48.4294 48.9394 49.7654C49.0921 49.8799 49.2066 50.0326 49.4357 50.2617C48.5959 50.4143 48.0615 50.0708 47.5652 49.6509C46.8781 49.1165 46.191 48.6202 45.4657 48.124C44.5496 47.5132 43.6334 46.9406 42.7554 46.3299C41.9156 45.7191 41.2667 44.9556 40.8468 44.0013C40.6178 43.4669 40.4269 42.8561 40.1979 42.3217C39.2817 40.0695 37.8693 38.3899 35.3499 37.8937C33.8994 37.6265 32.716 36.7867 31.5327 35.9851C31.3036 35.8324 31.1128 35.6415 31.0364 35.3743C30.5402 33.9619 29.9676 32.5495 30.1966 30.9844C30.4257 29.4575 30.9219 28.007 31.5708 26.6327C30.7692 26.022 30.0058 25.4112 29.2423 24.7623C29.0896 24.915 28.9751 25.0295 28.8988 25.144C27.6772 27.2435 26.2267 29.1521 25.2342 31.3662C23.86 34.5345 23.7073 37.7028 24.7379 40.9475C25.3487 42.8561 26.5702 44.3831 27.6391 46.0245C28.5552 47.4369 29.3187 48.8493 29.624 50.5289C30.0058 52.4757 29.9676 54.4225 29.624 56.3693C29.395 57.5145 29.4332 58.6597 29.6622 59.8812C29.8149 59.6903 29.9294 59.614 29.9676 59.5376C30.5784 57.4763 31.2273 55.415 31.8381 53.3918C32.2198 52.0939 32.5252 50.7579 32.9451 49.4982C33.1359 48.8874 33.4795 48.3148 33.7849 47.7804C33.8612 47.6277 34.0902 47.6277 34.472 47.4369C34.2048 48.0858 34.0139 48.4675 33.8612 48.8874C33.7849 49.1165 33.7467 49.3837 33.7467 49.6509C33.7085 50.0708 33.7467 50.5289 33.6703 50.9488C33.5177 51.5595 33.2504 52.1703 33.0596 52.781C32.7924 53.6972 32.6015 54.5752 32.5252 55.5677C34.0902 56.1403 35.6172 56.2166 37.1822 56.0257C39.7398 55.7204 42.1829 55.0332 44.5877 54.1171C44.8931 54.0026 45.1985 53.8499 45.5039 53.6972C47.0308 52.8956 48.5577 52.0558 50.0846 51.2923C52.6804 49.9944 55.5051 49.1165 57.91 47.3224C57.7955 46.8643 57.6428 46.4444 57.5665 46.0245C57.4901 45.6809 57.4138 45.3755 57.4138 45.032C57.3756 44.1158 57.3756 43.2379 57.3756 42.3217C57.4138 41.1384 57.2611 39.8787 57.5283 38.7335C58.2154 36.0614 59.1315 33.5038 60.8875 31.2898C62.4526 29.3048 64.4757 28.3887 66.8424 28.0451C68.2548 27.8543 69.5909 27.5489 70.8506 26.9381C73.2173 25.7929 75.0877 23.9225 77.1872 22.4337C77.2254 22.3956 77.2636 22.3192 77.2636 22.2429C77.2254 22.2047 77.1872 22.0902 77.1491 22.0902C75.2404 21.4794 73.3318 20.9832 71.3086 20.7923C68.8274 20.5633 66.3462 20.7923 63.865 21.0977C62.9488 21.0595 61.8036 21.1741 60.8493 21.9375ZM9.01078 19.2654C8.17098 19.7998 7.40753 20.3343 6.64407 20.7923C6.14783 21.0977 5.57524 21.3267 5.04082 21.6321C4.27736 22.0139 4.23919 22.1284 4.35371 22.9682C4.5064 23.9988 4.12467 24.8768 3.6666 25.7548C3.20853 26.5564 2.78863 27.358 1.75797 27.5489C1.68162 27.5489 1.60528 27.7016 1.5671 27.8161C1.79614 29.1521 2.52142 30.0683 3.85746 30.45C5.23168 30.8317 6.6059 30.9463 7.98012 30.5264C9.81241 29.9538 11.6447 29.3812 13.477 28.8086C13.5533 28.7704 13.5915 28.7322 13.6297 28.6559C13.8587 27.0526 13.477 25.6784 12.1409 24.6859C12.0646 24.6096 11.9882 24.5332 11.8737 24.4569C11.5302 24.1515 11.4157 23.808 11.492 23.3499C11.5684 22.8155 11.6065 22.2811 11.5684 21.7848C11.5302 20.8687 11.0721 20.2197 10.3087 19.7617C9.92692 19.4945 9.46885 19.4181 9.01078 19.2654ZM32.9451 57.8199C33.0214 57.7435 33.0978 57.6672 33.1741 57.5908C33.4031 57.7053 33.6322 57.7817 33.8612 57.8962C35.0064 58.5833 36.2661 58.6978 37.564 58.507C38.7473 58.3543 39.4344 57.629 40.236 56.5602C39.3962 56.5983 38.7473 56.6365 38.1366 56.6747C37.0677 56.7128 36.037 56.8274 35.0064 56.7892C34.0521 56.7892 33.0596 56.6747 32.1434 56.6365C31.5327 57.5908 30.5784 60.6446 29.9676 63.5458C29.9294 63.7366 29.9676 63.9657 29.9676 64.3856C30.3111 63.9275 30.502 63.6603 30.731 63.3549C31.4182 63.7748 32.0671 64.1183 32.6779 64.4619C33.4031 63.3549 33.7467 62.1334 34.7392 61.3699C34.1666 62.3624 33.6322 63.3931 33.0596 64.3856C33.5177 64.7291 33.7849 64.5764 33.9376 64.2329C34.1666 63.813 34.3575 63.3549 34.5865 62.935C34.8537 62.4387 34.8919 62.4388 35.3881 62.0952C35.0446 62.935 34.3193 63.6221 34.2811 64.6146C36.8005 64.6909 39.8543 63.2404 40.3124 61.828C41.2285 61.828 41.2667 61.7898 41.8393 60.7592C41.4576 60.1866 40.5033 59.9957 40.5033 59.1941C41.3812 57.8199 42.3355 58.6215 43.1372 59.0032C43.5571 58.6596 43.8625 58.3543 44.2442 58.1634C45.5421 57.5145 45.9238 56.7892 45.7711 55.0714C45.2367 55.1859 44.7023 55.3386 44.1297 55.4531C44.2824 55.7967 44.3969 56.0257 44.4732 56.2548C44.6259 56.7892 44.3205 57.5145 43.8243 57.8199C43.2899 58.1634 42.9081 58.0871 42.3355 57.5908C41.763 57.0946 40.9613 57.1327 40.4269 57.7053C39.9688 58.2016 39.6253 58.736 39.2817 59.1559C38.7091 59.1559 38.2129 59.0796 37.7166 59.1559C36.1516 59.3849 34.7392 59.0795 33.365 58.3161C33.1741 58.2779 33.0596 58.0107 32.9451 57.8199ZM42.1829 56.1784C41.5721 56.2548 41.5721 56.2548 41.3431 56.8274C41.9538 56.751 41.9538 56.751 42.1829 56.1784Z" fill="black"/>
<path d="M61.1174 66.3681C62.1481 66.4827 63.1406 65.681 63.1788 64.6885C63.1788 64.1923 63.1024 63.7342 63.1024 63.238C66.0799 60.7567 69.5154 59.0771 73.0273 57.5502C75.5467 56.4432 78.0279 55.298 80.5092 54.1529C81.0818 53.8857 81.578 53.4658 82.1124 53.1222C82.4941 52.855 82.5705 52.4733 82.3415 52.0152C81.2345 49.8394 81.7307 47.8162 82.7995 45.793C83.0667 45.2968 83.6393 44.8387 83.1049 44.1898L83.1431 44.228C83.2958 43.9989 83.4485 43.7699 83.6393 43.4263C83.3339 43.3882 83.1049 43.35 82.8759 43.3118L82.9141 43.35C83.0286 43.2355 83.1431 43.0064 83.2958 42.9683C84.0211 42.8537 84.2883 42.2812 84.4028 41.7086C84.7845 40.1817 84.9754 38.6166 84.9372 37.0133C84.9372 36.4407 84.899 35.9063 84.9372 35.3337C84.9754 33.5778 84.899 31.8218 84.2883 30.1041C84.2501 29.9514 84.2119 29.7987 84.1356 29.6842C83.6393 29.1116 83.7157 28.4626 83.8302 27.7374C84.5173 27.8519 84.899 27.3938 85.2044 26.8594C85.5861 26.2868 85.9679 25.7524 86.3114 25.1798V25.218C86.7695 24.4545 87.2657 23.6911 87.6856 22.8894C88.7545 20.8663 90.0523 18.9576 90.854 16.7818C91.1212 16.0565 91.5411 15.3694 91.9228 14.6441C92.2664 14.0334 92.3045 13.4608 91.9228 12.85C91.5793 12.3538 91.4266 11.743 91.1212 11.2467C90.8158 10.7123 90.3577 10.7505 90.1287 11.2849C89.2889 13.3462 87.762 14.9495 86.655 16.82C86.0824 17.7743 85.548 18.8049 84.7845 19.6066C83.6775 20.7518 82.3796 21.7442 81.1199 22.8131C81.0818 22.8512 80.9672 22.8131 80.7764 22.8131C80.8909 22.584 80.9291 22.3932 81.0436 22.2787C81.6925 21.7061 82.3796 21.1717 83.0286 20.6372C84.0211 19.8356 84.8227 18.8813 85.4716 17.8125C86.0442 16.8581 86.6168 15.8656 87.1894 14.9113C87.5329 14.3769 87.9529 13.8807 88.2964 13.3462C88.6781 12.6973 89.098 12.0865 89.4416 11.3994C90.6631 8.80369 90.9303 5.97892 91.0067 3.15413C91.0067 2.5052 91.083 1.89444 91.1594 1.2455C91.1975 0.97829 91.3502 0.672909 91.5411 0.443873C91.9992 -0.16689 92.3809 -0.128718 92.9153 0.443873C93.9841 1.6654 94.6331 3.07779 94.5186 4.75739C94.3659 7.12409 94.3659 9.52897 93.9841 11.8575C93.7551 13.4226 93.068 14.9495 92.4191 16.4382C91.2739 19.0722 89.7088 21.477 88.1437 23.8819C87.113 25.447 86.1587 27.0502 85.0135 28.5772C84.7463 28.9207 84.7463 29.2643 84.899 29.646C85.8152 31.7073 85.7388 33.9213 85.6243 36.0972C85.5861 36.4789 85.6243 36.8606 85.6625 37.2424C85.8152 38.8456 85.6243 40.3725 85.2808 41.9376C84.8609 44.1516 84.1737 46.2129 83.1813 48.2361C82.6468 49.3049 82.5323 50.3738 83.3339 51.3281C84.3264 52.5114 83.792 53.6184 82.5705 54.3056C80.0893 55.6798 77.7226 57.3594 75.0505 58.39C75.0123 58.39 75.0123 58.4282 74.936 58.4664C74.7069 59.1535 74.8596 59.7643 75.2795 60.3368C75.4704 60.5659 75.6231 60.8331 75.8139 61.0621C76.1575 61.482 76.1193 61.8638 75.8903 62.3218C75.1268 63.8869 74.3634 65.4138 73.6763 67.0171C73.1037 68.3531 72.6838 69.7655 72.1875 71.1397C71.9967 71.6741 71.8058 72.2086 71.6531 72.743C71.3477 73.9645 70.5461 74.728 69.3627 74.9952C68.0649 75.3006 66.7288 75.5678 65.3546 75.7205C64.5148 75.7968 63.8659 75.1479 63.446 74.4989C63.0642 73.9263 63.1406 73.2774 63.5605 72.6666C64.1712 71.7887 64.782 70.9107 65.8127 70.3763C66.6143 69.9564 66.8052 68.9257 66.9197 68.0096C67.0724 66.6353 67.1869 65.223 67.3396 63.8487C67.4159 63.3143 67.645 62.7417 67.8358 62.2455C67.9122 62.0546 68.103 61.9401 68.4084 61.6729C68.2176 62.8944 68.0267 63.9251 67.874 64.9557C67.8358 65.2993 67.6831 65.7574 68.2557 65.7955L68.2176 65.7574C68.0649 66.0628 67.9122 66.4063 67.7977 66.7117C68.6756 66.1773 69.3246 65.4138 70.2789 65.1084C69.3627 65.9482 68.4848 66.788 67.5686 67.6278C67.5686 67.9714 67.5304 68.3149 67.5686 68.6203C67.6068 68.8112 67.7213 69.0021 67.874 69.1166C68.3321 69.5365 68.3321 69.6892 67.7977 69.9945C67.1869 70.3381 66.538 70.6816 65.9272 71.0634C65.1637 71.5978 64.5148 72.2467 64.1712 73.2774C64.6675 72.972 65.0492 72.743 65.5073 72.4758C65.8508 73.4301 64.4766 73.6973 64.9729 74.6516C65.4691 73.9263 65.889 73.1629 66.8433 72.8575C66.8815 73.6591 66.0417 74.0027 66.0417 74.8425C66.6143 74.8043 67.1105 74.8425 67.6068 74.728C68.752 74.4989 69.7063 73.85 70.5461 73.1247C70.9278 72.8193 71.1187 72.2467 71.3095 71.7887C71.9203 70.1472 72.4547 68.4295 73.1037 66.788C73.6381 65.4138 74.287 64.0778 74.936 62.7799C75.2413 62.1691 75.3177 61.7111 74.936 61.1003C74.5161 60.4132 74.2107 59.6497 73.7908 58.7718C73.0655 59.0008 72.1112 59.1535 71.2714 59.5352C69.7445 60.2223 68.2939 60.9858 66.8433 61.7492C66.4616 61.9401 66.0799 62.2455 65.7363 62.5509C65.2019 62.9708 64.8584 63.467 64.7438 64.2305C64.6293 64.9939 64.2094 65.7192 63.7895 66.3681C62.797 67.895 60.5448 68.0096 59.4378 66.6353C58.9798 66.0628 58.6362 65.3756 58.3308 64.6885C57.9109 63.7724 58.0254 62.8562 58.5217 61.9783C59.2851 60.5277 60.2776 59.268 61.461 58.1228C61.9191 57.7029 62.3008 57.1685 62.797 56.7486C63.2551 56.3669 63.7895 56.0615 64.2476 55.718C65.5073 54.84 65.5455 54.84 65.0492 53.3512C64.7057 52.3587 64.1712 51.4808 63.2169 50.87C62.3771 50.3356 61.7282 49.534 61.2701 48.427C61.6137 48.4651 61.8427 48.4651 61.9572 48.5415C62.339 48.9232 62.6443 49.3431 63.0261 49.7248C63.7513 50.4119 64.5148 51.0991 65.3164 51.7862C65.6218 51.5953 65.9272 51.3663 66.4616 50.9845C65.5073 52.2442 65.5073 52.2442 66.0035 52.9313C66.4998 52.4733 67.0342 51.977 67.5304 51.519C67.5686 51.5571 67.6068 51.5953 67.645 51.6335C67.1105 52.3206 66.6143 53.0077 65.9654 53.8093C66.996 54.0002 67.3778 53.2367 68.0267 53.0459C68.7138 52.855 69.3246 52.4733 69.9735 52.1679C68.9047 50.9082 67.874 49.8012 66.8815 48.5797C66.0035 47.5108 65.1637 46.3656 64.6293 45.1059C63.675 42.8919 63.1788 40.6016 63.4078 38.1967C63.446 37.8913 63.4841 37.5859 63.5605 37.3187C63.5987 37.2424 63.675 37.1278 63.8659 36.8988C63.9422 37.2805 64.0567 37.5096 64.0186 37.7004C63.5987 40.5634 64.3621 43.1591 65.6982 45.6404C65.8127 45.8694 65.9654 46.0984 66.1181 46.2893C66.1944 46.4038 66.3471 46.4802 66.4616 46.6329C67.5686 45.9076 68.7901 45.8312 70.0498 45.9076C71.9203 46.0221 72.6838 46.5565 73.0273 48.427C73.2182 49.534 73.7526 50.2593 74.5924 50.9082C75.4704 51.5571 75.5849 52.4351 75.1268 53.4276C74.3634 55.0308 72.9891 55.7943 71.3477 56.1378C70.3552 56.3287 69.3627 56.5196 68.3321 56.6723C66.538 56.9013 64.8202 57.4357 63.1406 58.161C62.797 58.3137 62.4916 58.5427 62.2244 58.8099C61.3083 59.6497 60.5067 60.6041 59.9341 61.7111C59.3997 62.7417 59.4378 63.8106 59.705 65.0703C60.1631 64.7267 59.6669 63.8106 60.583 64.0778C60.6212 64.6122 60.6594 65.1848 60.7357 65.7192C60.5448 65.8719 60.6212 66.2918 61.1174 66.3681ZM64.8584 56.3669C66.5761 56.0615 68.103 55.7943 69.6681 55.5271C70.6988 55.3362 71.7294 55.1835 72.7219 54.7255C73.6381 54.2674 74.2107 53.5421 74.4779 52.626C74.6687 51.8243 73.9435 51.3663 73.4472 50.87L73.3709 50.7937C72.8365 50.3356 72.5311 49.8012 72.4166 49.0759C72.2639 48.3888 71.9585 47.7399 71.6149 47.1291C71.4622 46.8619 71.1569 46.5947 70.8515 46.5183C69.7063 46.2893 68.5229 46.2511 67.4159 46.671C67.1869 46.7474 66.996 46.9764 66.767 47.1291C67.9885 49.0377 69.6299 50.4883 71.0805 52.2442C70.3934 52.6641 69.6681 53.0459 68.981 53.4276C68.2557 53.8475 67.4159 54.1529 66.9197 54.7636C66.3089 55.3744 65.4309 55.5271 64.8584 56.3669ZM91.9991 0.978289C91.6174 1.51271 91.6556 2.19982 91.6174 2.81058C91.4647 5.17729 91.3502 7.54399 90.5486 9.9107C91.6174 10.1397 91.8083 11.1704 92.3045 12.0102C92.4191 11.8575 92.4954 11.743 92.5336 11.6666C93.1443 9.87253 93.297 7.96389 93.4115 6.09343C93.4879 5.21546 93.297 4.29931 93.1443 3.42134C93.0298 2.84875 92.8008 2.27616 92.6099 1.70357C92.5336 1.39819 92.4572 1.05463 91.9991 0.978289Z" fill="black"/>
<path d="M15.0411 16.7457C14.4685 16.7457 14.2013 16.5166 14.1631 15.9822C14.0867 15.2188 14.6593 14.379 15.3846 14.1881C15.8427 14.0736 16.2244 14.1881 16.4916 14.4935C16.797 14.7989 16.7207 15.1806 16.568 15.5241C16.1481 16.4403 15.7663 16.7838 15.0411 16.7457Z" fill="black"/>
<path d="M41.2666 17.3438C42.4118 17.611 44.9694 19.3287 46.878 21.1228C46 21.0465 45.4656 20.5503 44.893 20.1304C44.2822 19.7105 43.5951 19.3287 43.0225 18.8707C42.4118 18.4126 41.6102 18.2599 41.2666 17.3438Z" fill="black"/>
<path d="M43.1377 13.9972C44.0538 13.4628 44.4737 13.4628 47.9093 14.0736C48.7873 14.2263 49.6271 14.4935 50.3142 15.2951C49.0545 14.9897 47.9475 14.6462 46.8023 14.4553C45.6189 14.2263 44.4737 14.1499 43.1377 13.9972Z" fill="black"/>
<path d="M46.7983 7.35938C45.1187 9.03897 43.5536 10.6422 41.874 12.3982C41.9504 12.0928 41.9504 11.8638 42.0649 11.7874C43.4773 10.375 44.8897 8.96263 46.3021 7.58841C46.3784 7.47389 46.5311 7.47389 46.7983 7.35938Z" fill="black"/>
<path d="M61.1519 66.3949C60.8465 65.6315 60.6174 64.868 61.3045 64.0664C61.6863 64.9826 61.6099 65.746 61.1519 66.3949Z" fill="black"/>
<path d="M86.2349 24.2161C86.2349 24.5215 86.2349 24.8269 86.2349 25.1323V25.0941C86.1204 25.0559 85.9677 25.0559 85.9296 24.9796C85.6623 24.0635 85.3951 23.1091 85.1279 22.1548C85.2043 22.0785 85.3188 22.0021 85.3951 21.9258C85.5097 22.1548 85.6242 22.3457 85.7769 22.5747L85.7387 22.5365C85.9296 23.1473 86.0822 23.7199 86.2349 24.2161Z" fill="black"/>
<path d="M18.0149 13.6022C17.4041 13.335 16.8316 13.1442 16.1826 12.8388C16.7552 12.228 17.1751 12.5716 17.595 12.7624C17.9767 12.9151 17.9767 12.9533 18.0149 13.6022Z" fill="black"/>
<path d="M23.25 74.1993C23.4027 73.0159 24.0516 72.4815 24.8151 72.0234C24.357 72.6724 23.8608 73.3213 23.25 74.1993Z" fill="black"/>
<path d="M85.8125 22.6661C85.8125 22.3608 85.8125 22.0936 85.8125 21.75C86.4614 22.3989 86.6141 23.2387 86.2324 24.2312H86.2706C86.0797 23.735 85.927 23.1624 85.8125 22.6661Z" fill="black"/>
<path d="M82.1482 44.8359C81.6138 45.3704 81.0793 45.9429 80.5449 46.4774C80.8503 45.6376 81.3847 45.1413 82.1482 44.8359Z" fill="black"/>
<path d="M81.2396 44.3789C80.9342 44.7606 80.667 45.1042 80.2471 45.6386C80.4379 44.7988 80.4379 44.7988 81.2396 44.3789Z" fill="black"/>
<path d="M17.1768 40.789C17.3676 40.5218 17.5585 40.2546 17.7493 39.9492C17.8257 40.0256 17.8639 40.0637 17.9402 40.1401C17.673 40.3309 17.444 40.56 17.1768 40.789Z" fill="black"/>
<path d="M26.9111 13.1576C27.0259 12.9663 27.1408 12.7366 27.2938 12.4688C27.4852 13.0045 27.1408 13.0428 26.9111 13.1576Z" fill="black"/>
<path d="M7.18217 23.6791C6.99131 24.0227 6.80044 24.2899 6.41872 24.0609C6.34237 24.0227 6.34237 23.7555 6.38054 23.6791C6.64775 23.4119 6.91496 23.3356 7.18217 23.6791Z" fill="black"/>
<path d="M8.78359 22.9669C8.63051 23.12 8.5157 23.3114 8.47743 23.3114C8.32435 23.2731 8.20954 23.12 8.09473 23.0435C8.20954 22.9669 8.28608 22.7756 8.40089 22.7756C8.47743 22.7373 8.59224 22.8904 8.78359 22.9669Z" fill="black"/>
<path d="M7.40763 25.2539C7.52244 25.407 7.67552 25.5601 7.67552 25.6366C7.67552 25.7514 7.48417 25.9045 7.40763 25.9045C7.29282 25.9045 7.13974 25.7514 7.13974 25.6366C7.10147 25.5218 7.25455 25.407 7.40763 25.2539Z" fill="black"/>
<path d="M15.4252 15.1569C15.4252 15.3483 15.2721 15.5014 15.0808 15.5014C14.8894 15.5014 14.7363 15.3483 14.7363 15.1569C14.7363 14.9656 14.8894 14.8125 15.0808 14.8125C15.2721 14.8125 15.4252 14.9656 15.4252 15.1569Z" fill="white"/>
<path d="M0.88368 25.028C0.88368 24.9899 0.88368 24.9517 0.88368 24.9135C0.88368 24.6845 0.960025 24.4173 1.11272 24.2264C1.26541 23.9592 1.53262 23.7683 1.76165 23.5393C1.838 23.463 1.838 23.3484 1.76165 23.2721C1.68531 23.1958 1.57079 23.1958 1.49444 23.2721C1.26541 23.5011 0.998198 23.7302 0.807335 24.0356C0.616471 24.3028 0.501953 24.6081 0.501953 24.9517C0.501953 24.9899 0.501953 25.0662 0.501953 25.1426C0.501953 25.2571 0.616471 25.2953 0.692817 25.2953C0.845508 25.2189 0.921853 25.1044 0.88368 25.028Z" fill="white"/>
</svg>
