<svg width="87" height="54" viewBox="0 0 87 54" fill="none" xmlns="http://www.w3.org/2000/svg">
<path d="M9.23713 36.2538L7.22266 43.2191V46.2579L9.23713 51.1746L10.1249 53.2232L14.3245 48.7845L22.2117 46.7017L34.1619 46.8042L44.3026 46.0872L55.5358 44.7214L64.2424 41.9899L70.7297 28.1276L30.4403 21.4014L9.23713 36.2538Z" fill="#F15748"/>
<path d="M1.89749 34.4099C3.50224 36.8682 5.34599 39.1558 7.39461 41.2727C7.77018 41.6483 8.17991 42.058 8.65792 42.2288C9.2725 42.4678 9.95537 42.3312 10.6382 42.2288C12.6527 41.8532 14.9062 41.341 15.9646 39.5997C16.5109 38.712 16.7499 37.9608 17.6718 37.4487C18.1157 37.2097 18.6278 37.1755 19.14 37.1072C21.5642 36.8682 23.6811 37.1414 25.8321 36.0146C27.0954 35.3659 28.5978 33.9319 29.9294 33.4197C33.9924 31.815 38.4994 32.1905 42.7332 33.4197C44.8842 34.0343 47.0011 34.6489 49.1522 35.2635C49.8009 35.4342 50.5179 35.7415 50.7228 36.3561C50.9277 37.1414 50.2106 37.8242 49.7668 38.473C48.9815 39.668 49.3229 41.6825 50.7228 42.0239C51.9178 42.3312 53.0104 41.3069 53.9323 40.4874C55.5029 39.0875 57.3808 38.0632 59.3953 37.4487C60.3513 37.1414 60.5561 36.3561 60.8634 37.3121C61.1707 38.1657 60.0781 39.2924 59.4294 39.907C57.7564 41.58 58.1319 44.3115 57.8588 46.6674C59.7025 46.5991 61.239 45.3017 62.673 44.1067C67.6239 39.8729 72.8478 35.9805 78.2766 32.4296C81.3837 30.4151 84.8322 28.1957 85.8907 24.6107C87.1198 20.4793 84.4908 15.9382 80.8374 13.6164C77.1841 11.2947 72.7454 10.646 68.4774 9.99723C62.7755 9.17778 57.0735 8.29005 51.3032 8.3242C45.533 8.35834 39.6944 9.38265 34.6412 12.1141C33.2754 12.8653 31.978 13.7189 30.4757 14.1969C27.9149 15.0505 25.1151 14.6749 22.4178 14.5042C19.7204 14.3335 16.8182 14.5042 14.6672 16.1431C11.9016 18.2941 11.3894 22.1865 9.8188 25.3277C9.37493 26.1813 8.82864 27.0349 7.97505 27.4446C7.36046 27.7519 6.64345 27.8202 5.96058 27.8885C4.45826 28.025 1.93164 27.7519 0.975615 29.1859C-0.116979 30.8931 1.18048 32.9758 1.89749 34.4099Z" fill="white"/>
<path d="M16.7137 32.0561C16.9869 32.5341 17.3966 33.0121 17.3283 33.5584C17.26 33.9681 16.9527 34.3096 16.6454 34.6169C15.9626 35.2656 15.2797 35.9143 14.4603 36.324C13.6408 36.7338 12.6165 36.9045 11.7629 36.5289C11.2849 36.324 10.9093 35.9485 10.4313 35.7436C10.0899 35.607 9.71431 35.5387 9.40701 35.3339C8.65586 34.8559 8.51928 33.7974 8.86072 32.978C9.20215 32.1585 9.88502 31.5781 10.5338 30.9976C11.6605 30.0416 14.6651 26.32 16.3723 27.1394C17.738 27.7881 15.8943 30.5538 16.7137 32.0561Z" fill="#BCBCBB"/>
<path d="M29.178 26.5926C28.939 24.8854 29.1098 23.1441 29.6219 21.5394C29.7243 21.2662 29.9292 20.9248 30.2023 21.0614C30.3389 21.1297 30.4072 21.2662 30.4414 21.4028C30.6804 22.2222 30.6804 23.11 31.1584 23.7929C31.2949 23.9977 31.4998 24.1684 31.5681 24.4074C31.7047 24.8513 31.3632 25.261 31.0559 25.6366C30.7828 25.9439 30.4755 26.2853 30.2023 26.6268C30.0316 26.7975 29.8609 27.0023 29.6219 27.0706C29.0756 27.2072 28.7 26.5243 28.5635 26.0122C28.3244 25.0903 28.2562 24.1001 28.3586 23.1441C28.3927 22.7685 28.461 22.3588 28.7 22.0515C28.939 21.7442 29.417 21.5735 29.7243 21.7784L29.178 26.5926Z" fill="#BCBCBB"/>
<path d="M53.9975 32.158C54.0317 32.3287 54.1 32.5336 54.0317 32.7043C53.9634 32.9433 53.7585 33.0799 53.5537 33.2165C52.0855 34.1725 50.3783 34.9236 48.6029 34.8212C46.8615 34.7188 45.0519 33.5238 44.7446 31.7824C44.6422 31.1337 44.7105 30.485 44.8471 29.8363C45.7348 25.5 49.0467 21.5394 53.4171 20.7199C53.6902 20.6516 53.9975 20.6175 54.2707 20.7199C54.6804 20.8565 54.9536 21.1979 55.0901 21.6077C55.534 22.6661 55.1926 23.9294 54.6121 24.9196C54.0317 25.9439 53.0074 26.7975 52.9732 27.9925C52.9049 29.2558 53.6902 30.963 53.9975 32.158Z" fill="#BCBCBB"/>
<path d="M66.5977 32.6351C68.817 31.3718 71.1729 30.3475 73.6312 29.6646C74.4165 29.4597 75.236 29.2549 75.8506 28.7086C76.5676 28.094 76.909 27.1038 77.1822 26.2161C76.192 26.4551 75.3726 25.8746 74.4165 26.1819C71.9923 26.9331 69.5681 27.7184 67.1098 28.4696C66.4611 28.6744 65.7782 28.9134 65.3343 29.4256C64.8905 29.9377 64.8222 30.8596 65.4026 31.2352C65.6758 31.44 66.0514 31.44 66.3928 31.5425C66.7342 31.6449 66.7001 32.2936 66.5977 32.6351Z" fill="#BCBCBB"/>
<path d="M25.8633 1.25748C26.1023 0.950187 26.1706 0.745324 26.273 0.71118C28.0485 0.506319 29.7898 -0.142409 31.6335 0.0283087C31.975 0.642893 31.5994 1.01847 31.3604 1.4282C30.4044 2.93051 29.4484 4.43283 28.5265 5.96929C28.1509 6.54973 27.8778 7.19846 27.5705 7.81304C27.5022 7.94962 27.5363 8.12033 27.5022 8.3252C29.2094 8.63249 30.8141 8.12033 32.4188 7.98376C32.6579 8.35934 32.6579 8.66663 32.2823 8.70078C30.4727 8.8715 28.6631 8.97392 26.8193 9.07635C26.751 9.07635 26.6827 9.00807 26.512 8.93978C26.5462 8.73492 26.512 8.46177 26.6144 8.29105C27.1949 7.26674 27.7753 6.24244 28.3899 5.25227C29.2435 3.81825 30.0971 2.41836 31.0531 0.847755C29.1752 0.438032 27.6729 1.39405 25.8633 1.25748Z" fill="#F15748"/>
<path d="M25.113 8.90548C24.2594 9.48592 20.4353 9.99807 19.411 9.75906C19.4452 9.52006 19.4452 9.21277 19.5476 9.00791C20.1963 7.7446 20.9133 6.54957 21.5962 5.28626C21.8011 4.91068 22.0059 4.50096 22.2108 4.15952C21.3914 3.2035 20.1963 4.50096 19.3086 3.51079C20.4012 3.03278 21.3914 2.99864 22.4157 3.23764C22.8937 3.34008 23.0302 3.68151 22.8254 4.19367C22.6205 4.63753 22.3815 5.04725 22.1084 5.45698C21.6304 6.20813 21.1182 6.95929 20.7085 7.71045C20.4695 8.12017 20.367 8.59818 20.1622 9.14448C21.9376 9.38348 23.4741 8.35918 25.113 8.90548Z" fill="#F15748"/>
<path d="M12.6172 10.7486C13.3683 9.45119 14.4951 8.49517 15.0755 7.027C14.3244 7.027 13.7439 7.027 13.0952 7.027C13.4708 6.41241 14.1878 6.2417 15.7925 6.30998C15.9633 7.98302 14.2902 8.76832 13.8122 10.2024C15.0755 10.5096 16.1681 9.58777 17.568 9.96335C16.4754 10.7486 15.3487 10.6121 14.3585 10.9194C13.8122 11.0901 13.2318 11.1242 12.6172 10.7486Z" fill="#F15748"/>
<path d="M85.444 20.7187C85.1367 20.2407 84.9319 19.7285 84.7611 19.1822C84.5221 18.4994 84.488 17.7482 84.1807 17.0995C83.054 14.6753 81.2443 12.8657 78.8202 11.6707C77.1813 10.8512 75.4741 10.2708 73.6986 9.75862C71.7524 9.17818 69.8063 8.76846 67.7576 8.59774C64.036 8.2563 60.3143 7.98315 56.5927 8.15387C53.4856 8.29045 50.3444 8.2563 47.2374 8.63188C44.1303 8.97331 41.0915 9.69033 38.0527 10.3049C36.2431 10.6805 34.4335 11.1585 32.6239 11.7048C30.6094 12.3194 28.6291 13.0705 27.2292 14.7094C25.044 14.7094 22.893 14.7094 20.7419 14.7094C19.7859 14.7094 18.8982 14.9484 18.0788 15.4265C17.7032 15.6313 17.2935 15.802 16.8496 15.9386C15.5521 16.4166 14.2205 16.7239 13.0596 17.5775C11.9671 18.3969 11.011 19.2847 10.533 20.5821C10.2599 21.3333 9.8843 22.0503 9.61115 22.8356C9.13314 24.2355 8.38198 25.4305 6.91381 25.9427C6.06022 26.25 5.1042 26.3524 4.21647 26.6255C3.32873 26.8645 2.40686 27.0694 1.55327 27.445C0.767966 27.7864 0.289956 28.4693 0.153382 29.3229C-0.119766 31.0301 -0.0856239 32.7031 0.733822 34.3078C1.17769 35.1956 1.62156 36.1175 2.03128 37.0393C2.441 37.9271 3.12387 38.5416 4.04575 38.8489C4.69448 39.0538 5.37735 39.1904 5.92364 39.3269C6.16265 40.044 6.19679 40.8634 6.60651 41.3073C6.81138 41.5463 7.05038 41.7511 7.28939 41.956C6.98209 42.673 6.77723 43.4242 6.81138 44.2095C6.84552 45.8825 7.01624 47.5214 7.86983 49.0237C8.51855 50.1846 9.06485 51.4138 9.67944 52.6088C9.8843 52.9844 10.1574 53.2917 10.4989 53.838C10.8062 53.3599 10.9427 53.0868 11.1135 52.8136C12.2402 51.1065 13.4694 49.5017 15.6204 48.9896C15.7911 48.9554 15.996 48.853 16.1667 48.7847C19.0006 47.419 22.0053 46.9068 25.1465 46.9068C25.6245 46.9068 26.0683 46.8727 26.5464 46.8385C29.073 46.5995 31.5996 46.6337 34.1604 46.8727C35.0481 46.941 35.97 47.0775 36.8577 47.0775C38.5649 47.0775 40.2379 47.0434 41.9451 46.9751C44.062 46.8727 46.213 46.8044 48.2958 46.5312C51.2663 46.1557 54.1685 45.3362 57.0707 44.5509C56.8658 45.1996 56.7293 45.8142 56.5927 46.4971C56.4903 46.9751 56.5585 47.5555 56.6951 48.0336C56.8317 48.5798 57.1048 49.1261 57.7877 49.1944C58.4023 49.2627 58.6072 48.7506 58.8803 48.375C59.0169 48.2043 59.1193 48.0677 59.2559 47.897C60.6216 45.7118 62.1922 43.7315 64.2409 42.1267C64.3774 42.0243 64.4799 41.8877 64.6164 41.7853C65.231 41.3414 65.8797 40.8975 66.5285 40.4878C66.8699 40.2488 67.2796 40.3171 67.6552 40.2488C67.9966 40.1805 68.2015 39.6342 68.5429 39.4294C68.9868 39.1221 69.4648 38.9514 69.9428 38.7124C70.933 38.2685 71.9573 37.8588 72.9475 37.4149C74.0401 36.9369 75.1668 36.3906 76.2594 35.9126C77.7617 35.2639 79.1274 34.4444 80.3566 33.3518C82.3711 31.6105 83.9758 29.5277 85.3074 27.2401C86.6049 25.0208 86.8439 22.8697 85.444 20.7187ZM9.85015 24.4745C10.3282 23.7575 10.533 22.8356 10.8403 22.0162C12.0353 18.7384 14.562 17.0995 17.8739 16.28C18.0446 16.6556 18.2495 16.9288 18.2836 17.2361C18.4543 19.2847 19.2055 21.265 18.9323 23.3478C18.8299 24.2696 18.5568 25.0891 18.0788 25.8402C17.4983 26.728 17.0203 27.6498 16.6447 28.64C16.0643 30.2106 16.0643 31.7129 16.5764 33.2835C16.6447 33.5567 16.713 33.8298 16.7813 34.1371C16.3374 34.5468 15.8936 34.9566 15.4497 35.4004C14.6985 36.0833 14.6985 36.0833 13.6059 35.537C13.6401 35.3321 13.6401 35.0931 13.6742 34.8883C13.9474 33.4201 13.3328 32.2592 12.2402 31.3715C11.7622 30.9618 11.1818 30.6203 10.6355 30.2448C9.8843 29.7667 9.338 29.118 9.26971 28.1961C9.20143 26.8987 9.06485 25.6354 9.85015 24.4745ZM13.3328 38.8489C13.7084 39.4635 14.1522 40.044 14.562 40.6585C13.7425 41.5804 12.8206 41.8536 11.6939 41.717C11.6939 41.478 11.6598 41.239 11.6598 41C11.1476 41.0683 11.1476 41.956 10.3965 41.7853C10.4306 41.4438 10.4647 41.0683 10.533 40.522C10.1574 41 9.91844 41.3414 9.61115 41.717C8.7917 40.4878 10.1233 39.6342 10.0209 38.6099C9.099 38.5758 8.92828 38.8489 8.27955 41.0683C7.25524 40.4537 7.08452 39.7025 7.80154 38.8148C9.577 36.5955 12.1378 35.537 14.9034 37.1759C14.8693 37.3808 14.8693 37.5856 14.8351 37.8246C16.1326 38.5758 16.2009 38.9855 15.2448 40.1805C15.0058 39.805 14.7668 39.4294 14.5278 39.0538C14.3571 38.7806 14.1522 38.5075 13.9132 38.3026C13.7767 38.2002 13.4694 38.2685 13.2987 38.3368C13.2645 38.3709 13.2304 38.7465 13.3328 38.8489ZM15.6204 36.2199C16.2009 35.7419 16.7472 35.298 17.2934 34.8541C18.1812 35.4687 18.8982 36.015 19.7176 36.5955C18.7275 37.1418 17.669 37.1076 16.6447 37.2442C16.0984 37.3125 15.9619 36.6637 15.6204 36.2199ZM2.81658 36.4247C2.37271 35.537 1.92885 34.6151 1.48498 33.6591C2.57757 33.386 3.19216 32.7031 3.46531 31.7129C3.70431 30.8252 3.90917 29.9033 4.04575 28.9814C4.11403 28.4351 4.28475 28.0254 4.83105 27.7523C5.8895 27.1718 7.01624 26.728 8.31369 26.4207C8.34784 26.728 8.38198 27.0011 8.38198 27.2401C8.27955 28.8449 8.85999 30.074 10.2257 30.9276C10.8062 31.3032 11.3866 31.6788 11.8988 32.1227C12.8889 32.9762 13.1962 34.103 12.9231 35.5029C12.3426 35.537 11.8305 35.6394 11.3183 35.6394C10.5672 35.6053 9.8843 35.8443 9.26971 36.254C8.62099 36.6979 7.97226 37.0735 7.35767 37.5515C5.58221 38.7806 3.73846 38.3368 2.81658 36.4247ZM53.5198 44.6875C50.8566 45.4045 48.1934 45.8484 45.4619 45.9849C43.4474 46.0874 41.4329 46.1898 39.4185 46.2581C38.1893 46.2922 36.9601 46.2922 35.731 46.1898C32.8288 45.9166 29.8924 45.7801 26.9902 46.0191C26.4439 46.0532 25.8976 46.1557 25.3513 46.1215C23.9856 46.0532 22.6198 46.1898 21.2882 46.4971C19.8201 46.8044 18.3178 47.0092 16.952 47.658C16.0984 48.0677 15.1765 48.4091 14.323 48.7847C13.9132 48.9896 13.4694 49.1944 13.1621 49.5359C12.4792 50.2187 11.8646 50.9358 11.2159 51.6528C10.9769 51.9259 10.8062 52.2674 10.533 52.6088C10.3623 52.3356 10.2257 52.1649 10.1233 51.9942C9.44043 50.6285 8.75756 49.2627 8.14297 47.8628C7.86983 47.2141 7.63082 46.5312 7.56253 45.8484C7.4601 44.6533 7.2211 43.4242 7.73325 42.2291C8.51855 42.7754 9.44043 43.0827 10.4989 43.0486C12.0353 42.9803 13.4352 42.3999 14.7668 41.717C15.8936 41.1366 16.6447 40.1805 16.7472 38.8489C16.7472 38.6441 16.8154 38.4734 16.8496 38.3026C16.9862 38.2344 17.0544 38.1661 17.1227 38.1661C18.6592 37.9271 20.2639 37.9271 21.698 37.0735C21.8687 36.971 22.176 37.0735 22.415 37.0735C22.893 37.1076 23.371 37.21 23.8832 37.1759C24.8733 37.1076 25.7611 36.8686 26.5122 36.1174C28.5267 34.1371 29.8241 31.8495 29.6193 28.9814C29.5168 27.445 30.1997 26.6597 31.2582 25.9085C31.5655 25.7037 31.8728 25.4988 32.1459 25.2598C32.2825 25.1232 32.3849 24.9184 32.5898 24.5428C31.0533 24.9184 30.1997 26.1134 28.834 26.4548C28.3901 25.0891 28.3218 23.7916 28.9706 22.5283C29.2778 21.9479 29.6534 21.4357 30.029 20.8894C30.268 20.5138 30.5412 20.1724 30.746 19.7627C30.8826 19.4895 30.9167 19.1822 30.4387 19.1481C30.1656 19.5578 29.8924 20.0017 29.5851 20.4114C28.117 22.2552 27.2634 24.2355 27.9804 26.6255C28.1511 27.1718 28.2877 27.7181 28.4584 28.2644C28.6633 28.879 28.7998 29.4936 28.5608 30.1765C28.0487 31.4056 27.639 32.7031 27.0585 33.8981C26.5122 35.059 25.6928 35.9809 24.327 36.015C22.1077 36.0492 20.1274 35.2639 18.386 33.864C18.2836 33.7615 18.2153 33.5908 18.0446 33.3518C18.6251 32.7031 19.2055 32.0544 19.8201 31.3715C19.7859 31.3373 19.7176 31.2691 19.6835 31.2349C19.0689 31.7812 18.4543 32.2934 17.8397 32.8055C17.3276 32.2592 17.908 31.9861 17.908 31.7812C17.669 31.4739 17.3959 31.3032 17.3959 31.0983C17.3617 30.6545 17.3617 30.1765 17.4983 29.7667C17.7715 28.9814 18.147 28.1961 18.5568 27.445C19.3079 26.011 20.1274 24.5428 19.9908 22.8697C19.9225 21.743 19.6835 20.6163 19.4445 19.5237C19.3079 18.9432 19.1372 18.4311 19.6152 18.0214C19.4445 17.5775 19.3079 17.2019 19.1372 16.8263C18.9323 16.3483 19.1031 16.0069 19.5469 15.8703C19.9225 15.7337 20.3322 15.6655 20.7419 15.6313C22.0735 15.563 23.4051 15.4606 24.7709 15.4947C25.9318 15.5289 27.0927 15.7337 28.2535 15.9386C28.834 16.041 29.3803 16.3483 30.0631 16.6215C30.1997 15.2557 28.9023 15.5289 28.3901 14.7777C30.1656 13.6168 32.0093 12.5925 34.2628 12.2511C34.3311 13.9583 35.1164 15.2557 36.0383 16.4166C37.0284 17.6458 37.882 18.9774 38.6673 20.3431C39.4526 21.6747 39.9989 23.1088 40.4086 24.6111C40.8184 26.0451 41.5354 27.2743 42.5255 28.401C43.1743 29.118 43.7547 29.9033 44.2669 30.7228C44.8132 31.5422 45.257 32.3958 45.7692 33.2152C45.8716 33.386 46.0423 33.5225 46.2131 33.6933C46.2813 33.6591 46.3496 33.625 46.4521 33.5908C46.4179 33.2494 46.4862 32.8738 46.3496 32.6007C45.5643 30.8935 44.6766 29.2546 43.3108 27.923C42.3207 26.967 41.7061 25.8061 41.2622 24.5428C40.8867 23.4843 40.6135 22.3576 40.1013 21.3333C39.3843 19.9334 38.6332 18.4994 37.6772 17.2702C37.0284 16.4508 36.3797 15.6313 35.8334 14.7436C35.3213 13.89 35.0822 12.9681 35.1164 11.9438C36.4138 11.6024 37.643 11.2268 38.9063 10.9536C40.1355 10.6463 41.3647 10.4073 42.5938 10.2025C43.8571 9.96348 45.1546 9.72448 46.4179 9.55376C47.6471 9.38304 48.8762 9.0416 50.1396 9.45133C51.3687 8.87089 52.7003 9.07575 53.9636 8.93917C55.1928 8.8026 56.4903 8.87089 57.7194 8.87089C59.0169 8.87089 60.3143 8.87089 61.6118 8.93917C62.8751 9.00746 64.1384 9.10989 65.3676 9.21232C66.665 9.31475 67.9625 9.41718 69.26 9.55376C68.9185 10.3391 68.5088 10.9536 68.3722 11.6365C68.0649 13.0364 67.2455 13.9241 65.948 14.4704C65.5724 14.6411 65.1969 14.7777 64.8213 14.9484C63.9677 15.324 63.2848 15.8703 62.9093 16.758C62.7044 17.3043 62.3288 17.6116 61.7825 17.7141C61.5094 17.7482 61.2362 17.8848 60.9631 17.9531C58.7437 18.4311 56.9341 19.7285 55.3977 21.265C53.1101 23.5526 52.7686 26.5573 52.871 29.6302C52.871 29.835 53.0076 30.0058 53.0759 30.2106C53.3491 31.0301 53.6222 31.8154 53.8954 32.7372C53.2466 33.2835 52.5638 33.7615 51.9833 34.3761C51.3346 35.059 50.5834 35.1273 49.8664 34.82C48.6714 34.2737 47.4422 34.2396 46.1789 34.2054C44.9497 34.1713 43.823 33.8981 42.5938 33.5567C42.8328 33.4542 42.9694 33.386 43.106 33.3177C43.106 33.2494 43.106 33.2152 43.106 33.147C42.0817 33.0787 41.0232 33.0104 39.8623 32.9762C40.2038 32.4982 40.4428 32.1568 40.6818 31.8154C39.2478 32.8738 39.2478 32.8738 38.2917 32.5324C38.7015 32.0544 39.077 31.6446 39.4526 31.2349C38.8039 31.6105 38.2917 32.2251 37.643 32.4299C36.9601 32.669 36.1748 32.5665 35.2871 32.0885C36.1066 31.5422 36.7894 31.1325 37.404 30.6203C38.0186 30.1082 38.9405 29.8692 39.1453 28.6742C38.7698 28.8449 38.5307 28.9132 38.3259 29.0497C35.9017 30.9276 33.3409 32.5324 30.268 33.1128C29.8583 33.1811 29.3803 33.2494 29.1071 33.6933C29.2096 33.8298 29.312 34.0005 29.3461 34.0005C30.9167 33.6933 32.4873 33.3518 34.1604 33.0104C34.5018 33.0787 34.9457 33.2494 35.3895 33.3177C37.404 33.5567 39.3843 33.9323 41.2281 34.7859C41.4671 34.9224 41.7402 35.0249 42.0134 35.0249C44.779 35.2639 47.5446 35.4687 50.3444 35.7077C50.3103 35.8443 50.3103 35.9467 50.2761 36.0492C49.8323 36.9028 49.3201 37.7563 48.9445 38.6441C48.2275 40.2488 48.6372 41.7853 49.9688 42.912C50.2761 43.151 50.5834 43.3217 50.959 43.151C51.7785 42.7754 52.5638 42.5023 53.2125 41.7511C54.7489 40.0098 56.6951 38.8489 58.9827 38.3709C59.3583 38.3026 59.7339 38.3026 60.1436 38.2685C60.1436 38.4392 60.1436 38.5075 60.1436 38.5075C60.0753 38.6441 59.9729 38.7806 59.8705 38.9172C58.812 40.4878 57.9584 42.1609 57.3438 43.9363C56.0805 44.107 54.7831 44.3802 53.5198 44.6875ZM57.4121 47.2482C57.4121 46.941 57.3439 46.6337 57.4121 46.3605C57.9926 43.868 58.7779 41.4438 60.3143 39.3269C60.9631 38.4392 61.6118 37.4149 63.08 37.5173C62.9093 37.1418 62.7727 36.9028 62.6361 36.5955C63.2507 36.3906 63.8311 36.2199 64.3433 36.0492C64.753 36.493 64.514 36.8345 64.4116 37.1759C64.3433 37.449 64.2067 37.7222 64.1726 37.9953C64.036 38.6782 64.2067 38.9172 64.8896 38.9855C65.3676 39.0197 65.8456 38.9855 66.6309 38.9855C63.0458 41.4097 59.9729 44.0046 57.4121 47.2482ZM84.8636 23.4843C84.7953 25.3622 84.3173 27.1718 83.2588 28.7766C83.0198 29.1522 82.7808 29.5277 82.4735 29.835C81.5858 30.7228 80.6639 31.5764 79.742 32.4641C79.6055 32.6007 79.4347 32.7372 79.264 32.8397C77.4886 33.6933 75.9862 35.059 74.1083 35.776C73.2206 36.1174 72.367 36.5955 71.3086 37.0735C71.1037 35.6736 71.9573 34.7176 71.7524 33.5225C71.6159 33.9323 71.4793 34.342 71.3769 34.7517C71.2403 35.1614 71.1378 35.6053 71.0354 36.0492C70.933 36.493 71.0013 37.0052 70.4208 37.4149C70.1135 36.3906 70.8988 35.5029 70.4208 34.581C70.2843 35.1614 70.1135 35.7077 70.0453 36.2882C69.977 37.3125 69.499 37.8246 68.5088 38.2002C67.2796 38.6782 66.1529 38.3026 64.8213 38.3709C64.992 37.6881 65.0944 37.1418 65.231 36.5955C65.4017 35.9809 65.0603 35.6053 64.6164 35.1956C65.4359 34.5127 66.1529 33.8981 67.0406 33.4543C69.6014 32.2592 72.1963 31.0983 74.7229 29.8009C75.5765 29.357 76.2935 28.6742 76.9764 27.9571C77.9666 26.8987 78.8543 25.7378 79.742 24.5769C79.9469 24.3038 80.2883 23.9282 79.9128 23.416C79.7762 23.5185 79.6055 23.5868 79.5713 23.6892C78.308 25.9085 76.635 27.7864 74.4498 29.0839C73.2206 29.8009 71.9232 30.3472 70.6257 30.9618C69.8745 31.3374 69.0892 31.7129 68.3039 32.0544C67.9966 32.1909 67.5528 32.3275 67.2796 32.1909C66.4943 31.8154 65.709 31.3715 65.0262 30.7911C64.2409 30.1082 64.2067 29.357 64.8213 28.5376C65.0944 28.1961 65.47 27.923 65.7773 27.6498C65.9822 27.445 66.187 27.2401 66.2553 26.8304C66.0846 26.8645 65.8797 26.8304 65.7432 26.8987C65.2993 27.1718 64.8554 27.4791 64.4457 27.8206C63.2507 28.8107 63.1483 30.2106 64.2409 31.3032C64.6506 31.7129 65.1969 32.0202 65.709 32.3617C65.948 32.4982 66.187 32.6348 66.5285 32.8397C65.6407 33.4884 64.7871 34.0347 64.0018 34.6151C63.2165 35.1956 62.4654 35.8102 61.7484 36.4589C61.3728 36.8003 61.0314 37.0052 60.4509 36.971C59.8363 36.9369 59.1535 37.0393 58.5389 37.21C56.9 37.6539 55.2611 38.2002 53.8612 39.1904C53.6905 39.2928 53.4856 39.3952 53.3149 39.4294C52.5296 39.566 52.0857 39.9757 51.9492 40.761C51.8467 41.2731 51.4712 41.478 50.9249 41.5121C50.5834 40.6244 51.1297 39.9074 51.4029 39.1562C50.7883 38.7465 50.5834 39.6001 50.0371 39.5318C49.9006 38.5416 50.5151 37.8246 50.9249 37.1076C51.3687 36.3565 52.0175 35.7077 52.6662 35.0931C53.2808 34.5127 54.0319 34.2396 54.9538 34.1371C55.705 34.0688 56.5927 33.7274 57.139 33.2494C58.1292 32.3617 59.2217 32.0885 60.4509 32.0202C60.7924 31.9861 61.2021 32.1227 61.3728 31.5422C60.6216 31.1325 59.8363 31.2349 59.051 31.4056C58.6072 31.5081 58.1633 31.6446 57.7877 31.8495C56.9 32.3275 55.9781 32.0202 55.0562 32.0544C54.8514 32.0544 54.4758 31.7471 54.3734 31.4739C53.6905 29.8692 53.2808 28.2303 53.7588 26.489C53.8271 26.1817 53.9295 25.8402 53.9636 25.5329C54.3051 23.0063 55.7732 21.265 57.8901 20.0017C58.7096 19.4895 59.5632 18.9432 60.4509 18.6359C61.6118 18.2604 62.841 17.9189 64.036 17.8848C65.2993 17.8165 66.6309 17.7824 67.8259 18.2945C67.9284 18.3287 68.0991 18.2262 68.3381 18.1579C67.7918 17.1678 66.9382 17.1336 66.1188 17.0995C65.2993 17.0653 64.4457 17.0995 63.3873 17.0995C63.6604 16.6556 63.797 16.3142 64.036 16.1093C64.4457 15.802 64.8896 15.4606 65.3676 15.324C67.2455 14.7777 68.3722 13.4803 68.9527 11.6707C69.1917 10.9878 69.4307 10.3049 69.7038 9.51961C70.1477 9.55376 70.6257 9.51961 71.0354 9.65619C73.4255 10.5439 75.9521 10.9536 78.2397 12.1828C80.9371 13.6168 82.5759 15.9045 83.8393 18.5335C83.9075 18.6701 84.01 18.875 83.9417 19.0115C83.4637 19.9334 84.1124 20.5821 84.488 21.2309C85.1367 21.982 84.8977 22.7332 84.8636 23.4843Z" fill="black"/>
<path d="M35.8673 24.1661C36.0039 23.176 36.1746 22.1517 35.6966 21.1956C34.7065 19.2495 33.8529 17.235 33.4773 15.0498C33.409 14.5718 33.17 14.1279 32.931 13.7182C32.7603 13.4109 32.453 13.2402 32.0774 13.5816C32.3164 14.2645 32.6578 14.8449 32.7603 15.4595C33.0676 17.5423 33.9553 19.4202 34.7406 21.2981C35.4918 23.1077 35.2528 24.8149 34.0919 26.3172C33.3407 27.3073 32.3164 28.0926 31.4287 28.9804C31.0531 29.3559 30.6775 29.6974 30.4727 30.5168C31.6677 29.595 32.6578 28.9462 33.5456 28.1268C34.7065 27 35.6283 25.7367 35.8673 24.1661Z" fill="black"/>
<path d="M45.7695 13.3087C46.1451 12.7283 46.4865 12.1478 46.8621 11.5674C45.9402 12.421 45.9061 12.4893 45.7695 13.3087Z" fill="black"/>
<path d="M48.1243 9.69126C48.056 9.65712 47.9877 9.58883 47.9194 9.55469C47.7487 9.79369 47.578 10.0327 47.4414 10.2717C47.5097 10.3058 47.5438 10.34 47.6121 10.4083C47.7828 10.1693 47.9536 9.93026 48.1243 9.69126Z" fill="black"/>
<path d="M18.8633 30.2435C18.8974 30.3118 18.9316 30.346 18.9657 30.4142C19.1706 30.2094 19.4096 30.0045 19.6144 29.7997C19.5803 29.7655 19.5462 29.7314 19.512 29.6631C19.3071 29.8679 19.0681 30.0728 18.8633 30.2435Z" fill="black"/>
<path d="M47 13.4127C47.2731 12.8322 47.4439 12.4567 47.6146 12.1152C47.0341 12.5591 47.0341 12.5932 47 13.4127Z" fill="black"/>
<path d="M47.6814 11.9424C47.647 11.9768 47.6469 11.9768 47.6125 12.0112C47.6125 12.0456 47.5781 12.0456 47.5781 12.08C47.6125 12.08 47.6125 12.0456 47.6469 12.0456C47.6814 12.0112 47.6814 11.9768 47.6814 11.9424Z" fill="black"/>
<path d="M48.0943 11.2275C47.9578 11.4665 47.8553 11.7055 47.7188 11.9787C47.9236 11.7738 48.1285 11.6031 48.3333 11.3983C48.2309 11.33 48.1626 11.2958 48.0943 11.2275Z" fill="black"/>
<path d="M20.3633 29.1194C20.466 29.1537 20.5687 29.2221 20.6371 29.1879C20.7056 29.1537 20.7398 29.051 20.8083 28.9825C20.7398 28.9483 20.6714 28.9483 20.5687 28.9141C20.5002 28.9483 20.4317 29.051 20.3633 29.1194Z" fill="black"/>
<path d="M56.1172 29.1179C56.1522 29.1179 56.1522 29.0829 56.1872 29.0829C56.1872 29.0479 56.1872 29.0479 56.1872 29.0479L56.1522 29.0829L56.1172 29.1179Z" fill="black"/>
<path d="M54.918 30.7571C55.396 30.1084 55.7716 29.6304 56.113 29.1523C55.1228 29.6645 54.9521 29.8352 54.918 30.7571Z" fill="black"/>
<path d="M56.1836 27.4797C56.2178 27.4113 56.2521 27.3428 56.2863 27.3086C56.2521 27.3771 56.2178 27.4113 56.1836 27.4797Z" fill="black"/>
<path d="M56.2812 27.3066C56.5544 26.9652 57.2714 27.1359 57.408 26.3506C56.8617 26.6237 56.5203 26.931 56.2812 27.3066Z" fill="black"/>
<path d="M53.1797 35.3324C53.6577 35.0934 53.9991 34.9226 54.3406 34.7178C53.6236 34.7519 53.6236 34.7519 53.1797 35.3324Z" fill="black"/>
<path d="M56.1836 29.0488C56.5592 28.8098 56.9006 28.605 57.2762 28.366C57.2079 28.2977 57.1396 28.1952 57.0713 28.127C56.7982 28.4342 56.3202 28.5367 56.1836 29.0488Z" fill="black"/>
<path d="M12.8879 24.9169C13.4001 25.1218 13.9805 25.3608 14.4585 24.8828C14.9024 24.4048 15.278 23.8243 15.6877 23.3122C15.5853 23.2097 15.517 23.1073 15.4146 23.0049C14.561 23.0049 14.4927 24.0975 13.6391 24.3706C13.1611 24.1316 12.5806 23.8243 12.0343 23.517C11.9319 23.6536 11.8295 23.6878 11.8295 23.756C11.7953 24.5413 12.4099 24.7121 12.8879 24.9169Z" fill="black"/>
<path d="M15.6897 21.0946C15.6214 20.7873 15.5531 20.5141 15.3482 20.3776C14.9727 20.1386 14.5629 19.9337 14.0508 20.241C14.3922 20.958 15.1092 20.8214 15.6897 21.0946Z" fill="black"/>
<path d="M1.58681 28.2638C1.27951 28.4686 0.972224 28.6735 0.767362 29.0149C0.596644 29.3564 0.5625 29.6978 0.5625 30.0393C0.5625 30.0734 0.5625 30.1075 0.5625 30.1417C0.5625 30.2441 0.630787 30.3124 0.733218 30.3124C0.835649 30.3124 0.903936 30.2441 0.903936 30.1417C0.903936 30.1075 0.903936 30.0734 0.903936 30.0393C0.903936 29.732 0.938079 29.4247 1.07465 29.1857C1.21123 28.9125 1.48438 28.7418 1.79167 28.5369C1.85996 28.5028 1.8941 28.3662 1.85996 28.2979C1.79167 28.2296 1.65509 28.1955 1.58681 28.2638Z" fill="white"/>
</svg>
