<svg width="105" height="76" viewBox="0 0 105 76" fill="none" xmlns="http://www.w3.org/2000/svg">
<path d="M89.1277 36.1338C89.1619 35.4168 89.196 34.6315 89.5375 33.9828C89.913 33.3341 90.5959 32.9243 91.2105 32.5146C99.4733 27.2224 104.561 17.3549 104.083 7.55566C100.839 12.3016 97.5612 17.0476 94.2834 21.7935C93.225 23.33 92.1324 24.9006 90.6642 26.0615C89.1619 27.1882 87.1816 27.8369 85.4061 27.2906C84.1428 26.9151 83.1185 25.9932 81.8893 25.481C79.7724 24.6616 77.4165 25.2079 75.1972 25.6859C67.4124 27.3589 59.4228 28.0418 51.4674 27.6321C45.3898 27.3248 38.9367 26.198 34.6005 21.9642C30.4691 17.9353 28.2839 11.2432 22.6844 9.87743C19.3383 9.12627 14.3875 10.9017 12.851 13.9747C12.3389 14.999 12.1681 16.2964 11.3828 17.1159C9.06108 19.5059 5.61258 17.2524 2.94939 19.2328C1.61779 20.2229 1.13978 21.9984 1.27635 23.6373C1.68607 28.2808 4.00784 29.8173 8.51479 28.6564C10.6658 28.1101 12.9193 27.2906 15.0704 27.9052C18.2457 28.8271 19.748 32.4122 20.704 35.5875C21.2845 37.5679 23.538 42.3821 22.3771 44.0551C21.6942 45.0794 20.3626 45.6599 19.6797 46.8208C18.9627 48.0158 18.553 49.3815 18.553 50.7473C18.5189 53.7519 20.1919 56.5175 20.5333 59.488C20.6699 60.5806 20.704 61.8439 21.5576 62.4927C22.0015 62.8341 22.6161 62.9365 23.1965 63.0048C24.2208 63.1414 25.2793 63.278 26.3036 63.4487C26.4402 64.5071 26.5426 65.5997 26.645 66.6923C26.7474 67.8191 26.7133 69.2189 25.7231 69.7652C25.4159 69.936 25.0403 70.0042 24.733 70.1408C22.9234 70.9603 23.4014 74.0673 25.2451 74.7502C27.0889 75.4331 29.2399 74.238 30.2301 72.5309C31.2203 70.8237 31.3568 68.7751 31.4934 66.7948C31.7324 62.6975 31.9714 58.5662 32.2104 54.4689C32.2787 53.5812 32.347 52.6593 32.9274 52.0106C33.5079 51.3619 34.7712 51.2936 35.1126 52.0789C35.1468 52.1472 35.1809 52.2154 35.1809 52.2837C35.8979 51.9082 36.6832 51.7033 37.4685 51.7033C38.4245 51.7033 39.3123 51.9764 40.0634 52.4203C41.9072 52.2837 43.7851 52.5569 45.6288 52.7276C45.6971 52.7276 45.7996 52.7617 45.8678 52.7617C46.5166 52.5569 47.1994 52.4203 47.8482 52.2837C54.3354 50.9863 60.8569 49.6888 67.3441 48.3914C69.5635 47.9475 72.056 47.5719 73.9339 48.8011C76.4605 50.4741 76.5629 54.1275 76.358 57.1663C76.0849 61.4684 75.6752 66.1119 72.8071 69.3214C71.6121 70.653 69.9391 71.848 69.7001 73.6235C70.3488 74.5795 70.9975 75.6379 72.056 75.1941C73.1144 74.7502 74.9923 74.9892 75.7776 74.1356C76.3239 73.5552 76.8361 72.8723 77.3141 72.1553C77.5189 70.8578 77.9628 69.697 78.5432 68.4336C78.5432 68.3654 78.5774 68.2629 78.6115 68.0922C78.6798 67.7849 78.7822 67.4776 78.8847 67.2045C79.0895 66.5899 79.2944 66.0095 79.5334 65.429C79.909 64.5413 80.387 63.7901 81.0016 63.1755C81.3089 61.2294 81.3089 58.8734 83.016 57.9516C83.8013 57.5418 84.7574 57.5418 85.611 57.7467C88.2742 58.3954 90.4594 60.7513 90.8691 63.4828C91.1422 65.2583 90.7325 67.102 91.1422 68.8092C91.5861 70.5505 93.464 72.1553 95.0346 71.3358C95.0346 67.7849 95.0346 64.234 95.0346 60.7172C95.0346 59.3173 95.0004 57.815 94.181 56.6883C93.2591 55.4249 91.5861 54.9811 90.4593 53.8885C88.718 52.2154 88.6497 49.4498 88.7522 47.0256C88.8887 43.5088 88.9912 39.8213 89.1277 36.1338ZM22.8551 43.7478L22.8892 43.8161C22.8551 43.8161 22.7868 43.8161 22.7527 43.8161L22.8551 43.7478ZM24.7671 57.0297C24.6647 56.1078 24.5623 55.2201 24.494 54.2982C24.4257 53.547 24.3574 52.7617 24.6647 52.113C25.1086 54.5372 25.4841 56.9955 25.8256 59.4539C25.0744 58.9759 24.8696 57.9516 24.7671 57.0297Z" fill="white"/>
<path d="M18.6895 17.3899C18.7919 18.0044 18.9626 18.619 18.9285 19.2678C18.9285 19.7116 18.7919 20.1896 18.6895 20.6335C18.5188 21.2822 18.348 21.9651 18.2115 22.6138C18.1432 22.9553 18.0408 23.3308 17.8359 23.604C17.631 23.9113 17.2896 24.1161 16.914 24.082C16.2311 24.0137 15.9921 23.126 15.958 22.409C15.8556 20.3603 15.8897 18.3117 16.0263 16.2631C16.0946 15.4437 16.5384 11.8586 18.1432 12.6439C18.7578 13.0195 18.5188 16.5704 18.6895 17.3899Z" fill="#BCBCBB"/>
<path d="M31.5238 20.2217C32.0018 21.007 32.514 21.8265 33.1286 22.5093C33.948 23.4312 34.9723 24.1141 36.0308 24.7628C37.7038 25.7871 39.411 26.709 41.2206 27.4943C41.6986 27.6992 42.279 28.143 42.04 28.621C41.9376 28.8259 41.6986 28.9283 41.4937 28.9966C37.3282 30.4989 32.275 28.9966 29.5435 25.4798C29.0655 24.8652 28.6558 24.1482 28.4168 23.3971C28.0753 22.202 28.2119 20.9387 28.0412 19.7437C27.9046 18.9243 27.2559 17.4902 27.9046 16.7732C29.3386 15.1343 30.9775 19.334 31.5238 20.2217Z" fill="#BCBCBB"/>
<path d="M79.7328 63.9268C79.5962 64.9169 79.5279 65.9412 79.0158 66.829C78.5036 67.7167 77.3769 68.263 76.4892 67.785C76.2501 62.4927 75.9087 57.2005 75.4648 51.9082C77.4452 51.0888 81.0985 54.4007 81.5083 56.2786C81.9863 58.5662 80.0059 61.605 79.7328 63.9268Z" fill="#BCBCBB"/>
<path d="M35.625 10.0128C36.0689 9.26162 36.6493 9.19334 37.1615 9.15919C39.0052 9.05676 40.849 8.92019 42.7951 9.77378C42.1464 10.1152 41.7026 9.84206 41.2587 9.84206C40.8148 9.80792 40.371 9.77378 39.9271 9.77378C39.4491 9.77378 38.9711 9.77378 38.4931 9.77378C38.0492 9.80792 37.6053 9.84206 37.1615 9.87621C36.7176 9.94449 36.2737 9.94449 35.625 10.0128Z" fill="#F15748"/>
<path d="M34.6289 6.90745C34.7313 5.88314 37.5311 3.32238 39.2383 2.50293C39.2041 2.77608 39.2383 3.08337 39.17 3.11751C37.497 3.76624 36.4727 5.20027 35.2093 6.3953C35.0386 6.56601 34.8338 6.73673 34.6289 6.90745Z" fill="#F15748"/>
<path d="M32.0391 5.95029C32.1073 5.50642 32.1073 5.02841 32.2439 4.58454C32.7561 3.04808 33.1317 1.47748 33.8828 0.00930542C33.8828 -0.0248381 34.0194 0.0434505 34.1901 0.0775941C34.156 0.282456 34.1218 0.521458 34.0535 0.72632C33.5072 2.50179 32.9609 4.27725 32.4488 6.01857C32.2781 5.98443 32.1415 5.98443 32.0391 5.95029Z" fill="#F15748"/>
<path d="M30.1593 38.7261C29.7496 37.0872 29.1691 35.4824 28.9984 33.8094C28.5204 29.8146 29.135 25.9564 31.1495 22.4055C31.2519 22.2347 31.2519 22.064 31.3202 21.8592C31.2519 21.7909 31.1836 21.7226 31.0812 21.6543C30.9105 21.825 30.6714 21.9616 30.5349 22.2006C29.852 23.1908 29.5789 24.3858 29.2033 25.5125C28.7935 26.7758 28.5204 28.0391 28.3497 29.3366C27.8717 32.7168 28.5887 35.8922 29.5789 39.0334C30.1251 40.7747 30.6032 42.516 30.7739 44.2915C30.9787 46.7157 30.569 49.0374 28.3497 50.5739C27.9741 50.8129 27.6668 51.1202 27.3254 51.4275C27.0522 51.7006 26.8474 52.0079 26.5742 52.2811C28.0765 51.6665 29.3398 50.8129 30.5007 49.7886C31.047 49.3106 31.2519 48.696 31.2519 47.9448C31.2519 47.3303 31.3885 46.7498 31.4226 46.1352C31.4567 45.3499 31.5933 44.4963 31.4226 43.7452C31.1153 42.1404 30.6032 40.4333 30.1593 38.7261Z" fill="black"/>
<path d="M54.7419 47.7051C54.3663 48.0465 54.0249 48.4562 53.7517 48.866C53.6493 49.0025 53.6152 49.1733 53.5469 49.344C54.1956 49.0025 54.4005 48.3197 54.7419 47.7051Z" fill="black"/>
<path d="M21.8299 33.9803C21.7616 33.9462 21.6933 33.8779 21.625 33.8438C21.3177 34.3559 21.0104 34.8681 20.7031 35.3802C21.5226 35.2095 21.3519 34.3559 21.8299 33.9803Z" fill="black"/>
<path d="M23.1943 32.0674C22.887 32.4088 22.5797 32.7844 22.2383 33.1258L22.3066 33.1941C22.648 32.8527 22.9553 32.5454 23.2967 32.204C23.2626 32.1698 23.2284 32.1357 23.1943 32.0674Z" fill="black"/>
<path d="M23.6379 33.8438C23.3989 34.1169 23.1599 34.3901 22.8867 34.6632C23.3306 34.5949 23.5354 34.2535 23.6379 33.8438Z" fill="black"/>
<path d="M29.3044 56.0703C28.7581 56.5483 28.4167 56.8556 28.1094 57.1629C28.4508 56.8898 29.1337 56.9239 29.3044 56.0703Z" fill="black"/>
<path d="M28.5547 59.895C28.5888 59.9291 28.623 59.9633 28.6571 60.0315C28.862 59.8608 29.0327 59.6901 29.2376 59.5535C29.2034 59.5194 29.1693 59.4511 29.1351 59.3828C28.9303 59.5535 28.7595 59.7242 28.5547 59.895Z" fill="black"/>
<path d="M14.3815 15.1659C13.9035 15.3024 13.4938 15.8487 13.4596 16.3267C13.4255 16.873 13.7328 17.3852 14.1766 17.59C14.9619 17.9656 15.5082 17.6583 15.5424 16.5316C15.5082 16.3609 15.4399 15.9512 15.3375 15.5756C15.2009 15.1659 14.8254 15.0634 14.3815 15.1659Z" fill="black"/>
<path d="M16.1591 13.9024C15.886 13.7317 15.5787 13.5951 15.2031 14.039C15.5787 14.517 16.0567 14.756 16.7054 14.995C16.7054 14.4146 16.5347 14.1073 16.1591 13.9024Z" fill="black"/>
<path d="M5.33594 26.6053C6.02055 26.6053 6.02055 26.6053 5.8494 26.0576C5.67824 26.263 5.50709 26.4342 5.33594 26.6053Z" fill="black"/>
<path d="M5.64287 24.3169C5.67702 24.2828 5.5063 24.1121 5.40387 23.873C5.23315 24.1121 5.09658 24.2486 5.06243 24.3852C5.02829 24.4193 5.23315 24.6242 5.23315 24.6242C5.36972 24.5559 5.54044 24.4535 5.64287 24.3169Z" fill="black"/>
<path d="M6.49609 24.3178C6.49609 24.3178 6.56455 24.4889 6.63302 24.5916C6.80417 24.4889 6.94109 24.3863 7.11225 24.2493C7.07802 24.1809 7.04378 24.1124 7.00955 24.0439C6.80417 24.1466 6.63302 24.2151 6.49609 24.3178Z" fill="black"/>
<path d="M21.1136 19.5369C21.1136 19.4686 21.0794 19.4345 21.0794 19.3662C20.8746 19.4686 20.6697 19.5711 20.4648 19.6735C20.499 19.7076 20.499 19.7759 20.5331 19.8101C20.7038 19.7076 20.9087 19.6394 21.1136 19.5369Z" fill="black"/>
<path d="M19.6445 50.8808C19.6787 50.9149 19.7128 50.949 19.747 50.9832C20.3274 50.6417 20.8737 50.3003 21.4541 49.9247L21.42 49.8564C20.8396 50.232 20.225 50.5735 19.6445 50.8808Z" fill="black"/>
<path d="M103.943 8.88456C103.943 8.33826 103.772 7.75782 103.533 7.27981C103.123 6.49451 102.099 6.46036 101.587 7.17738C101.28 7.5871 101.041 8.06511 100.836 8.54312C100.221 9.97715 99.9821 11.5478 99.1627 12.9135C99.0602 13.0842 98.9919 13.2891 98.9919 13.4939C98.9578 14.3475 98.5481 14.7572 97.6945 14.689C97.6603 14.689 97.5921 14.7914 97.5579 14.8255C97.7969 14.8938 98.0359 14.928 98.3432 14.9963C97.6603 16.4644 97.114 17.8985 96.0556 19.0593C95.0313 20.1861 94.1436 21.4494 93.0851 22.542C92.0267 23.6346 90.7633 24.5223 89.6025 25.5466C88.4416 26.5709 86.9393 26.8782 85.5735 27.7318C85.0955 27.4245 84.5834 27.0831 84.0712 26.6734C83.5249 26.2636 82.9103 25.9905 82.1933 25.9905C80.5886 26.0246 78.9838 26.0929 77.3791 26.0246C73.5891 25.8881 69.8333 26.5709 66.0776 26.8782C65.8385 26.9124 65.5995 26.9806 65.3605 27.0148C63.9265 27.2538 62.5266 27.5269 61.0926 27.6977C59.2488 27.9025 57.4051 27.9708 55.5955 28.244C53.5469 28.5513 51.4982 28.5854 49.4838 28.4147C48.3229 28.3122 47.1962 28.0391 46.0353 27.9708C44.6012 27.8684 43.2696 27.5611 41.9722 26.9124C41.8015 26.8099 41.5625 26.8782 41.2893 26.8441C41.3235 27.5269 41.8015 27.6977 42.2112 27.7659C43.5087 28.0732 44.8061 28.3122 46.1036 28.5512C46.6499 28.6537 47.2303 28.6195 47.7766 28.7561C49.8594 29.2341 51.9421 29.2 54.0249 29.0634C56.2101 28.8927 58.4294 28.6195 60.6146 28.3805C61.4682 28.3122 62.3559 28.3122 63.2095 28.1757C64.5411 27.9708 65.8385 27.6635 67.1701 27.4587C70.9601 26.8782 74.75 26.7416 78.5741 26.7758C79.2911 26.7758 80.0081 26.7075 80.7593 26.7416C81.886 26.7758 83.0128 26.7758 84.0029 27.6294C83.2859 28.722 82.364 29.6097 81.3739 30.4291C81.2031 30.5657 80.9641 30.6682 80.7251 30.7364C79.8715 30.9413 79.018 31.1803 78.1302 31.3169C74.3403 31.9656 71.4381 33.7411 70.1065 37.531C69.8675 38.2139 69.7309 38.9309 69.526 39.6138C69.1505 40.7405 68.9115 41.9355 67.5457 42.4818C65.6678 43.1988 64.1655 44.428 63.0388 46.1693C62.5949 46.8522 62.151 47.5009 61.673 48.1838C60.6829 48.3545 59.6244 48.4911 58.6001 48.6959C57.6099 48.9008 56.6539 49.3105 55.4589 49.3788C55.8003 48.8325 56.0735 48.4228 56.3466 48.0131C55.8345 48.2862 55.3565 48.6618 55.1516 49.1398C54.8102 49.9251 54.2297 50.0275 53.5127 50.0958C53.5127 49.8568 53.5469 49.6861 53.5469 49.5154C52.864 50.0958 52.2494 50.8129 51.1227 50.369C50.8837 48.2179 49.5521 46.5791 48.4595 44.8036C47.879 43.8476 47.162 42.9598 46.3084 42.2087C45.4207 41.4575 44.5671 40.6722 43.6452 39.9211C42.8258 39.2382 41.9722 38.5553 41.0503 37.9407C39.7187 37.053 38.3188 36.2677 36.9531 35.38C34.2216 33.6386 32.412 31.4193 32.9241 27.9367C32.9583 27.7659 32.9241 27.5952 32.9583 27.4587C33.2314 26.4002 33.2656 25.2393 34.2557 24.4882C36.0312 25.9222 38.9676 27.1855 40.4699 27.0489C39.2748 26.4685 38.2847 25.9563 37.2604 25.5125C36.3044 25.1028 35.5191 24.5223 34.8362 23.737C33.2997 21.8933 31.8316 19.9812 30.739 17.796C30.1244 16.601 29.4074 15.4401 28.6562 14.1427C28.6562 14.211 28.6562 14.0744 28.6903 13.9719C28.9635 12.3672 28.3489 11.2063 26.8807 10.5917C26.5052 10.421 26.1296 10.2844 25.754 10.1479C24.1834 9.60157 22.6469 9.05528 20.9739 8.98699C20.1545 8.95285 19.3692 9.05528 18.7887 9.73815C18.618 9.94301 18.4814 10.182 18.3107 10.421C18.2424 10.3527 18.2083 10.2503 18.14 10.182C17.3888 10.2503 16.6377 10.2162 15.9207 10.3869C15.4768 10.4893 15.1012 10.899 14.6573 11.0697C13.0867 11.6843 12.3697 13.0159 11.7893 14.45C11.6186 14.8597 11.4478 15.2694 11.3454 15.6791C11.0723 16.6351 10.4235 17.1473 9.5358 17.4546C9.22851 17.557 8.92122 17.6595 8.61393 17.7619C7.35062 18.1033 6.05316 18.4106 4.78985 18.7862C3.7314 19.0935 2.6388 19.4008 1.58035 19.7422C0.624334 20.0495 -0.0926812 20.7665 0.00974951 21.5177C0.146324 22.8493 0.282898 24.215 0.692621 25.5125C1.0682 26.6734 1.75107 27.7318 2.36566 28.8585C2.67295 29.4048 3.1851 29.7804 3.76554 29.917C4.41427 30.0536 5.13128 30.1901 5.78001 30.0877C7.93106 29.7463 10.048 29.3024 12.1649 28.8585C13.2916 28.6195 14.4525 28.3464 15.5792 28.1415C16.5011 27.9708 17.1157 28.4488 17.3547 29.3366C17.423 29.6097 17.423 29.8828 17.4913 30.2584C18.1058 30.1219 18.4473 30.395 18.618 30.9754C18.9936 32.3412 19.4374 33.6728 19.813 35.0044C20.4276 37.1554 20.3935 39.4772 21.5885 41.4575C21.6568 41.5941 21.6568 41.7648 21.7251 41.9355C21.8958 42.5501 22.1348 43.0964 22.4079 43.6427L22.3738 43.6086C21.5885 44.428 20.8032 45.2474 20.0179 46.0328L20.0862 46.101C19.6764 46.5791 19.3009 47.0571 18.8911 47.5692C18.2424 48.3887 17.9693 49.3105 17.9351 50.369C17.9351 51.325 18.3107 52.1786 18.5497 53.0322C18.9936 54.5686 19.7447 56.0027 19.9154 57.6416C19.9154 57.7781 19.9154 57.9147 19.9496 58.0513C19.9496 58.0513 19.9496 58.2561 19.9496 58.3927C19.9496 58.5293 19.9496 58.8024 19.9496 58.8366C20.0179 60.0999 20.1545 61.3974 20.769 62.5924C20.8373 62.729 20.9739 62.968 21.2129 63.1045C21.4519 63.2411 21.6568 63.2411 21.8275 63.2411C23.2615 63.3435 24.8663 63.4118 26.3003 63.5143C26.471 65.6653 26.6417 67.6456 26.7442 69.2845C26.5052 69.3869 26.3003 69.4552 26.0954 69.5918C25.4467 70.0015 24.7638 70.343 24.1834 70.8551C23.0908 71.8111 22.7494 73.1086 23.2274 74.3378C23.3298 74.6109 23.5347 74.9865 23.7737 75.0889C24.5248 75.3962 25.3101 75.7718 26.0613 75.7718C27.6319 75.7718 29.1684 75.3962 30.5341 74.5085C30.7731 74.3719 30.978 74.2012 31.2511 74.1329C32.0364 73.928 32.0706 73.8939 32.1388 73.1769C32.173 72.733 32.1388 72.2892 32.2071 71.8453C32.3437 70.3088 32.5486 68.8065 32.6851 67.3042C33.0266 63.4118 33.2997 59.5195 33.6412 55.6612C33.7436 54.5004 33.8802 53.3395 34.0509 52.1445C34.4606 52.3493 34.8703 52.52 35.041 52.7249C35.2801 52.7932 35.5532 52.759 35.7922 52.759C36.2702 52.759 36.7482 52.8273 37.2262 52.9298C37.2604 52.9298 37.2604 52.9639 37.2945 52.9639C39.3773 53.476 41.4259 53.7833 43.5428 53.5102C43.8842 53.4078 44.2257 53.3395 44.5671 53.3053C44.7037 53.2712 44.8403 53.2712 44.9768 53.2712C45.2841 53.2029 45.5573 53.1688 45.8646 53.1346C46.684 52.9298 47.6059 52.759 48.5619 52.52C50.7812 51.9737 53.0347 51.4616 55.2199 50.8811C57.1661 50.369 59.044 49.7203 61.0584 49.413C64.6777 48.8667 68.2969 48.2862 71.9161 47.9448C72.6673 47.8765 73.4184 47.9448 74.1354 47.9448C75.6036 51.6323 78.1985 54.2272 81.3739 56.1392C80.7251 57.744 80.2813 59.2463 80.0764 60.8511C79.974 61.8412 79.8716 62.7972 79.8033 63.7874C79.2911 64.9483 78.779 66.6896 78.3692 67.7139C77.7888 69.2162 77.3108 70.7527 76.7303 72.255C76.5596 72.6989 76.3889 73.211 76.0475 73.4842C75.2622 74.1329 74.3744 74.7133 73.3501 74.9182C72.9063 75.0206 72.4282 74.9865 71.9161 75.0206C71.9161 74.2695 72.6673 73.9622 72.6331 73.211C71.7454 73.4842 71.4039 74.2012 70.9259 74.8499C70.4821 73.9963 71.7454 73.7573 71.4039 72.8696C70.9942 73.1086 70.6528 73.3476 70.1748 73.5866C70.4821 72.6647 71.0625 72.0501 71.7795 71.5721C72.3258 71.1966 72.9063 70.9234 73.4867 70.582C73.794 70.4113 73.8964 70.2747 73.8623 70.1381C73.8964 70.1381 73.8964 70.1381 73.9306 70.104C73.316 69.5235 73.6233 68.9772 73.794 68.3968C74.2037 67.0652 74.7842 65.8702 75.467 64.6751C75.6719 64.3678 75.8426 63.8898 75.7743 63.5484C75.6377 62.729 75.8426 62.1144 76.4572 61.6364C76.4913 61.6022 76.4572 61.4998 76.4913 61.3974C76.2523 61.4998 76.0475 61.5681 75.8085 61.6705C75.7743 61.6022 75.7402 61.5339 75.6719 61.4656C76.2523 60.9876 76.8328 60.4755 77.4132 59.9975C77.3791 59.9633 77.3449 59.895 77.3108 59.8609C76.7645 60.2023 76.2182 60.5779 75.6036 60.9535C75.3646 59.656 75.0573 58.4952 74.989 57.3343C74.8524 55.4222 74.75 53.4761 75.1597 51.564C75.228 51.2567 75.2963 50.9153 74.8183 50.7446C74.75 50.847 74.5793 50.9494 74.5793 51.086C74.4427 53.1346 74.3061 55.1491 74.1696 57.1977C74.1696 57.3343 74.2379 57.505 74.272 57.6757C74.8183 59.2122 74.8183 60.8169 75.0232 62.4217C75.0914 63.0362 75.0573 63.6508 74.8866 64.2313C74.4427 65.1873 72.7355 68.6699 72.7355 68.7041C72.6331 69.5235 72.4624 70.4454 71.7454 70.8551C70.7894 71.3673 70.2431 72.1526 69.6968 72.9379C69.3212 73.4842 69.2529 74.0988 69.5943 74.5768C69.9699 75.1572 70.5504 75.7718 71.3357 75.7035C72.5648 75.5669 73.7598 75.3279 74.989 75.0548C76.0816 74.8158 76.7986 74.1329 77.0718 73.0062C77.2084 72.494 77.3791 72.016 77.5498 71.538C77.9937 70.2747 78.4034 69.0114 78.9155 67.7822C79.2228 67.0993 79.5984 66.2457 79.974 65.4263C79.974 65.4263 79.974 65.4263 79.974 65.3922C80.213 64.8459 80.4861 64.3337 80.7251 63.8557C80.7934 63.7533 80.8617 63.685 80.93 63.5825C80.93 63.446 80.9641 63.2753 80.9983 63.1387C81.2373 61.8412 81.4421 60.5438 81.7153 59.2463C81.886 58.3586 82.125 57.4708 82.3299 56.5148C82.5347 56.549 82.7055 56.549 82.842 56.6173C84.2078 57.1977 85.5735 57.7781 87.0417 58.0171C88.1001 58.222 88.8172 58.8366 89.2952 59.7926C90.2512 61.8071 90.6609 63.8557 90.4561 66.1092C90.217 68.4992 91.1048 70.5137 92.9144 72.1184C93.29 72.4599 93.6997 72.6647 94.246 72.5965C96.0215 72.3233 96.6702 70.9917 96.2946 69.8308C96.1922 69.4894 96.0897 69.1138 95.9532 68.8065C95.1337 67.1676 95.0654 65.5287 95.6459 63.7874C95.919 62.968 95.9873 62.0461 96.1239 61.1925C96.2946 59.9292 95.8166 58.8366 95.0313 57.8464C93.3924 55.832 91.5145 54.0906 89.5683 52.4176C88.8172 51.7689 88.4757 51.1884 88.8172 50.2666C88.8855 50.0617 88.9196 49.891 88.9879 49.6861C90.0122 45.862 90.4219 41.9697 90.2853 37.9749C90.217 36.3018 89.7732 34.7312 89.3976 33.1265C89.3293 32.7509 89.1245 32.4778 88.7147 32.6485C89.022 34.6288 89.2952 36.5067 89.6025 38.4187C89.7049 38.965 89.5683 39.3406 89.022 39.5796C89.261 39.7162 89.4317 39.8186 89.5683 39.8869C89.5683 40.3649 89.5683 40.7746 89.5683 41.2185C89.5683 43.472 89.1927 45.6913 88.5782 47.8765C88.2709 49.0032 88.0319 50.13 87.827 51.2567C87.7928 51.5299 87.8953 51.9396 88.1002 52.1103C88.8513 52.8273 89.6366 53.4761 90.4561 54.1248C91.9584 55.3539 93.2558 56.788 94.485 58.2903C95.2361 59.2463 95.5434 60.2706 95.3386 61.4315C95.202 62.2168 95.0996 63.0362 94.8606 63.7874C94.3484 65.597 94.3143 67.3383 95.3044 69.0114C95.3727 69.1138 95.441 69.2162 95.441 69.3528C95.5093 69.8991 95.5434 70.4454 95.5776 70.9917C95.5776 71.06 95.441 71.1624 95.3386 71.299C95.1337 71.0258 94.963 70.7868 94.724 70.4454C94.5874 70.8551 94.5191 71.0941 94.4509 71.3331C93.9046 71.1624 94.1777 70.343 93.4948 70.2747C93.4265 70.582 93.3583 70.8551 93.29 71.1966C93.1192 71.0941 92.9827 71.06 92.9144 70.9576C91.6169 69.5577 91.0706 67.8846 91.1389 66.0067C91.1731 65.0849 91.5145 64.402 92.2998 63.8898C92.7095 63.6167 93.0851 63.2752 93.4948 62.9338C93.4607 62.8997 93.4265 62.8314 93.3924 62.7972C92.7437 63.207 92.0949 63.5825 91.4462 63.9923C91.4121 63.924 91.3438 63.8898 91.3096 63.8215C91.7194 63.3435 92.1291 62.8655 92.5388 62.3875C92.5047 62.3534 92.4705 62.3192 92.4364 62.3192C92.0949 62.5582 91.7535 62.7972 91.2755 63.1045C90.9682 62.2168 90.6951 61.4315 90.4219 60.6462C90.0463 59.5536 89.5683 58.5976 88.4757 58.0171C87.8611 57.6757 87.2466 57.3001 86.632 56.9245C86.7003 55.0808 86.4271 54.3638 85.3004 53.3395C85.0614 53.1346 84.8224 52.8615 84.5834 52.7249C83.7298 52.2127 83.1835 51.4616 82.6372 50.6421C81.408 48.7642 79.5643 48.0131 77.3791 48.0472C76.9011 48.0472 76.423 48.1155 76.1158 48.5935C76.6621 48.935 76.6621 48.935 77.0718 48.8325C77.9937 48.5935 78.9838 48.5594 79.7691 49.0374C80.5544 49.4813 81.3739 50.0958 81.8519 50.8129C82.7055 52.1786 83.8663 53.2029 84.9931 54.2614C85.0955 54.3638 85.2662 54.4662 85.3345 54.6028C85.8467 55.2515 86.1198 55.9685 85.8125 56.8563C83.9688 56.5831 82.4665 55.6612 80.93 54.8077C78.6082 53.5443 76.9693 51.564 75.6719 49.3105C75.3987 48.8325 75.1939 48.2862 75.0573 47.7399C74.8183 46.7498 74.6134 46.5449 73.555 46.6473C72.838 46.7156 72.121 46.8181 71.4039 46.9205C69.6285 47.1253 67.8189 47.3302 66.0093 47.5692C64.985 47.7058 63.9606 47.8765 62.9022 48.0131C62.9022 47.8082 62.8681 47.7058 62.9022 47.6375C63.9948 45.7596 65.3605 44.1207 67.4091 43.2671C68.6042 42.7891 69.3212 41.9697 69.7309 40.8429C69.9699 40.2283 70.1406 39.6138 70.2772 38.9992C71.2674 35.2434 73.6233 32.9558 77.4132 32.1363C78.3009 31.9315 79.2228 31.6925 80.1447 31.6583C81.2031 31.6242 81.8177 31.0437 82.4665 30.3267C83.1835 29.5073 83.9005 28.7561 84.6175 27.9708C85.2662 28.3122 85.8467 28.6195 86.632 29.0634C86.4271 28.5512 86.3247 28.3122 86.1881 28.005C87.9636 27.2197 89.5683 26.3319 91.0706 25.1369C93.9728 22.8151 96.2605 20.0154 98.2408 16.9083C98.4798 16.5327 98.7188 16.1571 99.0261 15.8498C99.1968 15.7133 99.5724 15.645 99.7772 15.7133C100.836 16.2254 101.177 17.2156 100.733 18.3423C100.187 19.6739 99.709 21.0397 98.8212 22.2005C98.0701 23.1907 97.5579 24.3174 96.8409 25.3418C95.9532 26.6392 95.0654 27.9367 94.0411 29.0975C92.9485 30.3267 91.6852 31.4193 90.5243 32.546C90.2512 32.8192 89.8756 33.0241 89.8756 33.5021C90.4902 33.9459 90.8658 33.5021 91.2413 33.1606C91.9925 32.4436 92.7437 31.7266 93.4607 30.9413C94.4508 29.8828 95.4752 28.8585 96.2946 27.6635C97.6262 25.7515 98.8895 23.8053 100.085 21.7908C101.109 20.0836 101.997 18.274 102.918 16.4986C103.021 16.2937 103.055 16.0547 103.157 15.8157C103.806 13.5622 104.011 11.2405 103.943 8.88456ZM30.5682 18.8545C29.5781 19.0593 28.6903 19.1959 27.7343 19.4008C27.1197 17.8985 27.427 16.4303 28.3148 14.8255C29.3391 16.1571 29.8854 17.5229 30.5682 18.8545ZM18.7546 11.5819C19.0277 10.2844 19.8813 9.49914 21.1788 9.60157C23.2615 9.73815 25.2077 10.3869 27.0173 11.377C28.144 11.9916 28.3489 13.0501 27.666 14.2792C26.8807 15.7133 26.5052 17.1814 26.7783 18.7862C26.8807 19.3666 27.0515 19.9471 27.188 20.5617C27.3246 21.2445 27.4612 21.8933 27.5978 22.5761C28.0075 24.9662 27.188 25.9563 24.7638 26.4685C22.7152 26.8782 20.769 26.3319 18.9936 25.2735C17.7303 24.5223 17.3888 23.259 18.4131 21.7225C18.6521 21.3811 18.8911 21.108 19.096 20.6982C18.8229 20.9031 18.5497 21.0738 18.14 21.347C18.5497 19.3666 19.096 17.6595 18.9936 15.8157C18.9594 15.3035 18.9253 14.7573 18.7887 14.2792C18.5838 13.3232 18.5838 12.4696 18.7546 11.5819ZM17.5937 28.0732C17.0815 26.8441 16.8084 26.7416 15.5451 27.0148C14.4525 27.2538 13.3599 27.4928 12.199 27.7318C12.199 27.3904 12.1649 27.1514 12.199 26.9465C12.4039 25.4442 11.8576 24.3516 10.526 23.6687C8.95536 22.8151 8.68221 22.1664 9.33094 20.4592C9.46752 20.0836 9.63824 19.7081 9.74067 19.3325C9.77481 19.2642 9.70652 19.1959 9.63823 19.0252C9.46752 19.1276 9.26266 19.1959 9.19437 19.3325C8.95536 19.9129 8.64807 20.4934 8.5115 21.108C8.10177 22.8834 8.30664 23.1907 9.8431 24.1126C10.3211 24.3857 10.765 24.7613 11.1406 25.171C11.6527 25.7515 11.7551 26.4343 11.5503 27.1855C11.4137 27.6635 11.1406 27.9708 10.6625 28.0391C8.92122 28.3464 7.21404 28.722 5.43858 28.9268C3.93626 29.1317 3.59482 28.722 3.01438 27.1855C2.91195 26.9124 2.91195 26.6392 2.84367 26.3661C2.6388 25.3076 2.6388 25.3076 1.44378 25.3759C2.74123 24.3857 3.04853 22.9176 3.66311 21.6542C3.93626 21.108 4.00455 20.5958 3.38996 19.9812C3.93626 19.7764 4.34598 19.5715 4.78985 19.4349C6.15559 19.0593 7.48719 18.6838 8.85293 18.3082C9.33094 18.1716 9.77481 18.0009 10.2187 17.796C11.1406 17.4204 11.7551 16.8059 12.0283 15.8498C12.2331 15.2011 12.5404 14.5865 12.7794 13.9378C13.155 12.8794 13.872 12.1623 14.8281 11.6843C15.7499 11.2063 16.6377 10.4552 17.901 10.899C17.9351 11.0015 17.9693 11.0356 17.9351 11.0697C17.5595 12.4355 18.0376 13.7329 18.2424 15.0645C18.5156 16.9083 18.0376 18.6496 17.5254 20.3909C17.3205 21.108 17.1157 21.8591 16.9791 22.6103C16.6377 24.1809 17.423 25.2052 18.8229 26.0246C19.2667 26.2978 19.7447 26.5026 20.291 26.7758C19.5399 27.6635 18.379 27.4245 17.5937 28.0732ZM21.8616 62.4558C21.7251 62.4558 21.5885 62.4217 21.5543 62.3875C21.5202 62.3534 21.4519 62.2851 21.3836 62.1485C20.9056 61.2608 20.7349 60.2706 20.6666 59.2122C20.8373 58.8024 20.8715 58.3586 20.7349 57.8464C20.3935 56.5148 20.052 55.2174 19.7106 53.8858C19.4033 52.759 19.0619 51.6664 18.7546 50.608C19.1643 50.1983 19.5399 49.8227 19.9154 49.4471C19.6082 49.5495 19.335 49.6861 18.9936 49.7885C19.0619 48.5594 19.2326 48.0472 20.1203 47.0571C20.53 46.579 20.9398 46.101 21.3495 45.6572C21.3153 45.6572 21.3153 45.623 21.2812 45.623C21.7592 45.145 22.2372 44.6329 22.7152 44.1549C23.2957 45.0767 23.9785 45.9303 24.6614 46.7839C24.7297 46.8522 24.798 46.9205 24.9004 46.9888C24.9687 47.9106 25.037 48.9691 25.1394 50.0958C24.9346 50.2324 24.7638 50.369 24.559 50.4714C23.842 50.9153 23.7395 51.4274 23.8078 52.1786C24.0127 54.5345 24.1834 56.8904 24.3541 59.2122C24.7638 59.2122 25.4808 59.2463 25.9589 59.2463C26.0613 60.4413 26.1637 61.6364 26.2662 62.7631C24.798 62.6265 23.2957 62.5582 21.8616 62.4558ZM25.8564 58.5293C25.6174 58.5293 25.3784 58.5293 25.1394 58.5293C24.9687 56.5831 24.8321 54.6369 24.6614 52.6907C24.5931 52.042 24.798 51.5299 25.2077 51.1201C25.4126 53.3736 25.6516 55.9685 25.8564 58.5293ZM50.2008 50.7787C47.7425 51.5299 45.2158 52.1103 42.6892 52.4517C42.3819 52.4859 42.0405 52.52 41.7332 52.4517C39.5821 52.0762 37.4652 51.7347 35.3483 51.325C35.0752 51.2909 34.5972 51.1201 34.1533 50.9836C34.1533 50.9494 34.1533 50.9494 34.1533 50.9494C34.1192 50.9494 34.0509 50.9494 34.0167 50.9494C33.5729 50.847 33.129 50.7787 32.89 50.9494C32.89 51.1201 32.9924 51.2909 33.129 51.4274C33.129 51.7689 33.1632 52.1445 33.129 52.4859C33.0607 53.1346 32.9241 53.7492 32.8559 54.3979C32.7534 55.7295 32.6851 57.0611 32.5486 58.3586C32.3437 60.4413 32.1388 62.5241 31.934 64.5727C31.695 66.9628 31.456 69.3528 31.1487 71.7429C30.8755 73.6549 29.1684 74.7816 27.2563 74.5085C26.949 74.1329 27.5295 73.5525 27.0515 73.2452C26.0954 73.3817 26.71 74.8158 25.6174 74.7816C25.1053 74.0988 25.754 73.2793 25.1394 72.4257C24.8663 73.211 24.6614 73.7915 24.4224 74.4743C23.7054 73.3818 23.8078 72.2209 24.6614 71.4014C25.3101 70.7527 26.0613 70.2405 27.0173 70.0357C27.7002 69.8991 27.7685 69.6601 27.7002 69.0114C27.4612 67.0652 27.2563 65.119 27.0173 63.1387C26.9149 62.3875 26.8466 61.6364 27.5636 60.9876C27.0515 61.0218 26.7783 60.9193 26.949 60.5438C27.0515 60.3048 27.2563 60.0999 27.427 59.895C28.0758 59.1439 28.7586 58.4269 29.4415 57.6416C28.6221 58.3586 27.8368 59.0415 26.949 59.8268C26.8124 58.2561 26.6759 56.8904 26.5734 55.5247C26.5052 54.4662 26.5052 53.4419 26.5052 52.3835C26.5052 52.1445 25.754 47.2278 25.6857 47.0229C25.6174 46.7839 25.4809 46.6473 25.2077 46.7156C23.7737 44.4621 22.7152 42.0038 21.6568 39.5113C20.9056 37.7359 21.008 36.8481 22.3738 35.4141C22.5786 35.2092 22.6811 34.9361 22.8518 34.6971C22.2372 35.1751 21.6226 35.6531 20.9739 36.1653C20.8715 35.858 20.8032 35.619 20.7008 35.3458V35.38V35.3458C20.7008 35.3458 20.7007 35.3458 20.6666 35.3458C20.5983 35.0727 20.4959 34.8337 20.4276 34.5605C20.0862 32.8875 19.5399 31.3169 18.8229 29.7804C18.379 28.7903 18.4131 28.6195 19.4033 28.1415C19.8472 27.9367 20.4276 27.9025 20.7349 27.5952C21.3495 26.9806 22.0323 27.1172 22.7152 27.1514C23.842 27.1855 24.9346 27.0831 26.0271 26.6392C27.666 25.9222 28.5538 24.5223 28.3148 22.7468C28.2465 22.2688 28.1782 21.7908 28.144 21.3128C28.0758 20.4592 28.4513 19.9471 29.2708 19.7081C29.7488 19.5715 30.261 19.4691 30.8072 19.3325C31.7974 20.7665 32.7876 22.2005 33.7777 23.6687C32.651 25.0003 32.3778 26.5709 32.2413 28.1074C32.0364 30.2926 32.3437 32.3412 34.1533 33.9459C35.0752 34.7654 36.0312 35.5507 37.1238 36.1994C38.7627 37.1896 40.4357 38.2139 41.9722 39.3406C43.4404 40.4332 44.772 41.7307 46.1377 42.994C46.6157 43.4037 46.9913 43.95 47.3327 44.4963C48.2205 45.9303 49.1082 47.3644 49.9276 48.7984C50.2349 49.3447 50.6447 49.8568 50.6788 50.5397C50.5081 50.6421 50.3715 50.7446 50.2008 50.7787ZM102.679 9.56743C102.679 11.7526 101.689 13.7329 101.314 16.123C100.665 15.3377 100.187 14.7573 99.6407 14.1085C100.085 13.0159 100.563 11.9233 101.006 10.7966C101.245 10.182 101.484 9.53329 101.621 8.85041C101.758 8.26997 102.065 7.82611 102.543 7.55296C103.465 8.40655 103.465 8.9187 102.679 9.56743Z" fill="black"/>
<path d="M14.6594 16.1237C14.6594 16.2944 14.5229 16.4651 14.318 16.4651C14.1131 16.4651 13.9766 16.3285 13.9766 16.1237C13.9766 15.9188 14.1131 15.7822 14.318 15.7822C14.5229 15.7822 14.6594 15.9529 14.6594 16.1237Z" fill="white"/>
<path d="M1.23785 22.4068C1.2037 22.3044 1.2037 22.2361 1.2037 22.1337C1.2037 21.5874 1.511 21.0411 1.95486 20.768C2.02315 20.7338 2.05729 20.6314 2.02315 20.5289C1.98901 20.4607 1.88658 20.4265 1.78414 20.4607C1.2037 20.8021 0.828125 21.4508 0.828125 22.0996C0.828125 22.202 0.828125 22.3386 0.862269 22.441C0.896412 22.5434 0.964699 22.5776 1.06713 22.5776C1.2037 22.5776 1.27199 22.5093 1.23785 22.4068Z" fill="white"/>
<path d="M24.5542 46.3425C24.6907 46.4791 24.8273 46.6498 24.8615 46.8205C24.9639 47.1278 24.8956 47.5034 24.9639 47.8448C25.0663 48.4594 25.6468 48.9716 25.5443 49.5861C25.5102 49.8593 25.3395 50.0983 25.1688 50.3031C24.3834 51.4299 23.9737 52.7956 24.0079 54.1955C24.0079 54.6052 24.0762 55.015 23.9396 55.4247C23.8371 55.8344 23.4957 56.1758 23.086 56.21C22.4373 56.21 22.13 55.4588 21.9934 54.8442C21.6178 53.1371 21.3788 51.4299 21.5154 49.6886C21.5837 48.5618 21.8568 47.4009 22.3348 46.3766C23.1201 44.6012 23.4616 45.045 24.5542 46.3425Z" fill="#BCBCBB"/>
</svg>
