<svg width="62" height="71" viewBox="0 0 62 71" fill="none" xmlns="http://www.w3.org/2000/svg">
<path d="M61.8191 55.1282C61.8191 53.9685 61.6407 52.8089 60.7487 52.006C60.5703 50.5788 60.1242 49.2407 59.589 47.9026C59.0538 46.4754 58.6078 45.0481 57.9833 43.71C56.8237 40.9447 55.5748 38.2686 53.8799 35.7709C50.5794 30.7754 46.03 26.7612 41.7482 22.5687C40.8561 21.7658 40.0533 20.8738 39.1613 19.9817C38.626 19.4465 38.18 18.9113 37.6448 18.3761C36.7528 17.3056 35.8607 16.2352 35.0579 15.1647C34.9687 15.0755 34.7903 14.8971 34.7011 14.7187C33.1846 12.8454 31.7573 10.9721 30.5977 8.83121C29.9732 7.67156 29.2596 6.5119 28.546 5.17384C28.546 5.17384 28.546 5.08464 28.546 4.99543C28.8136 3.38976 28.1892 2.2301 26.7619 1.60567C26.4051 1.42727 26.0483 1.33806 25.6914 1.15965C25.2454 0.981245 24.7994 0.802837 24.3534 0.713633C23.2829 0.356816 22.1233 0.0892042 20.9636 0C20.1608 0 19.3579 0.0892035 18.8227 0.713633C18.6443 0.892041 18.4659 1.15965 18.3767 1.42727C18.2875 1.33806 18.2875 1.24886 18.1983 1.15965C17.8415 1.15965 17.3954 1.15965 17.0386 1.24886C16.6818 1.24886 16.325 1.33806 15.9682 1.33806C15.5222 1.42727 15.1653 1.87329 14.7193 2.05169C13.2029 2.67612 12.4892 4.01419 11.8648 5.44145C11.6864 5.88747 11.508 6.24429 11.4188 6.69031C11.1512 7.58235 10.5267 8.11758 9.63469 8.47439C9.36707 8.5636 9.01026 8.6528 8.74265 8.74201C7.49379 9.09882 6.15573 9.36644 4.90687 9.72325C3.83642 9.99086 2.76597 10.3477 1.69552 10.7045C0.714273 10.9721 0.0898438 11.6857 0.0898438 12.4886C0.268252 13.8266 0.357456 15.1647 0.803477 16.4136C1.16029 17.5732 1.87393 18.6437 2.40915 19.7141C2.67676 20.2493 3.21199 20.6062 3.83642 20.7846C4.46085 20.963 5.17448 21.0522 5.79891 20.963C7.93981 20.6062 9.9915 20.1601 12.1324 19.7141C13.2921 19.4465 14.3625 19.1789 15.5222 19.0005C16.4142 18.8221 18.3767 21.2306 18.4659 21.7658C18.8227 23.1039 19.1795 26.672 19.2687 28.0101C19.4471 30.2402 21.142 34.522 21.2312 34.6112C21.4096 35.1464 21.588 35.5925 21.8557 36.0385L22.3909 36.9305L22.6585 37.3765C22.6585 38.1794 22.6585 38.7146 22.6585 39.6959L22.5693 41.6583V42.0152V52.452V53.0765C22.5693 55.1282 22.5693 57.0907 22.5693 58.6963C22.3909 58.7855 22.2125 58.8747 22.0341 58.964C21.4988 59.3208 20.8744 59.6776 20.4284 60.1236C19.4471 61.0156 19.0903 62.2645 19.4471 63.4242C19.5363 63.6918 19.6256 64.0486 19.8932 64.1378C20.5176 64.4946 21.142 64.8514 21.7665 64.9406C22.1233 64.9406 22.4801 64.9406 22.8369 64.9406C22.6585 65.5651 22.6585 66.1895 22.9261 66.8139C23.0153 67.0815 23.1937 67.4383 23.4613 67.5275C24.175 67.7952 24.9778 68.152 25.6914 68.152C26.6727 68.152 27.5647 67.9736 28.4568 67.7059C29.1704 68.3304 30.2408 68.598 31.1329 68.152C31.7573 67.8844 32.3817 67.4383 32.8278 66.9923C33.2738 66.4571 33.7198 66.2787 34.3442 66.1895C34.7011 66.1003 35.1471 66.1003 35.5039 66.1003C36.9312 66.1895 38.4476 66.2787 39.8749 66.4571C40.6777 66.5463 41.4806 66.8139 42.105 66.9923L42.4618 67.0815C42.6402 67.3491 42.8186 67.5275 42.997 67.7952C43.2647 68.0628 43.5323 68.2412 43.8891 68.4196C44.7811 68.9548 45.6732 69.3116 46.6544 69.5792C47.368 69.7577 48.0817 69.9361 48.7953 70.0253C49.8658 70.1145 50.7578 69.8468 51.739 69.49C53.5231 68.7764 55.218 67.8844 56.8237 66.7247C58.8754 65.2082 60.2134 63.2458 61.0163 60.9264C61.1947 60.4804 61.1947 60.0344 61.2839 59.5884C61.2839 59.4992 61.2839 59.41 61.2839 59.3208C61.9975 57.9827 61.8191 56.5554 61.8191 55.1282ZM32.2925 59.856C32.5602 56.5554 32.8278 53.1657 33.0954 49.8651C33.5414 50.4896 33.8982 51.114 34.3442 51.7384C35.0579 52.8981 35.6823 54.0577 36.3959 55.1282C37.1988 56.2878 38.18 57.3583 39.1613 58.3395C39.7857 59.0531 40.4993 59.6776 41.3022 60.2128C40.2317 60.2128 38.3584 60.2128 36.9312 60.302C36.7528 60.302 36.5743 60.302 36.3067 60.3912C35.7715 60.3912 35.2363 60.3912 34.7011 60.4804C34.1658 60.5696 33.6306 60.748 33.0954 60.9264C32.7386 61.0156 32.3817 61.1049 32.0249 61.1941C32.2033 60.748 32.2033 60.302 32.2925 59.856Z" fill="white"/>
<path d="M22.8359 40.5888C22.9251 41.3024 23.1035 42.016 23.282 42.7297C23.5496 43.6217 23.728 44.6029 24.0848 45.495C24.4416 46.4762 24.7984 47.3683 24.9768 48.3495C25.1552 49.5092 25.1552 50.6688 25.2445 51.8285C25.3337 52.9881 25.5121 54.237 26.2257 55.129C26.1365 53.791 26.0473 52.5421 25.9581 51.2041C25.8689 49.6876 25.8689 48.0819 25.6905 46.5654C25.6013 45.3166 25.4229 44.1569 25.2445 42.9081C25.066 41.9268 24.9768 40.8564 24.7984 39.8751C24.7984 39.6967 24.7092 39.5183 24.7092 39.4291C24.62 39.3399 24.5308 39.1615 24.4416 39.0723C23.9956 38.6263 23.5496 38.091 23.1035 37.645C23.0143 37.5558 23.0143 37.5558 23.0143 37.645C23.0143 37.7342 23.0143 37.8234 23.0143 37.9126C23.0143 38.091 23.0143 38.2695 22.9251 38.3587C22.9251 38.7155 22.8359 38.9831 22.8359 39.3399C22.8359 39.8751 22.8359 40.2319 22.8359 40.5888Z" fill="#BCBCBB"/>
<path d="M33.4531 43.6211C34.5235 47.0109 36.5752 49.9546 39.3405 52.0955C39.4297 52.1847 39.6081 52.2739 39.6973 52.2739C39.7865 52.2739 39.8758 52.1847 39.8758 52.0955C40.2326 51.6495 40.5894 51.2034 40.857 50.7574C41.0354 50.4006 41.2138 50.0438 41.3922 49.7762C41.5706 49.5086 41.9274 49.1517 42.2843 49.0625C42.0166 50.579 41.6598 52.0063 41.749 53.5228C41.8382 55.8421 42.6411 57.983 42.5519 60.3023C42.0167 59.9455 41.303 59.767 40.7678 59.4994C40.3218 59.2318 40.0542 58.9642 39.6973 58.6074C39.2513 58.1614 38.8053 57.6261 38.3593 57.0909C37.5564 56.1989 36.7536 55.3068 36.1292 54.2364C35.0587 52.6307 34.2559 50.9358 33.0962 49.4194C33.007 49.241 32.8286 49.1518 32.8286 48.9733C32.7394 48.7057 32.7394 48.5273 32.8286 48.2597C33.007 46.8324 33.1854 45.316 33.3638 43.8887C33.3638 43.7995 33.4531 43.7103 33.4531 43.6211Z" fill="#BCBCBB"/>
<path d="M18.7315 8.38438C18.8207 9.00881 18.9991 9.63324 18.9991 10.2577C18.9991 10.7037 18.9099 11.1497 18.7315 11.5957C18.553 12.2202 18.3746 12.9338 18.2854 13.5582C18.1962 13.915 18.107 14.2719 17.9286 14.5395C17.7502 14.8071 17.3934 15.0747 17.0366 14.9855C16.3229 14.8963 16.1445 14.0042 16.1445 13.3798C16.0553 11.3281 16.0553 9.27642 16.2337 7.31393C16.3229 6.51109 16.769 2.94293 18.2854 3.74576C18.8207 4.10258 18.553 7.58154 18.7315 8.38438Z" fill="#BCBCBB"/>
<path d="M39.249 19.9825C39.249 20.0717 39.249 20.1609 39.1597 20.2501C39.0705 20.4285 38.8921 20.4285 38.7137 20.5177H38.6245C36.662 20.7853 34.6995 20.5177 32.9155 19.7149C32.737 19.6257 32.4694 19.5365 32.291 19.4473C30.5962 18.5552 29.1689 17.3064 28.1876 15.7899C28.0092 15.5223 27.92 15.3439 27.7416 15.0763C27.7416 14.6302 27.7416 14.1842 27.6524 13.649C27.5632 13.0246 27.3848 12.3109 27.2956 11.6865C27.2064 11.4189 27.1172 11.0621 27.1172 10.7945C27.2064 10.17 27.2956 9.6348 27.2956 9.01038C27.2956 8.20754 26.9388 6.69107 27.7416 6.06664C29.4365 4.72858 30.6854 9.18879 31.0422 10.17C31.399 11.0621 32.1126 11.6865 32.6478 12.4893C33.2723 13.4706 33.8075 14.3626 34.6103 15.1655L34.6995 15.2547C34.7887 15.3439 34.9672 15.4331 35.0564 15.6115C36.0376 16.5927 36.8404 17.574 37.9109 18.466C38.1785 18.912 38.7137 19.4473 39.249 19.9825Z" fill="#BCBCBB"/>
<path d="M29.7954 31.6665C29.3493 30.0608 28.8141 28.4551 28.6357 26.7603C28.1897 22.8353 29.1709 16.9478 31.1334 13.3796C31.2226 13.2012 31.2226 13.0228 31.3118 12.8444C31.2226 12.7552 31.1334 12.7552 31.0442 12.666C30.8658 12.8444 30.5982 13.0228 30.509 13.2012C29.7954 14.1825 29.5278 15.3421 29.1709 16.5018C28.7249 17.7507 28.5465 18.9995 28.3681 20.3376C27.9221 23.6381 28.2789 28.9012 29.2601 32.0233C29.7954 33.7182 30.3306 35.5023 30.4198 37.2864C30.5982 39.6949 30.2414 42.0142 28.0113 43.5306C27.6545 43.7983 27.2977 44.0659 27.03 44.4227C26.7624 44.6903 26.584 44.9579 26.3164 45.3147C27.8329 44.6903 29.0817 43.8875 30.2414 42.817C30.7766 42.371 30.955 41.7466 31.0442 41.0329C31.0442 40.4085 31.2226 39.8733 31.2226 39.2488C31.2226 38.446 31.401 37.6432 31.2226 36.8403C30.6874 35.0563 30.2414 33.3614 29.7954 31.6665Z" fill="#020203"/>
<path d="M21.4962 26.9401C21.407 26.9401 21.3178 26.8509 21.3178 26.7617C21.0502 27.2969 20.6934 27.743 20.4258 28.2782C21.2286 28.189 21.0502 27.2969 21.4962 26.9401Z" fill="#020203"/>
<path d="M22.8374 25.0664C22.5697 25.4232 22.2129 25.78 21.9453 26.1369L22.0345 26.2261C22.3913 25.8692 22.6589 25.6016 23.0158 25.2448C22.9266 25.1556 22.9266 25.0664 22.8374 25.0664Z" fill="#020203"/>
<path d="M23.28 26.7617C23.0124 27.0293 22.834 27.2969 22.5664 27.5646C23.0124 27.5646 23.1908 27.2077 23.28 26.7617Z" fill="#020203"/>
<path d="M28.9018 48.8828C28.3666 49.3288 28.0098 49.6856 27.7422 49.9533C28.099 49.6856 28.8126 49.6856 28.9018 48.8828Z" fill="#020203"/>
<path d="M28.1875 52.6303L28.2767 52.7195C28.4551 52.5411 28.6335 52.3627 28.8119 52.1843C28.8119 52.0951 28.7227 52.0951 28.7227 52.0059C28.5443 52.2735 28.3659 52.4519 28.1875 52.6303Z" fill="#020203"/>
<path d="M14.4506 6.24398C14.0046 6.33318 13.5586 6.8684 13.5586 7.40363C13.5586 7.93885 13.8262 8.47408 14.2722 8.65249C15.0751 9.0093 15.6103 8.74169 15.6103 7.58204C15.6103 7.40363 15.5211 7.04681 15.4319 6.69C15.2535 6.24398 14.8967 6.15477 14.4506 6.24398Z" fill="#020203"/>
<path d="M14.8966 4.54883C14.5398 4.54883 14.2722 4.54883 14.0938 5.08405C14.629 5.35167 15.1642 5.35167 15.8778 5.26246C15.6102 4.72724 15.2534 4.54883 14.8966 4.54883Z" fill="#020203"/>
<path d="M5.53125 17.5743C6.15568 17.5743 6.15568 17.5743 6.06648 17.0391C5.79886 17.2175 5.62045 17.3959 5.53125 17.5743Z" fill="#020203"/>
<path d="M5.7963 15.3425C5.7963 15.3425 5.7071 15.1641 5.52869 14.8965C5.35028 15.1641 5.26108 15.2533 5.17188 15.4317C5.17188 15.5209 5.35028 15.6993 5.35028 15.6993C5.52869 15.5209 5.7071 15.4317 5.7963 15.3425Z" fill="#020203"/>
<path d="M6.60156 15.252C6.60156 15.252 6.69077 15.4304 6.69077 15.5196C6.86918 15.4304 6.95838 15.3412 7.13679 15.1628C7.13679 15.0736 7.04758 15.0736 7.04758 14.9844C6.95838 15.1628 6.77997 15.1628 6.60156 15.252Z" fill="#020203"/>
<path d="M21.1401 10.5261C21.1401 10.4369 21.1401 10.4369 21.1401 10.3477C20.9616 10.4369 20.694 10.5261 20.5156 10.6153C20.5156 10.6153 20.5156 10.7045 20.6048 10.7937C20.7832 10.7045 20.9616 10.6153 21.1401 10.5261Z" fill="#020203"/>
<path d="M14.7175 7.13611C14.7175 7.31452 14.5391 7.49293 14.3607 7.49293C14.1823 7.49293 14.0039 7.31452 14.0039 7.13611C14.0039 6.95771 14.1823 6.7793 14.3607 6.7793C14.5391 6.7793 14.7175 6.95771 14.7175 7.13611Z" fill="white"/>
<path d="M1.42777 13.3805C1.42777 13.2913 1.42777 13.2021 1.42777 13.1128C1.42777 12.5776 1.69538 12.0424 2.23061 11.7748C2.31981 11.6856 2.31981 11.5964 2.31981 11.5072C2.23061 11.418 2.1414 11.418 2.0522 11.418C1.51697 11.7748 1.16016 12.3992 1.16016 13.0236C1.16016 13.1128 1.16016 13.2913 1.16016 13.3805C1.16016 13.4697 1.24936 13.5589 1.33857 13.5589C1.42777 13.5589 1.42777 13.4697 1.42777 13.3805Z" fill="white"/>
<path d="M47.9026 37.5536C47.3674 36.6616 46.6538 35.7696 45.7617 35.0559C44.8697 34.3423 44.0668 33.5394 43.1748 32.8258C42.372 32.1122 41.4799 31.4877 40.5879 30.8633C39.2498 29.9713 37.9118 29.1684 36.4845 28.3656C33.9868 26.7599 32.5595 23.0134 32.7379 19.7128C32.7379 19.4452 32.7379 19.1776 32.8271 18.91C32.8271 18.7316 32.8271 18.5532 32.8271 18.4639C33.0947 17.3935 33.1839 16.2338 34.076 15.5202C34.2544 15.6094 34.3436 15.7878 34.522 15.877L34.6112 15.9662C34.6112 15.9662 34.6112 15.9662 34.6112 15.877C34.6112 15.7878 34.7004 15.6986 34.7004 15.6094C34.7896 15.431 34.8788 15.3418 34.968 15.2526C34.8788 15.1634 34.7004 14.985 34.6112 14.8066C33.0947 12.9333 31.6675 11.06 30.5078 8.9191C29.8834 7.75945 29.1698 6.59979 28.4561 5.26173C28.4561 5.26173 28.4561 5.17253 28.4561 5.08332C28.7237 3.47765 28.0993 2.318 26.672 1.69357C26.3152 1.51516 25.9584 1.42595 25.6016 1.24755C24.0851 0.712321 22.4794 0.177095 20.8738 0.0878906C20.0709 0.0878906 19.2681 0.177096 18.7329 0.801525C18.5545 0.979933 18.3761 1.24754 18.2868 1.51516C18.1976 1.42595 18.1976 1.33675 18.1084 1.24755C17.3948 1.33675 16.592 1.24754 15.8783 1.42595C15.4323 1.51516 15.0755 1.96118 14.6295 2.13959C13.113 2.76402 12.3994 4.10208 11.7749 5.52934C11.5965 5.97536 11.4181 6.33218 11.3289 6.7782C11.0613 7.67024 10.4369 8.20547 9.54484 8.56228C9.27723 8.65149 8.92041 8.74069 8.6528 8.8299C7.40394 9.18671 6.06588 9.45433 4.81702 9.81114C3.74657 10.0788 2.67612 10.4356 1.60567 10.7924C0.624429 11.06 0 11.7736 0 12.5765C0.178408 13.9145 0.267613 15.2526 0.713633 16.5015C1.07045 17.6611 1.78408 18.7316 2.31931 19.802C2.58692 20.3372 3.12215 20.694 3.74657 20.8725C4.371 21.0509 5.08464 21.1401 5.70907 21.0509C7.84997 20.694 9.90166 20.248 12.0426 19.802C13.2022 19.5344 14.2727 19.2668 15.4323 19.0884C16.3244 18.91 18.2868 21.3185 18.3761 21.8537C18.7329 23.1918 19.0897 26.7599 19.1789 28.098C19.3573 30.3281 21.0522 34.6099 21.1414 34.6991C21.3198 35.2343 21.4982 35.6803 21.7658 36.1264L22.301 37.0184L22.5686 37.4644C22.7471 37.6428 22.8363 37.9104 23.0147 38.0889C23.3715 38.6241 23.8175 39.0701 24.1743 39.6053C24.2635 39.6945 24.3527 39.7837 24.4419 39.7837C24.5311 40.6758 24.5311 41.657 24.6203 42.7275L24.7988 44.4224L25.0664 47.9905V48.0797L25.334 51.3803L25.4232 52.0939C25.5124 52.7183 25.5124 53.432 25.6016 54.0564L25.78 56.2865C25.8692 57.803 26.0476 59.2302 26.1368 60.4791C26.1368 61.0143 26.226 61.5495 26.226 61.9956C26.0476 62.0848 25.9584 62.0848 25.78 62.174C25.6908 62.174 25.6016 62.2632 25.6016 62.2632C24.9772 62.7092 24.2635 62.9768 23.7283 63.512C23.4607 63.6905 23.2823 63.9581 23.1039 64.1365C22.9255 64.4041 22.7471 64.7609 22.6579 65.0285C22.4794 65.6529 22.4794 66.2774 22.7471 66.9018C22.8363 67.1694 23.0147 67.5262 23.2823 67.6154C23.9959 67.883 24.7988 68.2399 25.5124 68.2399C26.4936 68.2399 27.3857 68.0614 28.2777 67.7938C28.6345 67.7046 28.9913 67.5262 29.3482 67.3478C29.259 67.2586 29.1698 67.2586 29.0806 67.1694C28.9913 67.0802 28.9021 66.9018 28.8129 66.8126C28.5453 66.991 28.1885 67.0802 27.8317 67.1694C27.4749 67.2586 27.1181 67.2586 26.672 67.1694C26.4044 66.8126 26.9397 66.1882 26.4936 65.9206C25.5124 66.0098 26.1368 67.437 25.0664 67.437C24.5311 66.8126 25.2448 65.9205 24.5311 65.1177C24.2635 65.9205 24.0851 66.4558 23.8175 67.1694C23.2823 66.3666 23.1931 65.4745 23.5499 64.7609C23.6391 64.4933 23.8175 64.3149 23.9959 64.0473C24.6203 63.4228 25.4232 62.8876 26.3152 62.7092C26.4044 62.7092 26.4936 62.7092 26.4936 62.62C26.9397 62.4416 27.0289 62.2632 26.9397 61.6388C26.8505 61.1927 26.8504 60.6575 26.7612 60.2115C26.672 59.141 26.4936 58.1598 26.4044 57.0893C26.3152 56.6433 26.3152 56.2865 26.226 55.8405C26.1368 55.1269 26.0476 54.324 26.7612 53.6996C26.226 53.6996 25.9584 53.6104 26.1368 53.2536C26.226 52.986 26.4044 52.8075 26.5828 52.6291C26.7612 52.4507 26.9397 52.2723 27.1181 52.0939C27.3857 51.7371 27.6533 51.4695 28.0101 51.1127C28.1885 50.8451 28.4561 50.6666 28.6345 50.399C28.4561 50.5774 28.1885 50.7558 28.0101 50.9343C27.7425 51.2019 27.4749 51.3803 27.2073 51.6479C26.8504 51.9155 26.4936 52.2723 26.1368 52.5399C26.0476 51.0235 25.8692 49.5962 25.78 48.2581C26.1368 47.2769 26.1368 46.2064 26.1368 45.2252C26.1368 44.9576 25.334 40.1406 25.334 39.8729C25.2448 39.6053 25.1556 39.5161 24.888 39.6053C23.4607 37.3752 22.3902 34.8775 21.409 32.469C20.6062 30.6849 20.7846 29.8821 22.1226 28.3656C22.301 28.1872 22.4794 27.9196 22.5686 27.652C21.9442 28.098 21.3198 28.6332 20.6954 29.0792C20.6062 28.8116 20.517 28.544 20.4277 28.2764C20.3385 28.0088 20.2493 27.7412 20.1601 27.4736C19.8033 25.8679 19.6249 22.2105 18.9113 20.694C18.4653 19.7128 18.4653 19.5344 19.4465 19.0884C19.8925 18.91 20.4277 18.8208 20.7846 18.5531C21.409 17.9287 22.1226 18.1071 22.7471 18.1071C23.9067 18.1963 24.9772 18.0179 26.0476 17.5719C27.0289 17.1259 27.7425 16.5015 28.0993 15.6094C28.3669 15.0742 28.3669 14.3606 28.3669 13.7361C28.2777 13.2901 28.1885 12.7549 28.1885 12.3089C28.0993 11.506 28.4561 10.9708 29.259 10.7032C29.705 10.5248 30.2402 10.4356 30.7754 10.3464C31.7567 11.7736 32.7379 13.2009 33.7192 14.6282C32.5595 15.9662 32.3811 17.4827 32.2027 18.9992C32.2027 19.0884 32.2027 19.1776 32.2027 19.2668C32.0243 21.4969 32.0243 25.3327 33.8084 26.8491C34.7004 27.652 35.6817 28.4548 36.7521 29.0792C38.3578 30.0605 40.0527 31.0417 41.5691 32.2014C42.9964 33.2718 44.3345 34.6099 45.6725 35.8588C46.1185 36.3048 46.5646 36.84 46.8322 37.3752C47.7242 38.8025 48.6163 40.2298 49.4191 41.657C49.6867 42.103 50.0435 42.5491 50.1327 43.0843C50.2219 42.9951 50.4003 42.9951 50.4896 42.9059C50.2219 40.8542 48.9731 39.2485 47.9026 37.5536ZM17.6624 18.9992C17.1272 17.7503 16.8596 17.6611 15.6107 17.9287C14.5403 18.1963 13.4698 18.3747 12.3102 18.6424C12.3102 18.2855 12.3102 18.1071 12.3102 17.8395C12.4886 16.323 11.9534 15.2526 10.7045 14.539C9.09882 13.6469 8.92041 13.0225 9.54484 11.3276C9.72325 10.9708 9.81246 10.614 9.99086 10.2572C9.99086 10.168 9.90166 10.0788 9.90166 9.98955C9.72325 10.0788 9.54484 10.168 9.45564 10.2572C9.18803 10.7924 8.92042 11.4168 8.83121 12.0412C8.47439 13.8253 8.6528 14.0929 10.1693 14.985C10.6153 15.2526 11.0613 15.6094 11.4181 16.0554C11.9534 16.5907 12.0426 17.3043 11.7749 18.1071C11.5965 18.5531 11.4181 18.91 10.8829 18.9992C9.18803 19.2668 7.40394 19.7128 5.70907 19.8912C4.1926 20.0696 3.92498 19.7128 3.30055 18.1963C3.21135 17.9287 3.21135 17.6611 3.12215 17.3935C2.94374 16.323 2.94374 16.323 1.78408 16.4122C3.03294 15.431 3.38976 14.0037 4.01419 12.6657C4.2818 12.1305 4.371 11.5952 3.74657 11.06C4.2818 10.8816 4.72782 10.614 5.17384 10.5248C6.5119 10.168 7.84997 9.81114 9.18803 9.45433C9.63405 9.36512 10.0801 9.09751 10.5261 8.9191C11.4181 8.56229 12.0426 7.93786 12.3102 6.95661C12.4886 6.33218 12.8454 5.70775 13.0238 5.08332C13.3806 4.01287 14.0943 3.29924 15.0755 2.85322C15.9675 2.4072 16.8596 1.60436 18.1084 2.05038C18.1084 2.13959 18.1976 2.22879 18.1084 2.22879C17.7516 3.56685 18.1976 4.90492 18.3761 6.24298C18.6437 8.11627 18.1976 9.81114 17.6624 11.506C17.484 12.2197 17.3056 12.9333 17.1272 13.7361C16.7704 15.3418 17.5732 16.323 19.0005 17.1259C19.4465 17.3935 19.8925 17.5719 20.4277 17.8395C19.6249 18.6424 18.4653 18.3747 17.6624 18.9992ZM24.7988 17.3935C22.7471 17.8395 20.8738 17.3043 19.0897 16.2338C17.8408 15.5202 17.484 14.2714 18.5545 12.6657C18.7329 12.3089 19.0005 12.0412 19.2681 11.6844C19.0005 11.8628 18.7329 12.0412 18.2868 12.3089C18.7329 10.3464 19.2681 8.65149 19.0897 6.86741C19.0897 6.33218 19.0005 5.79696 18.9113 5.35094C18.7329 4.4589 18.7329 3.65606 18.9113 2.76401C19.1789 1.51516 19.9817 0.712321 21.3198 0.801525C23.3715 0.890729 25.334 1.60436 27.1181 2.58561C28.1885 3.21004 28.4561 4.28049 27.7425 5.44014C26.9397 6.86741 26.5828 8.29467 26.8504 9.90035C26.9397 10.168 26.9397 10.5248 27.0289 10.7924C27.1181 11.06 27.2073 11.3276 27.2073 11.6844C27.3857 12.3089 27.4749 13.0225 27.5641 13.6469C27.6533 14.1821 27.6533 14.6282 27.6533 15.0742C27.5641 16.323 26.5828 17.0367 24.7988 17.3935ZM27.7425 10.4356C27.1181 8.9191 27.4749 7.49183 28.3669 5.88616C29.3482 7.22422 29.8834 8.56228 30.597 9.90035C29.5266 10.0788 28.6345 10.2572 27.7425 10.4356ZM33.5408 45.136C33.4516 44.9576 33.3624 44.8684 33.2731 44.69C33.0947 44.3331 33.0947 43.9763 33.1839 43.7087C32.9163 43.7087 32.6487 43.7087 32.5595 43.7979C32.5595 43.9763 32.6487 44.1547 32.8271 44.2439C32.8271 44.6008 32.8271 44.9576 32.8271 45.3144C32.7379 45.9388 32.6487 46.5632 32.5595 47.1877C32.4703 48.5257 32.3811 49.7746 32.2919 51.1127C32.1135 53.1644 31.8459 55.2161 31.6675 57.2678C31.4891 58.695 31.3999 60.0331 31.2215 61.4603C31.2215 61.8172 31.1322 62.0848 31.1322 62.4416C31.4891 62.2632 31.8459 62.0848 32.2027 61.9956C32.2027 61.7279 32.2919 61.4603 32.2919 61.1035C32.3811 60.6575 32.3811 60.2115 32.3811 59.7655C32.7379 55.9297 33.0055 52.0939 33.3624 48.1689C33.2731 47.2769 33.4516 46.2064 33.5408 45.136Z" fill="#020203"/>
<path d="M27.1199 60.3003C27.0307 60.6571 27.0307 61.1031 26.9415 61.46C26.8523 61.906 26.8523 62.2628 26.8523 62.7088C26.7631 62.7088 26.7631 62.7088 26.6739 62.798C25.6927 62.9764 24.979 63.5116 24.3546 64.1361C24.1762 64.3145 23.9978 64.5821 23.9086 64.8497C23.5518 64.9389 23.2842 65.0281 22.9273 65.0281C22.5705 65.0281 22.2137 65.1173 21.8569 65.0281C21.2325 65.0281 20.608 64.5821 19.9836 64.2253C19.8052 64.1361 19.6268 63.7793 19.5376 63.5117C19.1808 62.2628 19.5376 61.0139 20.5188 60.2111C21.054 59.7651 21.5893 59.4083 22.1245 59.0514C22.3029 58.9622 22.4813 58.873 22.6597 58.7838C22.6597 57.1782 22.6597 55.2157 22.6597 53.164V42.1027V41.7458L22.7489 39.7833C22.7489 38.8021 22.7489 38.2669 22.7489 37.464V37.1072V36.8396C23.0165 36.7504 23.1057 36.9288 23.1057 37.1964C23.1057 37.2856 23.1057 37.6424 23.1949 38.1777C23.2842 39.6941 23.2842 42.2811 23.2842 42.4595C23.2842 43.4407 23.3734 44.5112 23.3734 45.4924C23.3734 46.8305 23.3734 48.1685 23.3734 49.685C24.087 49.0606 24.6222 48.5254 25.2466 47.9901C25.3358 47.9009 25.4251 47.8117 25.6035 47.7225C25.5143 47.8117 25.4251 47.9901 25.2466 48.0793C24.7114 48.7038 24.2654 49.239 23.7302 49.7742C23.5518 49.9526 23.3734 50.131 23.2842 50.3986C23.1057 50.7555 23.3734 50.8447 23.7302 50.8447C23.1057 51.4691 23.1057 52.1827 23.1949 52.8964C23.2842 54.7696 23.2842 56.7321 23.3734 58.6054C23.3734 59.2299 23.2842 59.4083 22.7489 59.5867C21.9461 59.7651 21.3217 60.2111 20.6972 60.8355C19.9836 61.6384 19.8052 62.7088 20.3404 63.7793C20.608 63.1548 20.7864 62.5304 21.054 61.8168C21.5001 62.7088 20.9648 63.4224 21.3217 64.1361C22.2137 64.2253 21.7677 62.798 22.5705 62.7088C22.9273 63.0656 22.3921 63.5117 22.6597 63.9577C22.8381 63.9577 23.0165 64.0469 23.1949 64.0469C24.3546 64.1361 25.4251 63.3332 25.8711 61.9952C25.9603 61.8168 25.9603 61.6384 26.0495 61.46C26.1387 61.1031 26.2279 60.6571 26.2279 60.3003C26.4063 59.2299 26.5847 58.1594 26.7631 57.1782C26.9415 58.2486 27.0307 59.2299 27.1199 60.3003Z" fill="#020203"/>
<path d="M28.4545 50.9355C28.4545 51.0248 28.4545 51.0247 28.4545 51.114C28.1869 51.4708 27.9193 51.7384 27.5625 52.0952C27.5625 51.9168 27.5625 51.8276 27.6517 51.6492C27.9193 51.4708 28.1869 51.2032 28.4545 50.9355Z" fill="#020203"/>
<path d="M60.7493 52.1841C60.7493 52.6301 60.0357 52.6301 59.9465 52.1841C59.7681 50.4892 59.1436 48.9727 58.5192 47.3671C57.8948 45.7614 57.3596 44.2449 56.7351 42.6392C55.5755 39.9631 54.1482 37.287 52.4533 34.8785C50.7585 32.47 48.7068 30.2399 46.5659 28.1882C43.9789 25.6012 41.2136 23.1035 38.6267 20.4274C37.1994 18.9109 35.8614 17.3945 34.7017 15.7888C34.6125 15.6996 34.5233 15.6104 34.4341 15.432C34.3449 15.2536 34.3449 15.1644 34.4341 15.0751C34.6125 14.8967 34.8801 14.8075 35.0585 15.0751C35.0585 15.0751 35.0585 15.0752 35.0585 15.1644C35.8614 16.324 36.7534 17.3945 37.6454 18.3757C38.0915 18.9109 38.6267 19.4462 39.1619 19.9814C39.9647 20.8734 40.8568 21.7655 41.7488 22.5683C46.0306 26.7609 50.58 30.6859 53.8806 35.7705C55.4863 38.2682 56.8243 40.9444 57.984 43.7097C58.5192 45.1369 59.0544 46.475 59.5897 47.9023C60.1249 49.2403 60.5709 50.6676 60.7493 52.1841Z" fill="#020203"/>
<path d="M54.0577 46.4747C52.5412 45.4043 50.5787 45.0474 48.7946 44.6014C47.9026 44.423 46.9213 44.3338 46.0293 44.6906C45.2265 44.9582 44.602 45.4935 43.9776 46.1179C43.71 46.3855 44.0668 46.7423 44.3344 46.4747C44.8696 45.9395 45.4941 45.4043 46.2969 45.1366C47.2781 44.7798 48.1702 45.0474 49.1514 45.2259C50.7571 45.5827 52.452 45.9395 53.79 46.9207C54.0577 47.0991 54.3253 46.6531 54.0577 46.4747Z" fill="#020203"/>
<path d="M32.4714 48.8852C33.0958 49.7772 33.7202 50.7585 34.3447 51.6505C35.0583 52.8102 35.6827 53.9698 36.3964 55.0403C37.1992 56.1999 38.1804 57.2704 39.1617 58.2516C39.9645 59.1437 40.9458 59.9465 42.1054 60.4817C42.4622 60.6601 42.6406 60.0357 42.2838 59.8573C41.1242 59.4113 40.2321 58.43 39.3401 57.538C38.4481 56.4675 37.4668 55.4863 36.664 54.3266C36.0395 53.3454 35.4151 52.2749 34.7907 51.2045C34.1663 50.3125 33.631 49.4204 33.0066 48.5284C32.739 48.2608 32.2038 48.6176 32.4714 48.8852Z" fill="#020203"/>
<path d="M33.6284 44.422C33.6284 44.1544 33.6284 43.8868 33.5392 43.6192C33.5392 43.53 33.45 43.53 33.45 43.4408C33.2716 43.2624 33.004 43.2624 32.8256 43.3516C32.7364 43.3516 32.6472 43.4408 32.558 43.53C32.4688 43.6192 32.4688 43.7084 32.4688 43.7976C32.4688 43.8868 32.558 43.976 32.6472 44.0652C32.7364 44.2436 32.8256 44.422 32.8256 44.5112C32.9148 44.6896 32.9148 44.868 33.004 44.9572C33.004 45.0464 33.004 45.0464 33.0932 45.1356C33.1824 45.2249 33.2716 45.1356 33.2716 45.1356C33.3608 45.1356 33.3608 45.1356 33.45 45.1356C33.5392 45.1356 33.5392 45.0464 33.5392 44.9572C33.5392 44.868 33.5392 44.7788 33.5392 44.6896C33.6284 44.6896 33.6284 44.5112 33.6284 44.422Z" fill="#020203"/>
<path d="M51.2932 67.4377C51.1148 67.2593 50.8472 67.0809 50.6688 66.9025C50.5796 66.8133 50.4012 66.8133 50.2228 66.7241C50.0444 66.7241 49.9552 66.6348 49.866 66.5456C49.7767 66.5456 49.5983 66.5456 49.5091 66.5456C49.4199 66.5456 49.3307 66.5456 49.3307 66.5456C49.5091 66.9025 49.8659 67.1701 50.4012 67.3485C50.4904 67.3485 50.5796 67.4377 50.6688 67.4377C50.758 67.4377 50.9364 67.4377 51.0256 67.4377C51.1148 67.5269 51.2932 67.5269 51.2932 67.4377C51.2932 67.5269 51.2932 67.4377 51.2932 67.4377ZM52.7205 63.4235C52.6313 63.5127 52.5421 63.6911 52.4529 63.7803C52.5421 63.6911 52.6313 63.6019 52.7205 63.5127V63.4235ZM46.387 58.6065C47.0114 57.09 46.6546 56.2872 45.2273 55.3951C44.3353 54.7707 43.354 54.2355 42.1944 54.3247C42.1944 54.1463 42.1052 54.0571 42.1052 53.8787C42.1052 53.611 42.1052 53.4326 42.1052 53.165C42.1944 50.6673 42.8188 48.348 44.4245 46.3855C44.5137 46.2071 44.6029 46.0287 44.6921 45.6719C44.4245 45.7611 44.3353 45.8503 44.2461 45.8503C44.0677 46.0287 43.8893 46.2071 43.7109 46.4747C42.462 48.2588 41.7484 50.2213 41.4808 52.3622C41.3024 53.611 41.4808 54.8599 41.6592 56.0196C41.8376 57.3576 42.1052 58.6957 42.3728 60.1229C42.3728 60.1229 39.2507 60.1229 37.0206 60.2121C36.8421 60.2121 36.6637 60.2122 36.3961 60.3014C35.8609 60.3014 35.3257 60.3014 34.7905 60.3906C34.2552 60.4798 33.72 60.6582 33.1848 60.8366C32.828 60.9258 32.4711 61.015 32.1143 61.1042C31.7575 61.1934 31.4007 61.3718 31.0439 61.461C30.4194 61.7286 29.795 62.0854 29.1706 62.4422C28.457 62.9775 27.9217 63.6019 27.8325 64.4939C27.7433 65.1184 27.7433 65.832 27.8325 66.4564C27.8325 66.724 27.9217 66.9917 28.1001 67.1701C28.1893 67.4377 28.3678 67.6161 28.5462 67.7945C29.2598 68.4189 30.3302 68.6865 31.2223 68.2405C31.8467 67.9729 32.4711 67.5269 32.9172 67.0809C33.3632 66.5456 33.8092 66.3672 34.4336 66.278C34.7904 66.1888 35.2365 66.1888 35.5933 66.1888C37.0206 66.278 38.537 66.3672 39.9643 66.5456C40.7671 66.6348 41.57 66.9025 42.1944 67.0809L42.5512 67.1701L43.1756 67.2593C42.9972 67.0809 42.908 66.8133 42.7296 66.5456C42.6404 66.3672 42.5512 66.1888 42.462 65.9212C42.3728 65.9212 42.1944 65.9212 42.1052 65.832C42.016 65.832 41.9268 65.832 41.9268 65.832C38.6262 65.4752 35.3257 65.2076 32.0251 65.7428C31.8467 66.0996 31.6683 66.5456 31.4899 66.9025C31.1331 67.5269 30.1518 67.7945 29.4382 67.4377C29.349 67.3485 29.2598 67.3485 29.1706 67.2593C29.0814 67.1701 28.9922 66.9917 28.903 66.9025C28.903 66.724 28.903 66.4564 29.0814 66.278C29.2598 65.832 29.5274 65.386 29.7058 64.94C29.0814 64.3155 29.0814 65.2968 28.5462 65.2968C28.903 64.2263 29.349 63.4235 30.241 62.8883C30.4194 62.7991 30.6871 62.6207 30.8655 62.5315C31.2223 62.3531 31.5791 62.1746 31.9359 62.0854C32.3819 61.907 32.828 61.8178 33.3632 61.7286C33.72 61.6394 33.9876 61.6394 34.3444 61.6394C35.9501 61.907 37.4666 62.2638 38.983 62.8883C39.6967 63.1559 40.4103 63.4235 41.1239 63.6911C41.2131 63.7803 41.3916 63.7803 41.4808 63.8695C41.57 63.8695 41.7484 63.9587 41.8376 63.9587C41.7484 63.6911 41.6592 63.5127 41.57 63.2451C41.3024 63.1559 41.0347 63.0667 40.8563 62.9775C40.7671 62.9775 40.6779 62.8883 40.5887 62.8883C39.2507 62.353 38.0018 61.907 36.5745 61.3718C37.3774 61.015 38.091 61.2826 38.8046 61.015C39.4291 60.8366 40.2319 60.9258 41.0347 60.9258C41.7484 60.9258 42.462 60.9258 43.1756 60.9258C42.8188 58.9633 42.2836 57.09 42.1944 55.0383C42.462 55.0383 42.7296 54.9491 42.908 54.9491C43.9785 55.1275 44.7813 55.7519 45.5842 56.3764C45.7626 56.5548 45.941 56.9116 45.8518 57.1792C45.8518 57.8036 45.7626 58.4281 45.5842 59.0525C45.4057 59.6769 45.3165 60.2122 45.5842 60.8366V60.9258C45.7626 61.5502 46.1194 62.2638 45.5842 62.7099C45.1381 63.1559 44.6921 63.4235 44.1569 63.5127C43.9785 63.5127 43.8001 63.6019 43.6217 63.6019C43.7109 63.6911 43.8001 63.7803 43.8893 63.7803C43.9785 63.8695 44.1569 63.9587 44.2461 64.0479C44.4245 64.0479 44.5137 63.9587 44.6921 63.9587C45.0489 63.8695 45.4057 63.6911 45.7626 63.4235C46.5654 62.8883 46.9222 62.1746 46.4762 61.2826C46.1194 60.3906 46.0302 59.5877 46.387 58.6065Z" fill="#020203"/>
<path d="M42.5491 65.5649C42.5491 65.5649 42.5491 65.6541 42.5491 65.5649C42.4599 65.7433 42.4599 65.9217 42.3707 66.0109C42.2815 66.1001 42.2815 66.1001 42.1923 66.1001C42.0139 66.1001 41.8355 66.1001 41.7463 66.1001C41.3003 66.0109 40.9435 65.6541 40.5866 65.3865C40.4082 65.2081 40.319 65.0297 40.2298 64.8513C40.1406 64.6729 40.1406 64.4944 40.1406 64.316C40.1406 63.87 40.1406 63.5132 40.2298 63.0672C40.319 62.8888 40.319 62.7104 40.4974 62.532C40.5866 62.3535 40.6758 62.2643 40.8543 62.1751C40.9435 62.1751 40.9435 62.0859 41.0327 62.0859C41.1219 62.0859 41.2111 62.0859 41.3003 62.1751C41.4787 62.2643 41.5679 62.3535 41.7463 62.4427C41.6571 62.4427 41.5679 62.4428 41.5679 62.532C41.5679 62.6212 41.5679 62.6212 41.5679 62.6212C41.6571 62.7996 41.6571 62.978 41.7463 63.1564C41.8355 63.424 41.9247 63.6024 42.0139 63.87C42.1923 64.4052 42.3707 65.0297 42.5491 65.5649Z" fill="#BCBCBB"/>
<path d="M61.8172 55.128C61.8172 53.8792 61.5496 52.6303 60.4791 51.8275L60.3899 51.7383C60.2115 51.9167 60.1223 52.1843 60.0331 52.3627C60.6575 52.8087 60.6575 53.0763 60.1223 53.79C59.6763 54.4144 59.141 54.9496 58.695 55.4849C58.695 55.5741 58.6058 55.5741 58.6058 55.7525C58.695 55.8417 58.7842 55.8417 58.8734 55.9309C58.9626 56.0201 59.0518 56.0201 59.141 56.1093C59.7655 55.6633 60.1223 54.9496 60.9251 54.5928C61.0143 54.9496 61.1035 55.3065 61.1035 55.5741C61.1927 56.9121 61.1035 58.2502 60.7467 59.5882C60.3899 60.9263 59.9439 62.2644 59.2302 63.424C58.6058 64.4945 57.8922 65.4757 56.9109 66.1894C55.8405 66.9922 54.5916 67.7058 53.432 68.3303C52.5399 68.8655 52.0047 68.6871 51.3803 67.795C51.2911 67.7058 51.2911 67.6166 51.2911 67.6166C51.1127 67.4382 50.8451 67.2598 50.6666 67.0814C50.5774 66.9922 50.399 66.9922 50.2206 66.903C50.0422 66.903 49.953 66.8138 49.8638 66.7246C49.7746 66.6354 49.6854 66.5462 49.6854 66.3678C49.6854 66.0109 49.7746 65.8325 50.0422 65.7433C50.2206 65.6541 50.3098 65.5649 50.399 65.4757C51.1127 65.0297 51.8263 64.4945 52.3615 63.8701C52.4507 63.7808 52.5399 63.6916 52.6291 63.6024C53.0752 63.0672 53.5212 62.4428 53.878 61.7292C54.1456 61.1047 54.4132 60.4803 54.77 59.9451C55.3945 59.1422 55.5729 58.161 55.7513 57.1797C55.8405 56.9121 55.8405 56.5553 55.7513 56.1985C55.5729 56.2877 55.4837 56.4661 55.3053 56.5553C55.3945 57.4473 55.2161 58.2502 54.77 58.9638C54.2348 59.9451 53.6996 60.9263 53.1644 61.9076C52.0939 63.6916 50.6666 65.0297 48.5257 65.5649C47.6337 65.8325 46.7417 65.6541 45.9388 65.0297C45.4036 64.6729 44.9576 64.3161 44.4224 63.9593C44.2439 63.8701 44.0655 63.6916 43.8871 63.5132C43.5303 63.2456 43.1735 62.978 42.9059 62.6212C42.5491 62.2644 42.0138 62.086 41.5678 61.9076C41.3002 61.8184 40.9434 61.8184 40.6758 62.086V62.1752C40.6758 62.4428 40.6758 62.7104 40.765 62.978C40.8542 63.2456 40.9434 63.5132 41.0326 63.6916C41.211 64.1377 41.3894 64.5837 41.5678 65.0297C41.657 65.2973 41.7462 65.5649 41.9246 65.8325C41.9246 65.9217 42.0138 66.011 42.0138 66.1002C42.1923 66.457 42.2815 66.7246 42.4599 67.0814C42.6383 67.349 42.8167 67.5274 42.9951 67.795C43.2627 68.0626 43.5303 68.2411 43.8871 68.4195C45.4036 69.3115 47.0985 69.8467 48.8826 70.0251C49.953 70.1143 50.8451 69.8467 51.8263 69.4899C53.6104 68.7763 55.3053 67.8842 56.9109 66.7246C58.9626 65.2081 60.3007 63.2456 61.1035 60.9263C61.2819 60.4803 61.2819 60.0343 61.3711 59.5882C61.3711 59.499 61.3711 59.4098 61.3711 59.3206C61.9956 57.9826 61.8172 56.5553 61.8172 55.128ZM60.5683 54.236C60.1223 54.682 59.6763 55.0388 59.2302 55.4849H59.141C59.5871 54.8604 60.1223 54.236 60.5683 53.6116C60.8359 53.9684 60.7467 54.1468 60.5683 54.236ZM48.1689 69.2223C47.9905 69.1331 47.8121 69.1331 47.7229 69.1331C47.2769 69.4007 46.9201 69.1331 46.5633 69.0439C46.028 68.8655 45.4928 68.5979 44.9576 68.4195C44.2439 68.1518 43.7087 67.795 43.2627 67.1706C43.0843 66.9922 42.9951 66.7246 42.8167 66.457C42.7275 66.2786 42.6383 66.1002 42.5491 65.8325C42.5491 65.7433 42.4599 65.6541 42.4599 65.5649C42.2815 65.0297 42.0138 64.4053 41.8354 63.8701C41.7462 63.6024 41.657 63.424 41.5678 63.1564C41.4786 62.978 41.4786 62.7996 41.3894 62.6212V62.532C41.4786 62.4428 41.5678 62.4428 41.5678 62.4428C41.7462 62.4428 41.8354 62.532 42.0138 62.532C42.5491 62.8888 42.9951 63.2456 43.4411 63.6024C43.5303 63.6916 43.6195 63.7808 43.7087 63.7808C43.7979 63.87 43.9763 63.9593 44.0655 64.0485C44.7792 64.5837 45.4036 65.1189 46.1172 65.6541C46.3848 65.8325 46.6525 65.9217 46.9201 66.0109C47.6337 66.1002 48.3473 66.1002 49.061 66.1894C49.061 66.3678 49.061 66.5462 49.1502 66.6354C49.3286 66.9922 49.6854 67.2598 50.2206 67.4382C50.3098 67.4382 50.399 67.5274 50.4882 67.5274C50.6666 67.6166 50.8451 67.795 51.0235 67.9734C51.2019 68.2411 51.3803 68.5087 51.5587 68.8655C50.5774 69.3115 49.4178 69.6683 48.1689 69.2223Z" fill="#020203"/>
</svg>
