<svg width="93" height="79" viewBox="0 0 93 79" fill="none" xmlns="http://www.w3.org/2000/svg">
<path d="M31.872 58.7265C32.7597 59.9556 34.262 60.5019 35.7302 60.9116C38.4275 61.6287 41.4322 61.8677 43.9246 60.6385C44.3685 60.4336 44.8465 60.0581 44.7441 59.58C44.6758 59.2728 44.4027 59.0679 44.1295 58.8972C43.4808 58.5216 42.7979 58.2484 42.0809 58.1119C41.2956 57.9412 40.4761 57.9412 39.6908 57.7704C39.0763 57.6339 38.4958 57.3607 37.8812 57.1217C35.7643 56.234 28.0479 53.4342 31.872 58.7265Z" fill="#BCBCBB"/>
<path d="M19.9554 25.574C21.4918 26.4276 22.7551 29.2274 24.0185 30.4224C26.3061 32.5735 27.0914 33.8709 27.2962 37.0121C27.467 39.7095 31.53 43.158 31.7008 45.8553C31.8032 47.6308 30.6764 52.0353 31.1203 53.7425C32.6568 59.7176 35.8321 60.9126 42.0121 60.9468C43.7534 60.9468 45.9728 60.0249 45.7338 58.2836C45.563 57.1568 44.368 56.5081 43.2754 56.3374C42.1487 56.1667 40.9878 56.3032 39.9294 55.996C37.8466 55.3814 36.6174 53.0938 36.5833 50.9427C36.5491 48.7917 37.4369 46.743 38.4612 44.831C38.7343 44.2847 39.1099 43.7043 39.7245 43.636C40.5439 43.4994 41.1244 44.353 41.5 45.07C43.7193 48.9965 46.6898 52.445 50.2407 55.2448C51.743 56.4057 53.3819 57.4983 55.2598 57.908C57.1377 58.3177 59.2546 57.908 60.5521 56.5081C61.8837 55.757 61.0301 53.5376 59.5961 53.0255C58.162 52.5475 56.5914 53.0596 55.0891 53.0938C51.265 53.2303 47.6117 49.9525 47.3727 46.1285C47.3044 45.309 47.4068 44.4213 47.8507 43.7384C48.158 43.2604 48.5677 42.919 49.0115 42.5434C50.2407 41.4849 51.504 40.4606 52.7332 39.4363C53.3478 38.9242 53.9624 38.412 54.7135 38.1389C55.8061 37.7633 57.0011 37.9682 58.0596 38.4462C61.5422 40.1192 62.8055 44.4554 62.8738 48.3478C62.9421 52.7865 61.7471 57.5666 58.3327 60.4005C56.967 61.5272 55.1574 62.6198 55.1574 64.3611C58.5717 65.2147 62.191 63.2685 64.342 60.4688C66.493 57.669 67.4832 54.1863 68.4392 50.8061C69.3952 47.4259 70.3854 43.9091 72.5023 41.1094C74.1071 38.9925 76.3264 37.3536 77.897 35.2025C79.8773 32.471 80.6968 29.0908 82.643 26.3252C83.838 24.618 85.4086 23.2181 86.4329 21.4085C87.2523 19.9404 87.6621 18.3015 87.8669 16.6284C88.6181 11.1313 87.0816 4.95133 82.5747 1.74184C80.8675 0.512668 78.7506 -0.238491 76.6678 0.0688011C74.5851 0.34195 72.6048 1.81012 72.0584 3.82459C73.7656 4.98547 76.224 4.02945 78.1019 4.88304C79.331 5.42934 80.0822 6.65851 80.7651 7.81939C81.9601 9.86801 83.121 12.019 83.2234 14.375C83.3258 16.7309 81.9601 19.3258 79.6725 19.8379C77.658 20.2818 75.6435 19.0868 74.2095 17.6186C72.7755 16.1504 71.5804 14.4091 69.9074 13.2141C66.2882 10.7216 61.2691 11.6435 57.3426 13.6238C53.4161 15.6041 50.0017 18.5405 45.8703 20.1111C44.8119 20.5208 43.7193 20.8281 42.5926 20.6915C41.4317 20.5549 40.3732 19.9745 39.3831 19.3941C37.471 18.3015 35.5931 17.2089 33.6811 16.1163C32.3836 15.3651 30.8813 13.9994 31.5642 12.6678C31.8715 12.0873 32.5202 11.78 32.9641 11.302C34.364 9.868 33.6469 7.30724 32.0422 6.14636C30.4374 4.98548 28.3205 4.8489 26.3402 4.81476C24.7696 4.78061 23.199 4.81476 21.5943 4.88304C20.57 4.91719 19.5115 4.98547 18.6921 5.56591C17.9409 6.04392 17.4287 6.89751 16.6776 7.37552C15.2777 8.26326 13.3998 7.71696 11.9999 6.79508C10.6 5.87321 9.40501 4.67818 7.90269 4.02945C5.95651 3.2783 3.83961 3.55144 1.79099 3.82459C0.800831 6.9658 2.8153 10.7557 5.99065 11.7118C6.98082 11.9849 8.00512 12.0532 8.927 12.4971C9.84888 12.9409 6.94667 13.3848 6.63938 14.375C4.9322 14.5457 6.98082 14.6481 5.27364 14.5457C3.56646 14.4432 1.65442 14.7847 0.630113 16.1504C-0.769773 18.0283 0.322821 20.9647 2.33729 22.1938C4.35176 23.423 6.84424 23.4571 9.20015 23.2864C11.1463 23.1499 13.8437 22.1597 15.7557 22.5694C17.4629 22.8767 18.4531 24.7546 19.9554 25.574Z" fill="white"/>
<path d="M30.1648 17.5153C30.4379 17.5153 30.7111 17.4812 30.9159 17.3105C31.2232 17.0715 31.2574 16.6276 31.2574 16.252C31.2574 15.4667 31.2915 14.6473 31.2915 13.862C29.4819 12.906 27.3309 13.4864 25.3847 13.3157C24.736 13.2474 22.1069 12.3255 21.663 13.0084C21.0143 13.9644 23.5751 15.9789 24.1897 16.3545C25.931 17.3105 28.1845 17.5836 30.1648 17.5153Z" fill="#BCBCBB"/>
<path d="M44.3371 50.6014C45.6345 52.0012 46.5564 53.7426 47.9563 55.0059C50.2781 57.0545 53.59 57.5325 56.6971 57.3276C56.9019 57.3276 57.1068 57.2935 57.2775 57.1569C57.4141 57.0203 57.4482 56.8496 57.4482 56.6789C57.4824 55.6546 56.6288 54.801 55.7069 54.3913C54.785 53.9474 53.7607 53.8109 52.8388 53.3328C50.1073 52.0012 49.2879 48.621 47.9563 45.8895C47.6149 45.1384 47.1369 44.3872 46.3857 44.0458C45.976 43.8751 45.5321 43.8409 45.0882 43.8409C43.6201 43.8068 39.8301 43.5336 39.6936 45.8213C39.5911 47.6992 43.1762 49.4063 44.3371 50.6014Z" fill="#BCBCBB"/>
<path d="M61.232 13.0449C61.5051 13.7619 61.1637 14.5814 60.5832 15.0935C60.0028 15.6057 59.2858 15.8788 58.6029 16.2203C56.9982 17.0056 55.53 18.1323 54.3691 19.4981C52.5936 21.5808 51.1938 24.3806 48.5647 24.9952C46.5502 25.4732 44.5016 24.4489 42.6579 23.4929C41.3604 22.81 40.0971 22.1271 38.7996 21.4442C35.2146 19.5322 39.8581 18.9176 41.6336 18.7469C43.5115 18.542 45.2528 18.542 47.0965 17.9616C51.8766 16.5276 56.1787 13.5912 61.232 13.0449Z" fill="#BCBCBB"/>
<path d="M5.65122 5.94226C6.16337 5.36182 7.08524 5.1911 7.87055 5.36182C8.65585 5.53254 9.33872 5.9764 9.98745 6.42027C11.0459 7.17143 12.8897 8.22988 12.6848 9.7322C12.5141 10.9614 10.602 12.1905 9.44115 12.2247C7.08525 12.293 3.77332 8.05916 5.65122 5.94226Z" fill="#BCBCBB"/>
<path d="M26.3784 10.9251C26.2759 11.3348 26.1735 11.7104 26.0711 12.1542C26.7198 12.5981 27.471 12.803 28.2221 12.7688C29.861 12.6664 31.4316 12.2908 32.6267 10.9934C33.4461 10.0715 33.9583 7.92044 33.2754 6.45227C32.9339 5.73525 32.3194 5.29138 31.4658 5.2231C30.0317 5.08652 28.5977 4.98409 27.1637 4.84752C26.2418 4.77923 25.3541 4.84752 24.5005 5.15481C23.7493 5.42796 22.9299 5.49625 22.1787 5.42796C20.574 5.25724 19.3448 5.87182 18.2181 6.93027C18.1498 6.99856 18.0815 7.03271 18.0132 7.06685C17.9791 7.06685 17.9791 7.06685 17.9108 7.06685C17.7401 6.75956 17.9108 6.52055 18.1156 6.31569C19.1058 5.4621 20.1984 4.74509 21.5983 4.88166C22.5543 4.94995 23.4762 4.84752 24.4322 4.54023C25.3199 4.26708 26.2418 4.16465 27.1978 4.26708C28.7343 4.40365 30.2707 4.57437 31.8072 4.74509C32.9681 4.88166 33.9241 5.76939 34.1973 6.93027C34.5045 8.29602 34.4363 9.59347 33.7875 10.8568C33.2754 11.8811 32.4218 12.3591 31.4658 12.8371C31.0902 13.0078 30.7146 13.1785 30.2707 13.3834C30.8853 14.1687 31.5682 14.715 32.3194 15.193C32.5925 15.3637 32.8657 15.5003 33.0705 15.7052C33.9924 16.5246 35.0508 17.1733 36.1434 17.7879C36.997 18.2659 37.953 18.4367 38.9091 18.5391C40.3772 18.7098 41.8454 18.9488 43.2794 18.5049C45.3963 17.8904 47.5474 17.2416 49.6643 16.5588C50.4496 16.2856 51.2007 15.8417 51.9519 15.4662C54.2737 14.3394 56.7661 13.6566 59.2245 13.042C60.9317 12.5981 62.7413 12.5981 64.4826 12.4615C66.6678 12.325 68.7505 12.6323 70.8333 13.1103C72.0966 13.3834 73.2575 14.0321 74.3842 14.5784C74.8622 14.8174 75.3744 15.0223 75.7841 15.3296C76.8767 16.1149 78.14 16.7636 78.8229 18.0611C78.9595 18.3342 79.1643 18.5391 79.4033 18.8464C79.6082 18.6757 79.813 18.5391 79.9496 18.3684C80.5642 17.5831 80.8715 16.6953 80.9739 15.7393C81.1105 14.476 81.1788 13.2127 81.2129 11.9494C81.2812 9.59347 80.7349 7.40829 79.0619 5.66696C78.3107 4.88166 77.3889 4.50608 76.2621 4.57437C74.7939 4.6768 73.3599 4.74509 71.8917 5.01824C71.3455 5.12067 70.7309 4.98409 70.1504 4.91581C69.7748 4.84752 69.5017 4.60851 69.3651 4.19879C69.6724 3.65249 70.1163 3.24277 70.6626 2.90134C71.1406 2.59404 71.5845 2.25261 72.0283 1.94532C73.0185 1.2283 73.9404 0.442999 75.1695 0.203994C75.5792 0.135707 76.0231 0.101562 76.4328 0.101562C78.4473 0.203993 80.3594 0.716147 82.2031 1.60388C83.2616 2.11603 83.9786 2.96962 84.6614 3.8915C85.993 5.66697 87.0173 7.579 87.8027 9.66176C88.7928 12.325 88.8611 15.0564 88.2807 17.8221C88.1782 18.3342 87.9051 18.8122 87.7002 19.2902C87.6661 19.3585 87.5978 19.4268 87.5636 19.4951C87.0515 21.0657 85.993 22.3632 85.1053 23.6948C84.32 24.8556 83.364 25.9141 81.7934 26.0507C81.6909 26.0507 81.5885 26.119 81.4519 26.1531C81.3154 26.8701 81.1788 27.5871 81.0422 28.3041C80.7008 30.182 80.1203 31.9575 78.9595 33.5281C78.7887 33.7671 78.618 34.0403 78.379 34.2451C77.5937 34.928 76.7401 35.5426 75.989 36.2255C74.8622 37.2156 73.7355 38.2741 72.6088 39.2984C72.5063 39.4008 72.4039 39.5032 72.3698 39.6398C71.9259 40.5958 71.3113 41.4836 71.1064 42.5762C70.9357 43.3956 70.5602 44.1809 70.3553 45.0003C70.1163 45.8539 69.8431 46.7075 69.5358 47.5611C69.2285 48.3806 69.0237 49.2341 68.853 50.0877C68.5115 51.7949 68.0335 53.4679 67.4189 55.1068C67.0092 56.1994 66.7019 57.3603 66.3605 58.4871C66.2239 58.8968 66.0191 59.2382 65.6435 59.4772C64.4485 60.2284 63.2876 61.0137 62.1267 61.799C61.7853 62.038 61.4097 62.2428 61.1024 62.516C60.2146 63.2672 59.3269 64.0866 58.4392 64.8378C57.5514 65.5889 56.5271 66.0328 55.3663 66.0328C53.9664 66.0669 52.7372 64.5305 53.0786 63.233C53.2835 62.516 53.7957 61.9697 54.4444 61.5941C55.5028 61.0137 56.5613 60.3991 57.5856 59.8187C58.9855 59.0334 59.6001 58.4188 60.3512 57.2237C60.2829 57.2237 60.1805 57.1896 60.1464 57.2237C58.8148 58.1456 57.3124 58.248 55.776 58.1456C54.5127 58.0773 53.2835 57.8725 52.0543 57.531C50.9959 57.2237 49.9374 56.9506 48.9473 56.4726C47.7864 55.9263 46.9669 55.0044 46.2499 54.0142C45.1573 52.5802 44.0989 51.112 42.938 49.7463C42.1868 48.8586 41.2991 48.0733 40.4455 47.2197C40.0699 46.8441 39.6944 46.4685 39.3529 46.0588C39.1822 45.8539 39.1139 45.6149 39.4895 45.3759C40.4797 46.2637 41.504 47.1855 42.5624 48.1074C43.4502 47.7318 43.6892 46.7417 44.5086 46.2978C43.9965 46.9807 43.4502 47.6635 42.9039 48.3806C43.0063 48.5171 43.1429 48.6537 43.3136 48.8586C43.9282 48.2781 44.4745 47.6977 45.0549 47.1514C45.0891 47.1855 45.1573 47.2197 45.1915 47.288C44.9183 47.5611 44.6452 47.8343 44.372 48.1074C44.0989 48.3806 43.8599 48.6878 43.5526 48.9951C43.7233 49.2 43.8257 49.3366 43.9623 49.4732C44.4745 49.0293 44.9525 48.5854 45.4305 48.1757H45.3963C45.2256 48.4147 45.0549 48.6879 44.8842 48.9269C44.6793 49.2341 44.4403 49.5073 44.2013 49.8146C44.7135 50.5316 45.1915 51.2145 45.7036 51.8632C46.3865 52.7509 47.0694 53.5704 47.7522 54.4581C48.401 55.2776 49.2546 55.8239 50.2447 56.1311C52.3616 56.7799 54.5127 57.3262 56.7662 57.5652C57.9612 57.6676 58.9855 57.4627 59.9074 56.814C60.1464 56.6433 60.3512 56.4043 60.5561 56.1653C60.8292 55.8921 60.8634 55.4483 61.2731 55.2776C61.3414 55.2434 61.3755 55.0386 61.4097 54.902C61.8877 52.7851 62.3316 50.6682 62.6388 48.5513C62.7413 47.8001 62.8437 47.049 62.9461 46.2978C63.1168 44.7272 62.5706 43.737 61.2048 42.9859C61 42.8834 60.7951 42.781 60.5902 42.6786C58.8148 41.8933 57.7905 40.391 56.8686 38.7862C56.6637 38.4106 56.493 38.0351 56.254 37.6253C54.9565 38.1375 53.8981 38.9228 52.9762 39.8788C52.5665 40.3227 52.1226 40.7665 51.6788 41.2104C50.4837 42.303 49.2887 43.3615 47.7522 43.9419C47.6498 43.976 47.5815 44.0443 47.445 44.1468C47.6157 44.8638 47.9571 45.5125 48.3327 46.1271C48.9131 47.049 49.4936 47.9025 50.0399 48.8244C50.552 49.7122 51.03 50.6682 51.508 51.5901C51.8495 52.2388 52.3616 52.5461 53.0786 52.7509C54.6834 53.2289 56.3223 53.3997 57.9953 53.5362C58.3709 53.5704 58.644 53.3997 58.9513 53.2631C59.4293 53.0241 59.9074 52.7851 60.3854 52.6144C60.7951 52.4436 61.1707 52.5461 61.5804 52.9558C60.6244 53.2289 59.5318 53.0924 59.1903 54.2533C57.0393 54.185 54.9224 53.8435 52.8396 53.3655C52.2251 53.2289 51.7129 52.8875 51.3373 52.3412C51.0642 51.9315 50.791 51.5559 50.6203 51.112C49.8692 49.439 48.879 47.9025 47.8888 46.3661C47.6157 45.9564 47.4108 45.4784 47.206 45.0345C47.0011 44.6248 46.7279 44.4199 46.2158 44.4541C44.7818 44.5223 43.3477 44.4882 41.9137 44.5906C40.9577 44.6589 40.0358 44.8638 39.1139 45.0003C38.4311 45.8881 38.2945 46.9465 38.0213 47.9367C37.714 49.0293 37.4409 50.156 37.2019 51.2828C36.997 52.2046 36.8605 53.1265 36.7239 54.0142C36.6214 54.6288 36.8946 55.141 37.4067 55.4483C38.3969 56.097 39.3871 56.7457 40.6504 56.7457C40.8553 56.7457 41.026 56.814 41.2308 56.8823C41.265 56.8823 41.2991 56.9506 41.3674 57.053C40.787 57.3262 40.2065 57.3945 39.5919 57.2237C38.5335 56.9165 37.5775 56.3702 36.7239 55.6531C36.2117 55.2093 35.9727 54.6288 36.1434 53.9118C36.4507 52.6144 36.6897 51.2828 37.0312 49.9512C37.4067 48.4488 37.8165 46.9465 38.2603 45.4784C38.3969 45.0686 38.1238 44.8638 37.9872 44.6589C38.1921 44.2833 38.4652 44.3516 38.7042 44.3516C39.2505 44.3175 39.7968 44.3858 40.309 44.2833C42.0503 43.9419 43.7916 44.0785 45.5329 43.9419C45.9085 43.9078 46.3182 43.9078 46.6938 43.8395C47.1718 43.737 47.5132 43.5322 47.6157 42.9176C47.7523 42.0299 48.1278 41.2104 48.7424 40.4934C48.4351 41.4153 47.8547 42.2347 47.8547 43.2932C48.2644 43.2932 48.401 43.0883 48.5375 42.781C48.9131 42.0299 49.3229 41.3128 49.7326 40.5617C49.8009 40.5958 49.835 40.63 49.9033 40.63C49.596 41.2787 49.2546 41.9274 48.9131 42.6103C49.3229 42.6444 49.5277 42.4396 49.7667 42.2347C50.7227 41.347 51.6446 40.4593 52.6006 39.5715C53.1128 39.0935 53.6591 38.6496 54.103 38.2741C54.103 37.7619 54.0688 37.3522 54.0688 36.9425C54.0688 36.8059 54.1029 36.6352 54.0688 36.5327C53.7274 35.5426 53.5567 34.45 52.9762 33.5281C52.2592 32.3331 51.9178 31.0698 52.2592 29.6699C52.4982 28.6114 52.8055 27.6213 53.3859 26.6994C54.0347 25.6068 54.581 24.4459 55.2297 23.3875C56.3906 21.4413 58.0636 20.178 60.3171 19.7C62.1608 19.2902 64.0387 19.1195 65.8825 18.6415C68.375 17.9928 70.9016 17.3099 73.0185 15.671C73.2575 15.5003 73.4965 15.2954 73.7696 15.0564C73.5306 14.8857 73.3941 14.7833 73.2233 14.6809C71.6527 13.8273 69.9456 13.52 68.2384 13.2127C65.2337 12.7005 62.2291 12.9395 59.2586 13.52C58.3026 13.7248 57.3807 14.1004 56.4247 14.3736C54.3078 14.954 52.2933 15.8417 50.3472 16.8661C49.5619 17.2758 48.6741 17.4806 47.8205 17.7879C47.4791 17.9245 47.1718 18.0611 46.8304 18.1976L46.8645 18.1635C46.5231 18.3001 46.1816 18.4367 45.8061 18.6074H45.8402C45.7378 18.5391 45.6353 18.4367 45.5329 18.4367C45.2598 18.4708 44.9866 18.5049 44.7135 18.6074C42.5283 19.4268 40.3431 19.1537 38.1238 18.8122C36.1093 18.5049 34.5045 17.5148 33.0022 16.2173C32.4559 15.7393 31.8413 15.3637 31.2609 14.8857C30.7829 14.476 30.3732 14.0663 29.8269 13.5541C29.4854 13.5541 29.0074 13.6224 28.5294 13.5883C26.4125 13.4517 24.4663 12.803 22.7933 11.4031C22.2129 10.9251 21.6666 10.4812 21.0861 10.0032C20.1643 9.28618 19.1058 8.84232 18.0474 8.36431C17.8766 8.29602 17.6376 8.22773 17.5693 8.09116C17.3303 7.61315 16.9548 7.68143 16.545 7.74972C16.4767 7.74972 16.4426 7.78386 16.3743 7.78386C14.2233 7.95458 13.0965 9.35447 12.3795 11.1641C12.0381 12.0518 11.5259 12.803 10.5699 13.1444C10.2968 13.2468 10.0578 13.4858 9.78461 13.6907C8.86273 13.8614 7.90671 14.0663 6.91655 14.2711C5.92639 14.476 4.93622 14.715 4.01435 15.3296C4.62893 16.1149 4.38993 17.0026 4.08263 17.7879C3.7412 18.7098 3.02418 19.3585 2.20474 19.8707C2.03402 19.9731 1.8633 20.0414 1.65844 20.1438C1.79502 21.2364 2.37546 21.9876 3.36562 22.329C3.87777 22.4997 4.38993 22.568 4.93622 22.6363C5.72153 22.7387 6.50683 22.7729 7.29213 22.9095C9.3066 23.2168 11.2869 22.8412 13.2331 22.4315C14.2574 22.2266 15.0427 21.5437 15.8963 21.0316C15.9987 20.9633 16.1012 20.8267 16.2377 20.7926C16.3402 20.7584 16.5792 20.7584 16.6133 20.8267C16.6816 20.9633 16.6816 21.1681 16.6133 21.2706C16.5109 21.4413 16.3402 21.5437 16.1695 21.6803C16.3743 21.9193 16.545 22.1242 16.7499 22.329C17.6035 21.2023 17.6035 21.1681 19.0717 20.9974C19.4131 20.9633 19.8228 20.9633 20.1643 21.0316C21.4276 21.3047 22.6909 21.2364 23.9542 20.9974C24.4663 20.895 24.8419 20.656 24.9785 20.1097C25.3541 18.7098 26.3101 17.8904 27.6417 17.4465C28.8367 17.0368 29.9976 16.5246 30.9536 15.671C31.0219 15.6027 31.0902 15.5686 31.1585 15.5686C31.1926 15.5345 31.2609 15.5686 31.3633 15.5686C31.4316 15.9783 31.1585 16.1832 30.8853 16.3539C30.1 16.8319 29.383 17.4123 28.4611 17.6855C27.8807 17.8562 27.3344 18.1635 26.754 18.4367C26.2759 18.6757 26.0028 19.1195 25.7979 19.5634C25.5931 19.9731 25.3882 20.3828 25.2175 20.7926C25.0468 21.0999 24.8078 21.3047 24.4322 21.373C22.964 21.6803 21.4617 21.851 19.9935 21.5437C19.3107 21.4071 18.6961 21.5779 18.0815 21.7144C17.4328 21.8852 17.1255 22.7387 17.5011 23.285C18.1498 24.1386 18.8327 24.9581 19.5838 25.88C19.9252 25.4361 20.1984 25.0946 20.4715 24.7532C20.5057 24.7874 20.5398 24.7874 20.574 24.8215C20.4374 25.0947 20.3008 25.3678 20.1301 25.6409C19.8911 26.0165 19.9594 26.3238 20.4374 26.597C20.6764 26.3238 20.9496 26.0165 21.2227 25.7092C21.2568 25.7434 21.291 25.7434 21.3251 25.7775C21.1203 26.1531 20.8813 26.4945 20.6423 26.9725C21.9056 28.4749 23.5445 29.6016 24.9785 31.0015C25.1151 30.8649 25.2516 30.7283 25.3882 30.6259C25.7638 30.6942 25.9687 30.9332 25.9687 31.2746C26.0369 33.4598 26.9247 35.4402 27.5734 37.4546C28.0514 38.9911 28.7001 40.4593 29.5196 41.8591C30.1 42.8152 30.8512 43.6005 31.5682 44.4199C31.9438 44.8296 32.0462 45.2394 31.9779 45.7856C31.8072 47.1855 31.7048 48.5854 31.5682 49.9853C31.4999 50.7365 31.3975 51.4876 31.3633 52.2388C31.3292 52.6485 31.3975 53.0582 31.3975 53.6387C31.8072 53.4338 32.1145 53.3314 32.2852 53.1607C32.6608 52.7509 33.0022 52.3071 33.3095 51.8291C33.5827 51.4193 33.7875 50.9413 34.129 50.5316C34.9484 49.5756 35.0508 48.4488 35.1191 47.288C35.1533 46.7758 35.1191 46.2637 35.1874 45.7856C35.3581 44.454 35.0167 43.2932 34.3338 42.1664C34.129 41.7908 33.9241 41.4494 33.7192 41.0397C32.9339 39.4008 31.9779 37.8985 31.0219 36.362C30.4415 35.406 29.9976 34.3476 29.5196 33.3574C29.2806 32.8794 29.1099 32.3672 28.8709 31.8892C28.0514 30.2162 27.8124 28.4749 27.9148 26.6311C28.0173 24.3093 29.0074 22.2949 29.8952 20.2463C30.339 19.2561 30.8512 18.3342 31.3633 17.3782C31.4316 17.2416 31.6023 17.1392 31.8414 17.0709C31.8414 17.2075 31.8413 17.3441 31.7731 17.4465C30.7488 19.2561 29.8269 21.0999 29.1099 23.0802C28.7001 24.2069 28.3587 25.3337 28.3246 26.5287C28.2904 27.2798 28.3587 28.031 28.427 28.7822C28.5636 29.943 28.8709 31.1039 29.4854 32.1624C29.9293 32.9818 30.1683 33.9037 30.6122 34.7231C31.3292 36.0547 32.1486 37.318 32.8998 38.6496C33.5827 39.8447 34.2655 41.0738 34.9143 42.2689C35.4606 43.2932 35.6996 44.3858 35.5971 45.5125C35.5289 46.5709 35.4606 47.6294 35.3581 48.722C35.2898 49.439 35.0508 50.0536 34.607 50.6682C34.129 51.3169 33.7192 52.0339 33.3095 52.7509C32.8657 53.4679 32.3535 53.9801 31.4316 54.0484C31.2951 55.5507 31.5341 56.9165 32.2169 58.1798C32.4559 58.6578 32.9339 59.1016 33.3778 59.3748C34.5728 60.1259 35.8361 60.7747 37.3043 60.8771C37.714 60.1942 37.8165 59.3406 38.5676 58.8626C38.4311 59.1358 38.2603 59.4089 38.1238 59.7162C38.0213 59.9552 37.9189 60.2284 37.8506 60.5015C37.8165 60.604 37.8506 60.7064 37.8506 60.843C37.8506 60.8771 37.9189 60.9454 37.953 60.9795C38.0896 61.0137 38.2262 61.0137 38.3628 61.0478C38.6701 60.365 38.9774 59.7162 39.2846 59.0675C39.3188 59.1016 39.3871 59.1016 39.4212 59.1358C39.2164 59.6821 39.0456 60.2284 38.8066 60.843C39.4212 60.9454 39.6944 60.4332 40.1724 60.3308C40.1724 60.5015 40.1724 60.6722 40.1724 60.8771C41.6405 60.6381 43.1429 60.7405 44.5769 60.2625C44.6793 60.2284 44.7818 60.1942 44.9183 60.1259C44.7818 59.8187 44.3038 59.5455 44.7476 59.2724C45.1573 58.9992 45.1915 59.5796 45.4988 59.6821C46.0451 59.4772 46.3865 59.0333 46.5572 58.4871C46.7962 57.7359 46.0792 56.6774 45.1915 56.4726C44.3379 56.2677 43.4502 56.4043 42.5966 56.5067C42.2551 56.5409 41.9137 56.5409 41.6064 56.5409C41.504 56.5409 41.4357 56.3702 41.265 56.2336C41.504 56.1653 41.6406 56.097 41.8113 56.0629C42.699 55.9604 43.5867 55.8239 44.5086 55.7897C44.9525 55.7556 45.4646 55.858 45.8061 56.097C47.1718 57.0189 47.684 57.9749 46.7621 59.4089C46.2841 60.1601 45.6012 60.6722 44.6793 60.9112C43.894 61.1161 43.1087 61.2527 42.2893 61.321C41.3674 61.3893 40.4455 61.5258 39.5237 61.6965C38.4311 61.9014 37.3385 61.8331 36.28 61.5258C34.8801 61.1161 33.4802 60.604 32.3535 59.6138C32.2852 59.5455 32.2169 59.5114 32.1486 59.4431C31.4316 58.2822 30.4756 57.2579 30.5098 55.7556C30.578 53.8777 30.6122 51.9998 30.6805 50.0877C30.7488 48.5854 30.7829 47.049 30.8853 45.5466C30.9195 45.0345 30.7488 44.6589 30.4415 44.3516C30.4073 44.3175 30.3732 44.2492 30.339 44.215C29.1782 43.1907 28.4611 41.825 27.8124 40.4593C27.4027 39.5374 27.0954 38.5472 26.754 37.6253C26.1394 35.9523 25.5589 34.2793 25.2858 32.5379C25.2516 32.2307 25.1151 32.0258 24.8419 31.8892C23.7152 31.3771 22.8274 30.5576 22.008 29.6699C21.1203 28.7139 20.1984 27.8261 19.3448 26.836C18.0815 25.2995 16.8523 23.7289 15.589 22.1242C15.5549 22.1242 15.4524 22.1583 15.35 22.2266C13.916 23.1826 12.2771 23.4216 10.6041 23.6265C9.20417 23.7972 7.80428 23.7972 6.4044 23.5923C5.72152 23.4899 5.0728 23.4216 4.38993 23.3533C1.99988 23.0802 1.21458 21.9193 0.838996 19.6317C0.804853 19.3244 0.838996 19.0171 0.804852 18.7098C0.804852 18.4708 0.804853 18.1635 0.736566 17.9586C0.39513 17.2075 0.804853 16.6612 1.21458 16.1149C1.35115 15.91 1.59015 15.8076 1.82916 15.7052C2.54617 15.432 3.26319 15.2272 3.9802 14.9199C5.14109 14.4419 6.33611 13.9639 7.59942 13.7931C7.70185 13.7931 7.80428 13.7248 7.94086 13.6566C7.66771 13.281 7.32627 13.1103 6.98484 12.9395C5.8581 12.325 5.03865 11.4031 4.2875 10.4471C3.26319 9.14961 2.81932 7.61315 2.81932 5.94011C2.81932 5.59868 2.9559 5.2231 3.09247 4.88166C3.29733 4.47194 3.57048 4.02807 3.87777 3.68664C4.15092 3.37934 4.5265 3.17448 4.90208 3.00377C6.30197 2.32089 7.66771 2.42333 8.96516 3.37935C10.0578 4.16465 11.0821 5.05238 11.8674 6.17912C12.2088 6.65713 12.6527 6.96442 13.199 7.13514C13.6428 7.27171 14.0526 7.44243 14.4964 7.54486C14.7354 7.61315 14.9744 7.579 15.2134 7.54486C15.7939 7.44243 16.3743 7.30585 16.9548 7.23757C17.1938 7.20342 17.4328 7.30585 17.6718 7.40829C18.3205 7.74972 18.9351 8.15944 19.5838 8.46673C20.4033 8.84231 21.1203 9.28618 21.8031 9.83248C22.8616 10.6519 23.9542 11.3689 25.1492 11.9494C25.3882 12.0518 25.6614 12.1542 25.8662 12.2567C25.9004 11.6421 26.1394 11.3007 26.3784 10.9251ZM83.842 23.8655C84.1493 23.5582 84.4224 23.3192 84.6614 23.046C85.5833 21.8169 86.3345 20.5194 86.7442 19.0171C87.1881 17.5148 87.5978 16.0125 87.7002 14.4077C87.8026 13.0078 87.7344 11.6079 87.2222 10.3446C86.6418 8.9106 85.9589 7.51072 85.2077 6.17912C84.6614 5.15481 84.081 5.01824 82.9884 5.42796C82.886 5.4621 82.7835 5.56453 82.6811 5.56453C82.3738 5.59868 82.0665 5.63282 81.7592 5.63282C81.5885 5.63282 81.4178 5.56453 81.2812 5.49625C80.9739 5.39382 80.6666 5.42796 80.4618 5.70111C80.2569 5.97426 80.2228 6.2474 80.3935 6.5547C80.4959 6.69127 80.5301 6.86199 80.5984 6.99856C81.4519 8.80817 81.8958 10.7202 81.6568 12.7347C81.5885 13.4858 81.3837 14.237 81.4519 14.9882C81.5544 16.1832 81.1105 17.2075 80.6666 18.2318C80.4276 18.7781 80.1203 19.2902 79.5058 19.5293C78.9595 18.9147 78.379 18.3342 77.8669 17.7196C77.3889 17.1733 76.8084 16.8319 76.1938 16.5246C75.6475 16.8319 75.4085 17.4465 74.8964 17.7538C74.8622 17.7196 74.8281 17.6855 74.7598 17.6172C75.1695 17.2075 75.5793 16.7636 75.989 16.3198C75.3402 15.7052 74.5891 15.5686 74.0087 15.2272C73.4623 15.6027 72.9843 15.9783 72.5063 16.3198C71.3454 17.2075 70.0821 17.8221 68.6823 18.1976C67.7604 18.4367 66.8385 18.7781 65.9166 18.983C63.7314 19.461 61.478 19.7683 59.3269 20.417C58.3026 20.7243 57.3807 21.2023 56.6979 22.0217C56.0833 22.7729 55.4687 23.5582 54.9565 24.4118C54.2395 25.6409 53.5567 26.9043 52.9762 28.2359C52.3958 29.5675 52.1909 31.0015 52.8055 32.4014C52.9421 32.7087 53.1128 33.016 53.2494 33.2891C53.8298 34.5524 54.4102 35.8499 54.3078 37.318C54.3078 37.4888 54.342 37.6253 54.3761 37.8985C54.8883 37.6253 55.3663 37.3863 55.8443 37.1473C55.4346 35.7133 55.1614 34.3134 55.3663 32.8452C55.5711 31.2405 56.1516 29.1919 56.6296 28.6797C56.6637 28.9187 56.6979 29.0894 56.6637 29.2602C56.5613 29.6699 56.4247 30.0796 56.3223 30.4893C55.9126 31.8551 55.6736 33.2208 55.8443 34.6548C56.015 36.2596 56.732 37.5912 57.5173 38.9569C57.6197 39.1618 57.8587 39.2984 57.9953 39.4691C58.6782 39.0252 59.0196 38.3082 59.7025 37.9668C59.3611 38.4448 58.9513 38.8545 58.5758 39.2984C58.3368 39.5715 58.166 39.8447 58.5416 40.1861C59.1562 39.8788 59.4635 39.2301 60.2146 38.8886C59.7366 39.6057 59.0196 39.9471 58.8148 40.6641C59.0879 41.0738 59.3952 41.3811 59.8049 41.4836C60.1464 41.2104 60.4195 41.0056 60.7268 40.7665C61.8535 39.913 63.9022 40.1178 64.5167 41.6543C64.7557 42.2347 64.9948 42.8493 65.1313 43.498C65.302 44.3175 65.5752 45.0686 66.0873 45.7174C66.4288 46.1612 66.4971 46.6734 66.4971 47.2197C66.4971 48.4488 66.1556 49.6439 65.7118 50.7365C65.1996 52.0681 64.3119 53.2289 62.9461 53.7752C62.195 54.0484 61.8877 54.5264 61.7511 55.2093C61.6828 55.5166 61.6487 55.8239 61.5462 56.097C61.4438 56.4043 61.3414 56.7457 61.1365 57.0189C59.9074 58.7943 58.2685 60.1259 56.3223 61.082C55.6736 61.3893 55.0931 61.7648 54.5127 62.1746C54.103 62.4477 53.7615 62.8574 53.6591 63.3354C53.8639 63.7452 54.0688 64.0866 54.2737 64.4963C54.5127 64.2232 54.7175 63.95 54.9565 63.711C54.6151 64.9402 54.6151 64.9402 54.9224 65.2475C55.1273 64.7695 55.3321 64.2573 55.9126 63.9159C55.776 64.4622 55.2638 64.8036 55.4004 65.3499C55.8101 65.4865 56.0491 65.2475 56.3564 65.0768C57.8246 64.2232 59.1221 63.1647 60.4878 62.1404C60.9658 61.7648 61.2731 61.4234 61.2731 60.7747C61.2731 60.4674 61.2048 60.0577 61.5804 59.8187C61.5804 60.2967 61.5804 60.7747 61.5462 61.4234C61.9901 61.1161 62.3315 60.8771 62.6047 60.6722C62.7071 60.1942 62.434 59.7845 62.7754 59.3748C62.8778 59.7504 62.9461 60.0235 63.0486 60.3991C63.629 60.0577 64.1412 59.7845 64.585 59.4772C65.1655 59.1016 65.5752 58.5895 65.78 57.9066C66.0873 56.8482 66.4629 55.8239 66.8044 54.7654C66.8385 54.6288 66.9068 54.4923 66.9068 54.3557C67.1116 52.9217 67.4872 51.5559 68.0335 50.2243C68.2042 49.7804 68.3408 49.3024 68.4091 48.8244C68.7164 46.8782 69.2285 45.0003 69.809 43.0883C70.3211 41.4494 71.1747 40.0154 71.7893 38.4448C71.96 38.0009 72.2673 37.6253 72.7453 37.4546C72.8136 37.6936 72.8819 37.8643 72.9843 38.1033C73.2916 37.8302 73.5648 37.5912 73.8038 37.3522C75.033 36.1913 76.1255 34.928 77.5254 33.9037C77.8327 33.6988 78.0376 33.2891 78.2424 32.9818C78.8912 32.0258 79.4375 31.0356 79.8131 29.943C79.9838 29.3967 80.1886 28.8846 80.3593 28.3383C80.6666 27.1433 80.7691 25.9141 80.7008 24.6508C80.6666 24.2752 80.6325 23.8655 81.1105 23.5923C81.4519 24.1728 81.1788 24.8215 81.4519 25.3337C82.5787 25.2654 82.7835 25.0947 82.7152 24.0362C82.647 23.1826 82.5104 22.3632 82.408 21.5096C82.408 21.4413 82.4421 21.373 82.4421 21.2364C82.5445 21.2364 82.6811 21.2364 82.7835 21.2364C82.886 21.2364 82.9884 21.2364 83.0908 21.2706C83.3981 22.1583 83.3298 23.046 83.842 23.8655ZM9.27246 13.1103C10.7065 12.4615 11.1504 12.2908 11.6625 10.6861C12.0381 9.55933 12.6527 8.60331 13.5404 7.71558C13.3355 7.68143 13.1648 7.579 13.0282 7.61315C12.5161 7.74972 12.1747 7.47657 11.8332 7.16928C11.5942 6.96442 11.3894 6.75956 11.2186 6.48641C10.4333 5.32553 9.37489 4.47194 8.24815 3.65249C7.32627 2.96962 6.37025 2.76476 5.3118 3.20863C5.03865 3.31106 4.73136 3.44763 4.45821 3.58421C3.43391 4.1305 2.88761 5.25724 2.99004 6.41812C3.16076 8.3643 4.11678 9.93491 5.48252 11.2665C5.55081 11.3348 5.65324 11.3348 5.78981 11.4031C6.13125 10.8568 6.47268 10.3788 6.81412 9.86662C6.88241 9.90077 6.91655 9.93491 6.98484 9.96905C6.81412 10.2763 6.57511 10.5495 6.43854 10.8568C6.26782 11.1641 5.92639 11.4714 6.30197 11.9152C6.91655 11.3689 7.22384 10.5495 8.00914 10.2081C7.56528 10.8226 6.95069 11.3348 6.71169 12.2225C7.56528 12.5298 8.41887 12.8371 9.27246 13.1103ZM70.287 4.30122C70.3894 4.64266 70.6626 4.6768 70.9016 4.6768C71.721 4.64266 72.5405 4.60851 73.3258 4.54023C74.4867 4.43779 75.6134 4.26708 76.7743 4.19879C77.0816 4.16465 77.4571 4.26708 77.7644 4.40365C78.4815 4.74509 79.1985 5.15481 79.9496 5.56453C80.3935 4.9158 81.0422 4.84752 81.8275 5.08652C82.1348 5.18896 82.5445 5.12067 82.886 5.01824C83.2616 4.91581 83.5688 4.71094 83.9786 4.54023C83.2274 3.3452 82.3055 2.28675 80.8032 2.0136C80.6325 1.97946 80.4276 1.94531 80.3593 1.80874C80.1203 1.33073 79.6423 1.29659 79.2326 1.19416C78.618 1.02344 77.9693 0.92101 77.3206 0.818579C76.1938 0.613718 75.1012 0.716149 74.1452 1.33073C72.8478 2.21847 71.6186 3.20863 70.3553 4.16465C70.3211 4.16465 70.3211 4.19879 70.287 4.30122ZM60.5561 41.8933C61.1024 42.3372 61.5462 42.8152 62.0925 43.1224C63.1168 43.7029 63.5266 44.5906 63.4241 45.7174C63.3217 46.7075 63.1851 47.6635 63.0486 48.6537C62.8096 50.2585 62.5364 51.8632 62.2633 53.5021C63.0144 53.5362 63.4924 53.0924 63.9363 52.6144C65.302 51.0779 65.8825 49.2341 65.9166 47.1855C65.9166 46.81 65.7801 46.5027 65.541 46.1954C64.9948 45.4442 64.7557 44.5906 64.5509 43.7029C64.4143 43.0883 64.2436 42.5079 63.9704 41.9616C63.2876 40.5275 61.4097 40.5275 60.5561 41.8933ZM82.886 21.851L82.8177 21.8169C82.886 22.7046 82.9884 23.5582 83.0567 24.4459C83.4323 24.3435 83.4664 24.1386 83.3981 23.8655C83.2274 23.1826 83.0567 22.4997 82.886 21.851Z" fill="black"/>
<path d="M33.205 17.1406C33.205 17.3455 33.2392 17.5503 33.205 17.7552C33.0684 19.121 32.8977 20.4867 32.7953 21.8524C32.727 23.1157 33.2733 24.0718 34.4342 24.6522C34.7756 24.8229 35.117 25.0278 35.4926 25.1985C36.3804 25.5741 36.7559 26.257 36.8242 27.1788C36.8925 27.9983 36.6877 28.7836 36.4486 29.5689C36.3462 29.9103 36.2096 30.2518 36.1072 30.6273C35.9023 31.3102 36.1072 31.8906 36.7218 32.2321C37.3705 32.5735 38.0534 32.8125 38.7704 33.0174C39.3167 33.1881 39.8289 33.393 40.2044 33.871C40.7166 34.5197 41.058 35.2709 41.1605 36.0903C41.2629 36.8415 41.3312 37.5926 41.4677 38.3438C41.7068 39.4364 42.3213 40.29 43.2091 40.9728C43.5847 41.246 43.9944 41.5191 44.37 41.7923C44.609 41.963 44.848 42.1679 44.9845 42.5093C44.8138 42.4751 44.609 42.5093 44.4724 42.441C43.2774 41.8947 42.2189 41.1436 41.4677 40.051C41.2629 39.7778 41.0922 39.4705 41.0239 39.1632C40.8532 38.3438 40.6824 37.5243 40.6142 36.6707C40.5459 35.9196 40.2727 35.2367 39.9313 34.6221C39.5899 34.0075 39.0094 33.7344 38.3607 33.5978C37.6095 33.4271 36.8925 33.2222 36.2779 32.7442C35.4243 32.0955 35.2536 31.5151 35.5951 30.4566C35.8682 29.6372 36.1072 28.7836 36.3121 27.93C36.5511 26.8715 36.2096 26.257 35.2536 25.7789C34.878 25.5741 34.5025 25.4034 34.1269 25.1985C33.3074 24.7546 32.727 24.0718 32.3856 23.2182C32.3173 22.9792 32.2148 22.7402 32.2148 22.5012C32.3856 20.8964 32.5904 19.2575 32.7611 17.6528C32.7953 17.4821 32.9319 17.3455 33.0001 17.2089C33.1026 17.1406 33.1709 17.1406 33.205 17.1406Z" fill="black"/>
<path d="M11.691 22.5699C11.3837 22.5358 11.2813 22.2968 11.3154 22.0236C11.3495 21.5797 11.3837 21.1017 11.5544 20.692C11.8958 19.8726 11.7934 19.1556 11.1447 18.541C10.9057 18.3361 10.735 18.0971 10.496 17.8922C10.0179 17.4825 9.67651 16.9362 9.57408 16.3216C9.4375 15.6388 9.1985 15.0925 8.61806 14.7169C8.54977 14.6827 8.54977 14.5803 8.51562 14.512C8.6522 14.2047 8.85706 14.2047 9.06192 14.3413C9.4375 14.6145 9.74479 14.9559 9.84722 15.3998C10.0862 16.4582 10.5984 17.3118 11.452 17.9947C12.3397 18.7458 12.5446 19.7019 12.1348 20.7944C11.8958 21.3749 11.8276 21.9553 11.691 22.5699Z" fill="black"/>
<path d="M14.7989 13.5231C14.6965 13.728 14.5599 14.1036 14.355 14.3767C14.116 14.684 13.6722 14.7523 13.3649 14.5816C12.9893 14.4108 12.7161 13.9328 12.8186 13.5573C12.8869 13.2841 13.0576 13.011 13.2624 12.772C13.5014 12.4647 13.8429 12.3622 14.2185 12.4988C14.594 12.6012 14.7306 12.9427 14.7989 13.5231Z" fill="black"/>
<path d="M92.9166 41.8601C92.7458 41.8943 92.5751 41.9626 92.4044 41.9626C91.7898 41.9967 91.1752 41.9626 90.5606 41.9967C88.5462 42.2016 86.5658 42.0308 84.5855 41.9967C83.1856 41.9626 81.7857 41.9626 80.3517 41.9626C79.8054 41.9626 79.225 41.9284 78.6787 41.9284C77.3471 41.8601 76.0496 41.9626 74.718 42.1333C74.5132 42.1674 74.2742 42.1674 74.0352 42.0308C74.2059 41.9626 74.3425 41.8601 74.5132 41.826C75.4692 41.7577 76.4252 41.6211 77.3812 41.6211C79.8054 41.6211 82.2296 41.6553 84.6197 41.7577C87.1121 41.8601 89.5705 41.8943 92.0288 41.587C92.302 41.587 92.6093 41.4845 92.9166 41.8601Z" fill="#F15748"/>
<path d="M88.07 45.0693C87.0116 44.9668 85.9873 44.8644 84.9971 44.7961C83.9728 44.7278 82.9144 44.6937 81.8901 44.6595C80.8657 44.6254 79.8756 44.5913 78.8513 44.6254C77.8611 44.6595 76.9051 44.8303 75.8125 44.9327C76.0515 44.4547 76.3588 44.4888 76.6661 44.4547C78.2367 44.2157 79.8073 44.1815 81.3779 44.2498C83.3582 44.3181 85.3727 44.4547 87.353 44.5571C87.5579 44.5571 87.7286 44.5913 87.8993 44.6937C88.0017 44.762 88.0359 44.9327 88.07 45.0693Z" fill="#F15748"/>
<path d="M40.2383 7.54574C40.5114 7.47746 40.7163 7.40917 40.887 7.40917C42.56 7.34088 44.2672 7.27259 45.9403 7.20431C47.4084 7.13602 48.8766 7.10188 50.3106 6.99945C51.4032 6.93116 52.4958 6.86287 53.5884 6.79459C54.0664 6.76044 54.0664 6.82873 53.964 7.30674C52.6665 7.06773 51.3691 7.23845 50.0375 7.27259C48.0913 7.30674 46.1451 7.40917 44.2331 7.5116C43.1405 7.57989 42.0479 7.54574 40.9894 7.88718C40.7504 7.98961 40.4773 7.98961 40.2383 7.54574Z" fill="#F15748"/>
<path d="M51.7065 10.8924C48.7701 11.1314 45.8338 10.6534 42.9316 11.3362C42.8974 11.2679 42.8974 11.2338 42.8633 11.1655C42.9657 11.0631 43.0681 10.8924 43.1706 10.8924C43.6827 10.7899 44.229 10.6875 44.7412 10.6875C46.8239 10.6875 48.9067 10.7558 50.9894 10.7899C51.2284 10.7899 51.4675 10.8582 51.7065 10.8924Z" fill="#F15748"/>
<path d="M26.5783 45.6843C24.8711 46.0258 17.7351 46.5038 16.5742 46.333C16.7108 46.2648 16.7791 46.1623 16.8474 46.1623C20.0227 45.9916 23.1639 45.8209 26.3393 45.4453C26.3734 45.4795 26.4417 45.5819 26.5783 45.6843Z" fill="#F15748"/>
<path d="M15.5859 49.542C15.8932 49.0982 16.1664 49.064 16.4395 49.064C17.4638 48.9616 18.4881 48.8592 19.5466 48.825C20.844 48.7909 22.1756 48.7909 23.5072 48.7567C24.0877 48.7226 24.6681 48.6543 25.2486 48.6543C24.1218 48.9616 22.9609 49.0299 21.7659 49.064C20.366 49.0982 18.9662 49.1665 17.5663 49.2347C16.9517 49.303 16.3712 49.4055 15.5859 49.542Z" fill="#F15748"/>
<path d="M43.6177 57.5654C44.0615 57.5312 44.4371 57.8044 44.5395 58.18C44.6078 58.5214 44.5054 58.7604 44.0615 58.9311C43.8225 59.0336 43.5152 59.1018 43.2762 59.1018C42.6958 59.1018 42.4568 58.6238 42.7299 58.1117C42.9006 57.7702 43.2421 57.5995 43.6177 57.5654Z" fill="black"/>
<path d="M14.8711 11.235C15.076 11.0984 15.1784 10.9618 15.315 10.9277C15.8271 10.8594 16.7148 11.2008 17.1929 11.6447C16.749 11.8154 15.8613 11.6788 14.8711 11.235Z" fill="black"/>
<path d="M26.1024 9.93652C25.8634 10.4828 25.6244 11.0633 25.3513 11.712C25.3171 11.0291 25.522 10.517 26.1024 9.93652Z" fill="black"/>
<path d="M6.54002 17.9267C6.57416 17.995 6.57416 18.0292 6.57416 18.0633C6.43758 18.3365 6.26687 18.5413 5.92543 18.4048C5.85714 18.3706 5.823 18.1999 5.85714 18.1316C6.02786 17.8243 6.30101 17.8926 6.54002 17.9267Z" fill="black"/>
<path d="M26.3789 10.9263C26.5838 10.2775 26.6521 10.1751 27.2325 9.52637C27.0276 10.1751 26.8569 10.4482 26.3789 10.9263Z" fill="black"/>
<path d="M46.1471 19.1211C45.9764 19.6332 45.8057 20.1795 45.635 20.6917C45.6008 20.1113 45.7032 19.565 46.1471 19.1211Z" fill="black"/>
<path d="M45.0508 58.2505C45.2215 58.1139 45.3922 57.9091 45.4264 57.9432C45.5629 58.0115 45.6654 58.1822 45.8019 58.3188C45.6995 58.4212 45.5629 58.592 45.4605 58.592C45.3581 58.5578 45.2215 58.3871 45.0508 58.2505Z" fill="black"/>
<path d="M44.8782 57.192C44.7075 57.3286 44.5709 57.4993 44.4685 57.4652C44.366 57.4652 44.1953 57.2945 44.1953 57.1579C44.1953 57.0555 44.366 56.8506 44.4685 56.8506C44.5709 56.8847 44.7075 57.0213 44.8782 57.192Z" fill="black"/>
<path d="M45.1861 19.5645C45.0837 19.94 44.9813 20.2815 44.8788 20.657C44.7423 20.2132 44.8447 19.8376 45.1861 19.5645Z" fill="black"/>
<path d="M7.21803 19.5645C7.35495 19.7014 7.49187 19.8041 7.45764 19.8383C7.42341 19.941 7.32072 20.0437 7.21803 20.1121C7.21803 20.1121 7.04688 20.0095 7.04688 19.9752C7.08111 19.9068 7.14957 19.7698 7.21803 19.5645Z" fill="black"/>
<path d="M46.5884 18.2344C46.6225 18.3027 46.725 18.4392 46.6908 18.4734C46.5201 18.7124 46.3152 18.9172 46.1445 19.1221H46.1787C46.3153 18.849 46.4518 18.5075 46.5884 18.2344Z" fill="black"/>
<path d="M7.49219 17.9262C7.59488 17.7893 7.66334 17.6523 7.69757 17.6523C7.80026 17.6523 7.93719 17.7208 8.00565 17.7893C8.03988 17.8235 7.93719 18.0289 7.90296 18.0289C7.80026 18.0289 7.66334 17.9604 7.49219 17.9262Z" fill="black"/>
<path d="M45.1875 19.5635C45.3241 19.2562 45.4607 18.9489 45.5972 18.6416H45.5631C45.6314 19.0513 45.4948 19.3245 45.1875 19.5635Z" fill="black"/>
<path d="M26.1367 9.93678C26.2391 9.69777 26.3416 9.49291 26.444 9.25391C26.5123 9.28805 26.5464 9.32219 26.6147 9.35634C26.444 9.5612 26.2733 9.76606 26.1367 9.93678Z" fill="black"/>
<path d="M21.3203 25.3022C21.3888 25.1995 21.4915 25.0968 21.5599 24.9941L21.6284 25.0626C21.5599 25.1653 21.4915 25.3022 21.423 25.4049C21.3888 25.3707 21.3545 25.3364 21.3203 25.3022Z" fill="black"/>
<path d="M45.2617 48.2477C45.3644 48.1108 45.5013 47.9397 45.604 47.8027C45.6383 47.837 45.6725 47.8712 45.7409 47.9397C45.5698 48.0424 45.4329 48.145 45.2617 48.2477Z" fill="black"/>
<path d="M76.5998 17.3457C76.3608 17.653 76.1218 17.9603 75.8828 18.3017C75.917 17.7896 75.917 17.7896 76.5998 17.3457Z" fill="black"/>
<path d="M13.9446 13.0778C13.9446 13.2485 13.808 13.3851 13.6032 13.3851C13.3983 13.3851 13.2617 13.2485 13.2617 13.0778C13.2617 12.9071 13.3983 12.7705 13.6032 12.7705C13.808 12.7705 13.9446 12.9071 13.9446 13.0778Z" fill="white"/>
<path d="M1.24485 17.5854C1.38142 16.9708 1.92772 16.4928 2.5423 16.4245C2.64473 16.4245 2.71302 16.3221 2.67888 16.2197C2.67888 16.1172 2.57645 16.049 2.50816 16.0831C1.757 16.1855 1.10827 16.766 0.903413 17.5171C0.869269 17.6196 0.937556 17.6878 1.03999 17.722C1.14242 17.722 1.24485 17.6537 1.24485 17.5854Z" fill="white"/>
<path d="M45.2184 78.8734C45.9013 78.9076 46.5842 78.9076 47.3012 78.9076C49.7595 78.8734 52.252 78.771 54.7445 78.771C57.2028 78.7369 59.6953 78.771 62.1536 78.6686C62.7341 78.6344 63.3145 78.6344 63.8949 78.6003C64.0998 78.6003 64.2705 78.5662 64.4754 78.5662C67.2752 78.3954 70.2798 78.1223 72.3284 76.2102C72.8747 75.6981 73.3869 75.0152 73.3869 74.2299C73.421 73.2056 72.5674 72.2837 71.6114 71.9082C70.6554 71.5326 69.5969 71.5326 68.5385 71.5667L42.6918 72.2154C40.1993 72.2837 37.6385 72.352 35.3851 73.3422C34.0193 73.9568 32.6194 75.5274 33.4389 76.7565C33.8828 77.4394 34.7705 77.6443 35.5558 77.7809C38.7994 78.3272 42.0772 78.6686 45.355 78.8052L45.2184 78.8734Z" fill="#BCBCBB"/>
</svg>
