<svg width="85" height="74" viewBox="0 0 85 74" fill="none" xmlns="http://www.w3.org/2000/svg">
<path d="M20.6593 5.14418C22.4689 5.04175 24.2444 5.5539 25.9857 6.06605C27.4539 6.50992 28.922 6.95378 30.3902 7.36351C31.2779 7.63666 32.1998 7.9098 32.8827 8.55853C34.4191 10.095 33.668 12.8948 31.9267 14.2264C30.1853 15.5238 27.8977 15.7287 25.7467 15.8994C24.9614 17.8456 26.3954 19.9625 28.0002 21.3282C31.2779 24.0597 35.7507 25.3572 39.9846 24.7767C47.7693 23.7183 54.359 16.7871 62.1779 17.709C64.4313 17.9822 66.5824 18.904 68.8017 19.382C71.0552 19.8601 73.5818 19.7918 75.3231 18.3236C76.4499 17.3676 77.0645 16.0018 77.6449 14.6361C79.1814 11.1534 80.7178 7.63666 81.3666 3.91501C81.5373 3.02728 81.6397 2.07126 82.2201 1.38838C82.8006 0.705513 84.0298 0.466508 84.576 1.18352C84.7809 6.54406 84.2688 14.1581 80.991 18.3919C79.9325 19.7918 77.9522 20.1673 77.1327 21.7038C76.2792 23.3085 76.723 33.9613 76.4499 35.7368C75.5963 41.1998 74.0257 36.6245 74.2988 42.1217C74.3671 43.2825 74.4354 44.4776 73.9915 45.536C73.616 46.4237 72.8989 47.1408 72.2161 47.8236C70.8503 49.1552 69.5187 50.4868 68.153 51.8526C67.7433 52.2623 67.2994 52.672 67.1287 53.2525C66.9238 53.9353 67.0945 54.6865 67.0945 55.4035C67.0604 56.3937 66.6507 57.3155 66.241 58.2033C65.2166 60.4567 64.1582 62.7444 63.1339 64.9978C62.3144 66.7733 60.9487 68.8561 59.0367 68.4805C57.4661 68.1732 56.7149 66.2612 57.0222 64.7247C57.3295 63.1882 58.2855 61.8566 59.0708 60.4909C59.8561 59.1251 60.4365 57.4521 59.8903 55.9839C58.4562 55.7449 56.9539 56.7351 56.5783 58.135C56.4417 58.7154 56.4417 59.3983 56.032 59.8422C55.4516 60.4567 54.359 60.1836 53.7444 59.6373C52.4811 58.5106 52.1738 56.5644 52.7542 54.9596C53.3005 53.3549 54.5639 52.0916 55.9296 51.1014C56.9198 50.4185 58.0465 49.7357 58.3538 48.5748C58.9684 46.4579 56.4417 44.7849 54.2907 44.4434C49.1692 43.5557 43.6379 45.7067 40.4626 49.804C38.8578 51.8867 37.8335 54.345 36.1605 56.3595C34.4533 58.3398 31.6877 59.8422 29.2635 58.8861C28.4782 58.5789 27.5563 58.0667 26.8734 58.5788C26.6344 58.7496 26.4978 59.0569 26.3954 59.2959C25.576 61.2421 25.5077 63.3931 25.337 65.4758C25.1662 67.5586 24.7565 69.7438 23.3908 71.3827C22.0592 72.9874 19.4984 73.7727 17.7912 72.5436C17.4498 72.2704 17.1084 71.8948 17.1084 71.4851C17.1084 71.0071 17.4498 70.5974 17.7229 70.2218C19.7374 67.5927 19.7716 64.0077 19.7033 60.6957C19.6691 58.5788 19.6008 56.3937 18.7814 54.4475C18.1668 52.9793 17.1425 51.7501 16.3572 50.3844C12.5673 44.0337 13.5916 36.0782 13.5574 28.6691C13.5574 27.6448 13.3184 26.3132 12.2941 26.1083C11.6112 25.9718 10.9284 26.4498 10.3479 26.8253C7.95789 28.3959 4.57767 28.7032 2.3242 26.8936C0.104868 25.1182 -0.0999936 21.0892 2.3242 19.5869C4.37281 18.3236 7.51402 18.9723 8.91391 17.0261C9.4602 16.2408 9.56263 15.2165 9.80164 14.2605C10.4845 11.529 12.3966 10.095 14.5476 8.49025C16.4255 7.05622 18.1327 5.28075 20.6593 5.14418Z" fill="white"/>
<path d="M24.8938 16.4097C25.0645 16.5121 25.2352 16.6145 25.3035 16.7853C25.3718 16.9218 25.3718 17.0584 25.3377 17.195C25.3035 18.151 25.2694 19.107 25.2352 20.0289C25.2352 20.2679 25.2011 20.541 25.0987 20.7459C24.8938 21.0873 24.4841 21.2239 24.1085 21.1898C23.7329 21.1556 23.3574 20.9849 23.0501 20.8142C21.616 20.063 20.1479 19.1753 19.3967 17.7413C18.8163 16.6828 17.8602 13.405 20.0113 13.5758C20.66 13.6441 21.7867 14.7366 22.3672 15.0781C23.1866 15.5561 24.0744 15.9317 24.8938 16.4097Z" fill="#BCBCBB"/>
<path d="M27.3174 53.5586C26.8736 54.5146 26.4638 55.5048 26.4297 56.5632C26.4297 57.1095 26.6687 57.7583 27.1808 57.8265C27.3857 57.8607 27.5906 57.7924 27.7613 57.7241C28.649 57.451 29.605 57.3485 30.5269 57.451C31.5171 57.5534 32.678 57.8265 33.3267 57.0754C33.8388 56.5291 33.7706 55.6414 33.3608 54.9926C32.9853 54.378 32.3365 53.9342 31.7219 53.5244C31.0391 53.0806 29.6392 51.749 28.8539 51.7148C27.8637 51.749 27.7271 52.705 27.3174 53.5586Z" fill="#BCBCBB"/>
<path d="M18.4729 51.8854C17.79 51.3391 17.1071 50.8269 16.5608 50.1441C16.0145 49.4612 15.6389 48.6418 15.7072 47.754C15.7414 47.4126 15.8438 47.037 16.0487 46.7639C16.5267 46.1834 17.4485 46.2176 18.1656 46.4907C18.5753 46.6273 18.9509 46.8663 19.2582 47.1736C19.6337 47.5833 19.8045 48.1637 19.941 48.7442C20.1459 49.4953 20.3166 50.2465 20.5215 50.9977C21.2385 53.6609 20.18 53.1829 18.4729 51.8854Z" fill="#BCBCBB"/>
<path d="M56.1296 44.0004C55.8223 43.1126 55.9247 41.9859 56.6076 41.3372C56.7783 41.1665 56.9832 41.0299 57.2222 40.9957C57.9734 40.8592 58.5879 41.6103 58.9977 42.259C59.6805 43.3516 60.3634 44.4101 61.0463 45.5027C62.0364 47.1074 60.2268 48.5073 58.6562 47.8244C57.6319 47.3464 56.471 45.0247 56.1296 44.0004Z" fill="#BCBCBB"/>
<path d="M59.8203 61.8556C59.8203 62.2995 59.9569 62.8799 60.4008 62.8458C60.6056 62.8458 60.7422 62.6751 60.8788 62.5385C61.8348 61.4459 62.2786 60.0119 62.6542 58.5778C62.9615 57.3145 63.9517 54.7538 63.6102 53.4905C63.2688 52.2613 61.6641 53.1832 61.0495 54.1392C60.5373 54.8903 60.6398 55.9146 60.5032 56.7682C60.2642 58.4754 59.8545 60.1143 59.8203 61.8556Z" fill="#BCBCBB"/>
<path d="M38.3773 29.9301C43.055 30.4423 47.5961 28.3254 51.625 25.867C53.5029 24.7062 55.5515 23.0673 55.4491 20.8479C55.4491 20.5065 55.3467 20.1309 55.0735 19.9261C54.8687 19.7553 54.5955 19.7212 54.3224 19.7212C51.2153 19.6188 48.6204 21.8381 45.9231 23.3404C43.3964 24.7403 40.5625 25.5256 37.6945 25.6622C36.2263 25.7305 34.7923 25.6622 33.3241 25.4232C32.4022 25.2525 30.217 24.2281 29.5 24.672C31.1389 27.6766 35.1337 29.5545 38.3773 29.9301Z" fill="#BCBCBB"/>
<path d="M15.3664 36.4527C14.9567 37.1355 14.547 37.8184 14.1031 38.4671C13.7958 38.911 13.6934 39.3549 13.8982 39.9694C14.547 39.2183 15.1615 38.5013 15.7761 37.8184C15.8103 37.8525 15.8444 37.8867 15.9127 37.9208C15.4688 38.5354 15.0591 39.1841 14.547 39.7304C13.4885 40.8913 13.7958 42.0522 14.5128 43.1448C15.4347 44.5447 16.8687 45.33 18.3028 46.0811C18.6783 46.286 19.0881 46.4567 19.4636 46.6957C19.6002 46.7982 19.7026 46.9689 19.8392 47.1737C19.4636 47.4469 19.1563 47.4127 18.8149 47.3103C16.5956 46.6616 14.786 45.4666 13.5909 43.4521C13.2837 42.9058 13.0105 42.2912 12.9081 41.6766C12.6691 40.4475 12.6349 39.1841 12.8739 37.955C12.9081 37.7501 12.9081 37.5452 12.9422 37.3404C13.0105 35.6332 13.0788 33.8919 13.1129 32.1847C13.1129 31.5701 13.0788 30.9897 13.0446 30.3751C13.0105 29.6581 13.0105 28.9752 12.9764 28.2582C12.9422 27.6436 13.0105 27.029 12.5666 26.5169C11.8838 26.4827 11.235 26.6535 10.6205 26.8925C9.18643 27.4729 7.64997 27.8485 6.14765 28.1216C4.74776 28.3606 3.41616 27.9851 2.11871 27.3705C1.43584 27.0632 1.16269 26.4144 0.923684 25.7999C0.582249 24.9804 0.309101 24.161 0.10424 23.3074C-0.305483 21.6343 0.513962 20.0637 2.187 19.5857C3.5186 19.2102 4.78191 18.6297 5.94279 17.9127C6.59152 17.503 7.2061 17.025 7.82068 16.547C8.74256 15.8299 9.28886 14.9081 9.45957 13.7472C9.56201 12.996 9.73272 12.2107 9.93758 11.4596C10.279 10.2304 10.996 9.30853 12.2252 8.79637C13.2495 8.38665 14.2397 7.80621 15.2981 7.53306C16.3224 7.25991 17.176 6.71362 18.0979 6.20146C18.4052 6.03075 18.7125 5.7576 19.0198 5.58688C19.5319 5.27959 20.0441 4.97229 20.5904 4.69915C20.7952 4.59672 21.0684 4.63086 21.2732 4.665C22.6731 5.07473 24.073 5.34787 25.4046 5.96246C27.3167 6.85019 29.297 7.43063 31.448 7.43063C32.404 7.43063 33.2235 7.84035 33.8039 8.59151C34.0771 8.93295 34.3161 9.30853 34.5551 9.64996C34.9648 10.2304 34.9648 10.8791 34.5892 11.4596C34.1454 12.1424 33.7015 12.8595 33.1211 13.3716C32.0968 14.3276 31.0042 15.2495 29.8433 16.0348C28.2385 17.1615 26.4631 17.2298 24.6193 16.6494C24.3803 16.5811 24.1413 16.4445 23.9023 16.2738C22.9463 15.6251 22.0244 14.9422 21.0342 14.3618C19.1222 13.2009 17.893 11.5279 16.9712 9.58167C16.698 9.00123 16.3907 8.45494 16.0834 7.8745C14.8201 8.07936 13.7617 8.69394 12.6691 9.2061C11.9179 9.54753 11.3375 10.0255 10.9619 10.7084C10.7229 11.1181 10.5522 11.562 10.4497 12.0059C10.279 12.6887 10.1766 13.4058 10.0742 14.0886C9.93759 14.8056 9.66444 15.4202 9.18643 16.0007C9.01571 16.2055 8.87914 16.4104 8.70842 16.6835C8.94742 16.8201 9.15228 16.9567 9.35714 17.0591C10.5522 17.7761 11.2692 18.7322 11.0643 20.2003C10.9619 20.8491 11.0985 21.3271 11.6448 21.8051C12.5325 22.5221 13.1129 23.4781 12.9422 24.7073C12.9081 24.9121 13.0447 25.1511 13.1129 25.3901C14.069 25.2877 14.8884 24.9121 15.5371 24.3658C16.1859 23.8195 16.6297 23.0342 17.2102 22.3172C17.3467 22.4197 17.5175 22.5562 17.7565 22.7269C18.3028 22.1465 18.9515 22.1807 19.6685 22.4197C20.1465 22.5904 20.6587 22.6587 21.1367 22.7952C22.1268 23.0342 23.0146 22.8294 23.7657 22.1465C24.2437 21.7368 24.7217 21.2929 25.2339 20.8149C25.2339 19.7906 25.2339 18.7322 25.2339 17.6737C25.6095 17.5371 25.7461 17.6737 25.7802 17.9468C25.8143 18.4249 25.7802 18.9029 25.7802 19.3809C25.7802 20.0979 26.0192 20.7125 26.5314 21.2246C28.0678 22.6928 29.775 23.9561 31.7553 24.7756C33.3601 25.4584 35.0672 25.3219 36.7403 25.1853C40.0863 24.9463 43.1934 23.7854 46.3005 22.6587C47.1541 22.3514 47.9394 21.8392 48.7588 21.4636C50.0563 20.8149 51.422 20.3028 52.6512 19.5516C53.8462 18.8004 55.0754 18.4931 56.407 18.2541C59.6848 17.6396 62.9625 17.4688 66.2403 18.1176C67.3671 18.3566 68.4938 18.5956 69.5522 19.0053C70.7131 19.415 71.8057 20.0296 72.6935 21.2246C71.5326 20.9515 70.7814 20.2003 69.8937 19.9272C68.4597 21.0881 67.1281 22.2831 65.6599 23.2732C64.1234 24.3317 62.4162 25.117 60.5383 25.2877C56.8508 25.6633 54.6998 27.9168 53.2999 31.0921C53.1633 31.3653 53.0609 31.6384 52.9585 31.9457C52.2073 33.7553 51.9 35.6332 52.0707 37.5794C52.1732 38.7744 52.2073 40.0036 52.3097 41.1986C52.3439 41.4718 52.4463 41.7108 52.5829 42.0522C52.9585 41.8815 53.2316 41.7791 53.5389 41.6425C54.4266 41.2328 55.2802 40.7889 56.2021 40.3792C56.7484 40.1402 56.7484 40.1402 57.3971 40.4133C56.885 40.7889 56.5094 41.2328 55.8607 41.4376C54.9729 41.7108 54.1194 42.1546 53.2999 42.5985C50.8074 43.9984 48.315 45.4666 45.8225 46.8664C44.8323 47.4127 43.808 47.959 42.7837 48.437C42.2032 48.7102 41.896 49.0516 41.896 49.7345C41.8618 50.6905 41.5887 51.6124 40.8034 52.227C40.4619 52.5001 40.0522 52.6367 39.6425 52.8757C39.7791 53.1147 39.9498 53.3196 40.1205 53.5927C39.2328 54.3439 38.3792 55.095 37.4914 55.8121C36.9451 56.2559 36.3988 56.6998 35.7843 57.0754C33.5991 58.4411 31.2432 58.9191 28.7165 58.3045C28.102 58.168 27.4874 57.9972 26.7704 57.8265C26.4631 58.9874 26.1899 60.08 25.9509 61.1385C25.5412 62.8798 25.1998 64.6211 24.79 66.3624C24.3803 68.1037 23.9364 69.8109 23.4926 71.5522C23.3901 71.962 23.1511 72.3034 22.7414 72.4058C22.1951 72.5424 21.6488 72.679 21.0684 72.7473C20.1807 72.8497 19.2588 72.8838 18.371 72.9521C18.1662 72.9521 17.9613 73.0204 17.7565 73.0204C16.9029 72.9863 16.3907 72.3375 16.5956 71.5181C16.7663 70.8352 17.1419 70.2548 17.7565 69.9475C18.6101 69.5036 18.9856 68.7525 19.2929 67.8989C20.1465 65.5088 20.4879 63.0505 20.7952 60.5922C20.966 59.3288 21.1708 58.0655 21.205 56.8022C21.2391 55.9828 21.0684 55.1292 20.9318 54.3097C20.8977 54.139 20.6587 53.9342 20.4538 53.8317C20.0441 53.5244 19.6002 53.2854 19.1905 53.0123C17.8589 52.1246 17.0736 50.8612 16.5273 49.3931C16.2883 48.7785 16.2883 48.0615 16.2541 47.4127C16.2541 47.2762 16.3907 47.1396 16.4931 46.9347C16.9029 47.2079 16.8687 47.6176 16.9029 47.959C17.0053 49.3931 17.7906 50.4857 18.6101 51.5441C19.1563 52.2611 19.8392 52.8757 20.7611 53.2854C20.7269 53.0123 20.7269 52.8074 20.6928 52.6026C20.3172 49.9052 20.1124 47.1737 20.2148 44.4422C20.2148 44.3057 20.1807 44.1691 20.2148 44.0325C20.2831 43.8618 20.3855 43.6911 20.4538 43.5545C20.6245 43.6911 20.7611 43.7935 20.966 43.9642C21.0684 43.896 21.2391 43.7594 21.3757 43.6569C21.4781 43.7252 21.5464 43.7935 21.5464 43.8277C21.5123 44.2374 21.444 44.613 21.3757 45.0227C21.0001 47.0372 21.1708 49.0516 21.4098 51.0661C21.6488 53.2171 21.9903 55.334 22.2634 57.4851C22.3317 57.929 22.4683 58.4753 21.7171 58.7143C21.5464 58.7484 21.444 59.2264 21.4098 59.4996C21.2391 60.5922 21.1025 61.6848 20.966 62.8115C20.8977 63.2554 20.8635 63.6651 20.7952 64.1772C21.4098 64.1772 21.5805 63.5285 22.161 63.2895C21.8537 63.8358 21.5123 64.1772 21.1367 64.4504C20.7952 64.6894 20.6587 64.9625 20.5562 65.3723C20.2831 66.4649 19.9416 67.5916 19.6344 68.6842C19.4295 69.3671 18.9173 69.7768 18.371 70.2206C18.0638 70.4596 17.7565 70.7328 17.4833 71.0401C17.2102 71.3474 17.0053 71.723 17.2443 72.1327C17.415 72.44 17.5516 72.4741 18.371 72.4058C18.7808 71.8595 18.7466 71.0059 19.5661 70.4596C19.2588 71.1084 18.7466 71.5522 19.0198 72.201C19.4295 72.2693 19.4636 71.9278 19.5661 71.723C19.6685 71.484 19.8051 71.2791 20.0441 71.0742C20.0099 71.3815 19.9758 71.6547 19.9416 71.9961C20.8294 72.1668 21.5805 71.8254 22.2976 71.484C22.5366 71.3815 22.7073 71.0401 22.7756 70.7669C23.356 68.7183 23.834 66.6697 24.1413 64.5528C24.312 63.4944 24.6876 62.4701 24.9266 61.4457C25.3705 59.602 25.8485 57.7924 26.2582 55.9486C26.3265 55.5731 26.3265 55.1633 26.2924 54.7536C26.1899 53.8317 25.9851 52.8757 25.8826 51.9538C25.8143 51.4075 25.9168 50.8954 25.9851 50.3491C26.2241 48.7785 26.3606 47.2079 26.1216 45.6031C25.9168 44.2374 25.4046 43.0082 24.6535 41.8815C24.0389 40.8913 23.3219 39.9353 22.7414 38.911C21.9903 37.6477 21.5123 36.3161 21.3074 34.8479C20.8977 31.9457 21.2391 29.2142 22.8097 26.6535C23.834 25.0146 24.8242 23.3415 25.8826 21.6002C25.7119 21.6343 25.5412 21.5661 25.4388 21.6685C24.8583 22.1124 24.2779 22.5904 23.6974 23.0684C23.3219 23.3757 22.9121 23.5805 22.4 23.5122C21.5464 23.3757 20.6245 23.3757 19.8051 23.1367C18.7466 22.8294 17.7906 23.1367 17.2443 23.8195C16.22 25.0146 14.8543 25.5267 13.4885 26.073L13.4202 26.1413C13.4202 26.2096 13.3519 26.2779 13.3861 26.312C14.1714 28.0192 14.0007 29.863 14.1031 31.6384C14.2055 33.448 14.1031 35.2918 14.069 37.1014C14.069 37.3062 14.1031 37.477 14.1372 37.8525C14.6835 37.3062 15.0933 36.8624 15.5371 36.4527H15.3664ZM24.073 11.7669C23.8682 12.1083 23.6292 12.4497 23.4243 12.757C23.0829 13.2692 22.6731 13.6789 22.5707 14.3959C22.8438 14.5666 23.0829 14.7032 23.356 14.8739C23.8682 13.6789 24.312 12.518 25.3705 11.7669C24.7217 12.7912 23.9706 13.7813 23.6633 15.0788C24.4827 15.3861 25.2339 15.7275 25.9851 15.9665C27.0094 16.2738 27.9654 16.1714 28.8873 15.6251C30.2189 14.8056 31.448 13.8838 32.6089 12.8595C33.2235 12.3473 33.5991 11.6644 33.7698 10.8791C33.9405 10.0597 33.5649 8.93295 32.8821 8.59151C32.3699 8.31836 31.7553 8.1135 31.1749 8.04521C29.4677 7.94278 27.8288 7.60135 26.2924 6.91848C24.79 6.26975 23.2194 5.72345 21.5805 5.38202C20.7269 5.2113 20.0782 5.4503 19.4295 5.96246C18.9856 6.26975 18.5418 6.57704 18.132 6.88433C17.8589 7.0892 17.5857 7.29406 17.3126 7.46477C17.0053 7.70378 16.937 7.97693 17.176 8.31836C17.3809 8.6598 17.5516 9.03538 17.7223 9.41096C18.6783 11.4254 20.0782 12.996 22.161 14.0545C22.4 13.7472 22.6048 13.4399 22.8439 13.1667C23.2194 12.6887 23.6633 12.2449 24.073 11.7669ZM54.4266 19.6199C54.0852 19.3126 53.7779 19.5516 53.5389 19.7223C52.7536 20.2345 51.9683 20.7466 51.0464 21.0539C49.9197 21.4636 48.8954 22.1465 47.8028 22.6928C46.9151 23.1025 46.0273 23.4781 45.1055 23.8537C44.6274 24.0244 44.1494 24.161 43.6714 24.2976C41.8277 24.9121 39.9839 25.6291 38.0036 25.7999C37.389 25.834 36.8086 25.9364 36.194 26.0389C34.1454 26.3462 32.2333 25.9706 30.4237 25.0487C30.0481 24.8438 29.6726 24.6048 29.1946 24.3658C28.9555 24.5707 28.6141 24.7414 28.4775 25.0146C27.4532 27.0632 27.3849 29.1459 28.3751 31.2628C28.4775 31.5018 28.6824 31.7408 28.8873 31.8774C29.9799 32.6286 31.1066 33.2773 32.4382 33.5163C33.6674 33.687 34.4868 34.4382 35.2721 35.2918C36.1598 36.2819 36.5013 37.5111 36.9793 38.7061C37.3549 39.5939 37.9012 40.345 38.6865 40.8913C40.3936 42.0863 42.1008 43.3155 43.7739 44.5105C43.9104 44.613 44.0129 44.7495 44.2177 44.9544C43.4666 45.091 42.9886 44.7837 42.5447 44.4081C41.9301 43.9301 41.3155 43.4862 40.6668 43.0424C39.8473 42.4961 39.0279 41.9839 38.2426 41.4376C37.4914 40.8913 36.911 40.2084 36.5354 39.3549C36.3306 38.8768 36.1598 38.3306 35.955 37.8525C35.1355 35.8381 33.8722 34.3358 31.6187 33.8919C30.3213 33.6529 29.2628 32.9017 28.2044 32.1847C27.9995 32.0481 27.8288 31.8774 27.7605 31.6384C27.3167 30.3751 26.8045 29.1118 27.0094 27.7119C27.2142 26.3462 27.6581 25.0487 28.2385 23.8195C27.5215 23.2732 26.8386 22.7269 26.1558 22.1465C26.0192 22.2831 25.9168 22.3855 25.8485 22.4879C24.7559 24.3658 23.4584 26.073 22.5707 28.0533C21.3415 30.8873 21.205 33.7212 22.1268 36.6234C22.6731 38.3306 23.7657 39.6963 24.7217 41.1645C25.5412 42.4278 26.2241 43.6911 26.4972 45.1934C26.8386 46.9347 26.8045 48.6761 26.4972 50.4174C26.2923 51.4417 26.3265 52.466 26.5314 53.5586C26.6679 53.3879 26.7704 53.3196 26.8045 53.2513C27.3508 51.4075 27.9312 49.5638 28.4775 47.7542C28.819 46.5933 29.0921 45.3983 29.4677 44.2715C29.6384 43.7252 29.9457 43.2131 30.2189 42.7351C30.2871 42.5985 30.492 42.5985 30.8334 42.4278C30.5944 43.0082 30.4237 43.3497 30.2871 43.7252C30.2189 43.9301 30.1847 44.1691 30.1847 44.4081C30.1506 44.7837 30.1847 45.1934 30.1164 45.569C29.9799 46.1153 29.7408 46.6616 29.5701 47.2079C29.3311 48.0273 29.1604 48.8126 29.0921 49.7004C30.492 50.2125 31.8578 50.2808 33.2576 50.1101C35.5453 49.8369 37.7304 49.2224 39.8815 48.4029C40.1546 48.3005 40.4278 48.1639 40.7009 48.0273C42.0667 47.3103 43.4324 46.5592 44.7982 45.8763C47.1199 44.7154 49.6465 43.9301 51.7976 42.3254C51.6952 41.9156 51.5586 41.54 51.4903 41.1645C51.422 40.8572 51.3537 40.584 51.3537 40.2767C51.3196 39.4573 51.3196 38.672 51.3196 37.8525C51.3537 36.7941 51.2172 35.6674 51.4562 34.643C52.0707 32.253 52.8902 29.9654 54.4608 27.9851C55.8607 26.2096 57.6703 25.3901 59.7872 25.0829C61.0505 24.9121 62.2455 24.639 63.3723 24.0927C65.4892 23.0684 67.1622 21.3953 69.0401 20.0637C69.0742 20.0296 69.1084 19.9613 69.1084 19.893C69.0742 19.8589 69.0401 19.7565 69.0059 19.7565C67.2988 19.2102 65.5916 18.7663 63.782 18.5956C61.5626 18.3907 59.3433 18.5956 57.124 18.8687C56.3045 18.8346 55.2802 18.937 54.4266 19.6199ZM8.05969 17.2298C7.30853 17.7078 6.62566 18.1859 5.94279 18.5956C5.49892 18.8687 4.98677 19.0736 4.50876 19.3467C3.82589 19.6882 3.79174 19.7906 3.89417 20.5418C4.03075 21.4636 3.68931 22.2489 3.27959 23.0342C2.86987 23.7513 2.49429 24.4683 1.57241 24.639C1.50413 24.639 1.43584 24.7756 1.40169 24.878C1.60656 26.073 2.25528 26.8925 3.45031 27.2339C4.67948 27.5753 5.90864 27.6778 7.13781 27.3022C8.7767 26.79 10.4156 26.2779 12.0545 25.7657C12.1228 25.7316 12.1569 25.6974 12.1911 25.6291C12.3959 24.1951 12.0545 22.966 10.8595 22.0782C10.7912 22.0099 10.7229 21.9416 10.6205 21.8734C10.3132 21.6002 10.2107 21.2929 10.279 20.8832C10.3473 20.4052 10.3815 19.9272 10.3473 19.4833C10.3132 18.6639 9.90344 18.0834 9.22057 17.6737C8.87914 17.4347 8.46941 17.3664 8.05969 17.2298ZM29.4677 51.7148C29.536 51.6465 29.6043 51.5783 29.6726 51.51C29.8774 51.6124 30.0823 51.6807 30.2871 51.7831C31.3115 52.3977 32.4382 52.5001 33.5991 52.3294C34.6575 52.1928 35.2721 51.5441 35.9891 50.5881C35.238 50.6222 34.6575 50.6564 34.1112 50.6905C33.1552 50.7247 32.2333 50.8271 31.3115 50.793C30.4579 50.793 29.5701 50.6905 28.7507 50.6564C28.2044 51.51 27.3508 54.2415 26.8045 56.8364C26.7704 57.0071 26.8045 57.2119 26.8045 57.5875C27.1118 57.1778 27.2825 56.9388 27.4874 56.6656C28.102 57.0412 28.6824 57.3485 29.2287 57.6558C29.8774 56.6656 30.1847 55.5731 31.0724 54.8902C30.5603 55.7779 30.0823 56.6998 29.5701 57.5875C29.9799 57.8948 30.2189 57.7582 30.3554 57.4509C30.5603 57.0754 30.731 56.6656 30.9359 56.2901C31.1749 55.8462 31.209 55.8462 31.6529 55.5389C31.3456 56.2901 30.6969 56.9047 30.6627 57.7924C32.9162 57.8607 35.6477 56.5632 36.0574 55.2999C36.8769 55.2999 36.911 55.2658 37.4231 54.3439C37.0817 53.8317 36.2281 53.661 36.2281 52.944C37.0134 51.7148 37.867 52.4318 38.584 52.7733C38.9596 52.466 39.2328 52.1928 39.5742 52.0221C40.7351 51.4417 41.0765 50.793 40.9399 49.2565C40.4619 49.3589 39.9839 49.4955 39.4718 49.5979C39.6083 49.9052 39.7108 50.1101 39.7791 50.3149C39.9156 50.793 39.6425 51.4417 39.1986 51.7148C38.7206 52.0221 38.3792 51.9538 37.867 51.51C37.3549 51.0661 36.6378 51.1002 36.1598 51.6124C35.7501 52.0563 35.4428 52.5343 35.1355 52.9099C34.6234 52.9099 34.1795 52.8416 33.7356 52.9099C32.3358 53.1147 31.0724 52.8416 29.8433 52.1587C29.6726 52.1246 29.5701 51.8856 29.4677 51.7148ZM37.7304 50.2467C37.1841 50.3149 37.1841 50.3149 36.9793 50.8271C37.5256 50.7588 37.5256 50.7588 37.7304 50.2467Z" fill="black"/>
<path d="M54.6682 59.3629C55.5901 59.4654 56.4778 58.7484 56.5119 57.8606C56.5119 57.4168 56.4436 57.007 56.4436 56.5632C59.1068 54.3438 62.1798 52.8415 65.321 51.4758C67.5745 50.4856 69.7938 49.4613 72.0131 48.437C72.5253 48.198 72.9691 47.8224 73.4471 47.5151C73.7886 47.2761 73.8569 46.9347 73.652 46.525C72.6618 44.5788 73.1057 42.7692 74.0617 40.9596C74.3007 40.5157 74.8129 40.106 74.3349 39.5255L74.369 39.5597C74.5056 39.3548 74.6422 39.15 74.8129 38.8427C74.5397 38.8085 74.3349 38.7744 74.13 38.7402L74.1642 38.7744C74.2666 38.672 74.369 38.4671 74.5056 38.4329C75.1543 38.3305 75.3933 37.8184 75.4958 37.3062C75.8372 35.9405 76.0079 34.5406 75.9738 33.1066C75.9738 32.5944 75.9396 32.1164 75.9738 31.6042C76.0079 30.0336 75.9396 28.463 75.3933 26.9266C75.3592 26.79 75.325 26.6534 75.2568 26.551C74.8129 26.0388 74.8812 25.4584 74.9836 24.8097C75.5982 24.9121 75.9396 24.5024 76.2128 24.0244C76.5542 23.5122 76.8956 23.0342 77.2029 22.5221V22.5562C77.6127 21.8733 78.0565 21.1905 78.4321 20.4734C79.3881 18.6638 80.549 16.9566 81.266 15.0105C81.505 14.3617 81.8806 13.7472 82.222 13.0984C82.5293 12.5521 82.5635 12.04 82.222 11.4937C81.9148 11.0498 81.7782 10.5035 81.505 10.0596C81.2319 9.58164 80.8222 9.61578 80.6173 10.0938C79.8661 11.9375 78.5004 13.3716 77.5102 15.0446C76.9981 15.8982 76.5201 16.8201 75.8372 17.5371C74.847 18.5614 73.6861 19.4491 72.5594 20.4051C72.5253 20.4393 72.4228 20.4051 72.2521 20.4051C72.3546 20.2003 72.3887 20.0296 72.4911 19.9271C73.0716 19.415 73.6861 18.937 74.2666 18.459C75.1543 17.7419 75.8713 16.8884 76.4518 15.9323C76.9639 15.0788 77.4761 14.191 77.9882 13.3374C78.2955 12.8594 78.6711 12.4156 78.9784 11.9375C79.3198 11.3571 79.6954 10.8108 80.0027 10.1962C81.0953 7.87446 81.3343 5.34784 81.4026 2.82121C81.4026 2.24077 81.4709 1.69448 81.5392 1.11404C81.5733 0.875031 81.7099 0.601883 81.8806 0.397022C82.2903 -0.149275 82.6318 -0.115131 83.1098 0.397022C84.0658 1.48962 84.6462 2.75293 84.5438 4.25524C84.4072 6.37214 84.4072 8.52319 84.0658 10.6059C83.8609 12.0058 83.2463 13.3716 82.6659 14.7032C81.6416 17.0591 80.2417 19.2101 78.8418 21.3612C77.9199 22.7611 77.0664 24.1951 76.0421 25.5608C75.8031 25.8681 75.8031 26.1754 75.9396 26.5168C76.7591 28.3606 76.6908 30.3409 76.5884 32.2871C76.5542 32.6285 76.5884 32.97 76.6225 33.3114C76.7591 34.7454 76.5884 36.1112 76.2811 37.5111C75.9055 39.4914 75.2909 41.3352 74.4032 43.1448C73.9252 44.1008 73.8227 45.0568 74.5397 45.9104C75.4275 46.9688 74.9495 47.959 73.8569 48.5736C71.6375 49.8027 69.5206 51.3051 67.1306 52.2269C67.0964 52.2269 67.0964 52.2611 67.0282 52.2952C66.8233 52.9098 66.9599 53.4561 67.3355 53.9683C67.5062 54.1731 67.6427 54.4121 67.8135 54.617C68.1208 54.9926 68.0866 55.334 67.8817 55.7437C67.1989 57.1436 66.516 58.5094 65.9014 59.9434C65.3893 61.1384 65.0137 62.4017 64.5698 63.6309C64.3991 64.1089 64.2284 64.5869 64.0918 65.0649C63.8187 66.1575 63.1016 66.8404 62.0432 67.0794C60.8823 67.3525 59.6873 67.5915 58.4581 67.7281C57.707 67.7964 57.1265 67.216 56.7509 66.6355C56.4095 66.1234 56.4778 65.5429 56.8534 64.9966C57.3997 64.2113 57.946 63.426 58.8678 62.948C59.5849 62.5724 59.7556 61.6506 59.858 60.8311C59.9946 59.602 60.097 58.3386 60.2336 57.1095C60.3019 56.6315 60.5067 56.1193 60.6775 55.6754C60.7457 55.5047 60.9165 55.4023 61.1896 55.1633C61.0189 56.2559 60.8482 57.1778 60.7116 58.0996C60.6775 58.4069 60.5409 58.8167 61.053 58.8508L61.0189 58.8167C60.8823 59.0898 60.7457 59.3971 60.6433 59.6702C61.4286 59.1922 62.0091 58.5094 62.8626 58.2362C62.0432 58.9874 61.2579 59.7385 60.4384 60.4897C60.4384 60.797 60.4043 61.1043 60.4384 61.3774C60.4726 61.5481 60.575 61.7189 60.7116 61.8213C61.1213 62.1969 61.1213 62.3334 60.6433 62.6066C60.097 62.9139 59.5166 63.2212 58.9703 63.5626C58.2874 64.0406 57.707 64.6211 57.3997 65.5429C57.8435 65.2698 58.185 65.0649 58.5947 64.8259C58.902 65.6795 57.6728 65.9185 58.1167 66.7721C58.5606 66.1234 58.9361 65.4405 59.7897 65.1674C59.8239 65.8844 59.0727 66.1917 59.0727 66.9428C59.5849 66.9087 60.0287 66.9428 60.4726 66.8404C61.4969 66.6355 62.3505 66.0551 63.1016 65.4064C63.4431 65.1332 63.6138 64.6211 63.7845 64.2113C64.3308 62.7432 64.8088 61.2067 65.3893 59.7385C65.8673 58.5094 66.4477 57.3143 67.0282 56.1535C67.3013 55.6072 67.3696 55.1974 67.0282 54.6511C66.6526 54.0366 66.3794 53.3537 66.0038 52.5684C65.3551 52.7732 64.5015 52.9098 63.7504 53.2513C62.3846 53.8658 61.0872 54.5487 59.7897 55.2316C59.4483 55.4023 59.1069 55.6754 58.7996 55.9486C58.3215 56.3242 58.0143 56.768 57.9118 57.4509C57.8094 58.1338 57.4338 58.7825 57.0582 59.3629C56.1705 60.7287 54.156 60.8311 53.1659 59.602C52.7561 59.0898 52.4489 58.4752 52.1757 57.8606C51.8001 57.0412 51.9026 56.2217 52.3464 55.4364C53.0293 54.139 53.917 53.0122 54.9755 51.9879C55.3852 51.6124 55.7266 51.1344 56.1705 50.7588C56.5802 50.4173 57.0582 50.1442 57.468 49.8369C58.5947 49.0516 58.6288 49.0516 58.185 47.72C57.8777 46.8323 57.3997 46.047 56.5461 45.5007C55.7949 45.0227 55.2145 44.3056 54.8048 43.3155C55.112 43.3496 55.3169 43.3496 55.4193 43.4179C55.7608 43.7593 56.0339 44.1349 56.3754 44.4764C57.0241 45.0909 57.707 45.7055 58.424 46.3201C58.6971 46.1494 58.9703 45.9445 59.4483 45.6031C58.5947 46.7298 58.5947 46.7298 59.0386 47.3444C59.4824 46.9347 59.9604 46.4908 60.4043 46.0811C60.4384 46.1152 60.4726 46.1494 60.5067 46.1835C60.0287 46.7981 59.5849 47.4127 59.0044 48.1297C59.9263 48.3004 60.2677 47.6176 60.8482 47.4468C61.4628 47.2761 62.0091 46.9347 62.5895 46.6615C61.6335 45.5348 60.7116 44.5446 59.8239 43.452C59.0386 42.496 58.2874 41.4717 57.8094 40.345C56.9558 38.3647 56.5119 36.316 56.7168 34.165C56.7509 33.8919 56.7851 33.6187 56.8534 33.3797C56.8875 33.3114 56.9558 33.209 57.1265 33.0041C57.1948 33.3456 57.2972 33.5504 57.2631 33.7211C56.8875 36.2819 57.5704 38.6037 58.7654 40.823C58.8678 41.0279 59.0044 41.2327 59.141 41.4034C59.2093 41.5059 59.3459 41.5742 59.4483 41.7107C60.4384 41.062 61.531 40.9937 62.6578 41.062C64.3308 41.1644 65.0137 41.6424 65.321 43.3155C65.4917 44.3056 65.9697 44.9544 66.7209 45.5348C67.5062 46.1152 67.6086 46.9006 67.1989 47.7883C66.516 49.2223 65.2868 49.9052 63.8187 50.2125C62.9309 50.3832 62.0432 50.5539 61.1213 50.6905C59.5166 50.8953 57.9801 51.3734 56.4778 52.0221C56.1705 52.1587 55.8974 52.3635 55.6583 52.6025C54.8389 53.3537 54.1219 54.2073 53.6097 55.1974C53.1317 56.1193 53.1659 57.0753 53.4049 58.2021C53.8146 57.8948 53.3707 57.0753 54.1902 57.3143C54.2243 57.7923 54.2585 58.3045 54.3267 58.7825C54.156 58.9191 54.2243 59.2947 54.6682 59.3629ZM58.0143 50.4173C59.5507 50.1442 60.9165 49.9052 62.3163 49.6662C63.2382 49.4955 64.1601 49.3589 65.0478 48.9492C65.8673 48.5394 66.3794 47.8907 66.6184 47.0713C66.7892 46.3543 66.1404 45.9445 65.6966 45.5007L65.6283 45.4324C65.1503 45.0227 64.8771 44.5446 64.7747 43.8959C64.6381 43.2813 64.365 42.7009 64.0577 42.1546C63.9211 41.9156 63.6479 41.6766 63.3748 41.6083C62.3505 41.4034 61.292 41.3693 60.3019 41.7449C60.097 41.8132 59.9263 42.018 59.7214 42.1546C60.814 43.8618 62.2822 45.1592 63.5797 46.7298C62.9651 47.1054 62.3163 47.4468 61.7018 47.7883C61.053 48.1639 60.3019 48.437 59.858 48.9833C59.3117 49.5296 58.5264 49.6662 58.0143 50.4173ZM82.2903 0.87503C81.9489 1.35304 81.983 1.96762 81.9489 2.51392C81.8123 4.63082 81.7099 6.74772 80.9929 8.86462C81.9489 9.06948 82.1196 9.99136 82.5635 10.7425C82.6659 10.6059 82.7342 10.5035 82.7683 10.4352C83.3146 8.83048 83.4512 7.1233 83.5536 5.45027C83.6219 4.66497 83.4512 3.84552 83.3146 3.06022C83.2122 2.54806 83.0073 2.03591 82.8366 1.52376C82.7683 1.25061 82.7001 0.943317 82.2903 0.87503Z" fill="black"/>
<path d="M13.4516 14.977C12.9394 14.977 12.7004 14.7721 12.6663 14.2941C12.598 13.6112 13.1101 12.8601 13.7589 12.6894C14.1686 12.5869 14.51 12.6894 14.749 12.9625C15.0222 13.2356 14.9539 13.5771 14.8173 13.8844C14.4417 14.7038 14.1003 15.0111 13.4516 14.977Z" fill="black"/>
<path d="M36.9141 15.5225C37.9384 15.7615 40.226 17.2979 41.9332 18.9027C41.1479 18.8344 40.6699 18.3905 40.1577 18.0149C39.6114 17.6394 38.9968 17.2979 38.4847 16.8882C37.9384 16.4785 37.2214 16.3419 36.9141 15.5225Z" fill="#F15748"/>
<path d="M38.582 12.5184C39.4015 12.0404 39.7771 12.0404 42.85 12.5867C43.6353 12.7232 44.3864 12.9622 45.001 13.6792C43.8743 13.4061 42.8841 13.0988 41.8598 12.9281C40.8014 12.7232 39.7771 12.6549 38.582 12.5184Z" fill="#F15748"/>
<path d="M41.8615 6.57812C40.3592 8.08044 38.9593 9.51447 37.457 11.0851C37.5253 10.8119 37.5253 10.6071 37.6277 10.5388C38.8911 9.27547 40.1544 8.01215 41.4177 6.78299C41.486 6.68056 41.6225 6.68056 41.8615 6.57812Z" fill="#F15748"/>
<path d="M54.7026 59.3962C54.4295 58.7134 54.2246 58.0305 54.8392 57.3135C55.1806 58.1329 55.1123 58.8158 54.7026 59.3962Z" fill="black"/>
<path d="M77.1308 21.6697C77.1308 21.9429 77.1308 22.216 77.1308 22.4892V22.455C77.0284 22.4209 76.8918 22.4209 76.8576 22.3526C76.6186 21.5331 76.3796 20.6795 76.1406 19.826C76.2089 19.7577 76.3113 19.6894 76.3796 19.6211C76.4821 19.826 76.5845 19.9967 76.7211 20.2015L76.6869 20.1674C76.8576 20.7137 76.9942 21.2258 77.1308 21.6697Z" fill="black"/>
<path d="M16.1155 12.1774C15.5692 11.9384 15.057 11.7677 14.4766 11.4946C14.9887 10.9483 15.3643 11.2556 15.7399 11.4263C16.0813 11.5629 16.0813 11.597 16.1155 12.1774Z" fill="black"/>
<path d="M20.7969 66.3612C20.9334 65.3028 21.5139 64.8248 22.1968 64.415C21.787 64.9955 21.3432 65.5759 20.7969 66.3612Z" fill="black"/>
<path d="M76.7578 20.2696C76.7578 19.9965 76.7578 19.7575 76.7578 19.4502C77.3383 20.0306 77.4748 20.7818 77.1334 21.6695H77.1675C76.9968 21.2257 76.8602 20.7135 76.7578 20.2696Z" fill="black"/>
<path d="M73.477 40.1055C72.999 40.5835 72.521 41.0956 72.043 41.5736C72.3161 40.8225 72.7941 40.3786 73.477 40.1055Z" fill="black"/>
<path d="M72.6612 39.6963C72.388 40.0377 72.149 40.345 71.7734 40.823C71.9442 40.0719 71.9442 40.0719 72.6612 39.6963Z" fill="black"/>
<path d="M15.3672 36.4865C15.5379 36.2475 15.7086 36.0085 15.8793 35.7354C15.9476 35.8036 15.9818 35.8378 16.0501 35.9061C15.8111 36.0768 15.6062 36.2816 15.3672 36.4865Z" fill="black"/>
<path d="M24.0742 11.7665C24.1769 11.5954 24.2796 11.39 24.4165 11.1504C24.5877 11.6296 24.2796 11.6638 24.0742 11.7665Z" fill="black"/>
<path d="M6.42304 21.19C6.25232 21.4973 6.0816 21.7363 5.74017 21.5315C5.67188 21.4973 5.67188 21.2583 5.70602 21.19C5.94503 20.951 6.18403 20.8827 6.42304 21.19Z" fill="black"/>
<path d="M7.85834 20.5428C7.72142 20.6797 7.61873 20.8508 7.58449 20.8508C7.44757 20.8166 7.34488 20.6797 7.24219 20.6112C7.34488 20.5428 7.41334 20.3716 7.51603 20.3716C7.5845 20.3374 7.68719 20.4743 7.85834 20.5428Z" fill="black"/>
<path d="M6.62775 22.5918C6.73044 22.7287 6.86736 22.8656 6.86736 22.9341C6.86736 23.0368 6.69621 23.1737 6.62775 23.1737C6.52506 23.1737 6.38813 23.0368 6.38813 22.9341C6.3539 22.8314 6.49082 22.7287 6.62775 22.5918Z" fill="black"/>
<path d="M13.7958 13.5444C13.7958 13.7156 13.6589 13.8525 13.4878 13.8525C13.3166 13.8525 13.1797 13.7156 13.1797 13.5444C13.1797 13.3733 13.3166 13.2363 13.4878 13.2363C13.6589 13.2363 13.7958 13.3733 13.7958 13.5444Z" fill="white"/>
<path d="M0.790654 22.3845C0.790654 22.3504 0.790654 22.3162 0.790654 22.2821C0.790654 22.0772 0.858941 21.8382 0.995515 21.6675C1.13209 21.4285 1.37109 21.2578 1.57596 21.0529C1.64424 20.9846 1.64424 20.8822 1.57596 20.8139C1.50767 20.7456 1.40524 20.7456 1.33695 20.8139C1.13209 21.0188 0.893085 21.2236 0.722367 21.4968C0.551649 21.7358 0.449219 22.0089 0.449219 22.3162C0.449219 22.3504 0.449219 22.4187 0.449219 22.4869C0.449219 22.5894 0.551649 22.6235 0.619937 22.6235C0.756511 22.5552 0.824798 22.4528 0.790654 22.3845Z" fill="white"/>
</svg>
