<svg width="17" height="17" viewBox="0 0 17 17" fill="none" xmlns="http://www.w3.org/2000/svg">
<circle cx="8.49833" cy="8.50028" r="7.89286" fill="#129D6F"/>
<path d="M17 8.5C17 6.81886 16.5015 5.17547 15.5675 3.77766C14.6335 2.37984 13.306 1.29037 11.7528 0.647028C10.1996 0.00368291 8.49057 -0.164645 6.84173 0.163329C5.1929 0.491303 3.67834 1.30085 2.4896 2.4896C1.30085 3.67834 0.491303 5.1929 0.163329 6.84173C-0.164645 8.49057 0.00368291 10.1996 0.647028 11.7528C1.29037 13.306 2.37984 14.6335 3.77766 15.5675C5.17547 16.5015 6.81886 17 8.5 17C10.7543 17 12.9164 16.1045 14.5104 14.5104C16.1045 12.9164 17 10.7543 17 8.5ZM8.5 15.4889C7.11773 15.4889 5.7665 15.079 4.61718 14.311C3.46787 13.5431 2.57208 12.4516 2.04311 11.1745C1.51414 9.89748 1.37574 8.49225 1.6454 7.13654C1.91507 5.78083 2.5807 4.53553 3.55811 3.55811C4.53553 2.5807 5.78083 1.91507 7.13654 1.6454C8.49225 1.37574 9.89748 1.51414 11.1745 2.04311C12.4516 2.57208 13.5431 3.46787 14.311 4.61718C15.079 5.7665 15.4889 7.11773 15.4889 8.5C15.4868 10.3529 14.7498 12.1294 13.4396 13.4396C12.1294 14.7498 10.3529 15.4868 8.5 15.4889Z" fill="white"/>
<path d="M8.50204 5.25016C8.65078 5.25016 8.79617 5.20605 8.91984 5.12342C9.04351 5.04078 9.1399 4.92333 9.19682 4.78591C9.25374 4.6485 9.26863 4.49729 9.23961 4.35141C9.2106 4.20553 9.13897 4.07153 9.0338 3.96636C8.92863 3.86119 8.79463 3.78956 8.64875 3.76054C8.50287 3.73153 8.35166 3.74642 8.21424 3.80334C8.07683 3.86026 7.95938 3.95665 7.87674 4.08032C7.79411 4.20399 7.75 4.34938 7.75 4.49812C7.75 4.59688 7.76945 4.69467 7.80724 4.78591C7.84504 4.87716 7.90043 4.96006 7.97027 5.02989C8.0401 5.09973 8.123 5.15512 8.21425 5.19292C8.30549 5.23071 8.40328 5.25016 8.50204 5.25016Z" fill="white"/>
<path d="M9.82926 12.1364C9.569 12.053 9.25097 11.8084 9.25097 11.1106V6.53014C9.25097 6.51387 9.24776 6.49776 9.24154 6.48273C9.23531 6.4677 9.22619 6.45404 9.21468 6.44254C9.20318 6.43103 9.18952 6.42191 9.17449 6.41568C9.15946 6.40945 9.14335 6.40625 9.12708 6.40625H7.30135C7.24023 6.40625 7.17971 6.41829 7.12324 6.44167C7.06678 6.46506 7.01547 6.49934 6.97225 6.54256C6.92904 6.58577 6.89475 6.63708 6.87137 6.69355C6.84798 6.75001 6.83594 6.81053 6.83594 6.87165C6.83678 6.97167 6.8695 7.06881 6.92933 7.14896C6.98916 7.22912 7.07299 7.28811 7.16864 7.31736C7.42888 7.40078 7.74689 7.64544 7.74689 8.34314V11.1107C7.74689 11.8084 7.42888 12.053 7.16864 12.1364C7.07299 12.1657 6.98916 12.2247 6.92933 12.3048C6.8695 12.385 6.83679 12.4821 6.83594 12.5822C6.83594 12.6433 6.84798 12.7038 6.87137 12.7603C6.89475 12.8167 6.92904 12.868 6.97225 12.9112C7.01547 12.9545 7.06678 12.9887 7.12324 13.0121C7.17971 13.0355 7.24023 13.0475 7.30135 13.0475H9.69656C9.75768 13.0475 9.81819 13.0355 9.87466 13.0121C9.93112 12.9887 9.98243 12.9545 10.0256 12.9112C10.0689 12.868 10.1031 12.8167 10.1265 12.7603C10.1499 12.7038 10.162 12.6433 10.162 12.5822C10.1611 12.4821 10.1284 12.385 10.0686 12.3048C10.0087 12.2247 9.92491 12.1657 9.82926 12.1364Z" fill="white"/>
</svg>
