<svg width="100" height="54" viewBox="0 0 100 54" fill="none" xmlns="http://www.w3.org/2000/svg">
<path d="M99.253 37.0236C98.5922 39.0621 97.1697 40.3165 95.5344 41.3581C89.755 45.0655 83.3932 47.4736 76.8297 49.3217C73.212 50.3409 69.6166 51.4273 65.9429 52.1778C59.5138 53.4882 52.9616 53.6226 46.4429 53.4546C39.5658 53.2866 32.6776 52.9618 25.8341 52.2562C22.2275 51.8978 18.7106 50.6209 15.1601 49.7473C10.8927 48.6944 6.79332 47.2048 2.90677 45.1327C0.162658 43.6766 -0.341362 43.0158 0.185059 40.0925C0.890687 36.1387 1.55151 32.1514 2.58195 28.276C3.39959 25.1735 4.77724 22.2278 5.85248 19.2037C6.65892 16.93 7.44295 14.6563 8.17098 12.3602C8.87661 10.1201 10.0975 8.32803 12.1807 7.20798C13.3568 6.56956 14.5552 5.95353 15.7425 5.3375C17.2321 4.55347 18.733 3.92625 19.6178 2.23498C20.0994 1.29414 21.3539 0.745323 22.3171 0.106897C22.586 -0.0723099 23.0788 0.0844958 24.0756 0.0844958C23.0564 0.980532 22.4627 1.45095 21.9251 1.97737C20.2003 3.70224 20.6931 5.74072 23.0452 6.43515C24.7476 6.93917 26.4949 7.34239 28.3094 7.824C28.5894 9.33607 28.119 11.0609 29.7206 12.2034C31.0983 13.1778 32.5095 13.6258 34.2008 13.6706C36.1609 13.7154 36.5193 11.5202 38.3002 11.0833C38.5354 11.5314 38.7482 11.9794 38.9946 12.4162C39.9242 14.0066 41.6379 14.8019 43.5532 14.4995C45.3117 14.2307 46.5325 13.3458 46.8909 11.4978C46.9581 11.1505 46.9469 10.7697 47.0813 10.4449C47.4845 9.50407 48.0894 8.95525 49.1646 9.57128C49.243 9.61608 49.3102 9.67208 49.3886 9.70568C53.5552 11.7778 56.5569 9.62728 57.1393 4.86709C57.2961 3.59024 56.9489 2.24618 56.8033 0.599715C58.3154 0.47651 59.917 0.118097 61.4627 0.263703C66.3573 0.70052 71.2855 1.12614 76.1129 1.98857C78.5098 2.41419 80.7947 3.67984 83.0236 4.78868C85.0956 5.83033 85.5997 8.08161 86.4061 10.0417C87.1117 11.7554 87.6269 13.5698 88.4222 15.2387C90.9647 20.5701 93.6416 25.8455 96.2065 31.1657C96.7553 32.3194 98.8274 35.8363 99.253 37.0236Z" fill="#F15748"/>
<path d="M85.0592 14.8033C85.0256 14.0193 85.0032 13.2464 84.9696 12.3392C82.4271 13.336 80.3102 14.2993 78.1037 15.0049C74.2059 16.2705 70.185 17.2002 66.3432 18.6226C62.4119 20.0787 58.3349 20.5715 54.2691 20.8515C45.3536 21.434 36.4268 22.0948 27.4665 21.7476C22.4487 21.5572 17.8341 19.9331 13.2755 18.085C12.0883 17.6034 11.1026 16.6178 9.87058 15.7553C9.28815 16.7858 8.59372 17.6482 8.31371 18.6226C6.56644 24.6261 4.93118 30.6631 3.21751 36.8234C18.1589 43.9468 34.0075 45.3469 50.1586 45.7501C49.7554 45.9069 49.3521 46.1533 48.9265 46.2205C40.5598 47.5198 32.3499 46.4781 24.1735 44.6749C22.2583 44.2493 20.2758 44.1037 18.3605 43.6892C16.3556 43.2636 14.3732 42.7148 12.4019 42.1548C11.3938 41.8748 10.4306 41.4828 9.08654 41.0235C8.91854 42.6364 8.77293 43.9244 8.62733 45.3469C9.83698 45.8621 10.8674 46.3885 11.9539 46.747C19.7158 49.4015 27.6681 50.8687 35.9116 50.8015C40.739 50.7567 45.5664 51.2271 50.3938 51.1935C59.3878 51.1599 68.1465 49.8159 76.7933 47.083C82.8303 45.1901 88.2849 42.1772 94.0419 39.7355C95.0948 39.2875 95.9572 38.425 96.9541 37.8314C97.6485 37.417 98.4101 37.1258 99.2838 37.0026C98.6229 39.041 97.1893 40.2955 95.5652 41.3371C89.7858 45.0445 83.4239 47.4414 76.8493 49.2895C73.2427 50.3087 69.6362 51.3951 65.9624 52.1456C59.5446 53.456 52.9923 53.5904 46.4624 53.4224C39.5854 53.2432 32.6971 52.9184 25.8536 52.224C22.2471 51.8656 18.7301 50.5775 15.1796 49.7039C10.9122 48.651 6.81285 47.1726 2.9263 45.1005C0.182189 43.6444 -0.321831 42.9836 0.20459 40.0603C0.921418 36.1065 1.58224 32.1192 2.61269 28.2438C3.43032 25.1525 4.80797 22.1956 5.88322 19.1715C6.68965 16.909 7.47368 14.6241 8.20171 12.328C8.89614 10.0991 10.117 8.30703 12.2003 7.17578C13.3763 6.53736 14.586 5.93253 15.7732 5.30531C17.2517 4.52128 18.7525 3.89405 19.6374 2.20278C20.119 1.27315 21.3734 0.713126 22.3479 0.0859011C22.6167 -0.093306 23.1095 0.0634997 24.1063 0.0634997C23.0871 0.959535 22.4935 1.42995 21.9559 1.95637C20.2198 3.68124 20.7238 5.71973 23.0647 6.41416C24.7784 6.91817 26.5144 7.32139 28.3289 7.80301C28.6089 9.31507 28.1385 11.0511 29.7402 12.1824C31.1178 13.1568 32.5291 13.616 34.2203 13.6496C36.1804 13.6944 36.5388 11.5104 38.3197 11.0623C38.5549 11.5104 38.7677 11.9584 39.0141 12.3952C39.9438 13.9969 41.6574 14.7809 43.5727 14.4897C45.3312 14.2209 46.552 13.3248 46.9105 11.488C46.9777 11.1407 46.9665 10.7599 47.1009 10.4351C47.5041 9.49427 48.1089 8.94545 49.1841 9.55028C49.2626 9.59508 49.3298 9.65108 49.4082 9.69588C53.5747 11.7568 56.5764 9.61748 57.1477 4.84609C57.3045 3.56924 56.9573 2.23639 56.8116 0.589922C58.3237 0.466717 59.9254 0.108301 61.471 0.242707C66.3656 0.679524 71.2826 1.10514 76.1212 1.96758C78.5181 2.39319 80.803 3.65884 83.0207 4.77889C85.104 5.80933 85.5968 8.07182 86.4032 10.0207C87.1089 11.7456 87.6241 13.5488 88.4305 15.2289C90.973 20.5491 93.6499 25.8245 96.2148 31.1447C96.7524 32.2424 97.0885 33.4408 97.5253 34.6169C86.8176 42.4236 74.6764 45.4589 62.0983 47.2734C61.135 47.419 59.9702 47.6654 58.7381 46.2877C61.6166 45.9517 64.1367 45.7725 66.612 45.3469C69.1657 44.9101 71.7082 44.3277 74.2171 43.6892C76.726 43.0508 79.2461 42.3788 81.6654 41.4939C84.0959 40.5979 86.4368 39.4443 88.7665 38.3354C91.085 37.2266 93.3475 35.9945 95.8004 34.7513C95.2068 33.3288 94.7364 31.9848 94.1203 30.7191C91.8466 26.0485 89.5394 21.4116 87.2433 16.741C86.7617 15.7553 86.2464 14.8257 84.992 14.6913C85.0256 14.7473 85.0592 14.8033 85.0592 14.8033ZM77.8573 4.68929C77.4205 3.75965 76.7485 3.35643 75.5948 3.64764C75.2924 6.53736 74.99 9.41587 74.6876 12.2944C74.3403 10.7599 74.4524 9.25906 74.4972 7.7582C74.542 6.27975 74.5084 4.79009 74.5084 3.37883C70.6778 2.31479 61.2022 1.34035 58.7829 1.81077C59.8694 4.81249 58.8277 7.5678 57.0133 9.78549C54.986 12.272 51.9395 12.5184 48.9937 11.7904C47.0561 16.0129 40.9294 17.021 37.3117 13.9745C34.8364 15.2177 32.2603 15.2737 29.841 14.0529C28.6537 13.4592 27.1417 12.2944 26.9513 11.1855C26.604 9.14706 25.4056 8.58704 23.8599 8.03822C21.9895 7.37739 19.8614 7.15338 18.9205 4.9693C17.2517 5.97734 15.762 6.78377 14.3732 7.74701C13.2083 8.55344 12.0211 9.40467 11.125 10.4687C9.33295 12.608 9.66897 13.672 12.5811 15.2849C12.5811 13.6384 12.5811 12.1152 12.5811 10.5919C13.1747 12.0704 13.3203 13.5712 13.3539 15.0609C13.3763 16.1809 13.7571 16.9314 14.8548 17.3122C17.2181 18.1298 19.5254 19.1043 21.9223 19.7987C23.6919 20.3027 25.54 20.6163 27.2761 19.3059C27.8585 18.869 28.7881 18.8242 29.5722 18.7234C33.2011 18.253 36.8637 17.9842 40.459 17.3458C46.6864 16.2593 52.9475 16.2257 59.1973 16.7074C64.3832 17.0994 69.3113 16.4162 74.2507 14.9825C76.4236 14.3553 77.7677 13.4032 77.6445 10.9615C77.5773 9.53908 77.6445 8.10542 77.7005 6.68296C77.7229 5.99974 77.8349 5.32771 77.9133 4.63328C79.3134 7.34379 77.9917 10.2111 78.2829 13.0784C80.4446 13.0784 81.9903 12.0928 83.2223 10.6367C84.4096 9.24786 84.3088 7.73581 82.9199 6.62696C81.4862 5.45091 79.9294 4.38687 77.8573 4.68929ZM31.4986 20.1011C40.515 20.5379 49.4306 19.5971 58.3125 18.197C49.2738 17.301 40.3246 17.7826 31.4986 20.1011ZM6.18563 42.9836C5.68161 39.2987 5.68161 39.2987 3.10551 39.1307C2.56788 42.334 3.77753 43.7228 7.9441 44.5181C7.72009 43.2188 8.64973 41.83 7.24967 40.4187C6.86885 41.3259 6.58884 42.0204 6.18563 42.9836Z" fill="black"/>
<path d="M78.7969 23.2939C80.2529 20.785 82.7394 19.8106 85.2707 18.9033C83.1202 20.3594 80.9586 21.8266 78.7969 23.2939Z" fill="black"/>
<path d="M81.744 16.8857C80.6464 18.3978 78.9215 18.8122 77.499 19.7419C77.3758 19.5291 77.2638 19.305 77.1406 19.0922C78.6863 18.3754 80.232 17.6474 81.7888 16.9305L81.744 16.8857Z" fill="black"/>
<path d="M81.787 16.9302C82.8734 16.2133 83.9711 15.4965 85.0575 14.7797L85.0127 14.7349C83.9263 15.4517 82.8398 16.1685 81.7422 16.8854L81.787 16.9302Z" fill="black"/>
<path d="M14.9428 8.91064C15.3685 10.1763 15.7941 11.4307 16.2309 12.6964C16.0853 12.7524 15.9397 12.7972 15.7941 12.8532C15.3236 11.61 14.8532 10.3555 14.3828 9.11225C14.5732 9.04505 14.7636 8.97785 14.9428 8.91064Z" fill="black"/>
</svg>
