<svg width="95" height="53" viewBox="0 0 95 53" fill="none" xmlns="http://www.w3.org/2000/svg">
<path d="M10.8708 12.773L0.566406 46.0047L31.222 51.0225L68.0267 51.1569L88.5683 42.611L92.1301 43.0814L94.8294 38.086L86.5186 14.1282L80.504 6.08632L58.4167 0.217285L24.793 2.52457L12.7525 7.44157L10.8708 12.773Z" fill="#F15748"/>
<path d="M29.5586 21.4315C29.973 21.1627 30.2418 20.9947 30.4994 20.8267C30.6898 21.1739 30.9363 21.4987 31.0259 21.8795C31.0483 21.9467 30.4882 22.3275 30.2642 22.2715C30.0178 22.2043 29.861 21.8123 29.5586 21.4315Z" fill="black"/>
<path d="M24.751 17.8901C25.0422 18.383 25.2214 18.719 25.4006 19.0438C25.1206 19.2006 24.7398 19.5478 24.5942 19.4694C24.2806 19.3014 24.0902 18.8982 23.8438 18.607C24.0902 18.4166 24.3366 18.2149 24.751 17.8901Z" fill="black"/>
<path d="M18.5121 17.0178C19.0497 15.8865 19.9458 14.8561 21.1442 14.4641C21.8386 14.2289 22.5891 14.2177 23.3283 14.2961C25.6244 14.5313 27.7525 15.5393 29.8358 16.5362C30.6646 16.9282 31.5046 17.3314 32.1766 17.9586C32.9047 18.6194 33.4087 19.5043 34.2263 20.0755C34.932 20.5683 35.7944 20.7699 36.5784 21.1059C37.9785 21.7108 39.1769 22.7972 39.9162 24.1413C40.0842 24.4437 40.2074 24.8469 39.961 25.0821C39.849 25.1941 39.6809 25.2389 39.5241 25.2613C38.7401 25.3733 37.9561 25.2389 37.1832 25.0933C31.4598 23.9845 25.8148 22.2596 19.9794 22.0132C17.1232 21.89 17.6497 18.8435 18.5121 17.0178Z" fill="white"/>
<path d="M58.1947 20.8135C58.2619 19.0326 59.55 17.5766 60.7708 16.2773C61.8909 15.0789 63.0557 13.858 64.579 13.2532C66.0238 12.6708 67.6703 12.7268 69.1488 13.2308C70.6272 13.7236 71.9153 14.6644 73.0129 15.7845C74.077 16.8709 74.9842 18.3718 74.5922 19.8279C74.4018 20.5223 73.9202 21.1271 73.3937 21.6087C71.4001 23.4008 68.5775 23.8824 65.9118 24.1624C64.0638 24.364 62.1373 24.5432 60.278 24.2856C58.7884 24.0728 58.1387 22.1799 58.1947 20.8135Z" fill="white"/>
<path d="M18.8949 17.4206C19.0629 16.547 19.5669 15.6846 20.3846 15.3262C21.415 14.8669 22.6807 15.3598 23.4535 16.1998C25.0552 17.9247 26.3544 22.0688 23.0503 22.6177C19.9478 23.1329 18.4021 19.9856 18.8949 17.4206Z" fill="#BCBCBB"/>
<path d="M62.6992 23.8504C64.3905 19.6838 68.7139 16.7269 73.2164 16.6709C73.4628 19.1686 72.3092 21.7335 70.2819 23.212C68.2546 24.6792 65.4545 24.9928 63.1584 24.0184" fill="#BCBCBB"/>
<path d="M1.77964 44.2561C-0.225244 43.1136 -0.214042 43.1136 0.267577 41.008C2.14925 32.6188 4.72535 24.4425 7.69347 16.3782C8.3319 14.6645 9.02633 12.9956 9.56395 11.2484C10.012 9.78112 11.4792 8.50427 12.7449 7.45142C16.2282 4.57291 20.4844 3.48646 24.7854 2.52323C31.1696 1.11197 37.6099 0.484745 44.1621 0.12633C50.0872 -0.187282 55.945 0.159934 61.8252 0.339141C67.3918 0.518349 72.8353 1.59359 78.1219 3.40806C81.1012 4.4385 83.4757 6.28658 85.2902 8.80668C85.9846 9.78112 86.2758 11.0356 86.5558 11.6964C87.4071 12.6932 88.2359 13.2645 88.4599 14.0149C89.5351 17.6102 90.5992 21.2168 91.372 24.8793C92.3128 29.3371 93.2985 33.7725 94.8217 38.0846C95.3594 39.6191 94.0713 42.184 92.1224 43.0688C88.1351 44.8609 84.0805 46.5522 79.9811 48.0642C77.3938 49.0163 74.6609 49.6435 71.9616 50.2707C69.1727 50.9092 66.3838 51.5812 63.5613 51.8836C58.9467 52.3764 54.2985 52.746 49.6615 52.8356C45.4614 52.914 41.25 52.6564 37.061 52.3764C26.443 51.6708 15.8138 50.9428 5.64379 47.3698C4.08693 46.821 2.45166 46.5074 0.569988 45.9922C1.09641 45.1745 1.42122 44.6817 1.73484 44.1889C2.22765 44.2449 2.69807 44.3345 3.19089 44.3793C3.69491 44.4241 4.22133 44.3233 4.69175 44.4465C8.62311 45.6001 12.4761 47.2802 16.4858 47.8402C23.7325 48.8483 31.0688 49.3523 38.3827 49.7667C44.4421 50.1027 50.5128 50.9204 56.6058 50.1699C59.798 49.7779 62.9901 49.3859 66.171 48.9827C73.9553 48.0082 81.3364 45.5777 88.5495 42.5984C89.6023 42.1616 90.5768 41.4672 91.4952 40.7728C92.5928 39.9327 92.8953 38.7903 92.5704 37.4238C91.3608 32.3836 90.2296 27.3322 88.9639 22.3144C88.2695 19.5927 87.3622 16.9158 86.511 14.1157C84.9541 15.6838 83.7669 17.3526 82.1764 18.3719C77.2482 21.5416 71.816 23.6697 66.0254 24.5881C59.4059 25.641 52.7193 26.1002 46.0102 26.145C42.5493 26.1786 39.0771 26.201 35.6722 25.3945C35.157 25.2713 34.6081 25.2265 34.0817 25.2265C29.2095 25.2937 24.4829 24.2521 19.8236 23.0536C17.3483 22.4152 14.9962 21.1608 12.7337 19.9287C11.6584 19.3463 10.8856 18.1927 9.86636 17.1734C9.58635 17.6998 9.36234 17.991 9.27274 18.3159C7.62627 24.9017 5.99101 31.4876 4.37814 38.0846C4.13173 39.0815 4.43414 40.2687 3.02289 40.7167C2.75408 40.8064 2.70927 41.624 2.55247 42.0944C2.29486 42.8336 2.03725 43.5393 1.77964 44.2561ZM31.9424 20.9592C31.7744 20.3543 31.696 20.0183 31.584 19.6711C30.6768 16.6806 29.9264 16.143 26.947 16.815C25.7374 17.0838 24.9198 16.6918 23.9565 16.1766C20.8876 14.5301 18.5803 15.8182 18.3675 19.2231C17.3819 19.1895 17.2587 18.4951 17.2475 17.7446C17.2027 15.5157 19.9132 13.018 22.2317 13.6565C24.8414 14.3733 27.4063 14.7541 30.072 14.6981C30.3296 14.6869 30.632 14.7653 30.8448 14.8885C31.8192 15.4261 32.7041 15.0229 33.6673 14.7541C36.4114 13.9925 39.1779 13.1637 41.978 12.7492C47.7015 11.8868 53.4025 12.7044 59.0923 13.3541C61.2092 13.6005 63.2701 13.9589 65.3982 12.9508C66.5294 12.4244 68.0639 12.4804 69.3519 12.6708C71.424 12.9508 72.9585 14.2053 73.7537 16.1878C74.0113 16.8374 74.1681 17.6102 72.9473 17.9686C72.6225 17.4086 72.32 16.7926 71.9392 16.2326C70.3712 13.9477 66.3278 13.2085 65.2302 15.2357C64.3117 16.9494 62.9677 17.3078 61.4892 17.8454C60.9068 18.0582 60.3132 18.3159 59.798 18.6519C58.8123 19.2791 58.3083 20.2087 58.5771 21.396C58.8683 22.6616 59.7195 23.4121 60.9516 23.6697C61.4668 23.7817 62.0156 23.6361 62.5533 23.6025C68.9151 23.0984 74.7281 20.7464 80.306 17.8454C81.6612 17.151 82.7253 15.7622 83.6997 14.5077C84.8869 12.9844 84.7749 11.394 83.5989 9.82592C82.1316 7.85464 80.3732 6.19697 77.9875 5.40174C75.781 4.67371 73.5745 3.86728 71.312 3.44166C61.4108 1.58239 51.3976 1.50399 41.362 1.9296C39.4803 2.00801 37.5763 1.9744 35.7394 2.32162C30.6432 3.30726 25.5582 4.3601 20.5292 5.58095C17.3595 6.33138 14.4809 7.84344 12.2297 10.2515C11.5912 10.9348 10.8072 11.954 10.8744 12.7604C11.0648 14.8885 11.5464 17.1846 13.6297 18.3159C16.049 19.6375 18.5579 21.0824 21.2012 21.6312C26.7118 22.7736 32.3345 23.3561 37.9123 24.1401C38.4387 24.2185 38.9987 24.0505 39.9396 23.9721C37.4755 21.6984 35.0898 20.5111 31.9424 20.9592ZM61.9148 15.3253C61.2316 15.2917 60.5372 15.3141 59.8652 15.2021C54.0297 14.1493 48.1495 13.7909 42.258 14.3845C40.578 14.5525 38.9091 14.9893 37.285 15.4597C36.4226 15.7062 35.997 17.1286 34.6305 16.3782C34.4289 16.2662 33.2529 17.2518 33.0961 17.879C32.8721 18.7751 33.8465 18.8871 34.5633 19.0103C37.5427 19.5031 39.9508 21.0488 41.7204 23.3785C42.5157 24.4089 43.3557 24.6441 44.4421 24.6553C47.0294 24.6553 49.6391 24.7001 52.2264 24.5769C54.0521 24.4761 55.8666 24.1177 57.7707 23.8713C56.2026 20.2087 56.0794 18.6295 61.9148 15.3253Z" fill="black"/>
<path d="M20.844 16.6255C21.852 16.7039 22.5129 17.1183 22.4568 18.2607C22.4008 19.4928 21.4264 20.3552 20.172 20.2656C19.1975 20.1984 18.5927 19.4592 18.7047 18.4735C18.8279 17.3311 19.7127 16.5695 20.844 16.6255Z" fill="black"/>
<path d="M66.4062 16.9295C66.9887 16.5039 67.5375 15.9887 68.1759 15.6975C68.9599 15.3391 69.9232 15.4623 69.9792 16.4479C70.0016 17.0079 69.3408 17.9152 68.7695 18.1168C68.1759 18.3296 67.3471 17.904 66.6303 17.7472C66.5519 17.4671 66.4735 17.1983 66.4062 16.9295Z" fill="black"/>
<path d="M25.3672 19.4162C26.4536 18.8674 26.9801 18.4082 27.5401 18.3746C28.3241 18.3186 29.2313 18.5426 29.0969 19.6626C28.9849 20.6595 28.1449 20.9843 27.3497 20.8275C26.7784 20.7155 26.3304 20.1442 25.3672 19.4162Z" fill="black"/>
<path d="M70.7237 39.9324C67.2964 40.4252 63.813 40.6044 60.3633 40.9068C60.3633 41.1196 60.3745 41.3436 60.3745 41.5564C61.4721 41.6124 62.5698 41.758 63.6786 41.7244C71.5189 41.478 79.0904 39.8092 86.5051 37.3563C88.2524 36.785 89.9213 35.8666 92.1165 36.0682C92.2173 36.7738 92.2957 37.4459 92.3854 38.1067C93.3934 37.3227 93.7294 36.785 93.9646 35.8666C93.9534 35.8554 93.9422 35.8442 93.9198 35.8218C93.7966 35.6538 93.6398 35.497 93.483 35.3626C93.1694 35.0826 92.4974 34.6457 92.0157 34.3993C91.7133 34.2313 91.4221 34.1081 91.1421 34.0073C91.1757 34.2761 91.1869 34.5337 91.1981 34.7354C87.7932 35.8106 84.433 37.0314 80.9721 37.9051C77.6008 38.7675 74.1622 39.4283 70.7237 39.9324Z" fill="black"/>
<path d="M34.6187 42.4756C26.3976 41.3332 18.1989 39.9331 10.1569 37.8723C8.52167 37.4578 6.93121 36.797 5.29594 36.3602C4.87032 36.2482 4.3775 36.3154 3.77268 36.3826C3.73908 36.6066 3.70548 36.8306 3.67188 37.0546C5.17273 38.9811 5.23994 40.1571 4.10869 42.0836C4.1423 42.106 4.1647 42.1284 4.1983 42.1508C4.41111 42.3188 4.64631 42.4644 4.89272 42.61C5.30714 41.3668 5.72156 40.146 6.16957 38.7795C7.16641 38.9587 7.99525 39.1043 8.85768 39.2499C8.88008 40.8516 8.90248 42.2404 8.92488 44.2117C9.55211 42.3412 10.0001 41.0532 10.4593 39.7091C20.5621 41.6804 30.2393 44.1221 40.2973 43.6181C38.4941 42.7109 36.534 42.7557 34.6187 42.4756Z" fill="black"/>
<path d="M86.7359 18.2804C86.7023 18.2356 86.6687 18.1908 86.6463 18.146C85.4479 18.93 84.3838 19.5797 83.3982 20.3413C82.9166 20.7109 82.5918 21.2709 82.2109 21.7637C83.8574 20.7893 85.5039 19.8037 87.0943 18.8628C86.9711 18.6612 86.8591 18.4708 86.7359 18.2804Z" fill="black"/>
<path d="M81.0742 27.3627C81.8358 25.4586 83.3815 24.4394 85.3864 24.0474C83.9415 25.1562 82.5079 26.2538 81.0742 27.3627Z" fill="black"/>
<path d="M82.0362 21.855C81.1962 22.415 80.3562 22.975 79.5273 23.535C80.0314 22.3366 80.8714 21.7542 82.0922 21.8998C82.1034 21.8886 82.0362 21.855 82.0362 21.855Z" fill="black"/>
</svg>
