<svg width="98" height="54" viewBox="0 0 98 54" fill="none" xmlns="http://www.w3.org/2000/svg">
<path d="M11.3799 13.599L0.257812 46.8307L40.2098 53.1702L69.5774 51.7253L95.2376 43.8626L88.2933 13.431L83.9364 6.76673L63.5515 0.438477L30.387 1.82733L18.1113 7.44995L11.3799 13.599Z" fill="#F15748"/>
<path d="M22.7592 8.77112C25.1001 6.81104 28.169 5.62379 31.0364 6.34062C31.9212 6.56463 32.7836 6.95665 33.6797 7.02385C36.3902 7.22546 38.5631 4.57095 41.184 3.78692C44.2305 2.87968 47.7362 4.98536 48.6211 8.24469C50.4243 7.24785 52.2724 6.22861 54.2773 5.8926C56.2822 5.55659 58.4886 6.01581 59.8775 7.59507C60.2695 8.05429 60.6055 8.58071 61.1096 8.87192C61.6248 9.16313 62.252 9.12953 62.8344 9.14073C68.121 9.15193 73.2956 12.1088 76.275 16.813C75.7597 15.9842 64.6713 18.1011 63.2264 18.2243C58.7015 18.5939 54.1541 18.8179 49.6179 18.8739C40.5791 18.9747 31.518 18.3587 22.6248 16.6674C20.8551 16.3314 17.8422 16.5218 18.1782 14.2705C18.4247 12.5121 21.5384 9.79036 22.7592 8.77112Z" fill="white"/>
<path d="M23.9235 9.54444C27.0597 9.26443 30.1174 10.4293 33.1527 11.2581C40.5674 13.2742 48.3405 13.3302 55.9232 14.4054C57.6481 14.6406 59.8658 15.6711 59.5186 17.5304C59.2162 19.132 57.2897 19.4904 55.7776 19.468C47.1309 19.3784 38.4841 18.7176 29.927 17.4968C27.7765 17.1943 25.6484 16.8583 23.5203 16.4887C22.3891 16.2871 18.3233 16.2311 17.6289 15.2455C15.6912 12.5014 22.3219 9.69004 23.9235 9.54444Z" fill="#BCBCBB"/>
<path d="M59.0916 11.9072C59.5508 12.5009 60.2116 13.0497 60.122 13.2849C59.9204 13.7665 59.3268 14.0913 58.8788 14.4945C58.5204 14.0353 57.9828 13.6097 57.882 13.0833C57.826 12.8145 58.554 12.4 59.0916 11.9072Z" fill="black"/>
<path d="M44.4997 11.5921C43.7493 12.0066 43.3236 12.2418 42.8868 12.477C42.6292 11.9394 42.2596 11.4241 42.1924 10.8529C42.1588 10.6289 42.9876 10.0465 43.0996 10.1249C43.5701 10.4385 43.9061 10.9425 44.4997 11.5921Z" fill="black"/>
<path d="M32.9844 14.0569C33.7348 13.6425 34.2388 13.2953 34.81 13.1049C34.8996 13.0713 35.5269 13.9897 35.4149 14.1577C35.1013 14.6394 34.586 14.9978 34.0596 15.2554C33.9476 15.3114 33.4996 14.6506 32.9844 14.0569Z" fill="black"/>
<path d="M95.8531 41.3188C96.5699 41.2292 97.2084 41.1508 97.8468 41.0948C97.8804 41.3636 97.9924 41.6436 97.9028 41.7108C97.0292 42.4724 96.2227 43.3797 95.2259 43.8837C90.2081 46.4038 85.0895 48.7559 79.5341 49.8759C74.5051 50.884 69.4537 51.7576 64.4135 52.6872C63.2598 52.9 62.0726 52.9561 60.9861 53.3145C58.9924 53.9977 57.01 53.9193 54.9715 53.7961C52.653 53.6505 50.3233 53.9417 48.0048 53.8521C45.3951 53.7513 42.7966 53.4937 40.1981 53.1913C35.8635 52.6872 31.5401 52.0488 27.1944 51.5672C21.4149 50.9176 15.6243 50.4023 9.85608 49.7415C7.44799 49.4615 5.07349 48.9687 2.699 48.4871C0.380509 47.9943 -0.493126 46.5046 0.268504 44.2085C1.72456 39.7843 3.40463 35.4385 4.81588 31.0032C6.68636 25.0893 8.44483 19.1307 11.3793 13.6201C11.5138 13.3625 11.6258 13.0713 11.6706 12.8024C12.197 8.9831 14.6947 7.03422 18.0324 5.57816C25.6039 2.24043 33.657 1.08678 41.7774 0.392352C49.024 -0.234873 56.3043 -0.0332638 63.5734 0.459556C70.8873 0.974776 77.686 3.14766 83.947 6.81021C85.8735 7.93025 87.2624 10.0135 88.8192 11.716C89.1552 12.0968 89.2224 12.78 89.2672 13.3289C89.4016 14.7513 89.2785 16.2298 89.6145 17.6074C91.2721 24.5069 93.0306 31.3952 94.7891 38.2611C95.0355 39.2467 95.4723 40.2323 95.8531 41.3188ZM3.72944 45.0149C8.69124 46.0342 13.205 47.311 17.7972 47.8262C25.1111 48.6551 32.5034 48.9911 39.8509 49.5175C41.3069 49.6183 42.763 49.6855 44.2191 49.6519C50.6257 49.5399 57.0212 49.4055 63.4278 49.2711C67.1016 49.1927 70.7977 49.3271 74.3931 48.2855C80.1613 46.5942 85.9407 45.0373 91.7089 43.3685C94.0722 42.6852 94.0722 42.4388 93.445 40.0643C91.989 34.6097 90.6337 29.1327 89.2224 23.6781C88.3488 20.3067 87.464 16.9354 86.5343 13.4185C84.5407 14.1801 82.8718 14.7065 81.3149 15.4458C76.0507 17.9995 70.3833 18.8731 64.7047 19.4331C55.0275 20.4188 45.3279 19.4779 35.6395 18.9403C28.9416 18.5707 22.2998 17.6858 15.7923 15.9162C13.5746 15.3113 13.1826 15.5018 12.0626 17.5626C11.3345 18.9179 10.6625 20.3403 10.2033 21.8188C8.45603 27.363 6.74236 32.9296 5.1295 38.5187C4.56948 40.4339 4.27826 42.45 3.72944 45.0149ZM72.7802 16.0394C70.7193 11.8056 65.6903 9.33031 61.9606 9.69992C60.2581 9.87913 59.082 9.53192 57.906 8.18786C56.0355 6.05978 53.549 6.25019 51.6337 8.37827C51.4657 8.56868 51.2305 8.79269 50.9953 8.85989C50.0097 9.1511 49.0128 9.37511 47.8928 9.65512C47.5344 9.33031 47.0864 8.94949 46.6944 8.53508C43.5806 5.29815 42.1694 5.18614 38.5068 7.84065C37.3532 8.68068 36.0987 9.40871 34.8779 10.1815C32.2458 8.44547 29.6361 7.72865 26.5224 8.19906C23.1174 8.72549 21.7286 11.4808 19.7797 13.5641C17.7188 12.1192 17.5844 11.66 19.0405 10.1703C20.8437 8.33347 22.7814 6.6086 24.1479 5.33175C22.535 5.45495 17.114 7.58304 15.4899 9.0167C14.0563 10.2823 13.6642 11.8616 13.877 13.6313C26.1639 18.3355 66.8663 20.0491 72.7802 16.0394ZM29.0536 4.0213C29.0424 4.30131 29.0424 4.58132 29.0312 4.85013C31.4169 5.08534 33.8026 5.39895 36.1883 5.52216C36.7708 5.54456 37.3644 4.98453 37.9692 4.72692C40.7133 3.60688 43.5806 2.69965 46.3583 4.30131C48.4416 5.49976 50.4017 5.73496 52.7202 5.26454C55.3411 4.72692 57.9284 4.89493 59.9893 7.14622C60.4261 7.62784 61.3781 7.90785 62.0502 7.86305C64.0662 7.70625 65.8583 8.33347 67.6728 9.0727C68.9272 9.58792 70.2153 10.2487 71.5257 10.3383C74.9531 10.5624 77.8988 11.8616 80.6317 14.0009C82.5246 13.3177 84.3615 12.6232 86.3775 11.884C85.8959 11.2344 85.5599 10.764 85.2239 10.3047C83.5102 7.96385 80.8109 7.24702 78.4028 6.02618C72.9258 3.25966 67.1016 1.97162 61.0197 1.83721C59.7653 1.81481 58.4996 1.77001 57.234 1.79241C51.2305 1.89321 45.2271 1.80361 39.2461 2.18442C35.8299 2.41963 32.4586 3.39407 29.0536 4.0213ZM73.8442 12.4328C73.7434 12.6344 73.6538 12.8248 73.5418 13.0265C74.3483 13.7993 75.1659 14.5721 76.2635 15.625C76.6219 15.4906 77.5404 15.1657 78.4476 14.8409C78.4364 14.6505 78.4252 14.4489 78.4252 14.2585C76.8907 13.6425 75.3787 13.0377 73.8442 12.4328Z" fill="black"/>
<path d="M70.5625 40.4666C67.124 40.9706 63.6294 41.1386 60.1797 41.4522C60.1797 41.6874 60.1797 41.9226 60.1797 42.1578C61.2773 42.2362 62.375 42.393 63.4726 42.3706C71.3241 42.169 78.918 40.4106 86.3887 37.812C88.1472 37.2072 89.8273 36.2216 92.0226 36.4568C92.101 37.2184 92.1794 37.9577 92.2578 38.6633C93.277 37.8233 93.6242 37.2296 93.8818 36.244C93.8706 36.2328 93.8594 36.2216 93.837 36.188C93.7138 36.0088 93.557 35.8296 93.4114 35.684C93.109 35.3815 92.4482 34.8999 91.9554 34.6199C91.6529 34.4407 91.3729 34.2951 91.0817 34.1831C91.1041 34.4743 91.1153 34.7543 91.1265 34.9783C87.6992 36.1208 84.3167 37.4088 80.8333 38.3385C77.462 39.2569 74.0122 39.9513 70.5625 40.4666Z" fill="black"/>
<path d="M34.3963 42.9441C26.1864 41.6336 18.0212 40.0543 10.0129 37.7582C8.38885 37.2878 6.80959 36.5598 5.17433 36.0782C4.74871 35.955 4.25589 36.0222 3.65107 36.1006C3.61746 36.347 3.57266 36.5822 3.53906 36.8286C4.99512 38.9231 5.05112 40.2111 3.88628 42.2832C3.91988 42.3056 3.94228 42.3392 3.97588 42.3616C4.18869 42.552 4.4239 42.7088 4.65911 42.8544C5.09592 41.5104 5.54394 40.1887 6.01436 38.7103C7.0112 38.9119 7.82883 39.0799 8.69127 39.2479C8.68007 40.9952 8.68007 42.4848 8.66887 44.6353C9.34089 42.608 9.80011 41.2192 10.2817 39.7631C20.3509 41.9808 29.9833 44.7137 40.0525 44.2433C38.2716 43.2241 36.3228 43.2577 34.3963 42.9441Z" fill="black"/>
<path d="M87.5995 19.086C87.5659 19.03 87.5435 18.9852 87.5099 18.9292C86.3002 19.7692 85.2138 20.4637 84.2169 21.2813C83.7241 21.6733 83.3993 22.2893 82.9961 22.8158C84.665 21.7741 86.3338 20.7213 87.9355 19.702C87.8347 19.5004 87.7227 19.2876 87.5995 19.086Z" fill="black"/>
<path d="M81.7617 28.8977C82.557 26.8368 84.125 25.7504 86.1411 25.3359C84.6738 26.5232 83.229 27.6992 81.7617 28.8977Z" fill="black"/>
<path d="M82.8394 22.9282C81.9881 23.533 81.1369 24.1267 80.2969 24.7315C80.8233 23.4434 81.6745 22.8162 82.8842 22.973C82.9066 22.9618 82.8394 22.9282 82.8394 22.9282Z" fill="black"/>
</svg>
