<svg width="100" height="54" viewBox="0 0 100 54" fill="none" xmlns="http://www.w3.org/2000/svg">
<path d="M86.9718 12.0741L91.116 18.3911L98.2282 41.2176L62.0956 52.0933H37.9026L20.8444 51.0404L0.851562 41.5761L12.332 9.20677L21.9196 3.08012L36.4018 0.548824L52.8776 0L71.4928 2.63211L82.0212 6.03704L86.9718 12.0741Z" fill="#F15748"/>
<path d="M28.8647 52.3269C24.6758 51.3076 19.9604 51.0836 15.4354 49.3251C11.9297 47.9587 8.25593 47.0179 5.019 45.013C3.49574 44.0721 2.19649 42.7729 0.830036 41.5856C-0.0435991 40.8128 -0.189204 39.816 0.214012 38.7407C2.24129 33.4205 4.25737 28.1003 6.30705 22.7913C7.30389 20.2152 8.50234 17.7063 9.30877 15.063C10.2832 11.8149 12.1985 9.14915 14.3266 6.72985C16.2194 4.55697 19.154 3.68333 21.9205 3.07851C26.7031 2.03686 31.5417 1.16323 36.4026 0.558405C43.3245 -0.292829 50.3024 0.0543851 57.2691 0.199991C63.7317 0.345597 69.8024 2.26087 75.9626 3.77293C78.0347 4.27695 79.9724 5.341 82.0109 6.04663C86.1102 7.46908 88.3727 10.7284 89.9744 14.391C92.2145 19.532 94.1074 24.8298 96.0898 30.0828C97.1539 32.8941 98.1395 35.739 99.1028 38.5951C99.282 39.1439 99.3716 39.816 99.226 40.3648C99.1252 40.7232 98.2851 41.2496 98.2291 41.2048C97.3107 40.376 96.8739 41.3728 96.2466 41.6416C90.9152 43.8369 85.9198 46.7715 80.23 48.1379C76.4779 49.0339 72.8489 50.4676 69.108 51.4196C63.9333 52.7525 58.6355 53.5925 53.2817 53.4469C45.7102 53.2341 38.1387 52.8309 30.5672 52.5061C30.1304 52.4837 29.6936 52.4165 28.8647 52.3269ZM33.5801 15.9142C32.7289 16.631 31.8777 17.3479 30.8584 18.1879C33.6137 19.1847 34.6554 16.1158 37.0971 16.1494C35.9882 17.0903 35.0698 17.8743 33.8713 18.8823C34.689 19.1623 35.0698 19.3528 35.4618 19.4088C40.0316 20.2152 44.6014 21.0776 49.2048 21.7945C53.8977 22.5337 58.6131 22.9145 63.3621 22.5449C66.9687 22.2537 70.6088 22.2649 74.1482 21.6601C78.5163 20.9096 82.6717 19.42 85.5278 15.6342C87.0063 13.6741 87.0959 12.0501 85.2814 10.37C83.9821 9.17155 82.4029 8.16351 80.79 7.41308C75.2682 4.85938 69.3432 3.67213 63.4181 2.48488C61.6485 2.12647 59.834 1.88006 58.0419 1.79046C54.7714 1.63365 51.5009 1.77925 48.2415 1.57765C39.7964 1.04002 31.5753 2.40648 23.4549 4.44496C21.226 5.00498 19.0532 5.97942 16.9811 7.00986C14.3826 8.29792 14.1362 10.9076 16.4435 12.5653C18.1795 13.8085 20.1284 14.783 21.9877 15.8582C22.8053 16.3398 23.5333 16.351 24.351 15.7014C27.3975 13.2485 31.0936 12.1621 34.8122 11.546C38.5419 10.93 42.3501 9.31715 46.1918 11.2772C46.4607 11.4228 46.8751 11.2436 47.2111 11.2548C55.6562 11.5684 63.2837 14.727 70.8328 18.1543C72.1433 18.7591 72.1433 19.1175 71.1576 20.5288C70.3624 20.036 69.612 19.42 68.7719 19.0615C66.4871 18.0647 64.2022 17.0343 61.8277 16.2502C58.8035 15.2534 55.757 14.2678 52.6433 13.6629C46.5391 12.4645 40.4124 12.7333 34.3642 13.9093C32.1913 14.335 30.0856 15.1974 27.9799 15.9478C27.4983 16.1158 27.1287 16.6311 26.5687 17.1015C28.0807 17.8071 29.2568 17.7959 30.5112 17.1463C31.4969 16.6422 32.5833 16.3398 33.6249 15.9702L33.5801 15.9142ZM4.12297 35.8958C2.14049 39.3904 2.27489 40.1632 5.15341 42.1121C5.93744 42.6385 6.75507 43.1537 7.61751 43.5345C13.1505 45.9426 18.7395 48.2275 24.7094 49.3475C26.8263 49.7508 28.9768 49.9636 31.1272 50.1316C34.5546 50.378 37.9931 50.546 41.4317 50.6804C45.2062 50.8372 49.0144 51.1844 52.7777 50.9828C65.3782 50.2884 77.3851 46.9395 89.0672 42.2913C91.1504 41.4736 93.2449 40.656 95.2274 39.6368C97.5459 38.4495 97.5571 37.9791 95.9106 35.5934C91.352 38.8751 86.3902 41.4624 80.9692 42.8513C73.9129 44.6658 66.4871 45.1138 64.4262 44.1505C64.7734 43.8481 65.031 43.4337 65.3446 43.3665C66.7783 43.1201 68.2231 42.8401 69.668 42.7953C79.2892 42.5041 87.8127 39.2223 95.4626 33.6669C93.3233 27.8763 91.2624 22.1977 89.1456 16.5302C88.9664 16.0374 88.4959 15.6454 88.0703 15.0854C87.4319 15.8694 87.0175 16.5302 86.4687 17.0567C85.427 18.0647 84.419 19.1848 83.1981 19.9352C78.7627 22.6457 73.8569 24.169 68.7271 24.2586C62.8021 24.3706 56.8771 24.7962 50.952 23.6201C45.0382 22.4441 39.0236 21.8281 33.1321 20.596C28.5175 19.6328 24.0038 18.1207 19.3108 16.7991C17.1267 19.3192 16.7011 22.9257 14.8082 25.7482C15.637 22.9145 16.7347 20.204 17.8323 17.5047C18.4707 15.9254 18.4707 15.9254 16.5331 14.9846C14.6066 19.2968 12.6801 23.5865 10.7536 27.8875C10.6416 27.0027 10.8992 26.2858 11.1792 25.5802C12.5121 22.2985 13.9122 19.0391 15.2114 15.7574C15.917 13.9765 15.805 13.8645 13.6209 13.0693C10.5296 19.8456 6.78867 26.3642 4.75019 33.8797C7.98712 35.291 11.0448 36.9151 14.293 37.9567C25.2918 41.5184 36.4026 44.6546 48.0847 44.8338C49.832 44.8562 51.4785 45.3042 53.6401 46.2674C52.2849 46.5698 51.5345 46.8947 50.8176 46.8611C47.5471 46.7491 44.2318 46.8723 41.0284 46.3234C32.8633 44.901 24.8326 42.8961 16.9475 40.3088C12.6801 38.9199 8.47994 37.4079 4.12297 35.8958Z" fill="black"/>
<path d="M91.1187 29.3447C89.7298 25.8389 88.3298 22.3332 86.7617 18.3906C88.845 19.9139 91.1075 25.4693 91.1187 29.3447Z" fill="black"/>
<path d="M88.3628 27.7095C86.0891 26.0742 84.7227 23.1061 85.1707 20.978C86.3691 23.4981 87.366 25.5926 88.3628 27.7095Z" fill="black"/>
<path d="M33.6229 15.9711C34.3062 15.5903 34.9782 15.2207 35.6502 14.8511C35.7174 15.0079 35.7846 15.1759 35.8406 15.3327C35.0902 15.5231 34.3286 15.7359 33.5781 15.9263C33.5781 15.9151 33.6229 15.9711 33.6229 15.9711Z" fill="black"/>
</svg>
