<svg width="32" height="18" viewBox="0 0 32 18" fill="none" xmlns="http://www.w3.org/2000/svg">
<path d="M29.3438 17.4186H2.65621C1.19216 17.4186 0 16.2265 0 14.7624V3.23824C0 1.77419 1.19216 0.582031 2.65621 0.582031H29.3438C30.8078 0.582031 32 1.77419 32 3.23824V14.7624C32 16.2265 30.8078 17.4186 29.3438 17.4186Z" fill="url(#paint0_linear)"/>
<path d="M15.347 3.10156H13.1719V15.2532H15.347V3.10156Z" fill="white"/>
<path d="M19.3783 7.20312H17.2031V15.2554H19.3783V7.20312Z" fill="white"/>
<path d="M29.0906 15.2532L25.8383 10.997L28.8396 7.20091H26.2671L23.4017 10.882V3.10156H21.2266V15.2532H23.4017V11.1225L26.2671 15.2532H29.0906Z" fill="white"/>
<path d="M7.64496 7.11725C6.94431 7.11725 6.27503 7.29503 5.69986 7.60875V3.10156H3.53516V11.2375C3.53516 13.5068 5.37568 15.3578 7.65542 15.3578C9.93516 15.3578 11.7757 13.5173 11.7757 11.2375C11.7757 8.95777 9.9247 7.11725 7.64496 7.11725ZM7.64496 13.1826C6.56784 13.1826 5.69986 12.3146 5.69986 11.2375C5.69986 10.1604 6.56784 9.29241 7.64496 9.29241C8.72208 9.29241 9.59006 10.1604 9.59006 11.2375C9.59006 12.3146 8.72208 13.1826 7.64496 13.1826Z" fill="white"/>
<path d="M9.76277 6.36537C10.8312 6.36537 11.6974 5.49921 11.6974 4.43073C11.6974 3.36226 10.8312 2.49609 9.76277 2.49609C8.69429 2.49609 7.82812 3.36226 7.82812 4.43073C7.82812 5.49921 8.69429 6.36537 9.76277 6.36537Z" fill="url(#paint1_radial)"/>
<defs>
<linearGradient id="paint0_linear" x1="16" y1="17.4186" x2="16" y2="0.582031" gradientUnits="userSpaceOnUse">
<stop stop-color="#5A5A5A"/>
<stop offset="1"/>
</linearGradient>
<radialGradient id="paint1_radial" cx="0" cy="0" r="1" gradientUnits="userSpaceOnUse" gradientTransform="translate(8.18716 2.395) scale(6.34278)">
<stop stop-color="#FF0000"/>
<stop offset="0.495" stop-color="#E83E49"/>
<stop offset="1" stop-color="#FF00FF"/>
</radialGradient>
</defs>
</svg>
