<svg width="54" height="22" viewBox="0 0 54 22" fill="none" xmlns="http://www.w3.org/2000/svg">
<path d="M41.5441 9.819C41.3517 9.3274 41.2876 8.79306 41.1593 8.28009C40.796 6.8053 39.941 5.52288 39.0861 4.26183C38.8296 3.8771 38.5518 3.471 38.1456 3.25727C37.8464 3.08628 37.4831 3.04353 37.1411 3.02216C28.8053 2.06034 20.4055 1.35501 12.027 1.82523C10.1674 6.27096 12.775 11.8068 10.4667 16.0174C10.1461 16.5945 9.76135 17.1288 9.50486 17.7273C9.26975 18.3257 9.20563 19.0738 9.56898 19.6082C10.0392 20.3349 11.0438 20.4845 11.9201 20.5059C13.1384 20.57 14.5918 20.4417 15.1475 19.3731C15.3185 19.0524 15.3826 18.6891 15.5964 18.4112C15.9811 17.941 16.6651 17.8983 17.2635 17.8983C20.7261 17.8555 24.1672 17.8128 27.6298 17.7486C28.4847 17.7273 29.4038 17.7273 30.1519 18.1547C31.0923 18.6891 31.648 19.8219 32.6526 20.228C33.7213 20.6768 34.9182 20.1853 35.9655 19.6937C35.7732 18.9883 36.3075 18.2616 36.9701 17.9624C37.6327 17.6632 38.3808 17.6845 39.1075 17.7273C41.3945 17.8341 44.6433 18.5822 45.37 15.654C45.6906 14.3502 45.8188 13.0464 44.5578 12.3838C43.3608 11.764 42.0784 11.1442 41.5441 9.819Z" fill="white"/>
<path d="M33.6333 1.78246L10.913 0.884766L10.3359 1.39773L10.7634 15.6754L15.0168 15.9105L32.3081 16.0387L34.2318 15.7181L33.6333 1.78246Z" fill="#4EACB6"/>
<path d="M32.3546 15.9336C31.5637 15.9336 30.7729 15.9336 29.9821 15.9336C29.8111 15.9336 29.6401 15.9336 29.4691 15.955C28.9561 16.0405 28.5287 16.3824 28.1653 16.7672C27.9943 16.9382 27.8447 17.1519 27.7592 17.3656C27.7165 17.4511 27.6951 17.5794 27.7592 17.6649C27.802 17.7076 27.8661 17.7504 27.9302 17.7717C28.3577 17.9213 28.8279 17.8786 29.2768 17.8359C29.6401 17.7931 30.0035 17.7504 30.3668 17.729C30.5805 17.7076 30.7943 17.6862 31.008 17.6221C31.6065 17.4511 32.0981 16.9382 32.2263 16.3183" fill="#BCBCBB"/>
<path d="M15.3611 17.7715C15.4252 17.8356 15.5321 17.857 15.6176 17.8783C15.8954 17.9425 16.1733 17.9852 16.4512 18.0066C16.7504 18.028 17.0496 18.0066 17.3489 17.9852C18.8236 17.9211 20.2984 17.8356 21.7732 17.7715C22.0297 17.7501 22.3076 17.7287 22.4999 17.5791C22.6923 17.4081 22.7564 17.1089 22.6495 16.8952C22.4786 16.5532 22.0511 16.4677 21.6877 16.4036C20.0419 16.1684 18.3962 15.9975 16.729 15.8906C16.2588 15.8692 15.1046 15.5486 14.8268 16.1043C14.6771 16.4463 15.126 17.5364 15.3611 17.7715Z" fill="#BCBCBB"/>
<path d="M38.9583 8.38846C39.0865 8.1961 39.2789 8.00374 39.3216 7.76863C39.343 7.55489 39.2361 7.34115 39.1293 7.12741C38.8941 6.69994 38.6804 6.29384 38.4453 5.86636C38.3812 5.73812 38.2743 5.60988 38.1461 5.63125C38.0606 5.65263 38.0178 5.71675 37.9751 5.80224C37.4194 6.72131 36.8423 7.66176 36.2866 8.58083C36.2438 8.66632 36.1797 8.75182 36.1797 8.85869C36.1797 8.98693 36.2866 9.11517 36.4148 9.15792C36.543 9.20066 36.6713 9.20066 36.8209 9.20066C37.3339 9.20066 37.9323 9.28616 38.4239 9.17929C38.83 9.11517 38.7445 8.70907 38.9583 8.38846Z" fill="#BCBCBB"/>
<path d="M45.6491 18.283C45.5209 17.7915 45.4568 17.2785 45.4354 16.7655C44.8155 16.8083 44.1957 16.7869 43.5972 16.7655C43.3835 16.7441 43.1484 16.7441 42.9347 16.7441C42.6568 16.7655 42.4003 16.8083 42.1438 16.9151C42.0583 16.9579 41.9728 16.9793 41.9087 17.0434C41.8446 17.1075 41.8018 17.193 41.7591 17.2571C41.6095 17.535 41.4599 17.8769 41.6309 18.1548C41.8018 18.4327 42.1866 18.454 42.5072 18.4327C43.4049 18.4113 44.3026 18.4113 45.2216 18.4754" fill="#BCBCBB"/>
<path d="M15.531 18.2633C15.5097 18.3702 15.5097 18.4557 15.4883 18.5625C15.3814 19.161 15.1036 19.6526 14.6547 20.0373C14.3982 20.2511 14.099 20.4434 13.8211 20.6358C12.8166 21.3411 11.0853 21.5976 9.867 20.3793C9.67464 20.1869 9.4609 19.9946 9.28991 19.7808C8.6487 18.9259 8.39222 18.0068 8.86244 17.0022C9.1403 16.4252 9.52502 15.8908 10.038 15.4847C10.6151 15.0359 11.2563 14.8008 12.0044 14.9076C12.2181 14.9504 12.4532 14.9504 12.667 14.9504C13.1372 14.9504 13.5647 15.1427 13.9494 15.3992C14.0776 15.4847 14.2059 15.5702 14.3341 15.6557C14.5265 15.8267 14.7402 15.8694 14.9967 15.8908C16.6425 16.0618 18.2669 15.9763 19.9127 15.9549C21.0668 15.9336 22.2424 15.8908 23.3966 15.8694C23.7172 15.8694 24.0378 15.9122 24.3584 15.9336C25.2133 15.9549 26.0683 15.9549 26.9232 15.9549C27.9919 15.9549 29.082 15.9549 30.1507 15.9549C30.685 15.9549 31.2193 15.9122 31.7323 16.0832C31.9461 16.1473 32.1384 16.1473 32.3094 16.0191C32.6514 15.7839 33.0575 15.7198 33.4636 15.6343C33.5705 15.613 33.6773 15.5916 33.8056 15.5916C33.7842 15.3778 33.7628 15.1855 33.7414 14.9931C33.1857 14.6084 32.63 14.2023 32.0529 13.7962C32.6941 13.9244 33.1216 14.4374 33.7628 14.7153C33.7842 14.4374 33.8056 14.2237 33.8056 14.0099C33.8056 13.7107 33.7842 13.3901 33.7842 13.0909C33.8056 12.3642 33.8483 11.6588 33.8483 10.9321C33.8483 10.5901 33.8269 10.2482 33.8056 9.90617C33.7628 9.09397 33.6773 8.28177 33.6773 7.4482C33.656 6.82836 33.7414 6.22989 33.7842 5.61006C33.8697 4.52 33.8269 3.42994 33.7628 2.33988C33.7414 2.16889 33.8056 1.97652 33.8697 1.80553C33.8911 1.72004 34.0407 1.67729 34.1689 1.5918C34.1903 1.95515 34.1903 2.23301 34.2117 2.53224C34.3399 2.57499 34.4254 2.63911 34.5109 2.66048C35.3017 2.74598 36.0926 2.83147 36.9048 2.89559C37.4391 2.93834 37.9948 2.98109 38.5292 3.02384C38.5719 3.02384 38.6147 3.06658 38.6574 3.10933C38.636 3.2162 38.6147 3.34444 38.6147 3.40856C38.7429 3.53681 38.8925 3.60093 38.9566 3.72917C39.0849 3.94291 39.1704 4.19939 39.2345 4.4345C39.5551 5.61006 40.2177 6.61462 40.7093 7.70468C40.9444 8.19628 41.1795 8.68787 41.3932 9.17947C41.607 9.64969 41.949 10.0344 42.0986 10.5474C42.1199 10.6543 42.2696 10.7611 42.3764 10.8252C42.6757 10.9962 43.0176 11.1458 43.3169 11.3382C43.8298 11.6374 44.3214 11.9794 44.8344 12.2787C45.0481 12.4069 45.2619 12.5565 45.497 12.6634C45.7107 12.7489 45.7748 12.8985 45.7748 13.1122C45.7748 14.1382 45.8176 15.1641 45.7535 16.19C45.7107 16.8313 45.6894 17.4511 45.7535 18.0709C45.7962 18.3915 45.6894 18.6266 45.4542 18.8618C45.2619 18.7335 45.0481 18.6694 44.8344 18.7763C44.5993 18.6053 44.3428 18.6694 44.0863 18.6694C42.8894 18.6694 41.6925 18.6694 40.4955 18.648C40.3673 18.648 40.2177 18.6266 40.0894 18.6266C39.6833 18.6053 39.2772 18.5198 38.8711 18.5625C38.2727 18.6266 37.6742 18.648 37.0971 18.6053C37.0757 18.6053 37.033 18.648 37.0116 18.648C37.0116 18.6694 36.9902 18.6694 36.9902 18.6908C36.9902 18.8404 36.9689 18.99 36.9689 19.161C36.9689 19.9732 36.6483 20.6144 35.9429 21.0419C35.7078 21.1701 35.4513 21.2556 35.1949 21.3411C34.3613 21.6617 33.5491 21.5762 32.7369 21.2984C32.2239 21.1274 31.7537 20.8495 31.4545 20.4007C31.0056 19.7808 30.685 19.0755 30.6636 18.2633C30.6636 18.1564 30.6423 18.0709 30.6209 17.9213C30.4071 17.8786 30.1934 17.8358 29.9583 17.8358C29.5095 17.8358 29.0392 17.8786 28.569 17.8999C27.7141 17.9427 26.8591 18.0068 26.0042 18.0068C24.337 18.0068 22.6699 18.1351 20.9813 18.0709C19.6775 18.0282 18.3951 18.0709 17.0913 18.1992C17.0058 18.1992 16.9203 18.1778 16.8348 18.1778C16.4074 18.1778 15.9799 18.1778 15.531 18.1778C15.5524 18.2205 15.531 18.2419 15.531 18.2633ZM44.0222 17.558C43.9153 17.9427 43.9367 17.9854 44.1504 18.2205C44.3001 18.0282 44.0863 17.8358 44.1291 17.6435C44.2146 17.729 44.3001 17.8358 44.4069 17.9854C44.4711 17.7076 44.4924 17.4725 44.3856 17.2374C44.3642 17.1732 44.2146 17.1732 44.0863 17.1305C44.1077 17.3442 44.1291 17.4938 44.1291 17.6648C44.1077 17.6221 44.065 17.5793 44.0222 17.558ZM39.1062 5.97341C39.2131 6.35814 39.3414 6.72149 39.4696 7.08484C39.5337 7.27721 39.5978 7.42682 39.8971 7.38407C39.7902 7.14896 39.7047 6.93523 39.5978 6.72149C39.4696 6.40088 39.3414 6.0589 39.2131 5.7383C39.1704 5.63143 39.0635 5.52456 38.978 5.41769C39.0208 5.07571 38.9139 4.77648 38.636 4.54137C38.7429 4.8406 38.8711 5.11846 38.978 5.41769C39.0421 5.61006 39.0635 5.80242 39.1062 5.97341ZM33.7842 18.6694C34.0193 18.7976 34.2544 18.9473 34.4895 19.0755C34.5964 19.1396 34.7033 19.2037 34.8101 19.2679C34.9597 19.1182 34.917 19.0114 34.8101 18.9259C34.6391 18.7976 34.4468 18.6694 34.2758 18.5412C34.1903 18.477 34.1048 18.3915 34.0407 18.306C34.4254 18.3488 34.6819 18.648 35.0025 18.819C35.0452 18.3915 34.8101 17.9427 34.404 17.7503C33.9766 17.558 33.5277 17.4725 33.0575 17.5366C32.8224 17.5793 32.6728 17.7076 32.5445 17.9213C32.1384 18.648 32.8224 19.8022 33.6773 19.7808C33.7628 19.7808 33.8697 19.8022 33.9338 19.7595C34.0834 19.6312 34.233 19.6312 34.404 19.6526C34.4468 19.6526 34.4895 19.5671 34.5964 19.503C34.4682 19.3747 34.3613 19.2892 34.2544 19.1824C34.0834 19.0114 33.8483 18.9045 33.7842 18.6694ZM38.9994 14.6725C39.2345 14.8435 39.4696 14.9931 39.7047 15.1641C39.833 15.271 39.9612 15.3778 40.1108 15.5061C40.2604 15.3351 40.2177 15.1641 40.1963 15.0145C40.1536 14.2023 40.1108 13.4115 40.0894 12.6206C40.0681 12.1504 40.0894 11.6588 40.1108 11.1886C40.1108 11.039 40.1322 10.8894 40.1322 10.7611C40.3673 10.6756 40.4314 10.8039 40.4314 10.9535C40.4314 11.381 40.4528 11.8084 40.41 12.2359C40.3032 13.1336 40.4742 14.0099 40.4528 14.8862C40.4528 15.271 40.4742 15.6771 40.4742 16.0618C40.4742 16.3183 40.4955 16.5534 40.4955 16.8526C42.1199 16.9809 43.6802 16.7885 45.2191 16.8313C45.3474 15.8694 45.4115 15.8053 45.2191 15.0786C44.7917 15.0145 44.3428 14.9717 43.894 14.9076C43.723 14.3519 43.8726 13.1122 44.1504 12.5779C44.3428 12.7489 44.3214 12.9199 44.2787 13.1336C44.2359 13.3901 44.1718 13.6252 44.1291 13.8817C44.1077 14.074 44.1291 14.2878 44.1291 14.5443C44.3214 14.587 44.5138 14.6298 44.7917 14.6939C44.7062 14.5443 44.6848 14.4801 44.642 14.416C44.5993 14.3519 44.5565 14.3092 44.5138 14.245C44.5565 14.2237 44.5779 14.2023 44.5993 14.2023C44.7917 14.2878 44.984 14.3947 45.2619 14.5229C45.2191 14.3733 45.1978 14.245 45.155 14.2237C44.8558 14.1168 44.7062 13.8389 44.4283 13.5825C44.813 13.5611 45.0054 13.8176 45.2191 13.9886C45.3901 13.7107 45.3474 13.4756 45.1978 13.2405C44.9413 12.8985 44.642 12.5993 44.2573 12.4069C43.552 12.0435 42.8466 11.6374 42.1413 11.2741C41.8421 11.1245 41.6925 10.9107 41.5642 10.6115C41.3719 10.0985 41.094 9.62831 40.8589 9.13672C40.8161 9.05122 40.7306 8.9871 40.6238 8.85886C40.6024 9.02985 40.5597 9.11535 40.5597 9.20084C40.5597 9.32908 40.5597 9.4787 40.5597 9.60694C40.5597 9.94892 40.5383 10.2695 40.1963 10.4405C39.9398 10.5688 39.3414 10.4405 39.1062 10.1627C38.8711 9.84205 38.5719 9.73518 38.1872 9.71381C37.4605 9.67106 36.7124 9.60694 35.9857 9.54282C35.8788 9.54282 35.7719 9.54282 35.6865 9.52145C35.1735 9.45732 35.0666 9.30771 35.0239 8.79474C34.917 7.40545 34.8956 5.99478 34.917 4.60549C34.917 4.32763 34.9384 4.07115 35.088 3.77192C36.1994 3.75054 37.3109 3.92153 38.465 4.13527C38.4223 3.81466 38.4009 3.57955 38.2513 3.36582C36.9261 3.25895 35.601 3.15208 34.2758 3.04521C34.1689 3.32307 34.233 3.6223 34.233 3.90016C34.233 4.60549 34.233 5.28945 34.233 5.99478C34.233 6.5505 34.233 7.12759 34.2544 7.68331C34.2544 7.74743 34.2758 7.81155 34.2758 7.89704C34.2972 9.50007 34.3185 11.1031 34.3185 12.7061C34.3185 13.3473 34.2758 13.9672 34.2544 14.6084C34.233 14.9931 34.2544 15.3778 34.2544 15.7626C34.6178 15.9122 35.0239 16.0832 35.4086 16.2542C35.4727 16.2755 35.5368 16.3183 35.5796 16.361C35.8361 16.6603 36.178 16.703 36.5628 16.6816C37.0544 16.6603 37.546 16.6816 38.0376 16.7458C38.5933 16.8313 39.149 16.8313 39.7261 16.874C39.8543 16.874 40.0039 16.8526 40.1322 16.8313C40.3673 16.4893 40.1749 16.1473 40.2391 15.8694C39.7688 15.4206 39.3841 15.0359 38.9994 14.6725C39.0208 14.6511 38.9994 14.6725 38.9994 14.6725ZM38.5933 8.49551C38.5719 8.34589 38.5078 8.21765 38.4009 8.08941C38.294 7.96116 38.1444 7.87567 37.9948 7.7688C37.8666 7.66193 37.7383 7.57644 37.6742 7.40545C37.9948 7.61919 38.3154 7.83292 38.6147 8.02529C38.7643 7.91842 38.7856 7.81155 38.6788 7.70468C38.5292 7.55506 38.3795 7.42682 38.2299 7.27721C38.0589 7.12759 37.8879 6.99935 37.7811 6.78561C37.8879 6.87111 37.9948 6.93523 38.1017 7.02072C38.2299 7.10622 38.3582 7.19171 38.4864 7.27721C38.6147 7.3627 38.7215 7.4482 38.8498 7.53369C39.2131 7.23446 39.2131 7.21308 38.9139 6.9566C38.9139 6.74286 38.9566 6.5505 38.9139 6.40088C38.7429 5.82379 38.5292 5.2467 38.3154 4.64824C38.2727 4.49862 38.1872 4.37038 38.0162 4.32763C37.1612 4.1139 36.2849 4.00703 35.3872 4.0284C35.2376 4.28489 35.2162 4.52 35.2162 4.79785C35.2376 5.2467 35.1949 5.67418 35.2376 6.12302C35.2804 6.99935 35.3445 7.89704 35.4086 8.77337C35.43 9.02985 35.5368 9.13672 35.8147 9.15809C36.0071 9.17947 36.1994 9.15809 36.3704 9.17947C37.033 9.22221 37.6956 9.28633 38.3582 9.35046C38.4437 9.35046 38.5292 9.35046 38.6147 9.35046C38.6147 9.05122 38.636 8.77337 38.5933 8.49551ZM18.3951 17.4511C19.1005 17.4725 19.8058 17.4725 20.4897 17.4938C21.9004 17.5152 23.2897 17.5366 24.679 17.558C25.9614 17.558 27.2438 17.558 28.5263 17.5366C29.0606 17.5366 29.5736 17.4725 30.1079 17.4297C30.2789 17.0877 30.2789 16.7458 30.2575 16.361C25.8118 16.2114 21.3661 16.19 16.8776 16.4252C16.9203 16.703 16.9631 17.0022 17.0058 17.3229C17.476 17.4083 17.9249 17.4297 18.3951 17.4511ZM43.7657 17.1732C43.5947 17.1519 43.4665 17.1305 43.3382 17.1305C42.7825 17.1305 42.2482 17.1732 41.6925 17.1519C40.0681 17.0877 38.465 17.0022 36.8406 16.9381C36.6483 16.9381 36.4345 16.9381 36.1994 16.9381C36.2849 17.387 36.5414 17.7076 36.7551 18.0282C39.0635 18.1137 41.3505 18.1992 43.6161 18.2633C43.6802 18.2633 43.7443 18.2205 43.8298 18.1778C43.8085 17.8358 43.7871 17.5152 43.7657 17.1732ZM12.7097 18.2847C12.3464 18.0282 12.0044 17.7717 11.641 17.4725C11.8761 17.5793 12.1326 17.3442 12.3891 17.558C12.6028 17.729 12.8593 17.8358 13.1372 18.0068C13.2441 17.6862 13.1372 17.4297 12.9448 17.2587C12.496 16.8526 11.9616 16.6389 11.3418 16.8099C10.8929 16.9381 10.6578 17.3229 10.7006 17.7931C10.8288 18.9259 11.7693 19.2892 12.5601 19.161C12.9448 19.1182 13.1586 18.819 13.2227 18.306C13.0089 18.4129 12.8593 18.3915 12.7097 18.2847ZM40.1749 9.58557C40.1322 9.26496 39.7902 9.20084 39.662 8.90161C39.8543 8.9871 39.9826 9.02985 40.1108 9.09397C40.2391 8.581 40.1108 8.1749 39.7047 7.89704C39.4055 7.68331 39.1276 7.74743 39.0421 8.11078C38.9139 8.581 38.807 9.0726 39.149 9.54282C39.2559 9.69244 39.2772 9.94892 39.4696 10.0344C39.6192 10.0985 39.7902 10.1413 39.9398 10.184C39.9826 10.184 40.0681 10.0985 40.1108 10.0344C40.1322 9.99167 40.1108 9.8848 40.0681 9.86343C39.9184 9.73518 39.7475 9.60694 39.5765 9.50007C39.5978 9.4787 39.5978 9.43595 39.6192 9.41458C39.8116 9.41458 39.9612 9.50007 40.1749 9.58557ZM15.9585 17.8144C16.0226 17.3229 16.1081 16.8526 16.1723 16.3824C15.7448 16.2755 15.5097 16.2542 15.0608 16.361C15.2318 16.8313 15.4028 17.3015 15.5952 17.7931C15.6807 17.8144 15.8089 17.8144 15.9585 17.8144ZM30.7278 17.4297C30.856 17.1091 30.7919 16.7458 31.0697 16.4893C31.0484 16.6175 31.027 16.7458 31.0056 17.0022C31.2407 16.7885 31.4117 16.6389 31.6254 16.4679C31.2621 16.2114 30.8987 16.3183 30.5354 16.2542C30.4713 16.6389 30.4285 17.0022 30.3644 17.387C30.4926 17.4083 30.6209 17.4083 30.7278 17.4297ZM16.4287 16.4038C16.1936 16.6603 16.2364 16.9381 16.2364 17.2374C16.4074 17.2801 16.5784 17.3015 16.7707 17.3442C16.899 17.0236 16.7707 16.7671 16.6425 16.4252C16.5784 16.5534 16.5356 16.6389 16.4929 16.7244C16.4715 16.6389 16.4501 16.532 16.4287 16.4038ZM45.0268 18.0709C45.0481 18.1351 45.1336 18.1778 45.1978 18.2205C45.2405 18.1564 45.326 18.0923 45.326 18.0282C45.3046 17.7717 45.2833 17.5366 45.2405 17.1519C45.0054 17.5152 44.984 17.7931 45.0268 18.0709ZM44.8985 17.1732C44.813 17.1732 44.7275 17.1732 44.7275 17.1946C44.6207 17.387 44.642 17.6648 44.8344 18.1778C44.8558 17.7717 44.8772 17.4725 44.8985 17.1732Z" fill="black"/>
<path d="M10.7023 2.78818C11.3221 3.17291 11.8351 3.47214 12.3481 3.79275C12.2198 3.42939 11.8992 3.32252 11.6214 3.15153C11.3221 2.98054 11.0443 2.80955 10.7451 2.61719C10.7451 2.16834 10.7451 1.7195 10.7451 1.24927C11.0015 1.2279 11.2367 1.18515 11.4718 1.18515C12.3695 1.2279 13.2885 1.24927 14.1862 1.33477C15.9175 1.46301 17.6274 1.52713 19.3587 1.54851C20.6838 1.56988 22.0304 1.634 23.3556 1.69812C23.7617 1.7195 24.1678 1.7195 24.5739 1.7195C25.4716 1.76224 26.3906 1.78362 27.2883 1.82636C27.844 1.84774 28.4211 1.91186 28.9768 1.91186C29.4471 1.91186 29.9387 1.89048 30.4089 1.86911C31.1356 1.86911 31.8837 1.86911 32.6104 1.86911C32.8455 1.86911 33.0806 1.91186 33.3371 1.91186C33.4226 1.91186 33.5081 1.84774 33.6577 1.78362C33.5081 1.69812 33.4226 1.634 33.3371 1.634C32.4821 1.59125 31.6272 1.54851 30.7722 1.52713C30.5371 1.52713 30.302 1.61263 30.0669 1.634C29.5539 1.634 29.041 1.61263 28.528 1.61263C28.1646 1.59125 27.8227 1.54851 27.4593 1.54851C26.0914 1.50576 24.7235 1.46301 23.3556 1.42026C22.0304 1.37752 20.7052 1.33477 19.3587 1.29202C17.2213 1.18515 15.0839 1.09966 12.9679 0.88592C12.284 0.821799 11.6 0.88592 10.916 0.88592C10.5741 0.88592 10.3817 1.07828 10.3176 1.39889C10.2748 1.74087 10.2321 2.10422 10.2107 2.46758C10.1893 3.53626 10.168 4.58357 10.168 5.63089C10.168 6.2721 10.2107 6.93468 10.2107 7.57589C10.2107 9.00793 10.1893 10.44 10.168 11.872C10.168 12.6842 10.168 13.5178 10.168 14.33C10.168 14.3941 10.168 14.4582 10.168 14.5437C10.1893 14.843 10.2321 14.9498 10.3817 14.9498C10.6168 14.9285 10.6168 14.7147 10.6382 14.5651C10.7023 13.8811 10.7878 13.1972 10.7451 12.5132C10.6596 10.9957 10.6809 9.47815 10.6596 7.96062C10.6382 6.74232 10.5954 5.54539 10.5741 4.32709C10.5954 3.85687 10.6596 3.38665 10.7023 2.78818Z" fill="black"/>
<path d="M44.7914 11.1033C44.77 11.2743 44.8983 11.2956 45.0052 11.317C45.1975 11.3384 45.4113 11.3598 45.625 11.3811C47.0998 11.488 48.5959 11.6162 50.0707 11.659C51.0967 11.7017 52.1226 11.7017 53.1272 11.9155C53.1913 11.9368 53.2554 11.9368 53.3195 11.9368C53.3409 11.9368 53.3837 11.9155 53.4264 11.8941C53.4264 11.659 53.234 11.6376 53.0844 11.6162C52.5501 11.5521 51.9944 11.4666 51.46 11.4452C51.0112 11.4025 50.5623 11.4452 50.1348 11.4239C49.1303 11.3598 48.1257 11.2956 47.1212 11.2315C46.3731 11.1888 45.625 11.1246 44.8769 11.0819C44.8342 11.0391 44.8128 11.0605 44.7914 11.1033Z" fill="white"/>
<path d="M43.7266 9.30681C43.8548 9.34956 43.8976 9.3923 43.9617 9.37093C45.009 9.34956 46.0777 9.30681 47.125 9.28544C47.467 9.28544 47.8089 9.24269 48.1509 9.24269C48.557 9.24269 48.9631 9.22131 49.3692 9.24269C50.0104 9.28544 50.6516 9.34956 51.3142 9.3923C51.3997 9.3923 51.5066 9.34956 51.5707 9.32818C51.5921 9.11444 51.4639 9.09307 51.3356 9.09307C50.8226 9.0717 50.3097 9.05032 49.7967 9.02895C48.7066 8.96483 47.6166 8.9862 46.5265 9.05032C45.7357 9.09307 44.9235 9.05032 44.1327 9.02895C43.9617 9.05032 43.9617 9.02895 43.7266 9.30681Z" fill="white"/>
<path d="M0.570312 9.4557C0.655807 9.49845 0.762676 9.60532 0.848171 9.58395C1.74587 9.43433 2.64356 9.47708 3.56263 9.4557C4.37483 9.43433 5.20841 9.41296 6.02061 9.43433C6.55495 9.43433 7.11067 9.49845 7.64501 9.51982C7.83738 9.51982 8.05111 9.51982 8.35035 9.51982C8.2221 9.37021 8.17936 9.26334 8.09386 9.24197C7.94425 9.19922 7.79463 9.19922 7.64501 9.19922C6.66182 9.19922 5.67863 9.22059 4.67407 9.22059C3.77637 9.22059 2.8573 9.22059 1.9596 9.24197C1.51076 9.24197 1.04053 9.28471 0.591686 9.32746C0.591686 9.39158 0.591686 9.41296 0.570312 9.4557Z" fill="white"/>
<path d="M2.28135 11.1658C2.25998 11.3582 2.3241 11.465 2.47371 11.4437C3.5424 11.2299 4.61109 11.4009 5.67977 11.3795C6.29961 11.3582 6.89807 11.465 7.51791 11.5291C7.94539 11.5719 8.37286 11.636 8.77896 11.6574C8.84308 11.6574 8.92858 11.6146 8.9927 11.6146C9.01407 11.4009 8.9072 11.3795 8.77896 11.3582C8.24462 11.3154 7.73165 11.2299 7.19731 11.2085C5.72252 11.1658 4.22636 11.1444 2.75157 11.123C2.60196 11.123 2.45234 11.1444 2.28135 11.1658Z" fill="white"/>
<path d="M12.6237 3.36361C12.068 2.76514 11.2772 2.3163 10.8711 2.29492C10.8711 2.3163 10.8711 2.38042 10.8925 2.38042C11.4909 2.70102 12.068 3.043 12.6237 3.36361Z" fill="black"/>
<path d="M33.4665 15.3344C33.1886 14.8428 32.7184 14.565 32.2695 14.2871C32.2909 14.4795 32.4833 14.5436 32.6115 14.6505C32.7398 14.7787 32.8894 14.9069 33.0176 15.0352C33.1459 15.1634 33.2741 15.2917 33.4023 15.4199C33.4023 15.3985 33.4451 15.3772 33.4665 15.3344Z" fill="black"/>
<path d="M39.4298 11.4647C39.387 11.3579 39.387 11.3151 39.3656 11.2724C39.045 10.6098 38.9168 10.7594 38.2542 10.8449C38.1901 10.8449 38.126 10.8876 38.0618 10.909C38.0191 10.9304 37.9977 10.9731 37.9336 11.0159C37.9336 11.251 38.0832 11.3365 38.2542 11.4006C38.6389 11.5289 39.0023 11.6571 39.4298 11.4647Z" fill="black"/>
<path d="M38.7656 15.1855C39.0862 15.4634 39.4068 15.7199 39.7488 16.0191C39.7061 15.7199 39.5351 15.5703 38.7656 15.1855Z" fill="black"/>
<path d="M38.999 14.6717C38.7639 14.4152 38.7639 14.4152 38.4219 14.2656C38.5501 14.4794 38.5501 14.4794 38.999 14.6717Z" fill="black"/>
<path d="M33.7862 18.6673C33.7222 18.4968 33.5942 18.3688 33.4023 18.3262C33.4876 18.4968 33.5729 18.646 33.7862 18.6673Z" fill="black"/>
<path d="M13.6279 4.32764C13.6706 4.26352 13.692 4.1994 13.7347 4.13527C13.5637 4.13527 13.4355 4.13527 13.2645 4.13527C13.2004 4.17802 13.2004 4.30626 13.0508 4.37039C13.1149 4.24214 13.1576 4.15665 13.2218 4.04978C13.1576 4.00703 13.1149 3.98566 13.0508 3.94291C13.1363 3.85742 13.2004 3.90016 13.2431 3.94291C13.35 4.07115 13.4996 4.02841 13.6492 4.02841C13.6065 3.98566 13.5637 3.94291 13.521 3.87879C13.7134 3.83604 13.7775 4.00703 13.9271 4.00703C14.0553 4.00703 14.1836 4.09253 14.3546 4.02841C14.2691 3.87879 14.1622 3.77192 14.0553 3.68643C14.0553 3.64368 14.0126 3.64368 13.9699 3.64368C13.863 3.62231 13.863 3.62231 13.7775 3.53681C13.8202 3.51544 13.863 3.51544 13.9057 3.49406C13.9057 3.40857 13.8202 3.32307 13.692 3.32307C13.6065 3.3017 13.5424 3.3017 13.4569 3.28033C13.4355 3.28033 13.4141 3.25895 13.3928 3.2162C13.4355 3.19483 13.4783 3.19483 13.4996 3.19483C13.6706 3.23758 13.692 3.21621 13.7134 3.02384C13.7134 3.00247 13.7347 3.00247 13.7347 2.98109C13.7989 2.98109 13.8202 3.02384 13.8202 3.06659C13.8202 3.25895 13.9485 3.34445 14.0767 3.47269C14.1622 3.40857 14.1195 3.3017 14.2263 3.25895C14.2263 3.32307 14.2263 3.36582 14.205 3.40857C14.1408 3.60093 14.2477 3.75055 14.4187 3.85742C14.4401 3.7078 14.4614 3.57956 14.376 3.45132C14.3546 3.40857 14.3546 3.34445 14.376 3.3017C14.4614 3.17346 14.4401 3.06659 14.3546 2.95972C14.3118 2.91697 14.2905 2.87423 14.2691 2.83148C14.2477 2.8101 14.2691 2.78873 14.3118 2.74598C14.376 2.83148 14.4614 2.91697 14.5256 3.00247C14.6324 2.91697 14.7393 2.8101 14.8462 2.72461L14.8675 2.74598C14.7821 2.83148 14.7179 2.93835 14.6324 3.02384C14.5256 3.13071 14.5042 3.23758 14.5256 3.40857C14.5897 3.38719 14.6538 3.36582 14.7179 3.34445C14.7179 3.42994 14.6752 3.47269 14.6111 3.49406C14.4828 3.57956 14.4828 3.68643 14.5042 3.81467C14.6538 3.72917 14.7393 3.62231 14.8248 3.49406C14.8675 3.42994 14.8889 3.36582 14.9958 3.32307C15.0599 3.3017 15.1027 3.2162 15.1454 3.15208C15.2095 3.06659 15.2095 2.93835 15.3378 2.8956C15.3591 3.04522 15.1882 3.10934 15.2309 3.28033C15.3378 3.3017 15.4446 3.32307 15.5729 3.36582C15.5729 3.38719 15.5729 3.38719 15.5729 3.40857C15.4874 3.40857 15.4019 3.40857 15.295 3.40857C15.0813 3.38719 15.0172 3.42994 14.9317 3.64368C14.9958 3.68643 15.1027 3.64368 15.1454 3.75055C14.9958 3.7933 14.8034 3.68643 14.6752 3.83604C14.6111 3.90016 14.5256 3.96429 14.5042 4.09253C14.6752 4.09253 14.8248 4.1139 14.9744 4.1139C14.9958 4.1139 15.0172 4.1139 15.0172 4.09253C15.1027 3.94291 15.295 3.98566 15.4233 3.92154C15.4233 3.92154 15.4446 3.92154 15.4446 3.94291C15.4446 4.04978 15.3164 4.02841 15.2736 4.1139C15.5943 4.13527 15.9149 4.07115 16.2568 4.02841C16.1713 4.17802 15.9576 4.07115 15.8935 4.26352C15.9362 4.30626 15.979 4.34901 16.0431 4.43451C15.9149 4.43451 15.8721 4.37039 15.8294 4.30626C15.7866 4.1994 15.7011 4.1994 15.5943 4.1994C15.4874 4.1994 15.3805 4.22077 15.2523 4.22077C15.2736 4.28489 15.2736 4.32764 15.2736 4.39176C15.2523 4.39176 15.2309 4.39176 15.2309 4.39176C15.1027 4.15665 14.8889 4.22077 14.6538 4.22077C14.8034 4.49863 15.0172 4.64824 15.295 4.75511C15.2523 4.79786 15.2309 4.84061 15.2095 4.86198C15.2523 4.96885 15.4233 5.03297 15.3378 5.18259C15.4233 5.22533 15.5088 5.26808 15.5943 5.3322C15.466 5.4177 15.3805 5.26808 15.2736 5.3322C15.2523 5.39632 15.2309 5.48182 15.1882 5.56731C15.0813 5.48182 15.1668 5.4177 15.1668 5.35358C15.1882 5.26808 15.2095 5.20396 15.2523 5.11847C15.1668 5.0116 15.0599 4.90473 14.953 4.79786C14.9103 4.86198 14.8675 4.90473 14.8462 4.94748C14.8248 4.94748 14.8248 4.94748 14.8248 4.94748C14.8248 4.9261 14.8034 4.88335 14.8248 4.84061C14.8675 4.71237 14.8248 4.62687 14.7607 4.54138C14.6752 4.43451 14.5683 4.34901 14.4401 4.22077C14.4401 4.41313 14.3973 4.56275 14.4828 4.73374C14.5469 4.84061 14.5469 5.0116 14.5683 5.13984C14.5469 5.13984 14.5256 5.16121 14.5042 5.18259C14.4828 5.13984 14.4614 5.11847 14.4401 5.05434C14.4187 5.11847 14.3973 5.18259 14.3973 5.22533C14.376 5.22533 14.376 5.22533 14.3546 5.22533C14.3546 5.11847 14.3332 5.0116 14.3332 4.88335C14.2905 4.88335 14.2263 4.88335 14.1836 4.88335C14.1836 4.86198 14.1836 4.84061 14.1836 4.84061C14.4187 4.69099 14.3546 4.47725 14.3332 4.26352C14.1408 4.43451 14.0126 4.6055 13.9912 4.84061C13.9912 4.88335 13.9912 4.94748 13.8844 4.94748C13.8844 4.90473 13.8844 4.84061 13.8844 4.77649C13.7775 4.88335 13.692 4.96885 13.6492 5.09709C13.6279 5.18259 13.5851 5.26808 13.5424 5.35358C13.521 5.37495 13.4996 5.39632 13.4355 5.39632C13.4783 5.28946 13.4996 5.18259 13.5424 5.07572C13.4569 5.05434 13.3714 5.03297 13.2859 5.0116C13.3928 4.90473 13.4783 4.96885 13.5851 4.96885C13.6706 4.86198 13.7775 4.73374 13.8844 4.58412C13.7989 4.54138 13.7347 4.52 13.6492 4.49863C13.7561 4.41313 13.8416 4.41313 13.9699 4.47725C14.034 4.39176 14.0981 4.32764 14.1836 4.22077C14.0553 4.15665 13.9485 4.13527 13.8416 4.15665C13.7989 4.15665 13.7561 4.1994 13.7347 4.24214C13.6706 4.28489 13.6279 4.34901 13.5851 4.41313C13.6492 4.34901 13.6492 4.32764 13.6279 4.32764Z" fill="black"/>
<path d="M19.9769 9.71302C20.0623 9.5634 20.1478 9.41379 20.2547 9.20005C19.8486 9.20005 19.4853 9.20005 19.0578 9.20005C18.9082 9.30692 18.9082 9.6489 18.5234 9.81989C18.6944 9.49928 18.8013 9.2428 18.9295 8.98631C18.7799 8.87944 18.6517 8.79395 18.5234 8.70845C18.7158 8.49472 18.9295 8.60158 19.0364 8.70845C19.3356 9.02906 19.6776 8.94356 20.0837 8.90082C19.9555 8.7512 19.87 8.66571 19.7417 8.51609C20.212 8.36647 20.4257 8.87944 20.7891 8.85807C21.131 8.85807 21.473 9.07181 21.8791 8.92219C21.6654 8.53746 21.3875 8.28098 21.1097 8.02449C21.0455 7.96037 20.8959 7.98175 20.7891 7.96037C20.5326 7.91763 20.5326 7.91763 20.2975 7.68251C20.4257 7.63977 20.5326 7.59702 20.6394 7.55427C20.6181 7.31916 20.4043 7.14817 20.1051 7.10542C19.9127 7.08405 19.7204 7.0413 19.5066 6.99856C19.4639 6.97718 19.4211 6.93443 19.3143 6.84894C19.4425 6.82757 19.528 6.76345 19.5921 6.78482C20.0623 6.89169 20.1051 6.84894 20.1478 6.35734C20.1478 6.3146 20.1906 6.27185 20.212 6.25048C20.4043 6.2291 20.4471 6.37872 20.4257 6.48559C20.4043 6.97718 20.7677 7.21229 21.0669 7.51153C21.2593 7.36191 21.1524 7.06268 21.473 6.93443C21.4516 7.10542 21.4516 7.21229 21.4089 7.31916C21.2593 7.83213 21.4944 8.17411 21.9432 8.47334C21.986 8.10999 22.0287 7.78938 21.8577 7.4474C21.815 7.34054 21.7722 7.14817 21.8364 7.06268C22.0501 6.74207 21.986 6.48559 21.7936 6.20773C21.7081 6.10086 21.6226 5.99399 21.5585 5.86575C21.5371 5.823 21.5585 5.73751 21.644 5.63064C21.815 5.84437 22.0074 6.07949 22.1783 6.29322C22.4776 6.05811 22.7554 5.823 23.0119 5.58789C23.0333 5.60926 23.0547 5.63064 23.076 5.65201C22.8837 5.88712 22.7127 6.16498 22.4776 6.37872C22.1997 6.65658 22.1356 6.95581 22.2211 7.34054C22.3921 7.29779 22.5417 7.23367 22.7341 7.16955C22.7127 7.36191 22.6058 7.46878 22.4776 7.55427C22.1356 7.74664 22.1356 8.02449 22.2211 8.38785C22.5844 8.17411 22.8409 7.89625 23.0333 7.55427C23.1402 7.36191 23.2257 7.19092 23.4608 7.10542C23.6104 7.0413 23.7173 6.80619 23.8241 6.65658C23.9737 6.44284 24.0165 6.12223 24.3371 5.97262C24.3798 6.35734 23.9737 6.54971 24.0592 6.95581C24.3371 7.01993 24.6363 7.08405 24.9356 7.14817C24.9356 7.19092 24.9356 7.21229 24.9142 7.25504C24.6791 7.25504 24.444 7.25504 24.2302 7.25504C23.6745 7.23367 23.5249 7.31916 23.2898 7.87488C23.4394 8.00312 23.7386 7.89625 23.8669 8.17411C23.4608 8.28098 23.0119 8.00312 22.6699 8.38785C22.4989 8.55884 22.3066 8.70845 22.2425 9.02906C22.6699 9.05043 23.076 9.09318 23.4608 9.11455C23.5035 9.11455 23.5676 9.09318 23.589 9.07181C23.8455 8.66571 24.2943 8.77257 24.6577 8.60158C24.6577 8.60158 24.6791 8.62296 24.7218 8.64433C24.7218 8.92219 24.3585 8.8367 24.273 9.09318C25.1279 9.13593 25.9187 8.96494 26.7951 8.87944C26.56 9.28554 26.0042 9.00769 25.8546 9.47791C25.9401 9.58478 26.0684 9.71302 26.218 9.88401C25.9187 9.88401 25.7478 9.73439 25.6623 9.5634C25.534 9.30692 25.3203 9.26417 25.0852 9.28554C24.8073 9.30692 24.5295 9.32829 24.2302 9.37104C24.2516 9.54203 24.273 9.67027 24.2943 9.79851C24.2302 9.79851 24.1875 9.81989 24.1661 9.79851C23.8241 9.20005 23.2684 9.32829 22.6913 9.32829C23.0547 10.0336 23.6104 10.4397 24.3157 10.7176C24.2302 10.8458 24.1661 10.9313 24.102 11.0168C24.1875 11.316 24.6577 11.4443 24.444 11.8718C24.6577 12 24.8714 12.1069 25.1065 12.2351C24.8073 12.4702 24.5722 12.0641 24.2943 12.2351C24.2302 12.4061 24.1661 12.5985 24.102 12.8336C23.8241 12.6412 24.0379 12.4489 24.0592 12.2779C24.0806 12.0855 24.2088 11.9145 24.2943 11.658C24.0592 11.4015 23.8027 11.1237 23.5249 10.8245C23.418 10.9741 23.3325 11.0809 23.247 11.1878C23.2257 11.1878 23.2043 11.1664 23.1615 11.1664C23.1615 11.0809 23.1402 10.9954 23.1615 10.9099C23.2898 10.6107 23.1615 10.3756 22.9692 10.1405C22.7341 9.86263 22.4776 9.62752 22.1356 9.32829C22.157 9.84126 22.0074 10.226 22.2638 10.6321C22.4562 10.9313 22.4348 11.3374 22.4989 11.6794C22.4562 11.7008 22.4135 11.7435 22.3493 11.7649C22.3066 11.6794 22.2638 11.5725 22.1997 11.4443C22.1356 11.6153 22.1142 11.7435 22.0715 11.8718C22.0287 11.8718 22.0074 11.8718 21.9646 11.8718C21.9432 11.5939 21.9219 11.316 21.9005 11.0168C21.7509 11.0168 21.644 11.0168 21.5371 11.0168C21.5371 10.9527 21.5158 10.9099 21.5371 10.9099C22.1356 10.5252 21.9646 9.99088 21.9005 9.41379C21.3875 9.84126 21.0883 10.2901 21.0242 10.9099C21.0028 11.0382 21.0242 11.2092 20.7677 11.1878C20.7677 11.0596 20.7463 10.9313 20.7463 10.7603C20.4471 11.0168 20.2333 11.2519 20.1265 11.5725C20.0623 11.7863 19.9769 12.0214 19.87 12.2137C19.8272 12.2779 19.7417 12.3206 19.5921 12.3206C19.6776 12.0641 19.7845 11.7863 19.87 11.487C19.6349 11.4229 19.4639 11.3802 19.2288 11.316C19.5066 11.0596 19.7417 11.2306 19.9982 11.2092C20.2333 10.9099 20.4898 10.5893 20.7677 10.2474C20.5326 10.1619 20.383 10.0977 20.1906 10.0122C20.4898 9.77714 20.6608 9.77714 21.0242 9.9695C21.1952 9.77714 21.3875 9.5634 21.6013 9.32829C21.2806 9.1573 20.9814 9.13593 20.7036 9.1573C20.5967 9.1573 20.5112 9.28554 20.4257 9.37104C20.2761 9.49928 20.1478 9.6489 20.0196 9.79851C20.0623 9.77714 20.0196 9.73439 19.9769 9.71302Z" fill="white"/>
</svg>
