<svg width="45" height="65" viewBox="0 0 45 65" fill="none" xmlns="http://www.w3.org/2000/svg">
<path d="M5.40398 52.0214C3.88309 48.8373 2.33295 45.5953 1.45551 42.1797C0.578075 38.764 0.402587 35.0589 1.5725 31.7301C3.15189 27.2435 7.10036 23.5673 7.42208 18.7912C7.56832 16.5913 6.89562 14.3624 7.48058 12.2493C7.77306 11.1783 8.38726 10.2231 8.97222 9.26789C10.6101 6.63379 12.248 4.02863 13.8859 1.39453C14.7048 2.58132 14.6171 4.14442 14.1491 5.50489C13.6811 6.86536 12.9207 8.0811 12.3942 9.41262C11.4875 11.7573 11.4583 14.3914 12.2772 16.765C12.3942 17.0834 12.5112 17.4018 12.7452 17.6333C13.3009 18.2412 14.2368 18.2123 15.0558 18.1544C17.5711 17.9807 20.1449 17.8939 22.5432 18.6465C24.0349 19.1096 25.4095 19.8622 26.7549 20.6437C28.5683 21.6569 30.4987 22.7858 31.3761 24.6673C32.5753 27.2145 31.4346 30.2828 32.312 32.9459C33.131 35.4063 35.5878 37.3746 35.3831 39.9219C35.1491 42.6718 32.0781 44.2059 30.6449 46.5506C29.5627 48.3163 29.4458 50.5162 29.358 52.5714C29.3288 53.5266 29.2995 54.5108 29.709 55.3502C30.0892 56.1028 30.8204 56.7975 30.6742 57.637C30.5279 58.5343 29.475 58.9106 28.5976 59.1422C25.585 59.8948 22.4847 60.6763 19.3845 60.3289C16.2842 60.0105 13.5934 58.4185 10.6686 57.6659C7.94855 57.0001 6.5154 54.3371 5.40398 52.0214Z" fill="white"/>
<path d="M6.39641 60.2402C6.30866 60.4139 6.22092 60.5876 6.07468 60.7034C5.7822 60.906 5.40198 60.7613 5.051 60.6165C4.52454 60.385 3.96883 60.1245 3.53011 59.7482C3.0914 59.3719 2.79892 58.764 2.88666 58.1851C2.94516 57.8956 3.06215 57.664 3.23763 57.4325C3.79334 56.593 4.67078 55.9852 5.1095 55.0878C5.48972 54.3063 5.54822 53.4379 5.57747 52.5695C5.63596 51.3248 5.66521 50.0801 5.72371 48.8354C5.72371 48.4881 5.75295 48.0828 5.89919 47.7644C6.04543 47.446 6.39641 47.1566 6.77663 47.2145C7.1861 47.2724 7.44933 47.6776 7.65407 48.0539C9.55518 52.1064 8.15128 56.3325 6.39641 60.2402Z" fill="#BCBCBB"/>
<path d="M16.3992 52.9173C16.3992 53.0041 16.3992 53.091 16.3407 53.1778C16.253 53.2646 16.1067 53.2646 15.9898 53.2357C15.5803 53.1778 15.1708 53.1778 14.7906 53.2067C14.4396 53.2357 14.0886 53.2646 13.7377 53.3515C13.6499 53.3804 13.5622 53.3804 13.4744 53.3804C13.2404 53.3225 13.182 53.0331 13.182 52.7726C13.1235 51.4989 12.5093 48.7201 14.5566 48.8648C16.3992 48.9517 16.3992 51.5568 16.3992 52.9173Z" fill="#BCBCBB"/>
<path d="M7.71459 17.2271C6.77865 15.2009 6.1937 12.8852 6.89564 10.7722C7.12963 10.0485 7.50985 9.38274 8.06556 8.89065C8.65052 8.39857 9.44021 8.13805 10.1714 8.25383C10.1129 9.09327 10.0544 9.90377 9.99592 10.7143C9.82043 12.9142 9.67419 15.172 10.1422 17.3429C10.2007 17.5745 10.2299 17.8061 10.2007 18.0087C10.1422 18.5587 9.26472 19.3981 8.73826 19.1955C8.41654 19.0797 7.86082 17.5745 7.71459 17.2271Z" fill="#BCBCBB"/>
<path d="M14.7639 31.2392C15.1148 30.8918 15.5243 30.5734 15.9923 30.3129C16.899 29.8208 17.9519 29.734 19.0048 29.6182C20.7889 29.4445 22.6315 29.3287 24.3572 29.8208C25.0006 29.9945 25.6148 30.2839 26.0828 30.7471C26.5508 31.2102 26.8432 31.876 26.697 32.5417C25.5271 32.7444 24.4449 31.9918 23.3627 31.5865C21.7541 31.0076 19.97 31.2102 18.2736 31.4128C17.4547 31.4997 16.6357 31.6155 15.8753 31.9628C15.4658 32.1654 14.2959 33.468 13.8572 33.2364C13.0967 32.918 14.3836 31.6155 14.7639 31.2392Z" fill="#BCBCBB"/>
<path d="M29.4165 44.8429C29.4457 44.6693 29.4457 44.4956 29.2995 44.3798C29.2117 44.3219 29.0948 44.293 29.007 44.293C28.3636 44.3509 27.9833 45.0166 27.6909 45.5666C25.9945 48.7217 23.1282 51.1243 21.0223 54.0189C20.8468 54.2505 20.7006 54.5399 20.8761 54.7715C21.0223 54.9741 21.3441 54.9452 21.578 54.8873C22.6602 54.6268 24.2981 54.482 25.234 53.8742C26.0237 53.3531 26.4917 52.2532 26.9597 51.4427C28.1296 49.4164 29.1825 47.2455 29.4165 44.8429Z" fill="#BCBCBB"/>
<path d="M15.9903 53.2383L16.6923 55.525L25.0864 54.3961L25.9054 53.5567L26.8998 54.1935L28.6254 58.4775L30.2633 61.98L24.1213 63.1379L13.7675 63.5721L8.61986 62.9642C8.61986 62.9642 6.71875 62.4432 6.71875 61.9511C6.71875 61.459 8.61986 54.8303 8.61986 54.8303L9.5558 53.9619L13.709 53.3251L15.9903 53.2383Z" fill="#EB584A"/>
<path d="M8.91289 54.5968C9.17613 54.1626 9.55635 53.9021 10.0828 53.7863C10.814 53.6126 11.516 53.41 12.3057 53.2074C12.4519 52.7153 12.3349 52.1364 12.3641 51.5575C12.4226 50.3996 12.4811 49.2418 12.5104 48.0839C12.5104 47.5918 12.4519 47.0708 12.4519 46.5208C12.5689 46.4629 12.6859 46.434 12.8029 46.3761C13.3001 46.0866 13.4171 45.7972 13.2708 45.2472C13.2123 45.0156 13.1246 44.813 13.0953 44.5814C13.0368 44.3788 13.0076 44.1472 12.8614 43.9446C12.8321 44.2341 12.7736 44.5235 12.7444 44.813C12.6859 45.4498 12.5104 46.0577 12.1009 46.5498C11.9254 46.7524 11.7207 46.955 11.4867 47.0997C10.7263 47.6787 10.0536 47.5918 9.29312 46.984C8.50342 46.3471 8.0647 45.4788 7.59674 44.6393C6.69005 43.0183 6.33908 41.2816 6.25134 39.458C6.25134 39.1685 6.36833 38.8501 5.90036 38.7632C5.84187 38.7632 5.81262 38.4448 5.78337 38.2712C5.66638 38.2422 5.54939 38.1843 5.3739 38.1554C5.43239 37.9817 5.43239 37.7791 5.52014 37.6633C6.07585 36.9686 6.60231 36.2739 7.18727 35.6371C7.62599 35.1739 8.15245 34.7687 8.73741 34.4792C9.84883 33.8713 11.0772 33.9003 12.3057 34.0161C12.5689 34.045 12.8029 34.045 13.0076 33.8713C14.002 33.0608 15.055 32.2504 16.0494 31.4399C16.2249 31.3241 16.3419 31.1504 16.5173 31.0057C16.6343 30.9188 16.8098 30.8609 17.0146 30.7451C17.0731 31.0346 17.0731 31.2083 17.1023 31.353C17.1608 31.353 17.2193 31.382 17.2778 31.382C18.3892 30.9767 19.5591 30.9188 20.729 31.0636C21.548 31.1793 22.3962 31.2662 23.2151 31.4109C23.4783 31.4688 23.7708 31.5267 24.0048 31.6714C24.7653 32.0767 25.5257 32.3661 26.3739 32.453C26.4616 32.453 26.5494 32.5109 26.6371 32.5398C26.6664 32.5688 26.6956 32.5977 26.7541 32.6556C26.6079 33.0608 26.3446 33.1766 25.9352 33.0319C25.2917 32.8003 24.6483 32.6267 24.0048 32.3661C23.1274 31.9898 22.1914 31.9319 21.2555 31.8162C21.0508 32.1635 20.7875 32.453 20.8168 32.9451C20.8168 33.3214 20.6121 33.6977 20.4658 34.045C19.6761 35.8686 19.2082 37.808 18.8279 39.7474C18.7109 40.3263 18.7402 40.9053 18.9742 41.4552C19.2959 42.2078 19.6761 42.9604 20.0271 43.742C20.3781 44.5814 20.7875 45.3919 21.0508 46.2314C21.3433 47.1866 21.197 47.9971 20.3781 48.8076C19.3544 49.8207 18.126 50.5154 16.9853 51.3259C16.8391 51.4417 16.6636 51.6443 16.3711 51.4127C16.4589 51.2969 16.5173 51.1812 16.6343 51.1233C17.307 50.6601 17.9797 50.197 18.6817 49.7628C19.2374 49.4444 19.6761 48.9812 20.0271 48.4892C20.0856 48.4023 20.1441 48.2865 20.2318 48.1997C20.8753 47.6497 20.846 47.0129 20.6413 46.2892C20.3488 45.363 19.9686 44.4946 19.4421 43.6551C19.0034 42.9604 18.6817 42.2368 18.3892 41.4842C18.1552 40.8474 18.0382 40.1237 17.892 39.458C17.8628 39.3711 17.9505 39.2553 17.9797 39.1395C18.3892 38.0396 18.7987 36.9396 19.2082 35.8397C19.7054 34.5371 20.2318 33.2345 20.7875 31.8451C20.5243 31.8162 20.2611 31.7872 19.9978 31.7872C18.8572 31.6714 17.7458 31.7872 16.7513 32.3372C16.4296 32.5109 16.1371 32.5398 15.8446 32.3082C15.0842 32.974 14.2945 33.495 13.6803 34.2766C13.3878 34.6529 12.9784 34.7687 12.4226 34.6529C11.1942 34.3634 9.99507 34.3634 8.88365 35.1739C8.38643 35.5502 7.77223 35.7528 7.36276 36.2739C7.18727 36.5054 7.01178 36.766 6.86554 37.0265C6.7193 37.2291 6.69005 37.4317 6.83629 37.6633C6.92404 37.808 6.89479 38.0106 6.89479 38.2133C7.01178 39.4001 7.09952 40.5579 7.21652 41.7158C7.30426 42.4105 7.47975 42.8157 7.85997 43.3367C8.32794 43.1052 8.70816 42.642 9.38086 42.4973C8.82515 42.9604 8.38643 43.3367 7.91847 43.742C8.0647 44.0025 8.15245 44.1762 8.24019 44.3499C8.67891 44.1762 8.94214 43.6551 9.5856 43.6262C9.14688 43.9736 8.76665 44.263 8.41568 44.5525C8.64966 45.3051 8.94214 45.8261 9.41011 46.2603C9.84883 46.6655 10.3168 46.8392 10.931 46.7524C11.399 46.6945 11.6622 46.4629 11.8377 46.0866C11.9839 45.7103 12.1302 45.3051 12.1887 44.8998C12.4519 43.221 12.4519 41.5421 12.1887 39.8632C12.1594 39.6895 12.1302 39.5448 12.1302 39.3711C12.1302 39.2553 12.1594 39.0816 12.2179 39.0527C12.8321 38.8501 12.6859 38.329 12.7444 37.8949C12.7736 37.6922 12.8029 37.5186 12.9491 37.287C13.0076 37.4028 13.0953 37.5475 13.1246 37.6633C13.2416 38.3001 13.0661 38.9369 12.8029 39.458C12.6566 39.7474 12.6566 39.979 12.6859 40.2395C12.7151 40.6737 12.7736 41.1079 12.7736 41.5421C12.7736 42.0631 12.7151 42.5841 13.0953 43.0473C13.2123 43.192 13.1831 43.4525 13.2416 43.6551C13.3293 44.1183 13.4171 44.5525 13.5341 45.0156C13.5926 45.1893 13.7388 45.334 13.885 45.5656C13.7096 45.7682 13.6803 46.0577 13.8265 46.3761C14.0313 46.8682 14.236 47.3313 14.6455 47.7366C14.8795 47.9681 15.055 48.3155 15.1427 48.6339C15.5229 50.2259 15.8446 51.8469 16.2249 53.439C16.2834 53.7574 16.3711 54.0468 16.4296 54.3652C16.1371 54.481 16.0201 54.2494 15.9909 54.1047C15.8446 53.5258 15.3767 53.41 14.9087 53.41C14.236 53.41 13.5633 53.4968 12.8029 53.5547C12.8321 53.931 12.8321 54.2205 12.8614 54.51C13.3878 54.5389 13.6803 53.931 14.2653 54.2205C13.7388 54.481 13.3293 54.6836 12.8029 54.9442C12.6859 54.6257 12.5689 54.3363 12.4226 54.0179C12.1302 54.1916 12.0132 54.6836 11.4867 54.7126C11.4867 54.4231 11.4867 54.1626 11.4867 53.8731C10.814 53.7574 10.2875 53.9889 9.61484 54.3652C9.90732 54.51 10.0828 54.6257 10.2875 54.6547C11.4282 54.7705 12.5981 55.1178 13.768 54.9152C14.9672 54.7126 16.1371 54.9152 17.307 54.9442C19.0034 54.9731 20.6998 54.9152 22.3962 54.481C23.0396 54.3073 23.6831 54.2494 24.3265 54.1337C24.6775 54.0758 24.8822 53.931 25.087 53.5547C25.8474 52.0495 26.6664 50.5733 27.5438 49.126C28.1288 48.1129 28.3627 46.984 28.8015 45.9129C29.3279 44.5814 29.4157 43.1631 29.4742 41.7736C29.5034 40.9053 29.5912 39.979 29.2694 39.1106C29.2402 39.0527 29.2694 38.9369 29.2987 38.8211C29.6497 38.9369 29.7374 39.1685 29.7959 39.458C29.8251 39.6606 29.8544 39.8632 29.8544 40.0658C29.8251 41.6 30.3224 43.0183 30.6148 44.4946C30.6441 44.5814 30.7026 44.6683 30.7318 44.7262C31.58 44.9867 31.7263 44.263 32.0772 43.742C32.2527 43.9736 32.3697 44.1472 32.4867 44.3499C33.1302 44.1472 33.5981 43.7709 33.9783 43.192C34.5633 42.2657 34.5341 41.1947 34.7388 40.1816C35.0313 38.7632 34.5048 37.5475 33.9783 36.3318C33.9491 36.2739 33.8906 36.216 33.8321 36.187L33.8614 36.216C33.6566 35.2897 33.3349 34.4213 32.5744 33.7556C32.1065 33.3503 31.58 33.0898 30.9366 33.0029C29.7374 32.8582 28.509 32.8582 27.2806 33.4082C27.7485 32.7424 28.3627 32.5977 28.977 32.5398C29.7374 32.4819 30.4978 32.5398 31.2583 32.6556C32.5452 32.8582 33.4226 33.6687 33.9198 34.8555C34.3293 35.8686 34.7973 36.8528 35.119 37.8949C35.3237 38.5317 35.3822 39.2553 35.353 39.95C35.3237 40.7605 35.1483 41.5421 35.0313 42.3526C35.0313 42.4105 35.0313 42.4394 35.002 42.4973C34.4463 43.3078 34.1831 44.3209 33.3641 44.9577C33.2471 45.0446 33.1594 45.1314 33.0424 45.2182C32.5159 45.5366 32.282 45.5366 31.8725 45.1314C31.4045 45.2472 30.9658 45.3919 30.4393 45.5366C30.3809 45.9708 30.3224 46.434 30.2346 46.9261C30.1469 47.5339 30.0006 48.1418 29.9421 48.7786C29.8251 49.8786 29.7666 50.9785 29.6789 52.1074C29.5912 52.9469 29.5619 53.8153 29.3864 54.6547C29.2109 55.4941 29.2987 56.1888 30.0006 56.7678C30.4686 57.1441 30.7026 57.694 30.9073 58.244C31.1413 58.9387 30.4393 59.6913 29.7082 59.5466C29.7374 59.4887 29.7666 59.4308 29.8251 59.3729C30.6441 58.765 30.7318 58.4756 30.1469 57.6651C29.8544 57.2598 29.5034 56.8835 29.1232 56.5362C28.7722 56.1888 28.6552 55.8415 28.7137 55.3494C28.8892 53.4679 29.0354 51.5575 29.1817 49.6759C29.1817 49.5602 29.1817 49.4444 29.2109 49.3286C29.4449 47.9681 29.6789 46.6077 29.9421 45.2472C30.0006 44.9288 30.1176 44.6393 30.2054 44.3499C30.1469 44.3209 30.1176 44.3209 30.0591 44.292C29.8544 44.813 29.5912 45.334 29.4742 45.884C29.0939 47.6497 28.3043 49.2418 27.4561 50.8048C26.9588 51.7311 26.4324 52.6574 25.9059 53.6126C26.0229 53.6995 26.1399 53.7863 26.2861 53.9021C25.5257 54.6836 26.4031 55.2336 26.4909 55.9283C26.1984 56.3046 25.7889 56.2178 25.4087 56.2757C24.1218 56.5072 22.8349 56.7099 21.548 56.9704C19.9394 57.2888 18.36 57.4046 16.7513 57.0862C16.6051 57.0572 16.4589 56.9993 16.1664 56.8835C16.4296 56.7967 16.5466 56.7099 16.6636 56.7099C16.8976 56.7099 17.1316 56.7388 17.3655 56.7967C18.6524 56.9993 19.9101 56.9414 21.197 56.7099C22.4839 56.4783 23.7708 56.2757 25.0577 56.0441C25.2625 56.0152 25.4672 55.9283 25.7304 55.8704C25.6427 55.6099 25.5842 55.4073 25.4672 55.2047C25.2917 54.9442 25.087 54.7705 24.7068 54.8573C23.6246 55.0889 22.5717 55.2915 21.4602 55.4652C20.7583 55.581 20.0271 55.6389 19.2959 55.6678C18.2137 55.6678 17.1023 55.6099 16.0201 55.581C15.0257 55.552 14.002 55.581 13.0076 55.4941C12.0424 55.4073 11.0772 55.2336 10.1121 55.0889C9.99507 55.0599 9.87808 55.0599 9.79033 55.031C9.49785 56.0441 9.49785 56.0441 9.79033 56.2178C9.87808 55.8994 9.93657 55.6099 10.0243 55.2915C10.0828 55.2915 10.1121 55.3205 10.1706 55.3205C10.1706 55.6389 10.1998 55.9283 10.1998 56.3046C11.0187 56.4204 11.8669 56.5362 12.6859 56.652C12.6859 56.6809 12.6859 56.7388 12.6859 56.7678C12.2179 56.7678 11.7792 56.7678 11.3112 56.7388C10.8433 56.7388 10.3753 56.7388 9.93657 56.6809C9.46861 56.5941 9.00064 56.4204 8.53267 56.2757C8.09395 57.0572 7.85997 57.8677 7.68448 58.7072C7.509 59.5755 7.33351 60.415 7.18727 61.2834C7.09952 61.8912 7.21652 62.0939 7.80147 62.3254C8.73741 62.7307 9.73184 63.0201 10.7555 63.107C12.3641 63.2517 13.9728 63.3675 15.5814 63.3675C18.3307 63.3675 21.08 63.2517 23.8293 62.9044C24.9407 62.7596 26.0522 62.4702 27.1636 62.2675C27.2221 61.9202 27.1928 61.6886 26.8419 61.7754C24.736 62.3254 22.5424 62.0649 20.4366 62.3833C20.0271 62.4412 19.5591 62.4991 19.1789 62.1228C19.2667 62.0649 19.2959 61.9781 19.3544 61.9781C21.3433 62.1228 23.3029 61.7465 25.2917 61.6886C26.6956 61.6307 28.0118 61.0518 29.3572 60.5308C29.2402 59.7203 28.86 59.0256 28.5967 58.3019C28.3335 57.5783 28.0118 56.8835 27.6608 56.2178C27.3098 55.5231 26.9296 54.8863 26.4616 54.0758C26.7249 54.1916 26.8711 54.1916 26.9296 54.2784C27.2221 54.6547 27.5146 55.002 27.7485 55.4073C28.5382 56.9125 29.2109 58.4466 29.7374 60.0676C29.8836 60.5308 30.0884 60.965 30.2931 61.4281C30.3809 61.6597 30.4978 61.8912 30.6148 62.1228C30.2346 62.1518 30.2346 62.1517 29.4742 60.936C28.9477 61.0807 28.3335 61.0807 28.0703 61.7176C27.5146 61.5149 27.5146 61.5149 27.5146 62.007C27.807 61.9491 28.1288 61.7754 28.392 61.8623C28.7137 61.9781 28.9477 61.9202 29.2402 61.8623C29.3279 61.8333 29.5327 61.9202 29.5619 62.007C29.5912 62.0939 29.5327 62.2965 29.4449 62.3544C29.1232 62.528 28.7722 62.7017 28.4212 62.7886C27.5438 63.0201 26.6664 63.3385 25.7597 63.4254C23.4783 63.6859 21.1678 63.9464 18.8572 64.0911C17.2193 64.178 15.5814 64.0622 13.9435 64.0622C12.2764 64.0332 10.6385 63.8306 9.02989 63.4543C8.38643 63.3096 7.77223 63.107 7.15802 62.8754C6.7193 62.7017 6.42682 62.4123 6.33908 61.9202C6.28058 61.6597 6.25134 61.3702 6.19284 61.0518C6.0466 61.0228 5.87111 60.9939 5.69563 60.965C5.3154 60.9071 4.90593 60.8492 4.52571 60.7623C2.97557 60.415 2.36137 59.1124 2.85858 57.6072C3.20955 56.5941 3.97 55.9283 4.55496 55.1178C4.90593 54.6547 5.3154 54.2784 5.66638 53.9021C5.49089 52.4837 4.93518 51.268 4.29173 50.1101C3.44354 48.5181 2.88783 46.8392 2.24437 45.1893C1.65942 43.6841 1.42543 42.121 1.13295 40.5579C0.986714 39.8921 0.840474 39.1974 0.694235 38.5027C0.635739 38.5027 0.577243 38.5317 0.4895 38.5606C0.34326 38.5896 0.197021 38.5896 0.0507812 38.5896C0.0507812 38.4738 0.0507812 38.329 0.0507812 38.2133C0.226269 37.2001 0.34326 36.1581 0.635739 35.145C1.10371 33.4371 1.51318 31.7004 2.21513 30.0794C2.5076 29.3847 2.6246 28.6031 2.82933 27.8795C2.88783 27.6479 2.97557 27.3874 3.03407 27.1848C3.32655 27.1269 3.44354 27.2137 3.38504 27.4742C3.32655 27.7058 3.2973 27.9663 3.2388 28.1979C3.44354 28.2558 3.56053 28.2847 3.73602 28.3426C4.0285 27.5321 4.32097 26.7795 4.61345 25.998C5.13992 24.5507 6.01735 23.3349 6.92404 22.1192C6.92404 22.0902 6.95328 22.0902 6.98253 22.0613C7.392 21.3376 8.0647 20.9035 8.76665 20.4693C8.62041 20.1798 8.53267 19.9193 8.38643 19.6877C7.4505 17.9509 6.83629 16.0984 6.7778 14.159C6.7193 12.2775 7.07028 10.4828 8.56192 9.09341C9.11763 8.54343 9.5856 7.87767 10.0536 7.2698C10.814 6.28563 11.4575 5.24357 12.0132 4.14362C12.2179 3.73837 12.4519 3.36207 12.4519 2.86998C12.4519 2.58052 12.5396 2.26212 12.6274 1.97265C12.7151 1.56741 12.7444 1.16216 12.5689 0.756914C12.3057 0.235883 12.4519 0.0332596 12.8321 0.00431341C13.2416 -0.0246328 13.6218 0.0911519 13.9143 0.380614C14.2068 0.670075 14.4992 0.959537 14.7625 1.30689C14.8795 1.45162 14.9672 1.68319 14.9965 1.85687C15.2304 3.39102 15.0257 4.95411 14.9087 6.48826C14.8795 6.92245 14.6162 7.35664 14.4407 7.84873C14.5285 7.90662 14.6455 7.99346 14.8795 8.13819C14.6162 8.31187 14.3823 8.4566 14.0605 8.68817C13.7388 9.5855 13.3878 10.5986 13.0076 11.6117C12.7444 12.3354 12.5104 13.059 12.3641 13.8116C12.1302 14.9695 12.3349 16.1273 12.5396 17.2562C12.5981 17.6325 12.7444 18.0088 12.8906 18.4141C13.3293 18.3272 13.7095 18.2983 14.0898 18.1825C15.055 17.922 16.0786 17.8352 17.0731 17.8352C18.3015 17.8352 19.5006 17.8062 20.729 17.8062C21.2263 17.8062 21.6942 17.8352 22.2207 18.2404C22.016 18.2693 21.899 18.2693 21.782 18.2693C19.8516 18.2983 17.892 18.2693 15.9616 18.3272C15.1134 18.3562 14.2653 18.5878 13.4171 18.7904C13.2416 18.8193 13.0953 19.0219 12.8906 19.1956C12.6859 18.9351 12.3349 18.993 11.9547 19.1377C11.2527 19.4561 10.5508 19.7456 9.84883 20.064C9.08838 20.4114 8.59117 20.9903 8.1232 21.7718C8.67891 22.1192 9.23462 22.4087 9.73184 22.8139C10.2291 23.1902 10.6385 23.6823 11.1065 24.1454C11.8962 23.4797 12.5689 22.756 13.5048 22.2929C12.8614 23.0455 11.8962 23.5086 11.399 24.4638C12.2764 25.7375 12.8906 27.2137 14.002 28.4295C14.119 28.2847 14.2068 28.2268 14.236 28.111C14.3823 27.7926 14.6455 27.7058 14.9087 27.8505C15.9909 28.4584 17.1023 28.14 18.1845 27.9084C19.2666 27.7058 20.3488 27.4742 21.4017 27.2137C22.5132 26.9532 23.5368 26.4322 24.4728 25.7375C25.2332 25.1875 25.6719 24.4638 25.8474 23.5665C25.9352 23.1034 26.0814 22.6692 26.1692 22.206C26.2277 21.8297 26.1984 21.4534 26.2276 21.0482C26.6664 21.1929 26.6956 21.5113 26.6079 21.8587C26.5201 22.3508 26.3739 22.8428 26.2276 23.3349C26.1984 23.4507 26.1399 23.5665 26.1399 23.6823C25.9644 25.1006 25.0577 25.9111 23.8878 26.5769C22.5424 27.3295 21.1093 27.7926 19.5884 28.0242C18.8279 28.14 18.0675 28.3137 17.307 28.4873C15.9616 28.7768 15.9616 28.7768 14.6747 28.3426C14.587 28.4584 14.47 28.6031 14.353 28.7479C14.0313 29.0952 13.885 29.1242 13.5633 28.7189C13.1538 28.1689 12.7736 27.59 12.3934 27.0111C11.8669 26.2006 11.3405 25.3612 10.7555 24.5796C9.96582 23.5086 8.94214 22.7271 7.68448 22.1771C6.69005 22.9876 4.35022 27.59 4.11624 29.5294C4.78894 29.1531 5.28615 28.5742 5.95886 28.2558C5.9881 28.2847 6.01735 28.3137 6.0466 28.3716C5.95886 28.4584 5.90036 28.5452 5.81262 28.6321C5.3154 29.0373 4.84744 29.4136 4.35022 29.8189C4.08699 30.0504 3.97 30.282 4.0285 30.6583C4.14549 31.353 4.11624 32.0767 4.14549 32.8003C4.14549 33.0898 4.08699 33.3793 3.73602 33.6687C3.50203 33.1187 3.64827 32.5977 3.58978 32.0767C3.53128 31.5556 3.35579 31.0346 3.32655 30.5425C3.2973 30.0215 3.35579 29.4715 3.32655 28.9215C2.94632 29.732 2.53685 30.5425 2.24437 31.382C1.68866 32.8582 1.54242 34.4503 1.36694 36.0134C1.33769 36.187 1.36694 36.3897 1.39618 36.5633C1.42543 37.287 1.45468 37.9817 1.51318 38.7053C1.51318 38.8211 1.51318 38.9369 1.54242 39.0527C1.74716 40.0369 1.8934 41.05 2.15663 42.0342C2.30287 42.6131 2.65384 43.1341 2.82933 43.6841C3.2388 44.784 3.64827 45.8551 3.97 46.955C4.35022 48.2576 4.78894 49.5023 5.49089 50.6891C5.9881 50.6312 6.28058 50.0812 6.86554 50.1391C6.54381 50.3707 6.25134 50.6022 5.92961 50.8048C5.60788 51.0364 5.57863 51.268 5.90036 51.5864C6.1051 51.4996 6.33908 51.4417 6.60231 51.3259C6.57306 51.4127 6.57306 51.4996 6.51457 51.5285C5.9881 51.9916 5.9881 51.9916 6.25134 52.6864C6.48532 53.2942 6.60231 53.8731 6.16359 54.4521C6.1051 54.51 6.1051 54.6547 6.01735 54.6836C5.25691 55.0599 4.84744 55.7836 4.29173 56.3625C3.64827 57.0283 3.2973 57.8677 3.44354 58.8229C3.47279 59.1124 3.61902 59.3729 3.73602 59.7782C4.05774 59.1992 4.23323 58.7361 4.52571 58.3309C4.78894 57.9256 4.99368 57.4335 5.60788 57.2309C5.49089 57.8388 5.02292 58.1282 4.81819 58.5914C4.61345 59.0256 4.29173 59.4308 4.40872 60.0097C4.99368 60.3571 5.66638 60.3281 6.36833 60.4729C6.54381 59.8939 6.7193 59.3729 6.89479 58.8519C7.18727 57.8967 7.53824 56.9704 7.77223 56.0152C7.94771 55.3205 8.1232 54.6257 7.97696 53.8731C7.68448 52.4258 7.59674 50.9496 7.33351 49.4733C7.09952 48.1418 6.83629 46.7813 6.25134 45.5366C5.3154 43.5394 4.78894 41.3973 4.14549 39.2843C4.05774 38.9948 3.97 38.7343 3.85301 38.4448C4.17474 38.3001 4.29173 38.4738 4.35022 38.6764C4.46721 39.0238 4.58421 39.3711 4.67195 39.7474C5.16916 41.6579 5.84187 43.4815 6.63156 45.3051C7.392 47.0708 7.77223 48.9233 7.97696 50.8048C8.00621 51.0943 8.06471 51.3838 8.1232 51.7601C8.8544 51.4417 9.35161 50.8048 10.1413 50.718C9.61484 51.0943 9.08838 51.4706 8.59117 51.8759C8.24019 52.1364 8.06471 52.4548 8.26944 52.9758C8.70816 52.6864 9.11763 52.4258 9.55635 52.1364C9.5856 52.1653 9.61484 52.2232 9.64409 52.2522C9.35161 52.5127 9.02989 52.7732 8.73741 53.0337C8.0647 53.6126 8.0647 53.8153 8.73741 54.3652C8.7959 54.4231 8.8544 54.481 8.91289 54.5679C9.14688 55.031 8.67891 55.3205 8.62041 55.7546C8.76665 55.8125 8.91289 55.8704 9.14688 55.9862C9.20537 55.581 9.29312 55.2336 9.35161 54.8863C9.17613 54.7705 9.05913 54.6836 8.91289 54.5968ZM12.4226 18.472C12.3934 18.2983 12.3641 18.0957 12.3057 17.922C11.6622 16.2431 11.6914 14.5353 12.0717 12.7985C12.1302 12.567 12.1887 12.3064 12.2764 12.0749C12.4519 11.6407 12.6859 11.2065 12.8614 10.7433C13.1538 9.9618 13.4171 9.18025 13.7388 8.3987C13.8558 8.10924 13.7095 7.93556 13.5048 7.81978C13.3878 7.76189 13.1538 7.81978 13.0076 7.90662C12.8321 7.99346 12.7151 8.13819 12.5689 8.25397C12.0717 8.60133 11.9254 8.60133 11.4282 8.25397C11.3112 8.16713 11.1942 7.99346 11.1065 8.0224C10.6385 8.13819 10.5508 7.84873 10.5215 7.41453C9.41011 8.63027 8.44493 9.78812 7.71373 11.1486C7.56749 11.4091 7.47975 11.6986 7.42125 11.988C7.21652 13.0011 7.30426 14.0143 7.42125 15.0274C7.4505 15.2589 7.53824 15.4616 7.59674 15.6931C8.26944 15.2589 8.8544 14.8826 9.46861 14.5353C9.49785 14.5642 9.5271 14.6221 9.55635 14.6511C9.08838 15.0563 8.62042 15.4616 8.1232 15.8089C7.74298 16.0984 7.68448 16.4168 7.80147 16.822C8.1232 17.893 8.44493 18.9351 9.20537 19.8035C10.2875 19.3982 11.3405 18.9641 12.4226 18.472ZM13.2123 2.32001C13.2708 2.34895 13.3001 2.3779 13.3586 2.40685C12.5689 3.99889 11.6914 5.56198 10.814 7.12507C10.931 7.21191 11.0772 7.29875 11.1942 7.38559C11.3405 7.50137 11.4575 7.6461 11.5745 7.79083C11.9839 8.16713 12.1009 8.19608 12.5104 7.79083C12.9491 7.35664 13.3878 7.03823 14.0605 7.61716C14.1483 7.2698 14.2945 7.00929 14.2945 6.74877C14.4115 5.35936 14.7625 4.02783 14.6162 2.60947C14.4992 1.71214 13.9435 1.249 13.3586 0.727968C13.3001 0.670075 13.1538 0.699022 12.9784 0.699022C12.9491 1.27795 12.9199 1.82792 12.9199 2.40685C13.0368 2.3779 13.1246 2.34895 13.2123 2.32001ZM15.7277 52.9758C15.7277 52.889 15.7569 52.8021 15.7277 52.7153C15.4352 51.4417 15.1719 50.197 14.8502 48.9523C14.7917 48.7497 14.7332 48.5181 14.587 48.4023C14.0605 47.9681 13.9143 47.3313 13.6218 46.7524C13.5633 46.6366 13.5048 46.4919 13.4171 46.3471C13.0953 46.5787 12.9199 46.7813 12.8906 47.1576C12.8614 48.8076 12.8029 50.4864 12.7444 52.1364C12.7444 52.4837 12.7736 52.86 12.8029 53.2653C13.7973 53.1495 14.704 53.0627 15.7277 52.9758ZM25.9644 55.7257C26.0229 55.6968 26.1107 55.6678 26.1692 55.6099C26.0229 55.3494 25.8767 55.0889 25.7597 54.8284C25.7304 54.8573 25.6719 54.8573 25.6427 54.8863C25.7304 55.1757 25.8474 55.4362 25.9644 55.7257ZM12.4226 53.7574C11.9547 53.6995 11.8962 53.9021 11.9839 54.2784C12.1302 54.0758 12.2472 53.931 12.4226 53.7574ZM33.0717 44.6683C33.0424 44.6393 33.0132 44.5814 33.0132 44.5525C32.8962 44.6393 32.7499 44.7262 32.6329 44.813C32.6622 44.8419 32.6622 44.8709 32.6914 44.8998C32.8084 44.813 32.9547 44.7262 33.0717 44.6683Z" fill="black"/>
<path d="M22.249 33.3222C22.1905 33.4959 22.1613 33.6117 22.132 33.7564C21.9858 33.3222 21.8396 32.9459 21.6641 32.4828C21.8396 32.4828 22.015 32.4249 22.1028 32.4828C22.3075 32.6275 22.5415 32.7722 22.6585 32.9748C23.2142 33.9011 23.7699 34.8274 24.2671 35.8116C24.5304 36.3037 24.6766 36.8536 24.9398 37.3457C25.437 38.272 25.6418 39.3141 25.9343 40.2982C25.9635 40.414 25.9635 40.5877 25.905 40.7035C25.5833 41.8324 25.2908 42.9613 24.9691 44.1191C24.8228 44.6402 24.6181 45.1612 24.4426 45.6822C23.9746 46.898 23.7992 48.1426 24.2086 49.4163C24.4134 49.9952 24.6181 50.6031 24.8813 51.153C25.0276 51.4425 25.3201 51.6741 25.5248 51.9346C25.1446 52.1662 24.9106 52.1662 24.7058 51.7899C23.9162 50.3425 23.2142 48.8373 23.6237 47.1006C23.7992 46.3769 24.0624 45.6822 24.2671 44.9875C24.6474 43.5691 25.0861 42.1508 25.4078 40.7035C25.5833 39.864 25.2616 39.0535 24.9106 38.3009C24.7058 37.8667 24.4426 37.4326 24.2964 36.9694C23.8869 35.6958 23.0972 34.6248 22.4245 33.4959C22.4245 33.409 22.3368 33.3801 22.249 33.3222Z" fill="black"/>
<path d="M31.5197 29.5288C32.017 29.1236 31.7245 28.6604 31.666 28.1684C30.4961 28.5736 29.5016 29.2394 28.478 29.963C28.7412 29.3551 29.5894 28.8341 31.6952 27.8789C31.549 26.9526 31.315 26.0263 30.9055 25.158C30.4961 24.2896 29.7649 23.6817 28.9752 23.0738C29.1507 22.9002 29.2384 22.7844 29.3554 22.6686C29.3261 22.6107 29.3261 22.5817 29.2677 22.5528C28.0977 21.5397 26.7816 20.7581 25.3192 20.2082C24.822 20.0055 24.2955 19.8898 23.7983 19.7161C23.6813 19.6871 23.5058 19.6582 23.4181 19.5424C23.3596 19.4845 23.4181 19.2529 23.5058 19.224C23.6228 19.1661 23.7691 19.224 23.9153 19.2529C25.6117 19.745 27.2203 20.3529 28.595 21.5107C29.1799 22.0028 29.8234 22.4081 30.4376 22.8712C30.9055 23.2186 30.8763 23.2475 30.5546 23.8554C31.666 24.9264 31.5782 26.5474 32.2802 27.8789C31.8707 29.1525 32.5434 30.513 31.8415 31.7577C31.8707 31.3814 31.8707 30.9761 31.9 30.5998C31.9 30.3104 31.9 29.992 31.8415 29.7025C31.783 29.6736 31.6075 29.5867 31.5197 29.5288Z" fill="black"/>
<path d="M42.8399 51.3541C42.6059 51.7304 42.4012 51.5567 42.2257 51.412C41.6408 50.9778 41.0558 50.5147 40.4416 50.0805C39.5057 49.4147 38.5697 48.7779 37.6338 48.1121C37.4583 47.9964 37.3121 47.8806 37.4583 47.678C37.5168 47.6201 37.7508 47.649 37.8678 47.678C38.014 47.7069 38.1602 47.8227 38.3065 47.9095C39.8274 49.0384 41.319 50.1963 42.8399 51.3541Z" fill="#EB584A"/>
<path d="M43.7463 36.8242C43.8341 36.94 43.9218 37.0268 43.9218 37.0847C43.9218 37.1716 43.8633 37.2584 43.8048 37.3163C42.4887 38.3873 41.3188 39.6609 39.8271 40.5004C39.6516 40.5872 39.4761 40.8188 39.3007 40.5583C39.1544 40.2978 39.4177 40.182 39.5639 40.0662C40.0319 39.7478 40.5291 39.4004 41.0263 39.111C41.933 38.5899 42.6934 37.8663 43.4246 37.1137C43.4831 37.0558 43.6001 36.94 43.7463 36.8242Z" fill="#EB584A"/>
<path d="M14.0881 61.8928C12.8889 62.1533 7.8583 61.6323 7.21484 61.256C7.39033 61.1691 7.50732 61.1112 7.65356 61.0823C7.68281 61.0534 7.74131 61.0823 7.7998 61.1112C9.8764 61.3718 11.9823 61.6323 14.0881 61.8928Z" fill="black"/>
<path d="M44.9184 44.2052C44.6551 44.2631 44.4504 44.3499 44.2457 44.3499C42.6663 44.321 41.0869 44.292 39.332 44.2631C39.5368 44.0894 39.6245 43.9447 39.7415 43.9447C40.151 43.8868 40.5897 43.8868 40.9992 43.8868C42.1106 43.8868 43.222 43.8868 44.3334 43.8868C44.5967 43.8289 44.8014 43.8579 44.9184 44.2052Z" fill="#EB584A"/>
<path d="M19.3237 46.9554C19.119 47.9685 17.6858 48.4895 16.9839 47.8527C16.8376 47.7369 16.8376 47.4764 16.6914 47.129C17.1009 47.2159 17.3349 47.2159 17.5688 47.3317C17.9783 47.5053 18.3293 47.5053 18.651 47.158C18.8265 46.9264 19.0605 46.8975 19.3237 46.9554Z" fill="black"/>
<path d="M14.9102 33.9871C15.5536 33.495 16.1971 32.974 17.016 32.5977C17.0745 33.1766 16.548 33.3792 16.4018 33.8134C16.6943 33.7555 16.9575 33.6976 17.2792 33.6108C17.2792 33.9002 17.25 34.1318 17.25 34.3634C17.2207 34.3634 17.1622 34.3923 17.133 34.3923C17.0453 34.2476 16.9575 34.1318 16.8698 33.9581C16.4603 34.1607 16.0508 34.3634 15.6121 34.566C15.5244 34.2186 15.7583 34.0739 15.8753 33.9292C15.9923 33.7844 16.1093 33.6108 16.3433 33.3213C15.7291 33.5239 15.4659 34.045 14.9102 33.9871Z" fill="black"/>
<path d="M27.4256 47.215C27.6304 47.6492 27.3671 47.765 27.1332 47.9097C26.6652 48.1703 26.168 48.4308 25.6415 48.0255C25.3783 47.8229 24.9981 47.6203 25.2028 47.0703C25.466 47.215 25.7 47.3019 25.8462 47.4756C26.1095 47.7361 26.3727 47.7361 26.6652 47.5913C26.9284 47.4466 27.1624 47.3308 27.4256 47.215Z" fill="black"/>
<path d="M7.8603 60.0685C7.68481 59.4027 8.18202 57.3765 8.64999 56.8555C8.533 57.9554 7.97729 58.9685 7.8603 60.0685Z" fill="black"/>
<path d="M16.7812 54.4814C17.6002 53.8735 18.4484 53.2946 19.5305 53.2656C18.6531 53.7288 17.7757 54.1919 16.8982 54.655C16.8397 54.5971 16.8105 54.5393 16.7812 54.4814Z" fill="black"/>
<path d="M18.7975 45.0459C18.6513 45.1617 18.5343 45.3064 18.4466 45.3064C18.0079 45.2774 17.5691 45.2195 17.1304 45.1327C17.0134 45.1038 16.9549 44.9011 16.8672 44.8143C16.9842 44.7564 17.1012 44.6406 17.2182 44.6406C17.7154 44.7275 18.2711 44.7275 18.7975 45.0459Z" fill="black"/>
<path d="M25.7903 45.8849C25.7318 45.5375 25.8781 45.4796 26.0828 45.4507C26.6385 45.3928 27.1942 45.1902 27.8084 45.7112C27.048 45.7691 26.4045 45.827 25.7903 45.8849Z" fill="black"/>
<path d="M33.8615 36.1289C33.8322 36.2157 33.803 36.3605 33.7445 36.4184C33.0718 36.9105 32.3991 37.4025 31.7264 37.8657C31.6971 37.8946 31.6386 37.8657 31.6094 37.8946C31.6971 37.4315 33.0425 36.3894 33.8615 36.1289C33.8907 36.1579 33.8615 36.1289 33.8615 36.1289Z" fill="black"/>
<path d="M11.6914 24.6077C12.1886 23.8261 13.0368 23.4788 13.768 23.0156C13.2123 23.7393 12.4226 24.1156 11.6914 24.6077Z" fill="black"/>
<path d="M33.9771 37.2578C33.3337 37.8078 32.661 38.3867 31.9883 38.9656C32.3393 38.0104 33.1874 37.6631 33.9771 37.2578Z" fill="black"/>
<path d="M31.4943 29.5273C30.7631 29.9615 30.0026 30.4247 29.2422 30.8878C29.3007 30.4247 29.2714 30.4247 30.2366 30.0194C30.6461 29.8168 31.0848 29.701 31.4943 29.5273C31.5235 29.5273 31.4943 29.5273 31.4943 29.5273Z" fill="black"/>
<path d="M19.0041 51.7031C18.2436 52.2242 17.5417 52.6873 16.7812 53.2083C16.8982 52.7162 18.2436 51.8479 19.0041 51.7031Z" fill="black"/>
<path d="M5.78461 29.5273C5.40439 30.0773 4.87793 30.4826 4.29297 30.772C4.58545 30.1642 5.2289 29.9036 5.78461 29.5273Z" fill="black"/>
<path d="M8.23944 60.2411C8.15169 59.5174 8.26868 58.8517 8.56116 58.2148C8.61966 58.2438 8.67815 58.2438 8.73665 58.2438C8.59041 58.9095 8.41492 59.5753 8.23944 60.2411Z" fill="black"/>
<path d="M26.5193 36.1602C26.1098 36.5075 25.6711 36.8259 25.2031 37.2022C25.3201 36.7101 25.6126 36.4496 26.5193 36.1602Z" fill="black"/>
<path d="M25.4688 37.693C25.732 36.9693 25.966 36.7667 26.6387 36.5352C26.2584 36.9115 25.8782 37.2878 25.4688 37.693Z" fill="black"/>
<path d="M10.1976 15.4336C9.58339 16.3309 8.76445 16.9388 8.0625 17.0256C8.76445 16.4178 9.4079 15.9257 10.1976 15.4336Z" fill="black"/>
</svg>
