<svg width="58" height="65" viewBox="0 0 58 65" fill="none" xmlns="http://www.w3.org/2000/svg">
<path d="M14.3008 31.1237C12.9353 31.524 11.5948 31.9494 10.2542 32.3997C9.45974 32.8501 8.66531 33.3255 7.89572 33.8509C6.28204 37.1534 4.66836 40.456 3.05469 43.7586C4.91662 43.008 6.75373 42.1824 8.56601 41.2817C8.49153 47.7617 8.44188 54.2418 8.3674 60.7469C8.3674 61.5475 8.41706 62.4732 9.08735 62.8986C9.45974 63.1237 9.9066 63.1487 10.3286 63.1487C16.833 63.2238 23.3622 63.2989 29.8665 63.3989C32.2498 63.424 34.6827 63.449 36.9171 62.6734C39.8465 61.6476 42.2298 59.2957 43.5455 56.4685C44.8861 53.6413 45.2089 50.4138 44.762 47.3114C44.5882 46.0854 44.3648 44.6343 45.2337 43.7586C45.6309 43.3583 46.2267 43.1581 46.7481 42.958C50.7947 41.4568 54.171 38.2543 55.9336 34.3012C42.1553 32.4247 28.228 30.7985 14.3008 31.1237ZM8.56601 41.2817C8.61566 41.2566 8.69014 41.2316 8.73979 41.2066C8.64049 47.0111 8.54119 52.7907 8.44188 58.5952L8.56601 41.2817Z" fill="white"/>
<path d="M30.6362 45.1075C27.2351 41.7549 20.979 41.7549 16.7834 43.7064C15.1449 45.2326 13.9036 47.1091 13.5313 49.2858C12.9603 52.6384 13.3823 56.5665 16.0387 58.9934C18.9433 60.5696 22.3941 61.1701 25.6711 60.5946C26.3165 60.4945 26.9372 60.3194 27.533 60.0442C28.4267 59.6189 29.1715 58.9433 29.817 58.1927C31.4306 56.3663 32.5975 54.1146 32.8457 51.7127C33.1188 49.3608 32.374 46.8339 30.6362 45.1075Z" fill="#EB584A"/>
<path d="M22.4448 46.1834C22.5441 46.1834 22.5937 46.1834 22.6682 46.1834C22.8172 46.5587 22.8917 47.0841 22.8668 47.5094C23.2392 47.6845 23.4378 47.9347 23.5868 48.1849C23.8102 47.4594 23.9095 46.8839 23.6613 45.8831C23.2392 45.758 22.9165 45.3827 22.842 44.9324C22.7675 44.5821 22.842 44.2318 23.0654 43.9566C22.6186 43.7565 21.9235 43.8566 21.5759 44.5321C21.4269 44.8323 21.4269 45.2576 21.5511 45.5078C21.7248 45.9082 22.0476 46.1333 22.4448 46.1834ZM22.991 44.9324C23.0654 45.3077 23.3385 45.6329 23.7109 45.733L23.8102 45.758L23.835 45.8581C24.1081 46.8589 23.984 47.7096 23.7109 48.4101C23.8599 48.6353 23.984 48.8354 24.2074 48.9355C24.4805 48.5352 24.9522 47.3093 24.7288 45.6079C25.0763 45.3577 25.2998 44.8573 25.126 44.382C24.8032 43.5313 23.7606 43.4062 23.2144 44.0817C23.0158 44.3069 22.9413 44.6322 22.991 44.9324ZM24.9025 45.683C25.1012 47.2842 24.6791 48.5602 24.3316 49.0356L24.3067 49.0856C24.3067 49.1607 24.3564 49.4609 24.3812 49.7862C25.548 48.0849 25.3246 46.2835 25.3246 46.2835C25.8956 46.3835 26.3921 45.9582 26.4914 45.4328C26.6155 44.7072 25.9701 44.0817 25.2253 44.2318C25.2501 44.2569 25.2501 44.2819 25.2749 44.3319C25.4735 44.8824 25.2253 45.4078 24.9025 45.683ZM21.4766 46.1333C21.9731 47.5594 21.6007 48.8354 20.8311 49.9363C20.9552 49.9863 21.129 49.9863 21.3028 49.9863C21.4269 49.9863 21.5262 49.9863 21.6255 49.9863L21.7 49.9113C21.9235 49.7111 22.2214 49.2358 22.3951 48.7103L22.4448 48.5852C22.3951 48.4101 22.42 48.235 22.4448 48.0849C22.4944 47.7596 22.3951 47.5094 22.271 47.4344L22.2958 47.3843C22.4448 47.4093 22.5689 47.4344 22.6682 47.4844C22.6931 47.1341 22.6434 46.7338 22.5193 46.3835C22.4944 46.3835 22.4448 46.3835 22.42 46.3835C21.9731 46.3085 21.5759 46.0333 21.3773 45.6329C21.2283 45.3327 21.2283 44.8824 21.3773 44.5571C20.8311 44.5071 20.4091 44.9074 20.4339 45.3827C20.4339 45.8831 20.9056 46.2835 21.4766 46.1333ZM21.5262 47.3593C21.4021 47.2842 21.2283 47.2342 21.0545 47.2092C21.2532 47.4093 21.1042 47.8347 21.2532 48.1599C21.3028 48.1849 21.3773 48.235 21.4269 48.285C21.5014 47.9848 21.5262 47.6845 21.5262 47.3593ZM22.3703 50.2365L22.4448 50.1865C22.6682 50.0364 22.9413 49.7362 23.0158 49.4359C22.9165 49.2608 22.7427 48.9605 22.5689 48.7854C22.42 49.2858 22.0972 49.8112 21.849 50.0614C22.0476 50.1114 22.2214 50.1615 22.3703 50.2365ZM21.1042 51.0372C21.0546 51.0372 21.0297 51.0121 21.0297 50.9621C21.0297 50.9371 21.0545 50.9121 21.0545 50.9121C21.0297 50.9121 21.0297 50.9121 21.0049 50.9121C20.9056 50.9121 20.8311 50.9871 20.8311 51.0622C20.8311 51.1623 20.9056 51.2123 20.9801 51.2373C21.0546 51.2623 21.1539 51.1623 21.1539 51.0872C21.1539 51.0622 21.1539 51.0372 21.129 51.0121C21.1539 51.0121 21.129 51.0372 21.1042 51.0372ZM25.6473 57.6924C23.9592 57.9426 22.6682 57.0919 22.0972 56.0911H22.1221C22.8172 57.1419 24.4309 57.7424 25.6721 57.4922C25.697 56.9418 28.1299 52.8886 24.3564 50.762C24.3316 50.887 24.2819 51.0372 24.1578 51.0872C24.6046 51.3374 25.126 51.8628 25.2749 53.0387C25.1012 51.7627 24.1826 51.1873 23.7109 51.0622C24.6046 51.1873 24.1578 49.1107 24.1578 49.1107C23.5371 48.8354 23.4875 47.8847 22.6186 47.6345C22.7924 47.8597 22.5689 48.26 22.6682 48.6103C22.9661 48.8354 23.2392 49.4109 23.2392 49.4109C23.1647 49.7612 22.8668 50.1365 22.5689 50.3366C22.991 50.5618 23.3137 50.812 23.4875 51.0121C22.9413 50.9371 22.5689 51.3374 22.5689 51.3374C22.5689 51.3374 22.7675 50.9621 23.1647 50.9121C22.7179 50.6118 22.3951 50.3616 21.8241 50.2365C21.5014 50.1365 20.9056 50.2866 20.6325 50.0614C20.3098 50.5118 18.6216 51.5125 16.4866 51.5876C16.0894 51.5876 15.4688 51.5626 15.4688 51.5626C15.4688 51.6126 15.4936 51.7377 15.5432 51.8128C15.6425 51.8628 15.9156 51.9879 16.1639 51.7127C16.139 51.8128 15.9404 52.0379 15.6425 51.9879C16.1142 52.9637 18.9692 53.8894 20.5084 52.7635C20.4091 53.0387 19.8133 53.3139 19.4409 53.389C19.6395 53.414 19.8877 53.5141 20.0863 53.6392C20.3594 53.8143 20.4836 53.6892 20.6325 53.6642C20.6325 53.5391 20.7566 53.2139 21.129 53.2639C21.5511 53.3139 21.9483 53.8644 22.7427 53.9144C23.562 53.9645 24.1826 53.2889 24.2074 52.1881C24.3067 53.5892 23.5123 54.1896 22.8172 54.1396C22.9165 54.7901 22.5193 55.6408 22.0476 55.916C21.7 55.891 21.3773 56.0161 21.1787 56.3413C21.6504 57.4172 23.5123 58.8683 25.8459 58.3679C25.8211 58.0677 25.7466 57.7674 25.6473 57.6924ZM21.7993 51.3124C21.7745 51.2874 21.7497 51.2623 21.7248 51.2373C21.7 51.2123 21.6752 51.1873 21.6504 51.1623C21.6504 51.1623 21.6255 51.1623 21.6255 51.1372C21.6255 51.1122 21.6007 51.1372 21.6007 51.1122C21.5759 51.1122 21.5759 51.0872 21.5511 51.0872C21.5014 51.0372 21.4269 50.9871 21.3773 50.9621C21.3525 50.9371 21.3276 50.9371 21.278 50.9121C21.3028 50.9621 21.3276 51.0121 21.3028 51.0622C21.3028 51.2373 21.1539 51.3624 20.9801 51.3624C20.8063 51.3624 20.6573 51.2123 20.6573 51.0372C20.6573 50.9371 20.707 50.837 20.8063 50.787C20.7815 50.787 20.7566 50.787 20.7318 50.787H20.707H20.6822C20.6573 50.787 20.6325 50.787 20.6325 50.787C20.5829 50.787 20.558 50.787 20.5084 50.787C20.4836 50.787 20.4587 50.787 20.4587 50.787H20.4091C20.3843 50.787 20.3594 50.787 20.3594 50.787H20.3098C20.3843 50.762 20.4587 50.7119 20.5332 50.7119C20.558 50.7119 20.5829 50.7119 20.5829 50.6869C20.6077 50.6869 20.6325 50.6869 20.6325 50.6619C20.6573 50.6619 20.6822 50.6619 20.6822 50.6619H20.707H20.7318H20.7566H20.7815H20.8063H20.8808C20.9056 50.6619 20.9304 50.6619 20.9304 50.6619H20.9552H20.9801C21.0546 50.6619 21.1539 50.6869 21.2283 50.7119C21.3028 50.7369 21.3773 50.787 21.4518 50.837C21.4766 50.837 21.4766 50.862 21.5014 50.862C21.5014 50.862 21.5262 50.862 21.5262 50.887C21.5262 50.887 21.5511 50.887 21.5511 50.9121C21.5759 50.9371 21.6007 50.9621 21.6255 50.9871C21.6504 51.0121 21.6504 51.0121 21.6752 51.0372C21.6752 51.0622 21.7 51.0622 21.7 51.0872C21.7248 51.1122 21.7497 51.1623 21.7745 51.1873C21.7993 51.2123 21.8241 51.2623 21.8241 51.2874C21.849 51.3124 21.849 51.3624 21.8738 51.3874C21.849 51.3874 21.8241 51.3374 21.7993 51.3124Z" fill="white"/>
<path d="M42.0045 35.2528C41.6817 34.5022 40.7632 34.3271 39.9688 34.2521C37.8834 34.1019 35.7732 34.127 33.6878 34.3021C30.7832 34.5523 27.8289 35.1277 24.9988 34.5022C23.4844 34.152 22.0694 33.4764 20.5798 33.0511C19.0903 32.6258 17.4269 32.4757 16.0367 33.1762C15.7884 33.3013 15.5154 33.4764 15.3664 33.7266C15.2174 33.9768 15.1926 34.2521 15.1678 34.5273C15.0437 35.8533 14.3485 38.6305 14.6216 40.2317C18.9413 40.2067 23.2858 40.2567 27.5807 40.5069C27.8786 40.2818 28.2758 40.1317 28.7723 40.1567C31.5776 40.2317 34.3333 40.2317 37.1138 40.7071C37.1634 40.7071 37.1883 40.7321 37.2131 40.7321C38.1565 39.6563 39.224 38.6805 40.3908 37.8799C41.2845 37.2544 42.4265 36.3037 42.0045 35.2528Z" fill="#BCBCBB"/>
<path d="M12.4625 61.7708C12.5866 61.3454 12.4873 60.745 12.388 60.1445C11.7177 56.6668 10.5509 52.9639 8.91238 49.2109C8.31657 49.261 8.24209 50.0116 8.21726 50.6871C8.19244 51.5628 8.16761 52.4134 8.14278 53.2891C8.06831 55.5159 7.99383 57.7676 7.91935 59.9944C7.89453 60.9201 8.19244 63.0468 9.73164 63.322C10.5757 63.4721 12.2639 62.4213 12.4625 61.7708Z" fill="#BCBCBB"/>
<path d="M45.2578 54.3917C45.084 54.9921 44.7116 55.4925 44.3641 55.9679C42.2539 58.7451 39.8458 61.0969 37.2142 62.9483C37.0156 62.1477 37.3632 61.3221 37.7108 60.5965C38.1576 59.6708 38.6045 58.7451 39.0514 57.8193C40.2182 55.4425 41.3602 53.0406 42.527 50.6637C42.9987 49.663 44.2399 47.8616 44.9847 49.4378C45.4068 50.3135 45.5309 53.4659 45.2578 54.3917Z" fill="#BCBCBB"/>
<path d="M56.9504 34.4998C57.1986 34.9251 56.9504 35.1253 56.7518 35.3505C56.2304 35.9259 55.7091 36.5264 55.1877 37.1269C54.2195 38.2527 53.2513 39.3786 52.2831 40.5295C52.0597 40.8047 51.8362 41.0799 51.6873 41.4052C51.2156 42.381 50.3219 42.6812 49.3785 42.8814C48.7827 43.0064 48.1372 42.9814 47.5166 42.9814C44.9595 43.0565 42.4521 42.7062 40.044 41.7555C39.2992 41.4552 38.5296 41.18 37.7849 40.9048C37.6111 40.8548 37.4125 40.8548 37.2387 40.8298C36.0967 40.7547 34.9795 40.7297 33.8376 40.6296C32.1991 40.4795 30.5605 40.3544 28.8972 40.4294C27.1346 40.5295 25.3968 40.4795 23.6341 40.5295C21.0274 40.6046 18.3959 40.6546 15.7644 40.7547C14.7217 40.7797 13.679 40.8798 12.6363 40.9048C11.7178 40.9298 10.7992 40.8548 9.88066 40.8298C9.55793 40.8298 9.23519 40.8298 8.93728 40.8298C8.86281 42.8063 8.83798 44.7328 8.71385 46.6593C8.63937 47.8853 8.41594 49.0862 8.36629 50.3122C8.29181 51.8383 8.31664 53.3645 8.31664 54.8907C8.34146 56.8923 8.39112 58.9189 8.41594 60.9204C8.41594 61.596 8.61455 62.3215 7.9939 62.922C9.65723 63.3473 11.1716 63.2973 12.7108 63.2723C15.0941 63.2222 17.4525 63.1722 19.8358 63.0721C21.8467 62.9971 23.8824 62.8219 25.8933 62.7719C28.3759 62.7218 30.8585 62.6218 33.341 62.922C34.1851 63.0221 35.054 62.872 35.9229 62.8219C36.3201 62.7969 36.6677 62.7969 36.5187 63.3974C36.8166 63.3974 37.0401 63.4224 37.3132 63.4224C37.338 63.4974 37.3876 63.6726 37.3628 63.6976C37.2139 63.7977 37.0649 63.8978 36.8911 63.9228C36.1712 63.9728 35.4264 64.0479 34.7065 64.0229C32.1246 63.8978 29.5179 64.0229 26.936 63.6976C25.7692 63.5475 24.5527 63.5975 23.3859 63.6225C21.3254 63.6726 19.2896 63.7476 17.2291 63.8477C14.5976 63.9728 11.9909 64.1229 9.38415 63.8727C7.27396 63.6726 7.59669 63.7476 7.59669 61.9963C7.59669 59.9447 7.62152 57.9181 7.59669 55.8665C7.57187 54.7656 7.47256 53.6898 7.47256 52.5889C7.47256 51.6632 7.54704 50.7625 7.62152 49.8368C7.72082 48.6108 7.84495 47.4099 7.8946 46.1839C7.96908 44.6327 8.01873 43.0815 8.06838 41.5303C8.06838 41.3802 8.04356 41.205 8.04356 40.9548C7.69599 41.0549 7.37326 41.0799 7.10018 41.205C5.88371 41.8055 4.69207 42.431 3.50044 43.0565C2.53223 43.5319 1.56402 44.0072 0.570993 44.4826C0.446864 44.5326 0.273084 44.5076 0 44.5076C0.0744774 44.2824 0.0993032 44.0823 0.198606 43.9572C1.66333 42.1808 3.1777 40.4294 4.6176 38.6531C5.53615 37.5522 6.38023 36.3763 7.2243 35.2254C7.72082 34.5498 8.29181 34.0495 9.03659 33.6742C10.6751 32.8485 12.3136 32.0229 14.0017 31.3223C14.5976 31.0721 15.1437 30.947 15.8389 31.1722C16.5836 31.4224 17.4525 31.3473 18.247 31.3473C19.6124 31.3724 21.0026 31.3223 22.368 31.3724C23.2618 31.3974 24.1307 31.5225 25.0244 31.5475C26.5636 31.5975 28.1028 31.5975 29.642 31.6226C30.7343 31.6476 31.8018 31.7477 32.8693 31.7727C33.9617 31.7977 35.0292 31.7477 36.0967 31.7977C37.6111 31.8477 39.1254 31.9728 40.615 32.0729C41.9556 32.173 43.2962 32.3982 44.6616 32.2981C44.8602 32.2731 45.0836 32.3481 45.2822 32.4232C47.6903 33.3489 50.2226 33.8493 52.7052 34.4248C54.1699 34.6499 55.5353 34.6499 56.9504 34.4998ZM43.7927 32.8235C43.5444 32.7735 43.3955 32.6984 43.2465 32.6984C42.1542 32.5983 41.037 32.4482 39.9447 32.3982C36.4939 32.2731 33.0431 32.173 29.5675 32.0979C27.6559 32.0479 25.7443 32.0229 23.8079 31.9478C21.2012 31.8728 18.5697 31.7727 15.963 31.6976C15.7644 31.6976 15.5658 31.7477 15.4665 31.7727C15.3175 34.6249 15.1686 37.3771 14.9948 40.0792C15.1189 40.1542 15.1686 40.2043 15.1934 40.2043C16.7574 40.1792 18.3214 40.1792 19.8855 40.1292C21.0274 40.1042 22.1943 40.0291 23.3362 39.9791C24.23 39.9541 25.1237 39.9541 26.0174 39.9541C27.7801 39.9541 29.5179 39.904 31.2805 39.9541C32.919 40.0041 34.5575 40.1792 36.196 40.3544C37.4125 40.4795 38.3807 40.1042 39.1503 39.1034C40.3916 37.5022 41.7322 35.976 43.0479 34.3997C43.2962 34.0995 43.5693 33.7742 43.5444 33.3239C43.5444 33.1738 43.6686 33.0237 43.7927 32.8235ZM56.007 35.3255C55.9822 35.2504 55.9573 35.2004 55.9325 35.1503C55.6594 35.1253 55.4112 35.1003 55.1381 35.0753C54.2692 34.9752 53.4003 34.9502 52.5562 34.775C51.017 34.4498 49.5026 34.0495 47.9883 33.6491C47.2435 33.449 46.4739 33.2238 45.7291 32.9986C45.2574 32.8485 44.8354 32.8485 44.5375 33.3489C44.3885 33.5991 44.1403 33.7742 43.9416 34.0244C42.328 35.976 40.7391 37.9275 39.1254 39.879C38.9517 40.1042 38.7531 40.3294 38.5296 40.6046C38.7282 40.7297 38.8772 40.8297 39.051 40.8798C39.7957 41.105 40.5653 41.3051 41.2853 41.5553C43.5196 42.381 45.8036 42.6061 48.1372 42.456C49.453 42.381 50.595 41.9806 51.439 40.7297C52.3576 39.3536 53.5244 38.1777 54.5919 36.9017C55.0884 36.4013 55.5601 35.8509 56.007 35.3255ZM10.0544 33.8743C10.0048 33.8243 9.95514 33.7993 9.90549 33.7492C8.86281 34.1996 8.04356 34.8751 7.37326 35.8008C6.45471 37.0518 5.4865 38.2527 4.54312 39.4787C3.64939 40.6296 2.73084 41.7805 1.83711 42.9314C1.73781 43.0565 1.68815 43.2316 1.5392 43.4818C1.86193 43.3317 2.08537 43.2316 2.25915 43.1315C3.25218 42.5811 4.24521 42.0307 5.26307 41.5053C5.95819 41.155 6.70296 40.8798 7.39809 40.5545C8.09321 40.2543 8.78833 39.9541 9.18554 39.2285C9.40897 38.8282 9.70688 38.4779 10.0048 38.1026C11.3454 36.3012 12.7108 34.4998 14.0514 32.6984C14.2252 32.4482 14.3741 32.173 14.5231 31.9228C14.4734 31.8728 14.4238 31.8227 14.3741 31.7727C13.5549 32.0979 12.7356 32.3982 11.9412 32.7735C11.6929 32.8735 11.4943 33.1488 11.3454 33.3989C11.0971 33.8243 10.9482 34.2746 10.6751 34.8251C10.6751 34.3997 10.6503 34.0745 10.6503 33.7742C10.402 33.9994 10.2779 34.2746 10.1289 34.4998C9.97997 34.7 10.0296 35.0753 9.58276 35.1753C9.75654 34.7 9.90549 34.2997 10.0544 33.8743ZM14.9451 32.5483C14.8955 32.5233 14.821 32.4982 14.7713 32.4982C14.5976 32.6984 14.4238 32.8986 14.2748 33.1237C12.7108 35.1753 11.1468 37.2019 9.58276 39.2785C9.38415 39.5287 9.26002 39.804 9.08624 40.1042C10.1537 40.4044 13.7535 40.4545 14.4238 40.1792C14.1755 37.5772 14.7217 35.0753 14.9451 32.5483Z" fill="black"/>
<path d="M37.5121 62.5705C38.0583 62.0951 38.5052 61.7949 38.8527 61.4196C40.5905 59.468 42.3035 57.5165 44.0165 55.565C44.3889 55.1397 44.7613 54.6893 45.1585 54.289C45.506 53.9387 45.6053 53.5884 45.5309 53.1131C45.1336 50.0607 44.8854 47.0083 45.1088 43.9059C45.1336 43.6557 45.0592 43.3555 45.4316 43.2554C45.7295 43.4805 45.6302 43.8058 45.6053 44.081C45.3323 46.7581 45.655 49.4102 45.9032 52.0623C45.9281 52.4376 46.0274 52.8128 46.1019 53.1881C46.226 53.6635 46.077 54.0138 45.7543 54.3641C44.513 55.7151 43.2717 57.0912 42.0304 58.4673C41.0126 59.5931 40.0195 60.744 39.0017 61.8699C38.5052 62.4204 37.9838 62.9708 37.0901 62.9207C37.0653 62.8207 37.0156 62.6705 37.0156 62.5204C37.0653 59.7933 37.1646 57.0662 37.1646 54.3641C37.1646 52.0122 37.0405 49.6854 37.0405 47.3336C37.0405 45.4571 37.1149 43.5806 37.1646 41.7042C37.1646 41.6041 37.2391 41.504 37.2887 41.3789C37.5866 41.479 37.6114 41.6541 37.6114 41.8793C37.537 43.4805 37.4625 45.0818 37.4377 46.6831C37.4377 47.4086 37.5866 48.1342 37.5866 48.8848C37.5866 50.9614 37.5866 53.013 37.5618 55.0896C37.537 57.3164 37.4873 59.5681 37.4625 61.7949C37.4625 61.97 37.4873 62.1702 37.5121 62.5705Z" fill="black"/>
<path d="M9.56081 60.1446C9.75942 59.6442 9.95802 59.1438 10.2063 58.5684C10.6531 59.0437 10.5042 59.5441 10.5042 59.9945C10.5042 60.4448 10.4794 60.9202 10.4545 61.4456C10.9759 61.2955 10.9014 60.72 11.3483 60.4949C11.6462 60.8702 11.9689 61.2455 12.2916 61.6708C11.7455 61.7959 11.5965 61.2705 11.2241 61.0703C10.9511 61.5207 10.7028 61.996 10.3801 62.5214C10.0325 61.996 10.2559 61.4956 10.2063 61.0453C10.1815 60.5949 10.2311 60.1196 10.1566 59.6442C9.63529 60.4698 9.53598 61.4456 9.1636 62.3213C8.96499 61.6708 9.08912 61.0453 9.13877 60.4198C9.21325 59.5441 9.28773 58.6935 9.33738 57.8178C9.3622 57.5426 9.2629 57.2423 9.18842 56.9671C9.08912 56.6419 9.13877 56.4167 9.43668 56.0664C9.73459 57.4925 9.58563 58.8186 9.56081 60.1446Z" fill="black"/>
<path d="M37.8371 59.6955C37.8123 59.1451 38.1847 58.9199 38.4826 58.6697C39.4508 57.8941 40.4687 57.1435 41.5113 56.418C40.99 57.0685 40.3693 57.5939 39.7487 58.0943C39.1529 58.6197 38.5322 59.1451 37.8371 59.6955Z" fill="black"/>
<path d="M40.4157 56.3398C39.6461 56.9653 38.9013 57.5658 38.082 58.2413C38.231 57.5408 39.1992 56.7652 40.4157 56.3398Z" fill="black"/>
<path d="M37.8359 60.5702C38.4069 59.7696 39.0772 59.1691 39.8965 58.7188C39.3007 59.3693 38.7297 60.0198 38.109 60.6703C38.109 60.6953 38.0097 60.6203 37.8359 60.5702Z" fill="black"/>
<path d="M41.6816 57.1445C41.3837 57.6699 40.912 57.9952 40.3906 58.2454C40.8127 57.8701 41.0857 57.3197 41.6816 57.1445Z" fill="black"/>
<path d="M41.7103 57.1679C41.8592 56.8927 41.9833 56.6425 42.182 56.2422C42.182 56.8176 42.182 56.8176 41.7103 57.1679C41.6854 57.1429 41.7103 57.1679 41.7103 57.1679Z" fill="black"/>
<path d="M39.3007 35.1017C39.0276 34.9016 38.8787 34.7514 38.6801 34.6514C38.5063 34.5763 38.2829 34.5513 38.0594 34.3511C38.407 34.201 38.7297 34.0759 39.2014 33.8757C38.3822 33.6005 37.7367 33.9508 37.0664 33.8757C37.5381 33.4504 39.6483 33.2753 40.9144 33.5505C40.5172 34.151 39.8221 33.9008 39.3255 34.226C39.4 34.3761 39.4993 34.5263 39.4993 34.7014C39.5242 34.8265 39.3752 34.9516 39.3007 35.1017Z" fill="black"/>
<path d="M42.6996 37.3532C42.6748 37.4783 42.6748 37.6285 42.6003 37.7035C41.93 38.6543 41.2597 39.605 40.5646 40.5307C40.4156 40.7309 40.2418 40.9561 39.9688 40.7809C40.8128 39.58 41.6569 38.379 42.501 37.2031C42.5755 37.2532 42.6251 37.3032 42.6996 37.3532Z" fill="black"/>
<path d="M43.0243 38.4531C42.4037 39.3288 41.8575 40.1294 41.2617 40.9801C41.2865 40.0794 42.2299 38.6533 43.0243 38.4531Z" fill="black"/>
<path d="M13.3587 40.0289C13.2594 38.3276 13.6815 36.6763 13.8056 35C14.0787 35.5254 13.8553 38.2025 13.3587 40.0289Z" fill="black"/>
<path d="M12.909 39.8297C12.5118 38.854 12.5615 37.5029 13.1573 36.7773C13.0828 37.3028 13.0083 37.8031 12.9587 38.3286C12.909 38.8289 12.909 39.3293 12.909 39.8297Z" fill="black"/>
<path d="M46.6502 17.0881L46.2778 18.1639L45.9054 19.2147L44.4655 23.2929V23.3179L42.2808 29.5478V29.5728L38.5073 40.2812C38.4328 40.3062 38.3832 40.3062 38.3087 40.3312C38.2839 40.3312 38.2591 40.3562 38.2591 40.3562C38.1349 40.4063 38.0605 40.4813 37.986 40.5814C37.9363 40.6565 37.9115 40.7565 37.9115 40.8316C37.8867 40.8316 37.8867 40.8066 37.8619 40.8066C37.7874 40.7816 38.0108 40.1311 37.8122 40.1561C37.5391 40.1811 36.8688 40.3062 36.7447 40.3062C35.6027 40.2311 35.3048 40.1811 34.1876 40.081C33.6166 40.031 33.0457 39.9809 32.4747 39.9309C32.3009 39.9059 32.1519 39.9059 31.9781 39.8809C31.9285 39.8809 31.8788 39.8809 31.8292 39.8809C31.0844 39.8308 30.3645 39.8058 29.6197 39.8308C29.4956 39.8308 29.3714 39.8308 29.2473 39.8558C28.8997 39.8809 28.577 39.8809 28.2294 39.8809C27.2364 39.9059 26.2434 39.8809 25.2255 39.8809C24.7787 39.8809 24.3318 39.8809 23.8849 39.9059C21.7499 39.9559 19.6646 40.031 17.5544 40.081C17.182 40.081 16.7848 40.106 16.4124 40.106C16.3131 40.106 16.1889 40.106 16.0896 40.106C15.3449 40.1311 14.5008 40.1811 13.7064 40.2061H13.6815L13.0361 40.2311C12.9616 40.2311 12.8871 40.2311 12.8126 40.2311C12.4402 40.2311 12.1175 40.2311 11.7948 40.2311L11.4472 40.1311L11.2734 40.081L12.6885 35.8777L15.0718 28.7722L17.2565 22.3171L20.9803 11.2835C20.9803 11.2585 21.0051 11.2335 21.0051 11.2085L21.2782 10.3828L22.8174 10.7831L30.8858 12.8848L42.2064 15.8371L45.7565 16.7628L46.6502 17.0881Z" fill="white"/>
<path d="M25.1499 39.9564C24.703 39.9564 24.2561 39.9564 23.8093 39.9815C21.6742 40.0315 19.5889 40.1065 17.4787 40.1566C17.1063 40.1566 16.7091 40.1816 16.3367 40.1816C16.2374 40.1816 16.1133 40.1816 16.014 40.1816C15.2692 40.2066 14.4251 40.2567 13.6307 40.2817C13.3328 40.0065 13.0597 39.6562 12.8859 39.2559L12.8363 39.1558C12.7866 39.0057 12.737 38.8306 12.6873 38.6804C12.6873 38.6304 12.6625 38.5804 12.6625 38.5303C12.5632 37.9799 12.5632 37.3794 12.588 36.804C12.588 36.5037 12.6128 36.2285 12.6128 35.9283C12.6377 35.578 12.6377 35.2277 12.6625 34.8775C12.6873 34.277 12.737 33.6765 12.7866 33.1011C13.3824 31.7 14.0031 30.3239 14.6982 28.9729C14.7479 28.8978 14.7975 28.7977 14.8223 28.7227C14.872 28.7477 14.9465 28.7727 14.9961 28.8227C15.1947 28.9228 15.3685 29.0479 15.5423 29.173C16.858 30.1738 17.6276 31.8501 18.571 33.2762C18.72 33.5014 18.8938 33.7516 19.0675 33.9768C19.1172 34.0518 19.1917 34.1269 19.2413 34.2019C19.291 34.277 19.3654 34.3521 19.4151 34.4271C19.4648 34.4772 19.4896 34.5272 19.5392 34.5772C19.6137 34.6773 19.6882 34.7524 19.7627 34.8524C19.9116 35.0276 20.0606 35.1777 20.2095 35.3528C20.2592 35.4029 20.284 35.4529 20.3337 35.503C21.004 36.2285 21.7239 36.904 22.4438 37.5546C22.7666 37.8548 23.0893 38.13 23.4121 38.4052L23.4369 38.4302C23.561 38.5303 23.6603 38.6304 23.7844 38.7305C23.9334 38.8556 24.0824 38.9807 24.2065 39.1058C24.554 39.406 24.8519 39.6812 25.1499 39.9564Z" fill="#BCBCBB"/>
<path d="M42.354 28.5723C42.9746 25.62 44.7621 23.018 45.8793 20.2408L45.8544 18.2392C45.8793 17.8389 45.9289 17.4136 45.78 17.0133C45.4572 16.1376 44.4145 15.8123 43.496 15.5872C43.2229 15.5121 42.9498 15.4621 42.7016 15.5371C42.205 15.6622 41.932 16.2127 41.7582 16.688C39.7721 21.6169 37.7364 26.7209 37.786 32.075C39.1018 32.3252 40.2438 31.2744 41.1872 30.3237C41.5844 29.9234 41.9816 29.5231 42.354 29.0977C42.3292 28.9476 42.3292 28.7725 42.354 28.5723Z" fill="#BCBCBB"/>
<path d="M16.9344 9.43411C16.6861 9.40909 16.5868 9.4341 16.5372 9.40909C15.1221 8.50838 13.707 7.6327 12.292 6.73199C12.0189 6.55686 11.6713 6.40674 11.7954 5.78125C13.707 6.68195 15.5938 7.53262 16.9344 9.43411Z" fill="#EB584A"/>
<path d="M20.4339 0C20.6325 0.350274 20.8311 0.525411 20.8559 0.725567C20.9056 2.55199 21.4021 4.27834 21.7745 6.10477C21.3773 6.07975 21.129 5.85457 21.0794 5.55434C20.7566 3.87803 20.1111 2.25176 20.1856 0.500391C20.1856 0.400313 20.2601 0.325254 20.4339 0Z" fill="#EB584A"/>
<path d="M25.7461 6.98121C25.7461 5.78028 28.2783 2.50272 29.7927 2.02734C29.5941 2.37762 29.5196 2.62781 29.3458 2.80295C28.9238 3.27832 28.4521 3.70365 28.0549 4.17902C27.2853 5.07973 26.5157 6.03047 25.7461 6.98121Z" fill="#EB584A"/>
<path d="M46.6242 17.0895C46.5994 17.1896 46.4504 17.2897 46.3511 17.3147C46.227 17.3397 46.1029 17.2897 45.9539 17.2396C45.9043 17.2396 45.8794 17.2146 45.8298 17.2146C44.5389 16.8894 43.2727 16.5641 42.0066 16.1888C40.8895 15.8636 39.7475 15.5133 38.6551 15.138C37.2649 14.6626 35.8002 14.3874 34.3851 14.0121C33.1935 13.6869 32.0267 13.3366 30.835 12.9863C30.0654 12.7611 29.2958 12.536 28.5262 12.3358C26.7139 11.8354 24.9017 11.3851 23.0894 10.9347C22.9901 10.9097 22.8908 10.8847 22.7666 10.8596C22.4936 10.8096 22.2205 10.7846 21.8977 10.7345C21.1281 12.3608 20.8054 14.0872 20.3089 15.9136C20.8302 15.6884 21.2026 15.5383 21.6991 15.3381C21.153 15.9887 20.1351 15.9887 20.1103 17.0895C20.7061 16.8643 21.2523 16.6392 21.7736 16.439C21.7984 16.464 21.7984 16.5141 21.8233 16.5391C21.4012 16.7643 21.004 16.9894 20.582 17.2146C20.0855 17.4648 19.7627 17.8651 19.5641 18.3905C18.7945 20.3671 17.9753 22.3436 17.2305 24.3202C16.9078 25.1208 16.6843 25.9464 16.3864 26.7721C16.1133 27.5977 15.8403 28.4234 15.5672 29.249C15.4182 29.6743 15.2941 30.0997 15.1451 30.525C14.4748 32.5516 13.7797 34.5531 13.1094 36.5797C12.9108 37.2302 12.6626 37.8807 12.6874 38.6063C12.6874 38.6564 12.6874 38.7064 12.6874 38.7314H12.7122C12.8612 38.7815 12.9605 38.8315 13.0846 38.8815C14.599 39.2068 16.0389 39.6822 17.5036 40.2076C17.1312 40.2076 16.734 40.2326 16.3616 40.2326C15.3934 39.9324 14.4252 39.6071 13.457 39.3069C13.2832 39.2568 13.0846 39.2318 12.886 39.2318C12.8115 39.2318 12.7122 39.2068 12.6377 39.2068C12.4639 39.432 12.2653 39.6571 12.0171 39.9574C12.3646 40.1075 12.6874 40.2826 13.0101 40.3827C12.9356 40.3827 12.8612 40.3827 12.7867 40.3827C12.4143 40.3827 12.0916 40.3827 11.7688 40.3827C11.744 40.3827 11.744 40.3827 11.7192 40.3827C11.6199 40.3577 11.5206 40.3076 11.3964 40.2826C11.3468 40.2576 11.2723 40.2576 11.2227 40.2326C11.3716 39.5571 11.4709 38.9316 11.6447 38.3311C11.9923 37.2052 12.3398 36.1044 12.7122 34.9785C12.8612 34.5031 13.0101 34.0277 13.1591 33.5524C13.3328 33.052 13.4818 32.5266 13.6556 32.0262C14.0031 31.0504 14.3755 30.0747 14.7231 29.0739C15.17 27.8479 15.6416 26.5969 16.0885 25.371C16.4609 24.3952 16.8333 23.4195 17.2057 22.4687C17.8263 20.8424 18.447 19.2412 19.0428 17.6149C19.4896 16.389 19.7627 15.0879 20.1599 13.837C20.4082 13.0363 20.6813 12.2357 20.9295 11.4351C20.9295 11.4101 20.9544 11.3851 20.9544 11.36C21.0537 11.0848 21.1281 10.8096 21.2274 10.5344C21.7488 10.2842 22.295 10.2592 22.8411 10.4093C24.5789 10.8596 26.3167 11.2349 28.0545 11.7103C29.9413 12.2357 31.8032 12.8112 33.6652 13.3366C33.9631 13.4367 34.2858 13.5117 34.6085 13.5618C35.5767 13.7119 36.5201 14.0621 37.4635 14.2873C39.1268 14.7127 40.7157 15.3632 42.3542 15.8135C42.5031 15.8636 42.6521 15.8886 42.8011 15.9386C43.67 16.1638 44.5637 16.3639 45.4326 16.5891C45.656 16.6392 45.9043 16.7142 46.1277 16.7643C46.227 16.7893 46.3511 16.7893 46.4256 16.8643C46.5497 16.8393 46.649 16.9894 46.6242 17.0895Z" fill="black"/>
<path d="M45.2095 18.5671C45.0109 18.5921 44.8619 18.6672 44.7378 18.6422C44.1668 18.5171 43.571 18.442 43.0248 18.2168C41.858 17.7164 40.6416 17.4162 39.4003 17.166C38.0348 16.8658 36.6943 16.5655 35.3785 16.0902C34.6834 15.84 33.9138 15.7899 33.1938 15.5898C31.7787 15.2145 30.3637 14.7641 28.9486 14.3888C28.601 14.2888 28.2287 14.2387 27.8563 14.1386C26.044 13.7383 24.2565 13.363 22.4443 12.9627C22.2456 12.9127 22.0222 12.8626 21.8484 12.7375C21.7491 12.6625 21.6995 12.4874 21.625 12.3623C21.7491 12.3122 21.8484 12.2372 21.9477 12.2121C22.047 12.1871 22.1463 12.2622 22.2456 12.2622C24.3062 12.7375 26.3667 13.1629 28.4273 13.6633C29.7182 13.9885 31.0091 14.3888 32.3001 14.7391C33.0449 14.9393 33.7896 15.1394 34.5344 15.3396C35.0806 15.4647 35.6516 15.5147 36.1729 15.7149C37.6873 16.2403 39.2761 16.5155 40.8153 16.9158C42.2304 17.2911 43.5958 17.8415 44.9861 18.3169C45.0854 18.3419 45.1102 18.442 45.2095 18.5671Z" fill="black"/>
<path d="M46.5014 18.0898C46.4517 18.3901 46.4517 18.5902 46.3772 18.7404C46.2035 19.0906 46.0545 19.4159 45.9055 19.7662C45.6573 20.3916 45.4587 21.0672 45.2601 21.7177V21.7427C45.1111 22.193 44.8877 22.6434 44.6394 23.0437C44.5898 23.0938 44.565 23.1688 44.5153 23.2189C44.4905 23.2439 44.4905 23.2689 44.4656 23.2939C44.3167 23.5441 44.1926 23.7943 44.0933 24.0445C43.8698 24.5949 43.696 25.1454 43.4974 25.6958C43.0754 26.9718 42.6782 28.2728 42.2562 29.5488V29.5738C41.8589 30.7497 41.4617 31.9507 41.0645 33.1266C40.2453 35.5034 39.426 37.8553 38.6812 40.2572C38.6068 40.2822 38.5571 40.2822 38.4826 40.3072C38.4082 40.3322 38.3585 40.3322 38.284 40.3572C38.2592 40.3572 38.2344 40.3823 38.2344 40.3823C38.9543 38.0805 39.6991 35.8037 40.4935 33.5269C40.9404 32.2759 41.3376 30.9999 41.7596 29.7239C42.2313 28.2478 42.703 26.7966 43.1995 25.3205C43.4974 24.4448 43.9443 23.5941 44.2919 22.7185C44.5401 22.118 44.838 21.5425 44.987 20.9171C45.1856 20.1164 45.5083 19.3909 45.9055 18.6903C46.0048 18.5152 46.0793 18.3651 46.1786 18.1899C46.2035 18.1649 46.2283 18.1399 46.2779 18.1149C46.3028 18.1649 46.3772 18.1149 46.5014 18.0898Z" fill="black"/>
<path d="M34.1862 34.8279C33.516 34.5777 33.0443 34.8029 32.5726 35.0531C32.3491 35.1782 32.1257 35.3283 32.225 35.6035C32.2995 35.8037 32.4733 36.0038 32.6719 36.1039C32.945 36.254 33.2677 36.304 33.6153 36.4041C32.9698 36.7544 31.9023 36.3291 31.803 35.7286C31.7781 35.5284 31.8278 35.1782 31.9768 35.0781C32.4981 34.7528 33.0194 34.4776 33.5904 34.2775C33.8635 34.1274 33.9628 34.2775 34.1862 34.8279Z" fill="black"/>
<path d="M23.7332 19.441C24.0808 19.3409 24.3291 19.2909 24.5525 19.2158C24.9001 19.0907 25.1235 18.8155 25.2228 18.4653C25.3966 17.9398 25.0987 17.5645 24.5277 17.6146C24.2794 17.6396 24.0312 17.6896 23.6836 17.7147C24.2049 16.9891 25.1731 16.9891 25.4959 17.6646C25.6945 18.14 25.6945 18.6154 25.3469 19.0407C24.9745 19.5161 24.478 19.6662 23.7332 19.441Z" fill="black"/>
<path d="M36.3228 22.2947C35.4787 21.8693 35.1808 21.3439 35.3298 20.6184C35.4291 20.218 35.8759 19.7927 36.298 19.7677C36.6207 19.7427 36.8441 19.9428 37.0427 20.4682C36.9434 20.4432 36.869 20.4432 36.8193 20.4182C36.4966 20.118 36.1987 20.193 35.9008 20.4432C35.6525 20.6684 35.6028 21.0437 35.7766 21.419C35.8511 21.5941 35.9752 21.7442 36.0994 21.8693C36.1987 21.9694 36.3476 22.0695 36.4966 22.1446C36.4221 22.2196 36.3724 22.2446 36.3228 22.2947Z" fill="black"/>
<path d="M17.0328 33.2264C16.5114 33.5266 16.2632 33.8769 16.4121 34.4023C16.5859 35.0528 17.1321 35.2029 17.6782 35.353C17.6534 35.403 17.6534 35.4531 17.6286 35.4781C16.9831 35.6782 16.5611 35.328 16.1887 34.8526C15.8411 34.4023 15.8411 33.9019 16.0894 33.4015C16.3128 33.0512 16.4866 33.0012 17.0328 33.2264Z" fill="black"/>
<path d="M26.0703 34.4292C26.9392 34.0539 26.9392 34.0539 26.9144 33.1532C26.7158 33.1032 26.4924 33.0782 26.2193 33.0031C26.2937 32.853 26.3186 32.6779 26.393 32.6528C26.5668 32.6028 26.7654 32.5778 26.9144 32.6528C27.3364 32.853 27.4854 33.5035 27.2371 34.0789C27.0633 34.5543 26.7903 34.6544 26.0703 34.4292Z" fill="black"/>
<path d="M32.0513 27.6239C32.3988 27.5739 32.5975 27.699 32.6223 28.0242C32.6471 28.3495 32.2747 28.6497 31.8527 28.6247C31.4803 28.6247 31.2072 28.3745 31.232 28.0493C31.2569 27.749 31.4803 27.6239 32.0513 27.6239Z" fill="black"/>
<path d="M20.9531 28.0962C21.1269 27.9962 21.3007 27.846 21.5241 27.821C21.7724 27.771 21.9958 27.9461 21.9958 28.2213C21.9958 28.5216 21.7972 28.6216 21.5241 28.6216C21.2262 28.6467 21.0276 28.5216 20.9531 28.0962Z" fill="black"/>
<path d="M27.457 21.9199C27.7301 21.8949 27.9287 21.8199 28.1273 21.8449C28.2515 21.8699 28.4004 22.02 28.4252 22.1451C28.4501 22.2702 28.3259 22.4453 28.2266 22.5204C27.8294 22.7456 27.5067 22.5454 27.457 21.9199Z" fill="black"/>
<path d="M20.1328 22.8694C20.3066 22.6943 20.4555 22.4941 20.679 22.394C20.9024 22.2689 21.101 22.4691 21.1258 22.6943C21.1507 22.7943 21.0265 23.0195 20.9024 23.0445C20.7038 23.1196 20.4555 23.0946 20.2321 23.1196C20.2073 23.0195 20.1825 22.9445 20.1328 22.8694Z" fill="black"/>
<path d="M31.2801 18.2904C30.6843 17.9651 30.585 17.7399 30.9077 17.4897C31.007 17.4147 31.1808 17.3646 31.2553 17.4147C31.3546 17.4647 31.4539 17.6148 31.4539 17.7149C31.4539 17.9151 31.3546 18.0902 31.2801 18.2904Z" fill="black"/>
<path d="M39.5476 25.6968C39.8704 25.6718 40.2179 25.972 40.2179 26.2222C40.2179 26.3473 40.069 26.4974 39.9697 26.5224C39.7463 26.5975 39.3739 26.2722 39.3739 25.997C39.349 25.8969 39.498 25.7718 39.5476 25.6968Z" fill="black"/>
<path d="M24.6284 38.8549C24.3802 39.005 24.2312 39.1552 24.0574 39.2052C23.983 39.2302 23.8092 39.0301 23.7844 38.93C23.7347 38.6548 23.9581 38.5547 24.1567 38.5547C24.3057 38.5547 24.405 38.7048 24.6284 38.8549Z" fill="black"/>
<path d="M39.0524 22.8439L36.8925 28.5233L36.0236 30.8001L35.1547 33.1019L33.541 36.3794L33.5162 36.4545L32.8956 37.7305L31.8032 39.9572C31.0585 39.9072 30.3385 39.8822 29.5937 39.9072C29.4696 39.9072 29.3455 39.9072 29.2214 39.9322C28.8738 39.9572 28.5511 39.9572 28.2035 39.9572L25.5968 39.1316L24.6038 38.8063L24.0328 38.6312L23.5114 38.456L19.1669 37.055L18.3477 36.8048V36.7797L19.2414 34.2528L21.2523 28.5983L21.5254 27.8478L23.2383 23.4944L23.8838 21.8431L24.8024 19.5163L25.0506 18.8908L25.2741 18.2903L25.3485 18.1152L25.4975 17.7148L33.2431 19.7915L35.4278 20.3669L35.8747 20.492L36.0484 20.6171L38.6303 22.5686L39.0524 22.8439Z" fill="white"/>
<path d="M29.0956 39.7561C29.2446 39.8062 29.4183 39.8562 29.5673 39.9062C29.4432 39.9062 29.319 39.9063 29.1949 39.9313C28.8474 39.9563 28.5246 39.9563 28.1771 39.9563C27.5316 39.7561 26.9109 39.556 26.2655 39.3558C26.0172 39.2808 25.7938 39.2057 25.5455 39.1306C25.2228 39.0306 24.8752 38.9305 24.5525 38.8304C24.3539 38.7804 24.1553 38.7053 23.9318 38.6303C23.7829 38.5802 23.6091 38.5302 23.4602 38.4801C23.3857 38.4551 23.336 38.4301 23.2616 38.4301C22.4175 38.1549 21.5734 37.8797 20.7542 37.6295C20.2328 37.4543 19.7115 37.2792 19.1653 37.1041C18.8922 37.029 18.6191 36.9289 18.346 36.8288V36.8038C18.346 36.6037 18.3212 36.4285 18.3709 36.2784C18.5943 35.5278 18.8426 34.7772 19.066 34.0517C19.2398 33.5012 19.4384 32.9258 19.6122 32.3754C20.059 31.0243 20.5307 29.6733 21.0024 28.3222C21.0272 28.2471 21.0521 28.1721 21.0769 28.097C21.1762 27.8468 21.2507 27.5966 21.35 27.3464C21.8217 25.9954 22.3182 24.6693 22.8395 23.3433C23.3112 22.1924 23.8325 21.0915 24.3291 19.9406C24.3787 19.8155 24.4284 19.7155 24.4532 19.5904C24.5028 19.4903 24.5277 19.3652 24.5773 19.2401C24.6766 18.9148 24.8008 18.5896 24.9001 18.2643C24.9497 18.1392 25.0242 18.0392 25.0987 17.9141C25.1483 17.9391 25.198 17.9641 25.2228 17.9891C25.2724 18.0392 25.2973 18.0642 25.3221 18.1142C25.3966 18.2643 25.3469 18.4645 25.2973 18.6146C25.198 18.8898 25.0987 19.14 24.9994 19.4152C24.9001 19.6654 24.7759 19.9406 24.6518 20.1908C24.3539 20.7413 24.1056 21.2917 23.8574 21.8672C23.6339 22.4176 23.4105 22.968 23.2119 23.5184C22.9885 24.1439 22.765 24.7944 22.5416 25.4199C22.2685 26.2456 21.9706 27.0712 21.6727 27.8969C21.5734 28.1721 21.4989 28.4223 21.3996 28.6975C20.779 30.4739 20.1583 32.2753 19.5377 34.0517C19.488 34.1768 19.4632 34.3269 19.4136 34.527C19.3887 34.5771 19.3887 34.6521 19.3639 34.7272C19.4384 34.7022 19.488 34.6772 19.5377 34.6772C19.9349 34.5521 20.2328 34.452 20.5307 34.3519C20.3321 34.6271 20.0342 34.7522 19.7611 34.9274C19.5129 35.0775 19.2646 35.2526 19.0908 35.5528C19.5129 35.5028 19.8604 35.4528 20.208 35.4027C20.3073 35.3777 20.4314 35.3777 20.5307 35.3527C20.5307 35.3777 20.5555 35.4277 20.5555 35.4528C20.4811 35.4778 20.4066 35.5028 20.3321 35.5528C19.8604 35.728 19.3887 35.9281 18.7681 36.1783C19.0908 36.4035 19.2398 36.5536 19.3887 36.6037C19.8852 36.8038 20.4066 36.9289 20.9031 37.1041C21.3996 37.2792 21.921 37.4293 22.4175 37.6045C24.6766 38.305 26.8861 39.0306 29.0956 39.7561Z" fill="black"/>
<path d="M39.4977 21.6429C39.3488 22.0432 39.2247 22.4436 39.0757 22.8439C38.6785 23.9697 38.3061 25.0706 37.8841 26.1965C37.5861 26.9721 37.2386 27.7727 36.9159 28.5483C36.8166 28.7485 36.7421 28.9737 36.6428 29.1738C36.4442 29.6242 36.1959 30.0495 36.1214 30.5249C36.0966 30.6249 36.0718 30.725 36.047 30.8251C35.8483 31.6257 35.5256 32.3763 35.1781 33.1019C35.0539 33.3771 34.9546 33.6523 34.8553 33.9275C34.3836 35.1785 33.9119 36.4295 33.4154 37.6805C33.1175 38.4561 32.7948 39.2317 32.4472 40.0073C32.2734 39.9822 32.1245 39.9822 31.9507 39.9572C32.0004 39.8822 32.05 39.7821 32.0748 39.707C32.3479 39.0565 32.621 38.381 32.8941 37.7305C33.0679 37.3302 33.2416 36.9048 33.3906 36.5045C33.4154 36.4545 33.4402 36.4045 33.4402 36.3544C33.6637 35.829 33.8623 35.3036 34.0609 34.7782C34.0609 34.7532 34.0857 34.7281 34.0857 34.7031C34.0857 34.6781 34.1105 34.6781 34.1105 34.6531C34.6815 33.1769 35.1781 31.6758 35.7242 30.1746C35.8235 29.8994 35.9228 29.6242 36.047 29.3489C36.6924 27.6977 37.3627 26.0464 37.9834 24.3951C38.2068 23.7946 38.4302 23.1941 38.6537 22.5687C38.753 22.3185 38.8274 22.0683 38.9267 21.8181C38.3806 21.5428 37.9089 21.2426 37.4124 21.0174C37.0152 20.8423 36.5931 20.7172 36.1959 20.6421C36.1711 20.6421 36.1214 20.6171 36.0966 20.6171C36.0221 20.5921 35.9476 20.5921 35.8483 20.5671C35.6994 20.5421 35.5753 20.492 35.4263 20.467C34.7064 20.2919 33.9864 20.0417 33.2913 19.7915C32.3479 19.4412 31.4542 19.0659 30.5108 18.6906C28.9468 18.0401 27.3579 17.5147 25.6698 17.3646C25.3967 17.3396 25.1981 17.2895 25.1484 16.8892C25.2974 16.8642 25.4712 16.7641 25.645 16.7891C27.0104 17.0393 28.351 17.3646 29.6667 17.89C31.3052 18.5155 32.9437 19.191 34.6071 19.7665C34.9794 19.8916 35.3518 19.9916 35.7242 20.0917C35.9725 20.1418 36.1959 20.2168 36.4442 20.2669C36.5186 20.2919 36.5683 20.2919 36.6428 20.3169C36.7669 20.3419 36.891 20.3669 37.0152 20.417C37.1889 20.467 37.3627 20.517 37.5365 20.5671C38.2068 20.7422 38.8523 21.0925 39.4977 21.6429Z" fill="black"/>
<path d="M26.6898 19.5156L24.9023 26.396L33.0452 29.6736L34.0134 27.1716L34.7582 22.2428L26.6898 19.5156Z" fill="#EB584A"/>
<path d="M34.7582 22.2412C32.1018 20.8651 29.1476 20.665 26.1685 20.1396C26.1685 20.0645 26.1188 19.7893 26.1933 19.6892C26.2926 19.5641 26.5408 19.4891 26.6898 19.5391C28.1297 20.0895 29.6689 20.2397 31.1833 20.4899C32.1763 20.665 33.1197 21.0903 34.0631 21.4156C34.361 21.5157 34.6589 21.6157 34.9568 21.6908C35.2547 21.7659 35.3292 21.966 35.2299 22.3663C35.0809 22.9668 34.9568 23.5673 34.8078 24.1927C34.5596 25.1935 34.3113 26.2193 34.0134 27.1951C33.7651 28.0207 33.4176 28.7963 33.0452 29.7221C31.6301 29.1466 30.2895 28.6212 28.9489 28.0708C27.6084 27.5203 26.2926 26.9949 24.9023 26.4195C25.2251 24.6681 25.3492 22.9418 26.0195 21.2404C26.094 21.0653 26.2429 20.8902 26.3422 20.7401C26.3919 20.7651 26.4415 20.7901 26.516 20.8151C26.4912 21.0153 26.516 21.2655 26.4415 21.4406C25.945 22.4164 25.8209 23.4922 25.6471 24.518C25.5726 24.9684 25.523 25.4437 25.4237 25.9942C27.807 27.2201 30.3392 27.9457 32.7225 29.0716C33.5169 27.8956 34.5347 24.518 34.7582 22.2412Z" fill="black"/>
<path d="M30.188 34.9001C30.1384 34.9752 30.1135 35.0002 30.1135 35.0002C30.0639 35.0252 30.0391 35.0252 29.9894 35.0252C29.9149 35.0252 29.8653 35.0002 29.7908 34.9752C27.5317 33.9494 25.3966 32.6484 22.9885 31.9228C22.9637 31.9228 22.9637 31.8478 22.9141 31.7227C23.1127 31.7477 23.2616 31.7477 23.4354 31.7727C24.6519 32.0479 25.7194 32.6484 26.8365 33.1988C27.9041 33.7242 28.9716 34.2246 30.0391 34.75C30.0887 34.775 30.1135 34.8501 30.188 34.9001Z" fill="black"/>
<path d="M28.4014 37.8293C27.6318 37.2038 26.7877 37.1037 25.9685 36.8285C24.7272 36.4282 23.4859 36.0529 22.2446 35.6526C22.1205 35.6025 22.0212 35.5275 21.9219 35.3523C22.046 35.3523 22.195 35.3023 22.3191 35.3273C24.2307 35.9278 26.1174 36.5533 28.0042 37.1788C28.2525 37.3039 28.4759 37.4039 28.4014 37.8293Z" fill="black"/>
<path d="M28.3026 32.2268C28.2281 32.2268 28.1288 32.2519 28.0543 32.2268C26.5896 31.5013 25.1249 30.7507 23.6602 30.0251C23.685 29.9751 23.685 29.925 23.7098 29.875C23.8588 29.9 24.0325 29.9 24.1567 29.9751C25.0504 30.3754 25.9441 30.8007 26.8379 31.2511C27.2847 31.4763 27.7316 31.7014 28.1536 31.9266C28.2281 31.9766 28.3026 32.0517 28.3771 32.1268C28.3522 32.1518 28.3274 32.1768 28.3026 32.2268Z" fill="black"/>
<path d="M29.246 24.1206L29.2212 24.0956C29.2212 24.0956 29.2212 24.0705 29.246 24.0705C29.246 24.0705 29.246 24.0705 29.2212 24.0705C29.1964 24.0705 29.1467 24.0956 29.1467 24.1206C29.1467 24.1456 29.1716 24.1956 29.1964 24.1956C29.2212 24.1956 29.2709 24.1706 29.2709 24.1456V24.1206H29.246ZM29.246 24.1206L29.2212 24.0956C29.2212 24.0956 29.2212 24.0705 29.246 24.0705C29.246 24.0705 29.246 24.0705 29.2212 24.0705C29.1964 24.0705 29.1467 24.0956 29.1467 24.1206C29.1467 24.1456 29.1716 24.1956 29.1964 24.1956C29.2212 24.1956 29.2709 24.1706 29.2709 24.1456V24.1206H29.246ZM29.246 24.1206L29.2212 24.0956C29.2212 24.0956 29.2212 24.0705 29.246 24.0705C29.246 24.0705 29.246 24.0705 29.2212 24.0705C29.1964 24.0705 29.1467 24.0956 29.1467 24.1206C29.1467 24.1456 29.1716 24.1956 29.1964 24.1956C29.2212 24.1956 29.2709 24.1706 29.2709 24.1456V24.1206H29.246ZM29.246 24.1206L29.2212 24.0956C29.2212 24.0956 29.2212 24.0705 29.246 24.0705C29.246 24.0705 29.246 24.0705 29.2212 24.0705C29.1964 24.0705 29.1467 24.0956 29.1467 24.1206C29.1467 24.1456 29.1716 24.1956 29.1964 24.1956C29.2212 24.1956 29.2709 24.1706 29.2709 24.1456V24.1206H29.246ZM29.246 24.1206L29.2212 24.0956C29.2212 24.0956 29.2212 24.0705 29.246 24.0705C29.246 24.0705 29.246 24.0705 29.2212 24.0705C29.1964 24.0705 29.1467 24.0956 29.1467 24.1206C29.1467 24.1456 29.1716 24.1956 29.1964 24.1956C29.2212 24.1956 29.2709 24.1706 29.2709 24.1456V24.1206H29.246ZM29.246 24.1206L29.2212 24.0956C29.2212 24.0956 29.2212 24.0705 29.246 24.0705C29.246 24.0705 29.246 24.0705 29.2212 24.0705C29.1964 24.0705 29.1467 24.0956 29.1467 24.1206C29.1467 24.1456 29.1716 24.1956 29.1964 24.1956C29.2212 24.1956 29.2709 24.1706 29.2709 24.1456V24.1206H29.246ZM29.246 24.1206L29.2212 24.0956C29.2212 24.0956 29.2212 24.0705 29.246 24.0705C29.246 24.0705 29.246 24.0705 29.2212 24.0705C29.1964 24.0705 29.1467 24.0956 29.1467 24.1206C29.1467 24.1456 29.1716 24.1956 29.1964 24.1956C29.2212 24.1956 29.2709 24.1706 29.2709 24.1456V24.1206H29.246ZM29.246 24.1206L29.2212 24.0956C29.2212 24.0956 29.2212 24.0705 29.246 24.0705C29.246 24.0705 29.246 24.0705 29.2212 24.0705C29.1964 24.0705 29.1467 24.0956 29.1467 24.1206C29.1467 24.1456 29.1716 24.1956 29.1964 24.1956C29.2212 24.1956 29.2709 24.1706 29.2709 24.1456V24.1206H29.246ZM29.246 24.1206L29.2212 24.0956C29.2212 24.0956 29.2212 24.0705 29.246 24.0705C29.246 24.0705 29.246 24.0705 29.2212 24.0705C29.1964 24.0705 29.1467 24.0956 29.1467 24.1206C29.1467 24.1456 29.1716 24.1956 29.1964 24.1956C29.2212 24.1956 29.2709 24.1706 29.2709 24.1456V24.1206H29.246ZM29.246 24.1206L29.2212 24.0956C29.2212 24.0956 29.2212 24.0705 29.246 24.0705C29.246 24.0705 29.246 24.0705 29.2212 24.0705C29.1964 24.0705 29.1467 24.0956 29.1467 24.1206C29.1467 24.1456 29.1716 24.1956 29.1964 24.1956C29.2212 24.1956 29.2709 24.1706 29.2709 24.1456V24.1206H29.246ZM29.246 24.1206L29.2212 24.0956C29.2212 24.0956 29.2212 24.0705 29.246 24.0705C29.246 24.0705 29.246 24.0705 29.2212 24.0705C29.1964 24.0705 29.1467 24.0956 29.1467 24.1206C29.1467 24.1456 29.1716 24.1956 29.1964 24.1956C29.2212 24.1956 29.2709 24.1706 29.2709 24.1456V24.1206H29.246ZM29.246 24.1206L29.2212 24.0956C29.2212 24.0956 29.2212 24.0705 29.246 24.0705C29.246 24.0705 29.246 24.0705 29.2212 24.0705C29.1964 24.0705 29.1467 24.0956 29.1467 24.1206C29.1467 24.1456 29.1716 24.1956 29.1964 24.1956C29.2212 24.1956 29.2709 24.1706 29.2709 24.1456V24.1206H29.246ZM29.246 24.1206L29.2212 24.0956C29.2212 24.0956 29.2212 24.0705 29.246 24.0705C29.246 24.0705 29.246 24.0705 29.2212 24.0705C29.1964 24.0705 29.1467 24.0956 29.1467 24.1206C29.1467 24.1456 29.1716 24.1956 29.1964 24.1956C29.2212 24.1956 29.2709 24.1706 29.2709 24.1456V24.1206H29.246ZM29.2957 26.1221C29.4943 26.5725 30.0653 26.8977 30.5618 26.8977C30.6115 26.6976 31.8031 25.2965 30.4873 24.2457C30.4625 24.2957 30.4377 24.3457 30.388 24.3457C30.537 24.4708 30.6859 24.671 30.6859 25.0713C30.6611 24.621 30.388 24.3708 30.2142 24.2957C30.537 24.3958 30.5122 23.5701 30.5122 23.5701C30.2887 23.42 30.3384 23.0697 30.0156 22.8946C30.0653 22.9947 29.9412 23.1448 29.966 23.2699C30.0653 23.37 30.1398 23.6202 30.1398 23.6202C30.0901 23.7453 29.9412 23.8704 29.817 23.9204C29.966 24.0455 30.0653 24.1456 30.1398 24.2457C29.966 24.1956 29.817 24.2957 29.7674 24.2957C29.7922 24.2707 29.8915 24.1706 30.0156 24.1706C29.8667 24.0205 29.7674 23.9204 29.544 23.8203C29.4198 23.7703 29.1964 23.7703 29.0971 23.6702C28.9481 23.8203 28.2282 24.0956 27.4089 23.9705C27.26 23.9454 27.0117 23.8954 27.0117 23.8954C27.0117 23.9204 27.0117 23.9705 27.0117 23.9955C27.0365 24.0205 27.1358 24.0956 27.26 23.9955C27.2352 24.0455 27.1607 24.0955 27.0365 24.0705C27.1607 24.4708 28.1785 25.0213 28.8488 24.696C28.7992 24.7961 28.5509 24.8712 28.402 24.8712C28.4764 24.8962 28.5757 24.9462 28.6254 24.9963C28.7247 25.0713 28.7744 25.0463 28.824 25.0463C28.824 24.9963 28.8985 24.8962 29.0474 24.9212C29.2212 24.9712 29.3205 25.1964 29.6184 25.2715C29.9412 25.3465 30.2142 25.1464 30.2887 24.721C30.2391 25.2715 29.8915 25.4466 29.6184 25.3715C29.6184 25.6217 29.4198 25.922 29.1964 25.997C29.0723 25.972 28.9233 25.997 28.824 26.0971C28.9233 26.5475 29.5439 27.223 30.4625 27.198C30.4873 27.1229 30.4625 26.9978 30.4377 26.9728C29.8915 26.9478 29.4446 26.5475 29.2957 26.1221ZM29.4943 24.2707C29.4943 24.2457 29.4695 24.2457 29.4695 24.2206C29.4695 24.1956 29.4446 24.1956 29.4446 24.1706C29.4446 24.1706 29.4446 24.1706 29.4198 24.1456C29.395 24.1206 29.3702 24.0956 29.3702 24.0956L29.3453 24.0705C29.3453 24.0955 29.3453 24.1206 29.3453 24.1456C29.3453 24.2206 29.2709 24.2457 29.1964 24.2457C29.1219 24.2206 29.0971 24.1706 29.0971 24.0956C29.0971 24.0455 29.1219 24.0205 29.1716 24.0205H29.1467C29.1467 24.0205 29.1467 24.0205 29.1219 24.0205C29.0971 24.0205 29.0971 24.0205 29.0723 24.0205H28.973C28.9978 24.0205 29.0474 23.9955 29.0723 23.9955H29.0971H29.1219H29.1964H29.2212H29.246C29.246 23.9955 29.246 23.9955 29.2709 23.9955C29.2957 23.9955 29.3453 24.0205 29.3702 24.0205C29.395 24.0455 29.4198 24.0455 29.4446 24.0705C29.4446 24.0705 29.4446 24.0705 29.4695 24.0956C29.4695 24.1206 29.4943 24.1206 29.4943 24.1456C29.4943 24.1456 29.4943 24.1706 29.5191 24.1706V24.1956C29.5191 24.2206 29.5191 24.2206 29.544 24.2457C29.4943 24.2457 29.4943 24.2707 29.4943 24.2707C29.5191 24.2707 29.5191 24.2957 29.5191 24.3207C29.5191 24.2957 29.4943 24.2957 29.4943 24.2707ZM29.2212 24.0956C29.2212 24.0705 29.2212 24.0705 29.2212 24.0956C29.2212 24.0705 29.2212 24.0705 29.2212 24.0705C29.1964 24.0705 29.1467 24.0956 29.1467 24.1206C29.1467 24.1456 29.1716 24.1956 29.1964 24.1956C29.2212 24.1956 29.2709 24.1706 29.2709 24.1456V24.1206H29.246C29.2212 24.1206 29.2212 24.0956 29.2212 24.0956ZM29.246 24.1206L29.2212 24.0956C29.2212 24.0956 29.2212 24.0705 29.246 24.0705C29.246 24.0705 29.246 24.0705 29.2212 24.0705C29.1964 24.0705 29.1467 24.0956 29.1467 24.1206C29.1467 24.1456 29.1716 24.1956 29.1964 24.1956C29.2212 24.1956 29.2709 24.1706 29.2709 24.1456V24.1206H29.246ZM29.246 24.1206L29.2212 24.0956C29.2212 24.0956 29.2212 24.0705 29.246 24.0705C29.246 24.0705 29.246 24.0705 29.2212 24.0705C29.1964 24.0705 29.1467 24.0956 29.1467 24.1206C29.1467 24.1456 29.1716 24.1956 29.1964 24.1956C29.2212 24.1956 29.2709 24.1706 29.2709 24.1456V24.1206H29.246ZM29.246 24.1206L29.2212 24.0956C29.2212 24.0956 29.2212 24.0705 29.246 24.0705C29.246 24.0705 29.246 24.0705 29.2212 24.0705C29.1964 24.0705 29.1467 24.0956 29.1467 24.1206C29.1467 24.1456 29.1716 24.1956 29.1964 24.1956C29.2212 24.1956 29.2709 24.1706 29.2709 24.1456V24.1206H29.246ZM29.246 24.1206L29.2212 24.0956C29.2212 24.0956 29.2212 24.0705 29.246 24.0705C29.246 24.0705 29.246 24.0705 29.2212 24.0705C29.1964 24.0705 29.1467 24.0956 29.1467 24.1206C29.1467 24.1456 29.1716 24.1956 29.1964 24.1956C29.2212 24.1956 29.2709 24.1706 29.2709 24.1456V24.1206H29.246ZM29.246 24.1206L29.2212 24.0956C29.2212 24.0956 29.2212 24.0705 29.246 24.0705C29.246 24.0705 29.246 24.0705 29.2212 24.0705C29.1964 24.0705 29.1467 24.0956 29.1467 24.1206C29.1467 24.1456 29.1716 24.1956 29.1964 24.1956C29.2212 24.1956 29.2709 24.1706 29.2709 24.1456V24.1206H29.246ZM29.246 24.1206L29.2212 24.0956C29.2212 24.0956 29.2212 24.0705 29.246 24.0705C29.246 24.0705 29.246 24.0705 29.2212 24.0705C29.1964 24.0705 29.1467 24.0956 29.1467 24.1206C29.1467 24.1456 29.1716 24.1956 29.1964 24.1956C29.2212 24.1956 29.2709 24.1706 29.2709 24.1456V24.1206H29.246ZM29.246 24.1206L29.2212 24.0956C29.2212 24.0956 29.2212 24.0705 29.246 24.0705C29.246 24.0705 29.246 24.0705 29.2212 24.0705C29.1964 24.0705 29.1467 24.0956 29.1467 24.1206C29.1467 24.1456 29.1716 24.1956 29.1964 24.1956C29.2212 24.1956 29.2709 24.1706 29.2709 24.1456V24.1206H29.246ZM29.246 24.1206L29.2212 24.0956C29.2212 24.0956 29.2212 24.0705 29.246 24.0705C29.246 24.0705 29.246 24.0705 29.2212 24.0705C29.1964 24.0705 29.1467 24.0956 29.1467 24.1206C29.1467 24.1456 29.1716 24.1956 29.1964 24.1956C29.2212 24.1956 29.2709 24.1706 29.2709 24.1456V24.1206H29.246ZM29.246 24.1206L29.2212 24.0956C29.2212 24.0956 29.2212 24.0705 29.246 24.0705C29.246 24.0705 29.246 24.0705 29.2212 24.0705C29.1964 24.0705 29.1467 24.0956 29.1467 24.1206C29.1467 24.1456 29.1716 24.1956 29.1964 24.1956C29.2212 24.1956 29.2709 24.1706 29.2709 24.1456V24.1206H29.246ZM29.246 24.1206L29.2212 24.0956C29.2212 24.0956 29.2212 24.0705 29.246 24.0705C29.246 24.0705 29.246 24.0705 29.2212 24.0705C29.1964 24.0705 29.1467 24.0956 29.1467 24.1206C29.1467 24.1456 29.1716 24.1956 29.1964 24.1956C29.2212 24.1956 29.2709 24.1706 29.2709 24.1456V24.1206H29.246ZM29.246 24.1206L29.2212 24.0956C29.2212 24.0956 29.2212 24.0705 29.246 24.0705C29.246 24.0705 29.246 24.0705 29.2212 24.0705C29.1964 24.0705 29.1467 24.0956 29.1467 24.1206C29.1467 24.1456 29.1716 24.1956 29.1964 24.1956C29.2212 24.1956 29.2709 24.1706 29.2709 24.1456V24.1206H29.246ZM29.246 24.1206L29.2212 24.0956C29.2212 24.0956 29.2212 24.0705 29.246 24.0705C29.246 24.0705 29.246 24.0705 29.2212 24.0705C29.1964 24.0705 29.1467 24.0956 29.1467 24.1206C29.1467 24.1456 29.1716 24.1956 29.1964 24.1956C29.2212 24.1956 29.2709 24.1706 29.2709 24.1456V24.1206H29.246ZM29.246 24.1206L29.2212 24.0956C29.2212 24.0956 29.2212 24.0705 29.246 24.0705C29.246 24.0705 29.246 24.0705 29.2212 24.0705C29.1964 24.0705 29.1467 24.0956 29.1467 24.1206C29.1467 24.1456 29.1716 24.1956 29.1964 24.1956C29.2212 24.1956 29.2709 24.1706 29.2709 24.1456V24.1206H29.246ZM29.966 23.37C29.8667 23.5451 29.7177 23.7203 29.5936 23.7953C29.6681 23.8203 29.7177 23.8704 29.7674 23.8954L29.7922 23.8704C29.8915 23.8203 30.0156 23.7203 30.0653 23.6202C30.0653 23.5701 30.0156 23.445 29.966 23.37ZM29.4943 22.6694C29.5439 22.7445 29.4695 22.9196 29.5191 23.0447C29.5439 23.0697 29.5688 23.0948 29.5688 23.0948C29.6184 22.9697 29.6433 22.8696 29.6681 22.7445C29.6184 22.7195 29.5439 22.6945 29.4943 22.6694ZM30.0901 22.8696C30.1149 22.7445 30.1149 22.5694 30.1149 22.4443C30.1149 22.4443 30.0901 22.4443 30.0653 22.4443C29.8915 22.3942 29.7674 22.2441 29.7177 22.094C29.6929 21.9689 29.7177 21.7938 29.7922 21.6937C29.5936 21.6436 29.395 21.7687 29.3702 21.9439C29.3453 22.144 29.4943 22.3192 29.7177 22.3192C29.817 22.8946 29.5936 23.37 29.2212 23.7203C29.2709 23.7453 29.3453 23.7703 29.395 23.7703C29.4446 23.7703 29.4695 23.7953 29.5191 23.7953L29.5688 23.7703C29.6681 23.6952 29.817 23.5451 29.9163 23.345L29.9412 23.2949C29.9412 23.2199 29.966 23.1698 29.966 23.0948C30.0156 22.9697 29.9908 22.8696 29.9412 22.8196V22.7945C29.9908 22.8196 30.0405 22.8446 30.0901 22.8696ZM31.2569 21.7938C31.2569 21.8188 31.2569 21.8188 31.2569 21.8438C31.3066 22.069 31.1825 22.2441 31.0335 22.3442C31.0087 22.9697 30.7604 23.42 30.5866 23.5952L30.5618 23.6202C30.5618 23.6452 30.5618 23.7703 30.537 23.8954C31.108 23.3199 31.1328 22.6194 31.1328 22.6194C31.3314 22.6945 31.5548 22.5694 31.6293 22.3692C31.7783 22.069 31.5548 21.7938 31.2569 21.7938ZM31.2073 21.8438C31.1328 21.4935 30.7356 21.3684 30.4873 21.5936C30.4129 21.6687 30.3632 21.7938 30.3632 21.8938C30.3632 22.0439 30.4625 22.1941 30.5866 22.2441L30.6115 22.2691V22.3192C30.6363 22.7195 30.537 23.0447 30.388 23.2949C30.4377 23.395 30.4625 23.4701 30.537 23.5201C30.6611 23.395 30.9342 22.9447 30.959 22.2941C31.1328 22.2191 31.2569 22.0439 31.2073 21.8438ZM30.5618 22.3442C30.4129 22.2691 30.3135 22.094 30.3135 21.9188C30.3135 21.7687 30.3632 21.6436 30.4625 21.5686C30.3135 21.4685 30.0405 21.4435 29.8667 21.6937C29.7922 21.7938 29.7674 21.9689 29.7922 22.069C29.8419 22.2191 29.9412 22.3442 30.0901 22.3692C30.1149 22.3692 30.1398 22.3692 30.1646 22.3942C30.1894 22.5443 30.1894 22.7445 30.1398 22.9196C30.2639 23.0197 30.3384 23.1198 30.3632 23.2199C30.5122 22.9447 30.5866 22.7445 30.5618 22.3442Z" fill="white"/>
</svg>
