<svg width="126" height="154" viewBox="0 0 126 154" fill="none" xmlns="http://www.w3.org/2000/svg">
<path d="M115.24 44.569C119.72 47.8631 121.828 53.5289 122.091 59.0629C122.487 64.5969 121.301 69.9992 120.247 75.4015C115.898 98.3281 114.054 121.65 114.844 144.972C114.844 146.421 114.844 148.134 113.922 149.32C112.736 150.638 110.76 150.77 109.047 150.901C91.6541 151.297 74.1297 151.824 56.8688 149.847C48.436 148.925 40.0032 147.344 31.5704 145.763C29.594 145.367 27.6176 144.972 26.0364 143.786C22.8741 141.414 22.6106 136.935 22.8741 133.113C23.2694 127.316 24.587 121.518 25.7729 115.853C28.1446 104.916 30.6481 93.98 33.0198 83.0437C35.2598 72.898 37.4998 62.7523 41.3209 53.1336C43.2973 48.1266 44.6149 42.9879 49.8854 42.1973C53.8383 41.6703 58.45 42.7244 62.5346 42.5926C71.2309 42.3291 80.059 43.2514 88.6236 42.5926C97.1881 41.9338 107.597 38.9033 115.24 44.569Z" fill="white"/>
<path d="M63.7227 51.8168C68.4661 51.158 73.3413 51.4215 78.2165 51.685C87.1764 52.2121 96.0045 52.8709 104.964 53.3979C105.491 53.3979 106.15 53.3979 106.545 53.1344C106.809 52.8709 106.941 52.3438 107.073 51.9485C107.731 48.7862 107.995 45.4922 107.863 42.1981C107.863 41.5393 107.731 40.8805 107.336 40.4852C106.941 40.0899 106.15 39.9581 105.623 39.9581C96.1362 39.8264 86.7811 39.6946 77.2942 39.8264C74.5272 39.8264 67.2802 38.6405 65.172 40.4852C63.8544 41.6711 63.9862 51.685 63.7227 51.8168Z" fill="#BCBCBB"/>
<path d="M29.7269 94.377C29.8586 103.205 28.541 112.033 25.5105 120.466C22.7434 128.372 18.527 136.014 18 144.315C18 144.842 18 145.369 18.3953 145.633C18.6588 145.896 19.0541 145.896 19.4494 145.896C21.4258 146.028 23.2705 146.16 25.2469 146.291C32.3621 146.687 39.4773 147.082 46.5925 147.477C47.9101 147.609 49.3595 147.609 50.5453 147.082C51.7312 146.555 52.7853 145.237 52.5218 143.92C52.2582 142.866 51.2041 142.075 50.2818 141.416C40.1361 134.433 31.8351 124.682 26.5646 113.614" fill="#BCBCBB"/>
<path d="M48.5671 127.185C48.8306 130.48 51.3341 133.378 54.2328 134.959C57.1316 136.541 60.5574 137.068 63.8515 137.595C67.8044 138.122 71.7573 138.517 75.5784 138.517C82.0347 138.385 89.0181 137.068 94.8157 140.23C94.8157 137.463 91.3899 136.145 88.7546 135.487C80.19 133.51 72.0208 130.084 64.3786 125.736C61.4798 124.023 57.3951 119.807 53.9693 119.28C49.8847 118.753 48.3035 123.891 48.5671 127.185Z" fill="#BCBCBB"/>
<path d="M63.5883 41.4066C64.1153 39.0349 64.2471 38.9032 66.487 39.0349C70.3081 39.2984 73.9975 39.8255 77.8186 39.9573C82.1668 40.089 86.3832 39.8255 90.7313 39.8255C95.343 39.8255 100.086 39.6937 104.698 39.6937C104.962 39.6937 105.225 39.8255 105.62 39.9573C106.016 40.8796 106.543 41.9337 107.07 42.9878C108.256 43.1196 109.442 43.2513 110.627 43.2513C114.053 43.3831 117.611 43.5148 121.037 43.7784C124.067 43.9101 125.78 45.623 125.912 48.6536C126.044 51.0253 126.044 53.397 125.78 55.7688C124.99 61.6981 124.067 67.6274 123.277 73.5567C122.75 77.246 122.618 80.9354 122.091 84.6247C121.168 91.4764 119.851 98.1963 118.928 105.048C117.874 112.427 117.084 119.937 115.898 127.316C114.844 133.904 114.58 140.624 112.34 147.08C111.945 148.398 112.472 149.32 113.526 150.242C111.945 150.506 111.155 152.351 109.573 151.165C108.915 151.824 108.387 152.482 107.729 153.141C104.962 153.141 102.063 153.273 99.2959 153.141C94.9477 153.009 90.4678 152.746 86.1196 152.351C80.1903 151.955 74.261 151.428 68.1999 150.901C62.2706 150.374 56.4731 149.979 50.5438 149.452C44.6145 148.925 38.6852 148.134 32.7558 147.607C28.6712 147.212 24.5866 147.08 20.5019 146.948C19.9749 146.948 19.5796 146.948 18.789 146.817C18.789 145.894 18.6573 144.972 18.789 144.181C20.5019 135.222 22.2149 126.13 23.796 117.17C24.4548 113.612 24.4548 110.055 25.2454 106.497C27.3536 96.4833 29.5936 86.4694 31.8335 76.4555C32.3606 74.0837 33.2829 71.8438 33.9417 69.6038C34.9958 65.6509 36.0499 61.6981 37.104 57.7452C38.4216 53.0017 39.6075 48.1265 40.9251 43.1196C41.9792 42.9878 43.1651 42.856 44.2192 42.856C49.0944 42.9878 53.9696 43.2513 58.8448 42.7243C60.8213 42.4607 62.1389 41.6702 63.5883 41.4066C64.7741 42.329 65.5647 43.3831 65.8282 44.9642C65.8282 44.9642 66.0917 44.9642 66.2235 45.096C66.487 44.4372 66.6188 43.6466 66.8823 42.9878C67.0141 42.9878 67.1458 42.9878 67.2776 42.9878C67.2776 45.3595 67.4094 47.5995 67.4094 49.7077C67.9364 49.9712 68.0682 50.103 68.1999 50.103C73.9975 50.3665 79.795 50.7618 85.4608 51.0253C86.2514 51.0253 87.042 51.1571 87.8326 51.2888C92.4442 52.3429 97.1877 52.0794 101.799 52.3429C102.985 52.4747 104.171 52.2112 105.357 52.0794C106.148 48.2583 104.83 44.9642 103.908 41.6702C103.117 41.5384 102.59 41.4066 101.931 41.4066C95.2113 41.4066 88.4914 41.4066 81.9032 41.4066C80.4539 41.4066 79.1362 41.8019 77.6868 41.6702C73.2069 41.0114 68.3317 41.1431 63.5883 41.4066ZM51.9932 131.532C59.2401 137.857 67.5411 138.647 75.8422 138.252C81.508 137.989 87.042 138.252 92.576 138.384C93.3666 138.384 94.1572 138.647 94.9477 138.911C99.1641 140.097 99.1641 140.097 100.745 135.88C102.326 131.4 103.908 127.052 105.225 122.572C106.938 116.511 108.783 110.45 109.969 104.389C111.418 97.4057 112.472 90.2905 113.526 83.1753C114.58 76.0602 115.503 68.945 116.557 61.8298C116.689 60.9075 116.557 59.9852 116.557 58.5358C112.867 60.3804 109.573 61.9616 106.279 63.5427C107.07 61.9616 108.387 61.171 109.837 60.5122C111.813 59.7216 113.922 58.7993 115.898 58.0087C116.952 57.4817 117.743 56.9546 116.952 55.3735C115.634 55.9005 114.317 56.4276 112.999 56.9546C111.682 57.4817 110.232 58.1405 108.915 58.7993C107.729 59.3263 106.675 60.3804 105.093 60.2487C109.046 57.6134 113.263 55.7688 117.743 53.7923C117.479 52.6065 117.347 51.6841 117.084 50.63C114.053 50.3665 111.155 49.9712 108.124 49.7077C107.729 51.4206 107.465 52.87 107.202 54.3194C106.411 54.4511 106.016 54.5829 105.489 54.4511C102.326 54.3194 99.1641 54.1876 95.8701 54.0558C87.7008 53.5288 79.5315 52.87 71.3622 52.2112C70.3081 52.0794 69.254 51.9476 68.3317 52.2112C66.3553 52.7382 64.6424 52.0794 62.6659 51.8159C62.5342 50.63 62.2706 49.5759 62.1389 48.5218C61.6118 48.3901 61.3483 48.2583 61.0848 48.2583C58.186 48.9171 55.1555 49.1806 52.1249 49.0489C50.6755 49.0489 49.885 49.5759 49.7532 51.1571C49.3579 54.9782 48.5673 58.5358 47.3815 62.2251C46.3274 65.7827 45.6686 69.3403 44.6145 72.8979C41.0569 84.493 38.0263 96.0881 36.0499 108.078C35.7864 109.66 35.6546 111.241 35.5229 112.69C40.7934 114.667 45.9321 115.194 51.0708 114.93C51.7296 114.93 52.652 115.062 52.9155 115.457C53.179 115.852 52.7837 116.775 52.5202 117.302C51.7296 118.883 50.9391 120.464 50.1485 122.177C49.6214 123.495 49.3579 124.812 50.1485 126.525C53.3108 125.471 56.4731 124.549 59.6354 123.495C58.0542 124.681 56.2096 125.339 54.4967 125.998C53.4426 126.525 52.2567 126.92 51.2026 127.579C49.885 128.37 49.6214 129.424 50.1485 131.137C53.7061 129.687 56.7366 127.316 60.5577 126.789C58.0542 128.37 55.1555 129.819 51.9932 131.532ZM107.86 45.096C107.729 45.3595 107.597 45.623 107.333 45.8866C107.86 46.5454 108.256 47.5995 108.915 47.7312C111.155 48.1265 113.394 48.3901 115.766 48.3901C118.401 48.2583 118.533 48.2583 119.192 50.8935C119.719 53.2653 119.06 55.5052 118.797 57.7452C118.27 62.3569 117.874 66.8368 117.084 71.4485C116.161 77.7731 114.976 84.0977 114.185 90.2905C112.867 100.963 110.627 111.504 107.333 121.782C105.357 128.238 103.512 134.826 100.614 140.887C99.8229 142.468 99.5594 142.6 97.9783 141.941C96.9242 141.546 96.0018 141.151 94.9477 140.887C89.9408 139.701 84.802 139.57 79.795 139.833C75.4469 140.097 71.2305 140.097 67.0141 139.701C64.1153 139.438 61.3483 138.911 58.5813 137.989C55.419 136.934 52.1249 136.144 48.8309 135.353C47.2497 134.958 45.5368 134.431 43.9557 134.167C42.9016 133.904 41.8475 133.904 40.6616 133.904C41.4522 132.454 40.1345 132.059 39.344 131.4C34.337 127.184 32.6241 121.65 33.0194 115.325C33.6782 106.893 35.6546 98.8551 37.6311 90.6858C39.2122 84.3612 40.9251 77.9048 42.5063 71.5802C44.0874 65.2557 45.405 58.9311 46.8544 52.6065C48.0403 47.4677 48.9626 46.9407 54.2331 47.2042C54.4967 47.2042 54.8919 47.336 55.1555 47.336C57.659 47.2042 60.0307 47.2042 62.5342 46.4136C62.2706 44.4372 61.0848 44.7007 59.8989 44.7007C56.2096 44.7007 52.5202 44.7007 48.8309 44.7007C48.1721 44.7007 47.645 44.7007 46.9862 44.7007C43.8239 44.8325 43.2968 45.2278 42.5063 48.2583C41.3204 52.7382 40.3981 57.3499 39.0804 61.8298C36.3134 71.8438 33.8099 81.8577 31.57 92.0034C31.0429 94.6387 30.2524 97.2739 29.8571 99.9092C28.9347 105.575 28.2759 111.109 27.2218 116.775C26.1677 122.704 24.7183 128.633 23.4007 134.563C23.1372 135.749 22.7419 136.803 23.0054 138.384C24.4548 137.593 25.6407 136.934 26.8265 136.276C28.0124 135.617 29.0665 134.958 30.2524 134.431C32.3606 133.377 32.3606 133.377 33.8099 133.64C30.1206 135.617 26.2995 137.593 22.4784 139.701C22.3466 141.019 22.2149 142.468 21.9513 144.05C24.3231 144.445 26.563 144.84 28.803 145.104C32.2288 145.499 35.7864 145.631 39.2122 145.894C41.5839 146.026 43.9557 146.158 46.3274 146.421C50.6755 146.948 55.0237 147.607 59.3719 147.871C66.2235 148.398 73.0752 148.661 79.9268 149.057C82.562 149.188 85.0655 149.452 87.7008 149.452C93.7619 149.452 99.8229 149.584 105.884 149.188C110.627 148.925 110.1 149.32 111.286 144.84C111.418 144.313 111.55 143.918 111.55 143.391C112.604 136.276 113.526 129.16 114.58 122.045C114.844 119.937 114.976 117.829 115.371 115.852C116.03 111.504 116.82 107.156 117.479 102.808C118.138 98.328 118.797 93.7163 119.456 89.2364C119.587 87.9188 119.983 86.7329 120.114 85.4153C120.51 81.4624 120.905 77.5096 121.3 73.5567C121.959 68.0227 122.75 62.4886 123.408 56.9546C123.672 54.7147 123.672 52.3429 123.672 50.103C123.54 47.0724 122.618 46.0183 119.587 45.623C115.766 45.3595 111.813 45.2278 107.86 45.096ZM35.6546 114.93C34.864 120.991 37.3675 125.603 41.1886 129.556C42.9016 131.4 45.2733 132.454 48.0403 132.454C48.0403 129.556 47.7768 126.92 48.1721 124.417C48.5673 121.914 49.6214 119.542 50.2803 117.302C45.405 116.511 40.6616 115.721 35.6546 114.93ZM65.8282 49.8394C65.96 49.8394 66.0917 49.8394 66.2235 49.8394C66.2235 49.3124 66.2235 48.6536 66.2235 48.1265C66.0917 48.1265 65.96 48.1265 65.8282 48.1265C65.8282 48.6536 65.8282 49.3124 65.8282 49.8394Z" fill="#010202"/>
<path d="M33.7204 37.7499C29.9557 37.9696 21.8824 32.6463 16.7587 27.2414C14.5462 25.1071 14.8566 24.6362 14.7788 22.5584C19.7862 29.2377 26.3458 33.5628 33.7204 37.7499Z" fill="#EB594B"/>
<path d="M28.9129 49.4245C28.2929 50.3648 28.2929 50.3648 27.7883 50.032C21.077 50.3288 14.3658 50.6255 7.26536 49.3165C5.9462 49.1212 5.44162 48.7885 6.06162 47.8482C8.19538 47.906 9.20453 48.5714 10.5237 48.7667C15.6058 48.7449 21.1925 49.0558 26.2746 49.0339C27.0891 48.8965 27.5937 49.2292 28.9129 49.4245Z" fill="#EB594B"/>
<path d="M44.2998 27.1955C42.3606 27.9405 42.476 26.6675 42.2814 25.8646C41.6976 23.4561 40.9193 20.2446 40.3355 17.836C40.3717 14.4871 40.408 11.1382 41.7634 7.98461C41.6909 14.6824 41.1139 21.0475 44.2998 27.1955Z" fill="#EB594B"/>
<path d="M70.8359 72.2397C71.2312 71.5809 71.363 70.7903 71.6265 70.7903C72.5489 70.5268 73.603 70.2632 74.5253 70.2632C80.3228 69.9997 86.1204 69.6044 91.7862 69.4727C94.4214 69.4727 96.9249 69.7362 99.5602 69.9997C101.668 70.1315 103.908 70.395 106.28 70.6585C106.28 71.4491 106.28 72.1079 106.28 72.8985C105.885 73.0302 105.621 73.162 105.489 73.0302C100.878 71.7126 96.1343 71.0538 91.3909 71.3173C85.0663 71.7126 78.8735 72.1079 72.5489 72.5032C72.1536 72.5032 71.7583 72.3714 70.8359 72.2397Z" fill="#EB594B"/>
<path d="M65.4336 99.1193C66.3559 98.724 66.883 98.3287 67.5418 98.3287C76.8969 97.4063 86.3838 96.6158 95.739 95.8252C96.0025 95.8252 96.3978 96.0887 96.9248 96.2205C96.6613 97.4063 95.739 97.5381 94.8166 97.5381C91.3908 97.8016 88.0967 97.8016 84.6709 98.1969C79.1369 98.8557 73.6029 99.5145 68.0688 100.305C67.1465 100.437 66.2242 100.7 65.4336 99.1193Z" fill="#EB594B"/>
<path d="M52.3906 65.2566C53.4447 64.3343 53.9718 64.7296 54.3671 65.3884C55.5529 67.6283 56.607 69.8683 57.6611 72.1083C58.0564 73.0306 58.3199 73.9529 58.7152 74.8753C60.9552 73.6894 61.614 71.5812 62.7999 70.0001C64.1175 68.2871 65.0398 66.1789 66.3574 64.466C67.5433 62.8849 67.9386 60.6449 70.1786 59.5908C70.5738 60.9084 70.1786 61.8308 69.5197 62.7531C66.4892 66.9695 63.7222 71.3177 60.8234 75.6658C60.1646 76.7199 59.6376 77.774 58.1882 78.1693C56.607 76.1929 57.0023 73.5576 55.8164 71.5812C54.8941 69.473 53.5765 67.4966 52.3906 65.2566Z" fill="#EB594B"/>
<path d="M54.1009 102.546C55.5502 100.701 56.7361 98.9882 57.922 97.2753C59.1078 95.4306 60.1619 93.586 61.4796 91.7413C62.6654 90.1601 62.6654 87.7884 64.3783 86.6025C64.6419 86.7343 64.7736 86.7343 65.0371 86.8661C64.9054 87.5249 65.0371 88.4472 64.6419 88.9743C61.6113 93.7177 58.449 98.4612 55.2867 103.205C54.8914 103.863 54.1009 104.259 53.3103 104.918C51.3338 102.414 49.3574 100.174 47.6445 97.8023C47.5127 97.5388 47.6445 97.1435 47.6445 96.4847C50.8068 97.5388 51.5974 100.569 54.1009 102.546Z" fill="#EB594B"/>
<path d="M26.3008 140.756C29.5948 138.253 33.416 136.54 37.2371 134.827C37.3688 134.959 37.3688 135.222 37.5006 135.354C33.943 137.331 30.2537 139.439 26.6961 141.415C26.5643 141.284 26.4325 141.02 26.3008 140.756Z" fill="#010202"/>
</svg>
