<svg width="67" height="110" viewBox="0 0 67 110" fill="none" xmlns="http://www.w3.org/2000/svg">
<path d="M6.66917 54.3544C4.50775 57.8334 2.30686 61.3914 1.39393 65.3836C0.476069 69.3758 1.05837 73.9453 3.89584 76.9012C5.88454 78.9689 8.84045 80.1335 10.2469 82.6354C11.0956 84.1405 11.2535 85.9269 11.3966 87.6491C11.5743 89.85 11.7569 92.046 11.9345 94.2469C12.0184 95.2831 12.1171 96.3639 12.6599 97.2521C13.2768 98.2637 14.3723 98.8707 15.4579 99.3346C22.4998 102.35 30.5533 101.062 38.1577 101.96C41.163 102.315 44.3558 103.159 46.2655 105.503C46.8774 106.253 47.3314 107.131 48.042 107.788C49.8037 109.411 52.5277 109.209 54.9062 108.898C56.8949 108.641 59.0613 108.296 60.4085 106.811C61.2375 105.898 61.6274 104.674 61.9481 103.485C63.6605 97.1435 64.0947 90.5359 64.5092 83.9826C64.9484 77.0345 65.3728 70.0518 64.677 63.1284C63.9812 56.2049 62.111 49.2766 58.2964 43.4585C57.3045 41.9485 56.135 40.3496 56.2436 38.5484C56.3225 37.2062 57.1071 36.0268 57.8079 34.877C59.8262 31.5905 61.4201 27.8894 61.4152 24.0304C61.4102 19.0858 58.8294 14.5557 56.3274 10.2921C55.2023 8.37252 54.0032 6.37888 52.1082 5.21428C50.8005 4.40498 49.2658 4.06448 47.7558 3.76346C44.943 3.21077 42.0907 2.77158 39.2236 2.81106C34.9995 2.87028 30.8691 3.96086 26.7832 5.0465C25.0067 5.52023 23.2055 5.9989 21.5869 6.87235C16.7459 9.48776 14.397 15.0295 12.4675 20.1764C11.6434 22.3724 10.8143 24.6966 11.1795 27.016C11.5447 29.3353 13.5383 31.5806 15.8725 31.3388C18.0191 31.1167 20.3384 29.0293 21.9817 30.4308C23.9802 32.1333 22.559 35.6814 21.1625 37.2852C20.0078 38.6077 18.2461 39.1949 16.9532 40.3743C12.7142 44.2234 9.66455 49.5332 6.66917 54.3544Z" fill="white"/>
<path d="M12.9243 80.6099C12.115 80.8665 11.2761 81.1034 10.4273 81.054C8.61131 80.9455 7.1605 79.5638 5.88734 78.261C4.37731 76.7213 2.74391 74.7672 3.26206 72.6798C6.01071 72.665 8.50275 74.2046 11.1675 74.8708C12.9489 75.3149 18.16 74.7129 18.7769 76.9829C19.4135 79.3614 14.5577 80.077 12.9243 80.6099Z" fill="#BBBBBA"/>
<path d="M47.0648 27.9742C46.9315 28.6799 46.823 29.4102 46.9414 30.1208C47.0894 30.9893 47.5829 31.7592 48.0714 32.4994C48.7771 33.5653 49.5173 34.6312 50.5191 35.4207C51.5208 36.2103 52.8384 36.6939 54.0869 36.4225C54.3978 36.3534 54.7037 36.2399 54.9554 36.0474C55.1775 35.8797 55.3453 35.6576 55.5032 35.4257C56.8355 33.4271 56.8257 30.7377 55.9226 28.5121C55.1281 26.5382 52.5917 22.5904 50.3069 22.1265C47.573 21.564 47.4201 26.0497 47.0648 27.9742Z" fill="#BBBBBA"/>
<path d="M17.0118 32.6722C16.094 32.7363 15.1959 32.2823 14.5642 31.6161C13.9326 30.9499 13.5477 30.0864 13.2861 29.203C12.4028 26.2422 12.8716 22.9063 14.5346 20.3008C15.1169 21.1594 15.339 22.2007 15.6104 23.2024C15.9065 24.288 16.2766 25.3688 16.9181 26.2965C17.8952 27.7128 20.9251 27.9151 21.2952 29.2968C21.7344 30.9203 18.285 32.5833 17.0118 32.6722Z" fill="#BBBBBA"/>
<path d="M35.9746 41.7192C38.4124 40.5792 40.9538 39.1482 42.2615 36.4439C43.51 33.8631 43.4655 30.4384 45.1187 28.2227C46.0612 29.4563 46.3425 31.2378 46.1846 32.8662C46.0267 34.4947 45.474 36.0097 44.9312 37.5049C44.4278 38.8866 43.9245 40.2733 43.4211 41.655C42.8339 43.2736 42.2319 44.9119 41.3041 46.2739C39.9076 48.3218 37.7807 49.6197 35.5502 49.7973C33.8576 49.9306 29.8654 49.3581 29.9345 46.4664C29.9986 43.7276 34.3017 42.5038 35.9746 41.7192Z" fill="#BBBBBA"/>
<path d="M22.0411 77.2164C22.4359 77.9763 23.2649 78.4353 24.1038 78.5685C24.9476 78.7067 25.8112 78.5636 26.6403 78.376C28.1108 78.0454 29.5518 77.5766 30.9384 76.9696C31.6688 76.6538 32.3991 76.2837 32.9123 75.6718C33.4255 75.0599 33.6575 74.1568 33.2824 73.4561C32.6952 72.8837 31.8168 72.7159 30.9976 72.7603C29.6801 72.8294 28.4513 73.2291 27.1189 73.1501C26.1024 73.0909 24.8884 72.4988 23.8669 72.6665C21.9572 72.9972 21.143 75.4793 22.0411 77.2164Z" fill="#BBBBBA"/>
<path d="M14.0127 64.2642C14.22 63.8447 14.4519 63.4204 14.8122 63.1292C15.6955 62.4235 16.9736 62.7295 18.1086 62.764C21.7553 62.8677 25.0271 59.739 28.6442 60.2325C30.3714 60.4694 31.8715 61.5106 33.2928 62.5222C34.4968 63.3759 35.7601 64.3136 36.2684 65.6953C35.2222 66.4503 33.88 65.414 32.7302 64.8268C30.9389 63.9138 28.7873 64.1458 26.8134 64.5356C22.535 65.3844 18.3849 66.8648 14.5358 68.9127C9.88728 71.39 13.2429 65.8186 14.0127 64.2642Z" fill="#BBBBBA"/>
<path d="M33.3121 20.4889C33.2973 20.7405 33.2726 21.0119 33.1196 21.2093C32.7939 21.6239 32.1524 21.4758 31.6441 21.3327C30.1933 20.9182 28.6537 20.8244 27.1634 21.0613C26.2061 21.2143 25.076 21.4511 24.3851 20.7701C23.946 20.3359 23.8571 19.6746 23.793 19.0627C26.3442 19.1022 28.9004 18.816 31.3777 18.209C31.5849 18.1597 31.8021 18.1004 31.96 17.9524C32.0883 17.829 32.1623 17.6613 32.2314 17.4935C32.5768 16.6743 33.1295 15.1939 33.4108 16.7335C33.623 17.8833 33.3812 19.3193 33.3121 20.4889Z" fill="#BBBBBA"/>
<path d="M36.7773 20.804C38.0603 20.7596 39.3187 21.1051 40.5771 21.3518C42.8668 21.7959 45.2157 21.9193 47.54 21.712C47.6436 21.7022 47.7522 21.6923 47.8459 21.643C48.1815 21.4653 48.0877 20.9126 47.767 20.7053C47.4512 20.4981 47.0416 20.5326 46.6616 20.5573C44.4558 20.7053 42.2203 20.3402 40.1675 19.521C38.1689 18.7166 36.5158 17.6359 36.7773 20.804Z" fill="#BBBBBA"/>
<path d="M26.366 15.0328C26.6113 15.0328 26.8101 14.8339 26.8101 14.5887C26.8101 14.3434 26.6113 14.1445 26.366 14.1445C26.1207 14.1445 25.9219 14.3434 25.9219 14.5887C25.9219 14.8339 26.1207 15.0328 26.366 15.0328Z" fill="white"/>
<path d="M42.616 16.5093C42.8613 16.5093 43.0601 16.3105 43.0601 16.0652C43.0601 15.8199 42.8613 15.6211 42.616 15.6211C42.3707 15.6211 42.1719 15.8199 42.1719 16.0652C42.1719 16.3105 42.3707 16.5093 42.616 16.5093Z" fill="white"/>
<path d="M28.8164 25.6376C29.6356 25.4205 30.7113 25.4698 31.5404 25.6327" stroke="white" stroke-miterlimit="10" stroke-linecap="round" stroke-linejoin="round"/>
<path d="M36.0819 73.2065C35.7661 74.909 35.6181 76.646 35.2677 78.3337C34.6459 81.3143 33.7281 84.2011 32.1292 86.8313C31.9664 87.0978 31.9219 87.4383 31.7443 87.685C31.6259 87.8479 31.3693 87.9762 31.1719 87.991C31.0485 87.9959 30.861 87.7738 30.7919 87.6159C30.6438 87.2952 30.555 86.9497 30.4415 86.6142C29.4299 83.5941 28.3245 80.5987 27.4363 77.5392C26.6467 74.8152 26.2914 72.0024 26.02 69.1699C25.7683 66.5495 26.1878 63.9933 26.3457 61.4026C26.4839 59.0685 26.9724 56.8133 27.7027 54.6025C28.2061 53.0777 28.6897 51.5331 29.2967 50.0478C29.5533 49.421 30.101 48.9128 30.5945 48.2515C28.897 47.1757 28.8525 45.5226 28.8871 43.7708L29.8642 43.6573L33.9255 43.1687H33.9403C34.3005 43.1292 34.5275 43.3464 34.6854 43.598C35.3615 44.6639 35.9438 45.8137 35.1345 47.0129C34.2462 48.3255 34.6311 49.4852 35.1887 50.7633C36.4668 53.6797 37.2959 56.6998 37.1133 59.937C37.0491 61.072 37.0935 62.2218 37.1429 63.3617C37.2811 66.7025 36.684 69.9496 36.0819 73.2065Z" fill="#EA574A"/>
<path d="M37.1429 63.3617C37.0935 62.2218 37.0491 61.072 37.1133 59.937C37.2959 56.6998 36.4668 53.6797 35.1887 50.7633C34.6311 49.4852 34.2462 48.3255 35.1345 47.0129C35.9438 45.8137 35.3615 44.6639 34.6854 43.598C34.5275 43.3464 34.3005 43.1292 33.9403 43.1687H33.9255C33.8366 43.1835 33.733 43.2082 33.6195 43.2575C34.3794 43.9928 34.6607 44.8811 34.789 45.8187C34.8927 46.5638 34.7347 47.3287 34.113 47.7284C33.4073 48.1824 32.5487 48.2564 31.7196 47.9554C31.5913 47.9061 31.4186 47.7531 31.4137 47.6396C31.3841 47.0672 30.9054 46.8846 30.5649 46.5737C29.9135 45.9815 29.4546 45.3351 29.9678 44.4024C30.0714 44.2198 30.027 43.9583 30.0566 43.6967C29.9925 43.6819 29.9283 43.6671 29.8642 43.6573C29.5385 43.5832 29.2374 43.524 28.892 43.45C28.892 43.5586 28.8871 43.6671 28.8871 43.7708C28.8525 45.5226 28.897 47.1757 30.5945 48.2515C30.101 48.9128 29.5533 49.421 29.2967 50.0478C28.6897 51.5331 28.2061 53.0777 27.7027 54.6025C26.9724 56.8133 26.4839 59.0685 26.3457 61.4026C26.1878 63.9933 25.7683 66.5495 26.02 69.1699C26.2914 72.0024 26.6467 74.8152 27.4363 77.5392C28.3245 80.5987 29.4299 83.5941 30.4415 86.6142C30.555 86.9497 30.6438 87.2952 30.7919 87.6159C30.861 87.7738 31.0485 87.9959 31.1719 87.991C31.3693 87.9762 31.6259 87.8479 31.7443 87.685C31.9219 87.4383 31.9664 87.0978 32.1292 86.8313C33.7281 84.2011 34.6459 81.3143 35.2677 78.3337C35.6181 76.646 35.7661 74.909 36.0819 73.2065C36.684 69.9496 37.2811 66.7025 37.1429 63.3617ZM36.5261 65.755C36.3731 67.951 35.9931 70.1272 35.6723 72.3084C35.4157 74.0207 35.1197 75.7281 34.8088 77.4306C34.261 80.4309 33.4073 83.3326 31.8874 86.0023C31.8331 86.096 31.7246 86.1651 31.5963 86.2885C31.4877 86.1602 31.3594 86.0664 31.31 85.9431C29.8592 82.1137 28.7933 78.156 27.831 74.1836C27.4165 72.4761 27.3326 70.6799 27.2093 68.9133C27.1698 68.4247 27.5103 67.9115 27.6781 67.4082C27.3968 67.3835 27.1945 67.2947 27.155 66.9443C27.081 66.3225 27.2043 65.8142 27.6534 65.1086C27.4757 64.8668 27.1797 64.6348 27.2142 64.472C27.4412 63.3419 27.1945 62.1971 27.4017 61.072C27.6879 59.483 27.836 57.8693 28.2406 56.3149C28.7292 54.415 29.3658 52.5447 30.0615 50.7041C30.3132 50.0379 30.8906 49.4852 31.3643 48.9177C31.4877 48.7697 31.7788 48.7203 31.996 48.7055C32.5092 48.6759 33.0175 48.6956 33.6886 48.6956C34.3202 50.3784 34.9371 52.1105 35.6131 53.8179C36.383 55.7622 36.5409 57.7805 36.5211 59.8432C36.5014 61.8171 36.6642 63.7959 36.5261 65.755Z" fill="black"/>
<path d="M24.1998 65.1682L29.2579 64.4083L29.3517 62.7305L35.4855 64.206L35.9741 62.7305L46.3568 63.6237L55.3429 64.4675L57.0257 94.5743L42.9962 101.745L17.8488 98.004L15.0508 85.1589L24.1998 65.5531" fill="white"/>
<path d="M49.4023 37.189C49.7823 37.6874 50.0389 38.2401 50.1919 38.8323C50.3005 38.398 50.3992 37.9588 50.483 37.5098C50.5324 37.2384 50.409 36.9373 50.3597 36.6462C50.0735 36.5968 49.7922 36.5475 49.4665 36.4883C49.4418 36.7548 49.4221 36.9768 49.4023 37.189Z" fill="black"/>
<path d="M20.848 77.8028C18.6421 78.8786 16.5103 79.9198 14.3489 80.9758C14.191 80.7241 14.0183 80.4379 13.8505 80.1665C12.153 80.9018 11.7286 81.0202 10.9538 80.8722C9.3599 80.5662 7.81039 80.0925 6.38918 79.298C5.61936 78.8687 4.90876 78.3259 4.06985 77.7633C4.76565 77.1415 5.32328 76.6382 5.8809 76.1398L5.76247 75.9868C5.09628 76.4358 4.42515 76.88 3.72936 77.3488C3.44314 77.0922 3.18654 76.8652 2.97928 76.6826C3.24082 76.3372 3.45795 76.0559 3.67014 75.7697C3.29017 75.893 2.91019 76.0115 2.50061 76.1447C2.3575 75.9424 2.18972 75.7697 2.09596 75.5624C1.48899 74.2103 0.847469 72.9124 1.16329 71.2988C1.41003 70.0454 1.21264 68.713 1.35081 67.43C1.60248 65.0366 2.52035 62.8604 3.79845 60.8371C4.7015 59.411 5.69338 58.0391 6.59151 56.6031C8.97499 52.7935 11.3535 48.9839 14.0578 45.3914C14.3538 44.9966 14.6746 44.6216 15.1237 44.0541C15.4888 45.3865 15.2915 46.5461 15.5234 47.6268C15.6171 47.6219 15.7109 47.617 15.8047 47.6071C15.9132 46.4623 16.0218 45.3125 16.1304 44.1676L16.3475 44.1232C16.5794 44.9769 16.8064 45.8306 17.0383 46.6892C17.1124 46.6794 17.1864 46.6695 17.2653 46.6596C17.364 46.1267 17.4627 45.5888 17.5812 44.9621C17.9019 45.3273 18.1289 45.5789 18.5188 46.0181C18.2276 44.8437 18.0056 43.9357 17.7786 43.0277C17.7045 43.0326 17.6355 43.0375 17.5614 43.0425C17.3986 43.5705 17.2407 44.0936 17.0778 44.6216C16.7669 44.0936 16.5992 43.5754 16.5202 43.0425C16.4807 42.7957 16.5301 42.4503 16.6781 42.2727C17.2802 41.5571 17.9463 40.9008 18.7606 40.3678C18.8395 40.0619 24.1641 35.5269 24.248 35.2209C23.7397 35.0285 18.0697 39.4747 17.6848 39.9336C17.3591 40.3234 16.9298 40.6195 16.5646 40.9798C14.9065 42.6082 13.2534 44.2416 12.1184 46.3191C11.7829 46.936 11.3338 47.4985 10.9094 48.066C10.3024 48.8803 9.61157 49.6452 9.05394 50.4939C8.10647 51.9398 7.23796 53.435 6.32997 54.9007C5.68845 55.9369 5.042 56.9732 4.36594 57.9849C4.134 58.3352 3.85273 58.7399 3.49743 58.8978C3.02369 59.105 2.87565 59.4209 2.73748 59.8502C2.54996 60.4078 2.25881 60.9309 2.05155 61.4836C1.56794 62.7716 0.951097 64.0398 0.679686 65.3722C0.304646 67.2178 0.0579117 69.1127 0.00362956 70.9928C-0.0555873 73.0457 0.610603 74.9357 1.94298 76.5691C3.31977 78.2617 5.03706 79.4855 6.97641 80.4083C8.44203 81.1041 9.96193 81.6914 11.62 81.642C12.2665 81.6223 12.7649 81.6963 12.982 82.4168C14.5957 81.948 15.8392 80.9363 17.2505 80.2702C18.4447 79.7027 19.6291 79.0809 20.9368 78.6614C20.8973 78.3752 20.8677 78.089 20.848 77.8028Z" fill="black"/>
<path d="M36.8301 67.1274C36.7709 67.1076 36.7166 67.083 36.6574 67.0583C36.4452 66.9793 36.2675 66.6833 36.1639 66.4464C35.8431 65.721 35.3102 65.2374 34.6243 64.8771C32.9119 63.9741 31.0318 63.8359 29.2108 64.058C27.0692 64.3195 24.962 64.9067 22.8598 65.4298C22.0012 65.642 21.1722 66.0319 20.4961 66.6833C20.9254 67.0386 20.9155 67.0188 22.1048 66.5155C22.6822 66.2737 23.299 66.1256 23.906 65.9529C24.5525 65.7703 25.1989 65.6025 25.8552 65.4496C26.4474 65.3065 27.0396 65.188 27.686 65.0499C27.6663 65.3262 27.6613 65.4446 27.6564 65.5532C28.2634 65.5729 28.5298 64.5909 29.3539 65.0301C28.6039 65.8888 27.6268 66.5352 27.2912 67.6603C28.0314 66.9695 28.6828 66.1996 29.428 65.5335C29.7783 65.2176 30.3212 64.9364 30.7702 64.9462C31.6683 64.961 32.5911 65.0795 33.4498 65.341C35.3052 65.9134 35.9714 67.3149 35.5224 69.1161C34.7526 72.1855 29.8622 74.0706 27.7354 73.1478C26.8323 72.753 25.9095 72.4026 25.0262 71.9684C24.6956 71.8055 24.4488 71.4601 24.1823 71.1837C24.0343 71.0258 23.9208 70.8334 23.7728 70.6409C23.3533 71.2084 23.3385 71.2183 23.4125 71.465C23.6198 72.1608 24.1034 72.6 24.7597 72.8566C25.6381 73.202 26.5066 73.5919 27.4097 73.8633C28.0018 74.0409 28.6434 74.0952 29.2651 74.1298C30.7554 74.2137 31.999 73.4784 33.2623 72.827C34.5453 72.1657 35.4138 71.1048 36.0455 69.8563C36.3169 69.3184 36.3711 68.672 36.5537 67.9762C36.6426 68.0058 36.7265 68.0403 36.8153 68.0699C36.8054 67.7541 36.8103 67.4432 36.8301 67.1274Z" fill="black"/>
<path d="M65.9463 85.4355C65.9364 85.0457 65.9462 84.6361 66.0499 84.261C66.4891 82.6424 66.1683 81.0535 65.8969 79.4595C65.6107 77.7916 65.3146 76.1286 65.0333 74.4606C65.0185 74.362 65.0876 74.2485 65.137 74.0807C65.3985 74.1892 65.6354 74.2879 66.0153 74.4458C66.0647 74.0313 66.1683 73.7007 66.1338 73.3898C66.0351 72.5312 65.8426 71.6775 65.7439 70.8188C65.285 66.8562 64.683 62.9282 63.321 59.1531C63.1482 58.6695 63.1038 58.1365 62.9706 57.4901C63.4394 57.6085 63.7009 57.6776 63.9625 57.7319C64.2142 57.7862 64.4708 57.8256 64.7817 57.8799C64.9741 56.9177 64.5448 56.1774 64.2191 55.457C63.0841 52.9452 61.8899 50.4581 60.7105 47.9611C59.3781 45.1483 58.0309 42.3454 56.7035 39.5276C56.5653 39.2365 56.5012 38.9108 56.3679 38.4815C56.8268 38.5357 57.0983 38.5506 57.3549 38.6048C58.4208 38.822 58.5195 38.7183 58.4948 37.6771C58.4751 36.774 58.5047 35.8661 58.5836 34.9679C58.8057 32.4265 60.2368 30.3095 61.0757 27.9853C61.1447 27.7928 61.3569 27.5757 61.5494 27.5165C62.4722 27.2352 62.8176 26.4703 63.0594 25.6758C63.6713 23.6476 63.4295 21.6935 62.3587 19.8676C61.4211 18.2737 60.3897 16.7341 59.4867 15.1204C57.9914 12.4359 56.5801 9.70206 55.0948 7.01263C54.7592 6.40072 54.2953 5.8431 53.8167 5.32988C53.3775 4.86108 52.8346 4.57487 52.1142 4.76732C51.8625 4.83641 51.4776 4.74265 51.2654 4.57981C49.5777 3.31158 47.6532 2.49735 45.7188 1.71766C43.7597 0.9281 41.6328 0.725772 39.5898 0.256972C36.4069 -0.468435 33.3227 0.409949 30.5197 2.03841C29.1627 2.82797 27.9241 3.81985 26.6657 4.76732C26.2413 5.08808 25.9008 5.25093 25.3975 4.95978C24.5635 4.48111 23.6703 4.58474 22.9005 5.019C21.8099 5.63091 20.7292 6.30203 19.7669 7.09652C17.8276 8.69538 16.584 10.8963 15.0641 12.8504C14.5361 13.5314 14.2548 14.3999 13.7959 15.3079H15.5033C15.2763 15.8113 15.0839 16.2258 14.8964 16.6403C13.7564 19.1324 12.3747 21.5109 12.2612 24.3977C12.1625 26.9391 12.2661 29.3522 13.7959 31.5136C14.4226 32.3969 16.3669 33.3 17.3983 33.0434C18.6517 32.7325 19.7521 32.1453 20.4331 30.9708C20.7884 30.3589 21.1437 29.742 21.4793 29.1203C21.5731 28.9525 21.5977 28.7452 21.657 28.5577C21.3411 28.6268 21.1684 28.7748 21.0154 28.9426C20.2407 29.7815 19.5202 30.6796 18.6813 31.4495C17.7684 32.2933 15.6909 32.3377 14.8668 31.4692C13.8847 30.4329 13.4061 29.1005 13.1347 27.5806C14.4325 27.2204 15.5872 26.8947 16.742 26.5739C16.7272 26.5147 16.7173 26.4555 16.7025 26.3963C15.5527 26.569 14.4029 26.7368 13.2778 26.9046C12.883 26.1693 13.1347 25.7597 13.7614 25.5327C14.166 25.3847 14.5805 25.2564 15.0049 25.1675C15.5922 25.0442 16.1893 24.9701 16.7814 24.8764C15.5626 24.4175 14.4276 25.0294 13.1741 25.0738C13.1741 24.7333 13.1544 24.4619 13.1791 24.2003C13.3172 22.5719 13.7762 21.0322 14.4868 19.5617C15.0888 18.3181 15.6958 17.0795 16.2485 15.8162C16.7173 14.7454 16.5544 14.3851 15.4244 13.8818C15.7945 13.2699 16.1152 12.6382 16.5347 12.0855C17.4131 10.9209 18.2767 9.73661 19.2685 8.6707C20.5072 7.34819 21.8642 6.12438 23.6605 5.55688C24.1983 5.3891 24.7313 5.25587 25.2889 5.7148C25.2445 6.23295 25.1409 6.83992 25.8515 7.24457C26.0686 7.0077 26.2611 6.77577 26.4782 6.56851C27.2628 5.79869 28.003 4.97459 28.8567 4.28866C30.727 2.77863 32.8983 1.80648 35.2226 1.30314C36.3921 1.04654 37.6751 1.01199 38.8496 1.21431C39.5651 1.33768 40.2856 1.54001 41.0258 1.56468C42.7826 1.6239 44.4604 2.05816 46.0889 2.66019C46.9968 2.99576 47.8407 3.50897 48.8079 3.98764C48.4921 4.33801 48.27 4.58474 48.0529 4.82655C48.2404 4.75252 48.4329 4.68837 48.6006 4.58967C49.326 4.16035 49.3557 4.16036 49.9528 4.92031C50.3179 5.0042 50.6782 5.08315 51.0631 5.17198C50.9989 5.66545 50.9496 6.04049 50.8706 6.61785C51.2654 6.32177 51.4973 6.13425 51.7441 5.96647C52.5188 5.43352 52.958 5.49273 53.5798 6.22801C53.8068 6.49942 54.019 6.79057 54.1818 7.10146C54.7049 8.0736 55.1688 9.08029 55.7165 10.0376C57.6411 13.3883 59.5952 16.7193 61.5247 20.065C62.3784 21.5454 62.7436 23.1394 62.4179 24.8418C62.3291 25.3008 62.2156 25.8091 61.9392 26.1545C61.7616 26.3766 61.2681 26.3469 61.0016 26.4111C60.3503 27.9359 59.7729 29.4015 59.1018 30.8277C58.253 32.6387 57.6164 34.4794 57.7348 36.5174C57.7546 36.8185 57.6904 37.1293 57.6559 37.5439C57.1673 37.4995 56.7479 37.4452 56.3284 37.4353C55.8991 37.4205 55.3464 37.2873 55.0602 37.4945C54.1769 38.141 53.6094 37.6426 52.9728 37.1392C52.6323 36.8727 52.2326 36.6852 51.8921 36.4187C50.4906 35.3183 49.2816 34.0599 48.5266 32.2884C49.1089 31.9873 49.6172 31.7061 50.1452 31.4593C50.7078 31.1929 51.2851 30.9609 51.8576 30.7093C51.8329 30.6402 51.8033 30.5661 51.7786 30.4971C50.5844 30.9214 49.3902 31.3458 48.2009 31.7702C47.816 30.8277 47.8061 30.7537 48.4773 30.3885C48.9559 30.122 49.484 29.9394 49.9972 29.742C50.5153 29.5447 51.0384 29.3719 51.5615 29.1894C51.5319 29.1104 51.5072 29.0314 51.4776 28.9525C50.2192 29.3473 48.9559 29.742 47.6433 30.1516C47.3225 29.1301 47.4656 28.158 47.663 27.2056C47.9542 25.8189 48.3194 24.4471 48.6105 23.0604C48.6549 22.8581 48.4575 22.6015 48.3687 22.3745C48.1664 22.5077 47.8555 22.5965 47.7864 22.7742C47.2781 24.1362 46.8044 25.508 46.3553 26.8898C46.2122 27.329 46.1629 27.7978 46.0494 28.3702C44.5196 28.2764 43.5228 29.2288 42.4421 30.0924C43.0639 29.969 43.6906 29.8506 44.5393 29.6828C43.9768 30.4428 43.6017 31.0399 43.1428 31.558C41.3515 33.5862 39.3628 35.3479 36.7178 36.2263C35.3361 36.6852 34.0333 36.4681 32.844 35.792C31.9755 35.2986 31.2501 34.5485 30.5197 33.9612C30.727 33.2062 31.1218 32.5598 31.0083 32.0219C30.8306 31.1929 31.1711 30.9017 31.7732 30.5513C32.5479 30.0973 33.3523 29.6285 33.979 29.0018C35.0844 27.8915 35.0943 26.2137 34.1369 25.2712C32.7552 23.9042 29.6315 23.5095 27.9389 24.4816C26.8582 25.1034 26.3548 26.342 26.8187 27.4079C27.327 28.5774 28.0178 29.6434 29.0788 30.3885C29.7253 30.8425 30.1793 31.3853 30.3668 32.165C30.0411 32.7769 29.7302 33.4135 29.37 34.0254C29.2416 34.2475 29.0344 34.4745 28.8074 34.583C27.248 35.338 25.7676 34.9038 24.4253 34.0698C23.2213 33.3197 22.7969 32.1058 22.9449 30.6846C23.1275 28.9081 23.4088 27.1809 24.2674 25.5673C24.7066 24.7432 24.9336 23.8006 25.2297 22.9025C25.2939 22.7002 25.2396 22.4633 25.2396 22.2412C25.1113 22.2412 24.9879 22.2116 24.9682 22.2462C24.6326 22.7939 24.3069 23.3516 23.843 24.1362C23.843 23.2134 23.8727 22.5176 23.8332 21.8218C23.7986 21.1704 24.0108 20.4253 23.2262 19.8972C22.8166 20.8003 23.0387 21.6589 23.0189 22.5028C22.9943 23.5588 23.0337 24.6297 22.9054 25.6758C22.6883 27.4326 22.2985 29.1647 22.0961 30.9214C21.9136 32.5203 22.5156 33.8576 23.8085 34.8495C23.9862 34.9877 24.1539 35.1406 24.2625 35.2344C23.843 38.1163 23.9417 40.7416 26.187 42.8685C26.9273 43.5642 27.7366 43.8949 28.7087 43.9492C31.0626 44.0775 33.3424 43.6432 35.5877 42.9967C36.476 42.7401 37.2458 42.2713 37.8478 41.5459C39.6737 39.3549 41.2775 37.0257 42.5654 34.4745C43.0096 33.5961 43.5277 32.7522 44.0903 31.9479C44.6479 31.1534 45.3042 30.428 46.005 29.5644C46.1727 29.9148 46.301 30.1023 46.3603 30.3095C46.5034 30.803 46.4935 31.3853 46.76 31.785C47.5989 33.0187 47.214 34.1586 46.686 35.3282C46.3948 35.9746 46.1185 36.6309 45.8619 37.2922C45.6941 37.7166 45.5707 38.1607 45.3536 38.8368C45.7928 38.5555 46.0741 38.2939 46.2369 37.9979C46.2764 37.6771 46.3257 37.3563 46.3751 37.0307C46.3652 36.9073 46.3603 36.7839 46.4047 36.6803C46.7945 35.7032 47.2238 34.7409 47.6581 33.7244C48.2503 34.1044 48.4032 34.5041 48.0331 35.0469C47.8358 35.3331 47.6433 35.6243 47.4508 35.9154C47.6433 35.8907 47.8358 35.9055 48.0085 35.9697C48.2256 35.6144 48.4477 35.2541 48.6895 34.8594C49.2816 35.4811 49.8245 36.0536 50.3673 36.626C50.7275 36.8629 51.0927 37.0997 51.448 37.3366C52.3658 37.9485 53.2048 38.8022 54.2114 39.1279C55.7856 39.6313 56.585 40.6429 57.0588 42.0937C57.192 42.5033 57.4437 42.8685 57.6263 43.2632C57.7842 43.6087 57.9224 43.964 58.1049 44.4032C56.7232 44.7535 55.3662 44.5512 54.1177 44.9016C54.1275 44.9904 54.1374 45.0792 54.1522 45.168C55.5438 45.0545 56.9354 44.9361 58.3665 44.8177C58.5145 45.168 58.6428 45.4789 58.8254 45.9181C57.1377 46.3376 55.455 45.9082 53.8956 46.4461C54.3891 46.535 54.8776 46.5498 55.3662 46.53C55.9978 46.5004 56.6245 46.4165 57.2512 46.3968C59.2202 46.3376 59.2301 46.3425 60.0295 48.1091C60.5822 49.328 61.0954 50.5666 61.6629 51.7757C62.3439 53.2413 63.0644 54.6822 63.7552 56.1429C63.844 56.3304 63.849 56.5623 63.9181 56.9078C63.2025 56.6758 62.635 56.4883 61.9195 56.2564C61.9392 56.6956 61.9047 56.967 61.9738 57.2088C62.181 57.9688 62.4031 58.7287 62.6646 59.4689C64.0118 63.2835 64.7274 67.2313 65.2258 71.2284C65.2899 71.7515 65.2356 72.2943 65.2356 72.8124C64.7668 72.7384 64.3967 72.6792 63.8638 72.5904C63.9427 73.2467 63.9724 73.75 64.071 74.2337C64.8557 78.0729 65.0777 81.9763 65.2998 85.8698C65.433 88.2286 65.2998 90.6022 65.3442 92.9659C65.3886 95.3297 65.5367 97.6885 65.586 100.052C65.6255 101.868 65.5663 103.684 65.5811 105.495C65.586 105.925 65.4182 106.428 65.9709 106.926C66.0745 106.171 66.2226 105.559 66.2275 104.947C66.2522 101.794 66.2719 98.6359 66.2275 95.4826C66.1486 92.132 66.0252 88.7862 65.9463 85.4355ZM30.12 34.884C31.1218 35.6144 32.1877 36.3941 33.3325 37.233C33.2585 38.215 32.8934 39.197 32.2321 40.0458C31.5807 40.8847 30.6431 40.8501 29.745 40.6182C28.8271 40.3863 28.2942 39.7497 28.2251 38.6542C28.8419 38.5111 29.4341 38.368 30.1348 38.2051C29.3551 38.0768 28.6939 37.9781 28.0376 37.8498C27.9932 37.84 27.9882 37.6426 27.9339 37.381C28.7235 37.2034 29.4983 37.0257 30.273 36.8481C30.2681 36.7839 30.2631 36.7148 30.2631 36.6507C29.5624 36.6852 28.8567 36.7198 28.0721 36.7543C27.9636 36.5224 27.8402 36.2608 27.7218 35.9993C28.5557 35.6094 29.3255 35.2542 30.12 34.884ZM39.6095 37.8844C38.9384 38.8565 38.1982 39.7793 37.4728 40.712C36.7474 41.6496 35.8542 42.2368 34.6403 42.4539C33.0513 42.7352 31.487 43.0708 29.8585 43.1497C27.6576 43.2583 26.4683 42.4391 25.5209 40.2728C24.8744 38.7874 24.8103 37.1886 24.7905 35.6045C24.9139 35.5946 25.0422 35.5798 25.1656 35.57C25.2692 36.246 25.3481 36.932 25.4863 37.6031C25.6047 38.1755 25.7725 38.743 25.9452 39.3006C26.2512 40.2975 26.9174 40.7366 27.9636 41.0031C29.0985 41.2943 30.2138 41.615 31.3833 41.7729C33.1845 42.0147 34.9117 41.6545 36.3378 40.6478C37.5419 39.799 38.5634 38.5802 38.9236 37.08C39.1161 36.2855 39.501 35.8463 40.1474 35.5009C40.5077 35.3084 40.8531 35.0765 41.2035 34.8643C41.2627 34.9186 41.3219 34.9778 41.3811 35.0321C40.7988 35.9894 40.2461 36.9665 39.6095 37.8844ZM44.3765 29.3719L44.3074 29.14C44.5739 29.0512 44.8453 28.9624 45.1118 28.8735C45.1414 28.9673 45.171 29.0611 45.2006 29.1597C44.9243 29.2288 44.6528 29.3028 44.3765 29.3719ZM65.8673 82.6326C65.8525 82.4648 65.8327 82.302 65.8179 82.1342C65.8525 82.1292 65.8821 82.1243 65.9166 82.1194C65.9314 82.2872 65.9512 82.45 65.966 82.6178C65.9314 82.6227 65.9018 82.6276 65.8673 82.6326Z" fill="black"/>
<path d="M53.2286 14.8321C52.5673 14.6199 51.911 14.4077 51.1215 14.1561C51.0129 14.7137 50.8797 15.1973 50.8352 15.6908C50.7415 16.7517 50.6872 17.8176 50.628 18.8786C50.5885 19.5744 50.4306 20.2357 49.8582 20.6699C49.5374 20.9117 49.1031 21.1535 48.7232 21.1436C46.6753 21.0894 44.6224 21.0301 42.5844 20.8278C41.2224 20.6946 39.89 20.3047 38.5379 20.0531C37.7187 19.9001 37.3042 19.377 37.1907 18.6072C36.9933 17.2057 36.8008 15.7993 36.6725 14.388C36.6183 13.7958 36.5146 13.2431 35.957 13.0063C35.3648 12.7595 34.7036 12.7447 34.1953 13.253C33.993 13.4553 33.8351 13.7465 33.7709 14.0277C33.4551 15.37 33.1837 16.7221 32.8827 18.0693C32.8086 18.4049 32.6853 18.7355 32.5767 19.1007C31.1604 19.1007 29.7886 19.1697 28.4217 19.0859C26.4181 18.9576 24.4048 18.9181 22.4654 18.247C21.5031 17.9163 21.3452 17.8275 21.2613 16.7715C21.1627 15.4736 21.0985 14.1807 21.0195 12.8829C20.9998 12.5671 21.0146 12.2463 20.9702 11.9354C20.7876 10.7017 20.7925 10.7363 21.9818 10.3218C23.403 9.82829 24.8242 9.83322 26.2948 10.0701C28.3328 10.4007 30.2574 11.0866 32.2165 11.6788C32.8086 11.8565 33.4403 11.9058 34.0522 11.9946C34.9454 12.1279 35.8386 12.2463 36.7318 12.3647C36.9588 12.3944 37.1956 12.4782 37.4128 12.4437C40.1466 12.0193 42.8952 11.891 45.6587 11.9996C48.1409 12.0983 50.4799 12.7891 52.7252 13.8008C53.0263 13.934 53.2187 14.2992 53.4605 14.5607C53.3816 14.6495 53.3026 14.7384 53.2286 14.8321ZM50.1345 13.8008C47.149 12.5621 39.6383 12.3647 37.5164 13.4997C37.8223 14.9851 38.1332 16.5198 38.4589 18.0496C38.6168 18.7947 39.1202 19.1747 39.8406 19.3178C40.1515 19.3819 40.4575 19.4658 40.7684 19.5004C43.3196 19.7767 45.8709 19.7372 48.4222 19.5201C48.8761 19.4806 49.3203 19.3326 49.8286 19.224C49.6756 18.1236 50.1197 17.1218 49.7348 16.0806C49.0439 16.1842 48.4074 16.278 47.7708 16.3767C47.756 16.2928 47.7412 16.204 47.7264 16.1201C48.3185 15.9474 48.9008 15.7352 49.5029 15.6217C49.947 15.5427 50.1148 15.3108 50.1394 14.916C50.1543 14.5607 50.1345 14.2103 50.1345 13.8008ZM22.2236 14.8815C22.2088 15.1529 22.194 15.3108 22.194 15.4638C22.2236 17.0527 22.4309 17.2847 23.9952 17.4673C24.7009 17.5512 25.4016 17.6647 26.1073 17.7288C27.6765 17.867 29.2507 18.0051 30.8199 18.089C31.8562 18.1433 32.0043 17.9903 32.2017 17.0676C32.3843 16.2237 32.5915 15.3799 32.7889 14.541C32.9814 13.7169 32.5027 12.7102 31.6934 12.4634C29.6948 11.8565 27.6962 11.2298 25.6631 10.7807C24.8193 10.5932 23.862 10.756 22.9836 10.9139C21.8979 11.1064 21.7943 11.4222 22.2039 12.646C22.875 12.5868 23.5659 12.5276 24.2518 12.4684C23.8126 12.7743 23.329 12.8829 22.8553 13.026C22.0904 13.2579 22.0904 13.2727 22.3174 14.2498C22.9194 14.1659 23.5264 14.087 24.1284 14.0031C24.1383 14.0623 24.1482 14.1264 24.158 14.1857C23.5461 14.4127 22.9194 14.6347 22.2236 14.8815Z" fill="black"/>
<path d="M15.05 85.6663C14.3641 86.1005 13.6732 86.5348 12.9034 87.0233C12.9231 87.2404 12.9527 87.5316 12.9922 87.9116C14.4973 87.3638 15.8593 86.6581 17.3989 86.5052C16.9992 86.9592 16.4317 87.0579 15.9086 87.2553C15.1734 87.5316 14.4282 87.7882 13.6979 88.0843C12.9873 88.3754 12.5876 88.9035 12.479 89.6881C12.0941 92.5256 12.5925 95.2643 13.3919 97.9587C13.6683 98.8963 14.1469 99.7697 14.517 100.678C14.7835 101.334 15.0747 101.985 15.2671 102.666C15.3708 103.037 15.2869 103.456 15.0796 103.91C14.971 103.777 14.7934 103.658 14.7638 103.505C14.4825 102.198 13.7522 101.147 12.9873 100.076C12.1434 98.9012 11.951 97.4455 11.7832 96.0341C11.5463 94.0109 11.3934 91.9778 11.2009 89.8953C10.9542 89.9545 10.6581 90.0187 10.3965 90.0828C9.908 89.767 10.6531 85.1629 11.5957 82.3945C12.4494 82.4389 12.6468 82.6659 12.4099 83.4259C12.2076 84.0625 11.9312 84.6793 11.719 85.311C11.6056 85.6367 11.5562 85.987 11.4871 86.2831C11.9707 86.7815 12.3852 86.5693 12.8392 86.4015C13.5696 86.1252 14.3246 85.913 15.0697 85.6761L15.05 85.6663Z" fill="black"/>
<path d="M12.7633 65.2943C13.2519 64.0112 13.7651 62.7381 14.224 61.4452C14.525 60.5915 14.8853 59.7822 15.4922 59.0469C15.9709 59.2985 15.8377 59.6588 15.7192 59.9697C15.2899 61.1096 14.831 62.2396 14.3918 63.3746C14.2635 63.7003 14.1302 64.0359 14.071 64.3813C13.8243 65.7976 13.1877 67.051 12.5215 68.2946C12.3636 68.5907 12.2748 68.9164 12.1169 69.3161C15.28 69.5776 17.4957 67.7715 19.9828 66.449C19.9039 66.6217 19.8693 66.8586 19.7361 66.9622C17.8609 68.3982 16.0153 69.9379 13.5183 70.0958C12.3143 70.1747 11.0954 70.0661 9.88143 69.9921C9.68897 69.9773 9.36328 69.6714 9.36328 69.4986C9.36328 69.1137 9.6791 69.0249 10.0492 69.0989C10.4687 69.1828 10.898 69.2272 11.347 69.2914C11.8405 68.4229 12.255 67.5988 12.3784 66.6316C12.4376 66.1726 12.6449 65.7335 12.7831 65.2844L12.7633 65.2943Z" fill="black"/>
<path d="M33.352 20.829C31.9949 21.1547 30.8599 20.9721 29.6016 21.0609C30.2974 20.222 31.7334 20.143 33.352 20.829Z" fill="black"/>
<path d="M26.6695 69.5273C26.5363 70.534 26.4376 71.3137 26.329 72.1428C25.7566 72.1181 25.5394 71.7184 25.569 71.289C25.6085 70.6722 25.5888 69.9468 26.6695 69.5273Z" fill="black"/>
<path d="M34.1721 70.775C33.4763 70.168 32.968 69.7288 32.4844 69.3094C32.7212 68.7962 33.0223 68.7814 33.3035 69.0034C33.802 69.3933 34.4188 69.7387 34.1721 70.775Z" fill="black"/>
<path d="M3.71505 75.7602C4.65759 74.8473 5.87647 74.4674 7.07068 74.043C5.97516 74.6697 4.92406 75.3803 3.69531 75.7356C3.70025 75.7356 3.71505 75.7602 3.71505 75.7602Z" fill="black"/>
<path d="M10.4492 63.6826C11.2289 63.1892 12.0727 62.903 12.9906 62.8438C13.0153 62.9227 13.04 62.9967 13.0696 63.0757C12.2356 63.3619 11.4016 63.6481 10.5677 63.9294C10.5282 63.8504 10.4887 63.7665 10.4492 63.6826Z" fill="black"/>
<path d="M12.7861 65.2783C12.3025 65.4214 11.8139 65.5546 11.3303 65.7076C10.901 65.8408 10.4766 65.9938 10.0078 65.9839C10.8418 65.4362 11.6906 64.9378 12.7614 65.298C12.7663 65.2931 12.7861 65.2783 12.7861 65.2783Z" fill="black"/>
<path d="M15.0666 85.686C15.7822 85.3307 16.4977 84.9803 17.2132 84.625C17.2428 84.699 17.2724 84.773 17.3021 84.8471C16.6457 85.3553 15.8957 85.6268 15.0469 85.6662C15.0518 85.6662 15.0666 85.686 15.0666 85.686Z" fill="black"/>
<path d="M27.64 65.5547C27.1021 66.1469 26.5691 66.7341 26.0312 67.3263C26.352 66.5219 26.8405 65.8804 27.6597 65.5744L27.64 65.5547Z" fill="black"/>
<path d="M49.9247 4.92969C49.3375 5.40342 48.7552 5.87223 48.168 6.34596C48.5578 5.59588 49.0661 5.01851 49.9445 4.95436L49.9247 4.92969Z" fill="black"/>
<path d="M25.2695 30.3359C25.7334 30.3359 26.0295 30.3359 26.3305 30.3359C26.3305 30.4544 26.3601 30.5629 26.3256 30.5925C25.9999 30.8886 25.6742 31.0465 25.2695 30.3359Z" fill="black"/>
<path d="M25.7838 32.8594C25.9663 33.0272 26.07 33.116 26.1687 33.2097C26.0798 33.3084 25.9959 33.4762 25.8973 33.4811C25.7936 33.4861 25.6258 33.3676 25.5864 33.264C25.5568 33.1851 25.6851 33.0469 25.7838 32.8594Z" fill="black"/>
<path d="M35.1055 30.7578C35.3522 30.7776 35.594 30.7973 35.9789 30.822C35.5989 31.2513 35.3473 31.2858 35.1055 30.7578Z" fill="black"/>
<path d="M37.3672 30.6313C37.5942 30.5178 37.7324 30.3846 37.8409 30.4043C37.9495 30.424 38.0235 30.6066 38.1173 30.7152C38.0087 30.7941 37.8952 30.9471 37.7866 30.9422C37.6731 30.9323 37.5646 30.7843 37.3672 30.6313Z" fill="black"/>
<path d="M6.76953 75.535C7.05575 75.4166 7.3469 75.2981 7.63311 75.1797C7.65285 75.234 7.67752 75.2833 7.69726 75.3376C7.41105 75.461 7.12483 75.5843 6.83862 75.7077C6.81888 75.6485 6.7942 75.5893 6.76953 75.535Z" fill="black"/>
<path d="M36.4588 32.5391C36.5723 32.7858 36.6661 32.9042 36.6661 33.0276C36.6661 33.0967 36.4884 33.2497 36.4638 33.2349C36.3503 33.1756 36.2022 33.0769 36.1776 32.9634C36.1578 32.8796 36.3059 32.7611 36.4588 32.5391Z" fill="black"/>
<path d="M47.953 4.86719C48.0665 5.38534 47.7556 5.62713 47.2227 5.92815C47.3065 5.32118 47.7013 5.14846 47.9777 4.88692C47.9777 4.89186 47.953 4.86719 47.953 4.86719Z" fill="black"/>
<path d="M44.3786 16.5661C44.1565 16.9609 43.9147 17.5432 43.5347 18.0071C43.1399 18.4907 42.3751 18.4512 41.9704 17.9874C41.5065 17.4495 41.3536 16.7783 41.546 16.1121C41.7533 15.3917 42.3109 14.9031 43.0264 14.7206C43.5495 14.5923 43.9196 14.9722 44.122 15.4262C44.2503 15.7075 44.2651 16.0332 44.3786 16.5661Z" fill="black"/>
<path d="M47.0234 17.565C47.6896 16.9581 48.4496 16.9729 49.2391 17.1801C48.5039 17.3134 47.7636 17.4417 47.0234 17.565Z" fill="black"/>
<path d="M25.3026 14.9953C25.2039 14.0775 25.8751 13.2583 26.714 13.2238C27.5233 13.1941 28.0513 13.7666 28.1056 14.7733C28.1352 15.321 28.1401 15.854 27.6812 16.2932C27.2173 16.7422 26.709 16.9594 26.0872 16.762C25.4655 16.5646 25.3026 16.0514 25.3026 15.4641C25.3026 15.3111 25.3026 15.1532 25.3026 14.9953Z" fill="black"/>
<path d="M20.795 77.4761C20.5038 77.0419 20.2275 76.578 20.1436 76.0598C20.0597 75.5417 20.2077 74.9545 20.6321 74.6534C21.851 73.78 24.8415 73.5382 25.3053 75.3591C25.8037 77.3083 23.5091 78.4038 22.5567 79.7116C21.8757 79.0947 21.3082 78.2459 20.795 77.4761Z" fill="#BBBBBA"/>
<path d="M25.9048 86.283C29.448 88.0349 32.9911 89.7867 36.5342 91.5336C36.776 91.652 37.0425 91.805 37.1116 92.0665C37.1807 92.3527 36.9636 92.6439 36.6922 92.7574C36.4207 92.8709 36.1148 92.8462 35.8236 92.8215C32.621 92.5057 29.5072 91.6027 26.4772 90.5121C24.9721 89.9693 23.4226 89.3327 22.4061 88.099C21.7942 87.3588 20.7677 84.9358 22.2087 84.4572C23.1117 84.1561 25.0659 85.8685 25.9048 86.283Z" fill="#BBBBBA"/>
<path d="M52.2625 66.5326C51.1225 66.2957 49.958 66.2019 48.8032 66.0391C48.0482 65.9355 47.4067 65.7134 47.3573 64.7758C47.3228 64.159 46.8885 63.8234 46.3605 63.626C45.9411 63.4681 45.5167 63.3102 45.0775 63.2312C42.5164 62.7772 39.9552 62.3084 37.3842 61.9432C36.6934 61.8446 35.8791 61.5682 35.2426 62.1653C35.3067 62.5453 35.3561 62.8463 35.4005 63.1424C33.2588 62.8463 31.2355 62.5601 29.1235 62.2689C28.9261 63.0388 28.7336 63.7938 28.5412 64.5439C28.7781 64.4797 29.0199 64.4304 29.2666 64.4156C29.2715 64.4156 29.2765 64.4156 29.2863 64.4156C29.6663 63.024 29.9377 63.0388 31.7932 63.3941C33.017 63.6309 34.2309 63.932 35.4992 64.2132C35.5337 64.5093 35.5831 64.8103 35.6028 65.1163C35.6669 66.1328 35.8347 66.3895 36.8562 66.4487C38.1343 66.5227 39.2742 67.0655 40.4783 67.3468C42.5608 67.8403 44.7123 68.0525 46.8441 68.314C47.609 68.4078 48.2209 68.6249 48.6651 69.2713C49.0796 69.8783 49.1289 70.5692 48.9069 71.2107C48.364 72.7701 47.8015 74.3295 47.1155 75.8296C46.1483 77.9417 45.0676 80.0044 44.0363 82.0869C43.9178 82.3287 43.8043 82.5705 43.676 82.8073C42.6841 84.7121 41.712 86.6219 40.6905 88.507C40.3105 89.2077 39.8812 89.8985 39.368 90.5055C38.5488 91.4727 38.4699 91.4431 37.1572 90.6338C37.3892 90.2687 37.5668 89.9775 37.8185 89.5729C34.6158 89.0745 31.6303 88.3441 28.8619 86.7403C26.1676 85.176 23.3942 83.7696 20.6949 81.8056C21.524 81.2628 22.2099 80.863 22.8366 80.3893C23.9519 79.5405 25.2991 78.9632 25.8172 77.4383C26.0146 76.856 26.7252 76.4711 27.1348 75.9382C27.7516 75.1387 28.3734 74.3393 28.9606 73.5201C28.4079 73.53 27.8602 73.4708 27.3371 73.3277C26.4242 74.5416 25.5063 75.7457 24.5885 76.9547C23.9321 77.8134 23.1672 78.5487 22.0816 79.1161C19.9103 77.4531 19.5106 75.0055 18.9234 72.5283C19.3428 72.4197 19.5945 72.2766 19.8314 72.3013C21.6424 72.4641 23.3992 72.3555 25.1461 71.9953C25.077 71.9164 25.003 71.8423 24.9339 71.7634C24.8105 71.6055 24.697 71.4476 24.5934 71.2847C22.4863 71.719 20.3248 71.7535 17.9118 71.413C18.3213 74.6157 19.0813 77.3446 21.3661 79.5899C20.2952 80.0143 19.328 80.3942 17.9216 80.9519C18.5681 81.6822 19.0566 82.2349 19.5353 82.7728C17.9118 83.9472 16.2142 83.0787 14.5117 83.2366C14.9805 84.5592 15.5776 85.6448 16.3376 86.6416C17.8821 88.6698 19.9449 90.0565 22.3382 91.2655C21.8892 91.3099 21.6276 91.3346 21.3365 91.3642C21.3562 91.8872 21.4105 92.3363 21.3759 92.7804C21.3414 93.269 21.1983 93.7526 21.1539 94.2411C21.0256 95.6229 21.297 96.0472 22.6343 96.3137C24.6526 96.7134 26.6907 97.0145 28.709 97.4043C30.4608 97.7448 32.2077 98.1445 33.9497 98.5343C35.7854 98.9439 37.626 99.3338 39.4519 99.7976C41.6479 100.36 43.8783 100.513 46.1237 100.484C47.4067 100.469 47.609 100.212 47.9298 98.9587C48.6552 96.1361 49.3214 93.2936 50.1652 90.5055C50.9745 87.8358 51.394 85.0921 51.848 82.3583C52.3168 79.5751 52.5635 76.7524 52.9731 73.9593C53.2247 72.2322 53.6689 70.5297 53.9008 68.8025C54.0933 67.3567 53.6837 66.8237 52.2625 66.5326ZM45.4081 67.1445C45.0874 67.2382 44.7222 67.3172 44.4014 67.258C42.694 66.957 40.9274 66.9569 39.3137 66.1279C38.7462 65.8318 38.0109 65.822 37.3448 65.7578C36.6144 65.6887 36.3134 65.3087 36.3282 64.6179C36.343 64.0405 36.3726 63.4632 36.4072 62.7328C36.9697 62.7525 37.4484 62.7229 37.9073 62.797C40.0293 63.1325 42.1611 63.4582 44.2682 63.8678C46.3704 64.2774 46.6517 64.3366 46.701 66.6461C46.252 66.8286 45.8424 67.0211 45.4081 67.1445ZM44.0511 86.9673C44.4952 85.8669 45.0874 84.8799 46.3013 84.4457C46.4642 84.3864 46.5974 84.2532 46.7405 84.1446C46.7652 84.1298 46.7504 84.0657 46.7701 83.9176C46.2076 84.1002 45.6845 84.268 45.0578 84.4703C45.1071 82.9554 46.5826 83.212 47.4215 82.2349C46.5925 82.4915 46.0546 82.6593 45.2996 82.8961C45.3982 82.3533 45.4131 81.8747 45.5808 81.4601C46.2273 79.8416 46.9181 78.2427 47.6041 76.6389C48.2061 75.2424 48.823 73.8557 49.4299 72.4592C49.5385 72.2124 49.5681 71.9262 49.7112 71.7091C49.8148 71.5463 50.1356 71.3341 50.1948 71.3735C50.3823 71.5068 50.5847 71.7387 50.6143 71.9509C50.6537 72.247 50.555 72.5677 50.4958 72.8786C49.9283 75.7309 49.4151 78.598 48.7637 81.4355C48.2801 83.5278 47.6041 85.5708 47.0317 87.6384C46.6763 88.9363 46.3605 90.244 46.0299 91.5468C45.6104 93.1851 45.4279 93.3331 43.7204 93.2344C43.1431 93.1999 42.5756 93.0913 41.7219 92.9828C42.1413 91.9366 42.4966 91.0829 42.8273 90.2193C43.2368 89.1435 43.6168 88.0431 44.0511 86.9673ZM18.8888 87.5496C18.2572 86.8637 17.591 86.2123 16.9593 85.5264C16.8508 85.4079 16.8458 85.2007 16.7373 84.875C18.0795 84.4851 19.3823 84.1101 20.8973 83.6709C21.4006 84.0213 22.0865 84.495 22.886 85.0526C21.9336 85.7435 21.0552 86.3801 20.1768 87.0167C20.2261 87.0956 20.2755 87.1746 20.3298 87.2585C20.5222 87.1548 20.7246 87.066 20.9022 86.9426C21.1934 86.7354 21.4746 86.5133 21.7559 86.2863C22.8169 85.4375 23.8532 85.329 25.0671 86.0988C26.7301 87.1548 28.4326 88.1763 30.219 89.0004C32.7406 90.165 35.3561 91.1273 37.9221 92.1932C38.5784 92.4646 38.9782 92.2031 39.447 91.754C41.0507 90.2193 41.7811 88.1714 42.7927 86.2863C43.1233 85.6744 43.4046 85.0329 43.7056 84.4062C43.7895 84.4358 43.8734 84.4703 43.9573 84.4999C43.8734 84.87 43.8389 85.255 43.7007 85.6053C42.5855 88.3885 41.4603 91.1717 40.3204 93.945C39.9158 94.9369 39.3433 95.0652 38.4699 94.4731C38.159 94.2658 37.7691 94.0684 37.4138 94.0536C34.305 93.9648 31.4477 92.8841 28.5511 91.9218C26.9769 91.3987 25.4175 90.8263 23.8186 90.4118C21.8842 89.9134 20.236 89.0103 18.8888 87.5496ZM53.0816 68.8667C53.0422 69.4441 52.9385 70.0214 52.8448 70.5988C52.3562 73.6485 51.8726 76.6981 51.3742 79.7429C51.014 81.9536 50.6143 84.1545 50.2738 86.3702C49.6372 90.5006 47.9742 94.3694 47.2389 98.4751C47.1846 98.7761 47.0317 99.0574 46.8787 99.4621C43.4638 98.9094 40.0638 98.4455 36.6934 97.7941C33.3229 97.1477 29.9871 96.3186 26.4587 95.5291C26.9719 95.0948 27.3618 94.7691 27.7467 94.4385C27.7121 94.3744 27.6776 94.3102 27.6431 94.246C27.046 94.5816 26.4735 94.9813 25.8419 95.2281C25.5162 95.3564 25.0819 95.2527 24.7069 95.1837C24.6526 95.1738 24.6625 94.7889 24.6477 94.5767L24.6378 94.5619C24.3664 94.7001 24.1048 94.8777 23.8186 94.9665C22.9995 95.2231 22.3728 94.705 22.5257 93.8611C22.654 93.1604 22.8909 92.4844 23.108 91.6997C23.5225 91.7343 23.8828 91.7047 24.2035 91.8034C25.4027 92.1784 26.5969 92.5534 27.7714 93.0025C31.5218 94.4286 35.3659 95.4057 39.3877 95.6228C40.3796 95.6771 40.6609 95.534 41.0853 94.6704C41.2185 94.3941 41.332 94.103 41.4751 93.7822C42.6545 93.8513 43.8043 93.95 44.9591 93.9746C46.2421 93.9993 46.2717 93.9796 46.627 92.7262C46.9971 91.4382 47.234 90.1058 47.6485 88.8327C49.1684 84.1249 50.1109 79.2889 50.935 74.4232C51.0633 73.6731 51.2509 72.928 51.3644 72.1779C51.5765 70.7518 51.468 70.6087 50.0369 70.2089C49.7458 69.2269 49.2572 68.3633 48.2604 67.8353C47.9989 67.6972 47.91 67.2432 47.5942 66.6609C49.2473 66.878 50.5797 66.9964 51.8825 67.2382C52.8398 67.4208 53.1409 67.8945 53.0816 68.8667Z" fill="black"/>
<path d="M32.8285 64.4688C32.8137 64.4934 32.7989 64.5181 32.7891 64.5477C32.9963 64.6168 33.1986 64.7007 33.4059 64.8142C33.4108 64.8191 33.4207 64.8241 33.4256 64.829C33.8451 64.9869 34.23 65.2336 34.5656 65.5396C34.7531 65.5791 34.9554 65.6432 35.1873 65.7518C34.6791 64.4786 33.6428 64.9524 32.8285 64.4688Z" fill="black"/>
<path d="M22.7461 82.1679C23.2297 81.8915 23.7133 81.6201 24.1969 81.3438C24.2463 81.4178 24.2907 81.4918 24.34 81.5707C23.8712 81.8718 23.4024 82.1777 22.9336 82.4787C22.8744 82.3751 22.8102 82.2715 22.7461 82.1679Z" fill="black"/>
<path d="M26.7742 81.9334C26.3252 82.1308 25.8712 82.3331 25.4221 82.5305C25.3826 82.4466 25.3481 82.3627 25.3086 82.2838C25.7577 82.0815 26.2067 81.8791 26.6558 81.6719C26.6953 81.7607 26.7347 81.8495 26.7742 81.9334Z" fill="black"/>
<path d="M24.6328 94.5665C24.9536 93.8707 25.6247 93.6536 26.2958 93.4414C25.8221 93.9299 25.3237 94.3839 24.6427 94.5813C24.6427 94.5764 24.6328 94.5665 24.6328 94.5665Z" fill="black"/>
<path d="M21.3125 88.4006C21.8306 88.0552 22.3488 87.7048 22.8669 87.3594C22.9262 87.4433 22.9903 87.5321 23.0495 87.616C22.5314 87.9811 22.0182 88.3414 21.5 88.7066C21.4359 88.6029 21.3717 88.5042 21.3125 88.4006Z" fill="black"/>
<path d="M57.4896 103.767C56.6704 103.762 56.6704 103.263 56.621 102.864C56.399 101.107 56.1226 99.35 56.0042 97.5833C55.7871 94.3165 55.5354 91.0596 54.9728 87.8274C54.8248 86.9835 54.8988 86.1051 54.8939 85.2416C54.884 84.1066 54.9383 82.9666 54.884 81.8316C54.736 78.8017 54.1833 75.8014 54.3461 72.7517C54.3609 72.5001 54.4103 72.2484 54.4399 71.9967C54.5188 71.977 54.6027 71.9572 54.6817 71.9375C54.7754 72.1892 54.9383 72.4408 54.958 72.6975C55.1505 75.5695 55.3133 78.4415 55.491 81.3135C55.5206 81.8218 55.565 82.335 55.6242 82.8433C55.7328 83.8056 56.0042 84.753 55.6193 85.7301C55.486 86.0656 55.5996 86.4999 55.5996 86.9737C56.0338 86.9391 56.3891 86.9046 56.848 86.87C55.7772 87.6398 55.7772 87.6398 55.8364 88.4935C56.1128 88.459 56.3842 88.4245 56.9714 88.3455C55.9006 88.987 56.0042 89.7272 56.0881 90.5365C56.325 92.8904 56.4631 95.2541 56.6605 97.608C56.7987 99.2562 56.9615 100.904 57.1392 102.553C57.1787 102.908 57.3415 103.268 57.4896 103.767Z" fill="black"/>
<path d="M26.366 15.0328C26.6113 15.0328 26.8101 14.8339 26.8101 14.5887C26.8101 14.3434 26.6113 14.1445 26.366 14.1445C26.1207 14.1445 25.9219 14.3434 25.9219 14.5887C25.9219 14.8339 26.1207 15.0328 26.366 15.0328Z" fill="white"/>
<path d="M42.616 16.5093C42.8613 16.5093 43.0601 16.3105 43.0601 16.0652C43.0601 15.8199 42.8613 15.6211 42.616 15.6211C42.3707 15.6211 42.1719 15.8199 42.1719 16.0652C42.1719 16.3105 42.3707 16.5093 42.616 16.5093Z" fill="white"/>
<path d="M28.8203 25.6376C29.6395 25.4205 30.7153 25.4698 31.5443 25.6327" stroke="white" stroke-miterlimit="10" stroke-linecap="round" stroke-linejoin="round"/>
<path d="M26.7703 81.9373C26.3212 82.1347 25.8672 82.337 25.4182 82.5344C25.3787 82.4505 25.3442 82.3666 25.3047 82.2877C25.7537 82.0854 26.2028 81.883 26.6519 81.6758C26.6913 81.7597 26.7308 81.8485 26.7703 81.9373Z" fill="black"/>
<path d="M27.25 78.0667C29.1498 78.8514 31.0448 79.636 32.9446 80.4157C33.8477 80.7858 34.736 81.1756 35.5995 81.6296C36.4681 82.0886 37.3316 82.5475 38.21 82.9768C39.2315 83.4752 40.2629 83.9539 41.2893 84.4276C41.6101 84.5757 41.8913 84.097 41.5706 83.949C39.7447 83.1051 37.9238 82.2415 36.1522 81.2941C34.3757 80.3417 32.4906 79.6261 30.6303 78.8612C29.5545 78.4171 28.4787 77.973 27.4029 77.5289C27.0674 77.3956 26.9243 77.9335 27.25 78.0667Z" fill="#1D1E1C"/>
<path d="M36.1167 78.9115C35.8206 79.2766 35.4949 79.6171 35.1396 79.928C35.0656 79.9922 35.0705 80.1254 35.1396 80.1895C35.2186 80.2586 35.3222 80.2586 35.4012 80.1895C35.7565 79.8787 36.0822 79.5382 36.3782 79.173C36.4375 79.099 36.4572 78.9855 36.3782 78.9115C36.3092 78.8522 36.1809 78.8325 36.1167 78.9115Z" fill="#1D1E1C"/>
<path d="M37.4718 79.6559C37.6001 79.6905 37.7235 79.7299 37.837 79.7892C37.8814 79.8138 37.9406 79.8336 37.9801 79.8632C37.99 79.8731 38.0048 79.8829 38.0147 79.8977C38.0048 79.8977 37.9999 79.8879 38.0048 79.873C37.9999 79.878 37.9949 79.9027 37.99 79.9125C37.911 80.0704 37.6939 80.1346 37.536 80.0951C37.536 80.2136 37.536 80.332 37.536 80.4504C37.6495 80.4109 37.8025 80.4405 37.8568 80.559C37.8716 80.5886 37.8716 80.6527 37.8469 80.6972C37.8222 80.7465 37.7877 80.786 37.7285 80.8107C37.5459 80.8797 37.309 80.7662 37.1412 80.6972C36.9685 80.6281 36.7909 80.5442 36.6625 80.406C36.4997 80.2333 36.2431 80.4948 36.401 80.6675C36.5984 80.8797 36.8797 80.9932 37.1462 81.0919C37.4324 81.2005 37.7778 81.2646 38.0295 81.0475C38.2318 80.8748 38.296 80.559 38.1479 80.332C37.9999 80.1001 37.689 80.0014 37.4324 80.0902C37.2695 80.1494 37.2449 80.4011 37.4324 80.4455C37.7778 80.5343 38.1825 80.3764 38.3305 80.0359C38.5229 79.5819 37.8864 79.3845 37.5656 79.2957C37.3435 79.2365 37.2448 79.5918 37.4718 79.6559Z" fill="#1D1E1C"/>
<path d="M39.5552 80.6236C39.723 80.6926 39.8611 80.8259 39.95 80.9838C39.9746 81.0331 40.0388 81.1368 40.0141 81.191C39.9993 81.2256 39.9302 81.2503 39.9006 81.2651C39.8562 81.2897 39.8069 81.3095 39.7575 81.3243C39.3529 81.4723 38.889 81.4674 38.4942 81.2947C38.4942 81.4032 38.4942 81.5069 38.4942 81.6154C38.5732 81.571 38.6817 81.6352 38.7508 81.6747C38.8742 81.7388 38.9926 81.8128 39.116 81.8819C39.3677 82.03 39.6144 82.178 39.8562 82.331C40.0585 82.4593 40.2411 82.1385 40.0437 82.0102C39.7624 81.8326 39.4762 81.6598 39.1851 81.4921C38.9285 81.344 38.6077 81.122 38.3116 81.2947C38.2031 81.3588 38.1833 81.5562 38.3116 81.6154C38.8693 81.8622 39.5108 81.8622 40.0585 81.5957C40.1967 81.5266 40.3299 81.4328 40.3694 81.2749C40.4089 81.122 40.3497 80.9542 40.2757 80.8209C40.1424 80.5643 39.9105 80.3818 39.6489 80.2683C39.5552 80.2288 39.4466 80.3077 39.422 80.3965C39.3973 80.5002 39.4614 80.5841 39.5552 80.6236Z" fill="#1D1E1C"/>
<path d="M33.2765 78.3821C33.3654 78.3771 33.4591 78.3821 33.5479 78.3919C33.5726 78.3969 33.5726 78.3969 33.5529 78.3919C33.5628 78.3919 33.5776 78.3969 33.5874 78.3969C33.6121 78.4018 33.6368 78.4067 33.6565 78.4117C33.696 78.4216 33.7404 78.4314 33.7799 78.4413C33.8194 78.4512 33.8588 78.466 33.8983 78.4808C33.923 78.4906 33.9427 78.4956 33.9674 78.5054C33.9871 78.5153 33.9871 78.5153 33.9723 78.5054C33.9822 78.5104 33.9921 78.5153 34.0069 78.5202C34.0858 78.5597 34.1648 78.6041 34.2388 78.6535C34.3178 78.7078 34.4461 78.6732 34.4905 78.5893C34.5398 78.4956 34.5102 78.3919 34.4263 78.3377C34.0908 78.1156 33.6762 78.0021 33.2765 78.0169C33.1778 78.0218 33.089 78.1008 33.0939 78.1995C33.0939 78.2933 33.1729 78.3821 33.2765 78.3821Z" fill="#1D1E1C"/>
<path d="M34.0404 77.7922C34.0404 77.8119 34.0354 77.8366 34.0354 77.8563C34.0354 77.881 34.0404 77.8218 34.0354 77.8514C34.0354 77.8613 34.0305 77.8711 34.0305 77.881C34.0256 77.9205 34.0157 77.9599 34.0058 77.9994C33.9959 78.0389 33.9811 78.0784 33.9663 78.1129C33.9614 78.1228 33.9614 78.1376 33.9515 78.1475C33.9565 78.1376 33.9614 78.1228 33.9515 78.1425C33.9417 78.1623 33.9318 78.182 33.9219 78.2017C33.8874 78.2758 33.843 78.3448 33.7936 78.409C33.7788 78.4287 33.8134 78.3843 33.7936 78.4041C33.7887 78.409 33.7838 78.4189 33.7739 78.4287C33.7591 78.4435 33.7443 78.4633 33.7295 78.4781C33.6999 78.5126 33.6653 78.5422 33.6357 78.5719C33.5617 78.636 33.5666 78.7692 33.6357 78.8334C33.7147 78.9025 33.8183 78.9025 33.8973 78.8334C34.1933 78.5669 34.3759 78.1919 34.4006 77.7922C34.4055 77.6935 34.3118 77.6046 34.218 77.6096C34.1193 77.6096 34.0453 77.6885 34.0404 77.7922Z" fill="#1D1E1C"/>
<path d="M36.4659 77.028C36.8706 77.1909 37.2752 77.3488 37.6799 77.5116C37.7687 77.5462 37.8871 77.4722 37.9069 77.3833C37.9316 77.2748 37.8723 77.1958 37.7786 77.1563C37.3739 76.9935 36.9693 76.8356 36.5646 76.6727C36.4758 76.6382 36.3574 76.7122 36.3376 76.801C36.313 76.9096 36.3722 76.9935 36.4659 77.028Z" fill="#1D1E1C"/>
<path d="M39.471 77.1944C39.1946 77.5152 38.9133 77.8261 38.6222 78.132C38.558 78.2011 38.5482 78.3245 38.6222 78.3936C38.6962 78.4577 38.8097 78.4676 38.8837 78.3936C39.1749 78.0876 39.4562 77.7767 39.7325 77.456C39.7967 77.382 39.8115 77.2635 39.7325 77.1944C39.6634 77.1303 39.5401 77.1155 39.471 77.1944Z" fill="#1D1E1C"/>
<path d="M41.5486 77.8011C41.366 77.7962 41.1884 77.8455 41.0206 77.9146C40.8824 77.9689 40.7442 78.0182 40.6209 78.1021C40.4876 78.186 40.3741 78.3045 40.3297 78.4574C40.2853 78.6203 40.3347 78.7881 40.3889 78.941C40.4975 79.2174 40.7048 79.5036 41.0354 79.4888C41.2032 79.4789 41.3611 79.4049 41.4696 79.2717C41.5831 79.1335 41.6226 78.9608 41.593 78.7881C41.5239 78.3785 41.1143 78.1811 40.7442 78.1416C40.6455 78.1317 40.5617 78.2354 40.5617 78.3242C40.5617 78.4328 40.6455 78.4969 40.7442 78.5068C40.7837 78.5117 40.7689 78.5117 40.759 78.5068C40.7738 78.5068 40.7886 78.5117 40.7985 78.5166C40.8281 78.5216 40.8528 78.5265 40.8824 78.5364C40.9466 78.5561 40.9762 78.566 41.0305 78.6005C41.0798 78.6302 41.0995 78.645 41.139 78.6844C41.1489 78.6943 41.1588 78.7042 41.1686 78.7141C41.1588 78.6992 41.1736 78.7239 41.1785 78.7239C41.1834 78.7338 41.1933 78.7486 41.1982 78.7585C41.1982 78.7585 41.2229 78.8078 41.213 78.7881C41.2229 78.8127 41.2278 78.8374 41.2328 78.8621C41.2278 78.8374 41.2328 78.9016 41.2328 78.9114C41.2328 78.9164 41.2278 78.946 41.2328 78.9213C41.2328 78.9361 41.2278 78.946 41.2229 78.9608C41.2229 78.9657 41.213 78.9953 41.2229 78.9707C41.218 78.9855 41.2081 79.0003 41.2032 79.0101C41.1982 79.0151 41.1785 79.0447 41.1933 79.0249C41.1834 79.0348 41.1785 79.0447 41.1686 79.0496C41.1588 79.0595 41.1489 79.0693 41.139 79.0743C41.1489 79.0693 41.1588 79.0644 41.1291 79.0792C41.1193 79.0842 41.1094 79.094 41.0946 79.099C41.0897 79.099 41.065 79.1088 41.0897 79.1039C41.0798 79.1088 41.065 79.1088 41.0551 79.1138C41.0502 79.1138 41.0453 79.1187 41.0354 79.1187C41.0502 79.1187 41.0502 79.1187 41.0403 79.1187C41.0255 79.1187 41.0156 79.1187 41.0008 79.1187C40.9712 79.1187 41.0255 79.1236 40.9959 79.1187C40.986 79.1187 40.9712 79.1138 40.9614 79.1088C40.9564 79.1088 40.9219 79.094 40.9416 79.1039C40.9614 79.1138 40.9318 79.099 40.9268 79.094C40.9169 79.0891 40.9071 79.0841 40.8972 79.0743C40.8725 79.0595 40.917 79.0891 40.8923 79.0743C40.8824 79.0644 40.8725 79.0545 40.8627 79.0447C40.8528 79.0348 40.8429 79.0249 40.8331 79.0151C40.8133 78.9953 40.8479 79.0348 40.8281 79.0101C40.8133 78.9904 40.8034 78.9706 40.7886 78.9509C40.7788 78.9312 40.764 78.9114 40.7541 78.8868C40.7492 78.8769 40.7442 78.867 40.7393 78.8522C40.7294 78.8325 40.7442 78.867 40.7344 78.8374C40.7146 78.7881 40.6998 78.7437 40.685 78.6943C40.6801 78.6795 40.6702 78.6351 40.6702 78.6302C40.6702 78.6153 40.6702 78.6005 40.6702 78.5857C40.6702 78.5117 40.6702 78.6154 40.6751 78.5561C40.6751 78.5512 40.685 78.5216 40.6751 78.5512C40.6801 78.5413 40.685 78.5315 40.69 78.5216C40.6949 78.5117 40.6998 78.5019 40.7097 78.492C40.69 78.5167 40.7097 78.492 40.7146 78.492C40.7294 78.4772 40.7492 78.4574 40.764 78.4426C40.7936 78.418 40.7738 78.4328 40.7689 78.4377C40.7837 78.4278 40.7985 78.418 40.8133 78.4081C40.8627 78.3785 40.912 78.3538 40.9614 78.3291C40.9712 78.3242 40.986 78.3193 40.9959 78.3143C40.9663 78.3242 41.0206 78.3045 41.0206 78.3045C41.0551 78.2897 41.0847 78.2798 41.1193 78.265C41.2574 78.2107 41.3956 78.1663 41.5387 78.1712C41.6374 78.1712 41.7213 78.0824 41.7213 77.9886C41.7361 77.885 41.6473 77.8061 41.5486 77.8011Z" fill="#1D1E1C"/>
<path d="M41.3534 74.416C41.1807 74.5739 41.008 74.7319 40.8402 74.8996C40.7563 74.9835 40.6724 75.0625 40.5934 75.1464C40.5145 75.2303 40.401 75.3191 40.3615 75.4277C40.2727 75.704 40.6329 75.7731 40.8204 75.8175C41.0524 75.8718 41.2794 75.8718 41.4965 75.778C41.4323 75.778 41.3731 75.778 41.309 75.778C41.3139 75.783 41.3189 75.7829 41.3238 75.7879C41.304 75.7681 41.2794 75.7435 41.2596 75.7237C41.2646 75.7287 41.2646 75.7336 41.2695 75.7385C41.2596 75.7089 41.2547 75.6744 41.2448 75.6448C41.2448 75.6448 41.2843 75.5708 41.235 75.6596C41.2202 75.6843 41.2054 75.7089 41.1905 75.7336C41.156 75.7879 41.1264 75.8422 41.0919 75.9014C41.0277 76.01 40.9636 76.1234 40.8994 76.232C40.781 76.4393 41.0968 76.6219 41.2202 76.4195C41.3139 76.2567 41.4077 76.0988 41.5014 75.9359C41.5804 75.7978 41.6988 75.5905 41.5113 75.4721C41.4126 75.4129 41.3386 75.4573 41.2448 75.4819C41.1856 75.4967 41.1215 75.4967 41.0622 75.4918C40.9882 75.4869 40.9142 75.4671 40.8451 75.4474C40.8056 75.4375 40.7662 75.4227 40.7267 75.4129C40.7069 75.4079 40.6872 75.398 40.6675 75.3931C40.628 75.3783 40.628 75.3783 40.6675 75.3981C40.6823 75.4277 40.6971 75.4523 40.7168 75.4819C40.7168 75.4721 40.7119 75.4671 40.7119 75.4573C40.7119 75.4918 40.7119 75.5214 40.7119 75.556C40.702 75.5856 40.7267 75.5461 40.7366 75.5313C40.7563 75.5115 40.776 75.4918 40.7958 75.4721C40.8352 75.4326 40.8747 75.3931 40.9142 75.3536C40.9882 75.2796 41.0622 75.2056 41.1412 75.1316C41.2991 74.9786 41.457 74.8305 41.6199 74.6825C41.7926 74.5197 41.531 74.2581 41.3534 74.416Z" fill="#1D1E1C"/>
<path d="M42.822 75.1143C42.9207 75.1193 43.0145 75.139 43.1033 75.1785C43.1576 75.2032 43.3155 75.2871 43.3205 75.3265C43.3205 75.292 43.3205 75.2624 43.3205 75.2278C43.3402 75.2081 43.3353 75.2081 43.3106 75.2377C43.2958 75.2525 43.281 75.2723 43.2662 75.2871C43.2366 75.3216 43.202 75.3512 43.1675 75.3808C43.1083 75.4351 43.049 75.4894 42.9948 75.5437C42.8763 75.6572 42.7628 75.7805 42.6691 75.9187C42.4914 76.1852 42.3878 76.4862 42.3483 76.802C42.3384 76.9007 42.4421 76.9846 42.5309 76.9846C42.6395 76.9846 42.7036 76.9007 42.7135 76.802C42.7382 76.5849 42.8171 76.3678 42.9355 76.1803C43.0638 75.9681 43.2464 75.8052 43.429 75.6374C43.5129 75.5585 43.6363 75.4598 43.6758 75.3413C43.7251 75.1884 43.6165 75.0699 43.503 74.986C43.3056 74.8281 43.0737 74.7492 42.822 74.7344C42.5802 74.7344 42.5852 75.1045 42.822 75.1143Z" fill="#1D1E1C"/>
<path d="M42.3049 75.9953C42.5023 76.0002 42.6553 76.0249 42.8527 76.0792C42.8971 76.094 42.9415 76.1088 42.9859 76.1236C43.0106 76.1335 43.0352 76.1433 43.0599 76.1532C43.0648 76.1532 43.1142 76.1729 43.0895 76.1631C43.1833 76.2025 43.2721 76.247 43.356 76.2963C43.4399 76.3457 43.5633 76.316 43.6077 76.2321C43.6521 76.1433 43.6323 76.0298 43.5435 75.9805C43.1635 75.7584 42.7342 75.64 42.3 75.6252C42.2013 75.6203 42.1124 75.714 42.1174 75.8078C42.1273 75.9163 42.2013 75.9953 42.3049 75.9953Z" fill="#1D1E1C"/>
<path d="M38.2344 74.2197C38.3331 74.2345 38.4269 74.2543 38.5256 74.2789C38.5749 74.2938 38.6194 74.3086 38.6638 74.3234C38.6884 74.3332 38.7082 74.3382 38.7328 74.348C38.7427 74.353 38.7871 74.3727 38.7773 74.3678C38.7674 74.3628 38.8167 74.3826 38.8217 74.3875C38.8414 74.3974 38.8661 74.4072 38.8858 74.4171C38.9302 74.4369 38.9697 74.4615 39.0141 74.4862C39.0536 74.5109 39.098 74.5356 39.1375 74.5652C39.1572 74.58 39.177 74.5948 39.1967 74.6046C39.2066 74.6096 39.2165 74.6194 39.2263 74.6244C39.2115 74.6145 39.2165 74.6145 39.2313 74.6293C39.3053 74.6885 39.4188 74.7083 39.4928 74.6293C39.552 74.5602 39.5718 74.4319 39.4928 74.3678C39.1572 74.1013 38.7575 73.9187 38.3331 73.8546C38.2394 73.8398 38.1308 73.8792 38.1061 73.9829C38.0864 74.0816 38.1308 74.2049 38.2344 74.2197Z" fill="#1D1E1C"/>
<path d="M39.2815 73.573C38.8719 73.8148 38.5265 74.1602 38.2946 74.5748C38.2452 74.6587 38.2699 74.782 38.3587 74.8264C38.4476 74.8709 38.5611 74.8511 38.6104 74.7623C38.6647 74.6685 38.719 74.5797 38.7831 74.4958C38.793 74.481 38.8029 74.4711 38.7881 74.4909C38.7979 74.481 38.8078 74.4662 38.8177 74.4563C38.8325 74.4366 38.8473 74.4169 38.867 74.3971C38.9016 74.3576 38.941 74.3132 38.9805 74.2738C39.0545 74.1997 39.1335 74.1257 39.2174 74.0615C39.2569 74.0319 39.1878 74.0813 39.2273 74.0517C39.2371 74.0418 39.247 74.0369 39.2569 74.027C39.2815 74.0122 39.3013 73.9925 39.3259 73.9777C39.3704 73.9481 39.4197 73.9184 39.469 73.8888C39.5529 73.8395 39.5875 73.7211 39.5332 73.6372C39.4839 73.5533 39.3704 73.5187 39.2815 73.573Z" fill="#1D1E1C"/>
<path d="M39.8781 72.1087C39.957 72.1087 40.0311 72.1087 40.11 72.1137C40.1495 72.1186 40.1939 72.1186 40.2334 72.1235C40.2334 72.1235 40.2926 72.1285 40.2531 72.1235C40.2729 72.1285 40.2926 72.1285 40.3124 72.1334C40.4653 72.1581 40.6183 72.1975 40.7663 72.2469C40.8601 72.2765 40.9736 72.2123 40.9933 72.1186C41.018 72.015 40.9637 71.9261 40.865 71.8916C40.5492 71.783 40.2087 71.7337 39.8781 71.7386C39.7794 71.7386 39.6906 71.8225 39.6955 71.9212C39.6955 72.0199 39.7745 72.1087 39.8781 72.1087Z" fill="#1D1E1C"/>
<path d="M40.5164 71.39C40.3042 71.765 40.1068 72.145 39.9242 72.5398C39.8847 72.6286 39.8946 72.7421 39.9883 72.7915C40.0673 72.8359 40.1956 72.8211 40.24 72.7273C40.4177 72.3375 40.6151 71.9525 40.8322 71.5775C40.8815 71.4936 40.8569 71.3702 40.768 71.3258C40.6841 71.2765 40.5706 71.3012 40.5164 71.39Z" fill="#1D1E1C"/>
<path d="M42.5805 72.2383C42.62 72.2284 42.5559 72.2334 42.5954 72.2383C42.6102 72.2383 42.625 72.2383 42.6447 72.2383C42.6003 72.2334 42.6496 72.2383 42.6595 72.2432C42.6644 72.2432 42.7187 72.263 42.699 72.2531C42.6792 72.2432 42.7237 72.2679 42.7286 72.2679C42.7335 72.2728 42.773 72.2975 42.7582 72.2827C42.7385 72.2728 42.7779 72.2975 42.7829 72.3025C42.7878 72.3074 42.8174 72.3419 42.8026 72.3222C42.7878 72.3074 42.8174 72.3419 42.8174 72.3469C42.8223 72.3567 42.8421 72.4061 42.8273 72.3617C42.8322 72.3765 42.8372 72.3913 42.8372 72.4061C42.8273 72.3765 42.8322 72.3962 42.8372 72.416C42.8421 72.4505 42.8421 72.3913 42.8372 72.4308C42.8322 72.4702 42.8421 72.4159 42.847 72.4258C42.852 72.4308 42.7977 72.4604 42.8322 72.4406C42.8174 72.4505 42.8026 72.4604 42.7878 72.4653C42.6299 72.5492 42.4671 72.6232 42.3042 72.7022C42.2647 72.7219 42.2203 72.7416 42.1808 72.7614C42.1611 72.7712 42.1414 72.7811 42.1216 72.791C42.1266 72.791 42.0673 72.8157 42.092 72.8058C42.0772 72.8107 42.0673 72.8157 42.0525 72.8206C42.0328 72.8255 42.0279 72.8255 42.0377 72.8255C42.0476 72.8255 42.0427 72.8255 42.0229 72.8255C42.0328 72.8255 42.0377 72.8255 42.0476 72.8305C42.0575 72.8305 42.0624 72.8354 42.0673 72.8453C42.0575 72.8305 42.0525 72.8305 42.0624 72.8403C42.0772 72.8699 42.092 72.9094 42.0723 72.944C42.0032 72.9736 41.9341 72.9982 41.865 73.0279C41.9341 73.0427 42.0081 73.0575 42.0772 73.0772C42.1068 73.0871 42.1414 73.0969 42.171 73.1068C42.1907 73.1117 42.2055 73.1216 42.2252 73.1266C42.2055 73.1167 42.2401 73.1315 42.245 73.1364C42.3091 73.166 42.3684 73.1956 42.4276 73.2302C42.4572 73.245 42.4819 73.2647 42.5115 73.2845C42.5263 73.2943 42.5411 73.3091 42.5608 73.319C42.5904 73.3387 42.5559 73.3141 42.5855 73.3387C42.6595 73.398 42.773 73.4177 42.847 73.3387C42.9062 73.2697 42.926 73.1414 42.847 73.0772C42.5904 72.8749 42.2943 72.7318 41.9686 72.6726C41.8847 72.6578 41.8058 72.6824 41.7614 72.7565C41.6923 72.8601 41.7219 72.9933 41.8009 73.0871C41.8848 73.1808 42.0131 73.2055 42.1315 73.1858C42.2351 73.166 42.3289 73.1068 42.4226 73.0624C42.5164 73.018 42.6052 72.9736 42.699 72.9242C42.8766 72.8354 43.1184 72.7663 43.1925 72.5591C43.2566 72.3814 43.1875 72.184 43.0642 72.0508C42.921 71.8929 42.7039 71.8287 42.4967 71.8731C42.4029 71.8929 42.3388 72.0113 42.3684 72.1001C42.3832 72.2136 42.4769 72.258 42.5805 72.2383Z" fill="#1D1E1C"/>
<path d="M44.2909 72.5819C43.9504 72.8681 43.6543 73.2136 43.4224 73.5935C43.373 73.6774 43.4026 73.8008 43.4865 73.8452C43.5754 73.8945 43.6839 73.8649 43.7382 73.781C43.7925 73.6922 43.8517 73.6034 43.9109 73.5146C43.9257 73.4948 43.9405 73.4751 43.9553 73.4554C43.9652 73.4455 43.9701 73.4307 43.98 73.4208C43.9652 73.4405 43.98 73.4208 43.9849 73.4109C44.0195 73.3715 44.054 73.3271 44.0886 73.2876C44.2267 73.1247 44.3797 72.9767 44.5475 72.8385C44.6215 72.7744 44.6166 72.6411 44.5475 72.577C44.4735 72.5128 44.3699 72.5177 44.2909 72.5819Z" fill="#1D1E1C"/>
<path d="M42.8045 70.301C42.8884 70.3207 42.9723 70.3454 43.0512 70.38C43.0364 70.375 43.0216 70.3651 43.0068 70.3602C43.1252 70.4096 43.2387 70.4737 43.3424 70.5527C43.3769 70.5773 43.446 70.5823 43.4855 70.5724C43.5299 70.5625 43.5743 70.528 43.594 70.4885C43.6187 70.4441 43.6286 70.3948 43.6138 70.3454C43.599 70.2961 43.5693 70.2665 43.5299 70.2368C43.3473 70.0987 43.1302 69.995 42.9032 69.9457C42.8094 69.926 42.7008 69.9753 42.6762 70.074C42.6564 70.1678 42.7058 70.2763 42.8045 70.301Z" fill="#1D1E1C"/>
<path d="M44.6602 70.0401C44.5369 70.2078 44.4135 70.3756 44.2901 70.5434C44.2655 70.5779 44.2605 70.6421 44.2704 70.6865C44.2803 70.7309 44.3148 70.7753 44.3543 70.7951C44.3987 70.8197 44.448 70.8296 44.4974 70.8148C44.5467 70.8 44.5763 70.7704 44.606 70.7309C44.7293 70.5631 44.8527 70.3954 44.9761 70.2276C45.0007 70.193 45.0057 70.1289 44.9958 70.0845C44.9859 70.0401 44.9514 69.9956 44.9119 69.9759C44.8675 69.9512 44.8182 69.9414 44.7688 69.9562C44.7244 69.971 44.6898 70.0006 44.6602 70.0401Z" fill="#1D1E1C"/>
<path d="M44.3667 70.9482C44.4703 70.9729 44.5739 70.968 44.6775 70.9581C44.7713 70.9482 44.8651 70.9334 44.9342 70.9581C44.944 70.963 44.9391 70.9581 44.9539 70.968C44.9687 70.9828 44.9884 70.9976 45.0032 71.0173C45.0279 71.0469 45.0526 71.0913 45.0723 71.1259C45.1167 71.1999 45.1612 71.2986 45.171 71.3726C45.1809 71.4516 45.171 71.5157 45.1217 71.5799C45.1414 71.5552 45.1019 71.5947 45.097 71.5996C45.0921 71.6046 45.0822 71.6095 45.0773 71.6194C45.0822 71.6144 45.097 71.6046 45.0773 71.6194C45.0625 71.6292 45.0477 71.6391 45.0329 71.649C45.023 71.6539 45.0131 71.6588 44.9983 71.6638C44.9687 71.6786 45.018 71.6588 44.9934 71.6687C44.8355 71.723 44.7121 71.723 44.5443 71.6539C44.3469 71.5749 44.1841 71.422 44.0262 71.2789C43.9521 71.2098 43.8386 71.2048 43.7646 71.2789C43.6955 71.348 43.6906 71.4713 43.7646 71.5404C43.9521 71.7131 44.1446 71.8809 44.3815 71.9845C44.6035 72.0783 44.8552 72.1079 45.0822 72.0289C45.3289 71.945 45.5115 71.7526 45.5362 71.4861C45.5658 71.2196 45.4178 70.9334 45.245 70.741C45.1414 70.6225 44.9934 70.5781 44.8355 70.5781C44.7713 70.5781 44.7022 70.588 44.6381 70.5929C44.5789 70.5979 44.4999 70.5979 44.4604 70.5929C44.3617 70.5732 44.263 70.6225 44.2334 70.7212C44.2137 70.815 44.268 70.9236 44.3667 70.9482Z" fill="#1D1E1C"/>
<path d="M44.9562 70.4049C45.2079 70.4296 45.4645 70.4542 45.7162 70.4789C45.8149 70.4888 45.9037 70.3851 45.8988 70.2963C45.8938 70.1878 45.8198 70.1236 45.7162 70.1137C45.4645 70.0891 45.2079 70.0644 44.9562 70.0397C44.8575 70.0298 44.7687 70.1335 44.7736 70.2223C44.7786 70.3309 44.8526 70.395 44.9562 70.4049Z" fill="#1D1E1C"/>
<path d="M33.0061 83.7679C33.0011 83.7531 33.0011 83.7235 32.9913 83.7087C32.9863 83.7037 32.9962 83.6988 32.9863 83.7185C32.9666 83.7432 32.9518 83.7728 32.932 83.7975C32.8975 83.8419 32.863 83.8912 32.8284 83.9357C32.7544 84.0344 32.6705 84.133 32.5915 84.2268C32.4238 84.4242 32.2511 84.6068 32.0635 84.7894C31.9944 84.8585 31.9944 84.9818 32.0635 85.0509C32.1326 85.12 32.2511 85.12 32.3251 85.0509C32.5373 84.8437 32.7347 84.6265 32.9271 84.4045C33.0258 84.286 33.1196 84.1676 33.2133 84.0442C33.317 83.9061 33.4157 83.7629 33.3268 83.5853C33.2824 83.4965 33.1541 83.4718 33.0752 83.5211C32.9814 83.5705 32.9617 83.6791 33.0061 83.7679Z" fill="#1D1E1C"/>
<path d="M34.2211 84.2473C34.3938 84.2819 34.5468 84.3411 34.6998 84.425C34.7392 84.4497 34.7787 84.4743 34.8182 84.499C34.8281 84.5039 34.8626 84.5385 34.8774 84.5385C34.8527 84.5237 34.8527 84.499 34.8725 84.4645C34.8873 84.3905 34.8873 84.3756 34.8577 84.4053C34.8231 84.425 34.7886 84.4743 34.759 84.499C34.7244 84.5335 34.6899 84.5681 34.6504 84.5977C34.3741 84.8494 34.078 85.0764 33.7622 85.2738C33.6783 85.328 33.6437 85.4366 33.698 85.5254C33.7474 85.6093 33.8658 85.6439 33.9497 85.5896C34.3395 85.3478 34.7096 85.0616 35.0403 84.7408C35.134 84.6471 35.2475 84.5434 35.208 84.4003C35.1784 84.277 35.0452 84.2029 34.9416 84.1388C34.7491 84.0203 34.5369 83.9315 34.3149 83.8871C34.2162 83.8674 34.1175 83.9167 34.0879 84.0154C34.0681 84.1092 34.1273 84.2227 34.2211 84.2473Z" fill="#1D1E1C"/>
<path d="M34.1369 84.9932C34.2899 85.082 34.438 85.1807 34.5761 85.2844C34.5613 85.2745 34.5514 85.2646 34.5366 85.2548C34.5514 85.2696 34.5712 85.2794 34.586 85.2942C34.6255 85.3238 34.6649 85.3485 34.7143 85.3485C34.7587 85.3485 34.813 85.3288 34.8426 85.2942C34.8771 85.2597 34.8969 85.2153 34.8969 85.1659C34.8969 85.1215 34.8821 85.0672 34.8426 85.0376C34.6748 84.9044 34.5021 84.781 34.3146 84.6774C34.2307 84.628 34.1073 84.6527 34.0629 84.7415C34.0284 84.8304 34.0481 84.9439 34.1369 84.9932Z" fill="#1D1E1C"/>
<path d="M36.5153 84.9217C36.2587 84.8231 35.8737 84.828 35.6615 85.0353C35.4247 85.2623 35.6122 85.6077 35.8096 85.7903C36.007 85.9778 36.3228 86.1308 36.5991 86.0321C36.8558 85.9383 36.9643 85.662 37.0235 85.4202C37.068 85.2524 36.8952 85.1487 36.7521 85.2129C36.6337 85.2672 36.5942 85.43 36.5498 85.5386C36.5005 85.657 36.4511 85.7755 36.387 85.889C36.2784 86.0962 36.1155 86.2985 35.8836 86.3676C35.6813 86.4268 35.5036 86.3281 35.3457 86.2097C35.1681 86.0715 35.0052 85.9136 34.798 85.8248C34.7042 85.7853 34.6006 85.7952 34.5463 85.889C34.5019 85.9679 34.5216 86.1012 34.6105 86.1406C34.8325 86.2344 35.0003 86.4071 35.1927 86.5502C35.4049 86.7081 35.6566 86.792 35.9182 86.7377C36.1994 86.6834 36.4314 86.4861 36.5942 86.2591C36.6732 86.1456 36.7373 86.0222 36.7965 85.8988C36.8261 85.8297 36.8558 85.7606 36.8854 85.6866C36.9002 85.657 36.91 85.6225 36.9248 85.5929C36.9298 85.5781 36.9396 85.5633 36.9446 85.5485C36.9643 85.509 36.9643 85.5041 36.9396 85.5287C36.8508 85.4596 36.7571 85.3905 36.6682 85.3215C36.6386 85.43 36.609 85.5879 36.5153 85.662C36.4018 85.7508 36.2093 85.6373 36.1155 85.5682C36.0563 85.5238 36.002 85.4695 35.9675 85.4054C35.9527 85.3807 35.9231 85.3412 35.928 85.3067C35.933 85.277 35.928 85.3017 35.9379 85.2919C35.9774 85.2425 36.1007 85.2326 36.16 85.2326C36.2537 85.2277 36.3376 85.2474 36.4264 85.282C36.5202 85.3165 36.6288 85.2425 36.6534 85.1537C36.6732 85.0451 36.609 84.9612 36.5153 84.9217Z" fill="#1D1E1C"/>
<path d="M34.863 83.5511C33.4961 82.8849 31.6406 82.4506 30.4267 83.6695C29.9381 84.158 29.7062 84.8983 29.8592 85.5792C30.0171 86.2652 30.5944 86.7093 31.231 86.9363C32.0058 87.2077 32.8792 87.2521 33.6885 87.3064C34.5768 87.3706 35.4946 87.4298 36.373 87.2669C37.128 87.1238 37.8337 86.7587 38.2729 86.1073C38.6775 85.5052 38.7318 84.7502 38.3518 84.1235C37.9028 83.3833 37.0589 82.9392 36.2595 82.6875C35.3614 82.4062 34.4041 82.347 33.4665 82.3667C33.2296 82.3717 33.2296 82.7418 33.4665 82.7368C34.8482 82.7122 36.4273 82.8355 37.5376 83.7583C38.041 84.1778 38.3864 84.7798 38.1841 85.446C37.9817 86.1171 37.3846 86.5909 36.7382 86.7981C36.0276 87.0251 35.2676 87.0153 34.5324 86.9857C33.7527 86.956 32.9631 86.9067 32.1884 86.7883C31.5913 86.6945 30.9251 86.5415 30.5105 86.0629C30.0911 85.5842 30.101 84.8637 30.397 84.3258C30.7573 83.6744 31.5024 83.3339 32.218 83.2747C33.0766 83.2056 33.9106 83.5067 34.6755 83.8768C34.8926 83.9755 35.0801 83.6547 34.863 83.5511Z" fill="#E9574A"/>
<path d="M26.6054 78.7099C26.6054 78.7247 26.6005 78.7395 26.6005 78.7543C26.6005 78.7395 26.6054 78.7198 26.6054 78.705C26.5956 78.7741 26.5758 78.8481 26.5512 78.9123C26.5561 78.8974 26.566 78.8826 26.5709 78.8678C26.561 78.8876 26.5561 78.9024 26.5462 78.9221C26.5215 78.9665 26.5117 79.0159 26.5265 79.0652C26.5364 79.1096 26.5709 79.1541 26.6104 79.1738C26.6548 79.1985 26.7041 79.2083 26.7535 79.1935C26.7979 79.1787 26.8423 79.1491 26.862 79.1096C26.8917 79.0504 26.9213 78.9813 26.941 78.9172C26.9607 78.8481 26.9706 78.779 26.9755 78.7099C26.9805 78.6655 26.9509 78.6112 26.9213 78.5816C26.8917 78.552 26.8374 78.5273 26.793 78.5273C26.7436 78.5273 26.6943 78.5471 26.6647 78.5816C26.6548 78.5964 26.6449 78.6063 26.635 78.6211C26.6153 78.6458 26.6054 78.6754 26.6054 78.7099Z" fill="#1D1E1C"/>
<path d="M27.4963 78.9736C27.5012 78.9736 27.5407 78.9588 27.516 78.9637C27.5012 78.9637 27.5012 78.9637 27.5111 78.9637C27.5259 78.9637 27.5209 78.9637 27.4963 78.9588C27.4963 78.9588 27.5209 78.9686 27.5259 78.9686C27.5012 78.9588 27.5111 78.9637 27.5308 78.9736C27.5407 78.9785 27.5604 78.9982 27.5357 78.9785C27.5456 78.9884 27.5505 78.9933 27.5604 78.9982C27.5703 79.0081 27.5802 79.018 27.59 79.0279C27.59 79.0328 27.6147 79.0575 27.5999 79.0377C27.5851 79.018 27.6147 79.0575 27.6147 79.0624C27.6246 79.0772 27.6295 79.0871 27.6394 79.1019C27.6394 79.1068 27.6591 79.1364 27.6492 79.1216C27.6394 79.1019 27.6542 79.1463 27.6591 79.1512C27.6542 79.1167 27.6542 79.166 27.6591 79.1463C27.664 79.1167 27.6542 79.1759 27.6591 79.1463C27.664 79.1216 27.6492 79.1611 27.6492 79.166C27.6344 79.1956 27.6591 79.1611 27.6443 79.171C27.6048 79.2006 27.5752 79.2351 27.5357 79.2647C27.516 79.2795 27.4963 79.2993 27.4716 79.3141C27.4963 79.2943 27.4617 79.319 27.4617 79.3239C27.4519 79.3338 27.437 79.3437 27.4272 79.3486C27.3828 79.3782 27.3384 79.4078 27.2939 79.4374C27.2693 79.4522 27.2446 79.4671 27.215 79.4819C27.2051 79.4868 27.1952 79.4917 27.1854 79.4967C27.136 79.5213 27.2199 79.4868 27.1656 79.5065C27.0768 79.5411 27.0225 79.6102 27.0324 79.7089C27.0423 79.7977 27.1212 79.8717 27.215 79.8668C27.2693 79.8668 27.3186 79.8668 27.3729 79.8668C27.3828 79.8668 27.3976 79.8717 27.4074 79.8717C27.437 79.8717 27.3828 79.8668 27.4124 79.8717C27.442 79.8766 27.4667 79.8816 27.4963 79.8865C27.5456 79.8964 27.59 79.9112 27.6394 79.926C27.6492 79.9309 27.664 79.9359 27.6739 79.9408C27.7282 79.9605 27.6591 79.9309 27.6887 79.9457C27.7134 79.9556 27.7381 79.9704 27.7627 79.9803C27.8466 80.0247 27.9651 80.0049 28.0144 79.9161C28.0588 79.8322 28.0391 79.7089 27.9503 79.6644C27.7233 79.546 27.4716 79.4868 27.215 79.4967C27.2298 79.6151 27.2495 79.7385 27.2643 79.8569C27.4124 79.8026 27.5456 79.7187 27.6739 79.625C27.7973 79.5312 27.9404 79.4374 28.0045 79.2845C28.0835 79.0969 27.9848 78.9144 27.8614 78.7762C27.7529 78.6528 27.5703 78.5492 27.4074 78.6133C27.3186 78.6479 27.2446 78.7367 27.2791 78.8403C27.2939 78.9292 27.3976 79.0131 27.4963 78.9736Z" fill="#1D1E1C"/>
<path d="M26.3563 80.1789C26.3859 80.1789 26.4106 80.1789 26.4353 80.1789C26.4698 80.1789 26.4106 80.174 26.4353 80.1789C26.4451 80.1838 26.455 80.1838 26.4698 80.1888C26.5093 80.1986 26.4402 80.169 26.4747 80.1888C26.4797 80.1937 26.4846 80.1937 26.4896 80.1986C26.4994 80.2085 26.4945 80.2036 26.4747 80.1888L26.4945 80.2085C26.5044 80.2184 26.4994 80.2134 26.4846 80.1937C26.4846 80.1986 26.4896 80.1986 26.4896 80.2036C26.4945 80.2184 26.4994 80.2184 26.4896 80.2036C26.4846 80.1888 26.4846 80.1888 26.4896 80.2036C26.4945 80.2184 26.4945 80.2184 26.4896 80.2036C26.4896 80.1888 26.4896 80.1888 26.4896 80.2036C26.4896 80.2381 26.4994 80.174 26.4896 80.1937C26.4747 80.2282 26.4895 80.1888 26.4945 80.1888C26.4895 80.1888 26.4797 80.2134 26.4797 80.2184C26.4599 80.2529 26.5093 80.1937 26.4797 80.2184C26.4649 80.2332 26.4501 80.248 26.4303 80.2628C26.4106 80.2825 26.4205 80.2677 26.4353 80.2628C26.4254 80.2677 26.4155 80.2776 26.4057 80.2825C26.381 80.2973 26.3613 80.3121 26.3366 80.3319C26.2872 80.3664 26.2379 80.396 26.1935 80.4306C26.0948 80.4996 25.9961 80.5638 25.8974 80.6329C25.8332 80.6773 25.7839 80.7612 25.8135 80.8402C25.8382 80.924 25.9073 80.9685 25.9911 80.9734C26.1096 80.9833 26.2329 80.9882 26.3514 80.9833C26.4501 80.9783 26.5389 80.8994 26.534 80.8007C26.529 80.7069 26.455 80.6131 26.3514 80.6181C26.2329 80.623 26.1096 80.623 25.9911 80.6082C26.0208 80.7217 26.0553 80.8352 26.0849 80.9536C26.2033 80.8747 26.3218 80.7908 26.4402 80.7118C26.5537 80.6329 26.6869 80.5589 26.7758 80.4454C26.8843 80.3072 26.8942 80.1246 26.7856 79.9864C26.682 79.8532 26.5192 79.8039 26.3563 79.8137C26.2626 79.8187 26.1688 79.8927 26.1737 79.9963C26.1787 80.0901 26.2527 80.1838 26.3563 80.1789Z" fill="#1D1E1C"/>
<path d="M27.3821 80.517C27.4018 80.517 27.4166 80.517 27.4363 80.517C27.4659 80.517 27.4462 80.5219 27.4314 80.517C27.4363 80.5219 27.4462 80.5219 27.4561 80.5219C27.461 80.5219 27.4955 80.5367 27.4659 80.5219C27.4413 80.5121 27.4659 80.5219 27.4709 80.5269C27.4906 80.5367 27.4462 80.4973 27.4659 80.5219C27.461 80.5121 27.4462 80.4923 27.4561 80.5121C27.4462 80.4874 27.4462 80.4825 27.4462 80.4973C27.4511 80.5071 27.4511 80.5022 27.4462 80.4874C27.4462 80.4578 27.4462 80.4874 27.4462 80.4923C27.4511 80.5121 27.4561 80.4529 27.4462 80.4874C27.4462 80.4973 27.4413 80.5022 27.4413 80.5121C27.4314 80.5515 27.4561 80.4923 27.4413 80.5121C27.4363 80.5219 27.4314 80.5318 27.4265 80.5417C27.4215 80.5515 27.4166 80.5565 27.4117 80.5664C27.4067 80.5713 27.387 80.6009 27.4018 80.5812C27.4166 80.5614 27.3969 80.5861 27.3969 80.5861C27.3919 80.596 27.382 80.6009 27.3722 80.6108C27.3574 80.6256 27.3426 80.6404 27.3278 80.6552C27.2982 80.6848 27.2686 80.7094 27.2389 80.7391C27.2192 80.7539 27.2636 80.7193 27.2439 80.7341C27.234 80.7391 27.2241 80.7489 27.2143 80.7539C27.1995 80.7637 27.1797 80.7785 27.1649 80.7884C27.1304 80.8131 27.0909 80.8328 27.0514 80.8526C26.9873 80.8822 26.9527 80.971 26.9626 81.0351C26.9725 81.1092 27.0218 81.1684 27.0958 81.1881C27.2636 81.2424 27.4314 81.2918 27.5992 81.346C27.6929 81.3756 27.8064 81.3115 27.8262 81.2177C27.8509 81.119 27.7966 81.0203 27.6979 80.9907C27.5301 80.9365 27.3623 80.8871 27.1945 80.8328C27.2093 80.9463 27.2241 81.0598 27.2389 81.1684C27.3426 81.119 27.4363 81.0549 27.5252 80.9759C27.6091 80.9019 27.6979 80.8131 27.7522 80.7144C27.8212 80.5812 27.841 80.4232 27.7423 80.2949C27.6535 80.1814 27.5153 80.1518 27.3821 80.1568C27.2834 80.1568 27.1945 80.2407 27.1995 80.3393C27.1995 80.4282 27.2784 80.517 27.3821 80.517Z" fill="#1D1E1C"/>
<path d="M25.6167 81.3945C26.3421 81.7744 27.1218 82.0459 27.9262 82.1988C28.1581 82.2433 28.2568 81.8879 28.0249 81.8435C27.2501 81.7004 26.5 81.4438 25.8042 81.0786C25.592 80.9651 25.4045 81.2859 25.6167 81.3945Z" fill="#1D1E1C"/>
<path d="M25.6074 82.0273C25.5975 82.0766 25.5877 82.126 25.5679 82.1753C25.5679 82.1803 25.563 82.1852 25.563 82.1901C25.563 82.1901 25.5778 82.1556 25.5679 82.1753C25.563 82.1852 25.5581 82.2 25.5531 82.2099C25.5383 82.2346 25.5284 82.2592 25.5136 82.2839C25.4643 82.3727 25.4051 82.4615 25.3557 82.5504C25.3311 82.5948 25.3064 82.6392 25.2866 82.6885C25.262 82.7478 25.2422 82.807 25.262 82.8711C25.2768 82.9303 25.3212 82.9797 25.3705 83.0044C25.484 83.0636 25.6321 83.0833 25.7604 83.0833C25.9183 83.0833 26.0614 83.0488 26.2045 82.9846C26.244 82.9698 26.2785 82.9155 26.2884 82.8761C26.2983 82.8317 26.2933 82.7724 26.2687 82.733C26.244 82.6935 26.2045 82.6589 26.1601 82.6491C26.1107 82.6392 26.0663 82.6491 26.017 82.6688C26.0614 82.6491 26.0219 82.6688 26.012 82.6688C25.9972 82.6737 25.9874 82.6787 25.9726 82.6836C25.9479 82.6935 25.9232 82.6984 25.8936 82.7034C25.8788 82.7083 25.8689 82.7083 25.8541 82.7083C25.8097 82.7182 25.8936 82.7034 25.8492 82.7083C25.8245 82.7083 25.7949 82.7132 25.7702 82.7132C25.7456 82.7132 25.716 82.7132 25.6913 82.7083C25.6864 82.7083 25.6814 82.7083 25.6765 82.7083C25.6567 82.7083 25.6567 82.7083 25.6864 82.7083C25.6765 82.7083 25.6567 82.7034 25.6469 82.7034C25.6222 82.6984 25.5975 82.6935 25.5778 82.6836C25.563 82.6787 25.5531 82.6737 25.5383 82.6737C25.489 82.6589 25.5581 82.6885 25.5383 82.6688C25.5581 82.6885 25.5827 82.7132 25.6025 82.733C25.6074 82.7675 25.6123 82.7971 25.6173 82.8317C25.6123 82.8366 25.6123 82.8465 25.6074 82.8514C25.6123 82.8465 25.6123 82.8366 25.6173 82.8267C25.6222 82.8119 25.6321 82.7971 25.637 82.7823C25.6518 82.7527 25.6715 82.7182 25.6864 82.6885C25.7209 82.6293 25.7604 82.5701 25.7949 82.5109C25.8689 82.3875 25.938 82.2494 25.9627 82.1063C25.9726 82.0569 25.9726 82.0076 25.943 81.9631C25.9183 81.9237 25.8788 81.8891 25.8344 81.8792C25.7456 81.8743 25.6271 81.9237 25.6074 82.0273Z" fill="#1D1E1C"/>
<path d="M25.8886 82.6977C25.8343 82.826 25.78 82.9593 25.7257 83.0876C25.7109 83.1271 25.7208 83.1912 25.7454 83.2307C25.7701 83.2702 25.8096 83.3047 25.854 83.3146C25.9034 83.3244 25.9527 83.3245 25.9971 83.2948C26.0119 83.285 26.0218 83.2751 26.0366 83.2652C26.0613 83.2405 26.0761 83.2159 26.0859 83.1813C26.1402 83.053 26.1945 82.9198 26.2488 82.7915C26.2636 82.752 26.2537 82.6879 26.2291 82.6484C26.2044 82.6089 26.1649 82.5744 26.1205 82.5645C26.0711 82.5546 26.0218 82.5546 25.9774 82.5842C25.9626 82.5941 25.9527 82.604 25.9379 82.6138C25.9132 82.6435 25.8984 82.6681 25.8886 82.6977Z" fill="#1D1E1C"/>
<path d="M27.0644 82.624C27.0743 82.624 27.0841 82.619 27.094 82.619C27.0693 82.624 27.0644 82.624 27.0891 82.619C27.1039 82.619 27.1187 82.619 27.1335 82.619C27.1434 82.619 27.1532 82.619 27.1631 82.619C27.1828 82.619 27.1828 82.619 27.1582 82.619L27.1976 82.6289C27.2174 82.6338 27.2322 82.6388 27.2519 82.6437C27.2963 82.6585 27.2223 82.624 27.2618 82.6486C27.2667 82.6536 27.3062 82.6684 27.3111 82.6783C27.3062 82.6733 27.3013 82.6684 27.2914 82.6635C27.2717 82.6437 27.2618 82.619 27.2618 82.5894C27.2667 82.5401 27.2618 82.5993 27.2519 82.6092C27.2569 82.6042 27.2569 82.5944 27.2618 82.5894C27.2569 82.5993 27.2569 82.6042 27.2519 82.6141C27.2371 82.6388 27.2272 82.6684 27.2124 82.6931C27.1976 82.7177 27.1828 82.7424 27.1631 82.7671C27.1582 82.772 27.1532 82.7819 27.1483 82.7868C27.1631 82.7671 27.168 82.7621 27.1582 82.772C27.1483 82.7819 27.1384 82.7967 27.1285 82.8066C27.1088 82.8263 27.0891 82.851 27.0693 82.8707C27.0496 82.8855 27.0249 82.9201 27.0052 82.9299C27.0249 82.9151 27.0299 82.9102 27.02 82.9201C27.0151 82.925 27.0101 82.9299 27.0052 82.9299C26.9904 82.9398 26.9756 82.9497 26.9657 82.9595C26.941 82.9743 26.9164 82.9891 26.8917 83.0039C26.8818 83.0089 26.867 83.0138 26.8571 83.0187C26.8473 83.0237 26.8423 83.0237 26.8325 83.0286C26.8127 83.0385 26.8177 83.0336 26.8423 83.0237C26.8226 83.0385 26.7831 83.0434 26.7584 83.0533C26.7338 83.0632 26.7042 83.0681 26.6795 83.073C26.6647 83.078 26.6499 83.078 26.6351 83.0829C26.6153 83.0878 26.6203 83.0878 26.6449 83.0829C26.6351 83.0829 26.6301 83.0829 26.6203 83.0878C26.5265 83.0977 26.4328 83.1668 26.4377 83.2704C26.4426 83.379 26.5166 83.4431 26.6203 83.453C26.7634 83.4678 26.9065 83.4777 27.0496 83.4925C27.1483 83.5024 27.2371 83.3987 27.2322 83.3099C27.2272 83.2013 27.1532 83.1372 27.0496 83.1273C26.9065 83.1125 26.7634 83.1026 26.6203 83.0878C26.6203 83.2112 26.6203 83.3346 26.6203 83.4579C26.8867 83.4283 27.1286 83.3198 27.3259 83.1421C27.4148 83.0582 27.4937 82.9595 27.5529 82.851C27.5875 82.7917 27.622 82.7227 27.6319 82.6536C27.6516 82.5253 27.6023 82.4266 27.4987 82.3575C27.3457 82.2588 27.1582 82.2341 26.9805 82.2687C26.8868 82.2884 26.8226 82.4068 26.8522 82.4957C26.8719 82.5944 26.9608 82.6437 27.0644 82.624Z" fill="#1D1E1C"/>
<path d="M25.612 79.1378C26.3424 78.896 27.1072 78.8072 27.8721 78.8762C27.8524 78.822 27.8277 78.7726 27.808 78.7183C27.0678 79.3944 26.0265 79.7201 25.459 80.5886C25.4245 80.6429 25.4689 80.7366 25.538 80.7268C26.5792 80.5935 27.6205 80.4899 28.6666 80.4159C28.6469 80.3616 28.6222 80.3122 28.6025 80.258C27.6353 81.2597 26.1943 81.4917 24.9902 82.0838C24.9064 82.1282 24.9508 82.2516 25.0347 82.2565C26.1499 82.2812 27.3935 82.0394 28.3853 82.6908C28.484 82.7549 28.5778 82.597 28.4791 82.5329C27.4576 81.8568 26.1845 82.0986 25.0347 82.069C25.0495 82.1282 25.0643 82.1825 25.0791 82.2417C26.3029 81.6397 27.7488 81.4028 28.7308 80.3863C28.7851 80.332 28.7505 80.2234 28.6666 80.2284C27.6205 80.3024 26.5743 80.406 25.538 80.5392C25.5627 80.5837 25.5923 80.633 25.617 80.6774C26.1746 79.8336 27.2109 79.5079 27.9363 78.8466C28.0004 78.7874 27.9462 78.6937 27.8721 78.6887C27.0924 78.6147 26.3029 78.7085 25.5627 78.9552C25.4541 78.9996 25.4985 79.1773 25.612 79.1378Z" fill="#1D1E1C"/>
<path d="M32.6705 73.5067C32.7051 73.5215 32.7396 73.5412 32.7741 73.5609C32.7939 73.5708 32.7544 73.5412 32.7692 73.556C32.7741 73.5609 32.784 73.5708 32.7889 73.5758C32.8037 73.5856 32.7692 73.5412 32.7889 73.5758C32.784 73.5609 32.784 73.5461 32.784 73.5708C32.784 73.556 32.784 73.5412 32.784 73.5609C32.784 73.5511 32.7889 73.5264 32.784 73.5511C32.7791 73.5807 32.784 73.5461 32.7889 73.5461C32.7889 73.5461 32.7643 73.5856 32.7791 73.5609C32.7889 73.5412 32.7741 73.5659 32.7692 73.5708C32.7643 73.5757 32.7544 73.5856 32.7495 73.5906C32.7445 73.5955 32.7199 73.6152 32.7396 73.6004C32.7593 73.5856 32.7199 73.6103 32.7199 73.6103C32.7051 73.6202 32.6853 73.63 32.6656 73.6399C32.6557 73.6448 32.6458 73.6498 32.631 73.6547C32.6212 73.6596 32.6064 73.6646 32.6261 73.6596C32.5768 73.6794 32.5274 73.6942 32.4781 73.709C32.4287 73.7238 32.3794 73.7337 32.3251 73.7435C32.3448 73.7386 32.335 73.7435 32.3201 73.7435C32.3053 73.7435 32.2905 73.7485 32.2757 73.7485C32.2461 73.7485 32.2214 73.7534 32.1918 73.7534C32.0389 73.7583 31.9402 73.9557 32.0635 74.0692C32.2165 74.2074 32.3695 74.3456 32.5175 74.4788C32.5916 74.543 32.71 74.5528 32.7791 74.4788C32.8432 74.4097 32.858 74.2863 32.7791 74.2173C32.6261 74.0791 32.4731 73.9409 32.3251 73.8077C32.2807 73.9113 32.2363 74.0199 32.1968 74.1235C32.3399 74.1186 32.4879 74.0988 32.6212 74.0544C32.7593 74.01 32.8926 73.9508 33.0011 73.857C33.1146 73.7583 33.1788 73.6054 33.1344 73.4573C33.0949 73.3241 32.9765 73.2353 32.858 73.1859C32.7692 73.1464 32.6557 73.1563 32.6064 73.2501C32.5619 73.3339 32.5718 73.4672 32.6705 73.5067Z" fill="#1D1E1C"/>
<path d="M30.6332 73.8885C31.1711 74.535 31.7929 75.0975 32.4788 75.5811C32.5627 75.6404 32.6861 75.596 32.7305 75.517C32.7848 75.4232 32.7453 75.3196 32.6664 75.2653C32.0051 74.8015 31.4129 74.2488 30.8997 73.6319C30.8356 73.553 30.7023 73.5678 30.6382 73.6319C30.5592 73.701 30.5691 73.8096 30.6332 73.8885Z" fill="#1D1E1C"/>
<path d="M30.0705 74.3249C30.0655 74.3348 30.0557 74.3397 30.0507 74.3496C30.0606 74.32 30.0705 74.3249 30.0606 74.3348C30.0557 74.3397 30.0557 74.3447 30.0507 74.3447C30.0359 74.3644 30.0211 74.3792 30.0014 74.394C29.9866 74.4088 29.9669 74.4236 29.9521 74.4384C29.9471 74.4434 29.9422 74.4434 29.9422 74.4483C29.9274 74.4631 29.9619 74.4335 29.957 74.4335C29.9471 74.4384 29.9372 74.4483 29.9274 74.4582C29.8336 74.5273 29.7399 74.5865 29.6461 74.6556C29.5819 74.7049 29.5178 74.7543 29.4536 74.8085C29.3648 74.8826 29.276 74.9763 29.3204 75.1046C29.35 75.1934 29.429 75.2576 29.503 75.3119C29.5622 75.3563 29.6214 75.3958 29.6856 75.4303C29.8484 75.5093 30.0261 75.5537 30.2087 75.5586C30.3073 75.5586 30.3962 75.4698 30.3912 75.376C30.3863 75.2724 30.3123 75.1935 30.2087 75.1935C30.179 75.1935 30.1445 75.1885 30.1149 75.1885C30.1593 75.1935 30.11 75.1885 30.1001 75.1885C30.0853 75.1836 30.0705 75.1836 30.0557 75.1787C30.0261 75.1737 29.9965 75.1638 29.9669 75.154C29.9521 75.149 29.9373 75.1441 29.9224 75.1392C29.9175 75.1392 29.8731 75.1145 29.9076 75.1342C29.8534 75.1046 29.7991 75.08 29.7448 75.0405C29.7399 75.0355 29.7004 75.0059 29.73 75.0306C29.7201 75.0207 29.7102 75.0158 29.7004 75.0059C29.6905 74.9961 29.6757 74.9862 29.6658 74.9763C29.6609 74.9714 29.656 74.9665 29.651 74.9615C29.6313 74.9369 29.6362 74.9516 29.6757 75.001C29.6757 75.0355 29.6757 75.0652 29.6757 75.0997C29.6757 75.1145 29.6214 75.1638 29.6658 75.1244C29.6757 75.1145 29.6905 75.1046 29.7004 75.0948C29.7201 75.075 29.7399 75.0602 29.7596 75.0454C29.7793 75.0306 29.7991 75.0158 29.8188 75.001C29.8484 74.9813 29.8089 75.0109 29.8237 74.9961C29.8336 74.9911 29.8386 74.9862 29.8484 74.9763C29.9175 74.927 29.9866 74.8826 30.0507 74.8332C30.184 74.7444 30.3024 74.6506 30.3912 74.5174C30.4455 74.4384 30.411 74.3101 30.3271 74.2657C30.2333 74.2114 30.1297 74.241 30.0705 74.3249Z" fill="#1D1E1C"/>
<path d="M30.2583 75.1402C30.1398 75.2537 30.0165 75.3623 29.898 75.4758C29.8635 75.5054 29.8438 75.5597 29.8438 75.6041C29.8438 75.6485 29.8635 75.7028 29.898 75.7324C29.9326 75.7669 29.977 75.7867 30.0263 75.7867C30.0757 75.7867 30.1201 75.7669 30.1546 75.7324C30.2731 75.6189 30.3964 75.5103 30.5149 75.3968C30.5494 75.3672 30.5692 75.3129 30.5692 75.2685C30.5692 75.2241 30.5494 75.1698 30.5149 75.1402C30.4803 75.1057 30.4359 75.0859 30.3866 75.0859C30.3372 75.0859 30.2928 75.1057 30.2583 75.1402Z" fill="#1D1E1C"/>
<path d="M32.2033 73.3783C32.8399 73.5954 33.4765 73.8225 34.1032 74.0544C34.1032 73.9952 34.1032 73.9359 34.1032 73.8767C32.5883 74.464 30.9647 74.0198 29.3955 74.0643C29.3116 74.0643 29.2622 74.1926 29.3511 74.237C30.5206 74.8045 31.9615 75.145 32.6919 76.3244C32.7363 76.2799 32.7758 76.2405 32.8202 76.1961C32.3514 75.9888 31.8826 75.7815 31.4138 75.5743C30.6588 75.2437 29.8988 74.913 29.129 74.6219C29.0007 74.5725 28.8675 74.5232 28.7342 74.4837C28.6947 74.4738 28.6553 74.464 28.6158 74.4541C28.596 74.4492 28.5763 74.4492 28.5566 74.4492C28.522 74.4492 28.5516 74.4492 28.5763 74.459C28.5911 74.4837 28.6059 74.5133 28.6207 74.538C28.6059 74.5627 28.5911 74.5923 28.5763 74.6169C28.5566 74.6268 28.522 74.6268 28.5566 74.6268C28.5763 74.6268 28.601 74.6268 28.6207 74.6219C28.6947 74.6169 28.7638 74.6169 28.8378 74.6169C29.0846 74.6169 29.3264 74.6219 29.5731 74.6268C30.2887 74.6515 31.0042 74.7107 31.7099 74.8341C32.1293 74.9081 32.5438 75.0019 32.9436 75.1351C33.0571 75.1746 33.1064 74.9969 32.9929 74.9574C32.2379 74.7008 31.4385 74.5824 30.6489 74.5084C30.037 74.4492 29.4251 74.4245 28.8082 74.4294C28.7145 74.4294 28.448 74.39 28.4381 74.5331C28.4332 74.5627 28.4579 74.5972 28.4825 74.612C28.5122 74.6268 28.5368 74.6219 28.5664 74.6268C28.5911 74.6268 28.5516 74.6219 28.5812 74.6268C28.601 74.6317 28.6158 74.6367 28.6355 74.6416C28.7392 74.6663 28.8428 74.7058 28.9464 74.7403C29.2869 74.8637 29.6225 75.0019 29.9531 75.14C30.7131 75.4558 31.4631 75.7815 32.2132 76.1171C32.3859 76.1911 32.5537 76.2701 32.7264 76.3441C32.8054 76.3786 32.9041 76.3046 32.8547 76.2158C32.0997 75.0068 30.6538 74.6515 29.4498 74.0643C29.435 74.1235 29.4202 74.1778 29.4053 74.237C30.9894 74.1926 32.6327 74.6367 34.1624 74.0445C34.2463 74.01 34.2513 73.9014 34.1624 73.8669C33.5308 73.63 32.8991 73.403 32.2626 73.1908C32.1392 73.1612 32.0898 73.3388 32.2033 73.3783Z" fill="#1D1E1C"/>
<path d="M39.9486 84.6717C39.7413 85.106 39.5341 85.5452 39.3318 85.9844C39.1393 86.4087 38.9074 86.843 38.8136 87.3019C38.7692 87.5092 39.0307 87.6177 39.1492 87.445C39.4354 87.0354 39.6821 86.6012 39.8746 86.1472C40.0818 85.6685 40.2299 85.1701 40.3878 84.6766C40.4421 84.5039 40.2003 84.3559 40.0769 84.499C40.0029 84.5878 39.9289 84.6767 39.8548 84.7605C39.7019 84.9382 39.9634 85.2047 40.1164 85.0221C40.1904 84.9333 40.2644 84.8444 40.3385 84.7605C40.2348 84.7013 40.1312 84.6421 40.0276 84.5829C39.8746 85.0616 39.7315 85.5501 39.5292 86.009C39.3367 86.4482 39.0998 86.8726 38.8235 87.2624C38.937 87.3118 39.0505 87.3562 39.1591 87.4056C39.2528 86.9565 39.4749 86.542 39.6624 86.1275C39.8548 85.7031 40.0572 85.2836 40.2546 84.8642C40.3681 84.6421 40.0522 84.4546 39.9486 84.6717Z" fill="#E9574A"/>
<path d="M38.5944 88.0286C38.4611 88.0977 38.3378 88.1914 38.2243 88.295C38.1305 88.3839 38.1651 88.5813 38.3082 88.6059C38.4217 88.6257 38.5302 88.6208 38.6437 88.601C38.7326 88.5862 38.8164 88.5566 38.9053 88.527C38.8362 88.4382 38.7671 88.3444 38.698 88.2556C38.6684 88.3049 38.6339 88.3493 38.6042 88.3987C38.5697 88.453 38.5746 88.5319 38.6042 88.5862C38.6388 88.6454 38.698 88.6701 38.7622 88.68C38.8066 88.6849 38.8559 88.6898 38.9003 88.6948C38.8559 88.5911 38.8115 88.4826 38.772 88.3789C38.7029 88.448 38.6388 88.522 38.5648 88.5911C38.5598 88.5961 38.5598 88.5961 38.5549 88.601C38.545 88.6109 38.55 88.6059 38.5697 88.5911C38.5697 88.5911 38.5253 88.6109 38.5598 88.601C38.5894 88.5911 38.5549 88.601 38.55 88.601C38.5598 88.601 38.5697 88.5961 38.5796 88.5961C38.5697 88.5961 38.5549 88.601 38.545 88.601C38.4661 88.6109 38.397 88.6454 38.3575 88.7194C38.3082 88.8033 38.3378 88.9218 38.4217 88.9711C38.5796 89.0599 38.7474 89.1191 38.925 89.1438C38.9743 89.1488 39.0188 89.1537 39.0681 89.1241C39.1076 89.0994 39.1421 89.0599 39.152 89.0155C39.1717 88.9267 39.1273 88.8033 39.0237 88.7885C38.9447 88.7787 38.8658 88.7589 38.7918 88.7342C38.777 88.7293 38.7572 88.7244 38.7424 88.7145C38.7375 88.7145 38.7128 88.6997 38.7128 88.6997C38.7177 88.6997 38.7474 88.7145 38.7177 88.7046C38.6783 88.6898 38.6437 88.6701 38.6092 88.6503C38.6289 88.7342 38.6536 88.8181 38.6733 88.902C38.6585 88.9267 38.6388 88.9464 38.6141 88.9563C38.5993 88.9612 38.5944 88.9662 38.6042 88.9612C38.624 88.9514 38.5598 88.9662 38.5894 88.9612C38.6191 88.9563 38.6487 88.9563 38.6783 88.9464C38.7375 88.9267 38.7868 88.8922 38.8312 88.8477C38.9003 88.7836 38.9645 88.7145 39.0286 88.6454C39.0829 88.5911 39.0977 88.5122 39.0681 88.4431C39.0385 88.3691 38.9743 88.3395 38.9003 88.3296C38.8559 88.3247 38.8066 88.3197 38.7622 88.3148C38.8164 88.4085 38.8707 88.5023 38.9201 88.5911C38.9497 88.5418 38.9842 88.4974 39.0138 88.448C39.0533 88.3839 39.0434 88.3 38.999 88.2408C38.9546 88.1865 38.8757 88.1519 38.8066 88.1766C38.7326 88.2013 38.6536 88.2309 38.5746 88.2457C38.5549 88.2506 38.5352 88.2506 38.5154 88.2556C38.4907 88.2605 38.55 88.2556 38.5204 88.2556C38.5105 88.2556 38.5006 88.2556 38.4907 88.2556C38.471 88.2556 38.4513 88.2556 38.4315 88.2556C38.4217 88.2556 38.4118 88.2556 38.4019 88.2556C38.3772 88.2556 38.4463 88.2654 38.4019 88.2556C38.4315 88.3592 38.4562 88.4628 38.4858 88.5665C38.5105 88.5467 38.5302 88.5221 38.5549 88.5023C38.5598 88.4974 38.6092 88.4579 38.5697 88.4875C38.5796 88.4776 38.5944 88.4678 38.6092 88.4579C38.6635 88.4184 38.7177 88.3839 38.777 88.3543C38.8608 88.3099 38.8954 88.1816 38.8411 88.1026C38.7918 88.0039 38.6881 87.9792 38.5944 88.0286Z" fill="#E9574A"/>
<path d="M39.2931 87.6107C39.7915 86.7569 40.2899 85.9032 40.7883 85.0495C40.8328 84.9706 40.813 84.8373 40.7242 84.7978C40.66 84.7682 40.5959 84.7386 40.5317 84.7139C40.3146 84.6153 40.1271 84.936 40.3442 85.0347C40.4084 85.0643 40.4725 85.0939 40.5367 85.1186C40.5169 85.0347 40.4923 84.9508 40.4725 84.8669C39.9741 85.7206 39.4757 86.5743 38.9773 87.4281C38.8539 87.6304 39.1697 87.813 39.2931 87.6107Z" fill="#E9574A"/>
<path d="M38.2584 88.8091C38.4212 88.8486 38.6087 88.8732 38.7716 88.8338C38.8752 88.8091 38.9542 88.7301 38.9838 88.6265C38.9936 88.592 38.9986 88.5525 39.0035 88.513C39.0035 88.4982 39.0035 88.4834 39.0035 88.4735C39.0035 88.4637 39.0035 88.4587 39.0035 88.4489C38.9986 88.4341 39.0084 88.4193 38.9986 88.4637C38.9838 88.4883 38.969 88.518 38.9492 88.5476C38.9344 88.5624 38.9196 88.5722 38.8999 88.5772C38.9147 88.5722 38.9097 88.5722 38.89 88.5772C38.8703 88.5772 38.8703 88.5821 38.8851 88.5821C38.8505 88.5772 38.8407 88.5772 38.8604 88.5821C38.89 88.592 38.8209 88.5624 38.8456 88.5772C38.8209 88.5574 38.816 88.5525 38.8308 88.5624C38.8258 88.5525 38.8209 88.5476 38.811 88.5377C38.8209 88.5525 38.816 88.5476 38.8061 88.518C38.811 88.5377 38.811 88.5328 38.8061 88.5032C38.8012 88.5081 38.8061 88.5278 38.8061 88.5377C38.8061 88.5772 38.816 88.4933 38.8061 88.5328C38.8061 88.5476 38.8012 88.5624 38.7962 88.5722C38.7913 88.587 38.7962 88.5821 38.8061 88.5574C38.7962 88.5772 38.8012 88.5722 38.816 88.5476L38.811 88.5525C38.7962 88.5673 38.8012 88.5624 38.8258 88.5426C38.8209 88.5476 38.816 88.5476 38.811 88.5476C38.7962 88.5525 38.8061 88.5525 38.8308 88.5377C38.8209 88.5377 38.811 88.5476 38.7962 88.5476C38.7469 88.5624 38.6926 88.5624 38.6433 88.5821C38.5544 88.6167 38.4804 88.7104 38.515 88.8091C38.5446 88.8979 38.6433 88.9719 38.742 88.9374C38.7962 88.9177 38.8505 88.9177 38.8999 88.9029C38.964 88.8831 39.0331 88.8535 39.0775 88.7992C39.1417 88.7252 39.1565 88.6413 39.1663 88.5525C39.1762 88.4735 39.1565 88.3896 39.1022 88.3255C39.0479 88.2564 38.969 88.2219 38.8851 88.212C38.7814 88.2021 38.6679 88.2613 38.6334 88.3699C38.6235 88.4044 38.6235 88.4341 38.6285 88.4686C38.6285 88.4785 38.6285 88.4883 38.6285 88.4982C38.6285 88.5031 38.6285 88.5081 38.6285 88.513C38.6285 88.5328 38.6186 88.5426 38.6334 88.4933C38.6334 88.5031 38.6285 88.513 38.6285 88.518C38.6285 88.5229 38.6186 88.5426 38.6334 88.513C38.6482 88.4834 38.6383 88.5031 38.6334 88.5081C38.6235 88.5229 38.6531 88.4834 38.6482 88.4883C38.6433 88.4933 38.6334 88.5031 38.6531 88.4834C38.6827 88.4587 38.6383 88.4834 38.6679 88.4735C38.6975 88.4637 38.6679 88.4735 38.663 88.4735C38.6581 88.4735 38.6531 88.4735 38.6482 88.4785C38.6926 88.4637 38.6729 88.4735 38.6581 88.4785C38.6433 88.4785 38.6235 88.4834 38.6087 88.4834C38.5791 88.4834 38.5446 88.4834 38.515 88.4834C38.5002 88.4834 38.4804 88.4834 38.4656 88.4785C38.4607 88.4785 38.4508 88.4785 38.4459 88.4785C38.4212 88.4735 38.4952 88.4883 38.4508 88.4785C38.4163 88.4735 38.3817 88.4637 38.3521 88.4587C38.2583 88.4341 38.1498 88.4883 38.1251 88.587C38.1054 88.6759 38.1597 88.7844 38.2584 88.8091Z" fill="#E9574A"/>
</svg>
