<svg width="51" height="71" viewBox="0 0 51 71" fill="none" xmlns="http://www.w3.org/2000/svg">
<path d="M50.4014 36.6872C50.0918 38.7285 49.7435 40.9344 49.4339 43.1499C49.047 45.9362 47.4797 48.1517 45.7382 50.1543C43.6582 52.5537 41.2395 54.5853 38.2984 56.0559C34.0125 58.2037 29.4557 59.055 24.8119 59.2872C18.475 59.5968 12.8249 57.6329 7.78444 53.5985C4.16611 50.7058 2.27954 46.8262 0.422006 42.8403C0.102741 42.163 -0.0520534 41.3117 0.0156694 40.5667C0.257536 37.8191 0.160789 34.907 1.07021 32.3819C2.25052 29.1119 3.18896 25.7258 5.1626 22.6879C7.28135 19.4469 9.73872 16.6606 12.883 14.5128C15.6113 12.6456 18.6394 11.3782 22.0062 11.1557C22.519 11.1267 23.0414 11.1073 23.5542 11.0203C31.4971 9.6658 37.863 12.8681 43.5324 17.9763C46.8895 20.9948 48.3407 25.0969 49.3952 29.2957C49.9951 31.6176 50.0725 34.075 50.4014 36.6872ZM48.6019 36.4937C48.7857 30.3212 47.0927 24.6422 42.9035 19.8823C39.1111 15.5674 34.2157 12.8681 28.556 12.4037C23.2059 11.9684 18.1654 13.5647 13.8311 17.0282C8.75191 21.0819 5.34642 26.374 3.06319 32.2755C2.04735 34.907 1.64102 38.1481 2.13442 40.9053C3.42116 48.0259 7.93923 52.9987 14.5567 55.6979C21.9578 58.7068 29.4267 58.194 36.6537 54.8369C44.3741 51.2476 48.8922 45.5008 48.6019 36.4937Z" fill="#EB584A"/>
<path d="M22.3039 52.5538C20.2529 52.1475 18.2406 51.1317 17.0796 49.3999C16.5281 48.5776 16.1895 47.552 16.4217 46.5846C16.6055 45.8106 17.157 45.1334 17.2247 44.34C17.3215 43.2662 16.5378 42.3374 15.9573 41.428C15.2317 40.296 14.7577 39.0093 14.5738 37.6839C14.5061 37.2001 14.4868 36.6583 14.7673 36.252C15.0866 35.7876 15.7155 35.6232 16.0831 35.1975C16.799 34.3558 16.1798 33.0981 15.7929 32.0629C15.3285 30.8148 15.2414 29.4314 15.551 28.1446C15.6187 27.8737 15.7058 27.5932 15.9186 27.419C16.0637 27.3029 16.2572 27.2449 16.4217 27.1578C17.1473 26.7612 17.2828 25.7937 17.2924 24.9617C17.3118 23.1718 17.128 21.382 16.77 19.6309C16.6829 19.1956 16.5765 18.7505 16.6539 18.3152C16.7893 17.5315 17.4666 16.98 17.931 16.3222C19.3725 14.2905 18.8017 11.2043 20.5431 9.4338C20.6689 9.30803 20.8237 9.18226 20.9978 9.19193C21.1333 9.20161 21.2494 9.279 21.3461 9.3564C22.8941 10.5754 23.4455 12.6168 24.2292 14.4163C24.3163 14.6194 24.413 14.8226 24.5871 14.958C24.7903 15.1225 25.0709 15.1709 25.3321 15.2386C26.435 15.5482 27.2574 16.5253 27.625 17.6186C27.9926 18.7021 27.9539 19.8825 27.8088 21.0144C27.7411 21.5658 27.6443 22.1463 27.8475 22.6688C28.0507 23.1912 28.6699 23.5879 29.1729 23.3363C29.647 25.8034 30.1307 28.3188 31.2917 30.5536C31.9496 31.821 32.8396 33.0594 32.9074 34.4912C32.9364 35.0524 32.83 35.6135 32.8977 36.1649C32.9654 36.7164 33.2653 37.2969 33.8071 37.4517C34.2328 37.5774 34.7069 37.4033 35.1229 37.5387C35.5002 37.6548 35.7614 38.0031 35.9259 38.3611C36.487 39.5801 36.1774 41.0023 35.8581 42.3084C35.3067 44.5722 34.7456 46.8748 33.5943 48.9065C32.6558 50.5705 30.808 52.9215 28.6989 52.9699C26.6865 53.0376 24.2872 52.9505 22.3039 52.5538Z" fill="white"/>
<path d="M26.8685 52.6704C26.3461 50.0873 20.7444 43.8374 18.6741 48.1814C16.149 53.4541 27.004 53.3573 26.8685 52.6704Z" fill="#BCBCBB"/>
<path d="M33.2619 49.2947C34.3165 47.9112 34.6841 46.1504 35.0227 44.4574C35.2452 43.3738 35.4581 42.2128 35.0904 41.168C32.7492 43.1126 31.3173 45.8795 30.2047 48.6562C29.8855 49.4495 28.6471 51.5005 30.0209 51.7327C31.1335 51.9262 32.6911 50.0397 33.2619 49.2947Z" fill="#BCBCBB"/>
<path d="M21.9547 43.5106C21.113 43.3655 20.252 43.2978 19.4683 42.9495C18.6944 42.6012 17.9978 41.9046 17.9688 41.0532C17.9688 40.9855 17.9687 40.9275 17.9978 40.8694C18.0365 40.8114 18.1042 40.7823 18.1816 40.763C18.4718 40.6856 18.7911 40.7533 19.0813 40.821C20.31 41.1113 23.1544 41.2371 24.0735 42.0788C24.4411 42.4174 24.7604 43.5396 24.2766 43.8976C23.851 44.2265 22.4675 43.5977 21.9547 43.5106Z" fill="#BCBCBB"/>
<path d="M27.8179 44.0598C29.211 43.5664 30.5268 42.7247 31.3201 41.4767C32.1134 40.2287 32.2973 38.5356 31.5233 37.2779C31.4846 37.2102 31.4362 37.1424 31.3685 37.1037C31.2911 37.065 31.204 37.065 31.1169 37.0747C30.1205 37.1715 29.3561 37.9648 28.6886 38.7001C27.8662 39.6095 27.0342 40.5286 26.2119 41.438C25.97 41.7089 25.6991 42.0475 25.7862 42.4055C25.8249 42.5893 25.9603 42.7441 26.0764 42.8892C26.3086 43.1504 26.5311 43.4116 26.7633 43.6825C26.9472 43.8954 27.1503 44.1179 27.4309 44.1856C27.6728 44.2436 27.934 44.1663 28.1758 44.0889C28.8531 43.8567 29.5109 43.5761 30.1495 43.2472" fill="#BCBCBB"/>
<path d="M20.6094 35.5945C19.5355 35.014 18.5487 34.2594 17.707 33.3693C17.5716 33.2242 17.4264 33.0113 17.5329 32.8469C17.5812 32.7695 17.6683 32.7308 17.7457 32.6921C18.3359 32.4308 18.9454 32.1599 19.5839 32.1793C21.1028 32.2277 22.3992 33.8917 23.8601 33.466C24.489 33.2822 24.9437 32.7404 25.4371 32.3051C26.0563 31.7536 26.7915 31.3473 27.5752 31.0957C27.6816 31.0667 27.788 31.0377 27.8944 31.0667C28.0009 31.0957 28.0686 31.1925 28.1266 31.2796C28.4362 31.7923 28.3298 32.4599 28.0299 32.9726C27.73 33.4854 27.2559 33.8724 26.7915 34.24C24.9243 35.7686 22.912 36.8425 20.6094 35.5945Z" fill="#BCBCBB"/>
<path d="M23.5332 27.6518C22.5948 28.2614 21.5305 28.8999 20.4373 28.6967C19.4505 28.5129 18.6959 27.6712 18.3379 26.7328C18.096 26.1039 17.9993 25.388 18.1928 24.7398C18.2315 24.6043 18.2992 24.4495 18.4346 24.4012C18.5798 24.3528 18.7346 24.4399 18.87 24.5269C20.2922 25.4073 22.2465 25.3396 23.6106 24.3625C23.7654 24.256 23.9202 24.1303 24.1137 24.1012C24.4426 24.0625 24.7329 24.3431 24.8683 24.6527C25.1489 25.3009 24.9844 26.0652 24.6071 26.665C24.2395 27.2649 23.6783 27.7196 23.1365 28.1646C22.9334 28.3291 22.7302 28.5032 22.4787 28.5806C22.2271 28.6677 21.9272 28.6387 21.7434 28.4548" fill="#BCBCBB"/>
<path d="M19.586 17.7741C19.8279 17.0872 20.6793 16.8841 21.3952 16.7873C21.5597 16.768 21.7241 16.7389 21.8789 16.797C22.0047 16.8454 22.1015 16.9324 22.1982 17.0292C22.7013 17.5323 23.0786 18.2192 22.9819 18.9157C22.4884 22.5728 18.8508 19.8348 19.586 17.7741Z" fill="#BCBCBB"/>
<path d="M11.4095 32.0242C11.7288 32.4305 12.0771 32.8272 12.3576 33.2626C13.7121 35.2942 14.0797 35.449 16.6532 35.062C15.8115 32.9917 14.9311 30.931 14.1475 28.8412C13.3928 26.8095 11.8352 25.1165 11.5353 22.4753C11.9997 22.9397 12.2609 23.1332 12.4157 23.375C12.8317 24.0232 13.18 24.7198 13.6057 25.368C14.6989 27.0127 14.786 27.0321 16.9047 26.5C15.2794 20.5597 15.0375 14.4937 15.0859 8.24383C16.3049 8.447 16.2662 9.18227 16.3049 9.86918C16.3823 11.4171 16.4113 12.9651 16.5371 14.5033C16.6338 15.645 17.0015 16.7092 18.0657 17.5896C18.1431 17.2026 18.2689 16.9317 18.2398 16.6802C17.9303 14.5227 18.5494 12.5491 19.3911 10.6238C19.7491 9.79178 19.8749 9.1339 19.6233 8.14708C19.1783 6.35727 19.2267 4.44168 19.2363 2.58414C19.3621 2.55512 19.4879 2.52609 19.6136 2.49707C19.7491 2.75829 19.9619 3.0195 20.0103 3.30007C20.1458 4.06437 20.1941 4.83834 20.3006 5.60264C20.4457 6.75393 20.5327 7.75042 21.7324 8.62114C22.7386 9.34674 23.1546 10.9044 23.7834 12.1137C24.0737 12.6748 24.2381 13.294 24.5671 14.1744C25.4572 13.1102 25.4765 12.075 25.8151 11.1656C26.1441 10.2852 25.8538 9.1339 27.2179 8.27285C27.1309 9.07585 27.0922 9.55959 27.0148 10.0336C26.7923 11.5139 26.6665 12.9264 27.4114 14.3776C27.8178 15.1709 27.7694 16.2254 27.7888 17.1639C27.8178 18.8666 27.7307 20.5694 27.692 22.3979C28.853 22.2915 29.1142 21.5465 29.3947 20.8499C29.8011 19.8534 30.1494 18.8376 30.5654 17.8508C30.7105 17.5122 30.9814 17.2316 31.5135 17.0671C31.1265 18.8183 30.5267 20.55 30.4203 22.3205C30.3138 24.1297 30.6912 25.9678 30.8846 28.0092C31.4748 26.8095 31.9876 25.7647 32.5003 24.7198C32.6358 24.7682 32.7712 24.8069 32.9067 24.8553C32.8486 25.2809 32.8583 25.7357 32.7035 26.1323C31.9779 27.9608 31.8424 29.741 32.4326 31.6856C32.9647 33.4077 33.1195 35.2555 33.4194 36.9486C34.0483 36.7164 34.8513 36.5229 35.5188 36.1166C35.9832 35.836 36.3218 35.2846 36.6314 34.8008C37.2603 33.814 37.8311 32.7982 38.4309 31.792C38.5663 31.85 38.7018 31.9081 38.8469 31.9661C38.6921 32.4112 38.5373 32.8562 38.3632 33.2916C38.16 33.785 37.9278 34.2687 37.715 34.7621C37.2022 35.9521 36.4669 37.1034 37.1442 38.4675C36.7572 41.041 36.97 43.7112 35.7704 46.1395C35.5575 46.5652 35.3737 47.0103 35.2189 47.4553C34.3192 50.0288 32.6648 52.0024 30.2364 53.502C31.0104 55.2241 31.349 57.0526 32.5487 58.5328C33.6903 59.926 34.8029 61.3481 35.9348 62.7607C35.3447 63.3798 34.8996 62.8961 34.5417 62.5768C32.7228 60.9999 31.3007 59.1036 30.3622 56.8688C29.9075 55.7852 29.4141 54.7113 29.0174 53.8116C28.6304 53.6955 28.5047 53.5987 28.4176 53.6278C26.028 54.4404 23.6867 53.8212 21.4035 53.2117C20.3102 52.9118 19.3234 52.1379 18.3463 51.48C17.6594 51.0156 17.0112 50.4545 16.4791 49.8159C14.9408 47.9584 13.0736 46.5072 11.0709 45.2011C10.5678 44.8722 9.88092 44.5529 10.2873 43.4306C11.1773 44.0401 11.9997 44.5336 12.7543 45.1334C13.5379 45.7622 14.2345 45.8396 15.202 45.4043C16.2952 44.9012 17.5336 44.7174 18.8687 44.3497C18.4914 44.0208 18.0851 43.6532 17.6594 43.3049C16.45 42.3084 15.3761 41.2248 14.9021 39.6672C14.2636 37.5871 12.8414 35.9424 11.7288 34.1333C11.3805 33.5721 11.1677 32.9239 10.8871 32.3048C11.0806 32.2177 11.2451 32.1209 11.4095 32.0242ZM22.903 26.8192L22.9127 26.7708C22.5644 27.5448 22.6902 28.2511 23.1546 28.967C26.1344 25.7453 27.0148 21.9045 26.8406 17.7347C26.8019 16.7188 27.0922 15.5966 26.1054 14.7936C24.4123 16.1093 22.6612 20.3082 22.9224 22.3398C23.4158 21.8464 23.8899 21.3627 24.3736 20.8886C24.1607 21.7884 23.7738 22.5914 23.1643 23.1622C22.6128 23.6846 22.4387 24.2264 22.5354 24.894C22.6321 25.5422 22.7869 26.1807 22.903 26.8192ZM19.4492 50.7931C19.7007 50.0771 19.8168 49.545 20.0587 49.0807C20.2619 48.684 20.3006 48.0551 21.0358 47.9487C19.9136 51.0543 19.9136 51.0543 21.2874 51.6928C21.7034 51.0543 22.1387 50.3964 22.5644 49.7482C22.6225 49.7772 22.6805 49.8159 22.7482 49.845C22.5354 50.5609 22.3226 51.2768 22.0226 52.283C24.2091 52.341 26.1731 53.6471 28.3305 52.312C27.6243 50.1062 26.9761 48.0745 26.3666 46.1492C25.4475 46.0041 24.7509 45.7913 24.064 45.8106C21.6357 45.8493 19.1976 45.8977 16.7693 46.0912C15.7244 46.1782 15.4922 46.8748 16.0921 47.7359C16.8951 48.9162 17.8335 49.9707 19.4492 50.7931ZM35.5962 37.6742C34.6094 37.3066 34.0192 37.9935 33.5355 38.6223C32.2294 40.3057 30.9814 42.0472 29.7334 43.7789C29.3657 44.2917 29.1916 44.8625 28.3015 44.8528C27.5469 44.8335 27.276 45.4913 27.5469 46.2847C28.0016 47.6295 28.3789 49.0033 28.8239 50.3577C28.9497 50.7253 29.2013 51.0446 29.3851 51.3639C33.7 50.0191 36.3121 43.2855 35.5962 37.6742ZM23.5125 37.5291C22.7192 37.4807 22.1291 37.5001 21.5679 37.384C20.9294 37.2485 20.3102 37.026 19.7007 36.7938C18.1431 36.1746 16.6145 36.4068 14.757 36.7067C15.4148 38.0031 15.9276 39.0287 16.5371 40.2186C16.6338 39.7543 16.6919 39.5221 16.8177 38.9126C17.1853 41.2635 18.2011 42.7437 20.1361 43.3629C21.8679 43.9144 23.5803 45.0463 25.6603 44.0208C24.925 41.7956 24.2188 39.6672 23.5125 37.5291ZM30.9814 31.0567C29.3464 31.8887 29.2206 33.6689 28.1757 34.7621C27.1405 35.8457 26.1247 36.9583 24.9637 38.1966C25.0702 38.632 25.2346 39.3092 25.4475 40.1412C26.057 39.5801 26.531 39.1448 27.0051 38.7094C25.8732 41.3312 25.8732 41.3312 26.5794 42.1052C26.9471 41.7085 27.3147 41.3022 27.8468 40.7314C27.634 42.0181 26.3279 42.6373 26.8987 44.0208C27.4405 43.7596 28.05 43.6532 28.3402 43.2855C29.5882 41.7182 31.0685 40.2283 31.8521 38.4385C32.9163 36.0102 32.2681 33.4851 30.9814 31.0567ZM24.6638 36.2907C26.2118 34.3461 27.6146 32.6047 28.9981 30.8536C29.1045 30.7181 29.1819 30.544 29.2496 30.3795C30.0817 28.0479 29.7624 25.784 29.1335 23.4621C28.0306 23.7523 27.5275 24.3328 27.1212 25.1261C26.4343 26.5 25.6119 27.806 24.9057 29.1702C24.5864 29.7797 24.422 30.4666 24.2188 31.0277C24.1414 30.96 23.9382 30.7665 23.7351 30.573C23.648 30.6407 23.5706 30.7084 23.4835 30.7762C23.9576 31.6082 24.422 32.4402 24.8767 33.2432C24.4413 33.3787 24.2478 33.4464 24.0156 33.5238C24.2381 34.4816 24.4413 35.3329 24.6638 36.2907ZM23.4255 36.2424C22.9901 34.4042 22.8353 32.8949 22.2548 31.5695C21.8872 30.7375 20.9294 30.128 20.1748 29.5185C19.7297 29.1605 19.0815 29.0444 18.6172 28.6864C17.6207 27.9125 16.6048 27.8447 15.3084 28.3091C15.6857 30.5923 16.6048 32.4983 18.2011 34.2881C18.6849 33.3883 19.0428 32.7304 19.3911 32.0822C19.4589 32.8562 19.2073 33.4657 19.1106 34.0946C19.0622 34.4332 19.1976 34.9943 19.4298 35.1298C19.6814 35.2749 20.1651 35.062 20.5134 34.9266C20.7166 34.8492 20.8327 34.588 21.0068 34.4332C21.0552 34.3945 21.1809 34.4622 21.2777 34.4816C21.1809 34.8782 21.0939 35.2749 20.9584 35.865C21.7034 35.9715 22.3516 36.0682 23.4255 36.2424ZM20.823 9.73373C20.3489 11.214 19.9136 12.3652 19.6136 13.5552C18.8977 16.477 18.7816 19.2923 21.4615 21.3724C21.8485 20.3372 22.0517 19.1665 22.6515 18.2668C24.2285 15.9255 23.0288 12.2104 20.823 9.73373ZM16.45 18.4506C16.8467 20.6274 17.166 22.6494 17.5916 24.6521C18.0077 26.6354 19.2847 27.806 21.2777 28.2124C21.7324 23.6556 20.4457 20.966 16.45 18.4506Z" fill="black"/>
<path d="M3.49788 70.0157C3.04317 68.4871 3.16894 67.4906 3.74942 66.5328C7.00979 61.202 10.3089 55.9003 13.5305 50.5405C15.0398 48.0251 16.3652 45.4033 17.8261 42.8588C20.09 38.9116 22.3925 34.974 24.6951 31.046C26.3785 28.1823 27.9458 25.2412 29.8227 22.513C33.7506 16.7856 37.814 11.1646 41.8967 5.54359C43.0673 3.92792 44.4605 2.45737 45.7666 0.938444C46.0471 0.619179 46.4051 0.377313 46.8404 0C47.537 1.05454 47.1307 1.73177 46.5115 2.35095C39.7489 9.02648 34.6504 16.9597 29.6485 24.9413C27.3073 28.6661 25.0144 32.4295 22.8182 36.2414C19.6256 41.7946 16.5877 47.4446 13.3854 53.0076C10.9571 57.2064 8.36425 61.3085 5.88753 65.4879C5.08453 66.8037 4.446 68.1968 3.49788 70.0157Z" fill="#EB584A"/>
</svg>
