<svg width="50" height="74" viewBox="0 0 50 74" fill="none" xmlns="http://www.w3.org/2000/svg">
<path d="M50 44.7127C49.6929 46.7378 49.3474 48.9261 49.0402 51.1239C48.6563 53.888 47.1015 56.0859 45.3739 58.0726C43.3105 60.4528 40.911 62.4683 37.9934 63.9272C33.7416 66.0578 29.2211 66.9024 24.6143 67.1328C18.3278 67.4399 12.7228 65.4916 7.72244 61.4894C4.13293 58.6197 2.26139 54.771 0.418645 50.8168C0.101923 50.145 -0.0516389 49.3004 0.0155446 48.5614C0.255485 45.8356 0.159509 42.9467 1.06169 40.4418C2.2326 37.1978 3.16357 33.8386 5.12148 30.8249C7.22336 27.6097 9.66116 24.8456 12.7804 22.7149C15.4869 20.8626 18.491 19.6053 21.831 19.3846C22.3396 19.3558 22.8579 19.3366 23.3666 19.2502C31.2462 17.9065 37.5615 21.0833 43.1857 26.1509C46.5161 29.1454 47.9557 33.2147 49.0018 37.3801C49.5873 39.6836 49.6641 42.1118 50 44.7127ZM48.2052 44.5208C48.3876 38.3975 46.708 32.7637 42.5522 28.0416C38.79 23.7611 33.9336 21.0833 28.319 20.6227C23.0115 20.1908 18.0111 21.7744 13.7114 25.2103C8.67261 29.2317 5.29424 34.4816 3.0292 40.3362C2.02145 42.9467 1.61835 46.162 2.11743 48.8973C3.39391 55.9611 7.876 60.8943 14.4408 63.5721C21.783 66.5569 29.1923 66.0482 36.3618 62.7179C44.0111 59.1571 48.5028 53.4466 48.2052 44.5208Z" fill="#EB584A"/>
<path d="M29.5132 41.6324C28.5631 40.903 27.4113 40.4999 26.2788 40.116C25.5782 39.8761 24.7144 39.6553 24.1482 40.1352C23.8602 40.3751 23.7163 40.7494 23.5915 41.095C22.8813 42.9953 22.1806 44.9052 21.4704 46.8055C20.9521 49.5025 19.6373 51.9499 19.215 54.6852C18.975 56.2496 18.8791 57.8236 18.6007 59.3784C18.3128 60.9812 18.0153 62.5936 17.7561 64.2061C17.7369 64.3212 17.6985 64.4268 17.6602 64.5324C17.6698 65.8472 17.8809 67.1045 18.927 66.7014C20.1459 66.2311 22.0079 61.346 22.6989 60.1367C25.2039 55.7505 27.7089 51.3548 30.2139 46.9687C30.6266 46.2585 31.0393 45.5099 31.0968 44.6845C31.1832 43.504 30.4634 42.3618 29.5132 41.6324Z" fill="white"/>
<path d="M27.2926 22.0827C27.3214 21.6988 27.4462 21.2381 27.8205 21.1709C28.0412 21.1325 28.2812 21.2573 28.5019 21.1901C28.7419 21.1037 28.8378 20.8158 28.8762 20.5567C29.1833 18.8387 29.1066 17.0823 29.0394 15.3356C28.9242 12.5331 28.809 9.74015 28.6843 6.93764C29.4809 7.42712 30.527 7.32154 31.362 6.89925C32.197 6.47695 32.8496 5.78592 33.4927 5.10449C32.8496 9.40423 32.6481 13.7712 32.888 18.1189C35.9881 14.7021 37.1878 10.0185 38.2819 5.53639C39.376 5.79552 40.5469 5.75713 41.6219 5.42121C39.2417 10.5943 36.8614 15.7771 34.4908 20.9502C37.1974 19.6929 39.9999 18.6467 42.8792 17.8501C43.2631 18.4452 43.0903 19.2706 42.6584 19.8465C42.2265 20.4127 41.6027 20.787 40.998 21.1709C36.9574 23.7431 33.5407 27.275 31.0549 31.3732C30.7574 31.8627 30.0855 33.7342 29.5097 33.5423C28.9242 33.3503 28.7131 30.8357 28.6075 30.3847C27.974 27.6493 27.1007 24.914 27.2926 22.0827Z" fill="white"/>
<path d="M20.2979 55.7499C19.1078 60.6639 17.9177 65.6738 18.2248 70.7222C19.031 68.5627 19.1941 66.2209 19.6356 63.9655C20.9025 57.535 24.5304 51.7765 25.4806 45.2693C25.9509 42.0157 24.1177 43.0522 22.9852 45.2021C21.4112 48.1966 21.0849 52.4579 20.2979 55.7499Z" fill="#BCBCBB"/>
<path d="M27.5614 21.6406C28.5307 22.1493 29.5577 22.7348 30.028 23.7233C30.5366 24.8078 30.9301 32.2268 28.5691 31.9005C26.7648 31.6605 27.3694 22.9843 27.5614 21.6406Z" fill="#BCBCBB"/>
<path d="M23.6259 39.3316C24.8544 38.8229 25.6894 40.1186 26.8411 39.8595C27.5514 38.4102 27.7241 36.7114 27.8201 35.0126C27.9449 32.7092 27.8777 30.4154 27.4746 28.1215C27.0235 25.5014 26.8124 22.8333 26.5148 20.1747C26.4668 19.7812 26.5532 19.3685 26.582 18.8598C28.0313 18.879 27.9545 20.8657 29.1734 21.288C29.231 20.6738 29.3173 20.1363 29.3269 19.5989C29.3557 15.8942 29.2502 12.1991 28.4439 8.58078C28.4152 8.44641 28.348 8.30244 28.3576 8.17767C28.5207 6.70924 28.0888 5.36557 27.6857 4.0123C27.6281 3.81075 27.6761 3.57081 27.6761 3.15811C28.7607 3.75317 28.6647 5.01046 29.1446 5.82626C29.6149 6.63246 29.5765 7.81296 29.7588 8.83031C29.8548 8.82071 29.9508 8.81112 30.0564 8.80152C30.0564 7.61141 30.0564 6.42131 30.0564 5.09684C31.2081 5.47114 31.0833 6.8724 31.9279 7.39067C33.5307 5.41356 33.0796 2.62065 33.9722 0.307617C34.6248 0.633937 34.4521 1.08503 34.3753 1.52652C34.0874 3.34047 33.7226 5.15442 33.5403 6.98757C33.3004 9.41577 33.2044 11.8632 33.0316 14.301C32.9548 15.4431 32.8493 16.5852 32.9644 17.8137C33.118 17.5258 33.3004 17.2474 33.4155 16.9499C34.692 13.6483 35.9301 10.3371 37.245 7.05475C37.8016 5.67269 38.4927 4.35782 39.1261 3.01415C39.1933 2.87018 39.3373 2.78381 39.5196 2.59185C40.0859 3.82035 38.8574 4.57856 39.1069 5.77827C40.1914 5.30798 41.2664 4.8377 42.5237 4.29063C42.4469 4.69373 42.4565 5.01046 42.3413 5.2312C41.3144 7.12193 40.1819 8.93589 39.2413 10.8746C37.8688 13.7059 36.6307 16.614 35.335 19.4933C35.2871 19.5989 35.3063 19.7524 35.2871 20.1171C38.0416 18.7831 40.7097 17.4586 43.6946 17.2474C43.7426 18.332 42.6484 18.3032 42.4757 19.0998C43.0419 19.2437 43.5794 19.3877 44.1265 19.5221C44.0785 20.4914 43.4834 20.6546 42.9748 20.8753C41.871 21.3552 40.7481 21.7775 39.654 22.267C37.6193 23.1788 35.8245 24.5512 34.2121 26.1828C33.3771 27.0274 32.6381 28.0928 32.1198 29.2253C31.2561 31.0968 30.5554 33.0835 29.8548 35.051C29.3269 36.5483 28.9238 38.1031 28.4152 39.6099C28.3288 39.8786 28.0217 40.061 27.8489 40.253C28.8375 40.9248 29.8932 41.5966 30.9009 42.3452C31.9855 43.1514 32.1006 43.5353 31.4864 44.8598C30.8338 46.2419 30.0468 47.5376 29.3173 48.8716C28.7127 49.9658 28.1176 51.0695 27.4842 52.154C26.9083 53.1522 26.2749 54.1119 25.699 55.1101C24.1826 57.7398 22.6566 60.36 21.1881 63.0185C20.6891 63.9111 20.3531 64.9189 19.9213 65.8594C18.9327 68.0285 17.9153 70.188 16.9364 72.3762C16.754 72.7889 16.5909 73.0865 16.0438 73.0385C16.0246 72.7217 15.9478 72.405 16.0054 72.1267C16.6101 69.401 17.1859 66.6656 17.8674 63.9591C18.8367 60.1009 19.9309 56.281 20.881 52.4132C21.8024 48.6509 22.6086 44.8406 23.4532 41.0496C23.5588 40.5217 23.5588 39.965 23.6259 39.3316ZM37.7441 7.01636C36.9474 9.21422 36.0165 11.6232 35.1815 14.0802C34.0874 17.3338 32.7437 20.4914 31.9663 21.1537C31.9375 20.5586 31.8607 20.0691 31.8991 19.5989C31.9663 18.7255 32.139 17.8617 32.2062 16.9883C32.4174 13.9938 32.5997 10.9994 32.7821 8.00492C32.7917 7.89934 32.7053 7.79377 32.6573 7.6882C32.3598 7.97612 32.1006 8.23526 31.7935 8.52319C31.4576 8.10089 31.1985 7.77457 30.757 7.20831C30.6898 8.04331 30.6898 8.62876 30.5842 9.19502C30.4978 9.66531 30.4115 10.2508 30.1331 10.5483C29.7588 10.9418 29.7684 11.3161 29.826 11.7864C29.97 12.9285 30.1715 14.0706 30.2195 15.2223C30.2963 17.1611 30.3155 19.0998 30.2675 21.0385C30.2483 21.9311 30.1235 22.8716 29.3941 23.6011C28.9142 23.1884 28.4631 22.8045 27.8777 22.2958C27.7817 24.1289 28.0025 25.6838 28.5207 27.3345C28.991 27.037 29.3653 26.7683 29.7588 26.5571C30.1139 26.3748 30.4115 25.9717 30.8913 26.1636C29.9316 26.49 29.7876 27.9968 28.6263 27.9776C28.7031 29.3309 28.7799 30.5689 28.8375 31.807C28.8854 32.9875 28.7031 34.1873 28.9046 35.4733C29.6245 33.4674 30.2099 31.5959 30.9681 29.8203C31.7359 28.0256 32.7149 26.346 34.1737 25.1559C36.5635 23.198 39.0589 21.4608 41.9478 20.5874C42.1782 20.5202 42.3701 20.3283 42.7444 20.0883C41.871 19.8868 41.2088 20.6066 40.393 19.954C40.9401 19.3781 41.4295 18.8598 41.9286 18.3416C41.2568 18.2552 40.7097 18.4087 40.1723 18.5623C38.2527 19.0998 36.5443 20.1747 34.836 21.2688C34.548 21.4512 34.2313 21.5568 33.9242 21.7007L33.7322 21.4512C33.8666 21.0961 33.9818 20.7218 34.1449 20.3763C34.5672 19.4837 35.0471 18.6199 35.431 17.6985C36.6403 14.8672 37.8304 12.0359 39.3948 9.43496C39.9419 8.52319 40.4314 7.55383 40.9209 6.60366C41.0456 6.36372 41.0648 6.0566 41.1512 5.70149C40.0187 6.14298 39.0397 6.51728 37.7441 7.01636ZM24.6817 55.4172C25.0656 54.8509 25.5551 54.2271 25.939 53.5361C27.4266 50.8871 28.8758 48.2094 30.3347 45.5413C30.5074 45.2245 30.6706 44.9078 30.805 44.5719C31.0257 44.0152 30.9681 43.5545 30.4978 43.113C28.8662 41.6254 26.9467 40.9536 24.8544 40.3489C24.4609 41.7022 24.0386 42.9499 23.7411 44.236C23.4628 45.4069 23.5684 45.4933 24.5857 45.9444C24.9696 46.1171 25.4687 46.1459 25.6126 46.8945C24.8352 46.7793 24.1346 46.6834 23.386 46.5778C23.0501 47.7967 22.7046 48.8812 22.6758 50.1769C23.434 49.8218 24.0386 49.5339 24.6433 49.2459C23.8851 50.2441 22.3878 50.2153 22.1383 52.0196C22.9925 51.6837 23.6739 51.415 24.365 51.1463C24.3938 51.2326 24.4225 51.3286 24.4513 51.415C24.2786 51.5206 24.125 51.6453 23.9427 51.7125C22.4262 52.2884 21.6008 53.3729 21.2169 55.2253C20.6603 57.9606 19.7677 60.6095 19.0575 63.2969C18.5776 65.1108 18.1457 66.944 17.6946 68.7675C18.376 67.7886 18.8463 66.7232 19.3262 65.6675C19.8157 64.6021 20.2764 63.5176 20.8042 62.4811C21.3321 61.4445 21.956 60.4656 22.5126 59.4482C23.0597 58.4405 23.578 57.4039 24.0386 56.5113C23.7027 55.6955 22.8101 56.0219 22.6662 55.1869C23.3956 54.6398 23.9235 55.4844 24.6817 55.4172Z" fill="black"/>
<path d="M23.6275 39.3311L23.7235 39.5518C23.8963 39.475 24.0594 39.4559 24.213 39.4559C24.5585 39.4559 24.904 39.5998 25.2783 39.7726C25.6526 39.9453 26.0557 40.1373 26.5356 40.1373C26.6508 40.1373 26.7756 40.1277 26.9003 40.0989L27.0155 40.0701L27.0635 39.9645C27.8025 38.4673 27.9657 36.7301 28.0616 35.0313C28.1 34.3499 28.1192 33.6781 28.1192 33.0062C28.1192 31.3651 28.004 29.7335 27.7161 28.0827C27.265 25.4817 27.0539 22.8136 26.7564 20.155L26.7468 19.9343C26.7468 19.6367 26.8043 19.3008 26.8235 18.8785L26.5836 18.8689V19.1089C26.8907 19.1185 27.0923 19.2145 27.2746 19.3776C27.5434 19.6176 27.7545 20.0494 28.0041 20.4717C28.2536 20.894 28.5607 21.3355 29.0982 21.5275L29.3861 21.6331L29.4149 21.3259C29.4725 20.7213 29.5589 20.1838 29.5685 19.6176C29.5685 19.2912 29.5685 18.9649 29.5685 18.6386C29.5685 15.2506 29.4149 11.8723 28.6855 8.55149C28.6471 8.39793 28.5991 8.27316 28.6087 8.23477V8.22517C28.6375 7.99483 28.6471 7.77408 28.6471 7.55333C28.6471 6.27685 28.2728 5.11554 27.9273 3.96382L27.9081 3.79106C27.9081 3.6567 27.9273 3.45515 27.9273 3.17682H27.6873L27.553 3.37837C28.0232 3.6375 28.2344 4.031 28.4072 4.50129C28.5703 4.97157 28.6663 5.49944 28.9254 5.96013C29.3477 6.67035 29.3285 7.83167 29.5109 8.88741L29.5493 9.10815L29.77 9.08895C29.866 9.07936 29.962 9.06976 30.0675 9.06016L30.2883 9.04097V8.82022C30.2883 7.63012 30.2883 6.44001 30.2883 5.11554H30.0483L29.9716 5.34588C30.4514 5.49944 30.6626 5.85455 30.8833 6.31524C31.0945 6.75673 31.2768 7.2942 31.7951 7.61092L31.9775 7.71649L32.1118 7.55333C32.9564 6.51679 33.254 5.2691 33.4555 4.02141C33.6571 2.77372 33.7722 1.51643 34.1945 0.4031L33.9738 0.316722L33.8682 0.52787C34.0314 0.614248 34.1081 0.691029 34.1561 0.758213C34.1945 0.825396 34.2137 0.89258 34.2137 0.988556C34.2137 1.12292 34.1753 1.29568 34.1369 1.48763C33.849 3.30158 33.4843 5.11554 33.3019 6.95828C33.062 9.39608 32.966 11.8435 32.7933 14.2813C32.7357 15.0587 32.6781 15.8457 32.6781 16.6615C32.6781 17.0454 32.6877 17.4293 32.7261 17.8324L32.8029 18.6386L33.1772 17.9188C33.3211 17.6404 33.5035 17.3621 33.6379 17.0262C34.9143 13.7246 36.1524 10.4134 37.4673 7.13104C38.0144 5.75858 38.7054 4.4533 39.3484 3.10963C39.358 3.06164 39.4924 2.95607 39.694 2.75452L39.5212 2.59136L39.3005 2.68734C39.3964 2.88889 39.4252 3.07124 39.4252 3.244C39.4252 3.56072 39.3005 3.87744 39.1469 4.23255C39.0029 4.58767 38.8302 4.97157 38.8302 5.43226C38.8302 5.55703 38.8398 5.69139 38.8686 5.81616L38.9262 6.10409L39.1949 5.98892C40.2794 5.51864 41.3544 5.04835 42.6116 4.50129L42.5157 4.28054L42.2757 4.23255C42.1989 4.66445 42.1989 4.97157 42.1126 5.09634C41.0952 6.97748 39.9627 8.80103 39.0125 10.7493C37.6401 13.5806 36.3924 16.4983 35.1063 19.368C35.0583 19.4736 35.0583 19.5696 35.0487 19.6751C35.0487 19.7807 35.0487 19.8959 35.0295 20.0686L35.0007 20.4813L35.375 20.299C38.1391 18.9649 40.7689 17.6596 43.6962 17.4581L43.677 17.2181L43.437 17.2277V17.2853C43.437 17.4965 43.389 17.6308 43.3123 17.7556C43.1971 17.938 42.9955 18.0723 42.7748 18.2451C42.5541 18.4178 42.3141 18.6482 42.2277 19.0129L42.1798 19.2432L42.4005 19.3008C42.9668 19.4448 43.5042 19.5888 44.0513 19.7231L44.1089 19.4928L43.8689 19.4832C43.8401 19.9151 43.7154 20.1166 43.5522 20.2702C43.3795 20.4238 43.1299 20.5101 42.8612 20.6253C41.7671 21.1052 40.6441 21.5275 39.5308 22.017C37.4673 22.9383 35.6438 24.33 34.0122 25.9808C33.158 26.8446 32.4094 27.9387 31.8719 29.0904C30.9985 30.9811 30.2979 32.9679 29.6069 34.9354C29.0694 36.4422 28.6663 37.997 28.1672 39.5038C28.1288 39.6574 27.8697 39.8398 27.6489 40.0605L27.4666 40.2621L27.6969 40.4156C28.6951 41.097 29.7412 41.7593 30.7394 42.4983C31.0561 42.7382 31.2864 42.9302 31.4208 43.103C31.5552 43.2757 31.6032 43.4197 31.6032 43.602C31.6032 43.8516 31.4976 44.2067 31.248 44.7154C30.605 46.0782 29.818 47.3739 29.079 48.708C28.4743 49.8021 27.8793 50.9058 27.2554 51.9808C26.6796 52.9693 26.0461 53.9291 25.4703 54.9368C23.9539 57.5666 22.4278 60.1867 20.9594 62.8549C20.4507 63.7763 20.1052 64.784 19.6829 65.715C18.6943 67.884 17.677 70.0435 16.698 72.2318C16.6117 72.4237 16.5445 72.5581 16.4581 72.6349C16.3813 72.7116 16.3045 72.75 16.1222 72.75H16.0358L16.0166 72.99L16.2566 72.9804C16.247 72.7212 16.199 72.4909 16.199 72.3181L16.2182 72.1358C16.8228 69.4101 17.3987 66.6747 18.0801 63.9682C19.0495 60.11 20.1436 56.2901 21.0938 52.4222C22.0151 48.6504 22.8213 44.8497 23.6659 41.0587C23.7907 40.4924 23.7907 39.9261 23.8579 39.3119L23.6275 39.3311L23.7235 39.5518L23.6275 39.3311L23.3876 39.3023C23.3204 39.9549 23.3108 40.502 23.2052 41.0011C22.3702 44.7921 21.5544 48.5928 20.6427 52.3551C19.7021 56.2133 18.5984 60.0332 17.629 63.901C16.9476 66.6076 16.3717 69.3525 15.7671 72.0782C15.7479 72.1742 15.7383 72.2701 15.7383 72.3565C15.7383 72.6061 15.7863 72.8364 15.7959 73.0476L15.8055 73.2587L16.0166 73.2779L16.1414 73.2875C16.4197 73.2875 16.6597 73.1915 16.8132 73.0284C16.9668 72.8652 17.0628 72.6733 17.1491 72.4813C18.1185 70.3026 19.1358 68.1432 20.1244 65.9741C20.5563 65.0143 20.9018 64.0162 21.3817 63.1524C22.8501 60.4939 24.3761 57.8737 25.8926 55.244C26.4684 54.2554 27.1019 53.2956 27.6777 52.2879C28.3112 51.2034 28.9062 50.0996 29.5109 49.0055C30.2403 47.681 31.0369 46.3757 31.6895 44.9841C31.9391 44.4466 32.083 44.0531 32.083 43.6692C32.083 43.3813 31.9871 43.103 31.7951 42.8726C31.6128 42.6327 31.3536 42.4215 31.0273 42.172C30.01 41.4138 28.9542 40.7515 27.9657 40.0701L27.8409 40.2621L28.0232 40.4252C28.148 40.2717 28.4935 40.0893 28.6375 39.6958C29.1462 38.1794 29.5493 36.6246 30.0771 35.1369C30.7778 33.1694 31.4688 31.1923 32.3326 29.3304C32.8413 28.2362 33.5611 27.1805 34.3769 26.3647C35.9701 24.7523 37.7456 23.399 39.7515 22.5064C40.8457 22.017 41.9686 21.6043 43.0723 21.1148C43.3123 21.0092 43.6194 20.9036 43.8881 20.6829C44.1569 20.4525 44.3584 20.0878 44.3776 19.56L44.3872 19.368L44.1953 19.32C43.6482 19.1761 43.1107 19.0417 42.5445 18.8977L42.4869 19.1281L42.7172 19.1761C42.746 19.0321 42.8132 18.9361 42.9188 18.8305C43.0723 18.677 43.3123 18.533 43.533 18.3219C43.7538 18.1107 43.9553 17.7844 43.9457 17.3429V17.2661L43.9361 17.0166L43.6866 17.0358C40.6345 17.2469 37.9472 18.5906 35.1927 19.9247L35.2982 20.1454L35.5382 20.1646C35.5478 19.9727 35.5478 19.8383 35.5574 19.7519C35.5574 19.6559 35.567 19.6272 35.567 19.6272C36.8627 16.7479 38.1008 13.8398 39.4732 11.0181C40.4042 9.09855 41.5367 7.275 42.5637 5.38427C42.7268 5.06755 42.698 4.76042 42.7748 4.37652L42.8612 3.93503L42.4485 4.11738C41.2008 4.66445 40.1259 5.12513 39.0317 5.60502L39.1277 5.82576L39.358 5.77777C39.3389 5.6818 39.3293 5.58582 39.3293 5.48984C39.3293 5.15393 39.454 4.82761 39.6076 4.4725C39.7516 4.12698 39.9243 3.74308 39.9243 3.29199C39.9243 3.05205 39.8763 2.80251 39.7515 2.53377L39.6076 2.21705L39.3676 2.46659C39.2141 2.63935 39.0509 2.71613 38.9262 2.94647C38.2927 4.28054 37.5921 5.59542 37.0354 6.99667C35.7205 10.2791 34.4825 13.5998 33.206 16.8918C33.1004 17.1702 32.9276 17.4293 32.7645 17.7364L32.9756 17.8516L33.1964 17.8036C33.158 17.4197 33.1484 17.0454 33.1484 16.6807C33.1484 15.8841 33.2156 15.1163 33.2636 14.3293C33.4363 11.8819 33.5227 9.44407 33.7626 7.02547C33.945 5.21151 34.3001 3.40716 34.5976 1.58361C34.6264 1.42045 34.6744 1.2189 34.6744 1.00775C34.6744 0.854189 34.6456 0.681432 34.54 0.518272C34.4345 0.355112 34.2809 0.220746 34.0602 0.115172L33.8202 0L33.7242 0.249539C33.2636 1.44924 33.158 2.74492 32.9564 3.96382C32.7549 5.19232 32.4765 6.33444 31.7183 7.26541L31.9007 7.41897L32.0255 7.21742C31.6895 7.02547 31.5168 6.60317 31.296 6.12329C31.0753 5.653 30.7778 5.12513 30.1059 4.90439L29.7892 4.79881V5.12513C29.7892 6.44961 29.7892 7.63971 29.7892 8.82982H30.0292L30.01 8.58988C29.914 8.59948 29.818 8.60907 29.7124 8.61867L29.7316 8.85861L29.9716 8.82022C29.7892 7.84126 29.8372 6.64156 29.3285 5.73938C29.1174 5.38427 29.0214 4.8756 28.8486 4.36692C28.6759 3.85825 28.388 3.32078 27.7737 2.98486L27.4186 2.78331V3.18641C27.4186 3.43595 27.3994 3.61831 27.3994 3.80066C27.3994 3.90624 27.409 4.01181 27.4378 4.11738C27.7833 5.2691 28.1384 6.39202 28.1384 7.57253C28.1384 7.77408 28.1288 7.98523 28.1096 8.19638V8.26356C28.1192 8.45551 28.1864 8.58988 28.196 8.68585C28.9158 11.9586 29.0694 15.3082 29.0694 18.677C29.0694 19.0033 29.0694 19.3296 29.0694 19.6463C29.0694 20.155 28.9734 20.6925 28.9158 21.3163L29.1558 21.3355L29.2325 21.1052C28.983 21.0188 28.8007 20.8556 28.6279 20.6349C28.3688 20.299 28.1768 19.8383 27.8985 19.4352C27.6201 19.0321 27.2074 18.6674 26.574 18.6674H26.3437L26.3341 18.8977C26.3149 19.2816 26.2573 19.6272 26.2573 19.9727C26.2573 20.0686 26.2573 20.155 26.2669 20.251C26.5644 22.8999 26.7756 25.5777 27.2266 28.2074C27.505 29.8198 27.6201 31.4322 27.6201 33.0446C27.6201 33.7069 27.6009 34.3787 27.5626 35.0409C27.4762 36.7301 27.3034 38.4001 26.6124 39.7918L26.8235 39.8973L26.7756 39.667C26.6892 39.6862 26.6028 39.6958 26.5164 39.6958C26.1805 39.6958 25.835 39.5518 25.4607 39.3791C25.0864 39.2063 24.6737 39.0144 24.1938 39.0144C23.9826 39.0144 23.7523 39.0528 23.522 39.1487L23.3876 39.2063L23.3684 39.3503L23.6275 39.3311ZM37.7456 7.01587L37.5249 6.92949C36.7283 9.12735 35.7973 11.5364 34.9623 14.0029C34.4153 15.6249 33.8106 17.2181 33.2444 18.4946C32.966 19.1281 32.6877 19.6847 32.4382 20.107C32.1982 20.5389 31.9679 20.8461 31.8143 20.9708L31.9679 21.1532L32.2078 21.1436C32.179 20.6541 32.131 20.251 32.131 19.8767C32.131 19.7903 32.131 19.7039 32.1406 19.6176C32.2078 18.7634 32.3806 17.8996 32.4478 17.007C32.6589 14.0125 32.8413 11.0181 33.0236 8.02362V7.99483C33.0236 7.87965 32.9852 7.79328 32.9468 7.73569L32.8796 7.60132L32.7453 7.275L32.4861 7.52454C32.1886 7.81247 31.9199 8.07161 31.6224 8.35954L31.7855 8.53229L31.9775 8.37873C31.6416 7.95644 31.3824 7.63012 30.9409 7.06386L30.557 6.58397L30.509 7.18862C30.4419 8.03322 30.4418 8.61867 30.3459 9.15614C30.2691 9.63602 30.1635 10.1927 29.962 10.3846C29.6548 10.7014 29.5493 11.0565 29.5589 11.3924C29.5589 11.5364 29.5685 11.6707 29.5877 11.8051C29.7316 12.9568 29.9332 14.0893 29.9812 15.2218C30.0292 16.4503 30.0579 17.6788 30.0579 18.9073C30.0579 19.608 30.0483 20.3182 30.0292 21.0188C30.01 21.9018 29.8852 22.756 29.223 23.4182L29.3957 23.591L29.5493 23.4086C29.0694 22.9959 28.6183 22.612 28.0328 22.1033L27.6585 21.7866L27.6297 22.2761C27.6105 22.5544 27.6105 22.8328 27.6105 23.1111C27.6105 24.6275 27.8409 25.9808 28.292 27.4012L28.388 27.6988L28.6471 27.5356C29.127 27.2285 29.4917 26.9693 29.866 26.7678C30.0387 26.6718 30.1827 26.5566 30.3075 26.4799C30.4323 26.3935 30.5378 26.3551 30.6434 26.3551L30.8066 26.3839L30.8929 26.1631L30.8162 25.9328C30.2307 26.1439 29.9332 26.6526 29.6452 27.0461C29.5013 27.2477 29.3573 27.4204 29.1942 27.5452C29.031 27.6604 28.8678 27.7275 28.6375 27.7371H28.6183H28.3688L28.3784 27.9867C28.4551 29.34 28.5319 30.578 28.5895 31.8161C28.5991 31.9697 28.5991 32.1137 28.5991 32.2672C28.5991 32.8527 28.5607 33.4477 28.5607 34.0716C28.5607 34.5323 28.5799 35.0122 28.6567 35.5112L28.8007 36.4422L29.1174 35.5592C29.8372 33.5533 30.4227 31.6818 31.1713 29.9254C31.9295 28.1498 32.8988 26.5087 34.3001 25.3569C36.6803 23.4086 39.1469 21.6906 41.9878 20.8365C42.3045 20.7309 42.4869 20.5293 42.842 20.3086L43.3219 20.0015L42.7652 19.8767C42.6308 19.8479 42.5061 19.8383 42.3813 19.8383C41.8726 19.8479 41.4599 20.0303 41.124 20.0207C40.9225 20.0207 40.7401 19.9727 40.5098 19.7903L40.3562 19.9727L40.529 20.1358C41.076 19.56 41.5655 19.0417 42.0646 18.5234L42.3909 18.1779L41.9206 18.1203C41.7766 18.1011 41.6327 18.0915 41.4983 18.0915C40.9608 18.0915 40.5002 18.2163 40.0683 18.3411C38.1008 18.8881 36.3732 19.9823 34.6744 21.0764C34.4249 21.2396 34.1081 21.3451 33.7914 21.4987L33.897 21.7194L34.0889 21.5755L33.897 21.3259L33.705 21.4699L33.9258 21.5563C34.0602 21.1916 34.1753 20.8173 34.3289 20.5005C34.7416 19.6176 35.2215 18.7442 35.6246 17.8228C36.8339 14.9915 38.024 12.1698 39.5788 9.58803C40.1355 8.66666 40.6249 7.6973 41.1144 6.73754C41.268 6.43041 41.2776 6.11369 41.364 5.77777L41.4791 5.32668L41.0568 5.48984C39.9435 5.91214 38.9549 6.29605 37.6593 6.78552L37.5537 6.82392L37.5153 6.92949L37.7456 7.01587L37.832 7.23661C39.1277 6.73754 40.1163 6.36323 41.2296 5.94093L41.1432 5.72019L40.9129 5.6626C40.8265 6.03691 40.7977 6.34403 40.7017 6.50719C40.2122 7.46696 39.7228 8.42672 39.1757 9.3289C37.6017 11.9586 36.402 14.7995 35.1927 17.6212C34.8088 18.5234 34.3289 19.3776 33.9066 20.2894C33.7338 20.6541 33.6187 21.0284 33.4939 21.3835L33.4459 21.5083L33.7242 21.8634L33.8394 22.017L34.0122 21.9402C34.3001 21.8058 34.636 21.6906 34.9527 21.4891C36.6515 20.395 38.3407 19.3392 40.2218 18.8114C40.6537 18.6866 41.0664 18.581 41.5271 18.581C41.6423 18.581 41.767 18.5906 41.8918 18.6002L41.9206 18.3603L41.7479 18.1971C41.2584 18.7154 40.7689 19.2241 40.2122 19.8095L40.0299 20.0015L40.2314 20.1646C40.5386 20.4142 40.8553 20.5005 41.1528 20.5005C41.6327 20.4909 42.0262 20.3086 42.4101 20.3182C42.5061 20.3182 42.5924 20.3278 42.6884 20.347L42.746 20.1166L42.6116 19.9151C42.2277 20.1742 42.0166 20.3566 41.8822 20.3854C38.9453 21.2683 36.4212 23.0247 34.0218 24.9922C32.5245 26.2207 31.5264 27.9387 30.749 29.7431C29.9812 31.5282 29.4053 33.4093 28.6855 35.4057L28.9158 35.4824L29.1558 35.444C29.0886 34.9834 29.0598 34.5323 29.0598 34.0812C29.0598 33.4765 29.0982 32.8815 29.0982 32.2768C29.0982 32.1233 29.0982 31.9601 29.0886 31.8065C29.031 30.5589 28.9542 29.3208 28.8774 27.9771L28.6375 27.9867V28.2266H28.6471C28.983 28.2266 29.2709 28.1115 29.4917 27.9387C29.8276 27.6796 30.0387 27.3245 30.2595 27.0269C30.4802 26.7198 30.6914 26.4895 30.9793 26.3935L31.584 26.1823L30.9889 25.9424C30.8737 25.8944 30.7586 25.8752 30.653 25.8752C30.4131 25.8752 30.2115 25.9808 30.0579 26.0768C29.9044 26.1823 29.77 26.2879 29.6548 26.3455C29.2325 26.5662 28.8582 26.835 28.3976 27.1325L28.5223 27.334L28.7527 27.2573C28.3112 25.8752 28.1 24.5795 28.1 23.1111C28.1 22.852 28.1096 22.5832 28.1192 22.3049L27.8793 22.2953L27.7257 22.4776C28.3112 22.9863 28.7623 23.3702 29.2421 23.7829L29.4149 23.9269L29.5685 23.7637C30.3651 22.9575 30.4898 21.9402 30.509 21.038C30.5282 20.3278 30.5378 19.6272 30.5378 18.9169C30.5378 17.6788 30.509 16.4407 30.461 15.2122C30.4131 14.0413 30.2019 12.8992 30.0675 11.7571C30.0483 11.6227 30.0387 11.5076 30.0387 11.402C30.0483 11.1428 30.0867 10.9701 30.3075 10.7206C30.6626 10.3271 30.7298 9.7128 30.8162 9.24252C30.9217 8.64746 30.9217 8.05241 30.9889 7.22701L30.749 7.20782L30.557 7.36138C30.9985 7.92764 31.2672 8.25396 31.5936 8.67626L31.7567 8.88741L31.9487 8.70505C32.2462 8.41712 32.5053 8.15798 32.8125 7.87006L32.6493 7.6973L32.4286 7.78368L32.5149 7.95643L32.5341 8.00442H32.6013H32.5341H32.6013H32.5341C32.3518 10.9989 32.1694 13.9933 31.9583 16.9878C31.9007 17.842 31.7279 18.7058 31.6512 19.5984C31.6416 19.6943 31.6416 19.7999 31.6416 19.8959C31.6416 20.3086 31.6991 20.7117 31.7183 21.182L31.7471 21.6427L32.1214 21.3259C32.3614 21.1244 32.5917 20.7885 32.8509 20.3374C33.6283 18.9841 34.588 16.6039 35.4134 14.1469C36.2388 11.6995 37.1698 9.29051 37.9664 7.09265L37.7456 7.01587L37.832 7.23661L37.7456 7.01587ZM24.6833 55.4167L24.8848 55.5511C25.2591 54.9944 25.7582 54.3706 26.1613 53.6507C27.6489 50.9922 29.0982 48.3241 30.557 45.6559C30.7298 45.3392 30.9025 45.0129 31.0369 44.6578C31.1233 44.437 31.1809 44.2163 31.1809 43.9955C31.1809 43.6116 31.0081 43.2469 30.6722 42.9398C28.9926 41.4042 27.0347 40.7323 24.9328 40.1277L24.7025 40.0605L24.6353 40.2908C24.2418 41.6345 23.8195 42.8918 23.522 44.1875C23.4356 44.5426 23.3876 44.8113 23.3876 45.0417C23.378 45.3104 23.4932 45.5695 23.6947 45.7327C23.8963 45.8959 24.1458 46.011 24.5009 46.1646C24.7217 46.2606 24.9328 46.3086 25.0768 46.4045C25.2207 46.5005 25.3263 46.6157 25.3935 46.9324L25.6334 46.894L25.6718 46.6541C24.8944 46.5389 24.1938 46.4429 23.4452 46.3374L23.234 46.3086L23.1764 46.5101C22.8501 47.7194 22.4854 48.8231 22.4566 50.1668L22.447 50.5603L22.8021 50.3971C23.5603 50.042 24.165 49.7541 24.7697 49.4662L24.6641 49.2454L24.4721 49.1015C24.1458 49.543 23.6179 49.7733 23.0901 50.1284C22.5622 50.4835 22.0535 51.0114 21.9192 51.9808L21.8616 52.3839L22.2455 52.2303C23.0997 51.8944 23.7811 51.6256 24.4721 51.3569L24.3857 51.1362L24.1554 51.213C24.1842 51.2993 24.213 51.3953 24.2418 51.4817L24.4433 51.3953L24.3186 51.1938C24.1266 51.3089 23.973 51.4241 23.8483 51.4721C22.2647 52.0671 21.3529 53.2668 20.9786 55.1576C20.4219 57.8737 19.5389 60.5131 18.8191 63.2196C18.3392 65.0431 17.9073 66.8763 17.4563 68.6902L17.1395 69.9571L17.8881 68.8822C18.5792 67.884 19.0591 66.7995 19.5485 65.7438C20.038 64.6688 20.4987 63.5939 21.0266 62.5669C21.5544 61.54 22.1687 60.5706 22.735 59.5341C23.282 58.5168 23.8003 57.4898 24.2706 56.5876L24.3186 56.4916L24.2802 56.3861C24.0786 55.887 23.6659 55.7142 23.3972 55.5991C23.2532 55.5415 23.1477 55.4839 23.0805 55.4167C23.0133 55.3495 22.9557 55.2727 22.9269 55.1096L22.687 55.148L22.8309 55.3399C22.9749 55.244 23.0709 55.2152 23.1764 55.2152C23.3396 55.2152 23.5316 55.2919 23.7619 55.4071C23.9922 55.5127 24.2706 55.6375 24.5969 55.6375L24.7121 55.6279L24.8272 55.6183L24.8944 55.5223L24.6833 55.4167L24.6641 55.1768H24.5969C24.3953 55.1768 24.1842 55.0904 23.9539 54.9848C23.7235 54.8792 23.474 54.7545 23.1668 54.7545C22.9653 54.7545 22.7446 54.8217 22.5334 54.9752L22.4182 55.0616L22.447 55.2056C22.4854 55.4551 22.6006 55.6567 22.7445 55.791C22.9653 55.9926 23.2148 56.0597 23.3972 56.1557C23.5891 56.2517 23.7235 56.3477 23.8291 56.5876L24.0498 56.5012L23.8387 56.3861C23.3684 57.2882 22.8597 58.3152 22.3127 59.3229C21.7656 60.3307 21.1417 61.3097 20.5947 62.3654C20.0572 63.4115 19.5965 64.4961 19.107 65.5614C18.6272 66.6267 18.1569 67.6729 17.4946 68.623L17.6962 68.7574L17.9265 68.815C18.3776 66.9915 18.8095 65.1583 19.2894 63.3444C19.9996 60.657 20.8922 58.0081 21.4585 55.2536C21.8424 53.4492 22.6006 52.4702 24.0306 51.9136C24.261 51.8272 24.4241 51.6832 24.5777 51.5969L24.7409 51.5009L24.6833 51.3185C24.6545 51.2321 24.6257 51.1458 24.5969 51.0594L24.5201 50.8098L24.2802 50.9058C23.5987 51.1746 22.9077 51.4433 22.0535 51.7792L22.1399 52L22.3798 52.0287C22.5046 51.1938 22.8693 50.8386 23.3396 50.5027C23.8099 50.1764 24.4049 49.9269 24.8368 49.3606L25.4223 48.5832L24.5393 49.0055C23.9347 49.2934 23.33 49.5814 22.5718 49.9365L22.6774 50.1572L22.9173 50.1668C22.9461 48.9095 23.282 47.8538 23.6179 46.6253L23.3876 46.5581L23.3492 46.798C24.0978 46.9036 24.7984 47.0092 25.5758 47.1148L25.9022 47.1628L25.8446 46.8364C25.7678 46.4141 25.5567 46.1358 25.3167 45.9918C25.0768 45.8383 24.8368 45.7903 24.6833 45.7135C24.3282 45.5599 24.0978 45.4448 23.9922 45.3488C23.8867 45.2528 23.8675 45.2144 23.8579 45.0225C23.8579 44.8689 23.8963 44.6194 23.9826 44.2739C24.2802 43.007 24.6929 41.7593 25.096 40.3964L24.8656 40.3292L24.7984 40.5596C26.8811 41.1642 28.7623 41.8169 30.3459 43.2661C30.6146 43.5156 30.701 43.7172 30.701 43.9667C30.701 44.1107 30.6626 44.2739 30.5954 44.4562C30.4706 44.7729 30.3075 45.0897 30.1443 45.3968C28.6855 48.0649 27.2266 50.7427 25.7486 53.3916C25.3743 54.0634 24.8848 54.6777 24.5009 55.2536L24.6833 55.4167L24.6641 55.1768L24.6833 55.4167Z" fill="black"/>
<path d="M29.0508 28.5828C29.4155 28.41 29.7706 28.2181 30.1449 28.0645C30.404 27.9493 30.6824 27.8822 30.9895 27.9109C30.3944 28.314 29.8474 28.8419 29.1084 28.8707C29.0988 28.7651 29.07 28.6788 29.0508 28.5828Z" fill="black"/>
<path d="M29.05 28.5835L29.1556 28.8042C29.5203 28.6219 29.885 28.4395 30.2401 28.286C30.4512 28.1996 30.6528 28.142 30.8735 28.142H30.9695L30.9887 27.9021L30.8543 27.7005C30.2401 28.1324 29.7218 28.6027 29.1076 28.6123L29.1172 28.8522L29.3475 28.8042C29.3283 28.7082 29.3091 28.6123 29.2899 28.5259L29.05 28.5835L29.1556 28.8042L29.05 28.5835L28.8196 28.6315C28.8388 28.7274 28.858 28.8234 28.8772 28.9098L28.9156 29.1113L29.1172 29.1018C29.9714 29.0634 30.5472 28.4875 31.1231 28.1036L31.6893 27.7197L31.0079 27.6717L30.8735 27.6621C30.576 27.6621 30.2977 27.7389 30.0577 27.8445C29.6738 28.0076 29.3091 28.1996 28.954 28.3723L28.7812 28.4587L28.8196 28.6411L29.05 28.5835Z" fill="black"/>
</svg>
