<svg width="50" height="70" viewBox="0 0 50 70" fill="none" xmlns="http://www.w3.org/2000/svg">
<path d="M49.8014 36.248C49.4955 38.2651 49.1514 40.4447 48.8455 42.6338C48.4631 45.3869 46.9144 47.5761 45.1937 49.5549C43.1384 51.9256 40.7486 53.9331 37.8425 55.3862C33.6076 57.5084 29.1051 58.3496 24.5165 58.5791C18.255 58.885 12.6723 56.9444 7.69177 52.9581C4.11651 50.0998 2.25241 46.2664 0.416982 42.3279C0.101518 41.6587 -0.0514337 40.8175 0.0154828 40.0814C0.254471 37.3665 0.158876 34.4891 1.05747 31.9941C2.22373 28.763 3.151 25.4171 5.10114 22.4154C7.19467 19.213 9.62279 16.4599 12.7296 14.3376C15.4254 12.4927 18.4175 11.2404 21.7442 11.0205C22.2509 10.9918 22.7671 10.9727 23.2738 10.8867C31.1221 9.54833 37.4123 12.7125 43.0142 17.76C46.3313 20.7425 47.7652 24.7958 48.8072 28.9446C49.3999 31.2484 49.4668 33.667 49.8014 36.248ZM48.0233 36.0569C48.205 29.9579 46.5321 24.3465 42.3928 19.6432C38.6455 15.3796 33.8083 12.7125 28.216 12.2537C22.9296 11.8235 17.9491 13.4008 13.6665 16.8231C8.64772 20.8286 5.28277 26.0576 3.02673 31.8889C2.02298 34.4891 1.62148 37.6915 2.10902 40.416C3.38043 47.4518 7.84472 52.3654 14.3834 55.0325C21.6965 58.0055 29.0764 57.4988 36.2173 54.1817C43.8363 50.6351 48.3101 44.9568 48.0233 36.0569Z" fill="#EB584A"/>
<path d="M32.1231 55.6244C33.3371 57.4503 35.2012 59.5056 37.2948 58.8555C38.4515 58.4923 39.2162 57.3642 39.6082 56.2171C40.3729 54.0184 40.1435 51.6094 39.742 49.3247C37.8014 38.2643 32.0848 28.2746 26.33 18.6387C24.3607 15.3502 22.1907 11.8896 18.7111 10.2741C15.3748 8.72545 10.1935 9.74832 9.41923 13.7346C8.72138 17.2812 13.3195 23.4949 14.8395 26.3914C20.0972 36.4289 25.8711 46.1892 32.1231 55.6244Z" fill="white"/>
<path d="M12.5195 19.9219C16.6014 27.5217 20.6929 35.1119 24.7748 42.7117C26.0654 45.1207 27.3654 47.5297 28.9523 49.7571C31.3996 53.1985 34.5064 56.162 38.053 58.4467C39.4773 55.2347 39.267 51.344 37.5081 48.3041C34.9175 43.8302 29.698 41.7462 25.444 38.7924C21.3143 35.9245 17.9207 32.0147 15.6646 27.5217" fill="#BCBCBB"/>
<path d="M34.0089 59.2585C29.8888 56.2951 27.4607 52.022 25.1281 47.7298C21.094 40.2829 17.1937 32.7596 13.2839 25.2553C11.6683 22.1485 10.1101 19.0034 8.61886 15.8297C8.37032 15.2943 8.44679 14.4531 8.67622 13.87C10.0719 10.266 16.0562 6.76725 19.8608 7.23567C20.8646 7.35994 21.3712 7.83792 21.8205 8.82255C24.0957 13.8126 26.5525 18.7166 28.8659 23.6876C30.5675 27.3584 32.2691 31.0293 33.7413 34.7957C36.1311 40.9138 38.3872 47.0797 40.5763 53.2647C41.1021 54.7464 41.3602 56.4002 41.3697 57.968C41.3793 60.616 38.9321 62.0021 36.5326 60.8358C35.634 60.4057 34.8406 59.7843 34.0089 59.2585ZM11.8691 17.0437C12.0985 17.8467 12.1559 18.4012 12.3949 18.8505C14.6796 23.2574 16.9356 27.6739 19.316 32.033C21.8875 36.7268 24.5068 41.3918 27.2503 45.9804C29.1718 49.1828 31.3418 52.2323 33.4353 55.3296C33.703 55.7215 34.1523 55.9987 34.6781 56.4671C35.0891 55.081 35.4237 53.9434 35.7583 52.7963C35.9782 54.0964 35.8252 55.3296 35.634 56.5627C35.4906 57.4709 35.8635 57.8437 36.8099 57.7864C37.2496 56.7444 37.6989 55.6833 38.2916 54.2589C38.1482 55.8745 38.043 57.0503 37.8901 58.7136C38.7887 57.9202 39.2858 57.49 39.8785 56.9642C39.5343 55.7502 39.2858 54.5552 38.8556 53.4272C37.8996 50.8557 36.7047 48.3702 35.8635 45.7605C33.3971 38.0555 30.2807 30.6374 26.5429 23.4677C24.8891 20.294 23.3979 17.0342 21.8205 13.8126C21.0271 12.1875 20.5682 12.0823 19.0387 13.153C16.8783 14.6825 14.9855 16.6996 11.8691 17.0437ZM11.5441 15.4855C12.653 15.0554 13.7045 14.8164 14.5649 14.281C16.0944 13.3155 17.5283 12.1875 18.9431 11.0499C19.2777 10.7822 19.3638 10.2087 19.5645 9.7785C19.1152 9.60643 18.5799 9.18581 18.2357 9.31008C16.3143 9.96013 14.3832 10.6197 12.5765 11.5279C11.1904 12.2257 10.8367 13.5545 11.5441 15.4855Z" fill="black"/>
<path d="M22.0711 24.796C23.505 24.6335 24.5852 24.4997 25.675 24.3754C25.7419 24.557 25.7993 24.7291 25.8662 24.9108C25.025 25.4556 24.1742 26.0101 23.0653 26.7271C23.8396 28.5051 24.6139 30.2928 25.4456 32.1951C26.2677 32.0135 26.9751 31.8605 27.7016 31.698C28.5524 33.2275 26.8317 33.2371 26.3729 34.4033C26.7744 35.5027 27.2906 36.8984 27.8068 38.3036C29.0304 38.1793 30.0915 38.0646 31.1526 37.9499C31.21 38.1316 31.2769 38.3036 31.3342 38.4853C30.971 38.772 30.6173 39.0779 30.2445 39.3456C29.8238 39.642 29.3745 39.9096 28.8105 40.2633C29.9768 43.5136 31.7071 46.391 33.2653 49.3353C33.6285 50.0236 34.7087 50.817 33.7337 51.4671C32.6343 52.2031 32.185 50.9031 31.8027 50.167C30.6938 48.0734 29.6709 45.9417 28.648 43.8003C28.0266 42.5098 27.606 41.0759 25.7802 40.7413C26.9369 38.5713 25.675 36.994 24.958 35.2733C24.3271 35.1968 23.7631 35.1203 23.0461 35.0343C23.1322 34.5467 23.0748 34.0496 23.2851 33.868C24.0212 33.218 23.8874 32.5679 23.5241 31.8223C22.855 30.4648 22.2049 29.0978 21.5166 27.6639C21.182 27.769 20.8953 27.922 20.618 27.9316C20.1974 27.9507 19.7768 27.8646 19.3562 27.8168C19.4996 27.3675 19.5856 26.8896 19.8055 26.4785C19.968 26.163 20.293 25.9336 20.5894 25.6086C19.49 23.4099 18.4193 21.2781 17.2148 18.8691C19.3657 18.9074 19.4518 20.5038 20.1114 21.4502C20.8379 22.5304 21.421 23.6871 22.0711 24.796Z" fill="black"/>
<path d="M3.44773 69.1822C2.99843 67.6718 3.12271 66.6871 3.69628 65.7408C6.91783 60.4735 10.1776 55.2348 13.3609 49.9389C14.8522 47.4534 16.1619 44.8628 17.6054 42.3486C19.8423 38.4483 22.1175 34.5576 24.3926 30.6765C26.056 27.8469 27.6046 24.9408 29.4592 22.245C33.3403 16.5858 37.3553 11.0317 41.3894 5.4776C42.5461 3.88116 43.9227 2.42812 45.2132 0.927273C45.4905 0.611809 45.8442 0.372821 46.2743 0C46.9626 1.04199 46.5611 1.71115 45.9493 2.32296C39.2672 8.91902 34.2294 16.7578 29.2871 24.6444C26.9737 28.3248 24.7081 32.0435 22.5381 35.8099C19.3834 41.2971 16.3817 46.8798 13.2176 52.3766C10.8181 56.5254 8.25616 60.5786 5.80893 64.7083C5.02505 66.0084 4.38456 67.3945 3.44773 69.1822Z" fill="#EB584A"/>
</svg>
