<svg width="29" height="29" viewBox="0 0 29 29" fill="none" xmlns="http://www.w3.org/2000/svg">
<path d="M28.8164 14.7891C28.8164 12.0201 27.9953 9.31337 26.457 7.01108C24.9186 4.7088 22.7321 2.91438 20.174 1.85476C17.6158 0.795129 14.8009 0.517882 12.0851 1.05807C9.36941 1.59827 6.87485 2.93164 4.91692 4.88957C2.95898 6.84751 1.62561 9.34207 1.08542 12.0578C0.545226 14.7735 0.822472 17.5885 1.8821 20.1466C2.94173 22.7048 4.73614 24.8913 7.03843 26.4296C9.34072 27.968 12.0475 28.7891 14.8164 28.7891C18.5294 28.7891 22.0904 27.3141 24.7159 24.6886C27.3414 22.0631 28.8164 18.5021 28.8164 14.7891ZM14.8164 26.3002C12.5397 26.3002 10.3142 25.6251 8.42118 24.3602C6.52819 23.0953 5.05278 21.2976 4.18153 19.1942C3.31028 17.0908 3.08232 14.7763 3.52648 12.5434C3.97064 10.3104 5.06697 8.25934 6.67683 6.64948C8.28668 5.03963 10.3378 3.9433 12.5707 3.49914C14.8036 3.05498 17.1181 3.28294 19.2215 4.15419C21.3249 5.02544 23.1227 6.50084 24.3875 8.39384C25.6524 10.2868 26.3275 12.5124 26.3275 14.7891C26.3241 17.8409 25.1102 20.7668 22.9522 22.9248C20.7942 25.0828 17.8683 26.2967 14.8164 26.3002Z" fill="black" fill-opacity="0.5"/>
<path d="M14.8168 9.43724C15.0618 9.43724 15.3012 9.3646 15.5049 9.22849C15.7086 9.09239 15.8674 8.89894 15.9611 8.6726C16.0549 8.44627 16.0794 8.19722 16.0316 7.95695C15.9838 7.71668 15.8658 7.49598 15.6926 7.32275C15.5194 7.14952 15.2987 7.03156 15.0584 6.98376C14.8181 6.93597 14.5691 6.9605 14.3428 7.05425C14.1164 7.14799 13.923 7.30675 13.7869 7.51045C13.6508 7.71414 13.5781 7.95361 13.5781 8.19859C13.5781 8.36126 13.6102 8.52233 13.6724 8.67261C13.7347 8.82289 13.8259 8.95944 13.9409 9.07446C14.0559 9.18948 14.1925 9.28071 14.3428 9.34296C14.493 9.40521 14.6541 9.43725 14.8168 9.43724Z" fill="black" fill-opacity="0.5"/>
<path d="M17.0083 20.7778C16.5796 20.6404 16.0558 20.2374 16.0558 19.0883V11.5439C16.0558 11.5171 16.0505 11.4906 16.0403 11.4658C16.03 11.4411 16.015 11.4186 15.9961 11.3996C15.9771 11.3807 15.9546 11.3656 15.9299 11.3554C15.9051 11.3451 15.8786 11.3398 15.8518 11.3398H12.8447C12.744 11.3398 12.6443 11.3597 12.5513 11.3982C12.4583 11.4367 12.3738 11.4932 12.3026 11.5644C12.2315 11.6355 12.175 11.72 12.1365 11.813C12.098 11.906 12.0781 12.0057 12.0781 12.1064C12.0795 12.2711 12.1334 12.4311 12.2319 12.5631C12.3305 12.6952 12.4686 12.7923 12.6261 12.8405C13.0547 12.9779 13.5785 13.3809 13.5785 14.53V19.0883C13.5785 20.2375 13.0547 20.6404 12.6261 20.7778C12.4686 20.826 12.3305 20.9231 12.232 21.0552C12.1334 21.1872 12.0795 21.3472 12.0781 21.5119C12.0781 21.6126 12.098 21.7123 12.1365 21.8053C12.175 21.8983 12.2315 21.9828 12.3026 22.0539C12.3738 22.1251 12.4583 22.1816 12.5513 22.2201C12.6443 22.2586 12.744 22.2785 12.8447 22.2785H16.7897C16.8904 22.2785 16.9901 22.2586 17.0831 22.2201C17.1761 22.1816 17.2606 22.1251 17.3318 22.0539C17.4029 21.9828 17.4594 21.8983 17.4979 21.8053C17.5364 21.7123 17.5563 21.6126 17.5563 21.5119C17.5549 21.3472 17.501 21.1872 17.4025 21.0552C17.3039 20.9231 17.1658 20.826 17.0083 20.7778Z" fill="black" fill-opacity="0.5"/>
</svg>
