<svg width="41" height="17" viewBox="0 0 41 17" fill="none" xmlns="http://www.w3.org/2000/svg">
<path d="M19.054 7.81492V12.505H17.5662V0.922653H21.5123C21.9833 0.912814 22.4516 0.996354 22.8902 1.16845C23.3287 1.34055 23.7289 1.5978 24.0675 1.92535C24.4096 2.23302 24.6818 2.61034 24.8659 3.03195C25.05 3.45356 25.1417 3.9097 25.1349 4.36971C25.1447 4.83218 25.0544 5.2913 24.8701 5.7156C24.6859 6.1399 24.4121 6.51935 24.0675 6.82794C23.3775 7.48593 22.5257 7.81461 21.5123 7.814H19.054V7.81492ZM19.054 2.34861V6.39174H21.5492C21.8228 6.39985 22.095 6.35078 22.3485 6.24766C22.602 6.14454 22.8312 5.98965 23.0214 5.79289C23.2106 5.60893 23.361 5.3889 23.4637 5.1458C23.5664 4.9027 23.6193 4.64147 23.6193 4.37757C23.6193 4.11366 23.5664 3.85244 23.4637 3.60934C23.361 3.36624 23.2106 3.1462 23.0214 2.96224C22.8336 2.76134 22.6052 2.60265 22.3514 2.4967C22.0976 2.39075 21.8241 2.33996 21.5492 2.34768H19.054V2.34861Z" fill="#5F6368"/>
<path d="M28.5607 4.32422C29.6604 4.32422 30.5285 4.6181 31.1649 5.20585C31.8014 5.79361 32.1193 6.59946 32.1186 7.62341V12.5075H30.6955V11.4078H30.6308C30.0147 12.3134 29.1953 12.7663 28.1726 12.7663C27.2995 12.7663 26.5692 12.5075 25.9814 11.99C25.6993 11.7525 25.4738 11.455 25.3213 11.1193C25.1688 10.7835 25.0931 10.418 25.0998 10.0493C25.0998 9.22927 25.4097 8.57713 26.0295 8.09288C26.6493 7.60863 27.4767 7.36589 28.5117 7.36465C29.3952 7.36465 30.1228 7.52638 30.6945 7.84983V7.50974C30.6962 7.25839 30.642 7.00982 30.5357 6.78204C30.4294 6.55427 30.2737 6.353 30.08 6.19284C29.6865 5.83785 29.1738 5.64416 28.6439 5.65037C27.8128 5.65037 27.1551 6.00093 26.6708 6.70204L25.3604 5.87678C26.0812 4.84174 27.148 4.32422 28.5607 4.32422ZM26.6357 10.0816C26.6347 10.271 26.679 10.4579 26.7648 10.6266C26.8506 10.7954 26.9756 10.9413 27.1292 11.052C27.4583 11.3108 27.8667 11.448 28.2853 11.4401C28.9132 11.4391 29.515 11.1892 29.9589 10.7452C30.4518 10.2813 30.6982 9.73693 30.6982 9.11221C30.2343 8.74255 29.5874 8.55772 28.7575 8.55772C28.1531 8.55772 27.6492 8.70343 27.2456 8.99484C26.8381 9.29057 26.6357 9.65006 26.6357 10.0816Z" fill="#5F6368"/>
<path d="M40.295 4.58398L35.3268 16.0018H33.7909L35.6345 12.0067L32.3677 4.58398H33.9849L36.3461 10.2767H36.3785L38.675 4.58398H40.295Z" fill="#5F6368"/>
<path d="M13.0441 6.80803C13.0446 6.3546 13.0063 5.90195 12.9295 5.45508H6.65454V8.01773H10.2485C10.175 8.42702 10.0193 8.81719 9.79094 9.1647C9.56255 9.51221 9.26615 9.80988 8.91962 10.0398V11.7032H11.0646C12.3205 10.5453 13.0441 8.83283 13.0441 6.80803Z" fill="#4285F4"/>
<path d="M6.65449 13.3101C8.45011 13.3101 9.96201 12.7205 11.0645 11.7039L8.91957 10.0404C8.32258 10.4452 7.55369 10.6762 6.65449 10.6762C4.91895 10.6762 3.44586 9.50628 2.9191 7.92969H0.709473V9.64398C1.26328 10.746 2.11249 11.6724 3.16228 12.3198C4.21208 12.9671 5.42114 13.31 6.65449 13.3101Z" fill="#34A853"/>
<path d="M2.91814 7.92334C2.63966 7.0972 2.63966 6.20254 2.91814 5.3764V3.66211H0.708516C0.242632 4.58917 0 5.61233 0 6.64987C0 7.68741 0.242632 8.71057 0.708516 9.63763L2.91814 7.92334Z" fill="#FBBC04"/>
<path d="M6.65449 2.63425C7.60339 2.61875 8.52028 2.97727 9.20698 3.63232L11.1061 1.73321C9.90186 0.602125 8.30651 -0.0188587 6.65449 0.000436554C5.42114 0.000492765 4.21208 0.343345 3.16228 0.990715C2.11249 1.63809 1.26328 2.5645 0.709473 3.66652L2.9191 5.38081C3.44586 3.80422 4.91895 2.63425 6.65449 2.63425Z" fill="#EA4335"/>
</svg>
