<svg width="105" height="35" viewBox="0 0 105 35" fill="none" xmlns="http://www.w3.org/2000/svg">
<path d="M44.5455 18.2807C44.5455 23.2776 40.6891 26.9598 35.9563 26.9598C31.2236 26.9598 27.3672 23.2776 27.3672 18.2807C27.3672 13.2485 31.2236 9.60156 35.9563 9.60156C40.6891 9.60156 44.5455 13.2485 44.5455 18.2807ZM40.7856 18.2807C40.7856 15.1581 38.5505 13.0216 35.9563 13.0216C33.3622 13.0216 31.1271 15.1581 31.1271 18.2807C31.1271 21.372 33.3622 23.5398 35.9563 23.5398C38.5505 23.5398 40.7856 21.3681 40.7856 18.2807Z" fill="#EA4335"/>
<path d="M63.0728 18.2807C63.0728 23.2776 59.2164 26.9598 54.4837 26.9598C49.751 26.9598 45.8945 23.2776 45.8945 18.2807C45.8945 13.2524 49.751 9.60156 54.4837 9.60156C59.2164 9.60156 63.0728 13.2485 63.0728 18.2807ZM59.3129 18.2807C59.3129 15.1581 57.0778 13.0216 54.4837 13.0216C51.8896 13.0216 49.6545 15.1581 49.6545 18.2807C49.6545 21.372 51.8896 23.5398 54.4837 23.5398C57.0778 23.5398 59.3129 21.3681 59.3129 18.2807Z" fill="#FBBC05"/>
<path d="M80.828 10.1259V25.7077C80.828 32.1172 77.099 34.735 72.6905 34.735C68.5407 34.735 66.0431 31.9216 65.1012 29.6207L68.3747 28.2394C68.9576 29.652 70.3859 31.319 72.6867 31.319C75.5086 31.319 77.2573 29.5542 77.2573 26.232V24.9837H77.126C76.2845 26.0363 74.6631 26.9559 72.6172 26.9559C68.3361 26.9559 64.4141 23.1759 64.4141 18.312C64.4141 13.4129 68.3361 9.60156 72.6172 9.60156C74.6593 9.60156 76.2806 10.5211 77.126 11.5424H77.2573V10.1298H80.828V10.1259ZM77.5236 18.312C77.5236 15.2559 75.5124 13.0216 72.953 13.0216C70.3589 13.0216 68.1856 15.2559 68.1856 18.312C68.1856 21.3368 70.3589 23.5398 72.953 23.5398C75.5124 23.5398 77.5236 21.3368 77.5236 18.312Z" fill="#4285F4"/>
<path d="M86.718 0.992188V26.427H83.0508V0.992188H86.718Z" fill="#34A853"/>
<path d="M101.009 21.1333L103.927 23.1055C102.985 24.5181 100.715 26.952 96.7934 26.952C91.9294 26.952 88.2969 23.1407 88.2969 18.2729C88.2969 13.1116 91.9603 9.59375 96.3726 9.59375C100.816 9.59375 102.989 13.1781 103.699 15.1151L104.089 16.1011L92.6436 20.9064C93.5199 22.6477 94.8825 23.5359 96.7934 23.5359C98.7081 23.5359 100.036 22.5811 101.009 21.1333ZM92.0259 18.0107L99.677 14.7903C99.2562 13.7064 97.9901 12.9511 96.5 12.9511C94.5891 12.9511 91.9294 14.6611 92.0259 18.0107Z" fill="#EA4335"/>
<path d="M13.484 16.02V12.3378H25.725C25.8447 12.9796 25.9064 13.7387 25.9064 14.5604C25.9064 17.323 25.1614 20.7391 22.7603 23.173C20.4248 25.6383 17.4408 26.953 13.4879 26.953C6.16103 26.953 0 20.9035 0 13.4765C0 6.04957 6.16103 0 13.4879 0C17.5412 0 20.4287 1.61217 22.5982 3.71348L20.0349 6.31174C18.4792 4.83261 16.3715 3.68217 13.484 3.68217C8.13364 3.68217 3.94908 8.05304 3.94908 13.4765C3.94908 18.9 8.13364 23.2709 13.484 23.2709C16.9544 23.2709 18.9309 21.8583 20.1971 20.5748C21.2239 19.5339 21.8995 18.047 22.1658 16.0161L13.484 16.02Z" fill="#4285F4"/>
</svg>
