<svg width="41" height="16" viewBox="0 0 41 16" fill="none" xmlns="http://www.w3.org/2000/svg">
<path d="M19.0543 7.81489V12.5049H17.5664V0.922653H21.5125C21.9835 0.912814 22.4518 0.996353 22.8904 1.16845C23.329 1.34055 23.7291 1.59779 24.0677 1.92534C24.4098 2.23301 24.682 2.61033 24.8661 3.03194C25.0502 3.45355 25.1419 3.90969 25.1351 4.36969C25.1449 4.83216 25.0546 5.29128 24.8704 5.71558C24.6861 6.13987 24.4123 6.51932 24.0677 6.82791C23.3777 7.48589 22.526 7.81458 21.5125 7.81396H19.0543V7.81489ZM19.0543 2.3486V6.39171H21.5494C21.823 6.39982 22.0952 6.35075 22.3487 6.24763C22.6022 6.14451 22.8314 5.98962 23.0216 5.79287C23.2108 5.60891 23.3612 5.38887 23.4639 5.14578C23.5666 4.90268 23.6196 4.64145 23.6196 4.37755C23.6196 4.11365 23.5666 3.85242 23.4639 3.60932C23.3612 3.36623 23.2108 3.14619 23.0216 2.96223C22.8338 2.76133 22.6054 2.60264 22.3516 2.49669C22.0978 2.39074 21.8244 2.33995 21.5494 2.34768H19.0543V2.3486Z" fill="#5F6368"/>
<path d="M28.5629 4.32422C29.6626 4.32422 30.5307 4.6181 31.1671 5.20585C31.8035 5.7936 32.1214 6.59945 32.1208 7.6234V12.5075H30.6976V11.4078H30.6329C30.0169 12.3134 29.1974 12.7662 28.1747 12.7662C27.3017 12.7662 26.5714 12.5075 25.9836 11.99C25.7015 11.7524 25.476 11.455 25.3235 11.1192C25.171 10.7835 25.0953 10.418 25.102 10.0493C25.102 9.22925 25.4119 8.57711 26.0317 8.09286C26.6514 7.60861 27.4789 7.36587 28.5139 7.36464C29.3974 7.36464 30.125 7.52636 30.6967 7.84981V7.50973C30.6984 7.25838 30.6441 7.0098 30.5378 6.78203C30.4315 6.55425 30.2759 6.35299 30.0822 6.19283C29.6887 5.83785 29.1759 5.64416 28.646 5.65036C27.8149 5.65036 27.1573 6.00092 26.673 6.70203L25.3626 5.87677C26.0834 4.84174 27.1502 4.32422 28.5629 4.32422ZM26.6379 10.0816C26.6369 10.271 26.6812 10.4578 26.767 10.6266C26.8528 10.7954 26.9778 10.9412 27.1314 11.052C27.4604 11.3108 27.8689 11.4479 28.2875 11.4401C28.9153 11.439 29.5172 11.1891 29.9611 10.7451C30.454 10.2812 30.7004 9.73691 30.7004 9.11219C30.2365 8.74253 29.5896 8.5577 28.7597 8.5577C28.1553 8.5577 27.6514 8.70341 27.2478 8.99482C26.8403 9.29055 26.6379 9.65004 26.6379 10.0816Z" fill="#5F6368"/>
<path d="M40.2945 4.58203L35.3263 15.9998H33.7904L35.634 12.0047L32.3672 4.58203H33.9844L36.3456 10.2747H36.378L38.6744 4.58203H40.2945Z" fill="#5F6368"/>
<path d="M13.0418 6.80607C13.0424 6.35264 13.0041 5.9 12.9273 5.45312H6.65234V8.01576H10.2463C10.1728 8.42506 10.0171 8.81522 9.78873 9.16273C9.56034 9.51024 9.26394 9.80791 8.91741 10.0378V11.7012H11.0623C12.3182 10.5433 13.0418 8.83086 13.0418 6.80607Z" fill="#4285F4"/>
<path d="M6.65202 13.31C8.44763 13.31 9.95952 12.7204 11.062 11.7039L8.91709 10.0404C8.3201 10.4452 7.55121 10.6762 6.65202 10.6762C4.91649 10.6762 3.44341 9.50627 2.91665 7.92969H0.707031V9.64397C1.26084 10.746 2.11004 11.6724 3.15983 12.3198C4.20962 12.9671 5.41868 13.31 6.65202 13.31Z" fill="#34A853"/>
<path d="M2.91813 7.92527C2.63965 7.09913 2.63965 6.20448 2.91813 5.37834V3.66406H0.708512C0.242631 4.59112 0 5.61427 0 6.65181C0 7.68934 0.242631 8.7125 0.708512 9.63955L2.91813 7.92527Z" fill="#FBBC04"/>
<path d="M6.65202 2.63423C7.60092 2.61873 8.5178 2.97725 9.2045 3.63231L11.1036 1.7332C9.89937 0.602122 8.30403 -0.0188586 6.65202 0.000436552C5.41868 0.000492763 4.20962 0.343343 3.15983 0.99071C2.11004 1.63808 1.26084 2.56448 0.707031 3.6665L2.91665 5.38078C3.44341 3.8042 4.91649 2.63423 6.65202 2.63423Z" fill="#EA4335"/>
</svg>
