<svg width="23" height="23" viewBox="0 0 23 23" fill="none" xmlns="http://www.w3.org/2000/svg">
<path d="M22.2451 11.5014C22.2451 9.31475 21.5966 7.17716 20.3818 5.35899C19.1669 3.54082 17.4402 2.12373 15.4199 1.28692C13.3997 0.450103 11.1767 0.231155 9.032 0.657758C6.88732 1.08436 4.91731 2.13735 3.37108 3.68358C1.82485 5.22981 0.771861 7.19982 0.345258 9.3445C-0.0813452 11.4892 0.137603 13.7122 0.974415 15.7324C1.81123 17.7527 3.22832 19.4794 5.04649 20.6943C6.86466 21.9091 9.00225 22.5576 11.1889 22.5576C14.1212 22.5576 16.9334 21.3927 19.0068 19.3193C21.0802 17.2459 22.2451 14.4337 22.2451 11.5014ZM11.1889 20.592C9.39099 20.592 7.63342 20.0589 6.13848 19.06C4.64354 18.0611 3.47838 16.6414 2.79033 14.9803C2.10229 13.3192 1.92226 11.4914 2.27302 9.72796C2.62379 7.96455 3.48958 6.34477 4.76092 5.07342C6.03227 3.80208 7.65205 2.93629 9.41546 2.58552C11.1789 2.23476 13.0067 2.41479 14.6678 3.10283C16.3289 3.79088 17.7486 4.95604 18.7475 6.45098C19.7464 7.94592 20.2795 9.70349 20.2795 11.5014C20.2768 13.9116 19.3182 16.2222 17.614 17.9265C15.9097 19.6307 13.5991 20.5893 11.1889 20.592Z" fill="black"/>
<path d="M11.193 7.29231C11.3865 7.29231 11.5756 7.23493 11.7365 7.12745C11.8973 7.01996 12.0227 6.86719 12.0968 6.68845C12.1708 6.50971 12.1902 6.31303 12.1524 6.12328C12.1147 5.93354 12.0215 5.75924 11.8847 5.62244C11.7479 5.48564 11.5736 5.39248 11.3839 5.35473C11.1941 5.31699 10.9974 5.33636 10.8187 5.4104C10.64 5.48443 10.4872 5.60981 10.3797 5.77067C10.2722 5.93153 10.2148 6.12065 10.2148 6.31412C10.2148 6.44257 10.2401 6.56977 10.2893 6.68845C10.3385 6.80714 10.4105 6.91497 10.5013 7.0058C10.5922 7.09664 10.7 7.16869 10.8187 7.21785C10.9374 7.26701 11.0646 7.29231 11.193 7.29231Z" fill="black"/>
<path d="M12.9247 16.2385C12.5862 16.13 12.1725 15.8118 12.1725 14.9043V8.9463C12.1725 8.92514 12.1684 8.90418 12.1603 8.88463C12.1522 8.86508 12.1403 8.84732 12.1253 8.83235C12.1104 8.81739 12.0926 8.80552 12.0731 8.79742C12.0535 8.78932 12.0325 8.78516 12.0114 8.78516H9.63662C9.55712 8.78515 9.4784 8.80081 9.40495 8.83123C9.33151 8.86165 9.26477 8.90624 9.20856 8.96246C9.15235 9.01867 9.10776 9.0854 9.07733 9.15885C9.04691 9.23229 9.03125 9.31101 9.03125 9.39051C9.03235 9.52061 9.0749 9.64696 9.15273 9.75122C9.23055 9.85548 9.33959 9.93221 9.464 9.97026C9.8025 10.0788 10.2161 10.397 10.2161 11.3045V14.9043C10.2161 15.8118 9.8025 16.13 9.464 16.2385C9.33959 16.2766 9.23055 16.3533 9.15273 16.4576C9.07491 16.5618 9.03235 16.6882 9.03125 16.8183C9.03125 16.8978 9.04691 16.9765 9.07733 17.0499C9.10776 17.1234 9.15235 17.1901 9.20856 17.2463C9.26477 17.3025 9.33151 17.3471 9.40495 17.3776C9.4784 17.408 9.55712 17.4236 9.63662 17.4236H12.7521C12.8316 17.4236 12.9103 17.408 12.9838 17.3776C13.0572 17.3471 13.124 17.3025 13.1802 17.2463C13.2364 17.1901 13.281 17.1234 13.3114 17.0499C13.3418 16.9765 13.3575 16.8978 13.3575 16.8183C13.3564 16.6882 13.3138 16.5618 13.236 16.4576C13.1582 16.3533 13.0491 16.2766 12.9247 16.2385Z" fill="black"/>
</svg>
