<svg width="20" height="20" viewBox="0 0 20 20" fill="none" xmlns="http://www.w3.org/2000/svg">
<path d="M6.70117 6.29844C6.70117 4.49844 8.20117 2.99844 10.0012 2.99844C11.8012 2.99844 13.3012 4.49844 13.3012 6.29844V7.99844C13.9012 8.09844 14.4012 8.19844 15.0012 8.39844V6.29844C15.0012 3.59844 12.7012 1.39844 10.1012 1.39844C7.40117 1.39844 5.20117 3.69844 5.20117 6.29844V8.39844C5.60117 8.29844 6.20117 8.09844 6.70117 7.99844V6.29844Z" fill="white"/>
<path d="M10.0004 13.2C10.3318 13.2 10.6004 12.9314 10.6004 12.6C10.6004 12.2686 10.3318 12 10.0004 12C9.66902 12 9.40039 12.2686 9.40039 12.6C9.40039 12.9314 9.66902 13.2 10.0004 13.2Z" fill="white"/>
<path d="M16.5008 9.99687C14.4008 9.19687 12.2008 8.79688 10.0008 8.79688C7.80078 8.79688 5.60078 9.19687 3.50078 9.99687C3.40078 9.99687 3.30078 10.0969 3.30078 10.1969V17.2969C3.30078 17.3969 3.40078 17.4969 3.40078 17.4969C7.60078 19.0969 12.2008 19.0969 16.4008 17.4969C16.5008 17.4969 16.6008 17.3969 16.6008 17.2969V10.1969C16.7008 10.0969 16.6008 9.99687 16.5008 9.99687ZM10.5008 14.1969V15.9969H9.50078V14.1969C8.80078 13.9969 8.40078 13.3969 8.40078 12.5969C8.40078 11.6969 9.10078 10.9969 10.0008 10.9969C10.9008 10.9969 11.6008 11.6969 11.6008 12.5969C11.6008 13.3969 11.2008 13.9969 10.5008 14.1969Z" fill="white"/>
</svg>
