<svg width="122" height="20" viewBox="0 0 122 20" fill="none" xmlns="http://www.w3.org/2000/svg">
<path d="M12.3857 9.34053C14.5177 9.34053 15.4314 8.62988 15.4314 6.80247C15.4314 5.0766 14.5177 4.26442 12.3857 4.26442H3.6548V9.34053H12.3857ZM0 1.21875H12.9949C16.7512 1.21875 19.0862 3.75681 19.0862 6.80247C19.0862 10.4573 16.4466 12.3862 12.9949 12.3862H3.6548V19.4928H0V1.21875Z" fill="#F15748"/>
<path d="M21.0154 18.8816V15.9375C23.2489 16.7496 25.0763 17.0542 27.4113 17.0542C30.66 17.0542 31.9798 16.7496 31.9798 15.6329C31.9798 12.8918 20.4062 16.039 20.4062 10.3537C20.4062 7.40959 23.4519 5.98828 28.0204 5.98828C29.5433 5.98828 32.2844 6.29285 34.5178 6.69894V9.54156C32.6904 9.13547 30.3554 8.8309 28.4265 8.8309C25.3808 8.8309 24.0611 9.33852 24.0611 10.2522C24.0611 12.7903 35.6346 9.84613 35.6346 15.5314C35.6346 18.577 32.5889 19.7953 28.0204 19.7953C25.99 19.8968 23.1474 19.4907 21.0154 18.8816Z" fill="#F15748"/>
<path d="M37.5623 6.3959H41.2171V19.3908H37.5623V6.3959ZM37.0547 2.03045C37.0547 0.609134 37.9684 0 39.2882 0C40.7095 0 41.6232 0.710656 41.6232 2.03045C41.6232 3.45176 40.7095 4.16241 39.2882 4.16241C37.9684 4.16241 37.0547 3.55328 37.0547 2.03045Z" fill="#F15748"/>
<path d="M58.4752 16.3456C60.4042 16.3456 61.5209 15.6349 61.5209 13.909C61.5209 12.2847 60.4042 11.574 58.4752 11.574H48.9321V16.3456H58.4752ZM45.2773 1.21875H58.8813C62.6377 1.21875 64.7696 3.2492 64.7696 5.9903C64.7696 8.62988 62.8407 9.94967 59.6935 10.1527C63.1453 10.2542 65.3788 11.7771 65.3788 14.6197C65.3788 17.5638 63.0437 19.4928 59.4905 19.4928H45.2773V1.21875ZM57.9676 8.93444C59.8966 8.93444 61.0133 8.32531 61.0133 6.70095C61.0133 5.0766 59.8966 4.36594 57.9676 4.36594H49.0337V8.93444H57.9676Z" fill="#F15748"/>
<path d="M83.1462 19.3894H79.0853L79.5929 14.0087H79.3899C78.8823 17.4605 76.9533 19.7955 72.994 19.7955C69.3392 19.7955 67.6133 17.6635 67.6133 11.9783V6.39453H71.2681V11.5722C71.2681 15.5315 72.2833 17.0544 74.8214 17.0544C77.664 17.0544 79.4914 14.3133 79.4914 10.0493V6.39453H83.1462V19.3894Z" fill="#F15748"/>
<path d="M87.4095 9.13741H85.6836V6.39631H87.4095V5.88869C87.4095 2.53846 88.4247 1.01562 91.6734 1.01562C92.5871 1.01562 93.3993 1.21867 94.7191 1.42171V3.45216C94.4145 3.45216 94.1099 3.45216 93.8054 3.45216C91.3688 3.45216 91.1658 4.06129 91.1658 6.49783H94.7191V8.93436H91.1658V19.4927H87.511L87.4095 9.13741Z" fill="#F15748"/>
<path d="M107.714 12.0797C107.612 9.74465 106.191 8.93247 103.348 8.93247C100.607 8.93247 99.1861 9.84617 98.983 12.3842L107.714 12.0797ZM95.5312 12.9934C95.5312 8.83095 98.6784 6.08984 103.348 6.08984C108.018 6.08984 111.064 8.42486 111.166 11.9781V14.1101H98.983C99.3891 16.2421 101.115 17.1558 104.567 17.1558C107.714 17.1558 109.034 16.3436 110.557 15.7345V18.6786C108.018 19.6938 106.597 19.9984 103.247 19.9984C98.6784 19.8969 95.5312 17.1558 95.5312 12.9934Z" fill="#F15748"/>
<path d="M114.316 14.7218V9.13809H112.488V6.39699H114.925V3.2498L118.072 2.74219V6.39699H121.828V9.13809H118.072V14.0112C118.072 16.6507 118.072 17.2599 120.407 17.2599C120.813 17.2599 121.219 17.2599 121.828 17.1584V19.0873C120.712 19.3918 119.696 19.5949 118.275 19.5949C114.823 19.6964 114.316 18.4781 114.316 14.7218Z" fill="#F15748"/>
</svg>
