<svg width="15" height="20" viewBox="0 0 15 20" fill="none" xmlns="http://www.w3.org/2000/svg">
<path d="M7.5 0C3.3 0 0 3.4 0 7.5C0 12.6 6.3 19 7 19.8C7.1 19.9 7.3 20 7.5 20C7.7 20 7.9 19.9 8 19.8C8.3 19.5 15 12.7 15 7.5C15 3.4 11.7 0 7.5 0ZM13.5 7.5C13.5 11.3 9 16.5 7.5 18.2C6 16.5 1.5 11.3 1.5 7.5C1.5 4.2 4.2 1.5 7.5 1.5C10.8 1.5 13.5 4.2 13.5 7.5Z" fill="black"/>
<path d="M7.49922 3.69922C5.39922 3.69922 3.69922 5.39922 3.69922 7.49922C3.69922 9.59922 5.39922 11.2992 7.49922 11.2992C9.59922 11.2992 11.2992 9.59922 11.2992 7.49922C11.2992 5.39922 9.59922 3.69922 7.49922 3.69922ZM9.79922 7.49922C9.79922 8.79922 8.69922 9.79922 7.49922 9.79922C6.29922 9.79922 5.19922 8.79922 5.19922 7.49922C5.19922 6.19922 6.19922 5.19922 7.49922 5.19922C8.79922 5.19922 9.79922 6.19922 9.79922 7.49922Z" fill="black"/>
</svg>
