<svg width="27" height="18" viewBox="0 0 27 18" fill="none" xmlns="http://www.w3.org/2000/svg">
<path d="M25.1035 0.826172H1.75141C0.784131 0.826172 0 1.6103 0 2.57758V15.4212C0 16.3885 0.784131 17.1726 1.75141 17.1726H25.1035C26.0707 17.1726 26.8549 16.3885 26.8549 15.4212V2.57758C26.8549 1.6103 26.0707 0.826172 25.1035 0.826172Z" fill="#0F1822"/>
<path d="M21.903 9.00031C21.903 10.0395 21.5948 11.0553 21.0175 11.9194C20.4401 12.7834 19.6195 13.4569 18.6595 13.8546C17.6994 14.2523 16.6429 14.3563 15.6237 14.1536C14.6045 13.9508 13.6683 13.4504 12.9335 12.7156C12.1986 11.9808 11.6982 11.0446 11.4955 10.0254C11.2928 9.00614 11.3968 7.94969 11.7945 6.98961C12.1922 6.02953 12.8656 5.20893 13.7297 4.63159C14.5937 4.05425 15.6096 3.74609 16.6487 3.74609C18.0423 3.74609 19.3787 4.29966 20.364 5.28502C21.3494 6.27037 21.903 7.6068 21.903 9.00031Z" fill="#F59511"/>
<path d="M15.4381 9.00031C15.4381 10.0395 15.13 11.0553 14.5526 11.9194C13.9753 12.7834 13.1547 13.4569 12.1946 13.8546C11.2345 14.2523 10.1781 14.3563 9.15886 14.1536C8.13964 13.9508 7.20343 13.4504 6.46861 12.7156C5.7338 11.9808 5.23338 11.0446 5.03065 10.0254C4.82791 9.00614 4.93196 7.94969 5.32964 6.98961C5.72732 6.02953 6.40077 5.20893 7.26482 4.63159C8.12887 4.05425 9.14472 3.74609 10.1839 3.74609C11.5774 3.74609 12.9138 4.29966 13.8992 5.28502C14.8846 6.27037 15.4381 7.6068 15.4381 9.00031Z" fill="#EA1C24"/>
<path d="M13.428 4.85938C12.7995 5.35082 12.2911 5.97895 11.9415 6.69613C11.5919 7.4133 11.4102 8.20068 11.4102 8.99853C11.4102 9.79638 11.5919 10.5838 11.9415 11.3009C12.2911 12.0181 12.7995 12.6462 13.428 13.1377C14.0565 12.6462 14.5649 12.0181 14.9145 11.3009C15.2641 10.5838 15.4458 9.79638 15.4458 8.99853C15.4458 8.20068 15.2641 7.4133 14.9145 6.69613C14.5649 5.97895 14.0565 5.35082 13.428 4.85938Z" fill="#F14D1C"/>
</svg>
