<svg width="48" height="16" viewBox="0 0 48 16" fill="none" xmlns="http://www.w3.org/2000/svg">
<path fill-rule="evenodd" clip-rule="evenodd" d="M9.938 9.21985L13.8539 9.21484L13.7112 10.1062L10.4363 13.2334L13.1854 13.2284L13.0251 14.1898L8.97656 14.1923L9.14682 13.1983L12.2865 10.1913H9.78027L9.938 9.21985Z" fill="#D13239"/>
<path fill-rule="evenodd" clip-rule="evenodd" d="M5.65348 7.69497C5.56835 7.60484 5.44567 7.53473 5.31047 7.47965C5.16279 7.42443 5.01022 7.38336 4.85478 7.35696C4.68264 7.32682 4.50864 7.30841 4.334 7.30188C4.20881 7.29687 4.12869 7.29688 4.12869 7.29688H1.14171L0 14.1922H1.0666L1.48723 11.6384L3.55533 11.6484C3.55533 11.6484 4.36154 11.6809 4.9324 11.378C5.50326 11.075 5.65598 10.3865 5.65598 10.3865C5.65598 10.3865 5.71858 10.1311 5.77116 9.82065C5.82874 9.47764 5.88633 9.06702 5.91638 8.8492C5.92889 8.75406 5.93641 8.69397 5.93641 8.69397C5.94715 8.63449 5.95218 8.57413 5.95143 8.5137C5.95685 8.3039 5.90859 8.0962 5.81122 7.91029C5.7686 7.83173 5.71554 7.75929 5.65348 7.69497ZM4.83225 8.91179C4.83225 8.92431 4.73711 9.47764 4.61192 10.1336C4.56435 10.384 4.37156 10.5192 4.15123 10.5668C3.78568 10.6444 3.39259 10.6294 3.39259 10.6294L1.665 10.6244L2.04557 8.33343L3.61042 8.33843C3.61042 8.33843 3.71557 8.33593 3.8633 8.33843C4.05492 8.33934 4.24635 8.35104 4.43666 8.37349C4.59439 8.39352 4.71958 8.42606 4.75964 8.47614C4.80733 8.54205 4.83514 8.62025 4.83976 8.70148C4.84514 8.77164 4.84262 8.84219 4.83225 8.91179Z" fill="#D13239"/>
<path fill-rule="evenodd" clip-rule="evenodd" d="M19.1634 7.29688H20.19L19.0408 14.1922L18.0117 14.1897L19.1634 7.29688Z" fill="#D13239"/>
<path fill-rule="evenodd" clip-rule="evenodd" d="M24.6406 9.22235L25.6246 9.21985L25.9726 12.7201L27.4874 9.21484L28.7017 9.21735L29.0598 12.7326L30.572 9.21985H31.5936L29.4253 14.1898H28.2135L27.863 10.7096L26.3332 14.1898L25.1414 14.1948L24.6406 9.22235Z" fill="#D13239"/>
<path d="M17.2684 9.26071C16.9804 9.16808 16.4822 9.14805 16.059 9.15305C15.6509 9.15806 15.4631 9.17809 15.3104 9.21064C15.3104 9.21064 14.5843 9.3158 14.1712 9.82656C13.7581 10.3373 13.6354 11.454 13.6354 11.454C13.6354 11.454 13.39 12.6884 13.4627 13.1015C13.5353 13.5146 13.663 13.8952 14.1286 14.0729C14.4033 14.1807 14.695 14.2384 14.9899 14.2432C14.9899 14.2432 15.8212 14.3083 16.4471 14.1606C16.8209 14.0724 17.1563 13.866 17.4036 13.5722C17.5013 13.4423 17.586 13.3031 17.6564 13.1566C17.7184 13.0277 17.7662 12.8926 17.7991 12.7535L17.8642 12.4856L16.8001 12.4881C16.8001 12.4881 16.7426 13.1916 16.1667 13.2567C15.5908 13.3218 15.2854 13.2968 15.1727 13.2918C15.06 13.2868 14.4466 13.3143 14.4967 12.7985C14.4965 12.7876 14.4974 12.7767 14.4992 12.766C14.5267 12.1801 14.5918 12.0274 14.5918 12.0274L17.9343 12.0173L18.0771 11.1911C18.2423 10.2547 18.1246 9.54113 17.2684 9.26071ZM17.0455 11.0734L14.7546 11.0709L14.8447 10.7079C14.8447 10.7079 14.9248 10.4225 15.0826 10.3023C15.2403 10.1821 15.4456 10.1596 15.6359 10.142C15.8262 10.1245 16.3345 10.087 16.7476 10.1721C16.8853 10.1996 17.0155 10.2772 17.0505 10.3924C17.1306 10.6628 17.0455 11.0734 17.0455 11.0734Z" fill="#D13239"/>
<path d="M14.5032 12.7774C14.5032 12.7849 14.5007 12.7924 14.5007 12.7999C14.4982 12.84 14.5032 12.7749 14.5032 12.7774Z" fill="#D13239"/>
<path d="M20.8072 12.7774C20.8072 12.7849 20.8047 12.7924 20.8047 12.8C20.8047 12.84 20.8072 12.7749 20.8072 12.7774Z" fill="#D13239"/>
<path d="M23.5769 9.26462C23.289 9.17198 22.7908 9.15195 22.3676 9.15696C21.9595 9.16197 21.7717 9.182 21.619 9.21455C21.619 9.21455 20.8929 9.3197 20.4798 9.83047C20.0667 10.3412 19.944 11.4579 19.944 11.4579C19.944 11.4579 19.6986 12.6923 19.7712 13.1054C19.8439 13.5185 19.9715 13.8991 20.4372 14.0768C20.7119 14.1846 21.0036 14.2423 21.2985 14.2471C21.2985 14.2471 22.1298 14.3122 22.7557 14.1645C23.1295 14.0763 23.4649 13.8699 23.7121 13.5761C23.8099 13.4462 23.8946 13.307 23.965 13.1605C24.027 13.0316 24.0748 12.8965 24.1077 12.7574L24.1728 12.4895L23.1087 12.492C23.1087 12.492 23.0512 13.1955 22.4753 13.2606C22.1457 13.3016 21.8131 13.3142 21.4813 13.2982C21.3711 13.2932 20.7552 13.3182 20.8053 12.8049C20.8051 12.794 20.806 12.7831 20.8078 12.7724C20.8353 12.1865 20.9004 12.0338 20.9004 12.0338L24.2429 12.0238L24.3857 11.1975C24.5509 10.2586 24.4332 9.54254 23.5769 9.26462ZM23.3441 11.0748L21.0532 11.0723L21.1433 10.7093C21.1433 10.7093 21.2234 10.4239 21.3812 10.3037C21.5389 10.1835 21.7442 10.161 21.9345 10.1434C22.1248 10.1259 22.633 10.0884 23.0462 10.1735C23.1839 10.201 23.3141 10.2786 23.3491 10.3938C23.4292 10.6617 23.3441 11.0748 23.3441 11.0748Z" fill="#D13239"/>
<path fill-rule="evenodd" clip-rule="evenodd" d="M32.7772 9.22125L33.4357 12.8567L35.296 9.21875L36.3425 9.22877L33.661 14.4241C33.661 14.4241 33.1753 15.3655 32.8748 15.6033C32.5744 15.8412 32.3891 15.9488 32.1437 15.9739C31.8984 15.9989 31.7982 16.0164 31.5629 15.9739L31.3125 15.9288L31.4677 14.9999C31.4677 14.9999 31.8834 15.0775 32.1287 14.9799C32.3741 14.8822 32.5744 14.4616 32.5744 14.4616L32.6996 14.2513L31.7306 9.21875L32.7772 9.22125Z" fill="#D13239"/>
<path fill-rule="evenodd" clip-rule="evenodd" d="M36.7227 9.71488L37.8018 9.71738L37.8669 9.29926C37.8669 9.29926 37.9821 8.54312 38.24 8.3979C38.3226 8.35033 38.4553 8.30776 38.608 8.28022C38.891 8.23015 39.249 8.22514 39.5419 8.23516C39.9901 8.25018 40.1604 8.25519 40.6161 8.30777C41.0717 8.36034 40.9566 8.80101 40.9566 8.80101L40.8664 9.4595C40.8664 9.4595 40.8264 9.75494 40.7212 9.93772C40.6286 10.1005 40.3732 10.2106 40.2255 10.2582C39.8699 10.3734 38.6531 10.6838 38.6531 10.6838L37.6967 10.9593C37.6967 10.9593 37.1083 11.1295 36.7803 11.4926C36.5289 11.7748 36.3546 12.1172 36.2745 12.4865C36.2294 12.7019 35.9766 14.1916 35.9766 14.1916L41.1393 14.1941L41.3121 13.1626L37.2285 13.1676L37.3011 12.7469C37.3011 12.7469 37.3486 12.3138 37.5239 12.1711C37.579 12.126 37.6065 12.0659 37.932 11.9507C38.1273 11.8806 38.7933 11.7029 38.7933 11.7029L40.3331 11.2822C40.3331 11.2822 41.1744 11.0669 41.5049 10.6062C41.8354 10.1455 41.9631 9.26921 41.9631 9.26921C41.9631 9.26921 42.0532 8.41543 41.9831 8.14752C41.913 7.87962 41.6626 7.55914 41.3547 7.42143C41.0467 7.28373 40.7262 7.2036 39.7973 7.21612C38.8684 7.22864 38.4077 7.27121 37.937 7.44647C37.4663 7.62173 37.1934 7.9347 37.0206 8.38037C36.8329 8.80351 36.7227 9.71488 36.7227 9.71488Z" fill="#B3B2B1"/>
<path fill-rule="evenodd" clip-rule="evenodd" d="M46.4405 11.6334L47.164 7.29688H45.8821L41.8912 11.5833L41.7109 12.6699H45.2011L44.9457 14.1922L46.0173 14.1947L46.2702 12.6699L47.2592 12.6724L47.4369 11.6334H46.4405ZM45.3739 11.6359L43.118 11.6334L45.8646 8.70649L45.3739 11.6359Z" fill="#B3B2B1"/>
<path fill-rule="evenodd" clip-rule="evenodd" d="M7.91797 7.8655H11.2054C11.2054 7.8655 11.9415 7.26961 12.4648 6.88653C12.9881 6.50346 13.9395 5.90005 13.9395 5.90005L12.0817 5.03125C12.0817 5.03125 10.5118 6.00271 9.84585 6.46089C9.19989 6.88403 7.91797 7.8655 7.91797 7.8655Z" fill="#B3B2B1"/>
<path fill-rule="evenodd" clip-rule="evenodd" d="M14.9818 5.28879L13.457 4.26226C14.4965 3.69169 15.5701 3.18581 16.6719 2.74749C18.5046 2.01639 19.4836 1.71094 19.4836 1.71094L19.794 3.16561C19.794 3.16561 18.0289 3.7565 17.0174 4.23471C15.9708 4.68038 14.9818 5.28879 14.9818 5.28879Z" fill="#B3B2B1"/>
<path fill-rule="evenodd" clip-rule="evenodd" d="M20.9216 2.84668L20.6562 1.35694C20.6562 1.35694 22.5391 0.856191 24.2617 0.53571C25.9843 0.215229 28.2727 0.0625 28.2727 0.0625L27.5166 2.36345C27.5166 2.36345 25.5061 2.08804 23.6182 2.34593C22.7098 2.45628 21.8091 2.62353 20.9216 2.84668Z" fill="#B3B2B1"/>
<path fill-rule="evenodd" clip-rule="evenodd" d="M28.7109 2.5592L29.9828 0.0028629C29.9828 0.0028629 32.7695 -0.0522198 35.1731 0.32084C37.5767 0.693899 39.775 1.26225 39.7275 1.28729L33.6333 4.47457C33.6333 4.47457 32.2087 3.57322 30.441 3.01989C29.4395 2.72444 28.7109 2.5592 28.7109 2.5592Z" fill="#B3B2B1"/>
<path fill-rule="evenodd" clip-rule="evenodd" d="M34.7266 5.16707L36.0661 6.1836H47.0751C47.0751 6.1836 47.0526 5.82806 46.7596 5.32231C46.5768 5.00683 46.2438 4.67133 45.8958 4.32331C45.7681 4.19812 45.2624 3.80253 44.8818 3.55465C43.9103 2.92371 43.367 2.68084 42.358 2.22266L34.7266 5.16707Z" fill="#B3B2B1"/>
<path d="M8.63161 9.21484C8.21849 9.21484 7.8279 9.37759 7.4949 9.56036L7.55249 9.21484H6.45835L5.58203 14.1648H6.67868L7.1644 11.4232C7.26455 10.8673 7.68018 10.1788 8.49139 10.1788L9.05724 10.1763L9.2275 9.21484H8.63161Z" fill="#D13239"/>
</svg>
