<svg width="24" height="12" viewBox="0 0 24 12" fill="none" xmlns="http://www.w3.org/2000/svg">
<g opacity="0.5">
<path d="M11.6 0C5.51387 0 0.693422 5.23367 0.492356 5.45724L0 5.99865L0.492356 6.54007C0.693422 6.76364 5.51387 12 11.6 12C17.6861 12 22.5066 6.76633 22.7076 6.54276L23.2 5.99865L22.7076 5.45724C22.5066 5.23367 17.6861 0 11.6 0ZM11.6 10.3892C9.28 10.3892 7.39822 8.4229 7.39822 5.99865C7.39822 3.57441 9.28 1.60808 11.6 1.60808C13.92 1.60808 15.8018 3.57441 15.8018 5.99865C15.7992 8.4229 13.92 10.3865 11.6 10.3892ZM7.192 2.57778C5.73813 4.60606 5.73813 7.39125 7.192 9.41953C5.33858 8.57104 3.63209 7.41549 2.13182 5.99865C3.62951 4.58182 5.33858 3.42626 7.192 2.57778ZM16.0054 9.42492C17.4644 7.39663 17.4644 4.60606 16.008 2.57778C17.8614 3.42626 19.5705 4.58182 21.0682 5.99865C19.5705 7.42088 17.8588 8.57913 16.0054 9.42492Z" fill="black"/>
<path d="M13.8538 5.57591C13.3511 6.10116 12.4747 6.03921 11.8972 5.43584C11.3198 4.83248 11.2605 3.91934 11.7632 3.39409C11.8508 3.3052 11.9514 3.23248 12.0622 3.1786C11.9101 3.14897 11.7555 3.13281 11.6008 3.13281C10.0851 3.13281 8.85547 4.41766 8.85547 6.0015C8.85547 7.58534 10.0851 8.87019 11.6008 8.87019C13.1165 8.87019 14.3461 7.58534 14.3461 6.0015C14.3461 5.64864 14.2817 5.29847 14.158 4.96985C14.1167 5.19611 14.011 5.40891 13.8538 5.57591Z" fill="black"/>
</g>
</svg>
