<svg width="24" height="14" viewBox="0 0 24 14" fill="none" xmlns="http://www.w3.org/2000/svg">
<path d="M6.8 10.2258C5.1 9.42578 3.5 8.32578 2.1 7.02578C3.6 5.62578 5.3 4.42578 7.2 3.62578C5.8 5.42578 5.8 8.02578 7 10.0258L8 9.02578C7.6 8.42578 7.4 7.72578 7.4 6.92578C7.4 4.52578 9.3 2.52578 11.6 2.52578C12.4 2.52578 13.1 2.72578 13.8 3.12578L15.4 1.62578C14.2 1.22578 13 0.925781 11.6 0.925781C5.5 0.925781 0.7 6.22578 0.5 6.42578L0 6.92578L0.5 7.42578C0.6 7.52578 2.6 9.72578 5.6 11.3258L6.8 10.2258Z" fill="black" fill-opacity="0.2"/>
<path d="M11.6008 9.82617C13.1008 9.82617 14.3008 8.52617 14.3008 6.92617C14.3008 6.72617 14.3008 6.52617 14.2008 6.32617L10.8008 9.72617C11.1008 9.82617 11.3008 9.82617 11.6008 9.82617Z" fill="black" fill-opacity="0.2"/>
<path d="M12.1004 4.12695C11.9004 4.12695 11.8004 4.12695 11.6004 4.12695C10.1004 4.12695 8.90039 5.42695 8.90039 7.02695C8.90039 7.42695 9.00039 7.72695 9.10039 8.02695L11.5004 5.62695C11.4004 5.22695 11.5004 4.72695 11.8004 4.42695C11.9004 4.22695 12.0004 4.22695 12.1004 4.12695Z" fill="black" fill-opacity="0.2"/>
<path d="M22.6996 6.42656C22.5996 6.32656 20.6996 4.22656 17.8996 2.72656L16.6996 3.92656C18.2996 4.72656 19.7996 5.72656 21.0996 7.02656C19.5996 8.42656 17.8996 9.62656 15.9996 10.4266C17.2996 8.62656 17.3996 6.12656 16.3996 4.22656L15.3996 5.22656C15.5996 5.72656 15.7996 6.42656 15.7996 7.02656C15.7996 9.42656 13.8996 11.4266 11.5996 11.4266C10.8996 11.4266 10.2996 11.2266 9.69961 10.9266L8.09961 12.5266C9.19961 12.8266 10.2996 13.0266 11.4996 13.0266C17.5996 13.0266 22.3996 7.82656 22.5996 7.52656L23.1996 6.92656L22.6996 6.42656Z" fill="black" fill-opacity="0.2"/>
<path d="M17.9174 0.00053937L4.88867 13.0293L5.8079 13.9485L18.8367 0.919769L17.9174 0.00053937Z" fill="black" fill-opacity="0.2"/>
</svg>
