<svg width="18" height="22" viewBox="0 0 18 22" fill="none" xmlns="http://www.w3.org/2000/svg">
<path d="M15.1008 10.2C14.8008 10.1 14.5008 10 14.2008 9.9V7.7C14.2008 4.8 11.9008 2.5 9.00078 2.5C6.10078 2.5 3.80078 4.8 3.80078 7.7V9.9C3.50078 9.9 3.20078 10 2.90078 10.1C2.50078 10.3 2.30078 10.6 2.30078 11V17.5C2.30078 17.9 2.60078 18.3 2.90078 18.4C4.90078 19.1 6.90078 19.5 9.00078 19.5C11.1008 19.5 13.1008 19.1 15.1008 18.4C15.5008 18.2 15.7008 17.9 15.7008 17.5V11C15.7008 10.6 15.5008 10.3 15.1008 10.2ZM4.40078 7.7C4.40078 5.2 6.50078 3.1 9.00078 3.1C11.5008 3.1 13.6008 5.2 13.6008 7.7V9.7C13.1008 9.5 12.4008 9.4 11.8008 9.3V7.7C11.8008 6.2 10.5008 4.9 9.00078 4.9C7.50078 4.9 6.20078 6.1 6.20078 7.7V9.3C5.60078 9.4 5.00078 9.5 4.40078 9.6V7.7ZM11.2008 7.7V9.2C9.70078 9 8.30078 9 6.80078 9.2V7.7C6.80078 6.5 7.80078 5.5 9.00078 5.5C10.2008 5.5 11.2008 6.5 11.2008 7.7ZM15.1008 17.5C15.1008 17.7 15.0008 17.8 14.9008 17.8C11.1008 19.2 6.90078 19.2 3.10078 17.8C3.10078 17.7 3.00078 17.6 3.00078 17.5V11C3.00078 10.8 3.10078 10.7 3.20078 10.7C5.00078 10.1 7.00078 9.7 9.00078 9.7C11.0008 9.7 13.0008 10.1 14.9008 10.8C15.0008 10.9 15.1008 11 15.1008 11.1V17.5Z" fill="#B3B2B1"/>
<path d="M9.00117 11.8984C8.30117 11.8984 7.70117 12.4984 7.70117 13.1984C7.70117 13.7984 8.10117 14.3984 8.80117 14.4984V16.1984H9.40117V14.4984C10.0012 14.2984 10.5012 13.7984 10.5012 13.1984C10.3012 12.4984 9.70117 11.8984 9.00117 11.8984ZM9.00117 14.0984C8.60117 14.0984 8.30117 13.6984 8.30117 13.3984C8.30117 12.9984 8.70117 12.6984 9.00117 12.6984C9.40117 12.6984 9.70117 13.0984 9.70117 13.3984C9.70117 13.6984 9.40117 14.0984 9.00117 14.0984Z" fill="#B3B2B1"/>
</svg>
