<svg width="18" height="22" viewBox="0 0 18 22" fill="none" xmlns="http://www.w3.org/2000/svg">
<path d="M8.99922 4.69922C5.49922 4.69922 2.69922 7.49922 2.69922 10.9992C2.69922 14.4992 5.49922 17.2992 8.99922 17.2992C12.4992 17.2992 15.2992 14.4992 15.2992 10.9992C15.2992 7.49922 12.4992 4.69922 8.99922 4.69922ZM8.99922 16.6992C5.89922 16.6992 3.29922 14.0992 3.29922 10.9992C3.29922 7.89922 5.89922 5.29922 8.99922 5.29922C12.0992 5.29922 14.6992 7.89922 14.6992 10.9992C14.6992 14.0992 12.0992 16.6992 8.99922 16.6992Z" fill="#B3B2B1"/>
<path d="M9 3C4.6 3 1 6.6 1 11C1 15.4 4.6 19 9 19C13.4 19 17 15.4 17 11C17 6.6 13.4 3 9 3ZM9 18.4C4.9 18.4 1.6 15.1 1.6 11C1.6 6.9 4.9 3.6 9 3.6C13.1 3.6 16.4 6.9 16.4 11C16.4 15.1 13.1 18.4 9 18.4Z" fill="#B3B2B1"/>
<path d="M11.7992 7.69922L8.99922 10.5992L6.19922 7.69922L5.69922 8.19922L8.59922 10.9992L5.69922 13.8992L6.19922 14.3992L8.99922 11.4992L11.7992 14.3992L12.2992 13.8992L9.39922 10.9992L12.2992 8.19922L11.7992 7.69922Z" fill="#B3B2B1"/>
</svg>
