<svg width="16" height="16" viewBox="0 0 16 16" fill="none" xmlns="http://www.w3.org/2000/svg">
<path d="M14.6759 3.5793C13.827 2.26195 12.5065 1.22689 11.0917 0.662313C9.58252 0.0036389 7.97906 -0.184554 6.3756 0.191831C4.86646 0.47412 3.45164 1.22689 2.31979 2.35604C1.18793 3.4852 0.433366 4.89664 0.150402 6.49628C-0.132562 8.00182 -0.0382403 9.69555 0.622008 11.107C1.18793 12.6125 2.22547 13.8358 3.54596 14.6827C4.86646 15.5295 6.3756 16 7.97906 16C10.1484 16 12.1292 15.1531 13.6383 13.6476C15.1475 12.1421 15.9964 10.166 15.9964 8.00182C15.9964 6.40218 15.5248 4.89664 14.6759 3.5793Z" fill="#129D6F"/>
<path d="M8.92099 7.06072V3.29688H7.03457V7.06072H3.26172V8.94265H7.03457V12.7065H8.92099V8.94265H12.6938V7.06072H8.92099Z" fill="white"/>
</svg>
