<svg width="18" height="22" viewBox="0 0 18 22" fill="none" xmlns="http://www.w3.org/2000/svg">
<path d="M17.5 16.5977L16.1 11.8977C16.1 11.5977 15.8 11.3977 15.6 11.1977C15.3 10.6977 14.7 10.2977 14.1 10.3977C13.7 9.89766 13.2 9.49766 12.6 9.29766C12.1 8.49766 11 7.99766 10 8.29766C9.5 7.69766 8.4 7.69766 7.7 8.29766C6.8 8.09766 5.7 8.49766 5.3 9.39766C4.7 9.49766 4.1 9.89766 3.8 10.4977C3.2 10.3977 2.6 10.7977 2.3 11.2977C1.9 11.4977 1.8 11.6977 1.8 11.8977L0 18.0977C0 18.0977 0 18.1977 0 18.2977C0.3 19.6977 4.9 20.3977 9 20.3977C13.1 20.3977 17.7 19.8977 18 18.3977C18 18.1977 17.5 16.5977 17.5 16.5977ZM2.2 12.8977C3.3 13.3977 5.8 14.0977 9.1 14.0977C11.7 14.0977 14.2 13.4977 15.8 12.8977L16.9 16.2977C15.7 16.8977 12.9 17.5977 9 17.5977C5.1 17.5977 2.3 17.0977 1.1 16.2977L2.2 12.8977ZM2.9 11.6977C3 11.3977 3.4 10.9977 3.8 11.1977C4 11.2977 4.2 11.1977 4.3 10.9977C4.5 10.4977 5 10.0977 5.6 10.0977C5.7 10.0977 5.9 9.99766 5.9 9.89766C6.3 9.19766 7.2 8.79766 7.9 9.19766C8.1 9.29766 8.3 9.19766 8.4 9.09766C8.7 8.59766 9.5 8.59766 9.8 9.09766C9.9 9.29766 10.1 9.29766 10.3 9.19766C11 8.79766 11.9 9.19766 12.3 9.89766C12.4 9.99766 12.5 10.0977 12.6 10.0977C13.1 10.0977 13.7 10.4977 13.9 10.9977C14 11.1977 14.2 11.2977 14.4 11.1977C14.8 11.0977 15 11.3977 15.1 11.7977C15.5 11.8977 15.6 12.2977 15.5 12.3977C14.4 12.7977 11.2 13.3977 9.4 13.3977C7 13.3977 4.6 12.8977 3.1 12.4977C2.9 12.3977 2.9 12.2977 3 12.0977C2.6 11.8977 2.7 11.6977 2.9 11.6977ZM9 19.3977C3.8 19.3977 0.9 18.4977 0.7 17.9977L1 17.0977C2.4 17.7977 5.5 18.3977 9.1 18.3977C12.7 18.3977 15.8 17.8977 17.2 17.0977L17.4 17.6977L17.5 17.9977C17.1 18.4977 14.1 19.3977 9 19.3977Z" fill="#B3B2B1"/>
<path d="M6.5 11.6V11C5.7 11 5.1 11.6 5 12.4H5.6C5.7 12 6.1 11.6 6.5 11.6Z" fill="#B3B2B1"/>
<path d="M12.2008 12.4H12.8008C12.8008 11.6 12.1008 11 11.3008 11V11.6C11.8008 11.6 12.2008 12 12.2008 12.4Z" fill="#B3B2B1"/>
<path d="M9.59922 10.2992L9.99922 9.89922C9.49922 9.29922 8.39922 9.29922 7.69922 9.89922L8.19922 10.2992C8.69922 9.99922 9.19922 9.99922 9.59922 10.2992Z" fill="#B3B2B1"/>
<path d="M8.59916 6.89844L8.99916 6.49844C8.19916 5.59844 8.49916 5.09844 8.89916 4.39844C9.29916 3.79844 9.69916 2.89844 8.69916 1.89844L8.09916 2.29844C8.89916 2.99844 8.59916 3.39844 8.19916 3.99844C7.89916 4.79844 7.29916 5.79844 8.59916 6.89844Z" fill="#B3B2B1"/>
<path d="M5.60006 7.79766L6.00006 7.19766C5.00006 6.59766 5.20006 6.09766 5.50006 5.49766C5.80006 4.89766 6.20006 3.99766 5.10006 3.09766L4.70006 3.69766C5.40006 4.19766 5.20006 4.59766 4.90006 5.19766C4.60006 5.89766 4.20006 6.79766 5.60006 7.79766Z" fill="#B3B2B1"/>
<path d="M12.2995 7.79922L12.6995 7.29922C11.6995 6.69922 11.8995 6.19922 12.1995 5.59922C12.4995 4.99922 12.8995 4.19922 11.6995 3.19922L11.1995 3.69922C11.8995 4.19922 11.6995 4.59922 11.3995 5.19922C11.1995 5.89922 10.7995 6.79922 12.2995 7.79922Z" fill="#B3B2B1"/>
</svg>
