<svg width="18" height="22" viewBox="0 0 18 22" fill="none" xmlns="http://www.w3.org/2000/svg">
<path d="M13.7008 9.09922C13.5008 9.09922 13.3008 8.99922 13.0008 8.89922V7.19922C13.0008 4.89922 11.2008 3.19922 9.00078 3.19922C6.80078 3.19922 5.00078 4.99922 5.00078 7.19922V8.89922C4.70078 8.89922 4.50078 8.99922 4.30078 9.09922C4.00078 9.19922 3.80078 9.39922 3.80078 9.79922V14.1992C3.80078 14.4992 4.00078 14.7992 4.30078 14.8992C5.90078 15.3992 7.40078 15.7992 9.00078 15.7992C10.6008 15.7992 12.2008 15.4992 13.7008 14.8992C14.0008 14.6992 14.2008 14.4992 14.2008 14.1992V9.79922C14.2008 9.39922 14.0008 9.19922 13.7008 9.09922ZM5.40078 7.19922C5.40078 5.29922 7.00078 3.59922 9.00078 3.59922C11.0008 3.59922 12.6008 5.19922 12.6008 7.19922V8.79922C12.2008 8.59922 11.7008 8.59922 11.2008 8.49922V7.19922C11.2008 5.99922 10.2008 4.99922 9.00078 4.99922C7.80078 4.99922 6.80078 5.89922 6.80078 7.19922V8.39922C6.40078 8.49922 5.90078 8.59922 5.40078 8.69922V7.19922ZM10.7008 7.19922V8.39922C9.50078 8.19922 8.40078 8.19922 7.30078 8.39922V7.19922C7.30078 6.29922 8.10078 5.49922 9.00078 5.49922C9.90078 5.49922 10.7008 6.29922 10.7008 7.19922ZM13.7008 14.1992C13.7008 14.3992 13.6008 14.3992 13.5008 14.3992C10.5008 15.4992 7.30078 15.4992 4.30078 14.3992C4.30078 14.2992 4.20078 14.1992 4.20078 14.1992V9.79922C4.20078 9.59922 4.30078 9.59922 4.40078 9.59922C5.80078 9.09922 7.40078 8.79922 8.90078 8.79922C10.4008 8.79922 12.0008 9.09922 13.5008 9.69922C13.6008 9.79922 13.7008 9.89922 13.7008 9.89922C13.7008 9.79922 13.7008 14.1992 13.7008 14.1992Z" fill="#B3B2B1"/>
<path d="M7.1 12.7C7.1 12.6 7.1 12.5 7 12.4C6.9 12.3 6.8 12.3 6.6 12.2C6.4 12.1 6.2 12.1 6.1 12C5.8 11.8 5.6 11.6 5.6 11.3C5.6 11.1 5.6 11 5.7 10.9C5.8 10.8 5.9 10.7 6.1 10.6C6.3 10.5 6.4 10.5 6.7 10.5C6.9 10.5 7.1 10.5 7.2 10.6C7.4 10.7 7.5 10.8 7.6 10.9C7.7 11 7.7 11.2 7.7 11.4H7.1C7.1 11.3 7.1 11.2 7 11.1C6.9 11 6.8 11 6.7 11C6.6 11 6.4 11 6.4 11.1C6.4 11.2 6.3 11.2 6.3 11.3C6.3 11.4 6.3 11.5 6.4 11.5C6.5 11.6 6.6 11.6 6.8 11.7C7.1 11.8 7.4 11.9 7.5 12.1C7.6 12.3 7.7 12.4 7.7 12.7C7.7 12.9 7.6 13.1 7.4 13.3C7.2 13.4 7 13.5 6.6 13.5C6.4 13.5 6.2 13.5 6 13.4C5.8 13.3 5.7 13.2 5.6 13.1C5.5 13 5.5 12.8 5.5 12.6H6.1C6.1 12.9 6.3 13.1 6.7 13.1C6.8 13.1 7 13.1 7 13C7.1 12.8 7.1 12.8 7.1 12.7Z" fill="#B3B2B1"/>
<path d="M9.6 12.7C9.6 12.6 9.6 12.5 9.5 12.4C9.4 12.3 9.3 12.3 9.1 12.2C8.9 12.1 8.7 12.1 8.6 12C8.3 11.8 8.1 11.6 8.1 11.3C8.1 11.1 8.1 11 8.2 10.9C8.3 10.8 8.4 10.7 8.6 10.6C8.8 10.5 8.9 10.5 9.2 10.5C9.4 10.5 9.6 10.5 9.7 10.6C9.9 10.7 10 10.8 10.1 10.9C10.2 11 10.2 11.2 10.2 11.4H9.6C9.6 11.3 9.6 11.2 9.5 11.1C9.4 11 9.3 11 9.2 11C9.1 11 8.9 11 8.9 11.1C8.9 11.2 8.8 11.2 8.8 11.3C8.8 11.4 8.8 11.5 8.9 11.5C9 11.6 9.1 11.6 9.3 11.7C9.6 11.8 9.9 11.9 10 12.1C10.1 12.3 10.2 12.4 10.2 12.7C10.2 12.9 10.1 13.1 9.9 13.3C9.7 13.4 9.5 13.5 9.1 13.5C8.9 13.5 8.7 13.5 8.5 13.4C8.3 13.3 8.2 13.2 8.1 13.1C8.1 12.9 8 12.7 8 12.5H8.6C8.6 12.8 8.8 13 9.2 13C9.3 13 9.5 13 9.5 12.9C9.6 12.8 9.6 12.8 9.6 12.7Z" fill="#B3B2B1"/>
<path d="M11.1992 12.9H12.4992V13.4H10.6992V10.5H11.2992V12.9H11.1992Z" fill="#B3B2B1"/>
<path d="M9.00064 21.2008H8.90064C-1.79936 16.9008 0.300641 2.20078 0.400641 2.10078V1.90078L9.00064 0.800781L17.6006 1.90078V2.10078C17.6006 2.20078 19.8006 16.9008 9.10064 21.2008H9.00064ZM0.900641 2.40078C0.700641 4.20078 -0.499359 16.7008 9.00064 20.6008C18.5006 16.7008 17.3006 4.20078 17.1006 2.40078L9.00064 1.40078L0.900641 2.40078Z" fill="#B3B2B1"/>
<path d="M8.99976 19.3992H8.89976C0.0997634 15.8992 1.89976 3.89922 1.89976 3.79922V3.59922L8.89976 2.69922L15.8998 3.59922V3.79922C15.8998 3.89922 17.6998 15.7992 8.89976 19.3992H8.99976ZM2.49976 4.09922C2.29976 5.69922 1.39976 15.5992 8.99976 18.6992C16.5998 15.5992 15.6998 5.69922 15.4998 3.99922L8.99976 3.19922L2.49976 4.09922Z" fill="#B3B2B1"/>
</svg>
