<svg width="241" height="201" viewBox="0 0 241 201" fill="none" xmlns="http://www.w3.org/2000/svg">
<path d="M69.2416 142.13C49.8952 137.177 2.16406 166.295 2.16406 166.295L17.0287 175.826L11.1276 197.589C11.1276 197.589 58.8587 168.546 78.2051 173.424L69.2416 142.13Z" fill="white"/>
<path d="M9.33707 199.996L15.6863 176.356L0 166.3L1.56863 165.399C3.51074 164.198 49.972 136.131 69.5425 141.159L70.1401 141.309L79.9253 175.155L78.0579 174.705C59.3838 169.977 12.2502 198.42 11.8021 198.72L9.33707 199.996ZM4.2577 166.3L18.3007 175.305L12.9225 195.193C22.6331 189.564 58.5621 169.377 76.6387 172.003L68.2727 143.11C51.2418 139.508 12.4743 161.497 4.2577 166.3Z" fill="black"/>
<path d="M170.827 142.139C190.173 137.186 237.904 166.305 237.904 166.305L223.04 175.835L228.941 197.599C228.941 197.599 181.21 168.556 161.863 173.434L170.827 142.139Z" fill="white"/>
<path d="M230.662 200.002L228.272 198.576C227.824 198.276 180.69 169.833 162.016 174.561L160.148 175.011L169.934 141.165L170.531 141.015C190.102 136.062 236.488 164.13 238.505 165.255L240.074 166.156L224.387 176.212L230.662 200.002ZM166.796 171.784C185.62 171.784 217.964 189.871 227.077 195.199L221.698 175.312L235.741 166.306C227.525 161.503 188.757 139.514 171.652 143.041L163.286 171.935C164.406 171.86 165.601 171.784 166.796 171.784Z" fill="black"/>
<path d="M219.234 99.584L208.329 115.194L213.259 133.655L197.647 144.612L196.004 163.674L177.628 168.552L169.636 185.888L150.663 184.237L137.218 197.745L120.037 189.64L102.782 197.745L89.3371 184.237L70.3641 185.888L62.3716 168.552L43.9963 163.674L42.3529 144.612L26.7413 133.655L31.746 115.194L20.7656 99.584L31.746 83.8992L26.7413 65.4377L42.3529 54.5559L43.9963 35.494L62.3716 30.5409L70.3641 13.2051L89.3371 14.9311L102.782 1.34766L120.037 9.52777L137.218 1.34766L150.663 14.9311L169.636 13.2051L177.628 30.5409L196.004 35.494L197.647 54.5559L213.259 65.4377L208.329 83.8992L219.234 99.584Z" fill="white"/>
<path d="M137.442 199.099L119.963 190.844L102.484 199.099L88.8897 185.366L69.6927 187.092L61.6254 169.456L42.9513 164.503L41.308 145.216L25.4723 134.109L30.5517 115.422L19.4219 99.5872L30.477 83.7523L25.3976 65.0657L41.2333 53.9587L42.8766 34.6717L61.5507 29.7186L69.6927 12.0075L88.8897 13.7336L102.559 0L120.038 8.25516L137.442 0L151.037 13.7336L170.309 12.0075L178.376 29.6435L197.05 34.5966L198.694 53.8837L214.529 64.9906L209.45 83.6773L220.58 99.5122L209.45 115.347L214.529 134.034L198.694 145.216L197.05 164.503L178.376 169.456L170.309 187.092L151.112 185.366L137.442 199.099ZM120.038 188.368L136.994 196.398L150.216 183.039L168.89 184.69L176.733 167.58L194.884 162.777L196.453 144.015L211.84 133.208L206.91 114.972L217.667 99.5122L206.91 84.0525L211.84 65.8161L196.453 55.0094L194.884 36.2477L176.808 31.5197L168.964 14.409L150.29 16.06L136.994 2.70169L120.038 10.7317L103.007 2.70169L89.786 16.06L71.1119 14.409L63.1941 31.5197L45.0428 36.3227L43.4742 55.0844L28.012 65.8912L32.9419 84.1276L22.1856 99.5872L32.9419 115.047L28.012 133.283L43.3995 144.09L44.9681 162.852L63.1194 167.655L70.9625 184.765L89.6366 183.114L102.858 196.473L120.038 188.368Z" fill="black"/>
<path d="M120.035 178.164C163.228 178.164 198.243 142.985 198.243 99.5897C198.243 56.1944 163.228 21.0156 120.035 21.0156C76.8427 21.0156 41.8281 56.1944 41.8281 99.5897C41.8281 142.985 76.8427 178.164 120.035 178.164Z" fill="#F15748"/>
<path d="M120.035 179.217C76.3373 179.217 40.707 143.495 40.707 99.5924C40.707 55.6899 76.2626 19.8926 120.035 19.8926C163.807 19.8926 199.288 55.6149 199.288 99.5924C199.288 143.57 163.732 179.217 120.035 179.217ZM120.035 22.144C77.5324 22.144 42.9479 56.8907 42.9479 99.5924C42.9479 142.294 77.5324 176.966 120.035 176.966C162.537 176.966 197.047 142.219 197.047 99.5924C197.047 56.9657 162.462 22.144 120.035 22.144Z" fill="black"/>
<path d="M120.039 151.665C148.669 151.665 171.878 128.347 171.878 99.5826C171.878 70.8182 148.669 47.5 120.039 47.5C91.4085 47.5 68.1992 70.8182 68.1992 99.5826C68.1992 128.347 91.4085 151.665 120.039 151.665Z" fill="white"/>
<path d="M120.038 152.793C90.8316 152.793 67.0781 128.929 67.0781 99.5852C67.0781 70.2419 90.8316 46.377 120.038 46.377C149.244 46.377 172.998 70.2419 172.998 99.5852C172.998 128.929 149.244 152.793 120.038 152.793ZM120.038 48.5533C92.0268 48.5533 69.319 71.4426 69.319 99.5102C69.319 127.653 92.1015 150.467 120.038 150.467C148.049 150.467 170.757 127.578 170.757 99.5102C170.757 71.4426 147.975 48.5533 120.038 48.5533Z" fill="black"/>
<path d="M52.5878 105.891L61.9996 105.291L62.149 107.167L49.0771 108.067L48.9277 105.516L56.6214 102.889L48.7783 103.415L48.6289 101.613L61.7008 100.713L61.8502 102.814L52.5878 105.891Z" fill="white"/>
<path d="M62.1485 92.8223L61.9991 94.9236L59.6088 95.1487L59.4594 97.7003L61.775 98.2256L61.6256 100.102L48.7031 97.25L48.8525 94.2482L62.1485 92.8223ZM57.7414 97.25L57.8908 95.2988L51.2428 95.8992L57.7414 97.25Z" fill="white"/>
<path d="M60.4321 92.4547C60.5068 92.2296 60.5068 92.0044 60.5815 91.7793C60.6562 91.1039 60.5068 90.5785 59.5357 90.4284L49.6758 88.8524L49.9746 86.8262L59.6851 88.4022C62.2995 88.8524 62.673 90.3534 62.4489 91.8543C62.3742 92.2296 62.3742 92.5297 62.2248 92.8299L60.4321 92.4547Z" fill="white"/>
<path d="M50.4219 84.495L50.9447 82.4687L61.7758 85.2454L62.5974 81.9434L64.3901 82.3936L63.0456 87.6469L50.4219 84.495Z" fill="white"/>
<path d="M58.2643 77.2943L59.2354 74.6677L60.9534 75.3431L59.9823 77.9697L63.5678 79.3206L64.8376 76.0185L66.5556 76.6939L64.6135 81.9472L52.3633 77.2943L54.3054 72.041L56.0234 72.7164L54.7536 76.0185L58.2643 77.2943Z" fill="white"/>
<path d="M60.9543 65.8863L62.4482 66.6368C64.3156 67.6124 64.8385 69.0383 63.9421 70.8394L63.494 71.74L67.9011 73.9914L66.93 75.7925L55.2773 69.7887L56.6219 67.0871C57.6676 65.2859 59.0869 64.9107 60.9543 65.8863ZM57.8917 68.8882L61.8506 70.9144L62.2988 70.0139C62.5976 69.4135 62.5229 68.9632 61.6266 68.5129L59.9085 67.6124C59.0869 67.1621 58.6387 67.3872 58.3399 67.9126L57.8917 68.8882Z" fill="white"/>
<path d="M60.5818 60.1838C61.7023 58.5328 63.2709 58.3076 64.9889 59.5084L65.3624 59.7335L64.3166 61.3845L63.8685 61.0844C63.1215 60.559 62.5986 60.7091 62.2251 61.2344C61.8517 61.7598 61.9264 62.2851 62.748 62.8104C64.9889 64.3114 67.6033 61.2345 70.7405 63.3358C72.4586 64.5365 72.9067 66.0375 71.7863 67.7635C70.6658 69.4146 69.0972 69.6397 67.3792 68.514L66.7069 68.0637L67.7527 66.4127L68.4996 66.938C69.2466 67.4634 69.7695 67.3133 70.143 66.7879C70.5165 66.2626 70.4418 65.7373 69.6948 65.2119C67.4539 63.711 64.8395 66.7879 61.7023 64.6866C59.9096 63.4108 59.5361 61.8348 60.5818 60.1838Z" fill="white"/>
<path d="M67.4536 51.5527L68.8728 52.7535L73.504 61.8342L76.0437 58.8323L77.4629 60.0331L73.5787 64.686L72.1595 63.4852L67.5283 54.4045L65.138 57.2563L63.7188 56.0556L67.4536 51.5527Z" fill="white"/>
<path d="M76.4916 54.8501L68.6484 50.2723L70.2171 48.7713L75.4458 52.0734L72.5327 46.595L73.9519 45.2441L78.0602 53.4242L81.0481 56.5762L79.5541 58.0021L76.4916 54.8501Z" fill="white"/>
<path d="M85.4545 44.5041L88.5171 50.808L86.1268 52.309L77.9102 41.9525L79.6282 40.9018L86.0521 49.082L81.4209 39.8512L83.0642 38.8005L89.4881 47.0557L84.8569 37.6748L86.3509 36.6992L92.1025 48.6317L89.7869 50.0576L85.4545 44.5041Z" fill="white"/>
<path d="M93.8932 42.9238L87.9922 35.9444L89.9343 35.0438L93.7438 39.9219L92.7728 33.8431L94.5655 33.0176L95.6859 42.0982L97.404 46.0757L95.5365 46.9012L93.8932 42.9238Z" fill="white"/>
<path d="M103.383 33.391L103.532 33.8413C103.906 35.1171 103.756 36.0927 103.009 36.7682C104.205 36.8432 104.877 37.6687 105.25 39.0196L105.549 40.0702C106.147 42.0214 105.4 43.3723 103.458 43.9727L100.395 44.8732L96.6602 32.2653L99.648 31.3648C101.59 30.7644 102.785 31.5149 103.383 33.391ZM99.1251 33.5411L100.096 36.8432L100.843 36.6181C101.59 36.3929 101.964 35.9426 101.59 34.967L101.366 34.2916C101.067 33.391 100.694 33.0909 99.9468 33.316L99.1251 33.5411ZM100.619 38.6443L101.74 42.4717L102.86 42.0965C103.532 41.8713 103.756 41.4961 103.532 40.5205L103.233 39.3948C102.86 38.194 102.412 37.9689 101.515 38.2691L100.619 38.6443Z" fill="white"/>
<path d="M105.473 33.0921C105.1 30.9908 105.996 29.64 108.013 29.3398C110.03 28.9645 111.3 30.0152 111.673 32.0415L112.794 38.7957C113.167 40.897 112.271 42.2478 110.254 42.548C108.237 42.9233 106.967 41.8726 106.594 39.8463L105.473 33.0921ZM109.731 26.3379L108.237 28.7394L106.893 28.9645L107.789 26.7131L109.731 26.3379ZM108.611 39.5462C108.76 40.4467 109.208 40.7469 109.881 40.6719C110.553 40.5968 110.852 40.1465 110.702 39.246L109.507 32.2666C109.358 31.366 108.91 31.0658 108.237 31.1409C107.565 31.2159 107.266 31.6662 107.416 32.5668L108.611 39.5462Z" fill="white"/>
<path d="M118.469 41.5781C118.319 41.2779 118.244 41.0528 118.17 40.0021L118.095 37.9759C118.02 36.7751 117.572 36.3248 116.676 36.3999H116.004L116.228 41.7282L114.211 41.8033L113.613 28.67L116.676 28.5199C118.767 28.4449 119.738 29.3455 119.888 31.3717L119.962 32.4224C120.037 33.7732 119.664 34.6738 118.767 35.1241C119.813 35.4993 120.187 36.4749 120.261 37.8258L120.336 39.852C120.336 40.4524 120.411 40.9777 120.635 41.428L118.469 41.5781ZM115.705 30.3961L115.929 34.4487L116.751 34.3736C117.497 34.3736 117.946 33.9984 117.946 32.9477L117.871 31.6719C117.796 30.7714 117.497 30.3211 116.751 30.3961H115.705Z" fill="white"/>
<path d="M125.639 28.5938L128.851 28.969C130.868 29.1941 131.765 30.4699 131.466 32.5712L130.644 39.1754C130.42 41.2767 129.225 42.2523 127.208 42.0271L123.996 41.6519L125.639 28.5938ZM127.507 30.6951L126.386 40.0009L127.507 40.151C128.179 40.226 128.553 39.9258 128.702 39.0253L129.524 32.271C129.673 31.3705 129.3 30.9202 128.627 30.8452L127.507 30.6951Z" fill="white"/>
<path d="M134.305 29.7949L136.322 30.2452L133.707 41.2771L136.994 42.1026L136.546 43.9037L131.242 42.6279L134.305 29.7949Z" fill="white"/>
<path d="M143.344 46.303L141.402 45.5525L141.85 43.2261L139.46 42.3255L138.34 44.4268L136.547 43.7514L142.971 32.1191L145.809 33.1698L143.344 46.303ZM140.356 40.7495L142.224 41.425L143.568 34.8208L140.356 40.7495Z" fill="white"/>
<path d="M152.232 36.0156L157.76 39.1676L156.863 40.8186L154.996 39.768L149.468 49.5991L147.676 48.5485L153.203 38.7173L151.336 37.6667L152.232 36.0156Z" fill="white"/>
<path d="M159.627 48.0233L154.772 53.1265L152.531 51.4004L159.329 40.0684L160.897 41.2691L155.519 50.1997L162.541 42.5449L164.109 43.7457L158.582 52.6762L165.753 45.0215L167.172 46.1472L158.059 55.6781L155.893 54.0271L159.627 48.0233Z" fill="white"/>
<path d="M166.649 50.0513C168.143 48.5503 169.786 48.5503 171.205 49.9762C172.625 51.4021 172.55 53.0532 171.056 54.5541L166.201 59.2821C164.707 60.783 163.064 60.783 161.644 59.3571C160.225 57.9312 160.3 56.2802 161.794 54.7792L166.649 50.0513ZM163.138 56.3552C162.466 57.0306 162.466 57.556 162.989 58.0063C163.437 58.4565 163.96 58.5316 164.632 57.8562L169.712 52.9031C170.384 52.2276 170.384 51.7023 169.861 51.252C169.413 50.8018 168.89 50.7267 168.218 51.4021L163.138 56.3552Z" fill="white"/>
<path d="M165.603 60.703C165.753 60.8531 165.902 61.0783 166.051 61.3034C166.425 61.8287 166.948 62.0539 167.77 61.4535L175.538 55.2246L176.808 56.8006L169.114 62.9544C167.097 64.6055 165.678 63.93 164.707 62.7293C164.483 62.4291 164.333 62.204 164.109 61.9038L165.603 60.703Z" fill="white"/>
<path d="M174.716 63.4163L176.284 65.8178L174.716 66.8684L173.147 64.4669L169.935 66.5682L171.877 69.5701L170.309 70.5457L167.246 65.8178L178.226 58.6133L181.289 63.3412L179.72 64.3919L177.778 61.39L174.716 63.4163Z" fill="white"/>
<path d="M178.676 70.8382L179.946 73.3898L176.211 75.266C174.343 76.1665 172.775 75.7913 171.878 73.9902C170.982 72.189 171.58 70.6881 173.447 69.7875L179.497 66.7106C181.365 65.81 182.933 66.1853 183.83 67.9864C184.726 69.7875 184.129 71.2885 182.261 72.189L181.141 72.7894L180.244 71.0633L181.514 70.463C182.336 70.0127 182.485 69.4873 182.186 68.962C181.888 68.3616 181.365 68.1365 180.543 68.5868L174.194 71.7387C173.372 72.189 173.223 72.6393 173.522 73.2397C173.82 73.8401 174.269 74.0652 175.165 73.6149L177.331 72.5643L176.883 71.7387L178.676 70.8382Z" fill="white"/>
<path d="M183.155 74.0656C185.097 73.3902 186.591 73.9906 187.264 75.9418C187.936 77.893 187.189 79.3189 185.247 79.9943L178.823 82.3208C176.881 82.9962 175.387 82.3958 174.715 80.4446C174.042 78.5684 174.789 77.0675 176.731 76.3921L183.155 74.0656ZM177.329 78.3433C176.433 78.6435 176.283 79.1688 176.507 79.7692C176.731 80.3696 177.18 80.6698 178.076 80.3696L184.724 77.9681C185.62 77.6679 185.77 77.1426 185.546 76.5422C185.321 75.9418 184.873 75.6416 183.977 75.9418L177.329 78.3433Z" fill="white"/>
<path d="M187.565 91.1842L185.922 91.4844C183.83 91.8596 182.56 91.0341 182.187 89.0078L182.037 88.0322L177.182 88.9328L176.809 86.9065L189.656 84.5801L190.179 87.582C190.553 89.6833 189.582 90.884 187.565 91.1842ZM188.162 86.9816L183.83 87.7321L183.979 88.7077C184.129 89.3831 184.428 89.6833 185.399 89.4581L187.341 89.0829C188.237 88.9328 188.461 88.4825 188.387 87.8821L188.162 86.9816Z" fill="white"/>
<path d="M191.226 95.4561C191.375 97.4824 190.254 98.533 188.163 98.6831H187.789L187.64 96.7319H188.163C189.059 96.6569 189.433 96.2816 189.358 95.6062C189.283 94.9308 188.91 94.6306 188.014 94.6306C185.324 94.7807 185.1 98.8332 181.366 99.0584C179.274 99.2085 178.004 98.2328 177.93 96.2066C177.855 94.1803 178.901 93.0546 180.992 92.9045L181.814 92.8295L181.963 94.7807L181.067 94.8557C180.17 94.9308 179.797 95.3811 179.872 95.9814C179.946 96.6569 180.245 97.0321 181.216 96.9571C183.905 96.807 184.129 92.7544 187.864 92.5293C189.881 92.5293 191.151 93.5049 191.226 95.4561Z" fill="white"/>
<path d="M177.855 106.863L178.005 104.761L180.395 104.536L180.545 101.985L178.229 101.534L178.304 99.6582L191.226 102.51L191.077 105.512L177.855 106.863ZM182.263 102.36L182.188 104.311L188.836 103.711L182.263 102.36Z" fill="white"/>
<path d="M93.076 82.4733C92.7025 82.9236 91.8062 82.6234 91.7315 82.1731C91.2833 81.7979 91.2086 81.3476 91.2086 80.8973C91.1339 80.0718 90.611 79.2463 90.5363 78.3457C89.4906 76.3195 88.8183 73.3176 89.9388 71.5165C90.611 69.7153 92.3291 69.115 93.8977 68.1394C94.3459 68.0643 94.7194 67.614 95.1675 67.9893C95.6157 67.9142 95.6157 68.3645 96.0639 68.3645C98.3795 70.3157 99.4999 72.7923 100.994 75.2688C101.591 76.9198 102.562 78.5709 102.338 80.7472C102.488 82.4733 101.442 84.7247 99.724 85.3251C98.9024 85.8504 98.0807 85.9255 97.1843 86.0005C95.9145 86.1506 95.0928 86.2257 94.1218 85.4002C91.8809 84.3495 91.2086 81.3476 90.0882 79.3214" fill="white"/>
<path d="M121.759 62.5802C122.207 62.5052 122.581 62.5052 123.029 62.4301C123.477 62.3551 123.925 62.8054 124.373 63.1806C125.792 64.7566 126.39 66.4076 126.614 68.584C126.689 69.4095 126.764 70.3101 126.39 71.2107C125.792 73.8373 123.402 76.2388 120.489 76.9142C116.679 77.6647 113.916 75.3382 114.439 71.4358C114.887 67.0831 117.949 63.781 121.759 62.5802Z" fill="white"/>
<path d="M144.389 70.7623C144.838 70.6873 144.838 71.1376 145.286 71.1376C146.182 71.888 147.153 72.7136 147.676 73.9143C150.29 79.2426 141.7 88.2483 136.92 83.1451C135.426 81.1188 134.753 78.192 135.799 75.9406C136.92 73.6141 141.775 70.162 144.389 70.7623Z" fill="white"/>
<path d="M114.814 85.6178C116.831 84.5672 118.922 83.5165 121.089 83.7417C122.807 83.5916 124.151 84.342 125.869 84.5672C130.799 86.6685 135.43 90.1207 137.596 95.524C139.763 100.477 138.642 107.081 134.683 110.458C131.546 113.31 126.467 114.211 122.209 115.036C119.669 115.261 117.13 115.487 114.515 115.336C109.286 114.511 100.173 108.882 101.369 102.804C101.667 95.8993 109.137 88.7698 114.814 85.6178Z" fill="white"/>
<path d="M98.0025 84.5761C97.6291 85.4766 88.6655 81.1239 92.6244 77.2965C96.2098 74.4447 98.6001 81.9494 98.0025 84.5761Z" fill="#BABAB9"/>
<path d="M117.422 76.3214C114.434 76.1714 111.372 66.9406 116.6 67.3158C120.858 67.3909 121.754 76.7717 117.422 76.3214Z" fill="#BABAB9"/>
<path d="M137.442 83.9783C136.994 83.603 136.471 82.7775 136.396 81.952C136.247 80.6762 135.724 79.0252 135.575 77.7494C135.351 75.6481 135.127 73.0214 137.591 71.9708C139.608 70.9201 142.82 72.7963 143.418 74.8976C144.538 77.224 141.177 87.5055 137.442 83.9783Z" fill="#BABAB9"/>
<path d="M112.642 98.7548C114.285 102.507 115.63 107.535 113.762 111.138C111.895 113.914 108.16 115.565 104.724 115.415C103.902 115.49 103.006 115.565 102.11 115.19C101.213 114.44 100.242 113.239 100.168 112.338C98.4496 107.76 98.8231 102.507 100.541 98.0794C101.587 95.828 104.874 89.449 107.861 89.2239C110.849 88.9987 111.522 96.2783 112.642 98.7548Z" fill="#BABAB9"/>
<path d="M139.758 104.465C139.907 105.741 139.609 107.467 139.833 109.644C139.758 113.096 137.816 115.872 134.977 117.448C134.156 117.974 132.886 118.049 132.064 118.124C129.823 117.448 128.105 116.773 125.864 116.098C122.727 114.672 119.665 114.071 116.378 115.272C113.465 115.948 110.925 116.623 108.012 117.373C106.294 117.523 104.576 117.674 102.933 117.824C99.4219 117.298 97.405 113.996 98.0026 110.919C98.6002 107.842 99.1231 104.315 100.094 101.238C100.99 97.2608 103.231 93.5835 106.443 90.7317C108.385 88.8556 110.85 87.2796 113.241 85.3284C114.436 84.3528 115.706 83.8274 116.901 83.2271C124.37 80.8256 127.582 82.6267 132.811 87.8049C134.679 89.7561 135.724 91.8575 137.218 93.8837C138.264 95.5348 138.787 97.1858 139.384 98.8368C139.384 100.563 139.534 102.289 139.758 104.465ZM107.489 103.565L107.564 104.015C105.92 105.066 104.277 105.591 102.634 106.642C100.169 107.767 100.169 108.143 100.468 110.694C100.542 111.144 100.542 111.52 100.617 111.97C101.289 114.897 103.157 116.023 106.145 115.797C107.414 115.647 108.684 115.122 109.954 115.047C112.046 114.447 114.585 113.771 116.677 113.546C119.59 112.871 122.652 113.396 125.79 114.447C127.582 115.122 129.749 115.797 131.541 116.473C133.334 117.148 134.529 116.623 135.724 115.647C136.919 114.221 138.04 112.871 138.264 110.694C138.787 106.792 138.04 103.415 137.293 100.038C136.023 95.3847 133.558 91.7824 130.197 88.1802C129.151 86.1539 127.284 84.5779 124.669 84.3528C120.412 84.728 115.78 85.6286 112.12 88.1051C111.747 88.5554 110.925 89.0807 110.477 89.1558C108.012 90.6567 106.518 92.5329 105.024 95.2346C104.352 97.0357 103.157 98.4616 102.484 100.188C102.111 101.088 101.364 101.989 101.887 102.814C104.8 101.689 108.087 100.113 111 98.9119L111.074 99.3621C110.626 99.4372 110.253 99.8875 110.253 99.8875C108.236 100.938 105.696 102.064 103.68 103.114C102.484 104.09 100.841 104.69 100.99 106.792C103.381 105.666 105.472 104.615 107.489 103.565Z" fill="#09090A"/>
<path d="M103.009 78.1271C103.308 81.5792 101.44 84.7312 98.9752 85.8569C96.9584 86.9075 94.2694 86.3072 92.8501 84.7312C89.5635 81.5792 88.3683 78.2772 89.2647 73.8494C89.9369 71.598 91.4309 69.7969 93.4477 68.2959C94.2693 67.7706 95.5392 68.0708 96.0621 68.5211C98.7512 70.022 100.245 72.0483 101.366 74.5248C102.337 76.0258 102.934 77.2265 103.009 78.1271ZM91.2815 76.6261C91.9538 79.1777 92.9995 81.6543 95.7633 83.0802C98.9752 85.3316 100.992 84.2809 101.963 80.7537C102.262 79.0276 101.664 77.7518 101.067 76.1008C99.9463 73.6243 98.5271 71.598 96.2115 70.0971C95.3151 69.7218 94.4187 69.4216 93.6718 70.3222C92.1031 71.8231 90.9827 73.6243 91.2815 76.6261Z" fill="#09090A"/>
<path d="M126.017 67.3131C126.316 70.7653 124.822 73.0167 122.955 75.7934C121.386 77.6696 116.605 76.3938 115.111 74.3675C112.646 70.6902 114.365 66.2624 116.307 64.3112C117.502 62.8853 119.519 62.2849 120.714 61.3093C121.535 60.784 122.432 61.1592 123.328 61.9097C124.747 62.7352 125.868 65.2118 126.017 67.3131ZM116.755 73.3919C118.398 72.7915 119.668 72.2662 121.311 71.6658C118.846 73.1668 118.846 73.1668 118.174 74.5176C118.996 74.4426 119.892 74.3675 120.34 74.7427C122.133 75.8684 122.88 74.5176 123.702 73.542C124.523 72.5664 124.747 71.2906 125.494 69.9397C126.465 66.8628 124.897 63.5607 122.208 62.0598C119.369 63.6358 116.083 65.2118 116.456 69.4895C117.726 68.9641 118.996 68.814 120.191 68.2887C119.369 68.814 118.996 69.2643 118.174 69.7896C116.083 70.8403 116.083 70.8403 116.755 73.3919Z" fill="#09090A"/>
<path d="M134.902 79.4697C134.603 76.0176 137.218 71.89 140.056 70.3891C142.895 68.8131 145.584 69.8638 146.704 72.7906C147.825 75.7174 147.675 78.344 145.733 80.6705C143.791 82.9969 141.849 84.9482 138.338 83.9726C135.649 83.2221 135.201 82.8469 134.902 79.4697ZM138.04 76.5429C137.666 76.9932 137.293 77.4435 136.471 78.4191C137.741 78.269 139.011 77.7437 139.832 77.6686C139.832 77.6686 139.832 77.6686 139.907 78.1189C139.085 78.6442 138.264 79.1696 137.068 79.6949C138.04 80.8956 139.011 82.0964 139.907 82.8469C142.447 82.6217 144.09 81.5711 145.584 79.3197C146.704 77.5185 146.854 74.4416 144.986 72.9407C144.538 72.5654 144.09 72.1902 143.194 72.2653C141.027 72.0401 138.189 73.9913 137.517 76.2427C137.517 75.7174 138.04 76.0926 138.04 76.5429Z" fill="#09090A"/>
<path d="M138.043 76.5508C138.79 75.6502 139.686 75.5001 140.583 75.8754C139.686 75.9504 138.865 76.0255 138.043 76.5508Z" fill="#09090A"/>
<path d="M74.5447 160.518C53.8538 163.97 44.6661 166.671 41.6035 169.148C40.259 170.274 39.6614 172.075 40.259 173.651C41.0806 176.052 44.442 178.154 56.244 172.9C59.9789 171.249 63.4896 169.073 66.7016 166.521L74.5447 160.518Z" fill="#BABAB9"/>
<path d="M44.8162 177.407C43.6211 177.407 42.65 177.257 41.7537 176.882C40.4838 176.357 39.5875 175.381 39.214 174.18C38.5417 172.154 39.214 169.828 40.932 168.402C44.4428 165.55 54.3774 162.848 74.3961 159.471L78.8032 158.721L67.524 167.501C64.1627 170.128 60.5772 172.304 56.8424 173.955C51.6136 176.282 47.7294 177.407 44.8162 177.407ZM70.2878 162.398C54.0786 165.25 45.115 167.726 42.3513 170.053C41.3802 170.878 40.932 172.229 41.3802 173.355C41.6043 174.03 42.0525 174.481 42.7247 174.781C44.2934 175.456 47.8788 175.531 55.8713 171.929C59.4568 170.353 62.8928 168.252 66.1048 165.7L70.2878 162.398Z" fill="black"/>
<path d="M160.973 160.527C181.664 163.98 190.851 166.681 193.914 169.158C195.258 170.283 195.856 172.085 195.258 173.661C194.437 176.062 191.075 178.163 179.273 172.91C175.538 171.259 172.028 169.083 168.816 166.531L160.973 160.527Z" fill="#BABAB9"/>
<path d="M190.627 177.41C187.713 177.41 183.755 176.285 178.75 174.033C175.015 172.382 171.43 170.206 168.068 167.579L156.789 158.799L161.196 159.549C181.14 162.926 191.149 165.553 194.66 168.48C196.378 169.906 197.051 172.232 196.378 174.258C195.93 175.534 195.034 176.435 193.839 176.96C192.868 177.185 191.822 177.41 190.627 177.41ZM165.155 162.401L169.413 165.703C172.625 168.255 176.061 170.281 179.646 171.932C187.639 175.534 191.224 175.459 192.793 174.784C193.465 174.484 193.913 174.033 194.137 173.358C194.511 172.232 194.137 170.881 193.166 170.056C190.328 167.729 181.364 165.253 165.155 162.401Z" fill="black"/>
<path d="M196.452 141.015C191.672 137.938 179.198 133.285 157.536 130.058C151.037 129.083 145.958 128.707 136.62 127.957L117.722 127.432L98.824 127.957C89.487 128.707 84.4076 129.083 77.909 130.058C56.247 133.285 43.7727 137.938 38.9921 141.015C37.8717 141.766 37.1994 143.116 37.3488 144.467L40.0379 172.91C39.8885 171.559 40.486 170.133 41.6065 169.233C44.8184 166.606 54.3796 163.379 77.2367 160.452L91.1303 158.576C99.1228 157.525 107.265 157 115.332 157H117.722H120.113C128.18 157 136.322 157.525 144.314 158.576L158.208 160.452C181.065 163.379 190.626 166.606 193.838 169.233C194.958 170.133 195.556 171.559 195.407 172.91L198.096 144.467C198.245 143.116 197.648 141.766 196.452 141.015Z" fill="white"/>
<path d="M196.527 173.056L194.286 172.831V172.681C194.36 171.705 193.912 170.73 193.165 170.129C190.551 167.953 182.334 164.726 158.133 161.649L144.239 159.773C136.321 158.722 128.179 158.197 120.187 158.197H115.331C107.339 158.197 99.197 158.722 91.2792 159.773L77.3856 161.649C53.184 164.726 44.9673 168.028 42.353 170.129C41.606 170.805 41.1578 171.78 41.2325 172.681V172.831L38.9916 173.056C38.9916 172.981 38.9916 172.906 38.9916 172.831L36.3025 144.613C36.1531 142.812 36.9748 141.086 38.4687 140.111C43.5481 136.808 56.5453 132.156 77.8338 129.004C84.4818 128.028 89.6359 127.578 98.8235 126.902L117.796 126.377L136.769 126.902C146.032 127.578 151.186 128.028 157.834 129.004C179.122 132.156 192.12 136.808 197.199 140.111C198.693 141.086 199.514 142.812 199.365 144.613L196.676 172.831C196.527 172.906 196.527 172.981 196.527 173.056ZM115.331 155.87H120.187C128.329 155.87 136.471 156.396 144.538 157.446L158.431 159.323C178.301 161.874 190.476 164.876 194.659 168.328C194.734 168.328 194.734 168.403 194.809 168.403L197.124 144.313C197.199 143.338 196.751 142.437 196.004 141.912C191.148 138.76 178.45 134.257 157.535 131.18C150.962 130.204 145.882 129.829 136.695 129.079L117.871 128.628L99.0476 129.154C89.9347 129.829 84.8553 130.279 78.282 131.255C57.367 134.332 44.6685 138.835 39.8133 141.987C38.9916 142.512 38.6181 143.413 38.6928 144.388L41.0084 168.478C41.0831 168.478 41.0831 168.403 41.1578 168.403C45.2661 164.951 57.4417 161.949 77.3856 159.398L91.2792 157.521C99.0476 156.396 107.19 155.87 115.331 155.87Z" fill="black"/>
<path d="M48.9264 150.244C49.8227 150.019 50.6444 149.794 51.5408 149.569C51.8395 150.92 52.0636 152.346 52.3624 153.696C52.7359 155.798 52.0636 157.224 50.2709 157.674C48.4782 158.124 47.283 157.224 46.9096 155.122C46.4614 152.871 45.9385 150.62 45.4903 148.368C45.0422 146.267 45.7891 144.841 47.5818 144.391C49.4492 143.94 50.6444 144.841 51.0179 146.942C51.0926 147.393 51.1673 147.768 51.242 148.218C50.6444 148.368 50.0468 148.518 49.4492 148.668C49.3746 148.218 49.2999 147.768 49.1505 147.242C49.0011 146.342 48.5529 146.042 47.9553 146.192C47.3577 146.342 47.059 146.792 47.2084 147.693C47.6565 150.019 48.1794 152.346 48.6276 154.672C48.8517 155.573 49.2252 155.798 49.8227 155.648C50.4203 155.498 50.7191 155.047 50.495 154.147C50.3456 153.321 50.1962 152.571 50.0468 151.745C49.748 151.82 49.5239 151.895 49.2252 151.97C49.1505 151.52 49.0011 150.92 48.9264 150.244Z" fill="black"/>
<path d="M57.2907 148.516C57.4401 150.918 57.6642 153.244 57.8883 155.646C57.0666 155.871 56.2449 156.021 55.3486 156.246C54.0787 152.043 52.8836 147.766 51.5391 143.563C52.1366 143.413 52.7342 143.263 53.4065 143.113C54.3775 146.49 55.3486 149.792 56.3196 153.169C56.0209 149.642 55.6474 146.19 55.3486 142.663C55.9462 142.512 56.5437 142.362 57.1413 142.212C58.0377 145.589 59.0087 148.966 59.9051 152.344C59.6063 148.816 59.3822 145.289 59.0834 141.762C59.6063 141.612 60.2039 141.537 60.7267 141.387C61.0255 145.814 61.2496 150.317 61.5484 154.745C60.7267 154.895 59.9051 155.12 59.1581 155.27C58.5605 153.094 57.963 150.768 57.2907 148.516Z" fill="black"/>
<path d="M69.9917 153.093C69.3942 153.243 68.7219 153.318 68.1243 153.468C67.9002 152.718 67.6761 151.892 67.4521 151.142C66.7051 151.292 65.9581 151.442 65.2112 151.592C65.2112 152.418 65.2112 153.243 65.2859 154.069C64.6883 154.219 64.1654 154.294 63.5678 154.444C63.4931 149.941 63.4184 145.438 63.3438 140.935C64.2401 140.71 65.2112 140.56 66.1075 140.41C67.4521 144.613 68.7219 148.89 69.9917 153.093ZM65.1365 149.791C65.734 149.641 66.3316 149.566 66.9292 149.416C66.3316 147.239 65.6593 145.138 64.9871 142.962C65.0618 145.213 65.0618 147.54 65.1365 149.791Z" fill="black"/>
<path d="M75.0719 152.187C74.9225 151.887 74.8478 151.662 74.6985 150.611C74.6238 149.936 74.5491 149.26 74.3997 148.51C74.2503 147.309 73.8021 146.859 72.9804 147.009C72.7563 147.009 72.5323 147.084 72.3082 147.084C72.5323 148.885 72.7564 150.686 73.0551 152.412C72.4576 152.487 71.86 152.638 71.1877 152.713C70.5902 148.36 69.9926 143.932 69.3203 139.579C70.2914 139.429 71.2624 139.204 72.2335 139.054C74.2503 138.754 75.2213 139.579 75.4454 141.606C75.5201 141.981 75.5201 142.281 75.5948 142.656C75.7442 144.007 75.4454 144.983 74.6985 145.508C75.6695 145.808 76.1177 146.709 76.2671 148.135C76.3418 148.81 76.4165 149.486 76.4912 150.161C76.5659 150.836 76.6406 151.287 76.8647 151.737C76.3418 152.037 75.6695 152.112 75.0719 152.187ZM71.5612 141.305C71.7106 142.656 71.9347 144.007 72.0841 145.358C72.3082 145.283 72.607 145.283 72.831 145.208C73.5033 145.058 73.9515 144.683 73.8021 143.632C73.7274 143.182 73.7274 142.731 73.6527 142.356C73.5033 141.38 73.2045 141.08 72.5323 141.155C72.1588 141.155 71.86 141.23 71.5612 141.305Z" fill="black"/>
<path d="M84.3345 150.844C83.737 150.919 83.0647 150.995 82.4671 151.07C82.243 150.319 82.0936 149.494 81.8696 148.743C81.1226 148.818 80.3756 148.968 79.6287 149.043C79.6287 149.869 79.6287 150.694 79.554 151.52C78.9564 151.595 78.4335 151.67 77.8359 151.745C77.9106 147.242 78.06 142.739 78.2094 138.237C79.1058 138.086 80.0768 137.936 80.9732 137.861C82.1683 142.214 83.2888 146.492 84.3345 150.844ZM79.6287 147.242C80.2262 147.167 80.8238 147.092 81.4214 147.017C80.8985 144.841 80.3009 142.664 79.7781 140.488C79.7781 142.739 79.7034 144.991 79.6287 147.242Z" fill="black"/>
<path d="M86.3488 140.859C86.6476 144.086 86.9464 147.238 87.2452 150.465C86.7223 150.54 86.1247 150.615 85.6019 150.69C85.1537 146.263 84.7055 141.835 84.332 137.482C85.1537 137.407 85.9007 137.257 86.7223 137.182C87.6187 139.733 88.515 142.285 89.3367 144.912C89.1126 142.285 88.8885 139.658 88.6644 136.957C89.262 136.882 89.7849 136.807 90.3825 136.807C90.7559 141.234 91.1294 145.662 91.4282 150.09C90.8306 150.165 90.1584 150.24 89.5608 150.315C88.515 147.088 87.4693 144.011 86.3488 140.859Z" fill="black"/>
<path d="M98.3004 144.395C98.3004 144.995 98.3751 145.595 98.3751 146.196C98.5244 148.297 97.6281 149.573 95.8354 149.798C94.0427 149.948 92.9969 148.822 92.8475 146.721C92.6981 144.395 92.474 142.143 92.3246 139.817C92.1752 137.715 93.0716 136.365 94.939 136.214C96.8064 136.064 97.8522 137.19 98.0016 139.291C98.0016 139.742 98.0763 140.117 98.0763 140.567C97.4787 140.642 96.8811 140.642 96.2835 140.717C96.2835 140.267 96.2089 139.742 96.2089 139.291C96.1342 138.316 95.7607 138.016 95.1631 138.091C94.5655 138.166 94.192 138.541 94.2667 139.517C94.4161 141.918 94.6402 144.32 94.7896 146.646C94.8643 147.622 95.2378 147.922 95.8354 147.847C96.4329 147.772 96.8064 147.396 96.7317 146.496C96.657 145.896 96.657 145.22 96.5823 144.62C97.1052 144.545 97.7028 144.47 98.3004 144.395Z" fill="black"/>
<path d="M99.4961 147.384C99.7202 147.384 99.9443 147.384 100.168 147.384C100.766 147.309 101.214 147.084 101.139 146.033C100.99 142.656 100.766 139.279 100.617 135.902C101.289 135.827 101.886 135.827 102.559 135.752C102.708 139.054 102.857 142.431 103.007 145.733C103.156 148.36 101.886 149.185 100.467 149.26C100.094 149.26 99.8696 149.335 99.5708 149.26C99.5708 148.66 99.5708 147.985 99.4961 147.384Z" fill="black"/>
<path d="M110.85 148.661C110.253 148.661 109.58 148.736 108.983 148.736C108.833 147.911 108.684 147.16 108.609 146.335C107.862 146.335 107.115 146.41 106.294 146.41C106.219 147.235 106.144 148.061 106.07 148.811C105.472 148.811 104.949 148.886 104.352 148.886C104.8 144.383 105.248 139.956 105.696 135.453C106.667 135.378 107.564 135.378 108.535 135.303C109.356 139.881 110.103 144.233 110.85 148.661ZM106.443 144.609C107.041 144.609 107.638 144.534 108.236 144.534C107.862 142.282 107.489 140.106 107.115 137.854C106.891 140.106 106.667 142.357 106.443 144.609Z" fill="black"/>
<path d="M120.56 143.561C120.56 144.162 120.56 144.762 120.56 145.363C120.56 147.464 119.589 148.74 117.796 148.74C116.003 148.74 115.032 147.539 114.958 145.438C114.958 143.111 114.883 140.86 114.883 138.533C114.883 136.432 115.854 135.156 117.721 135.156C119.589 135.156 120.56 136.357 120.56 138.533C120.56 138.984 120.56 139.359 120.56 139.809C119.962 139.809 119.365 139.809 118.767 139.809C118.767 139.359 118.767 138.834 118.767 138.383C118.767 137.408 118.394 137.107 117.796 137.107C117.198 137.107 116.825 137.483 116.825 138.458C116.825 140.86 116.9 143.261 116.9 145.663C116.9 146.638 117.273 146.939 117.871 146.939C118.468 146.939 118.842 146.563 118.842 145.663C118.842 145.062 118.842 144.387 118.842 143.787C119.365 143.561 119.962 143.561 120.56 143.561Z" fill="black"/>
<path d="M127.506 135.306C127.506 135.907 127.506 136.582 127.431 137.183C126.162 140.334 124.892 143.486 123.697 146.638C124.892 146.638 126.087 146.713 127.207 146.713C127.207 147.314 127.207 147.989 127.133 148.59C125.34 148.515 123.547 148.515 121.68 148.515C121.68 147.914 121.68 147.239 121.68 146.638C122.875 143.486 124.145 140.334 125.34 137.107C124.219 137.107 123.024 137.032 121.904 137.032C121.904 136.432 121.904 135.757 121.904 135.156C123.921 135.231 125.713 135.306 127.506 135.306Z" fill="black"/>
<path d="M130.643 144.308C129.97 141.306 129.224 138.305 128.477 135.303C129.149 135.303 129.821 135.378 130.493 135.378C130.942 137.404 131.315 139.43 131.763 141.532C132.286 139.505 132.884 137.554 133.407 135.528C134.004 135.528 134.602 135.603 135.274 135.603C134.303 138.53 133.407 141.457 132.51 144.383C132.435 145.884 132.435 147.31 132.361 148.811C131.763 148.811 131.091 148.736 130.493 148.736C130.568 147.31 130.568 145.809 130.643 144.308Z" fill="black"/>
<path d="M138.936 135.755C140.804 135.905 141.7 137.181 141.551 139.282C141.551 139.432 141.551 139.582 141.551 139.732C140.953 139.657 140.356 139.657 139.758 139.582C139.758 139.432 139.758 139.207 139.758 139.057C139.833 138.081 139.459 137.706 138.862 137.706C138.264 137.631 137.891 138.006 137.816 138.982C137.667 141.683 141.327 142.509 141.103 146.261C140.953 148.363 139.982 149.488 138.115 149.413C136.322 149.263 135.426 148.062 135.5 145.886C135.5 145.586 135.5 145.361 135.5 145.061C136.098 145.061 136.696 145.136 137.293 145.136C137.293 145.436 137.293 145.736 137.218 146.111C137.144 147.087 137.517 147.462 138.115 147.462C138.712 147.537 139.086 147.162 139.161 146.261C139.31 143.485 135.65 142.734 135.799 138.982C136.023 136.805 137.069 135.605 138.936 135.755Z" fill="black"/>
<path d="M142.748 136.211C144.69 136.361 146.706 136.586 148.649 136.736C148.574 137.337 148.574 138.012 148.499 138.612C147.827 138.537 147.155 138.462 146.482 138.387C146.184 142.215 145.885 145.967 145.661 149.794C145.063 149.719 144.391 149.644 143.793 149.644C144.017 145.817 144.316 142.065 144.54 138.237C143.868 138.162 143.196 138.087 142.523 138.087C142.673 137.412 142.748 136.811 142.748 136.211Z" fill="black"/>
<path d="M151.41 142.66C152.307 142.735 153.128 142.885 154.025 142.96C153.95 143.561 153.875 144.236 153.875 144.837C153.054 144.762 152.157 144.612 151.261 144.536C151.112 145.812 151.037 147.088 150.887 148.439C151.933 148.589 153.054 148.664 154.099 148.814C154.025 149.415 153.95 150.09 153.95 150.69C152.307 150.465 150.589 150.315 148.945 150.09C149.319 145.662 149.692 141.234 150.066 136.807C151.784 136.957 153.577 137.182 155.295 137.407C155.22 138.007 155.145 138.683 155.145 139.283C154.025 139.133 152.979 138.983 151.858 138.908C151.634 140.184 151.485 141.385 151.41 142.66Z" fill="black"/>
<path d="M155.145 148.968C155.37 149.043 155.594 149.043 155.818 149.043C156.415 149.118 156.938 148.968 157.013 147.918C157.386 144.541 157.76 141.163 158.059 137.861C158.731 137.936 159.328 138.011 160.001 138.162C159.627 141.464 159.254 144.766 158.88 148.068C158.582 150.694 157.237 151.22 155.892 150.995C155.594 150.92 155.295 150.92 154.996 150.844C154.996 150.169 155.071 149.569 155.145 148.968Z" fill="black"/>
<path d="M167.618 148.887C168.44 145.811 169.336 142.809 170.158 139.807C171.054 139.957 171.95 140.107 172.772 140.332C172.1 144.685 171.502 149.113 170.83 153.465C170.232 153.39 169.71 153.24 169.112 153.165C169.56 150.013 170.008 146.861 170.456 143.709C169.56 146.786 168.738 149.863 167.842 152.94C167.245 152.865 166.647 152.715 166.124 152.64C166.049 149.488 166.049 146.261 165.975 143.109C165.601 146.186 165.153 149.338 164.78 152.415C164.257 152.34 163.734 152.265 163.211 152.115C163.734 147.687 164.331 143.334 164.854 138.906C165.751 139.056 166.647 139.206 167.543 139.357C167.543 142.508 167.543 145.66 167.618 148.887Z" fill="black"/>
<path d="M174.638 140.635C175.236 140.785 175.908 140.86 176.506 141.01C175.834 145.363 175.087 149.715 174.414 154.143C173.817 153.993 173.219 153.918 172.547 153.768C173.294 149.34 173.966 144.987 174.638 140.635Z" fill="black"/>
<path d="M180.915 141.759C182.783 142.134 183.53 143.56 183.156 145.661C183.156 145.811 183.082 145.961 183.082 146.036C182.484 145.886 181.886 145.736 181.289 145.661C181.289 145.511 181.364 145.286 181.364 145.136C181.513 144.235 181.214 143.785 180.617 143.635C180.019 143.485 179.646 143.785 179.421 144.686C178.973 147.387 182.559 148.663 181.886 152.415C181.513 154.517 180.392 155.492 178.6 155.117C176.807 154.742 176.06 153.316 176.434 151.215C176.508 150.914 176.508 150.689 176.583 150.389C177.181 150.539 177.778 150.614 178.301 150.764C178.226 151.065 178.226 151.365 178.152 151.665C178.002 152.565 178.301 153.016 178.899 153.166C179.496 153.316 179.944 153.016 180.094 152.115C180.542 149.413 177.031 148.138 177.629 144.385C177.927 142.359 179.123 141.383 180.915 141.759Z" fill="black"/>
<path d="M186.221 151.361C185.922 151.736 185.698 152.037 185.399 152.412C185.175 153.763 184.876 155.114 184.652 156.389C184.055 156.239 183.457 156.089 182.859 155.939C183.681 151.586 184.428 147.234 185.25 142.881C185.847 143.031 186.519 143.181 187.117 143.331C186.744 145.207 186.37 147.084 186.071 149.035C187.266 147.309 188.387 145.658 189.582 144.007C190.18 144.157 190.852 144.307 191.449 144.457C190.18 146.183 188.91 147.834 187.715 149.56C188.088 152.187 188.462 154.813 188.835 157.44C188.238 157.29 187.565 157.14 186.968 156.99C186.744 155.114 186.519 153.237 186.221 151.361Z" fill="black"/>
<path d="M192.791 144.834C193.388 144.984 194.061 145.134 194.658 145.359C193.762 149.712 192.865 153.99 191.894 158.342C191.297 158.192 190.699 158.042 190.102 157.817C190.998 153.464 191.894 149.112 192.791 144.834Z" fill="black"/>
<path d="M107.563 165.854C108.086 165.854 108.385 165.704 108.385 165.254C108.385 164.804 108.161 164.579 107.563 164.579H105.322V165.854H107.563ZM104.426 163.828H107.787C108.758 163.828 109.356 164.504 109.356 165.254C109.356 166.23 108.683 166.68 107.787 166.68H105.397V168.481H104.426V163.828Z" fill="white"/>
<path d="M109.806 168.331V167.581C110.329 167.806 110.851 167.881 111.449 167.881C112.271 167.881 112.644 167.806 112.644 167.506C112.644 166.755 109.656 167.581 109.656 166.155C109.656 165.405 110.478 165.029 111.598 165.029C111.972 165.029 112.644 165.104 113.242 165.179V165.93C112.794 165.855 112.196 165.78 111.673 165.78C110.851 165.78 110.553 165.93 110.553 166.155C110.553 166.83 113.54 166.08 113.54 167.506C113.54 168.256 112.719 168.632 111.598 168.632C111.075 168.556 110.329 168.481 109.806 168.331Z" fill="white"/>
<path d="M114.06 165.176H115.031V168.554H114.06V165.176ZM113.91 164.051C113.91 163.675 114.134 163.525 114.508 163.525C114.881 163.525 115.105 163.675 115.105 164.051C115.105 164.426 114.881 164.576 114.508 164.576C114.134 164.576 113.91 164.351 113.91 164.051Z" fill="white"/>
<path d="M119.44 167.656C119.963 167.656 120.262 167.505 120.262 167.055C120.262 166.605 119.963 166.455 119.44 166.455H116.975V167.656H119.44ZM116.004 163.828H119.44C120.411 163.828 120.934 164.353 120.934 165.029C120.934 165.704 120.411 166.08 119.664 166.08C120.56 166.08 121.083 166.455 121.083 167.205C121.083 167.956 120.486 168.481 119.589 168.481H116.004V163.828ZM119.291 165.779C119.813 165.779 120.112 165.629 120.112 165.179C120.112 164.729 119.813 164.579 119.291 164.579H116.975V165.779H119.291Z" fill="white"/>
<path d="M125.713 168.475H124.668L124.817 167.124H124.742C124.593 168.024 124.145 168.625 123.099 168.625C122.128 168.625 121.68 168.1 121.68 166.599V165.098H122.651V166.448C122.651 167.424 122.95 167.874 123.547 167.874C124.294 167.874 124.742 167.124 124.742 166.073V165.098H125.713V168.475Z" fill="white"/>
<path d="M126.835 165.851H126.387V165.176H126.835V165.026C126.835 164.2 127.134 163.75 127.881 163.75C128.105 163.75 128.329 163.825 128.628 163.825V164.35C128.553 164.35 128.478 164.35 128.404 164.35C127.806 164.35 127.731 164.5 127.731 165.101H128.628V165.701H127.731V168.403H126.76L126.835 165.851Z" fill="white"/>
<path d="M131.988 166.605C131.988 166.005 131.615 165.78 130.868 165.78C130.196 165.78 129.822 166.005 129.747 166.68L131.988 166.605ZM128.926 166.83C128.926 165.78 129.747 165.029 130.943 165.029C132.138 165.029 132.959 165.63 132.959 166.53V167.056H129.822C129.897 167.581 130.345 167.806 131.241 167.806C132.063 167.806 132.362 167.581 132.735 167.431V168.181C132.063 168.406 131.69 168.481 130.868 168.481C129.673 168.557 128.926 167.881 128.926 166.83Z" fill="white"/>
<path d="M133.706 167.284V165.858H133.184V165.108H133.781V164.357L134.603 164.207V165.183H135.574V165.858H134.603V167.134C134.603 167.809 134.603 167.959 135.2 167.959C135.275 167.959 135.425 167.959 135.574 167.959V168.485C135.275 168.56 135.051 168.635 134.678 168.635C133.856 168.56 133.706 168.26 133.706 167.284Z" fill="white"/>
</svg>
