<svg width="175" height="114" viewBox="0 0 175 114" fill="none" xmlns="http://www.w3.org/2000/svg">
<path d="M55.6061 14.0806C56.2105 12.3911 56.8149 10.7017 57.4193 8.44906C57.4193 8.44906 57.4193 7.88591 58.0237 7.88591C58.628 7.32275 59.2324 8.44906 59.8368 9.01221C61.0456 12.3911 61.65 15.7701 60.4412 19.149C60.4412 19.7122 59.8368 20.2753 59.2324 20.2753C59.2324 20.2753 58.628 20.2753 58.628 19.7121C56.2105 18.0227 55.0017 15.7701 53.793 12.9543" fill="white"/>
<path d="M121.48 40.5465C122.689 39.4201 123.294 38.2938 123.294 37.1675C123.294 37.1675 123.294 36.6044 123.898 36.6044C124.502 36.0412 125.107 36.6044 125.711 37.1675C126.92 38.857 128.733 39.9833 129.338 41.6728C129.942 43.3622 130.546 45.6149 129.338 47.3043C129.338 47.8675 128.733 48.4306 128.129 47.8675C128.129 47.8675 127.524 47.8675 127.524 47.3043C125.107 45.0517 123.294 42.7991 121.48 40.5465Z" fill="white"/>
<path d="M38.0752 96.867C35.6576 88.9828 42.306 80.5355 38.6796 73.2145C37.4708 70.3987 34.4488 68.1461 32.0312 65.8935C35.6576 63.6408 38.6796 60.2619 41.7016 56.883C42.306 59.6988 45.328 61.3882 47.7456 61.3882C50.7676 61.3882 53.1852 60.2619 56.2072 59.1356C59.2292 57.4461 62.8556 55.1935 63.46 52.3777C64.0644 50.1251 62.8556 48.4357 64.0644 46.183C64.6688 45.0567 65.8776 43.9304 67.0864 43.3673C70.7128 40.5515 74.3392 37.7357 78.57 34.9199C80.3832 33.2305 82.8008 31.541 85.8228 31.541C91.8668 31.541 94.8888 37.7357 100.328 39.9883C101.537 40.5515 102.746 40.5515 103.955 41.1146C106.977 42.8041 107.581 46.183 109.394 48.9988C111.812 52.3777 116.647 54.0672 117.856 58.0093C117.856 59.1356 117.856 60.2619 118.46 61.3882C119.669 66.4566 127.526 67.5829 128.735 72.6513C129.944 77.1565 125.713 81.0986 121.482 83.3513C110.603 88.9828 98.5152 90.1091 86.4272 90.6723C74.3392 91.2354 61.6468 91.2354 50.1632 94.0512" fill="white"/>
<path d="M60.4379 56.3185C61.6467 55.7553 62.2511 55.7553 62.8555 55.1921C64.0643 53.5027 63.4599 51.2501 63.4599 49.5606C63.4599 46.7448 65.8775 43.3659 68.8996 42.8027H69.504L70.1084 43.3659C73.1304 48.9974 75.548 55.1921 76.7568 61.3869C77.3612 63.6395 77.3612 66.4552 75.548 68.7079C74.3392 69.8342 73.1304 70.9605 71.3172 71.5236C64.6687 74.3394 55.6026 73.7763 51.3718 67.5816C46.5366 60.8237 54.9982 58.5711 60.4379 56.3185Z" fill="#BCBCBB"/>
<path d="M47.7474 64.765L84.0114 68.1439L113.023 67.0176L127.528 64.765L141.43 91.7964V102.496L126.319 108.691L79.7806 112.633L39.2858 109.817L24.1758 103.059L37.4726 68.7071L40.4946 70.3965V77.1544L45.3298 63.6387L47.7474 64.765Z" fill="#EB594B"/>
<path d="M127.526 64.7598C129.944 65.3229 130.548 66.4492 131.757 68.7018C133.57 73.7702 135.988 78.8386 137.801 83.907C139.01 86.7228 140.218 88.9754 141.427 91.7912C142.636 94.607 143.24 97.4227 142.636 100.802C142.636 101.365 142.032 102.491 141.427 103.054C138.405 105.307 135.383 106.433 131.757 107.56C118.46 110.938 105.163 112.628 91.8664 113.191C87.0312 113.191 82.196 113.191 77.9652 113.191C70.7124 113.191 62.8552 113.191 55.6024 113.191C48.3496 113.191 42.3056 110.938 35.0528 109.812C30.822 108.686 27.1956 106.996 24.1736 104.181C22.9648 103.054 22.9648 101.928 22.9648 100.802C24.778 95.7333 26.5912 90.6649 29.0088 85.5965C30.822 82.2176 32.0308 78.2755 33.844 74.3334C33.844 73.7702 34.4484 73.2071 34.4484 72.6439C35.0528 72.0808 35.6572 72.0808 36.2616 72.0808C36.866 72.0808 37.4704 73.2071 37.4704 73.2071C37.4704 74.3334 36.866 75.4597 36.2616 76.586C33.2396 82.7807 30.822 88.9754 29.0088 95.1701V95.7333C33.844 97.9859 39.2836 97.9859 44.7232 99.6754C50.1628 101.365 55.6024 101.928 61.042 101.928C66.4816 101.928 71.9212 102.491 77.3608 103.054C76.7564 103.054 76.152 103.617 75.5476 103.617C67.6904 103.617 59.8332 103.617 52.5804 103.054C50.1628 103.054 47.7452 101.928 45.3276 101.365C41.7012 100.802 38.0748 100.239 34.4484 99.1122C33.844 101.365 32.6352 103.617 32.0308 105.87C32.0308 103.617 32.6352 101.365 32.6352 99.1122C31.4264 99.1122 30.822 98.549 30.2176 98.549C29.6132 98.549 28.4044 98.549 27.8 98.549C25.9868 101.928 25.9868 102.491 29.0088 104.744C29.6132 105.307 30.822 105.87 32.0308 105.87C33.2396 106.433 34.4484 106.996 36.2616 108.123C36.2616 105.87 36.2616 104.181 36.866 103.054C36.866 103.054 36.866 103.054 37.4704 103.054C37.4704 104.744 37.4704 106.433 37.4704 108.123C41.0968 109.249 44.7232 109.812 48.3496 110.375C54.998 110.938 61.6464 110.938 68.2948 110.938C73.13 110.938 78.5696 110.938 83.4048 110.375C89.4488 110.375 94.8884 110.375 100.932 109.812C108.79 109.249 116.647 108.686 124.504 106.996C128.735 106.433 132.361 104.744 136.592 103.617C137.801 103.054 140.218 102.491 140.823 101.365C141.427 99.6754 141.427 96.8596 140.823 95.1701C139.614 90.6649 137.196 86.7228 135.988 82.7807C134.779 78.8386 132.966 75.4597 131.757 71.5176C131.152 70.3913 130.548 69.265 128.735 69.8282C128.735 67.0124 128.13 65.8861 127.526 64.7598Z" fill="#020203"/>
<path d="M47.1414 62.5059C44.7238 61.9428 42.9105 54.0586 42.9105 51.806C42.3061 51.806 42.3061 49.5534 42.3061 48.9902C42.3061 48.9902 41.7017 51.2429 41.0973 50.6797C41.0973 51.806 39.2841 58.5639 38.6797 59.6902C36.2621 61.3796 34.4489 63.6323 32.0312 65.3217C33.8445 66.448 35.6577 67.0112 37.4709 68.1375C39.8885 69.827 41.0973 71.5164 40.4929 74.3322C39.8885 76.0217 39.8885 77.7111 40.4929 79.4006C42.3061 78.2743 42.3061 76.5848 42.3061 74.3322C42.3061 71.5164 42.9105 69.2638 44.1193 67.0112C44.7238 65.3217 45.9326 64.1954 48.3502 64.1954C48.9546 64.1954 48.9546 64.1954 49.559 63.6323C48.9546 63.0691 48.9546 62.5059 48.9546 62.5059C47.7458 63.0691 47.7458 63.0691 47.1414 62.5059ZM41.0973 69.2638C38.6797 68.1375 36.8665 66.448 34.4489 65.3217C36.8665 63.0691 38.6797 61.3796 41.0973 59.6902C42.3061 60.8165 42.9105 61.9428 44.1193 63.6323C43.5149 65.3217 42.3061 67.0112 41.0973 69.2638Z" fill="#020203"/>
<path d="M127.527 63.0723H126.923H126.319C125.714 63.0723 125.11 63.0723 124.505 63.6354C123.901 64.1986 122.692 64.7617 122.088 64.7617C114.231 67.0144 106.373 67.5775 98.5161 67.0144C97.3073 67.0144 95.4941 67.0144 94.2853 67.0144C91.8677 67.0144 89.4501 67.0144 87.0325 67.0144C84.0105 67.0144 80.9885 66.4512 77.3621 66.4512C70.1093 66.4512 62.8565 65.888 55.6037 64.7617C53.7905 64.7617 51.9773 64.1986 50.1641 65.3249C51.3729 65.888 51.3729 66.4512 51.9773 66.4512C56.8125 67.0144 61.0433 68.1407 65.8785 68.1407C76.7577 68.7038 87.6369 69.267 98.5161 69.267C101.538 69.267 104.56 69.267 107.582 69.267C114.835 68.7038 121.483 67.5775 128.132 65.3249C127.527 64.1986 127.527 63.6354 127.527 63.0723Z" fill="#020203"/>
<path d="M79.7833 86.1585C77.9701 83.9059 77.3657 82.7796 76.1569 81.0901C74.9481 79.9638 73.7393 78.8375 72.5305 77.7112C70.7173 76.5849 69.5085 77.7112 69.5085 79.4007C69.5085 82.2164 70.1129 84.469 72.5305 86.7217C74.3437 88.4111 75.5525 90.1006 77.3657 91.7901C77.9701 92.3532 78.5745 92.9164 78.5745 93.4795C78.5745 93.4795 78.5745 94.0427 77.9701 94.0427C77.3657 94.0427 76.7613 93.4795 76.1569 93.4795C74.3437 91.7901 72.5305 90.1006 70.7173 87.848C68.2997 85.5954 67.6953 82.2164 67.6953 78.8375C67.6953 76.0217 70.1129 74.3323 73.1349 76.0217C74.3437 76.5849 75.5525 78.2743 76.7613 79.4007C77.3657 79.9638 77.9701 81.0901 79.1789 82.2164C81.5965 79.4007 84.0141 77.7112 87.0361 77.148C91.2669 76.0217 93.6845 77.7112 93.0801 81.6533C92.4757 84.469 91.8713 87.2848 89.4537 89.5374C87.0361 91.7901 85.2229 94.0427 82.8053 96.2953C82.2009 96.8585 81.5965 96.8585 80.9921 96.8585C80.9921 96.8585 80.9921 96.2953 80.3877 96.2953C82.2009 94.6058 84.0141 92.9164 85.8273 91.2269C88.2449 88.9743 90.6625 86.1585 91.2669 82.7796C91.8713 81.0901 92.4757 79.4007 90.6625 77.7112C89.4537 76.5849 86.4317 77.148 84.6185 78.2743C83.4097 79.4006 82.8053 80.527 81.5965 81.6533C80.3877 83.9059 80.3877 85.0322 79.7833 86.1585Z" fill="white"/>
<path d="M89.4492 100.8C91.2624 99.6738 93.68 99.6739 95.4932 99.1107C98.5152 98.5475 100.933 98.5475 103.955 98.5475C113.021 97.9844 122.087 95.7318 130.549 93.4792C132.966 92.916 134.779 91.7897 137.197 91.2266C137.197 92.916 136.593 92.916 135.988 93.4792C128.735 95.1686 122.087 97.4212 114.834 99.1107C108.79 100.237 102.746 100.237 96.0976 100.8C93.68 100.8 91.8668 101.363 89.4492 101.363C89.4492 101.363 89.4492 100.8 89.4492 100.8Z" fill="#020203"/>
<path d="M149.891 50.6879C152.913 48.4321 162.583 48.4321 169.836 50.1239C172.858 50.6879 172.858 51.2518 174.067 52.9437C166.209 50.1239 158.352 50.1239 149.891 50.6879Z" fill="#EB594B"/>
<path d="M147.477 38.2958C147.477 37.1695 147.477 37.1695 148.081 37.1695C153.521 33.2274 158.96 29.2853 165.608 26.4695C166.817 25.9064 167.422 25.9064 167.422 27.0327C165.608 28.159 164.4 28.159 163.191 28.7221C158.96 31.5379 154.125 34.3537 149.894 37.1695C149.29 37.7326 148.685 37.7326 147.477 38.2958Z" fill="#EB594B"/>
<path d="M146.867 65.322C148.076 63.6325 148.68 64.7588 149.285 65.322C151.098 67.0114 153.516 69.2641 155.329 70.9535C157.142 73.7693 158.955 76.5851 159.56 79.964C155.933 74.3325 152.911 68.7009 146.867 65.322Z" fill="#EB594B"/>
<path d="M5.44141 31.541C6.0458 31.541 6.65018 31.541 7.25457 31.541C9.67213 32.6673 11.4853 33.7936 13.9029 35.4831C16.3204 37.1726 18.738 39.4252 21.7599 41.6778C20.5511 42.8041 19.9467 42.2409 18.738 41.6778C17.5292 40.5515 16.3204 39.9883 15.1116 38.862C12.6941 35.4831 9.06774 33.2305 5.44141 31.541Z" fill="#EB594B"/>
<path d="M15.7143 55.1982C12.6923 54.6342 10.2747 53.5063 7.85713 52.9424C5.43955 52.3784 3.02197 52.3784 0 52.3784C0.604394 51.8145 1.20879 51.2505 1.20879 51.2505C4.83515 50.6866 7.85713 51.2505 11.4835 52.3784C13.2967 52.9424 14.5055 53.5063 15.7143 54.0703C15.7143 54.6342 15.7143 54.6342 15.7143 55.1982Z" fill="#EB594B"/>
<path d="M9.06641 72.6477C9.67081 72.0846 10.2752 70.9582 10.8796 70.3951C12.6928 68.1425 15.1104 66.453 16.9236 64.7635C18.1324 63.6372 19.3412 63.0741 21.1544 64.7635C15.7148 66.453 12.6928 69.8319 9.06641 72.6477Z" fill="#EB594B"/>
<path d="M129.942 72.6465C127.525 73.7744 124.503 74.3383 121.48 75.4662C123.898 73.2104 126.316 72.6465 129.942 72.6465Z" fill="#020203"/>
<path d="M128.129 68.7051C126.316 69.833 123.898 70.3969 121.48 70.9609V70.3969C123.294 69.269 125.711 69.269 128.129 68.7051Z" fill="#020203"/>
<path d="M46.5369 65.3308C49.5589 63.0781 52.5809 61.3887 56.8117 64.2045C58.0205 61.9518 58.0205 61.9518 56.2073 61.3887C54.3941 60.8255 53.1853 60.2624 51.3721 60.2624C52.5809 58.5729 54.3941 58.0098 56.8117 57.4466C59.2293 57.4466 61.6469 57.4466 64.0645 56.8834C64.6689 56.8834 65.8777 56.8834 67.0865 56.3203C66.4821 55.194 65.2733 54.6308 64.6689 54.0677C63.4601 52.3782 63.4601 51.815 65.8777 50.6887C67.0865 50.1256 68.2953 49.5624 69.5041 48.9993C69.5041 48.9993 69.5041 48.4361 68.8997 48.4361C67.0865 48.9993 65.2733 49.5624 62.8557 50.1256C62.8557 47.3098 67.0865 47.873 69.5041 45.6203C67.0865 46.1835 65.2733 46.7467 63.4601 47.3098C64.0645 43.9309 66.4821 41.6783 69.5041 39.9888C72.5261 39.4256 74.9437 39.4256 76.7569 38.2993C78.5701 37.173 78.5701 35.4836 79.7789 33.7941C81.5921 31.5415 84.6141 32.1046 86.4273 33.2309C87.6361 33.7941 88.2405 34.9204 89.4493 36.0467C90.0537 36.6099 90.0537 37.173 90.6581 37.7362C91.2625 37.7362 91.8669 37.7362 92.4713 37.7362C94.8889 37.7362 97.3065 38.2993 99.1197 39.9888C102.746 43.3677 105.768 46.7467 105.164 51.2519C105.164 51.8151 105.164 52.9414 105.768 53.5045C105.768 53.5045 106.372 54.0677 106.977 54.0677C107.581 53.5045 108.186 52.9414 108.79 52.3782C111.208 54.0677 114.23 55.7571 114.834 58.0098C115.438 60.8255 113.625 63.0781 111.208 65.3308C111.812 65.3308 111.812 65.3308 112.416 65.3308C114.834 64.7676 117.252 65.3308 119.669 65.8939C120.274 65.8939 121.482 65.3308 122.691 65.3308C120.878 64.2045 119.065 63.6413 116.647 63.0781C117.252 60.2624 119.065 57.4466 116.647 55.194C114.834 52.9414 112.416 50.6887 108.186 50.1256C107.581 45.0572 105.164 41.1151 100.328 37.7362C99.7241 37.173 98.5153 36.0467 97.3065 36.0467C93.0757 36.0467 91.2625 34.3572 89.4493 32.1046C88.8449 31.5415 87.6361 30.9783 87.0317 30.4152C82.8009 28.7257 80.3833 29.2889 77.9657 32.1046C77.3613 32.6678 76.7569 33.2309 76.7569 33.7941C76.1525 34.9204 74.9437 35.4836 73.7349 35.4836C68.2953 36.6099 64.0645 39.4256 62.2513 43.3677C61.0425 46.7467 60.4381 49.5624 61.0425 52.9414C59.8337 52.9414 58.6249 53.5045 57.4161 53.5045C53.1853 54.6308 49.5589 55.7571 48.9545 59.6992C48.9545 60.2624 48.3501 60.8255 47.7457 61.3887C46.5369 61.9518 45.9325 62.515 45.3281 63.6413C45.3281 65.3308 45.9325 65.3308 46.5369 65.3308Z" fill="#020203"/>
<path d="M66.4836 13.5157C65.8792 14.0789 65.8792 14.0789 65.2748 14.642C62.8572 16.3315 61.6484 18.0209 62.2528 21.3999C62.8572 23.6525 62.2528 25.9051 62.2528 27.5946C62.2528 28.7209 61.6484 30.4104 59.8352 30.4104C59.8352 29.284 59.2308 28.7209 59.2308 28.1577C59.2308 27.0314 59.2308 25.342 59.2308 24.2157C59.2308 18.5841 57.4176 17.4578 51.978 18.0209C50.7692 18.0209 49.5604 18.0209 48.3516 18.0209C48.3516 17.4578 48.3516 17.4578 48.3516 16.8946C48.956 16.3315 49.5604 16.3315 50.1648 15.7683C54.3956 14.642 56.2088 12.3894 56.2088 7.88416C56.2088 5.06839 56.2088 2.25262 57.4176 0C59.8352 0 59.8352 1.68946 59.8352 2.81577C59.8352 4.50524 59.2308 6.1947 59.2308 7.88416C58.6264 11.2631 60.4396 12.9526 64.066 11.8262C65.2748 11.2631 65.8792 11.8262 66.4836 13.5157ZM59.8352 16.8946C61.6484 14.0789 61.044 13.5157 56.8132 12.9526C56.8132 13.5157 56.2088 14.642 55.6044 15.7683C57.4176 16.3315 58.6264 16.3315 59.8352 16.8946Z" fill="#020203"/>
<path d="M126.928 27.5964C126.928 28.7227 126.928 30.4121 126.928 31.5384C126.928 32.6648 126.324 34.3542 126.928 35.4805C126.928 38.2963 128.741 39.9858 132.368 40.5489C132.972 40.5489 134.181 41.1121 135.39 41.6752C129.346 43.9278 129.346 47.3068 129.95 51.2489C130.555 52.9383 129.95 54.0646 129.95 55.7541C129.95 56.8804 129.346 58.0067 126.928 58.5699C126.928 56.8804 126.928 55.1909 126.928 53.5015C126.928 52.3752 126.928 50.6857 126.928 49.5594C126.324 46.1805 123.906 44.491 120.884 44.491C119.675 44.491 118.467 44.491 117.258 44.491C119.071 42.8015 120.28 41.1121 121.489 39.4226C123.302 37.7331 123.906 35.4805 123.906 33.2279C123.906 31.5384 123.906 29.849 124.511 28.1595C124.511 27.5964 125.719 27.5964 125.719 27.0332C125.719 27.0332 126.324 27.5964 126.928 27.5964ZM128.137 45.0542C128.741 41.6752 125.719 41.1121 124.511 38.8595C123.302 39.9858 122.697 41.1121 122.093 42.2384C124.511 42.8015 126.324 43.9278 128.137 45.0542Z" fill="#020203"/>
<path d="M79.7812 46.7383C79.7812 45.0488 80.9901 43.3594 82.1989 43.3594C83.4077 43.3594 84.0121 44.4857 84.0121 45.612C84.0121 47.3015 82.8033 47.8646 81.5945 47.8646C80.3857 47.8646 79.7812 47.3015 79.7812 46.7383Z" fill="#020203"/>
<path d="M68.2969 59.1308C69.5057 58.5669 70.7146 56.3111 71.9234 58.5669C72.5278 59.6947 72.5278 61.3866 71.319 61.3866C69.5057 61.9505 68.9013 60.8226 68.2969 59.1308Z" fill="#020203"/>
<path d="M95.4922 58.0108C96.0966 56.3189 97.3055 55.755 98.5144 56.3189C99.1188 56.3189 99.1188 58.0108 99.1188 58.0108C97.9099 59.1387 96.7011 58.5747 95.4922 58.0108Z" fill="#020203"/>
</svg>
