<svg width="84" height="69" viewBox="0 0 84 69" fill="none" xmlns="http://www.w3.org/2000/svg">
<path d="M10.7234 42.655C12.0278 44.2339 14.2245 45.0577 16.284 44.9204C18.3435 44.7831 20.3343 43.7533 21.8445 42.3804C23.3548 40.9387 24.4532 39.0852 26.3067 38.1241C28.6408 36.8885 31.5927 37.4377 34.064 36.4766C36.81 35.4468 38.6635 32.4263 38.3202 29.4744C37.977 26.5225 35.5743 23.9825 32.691 23.5706C31.2494 23.3647 29.7391 23.5706 28.5035 22.8841C26.9245 22.0603 26.2381 20.1382 25.6889 18.422C25.277 17.1176 24.9337 15.8133 24.5218 14.509C24.2472 13.6165 23.9727 12.7241 24.1099 11.8317C24.2472 10.802 24.7278 9.90952 25.2083 9.01708C25.7575 7.9187 26.3067 6.82033 26.444 5.58465C26.5813 4.34897 26.1694 3.04465 25.2083 2.22086C24.1786 1.39708 22.737 1.32843 21.364 1.39708C19.3732 1.46573 17.3824 1.60302 15.5975 2.35816C13.8126 3.11329 12.0964 4.48627 11.4786 6.33979C10.6548 5.24141 9.21318 4.76086 7.8402 4.89816C6.46723 5.03546 5.1629 5.58465 4.06452 6.33979C1.86776 7.78141 -0.191698 10.0468 0.0142483 12.7241C0.151546 14.4403 1.24992 15.9506 2.27966 17.3922C2.89749 18.216 3.58398 19.1084 4.54506 19.589C5.23155 19.9322 6.05534 20.0695 6.74182 20.4128C8.18345 21.1679 8.80128 22.8841 9.28182 24.3944C10.3802 27.6895 10.8607 30.1609 9.62507 33.3187C8.52669 36.202 8.66399 40.1836 10.7234 42.655Z" fill="white"/>
<path d="M36.7393 25.9052C37.5631 26.7977 38.0437 27.9647 38.3183 29.2004C38.5929 30.2988 38.6615 31.4658 38.3183 32.4955C37.9064 33.6625 37.0139 34.6236 35.9156 35.1728C34.8172 35.722 33.5815 35.9279 32.3458 35.7907C31.9339 35.7907 31.5907 35.722 31.2474 35.5161C30.561 35.1728 30.2864 34.349 30.2864 33.5939C30.2177 32.2896 30.6296 30.9166 30.6983 29.6123C30.7669 28.3079 30.2864 27.1409 29.9431 25.9052C29.7372 25.2187 29.4626 23.9831 30.1491 23.5025C30.9042 22.8847 32.6204 23.7771 33.4442 24.0517C34.6112 24.395 35.8469 24.9442 36.7393 25.9052Z" fill="#BCBCBB"/>
<path d="M11.6181 32.8371C12.0987 31.7387 12.9911 30.8463 13.197 29.6793C13.6089 27.5512 11.8241 25.629 11.2749 23.5009C11.0689 22.5398 11.0689 21.5101 10.5197 20.6863C9.97056 19.7939 8.94083 19.3133 7.97975 18.9014C5.85163 18.009 3.79217 17.1166 1.66406 16.2241C2.21325 18.4209 3.79217 20.343 5.85163 21.3041C6.88137 21.7847 8.11704 22.0593 8.94083 22.9517C9.49002 23.5695 9.69596 24.3247 9.90191 25.0798C10.3138 26.5214 10.7257 28.0317 10.3138 29.4733C9.83326 31.1209 8.39164 32.3566 7.84245 33.9355C7.22461 35.6517 7.7738 37.5052 8.73488 39.0155C9.42137 40.1139 11.6868 42.5852 13.197 42.242C15.3252 41.6928 12.9225 39.9766 12.3046 38.9468C11.2749 37.0933 10.7257 34.8279 11.6181 32.8371Z" fill="#BCBCBB"/>
<path d="M32.2808 24.5312C32.1435 23.6387 31.3883 23.6387 30.7705 23.6387C29.6035 23.5701 28.5051 23.6387 27.2008 23.6387C26.9948 23.0895 26.7202 22.4717 26.5143 21.9225C25.6905 19.3139 24.8667 16.7052 23.9743 14.0966C23.9056 13.822 23.7683 13.5474 23.6997 13.3414C23.3564 11.8998 23.2192 10.6641 24.4548 9.3598C25.8278 7.98682 25.8278 5.92736 25.3473 4.07385C25.004 2.35763 22.8759 1.0533 20.8851 1.0533C19.1002 1.12195 17.5213 2.01438 15.9424 2.76952C14.2262 3.59331 13.3337 5.03493 12.7845 6.75115C12.6472 7.16304 12.3727 7.50628 12.0294 8.05547C9.764 5.51547 7.224 5.10358 4.47805 6.5452C2.48724 7.57493 1.45751 9.3598 1.52615 11.8998C2.96778 11.2133 4.20345 10.3209 5.98832 10.3209C4.75264 11.282 3.10508 11.1447 2.14399 12.7236C3.79156 12.1744 5.16454 11.6939 6.53751 11.2133C6.60616 11.3506 6.60616 11.4193 6.67481 11.5566C6.33156 11.6939 5.91967 11.8312 5.57643 11.9685C4.47805 12.5176 3.37967 12.9982 2.34994 13.5474C1.7321 13.8906 1.66345 14.4398 2.14399 14.9203C2.69318 15.4695 3.24237 16.0874 3.86021 16.362C5.37048 17.1171 6.88076 18.0095 8.66562 17.8722C9.42076 17.8036 9.69535 18.3528 9.9013 18.9706C10.5878 20.8928 11.3429 22.8836 12.0294 24.8058C12.3727 25.7668 12.9218 26.7279 13.2651 27.689C13.3337 27.9636 13.1278 28.3068 12.9905 28.6501C12.7159 28.5128 12.3727 28.3755 12.2354 28.1695C11.8235 27.3458 11.4802 26.4533 11.137 25.6295C10.7937 24.8744 10.3818 24.1879 10.0386 23.4328C9.69535 22.2658 9.35211 21.1674 9.00887 20.0004C8.80292 19.1766 8.25373 18.902 7.42995 18.8333C5.98832 18.7647 4.684 18.0782 3.44832 17.3231C3.17372 17.1171 2.83048 17.0485 2.28129 16.7739C2.41859 17.8036 2.96778 18.3528 3.65427 18.696C4.75264 19.3139 5.85103 19.9317 7.0867 20.2063C8.11643 20.4809 8.73427 20.8928 9.14616 21.7852C9.42076 22.3344 9.69535 22.8149 10.0386 23.3641C10.3818 24.7371 10.7251 26.1101 11.137 27.4831C11.5489 28.7187 11.6175 29.7485 10.7251 30.8468C9.96995 31.7393 9.55806 32.9063 9.69535 34.142C10.5191 34.3479 10.4505 33.6614 10.7251 33.3182C11.3429 32.3571 11.9608 31.396 12.6472 30.5036C12.7845 30.2977 13.2651 30.229 13.5397 30.0917C13.6083 30.1604 13.677 30.2977 13.8143 30.3663C13.6083 30.7095 13.471 31.0528 13.1964 31.3274C11.3429 33.1123 10.9997 35.1717 11.8235 37.5058C12.304 38.8101 12.8532 40.0458 13.9516 40.9382C16.4229 42.929 19.5808 42.3798 21.5716 40.8009C22.8073 39.8398 24.1802 38.9474 24.8667 37.4371C25.004 37.2312 25.3473 37.0939 25.6905 36.8879C26.0337 37.7117 25.6905 38.2609 25.3473 38.8101C23.0132 41.8993 19.7867 43.7528 16.0797 44.7139C14.9813 44.9885 13.8829 44.7825 12.9218 44.0961C10.1072 42.1052 8.11643 39.5652 8.04778 35.9955C8.04778 34.0047 8.39103 31.9452 9.6267 30.2977C10.1072 29.6798 10.1759 29.062 9.96995 28.3068C9.42076 26.6593 8.87157 24.9431 8.39103 23.2955C8.04778 22.1971 7.3613 21.5793 6.26292 21.236C5.02724 20.8241 3.86021 20.2063 2.76183 19.4512C1.45751 18.5587 0.771019 17.0485 0.565073 15.5382C0.359127 14.0966 0.359127 12.5863 0.427776 11.076C0.496425 7.98682 2.83048 5.51547 5.85102 4.89763C8.04778 4.41709 9.96995 4.96628 11.6862 6.27061C11.8235 6.06466 11.9608 5.99601 11.9608 5.92736C13.1964 2.01439 16.5602 0.916006 19.9927 0.092221C21.9835 -0.38832 25.5532 1.0533 26.171 3.38736C26.7889 5.72142 26.5143 7.98682 24.9354 9.90899C24.1116 10.8701 23.9056 11.7625 24.2489 12.9295C25.21 15.9501 26.2397 18.9706 27.2008 21.9912C27.2694 22.1285 27.3381 22.2658 27.4754 22.4031C28.9856 22.5404 30.5646 22.609 32.0062 22.9522C36.0565 23.9133 40.0381 27.5517 38.4592 32.975C37.7727 35.2404 36.1938 36.3387 34.0656 36.6133C32.1435 36.8879 30.1527 36.8193 28.1619 36.8879C28.0246 36.8879 27.8186 36.8879 27.6813 36.8193C27.2694 36.682 26.5143 36.6133 26.7202 35.9269C26.9262 35.2404 27.4754 35.515 27.9559 35.5836C30.2213 35.9269 32.4181 35.7896 34.6835 35.309C36.1938 34.9658 37.1548 34.0047 37.5667 32.4944C38.3219 29.7485 37.6354 27.5517 35.37 25.8355C34.7521 25.3549 34.1343 24.9431 33.5165 24.4625C33.2419 24.1879 32.6927 24.0506 32.2808 24.5312C32.2121 24.5312 32.2808 24.5312 32.2808 24.5312ZM15.4618 43.6842C15.5305 43.5469 15.6678 43.4096 15.7364 43.2723C12.3727 42.3112 11.4802 39.3593 10.3132 36.7506C9.6267 36.8193 9.42076 37.0939 9.55805 37.6431C10.1759 40.3204 11.8235 42.1739 14.2262 43.4096C14.5694 43.6842 15.05 43.6155 15.4618 43.6842ZM10.3132 35.1031C9.69535 35.1717 9.35211 35.4463 9.55805 36.0642C9.55805 36.2015 9.9013 36.3387 10.0386 36.2701C10.5878 35.9955 10.5191 35.515 10.3132 35.1031Z" fill="black"/>
<path d="M28.5742 27.8269C29.5353 26.4539 30.7023 25.2869 32.2813 24.5317C32.2813 24.5317 32.2126 24.5317 32.2813 24.5317C31.3888 25.4242 30.565 26.3166 29.6726 27.1404C29.3294 27.415 28.9175 27.6209 28.5742 27.8269Z" fill="black"/>
<path d="M30.3594 27.758C31.2518 27.0715 32.1442 26.3164 33.0367 25.6299C33.1053 25.6985 33.174 25.8358 33.3113 25.9045C32.4188 26.6596 31.5951 27.3461 30.7026 28.1012C30.5653 27.9639 30.4967 27.8266 30.3594 27.758Z" fill="black"/>
<path d="M28.5749 27.8257C28.3003 28.1689 28.0258 28.5808 27.7512 28.9241C27.6139 28.7868 27.5452 28.7181 27.4766 28.5808C27.8198 28.3062 28.2317 28.1003 28.5749 27.8257Z" fill="black"/>
<path d="M66.6004 45.8808C67.7675 43.8213 69.0031 41.7619 70.788 40.1829C72.5042 38.6727 74.5637 37.6429 76.6918 36.8192C78.3394 36.2013 80.0556 35.6521 81.2226 34.3478C82.3896 33.0435 82.6642 30.7781 81.2913 29.6797C80.3988 29.6797 79.9869 30.7781 79.6437 31.5332C79.1632 32.5629 78.3394 33.3867 77.3096 33.7986C75.868 34.3478 74.1518 34.2105 72.9161 35.1029C71.8177 35.8581 71.3372 37.0937 70.6507 38.1921C69.2777 40.3889 67.081 42.0365 65.3648 44.0273C64.2664 45.3316 62.4815 47.9402 63.0994 49.7938C63.5799 51.2354 63.9231 50.4116 64.541 49.4505C65.2275 48.2835 65.914 47.0478 66.6004 45.8808Z" fill="#BCBCBB"/>
<path d="M47.1758 52.5377C48.1369 53.0869 49.3039 53.3615 50.1964 54.048C52.1185 55.4896 52.7364 58.3728 54.8645 59.4712C56.5121 60.295 58.5029 59.8145 60.2191 59.1966C60.6996 58.9907 61.2488 58.7847 61.5921 58.3728C62.4159 57.549 62.4845 56.3134 62.6218 55.215C63.2396 49.1739 66.1915 43.3388 70.7223 39.2885C71.2715 38.7393 71.8894 38.2588 72.5759 37.8469C74.2921 36.7485 76.2829 36.3366 78.1364 35.5128C79.9899 34.689 81.7748 33.316 82.1867 31.3252C82.5299 29.7463 81.8434 28.0301 80.6764 26.8631C79.5094 25.696 77.9991 24.9409 76.4888 24.4604C75.1159 24.0485 73.6742 23.7052 72.7818 22.6068C72.2326 21.9204 71.958 21.0279 71.5461 20.3414C70.2418 18.282 67.2899 17.7328 64.9559 18.6252C62.6218 19.5177 61.0429 21.6458 60.0131 23.8425C59.6013 24.735 59.258 25.7647 59.258 26.7258C59.258 27.6869 59.7386 28.7852 60.631 29.2658C57.8164 32.8355 55.0704 36.3366 52.1872 39.8377C52.0499 40.0436 51.844 40.2496 51.638 40.3869C51.2948 40.5242 50.8829 40.3869 50.471 40.3182C43.0569 38.3961 41.8899 49.6544 47.1758 52.5377Z" fill="white"/>
<path d="M69.4839 18.2146C70.3077 18.4205 71.2687 18.901 71.2687 19.7248C71.2687 20.2054 70.9941 20.6173 70.6509 20.8919C70.3077 21.1665 69.8271 21.3724 69.4152 21.5097C67.4244 22.3335 66.326 23.5005 64.8158 24.9421C63.786 25.9719 63.1682 25.7659 62.4817 24.2556C60.4909 19.7248 65.6396 17.3221 69.4839 18.2146Z" fill="#BCBCBB"/>
<path d="M44.9787 50.6849C45.1847 51.0968 45.3906 51.5773 45.7339 51.9206C46.3517 52.4698 47.2442 52.6757 48.0679 52.813C49.7155 53.019 51.3631 53.0876 53.0107 52.9503C52.5301 54.8038 53.4912 56.8633 55.0015 58.0303C56.5117 59.1973 58.5025 59.6092 60.4934 59.6779C57.2669 61.6687 52.5301 60.639 50.402 57.4811C49.9901 56.8633 49.6469 56.1768 49.1663 55.559C48.2739 54.4606 46.9009 53.8427 45.8712 52.8817C44.5669 51.646 43.6058 49.4492 43.949 47.5957C44.155 48.6254 44.4982 49.6552 44.9787 50.6849Z" fill="#BCBCBB"/>
<path d="M73.5352 22.8832C74.7023 22.8832 75.5947 22.8832 76.5558 22.8832C77.7228 22.9519 78.8212 23.2951 79.645 24.1876C80.1255 24.6681 80.6061 25.08 81.0866 25.5605C83.2834 27.5514 83.9012 30.366 82.4596 32.9746C81.018 35.6519 78.8212 37.5054 75.6634 37.9173C74.6336 38.0546 74.0158 38.5352 73.398 39.2903C71.4758 41.693 69.4163 43.9584 67.4942 46.3611C66.2585 47.8714 65.0915 49.4503 63.9244 51.0292C63.7871 51.2352 63.8558 51.6471 63.7871 51.9903C63.5812 53.2946 63.4439 54.599 63.2379 55.9033C63.1693 56.3152 62.8947 56.7271 62.9634 57.139C63.1006 58.5806 62.2082 59.473 61.1785 60.2968C58.9131 62.013 55.9612 62.219 53.6271 60.7087C51.9796 59.6103 50.6066 58.4433 49.6455 56.6584C49.4396 56.2465 48.959 55.9719 48.6158 55.6973C48.1352 55.3541 47.586 55.0795 47.0368 54.8736C43.3985 53.2946 41.7509 50.48 42.0255 46.4984C42.0941 45.8806 42.1628 45.1941 42.2314 44.5762C42.3687 43.9584 42.3687 43.2033 43.3985 43.2719C43.5358 43.2719 43.6731 42.9973 43.8104 42.86C44.2222 42.3108 44.6341 41.7616 45.046 41.1438C46.1444 39.5649 47.6547 39.3589 49.4395 39.7708C50.1947 39.9768 50.9498 40.1827 51.7736 40.3887C55.206 37.0249 57.746 32.906 60.6293 28.993C58.7758 26.8649 59.5309 24.5995 60.2174 22.3341C60.8352 20.2059 62.2769 18.7643 64.405 18.0092C64.6796 17.8719 65.0228 17.7346 65.2974 17.5973C68.5239 15.8124 71.8877 18.0092 72.8488 20.8238C72.9861 21.167 73.0547 21.5789 73.1234 21.9222C73.2607 22.1968 73.398 22.6087 73.5352 22.8832ZM71.2012 22.1968C71.1325 21.167 71.3385 20.4119 70.9952 19.9314C70.7207 19.4508 69.9655 19.2449 69.485 18.9016C69.3477 18.833 69.2104 18.6957 69.1417 18.5584C68.5239 18.0092 67.7688 17.8719 66.945 18.0778C64.199 18.833 61.7963 20 61.0412 23.1578C60.9725 23.4324 60.9039 23.707 60.8352 23.9816C60.4233 25.8351 60.2174 27.6887 62.2769 28.7184C61.1098 30.16 60.0801 31.4643 58.9817 32.906C58.1579 33.9357 57.4714 35.1027 56.7163 36.1325C55.3433 37.9173 53.9704 39.7022 52.5974 41.4184C52.1855 41.9676 51.7736 41.9676 51.0871 41.5557C48.3412 39.8395 45.7325 40.7319 44.7714 43.8898C44.2909 45.5373 44.2909 47.3908 45.046 48.9698C46.2817 51.5098 48.0666 53.2946 51.499 52.3335C51.8423 52.2649 52.1855 52.1963 52.5974 52.1963C52.666 52.5395 52.7347 52.7454 52.7347 52.9514C52.5974 55.3541 53.9017 56.8644 55.6866 58.0314C56.9909 58.9238 58.2952 58.7865 59.5996 58.1687C60.0801 57.9627 60.9725 57.6882 60.3547 56.7271C60.286 56.5898 60.492 56.2465 60.6293 56.0406C61.0412 55.4914 61.3844 54.9422 61.865 54.4617C62.5515 53.7065 62.6888 52.8141 62.4142 51.853C62.2769 51.3038 61.865 50.7546 61.7963 50.2054C61.659 49.6562 61.5904 48.9011 61.865 48.4892C62.826 47.1162 63.7871 45.6746 65.0228 44.5076C66.3271 43.3406 67.4255 42.1049 68.3866 40.7319C69.3477 39.2903 70.3774 37.8487 71.4071 36.4757C71.6131 36.2011 71.8877 35.9952 72.1623 35.7892C72.7801 36.3384 72.4369 36.6816 72.2309 37.0249C71.819 37.6427 71.4071 38.3292 70.9266 38.8784C69.0044 41.2811 67.7001 44.0957 65.3661 46.2238C64.8169 46.7044 64.405 47.3908 63.9931 48.0773C63.8558 48.2833 63.9931 48.6265 64.0617 49.313C64.7482 48.5579 65.1601 48.0773 65.572 47.5281C68.1807 44.3016 70.7206 41.0065 73.3293 37.78C73.7412 37.2308 74.1531 37.0249 74.8396 37.0249C77.7915 36.9562 80.0569 35.5146 81.4985 32.9746C82.1163 31.8762 82.185 31.2584 81.8418 30.0914C81.7045 30.5033 81.5672 30.8465 81.4299 31.2584C80.8807 32.9746 79.8509 34.2789 78.1347 34.8968C76.9677 35.3087 75.6634 35.5146 74.4277 35.6519C73.6726 35.7206 72.9174 35.5833 72.1623 35.446C71.9563 35.3773 71.819 34.9654 71.6131 34.7595C71.819 34.6222 72.025 34.4849 72.2309 34.3476C72.3682 34.2789 72.5742 34.2789 72.7115 34.3476C74.2904 34.8968 75.8693 34.4162 77.3796 34.0043C79.3704 33.4552 80.812 31.533 80.7434 29.4735C80.6747 25.6292 77.5855 23.707 74.2904 24.3935C73.7412 24.5308 73.2607 24.5995 72.7115 24.7368C72.0936 23.6384 72.5742 22.4027 71.7504 21.373C71.5444 21.5103 71.4071 21.7849 71.2012 22.1968ZM51.3617 53.5006C46.9682 54.0498 44.6341 51.7157 43.1925 47.94C43.1239 49.8622 43.9477 51.3725 45.3206 52.5395C46.3504 53.3633 47.6547 54.0498 48.8904 54.5303C49.9201 54.8736 50.4693 55.4227 50.9498 56.3838C52.3228 58.9238 54.5196 60.3655 57.4028 60.5714C57.6774 60.5714 57.952 60.4341 58.2266 60.3655C54.7255 59.2671 52.1169 57.4822 51.3617 53.5006Z" fill="black"/>
<path d="M47.3792 47.1841C46.7614 47.596 46.0749 48.0079 45.457 48.4198C45.7316 47.4587 46.4868 47.1841 47.3792 47.1841Z" fill="black"/>
<path d="M47.3828 47.1844C47.7261 46.9785 48.0693 46.8412 48.4125 46.6353C48.4812 46.7039 48.4812 46.8412 48.4812 46.9098C48.1379 46.9785 47.7261 47.0471 47.3828 47.1844Z" fill="black"/>
<path d="M17.3138 63.2499C18.0003 62.4261 18.8927 61.8083 19.7852 61.1904C20.8835 60.3666 21.9133 59.5429 22.8744 58.5131C23.6295 57.758 24.316 56.9342 25.1398 56.3164C26.0322 55.6985 27.0619 55.3553 28.0917 55.6299C29.8079 56.1104 30.563 58.2385 29.6706 59.6802C28.7095 61.1904 26.5814 61.7396 25.3457 63.1126C23.6981 65.0348 23.0117 68.1926 19.9911 67.9866C17.5198 67.7807 15.5289 65.5153 17.3138 63.2499Z" fill="white"/>
<path d="M26.5143 62.6999C27.3381 62.0821 28.1619 61.5329 28.7797 60.7778C29.3976 60.0226 29.8781 58.9929 29.8095 58.0318C29.8095 57.8945 29.7408 57.7572 29.6722 57.6199C29.4662 57.414 29.123 57.5513 28.8484 57.7572C26.377 59.4048 24.1116 61.327 22.1208 63.4551C21.297 64.3475 21.297 65.5145 22.67 65.3086C23.9057 65.1713 25.5532 63.4551 26.5143 62.6999Z" fill="#BCBCBB"/>
<path d="M26.9934 54.1191C28.0918 55.0802 29.1901 55.8354 30.0826 56.7964C30.975 57.7575 30.9064 58.0321 30.1512 59.0618C29.4647 60.0229 28.7096 60.984 27.8172 61.8078C26.3755 63.2494 24.728 64.4851 23.4236 65.9954C22.5999 66.9564 21.6388 67.5056 20.609 68.0548C18.5496 69.0846 17.3826 68.6727 16.0782 66.6132C15.3917 65.5148 15.9409 63.4554 17.108 62.4943C19.0988 60.8467 21.0896 59.0618 23.0804 57.4143C24.3161 56.3845 25.5518 55.3548 26.9934 54.1191ZM17.7258 65.1716C17.7945 66.064 17.5885 67.2997 18.7555 67.5056C19.648 67.6429 20.5404 67.0251 20.9523 66.064C21.0209 65.9954 20.9523 65.8581 21.0209 65.5835C20.4718 64.9656 19.8539 64.3478 19.3047 63.73C18.5496 63.9359 18.0004 64.1419 17.3826 64.2791C17.5199 64.6224 17.6572 64.897 17.7258 65.1716ZM22.3253 65.2402C23.0118 64.5537 23.6296 63.9359 24.2474 63.3181C24.7966 62.7689 24.8653 62.151 24.3847 61.5332C24.1788 61.19 23.9728 60.7781 23.7669 60.3662C23.8355 60.2975 23.9728 60.2289 24.0415 60.2289C24.4534 60.7781 24.8653 61.2586 25.2085 61.7391C26.7874 61.19 25.4145 60.0916 25.7577 59.1991C26.1009 59.5424 26.3755 59.817 26.6501 60.1602C27.4739 59.611 28.1604 59.1991 28.8469 58.65C29.0528 58.444 29.2588 57.9635 29.1901 57.6889C28.7782 56.1786 26.8561 55.4921 25.6891 56.4532C23.9042 57.9635 22.188 59.5424 20.4031 61.1213C20.0599 61.4646 19.7853 61.8764 19.442 62.2883C20.4718 63.3181 21.3642 64.2105 22.3253 65.2402Z" fill="black"/>
<path d="M68.3143 53.8448C68.1083 53.8448 67.8338 53.7761 67.6965 53.6388C67.5592 53.5015 67.5592 53.2956 67.4905 53.0897C67.2846 51.854 67.0786 50.5496 67.4219 49.314C67.6965 48.0783 68.5889 46.9113 69.8932 46.6367C70.9916 46.4307 72.09 46.9113 73.1197 47.3232C74.3554 47.8723 75.5911 48.3529 76.8267 48.7648C77.7192 49.108 79.6413 49.2453 80.3965 49.8632C81.5635 50.8242 81.2889 54.2567 79.7786 54.8745C78.6116 55.3551 76.7581 54.3253 75.5224 54.188C73.1197 53.9134 70.717 54.1194 68.3143 53.8448Z" fill="white"/>
<path d="M68.7256 51.8545C69.0002 51.6485 69.3434 51.5799 69.6867 51.5799C72.2267 51.3053 74.7667 51.168 77.3067 51.168C77.5813 51.168 77.8559 51.168 78.0618 51.3739C78.1991 51.5112 78.1991 51.7858 78.1991 51.9918C78.1991 52.4036 78.1991 52.8155 78.1991 53.2274C78.1991 53.3647 78.1991 53.5707 78.1304 53.708C77.9931 53.8453 77.7872 53.9139 77.5813 53.9139C75.4531 54.1199 73.3937 54.1199 71.2656 53.8453C70.7164 53.708 67.078 53.2274 68.7256 51.8545Z" fill="#BCBCBB"/>
<path d="M68.0399 48.3541C68.7264 48.0795 69.4129 47.8049 70.0307 47.599C70.3053 47.4617 70.7858 47.3244 70.9918 47.4617C72.3648 48.4914 74.081 48.2168 75.5912 48.2854C77.6507 48.4227 79.5042 49.3152 81.495 49.6584C82.0442 49.7271 82.1815 50.2076 82.0442 50.6881C81.701 51.7865 81.3577 52.8849 80.8772 53.9146C80.4653 54.7384 79.7102 55.013 78.8177 54.9444C77.1702 54.8757 75.5226 54.8757 73.875 54.7384C72.0902 54.5325 70.3053 54.1892 68.5204 53.846C67.5594 53.64 67.4907 53.3654 67.628 52.3357C67.8339 51.0314 67.9026 49.7271 68.0399 48.3541ZM72.0902 52.9536C74.0123 53.5714 75.5913 53.3654 77.2388 53.2281C77.3761 52.0611 77.4448 51.0314 77.5821 49.933C76.6896 49.7271 75.8658 49.4525 75.1107 49.3838C74.6988 49.3838 74.1496 49.5898 73.875 49.933C73.2572 50.8254 72.7767 51.7865 72.0902 52.9536ZM73.6004 49.3838C72.3648 48.8346 71.1977 49.0406 70.0994 49.2465C69.3442 49.3838 69.001 50.0703 69.001 51.2373C69.001 51.9925 69.0696 52.8163 70.0994 52.8163C70.6485 51.7179 71.1291 50.6881 71.6096 49.5898C71.7469 49.6584 71.8156 49.6584 71.9529 49.7271C71.541 50.7568 71.1291 51.7865 70.6485 53.0222C71.1291 52.9536 71.335 52.9536 71.4037 52.8849C72.1588 51.7865 72.8453 50.6195 73.6004 49.3838ZM80.8086 50.8254C79.5729 50.6881 79.2296 50.8254 78.955 51.5119C78.6804 52.3357 78.8864 53.1595 79.7102 53.7087C80.534 52.9536 80.534 51.9238 80.8086 50.8254Z" fill="black"/>
</svg>
