<svg width="102" height="86" viewBox="0 0 102 86" fill="none" xmlns="http://www.w3.org/2000/svg">
<path d="M21.2938 57.6471C22.5981 59.226 24.7948 60.0498 26.8543 59.9125C28.9138 59.7752 30.9046 58.7454 32.4149 57.3725C33.9251 55.9308 35.0235 54.0773 36.877 53.1162C39.2111 51.8806 42.163 52.4298 44.6343 51.4687C47.3803 50.4389 49.2338 47.4184 48.8905 44.4665C48.616 41.5833 46.1446 38.9746 43.2614 38.5627C41.8884 38.3568 40.3095 38.5627 39.0738 37.9449C37.4949 37.1211 36.8084 35.1989 36.2592 33.4827C35.8473 32.1784 35.504 30.8741 35.0922 29.5697C34.8176 28.6773 34.543 27.7849 34.6803 26.8924C34.8176 25.8627 35.2981 24.9703 35.7786 24.0778C36.3278 22.9795 36.877 21.8811 37.0143 20.6454C37.1516 19.4097 36.7397 18.1054 35.7786 17.3503C34.7489 16.5265 33.3073 16.4578 31.9343 16.5265C29.9435 16.5951 27.9527 16.7324 26.1678 17.4876C24.383 18.2427 22.6667 19.6157 22.0489 21.4692C21.2251 20.3708 19.7148 19.8903 18.4105 20.0276C17.1062 20.1649 15.7332 20.714 14.6348 21.4692C12.4381 22.9108 10.3786 25.1762 10.5846 27.8535C10.7219 29.5697 11.8202 31.08 12.85 32.5216C13.4678 33.3454 14.1543 34.2378 15.1154 34.7184C15.8019 35.0616 16.6256 35.1989 17.3121 35.5422C18.7538 36.2973 19.3716 38.0135 19.8521 39.5238C20.9505 42.8189 21.4311 45.2216 20.1954 48.4481C19.097 51.1941 19.2343 55.2444 21.2938 57.6471Z" fill="white"/>
<path d="M47.3119 40.9651C48.1357 41.8575 48.6162 43.0932 48.8908 44.2602C49.1654 45.3586 49.2341 46.5256 48.8908 47.5554C48.4789 48.7224 47.5865 49.6835 46.4881 50.2327C45.3897 50.7819 44.1541 50.9878 42.9184 50.8505C42.5065 50.8505 42.1632 50.7819 41.82 50.5759C41.1335 50.2327 40.8589 49.4089 40.7903 48.6538C40.7216 47.3494 41.1335 45.9765 41.2022 44.6721C41.2708 43.3678 40.7903 42.2008 40.447 40.9651C40.2411 40.2786 39.9665 39.0429 40.653 38.4937C41.4081 37.8759 43.1243 38.7683 43.9481 39.0429C45.1838 39.4548 46.4195 40.004 47.3119 40.9651Z" fill="#BCBCBB"/>
<path d="M22.1884 47.8974C22.669 46.799 23.5614 45.9066 23.7674 44.7395C24.1793 42.6114 22.3944 40.6893 21.8452 38.6298C21.6392 37.6687 21.6392 36.639 21.0901 35.8152C20.5409 34.9228 19.5111 34.4422 18.5501 34.0303C16.4219 33.1379 14.3625 32.2455 12.2344 31.353C12.7836 33.5498 14.3625 35.4719 16.4219 36.433C17.4517 36.9136 18.6874 37.1882 19.5111 38.0806C20.0603 38.6984 20.2663 39.4536 20.4722 40.2087C20.8841 41.6503 21.296 43.1606 20.8841 44.6022C20.4036 46.2498 18.9619 47.4855 18.4128 49.0644C17.7949 50.7806 18.3441 52.6341 19.3052 54.1444C19.9917 55.2428 22.2571 57.7141 23.7674 57.3709C25.8955 56.8217 23.4928 55.1055 22.8749 54.0758C21.8452 52.1536 21.296 49.8882 22.1884 47.8974Z" fill="#BCBCBB"/>
<path d="M42.8511 39.5912C42.7138 38.6988 41.9587 38.6988 41.3408 38.6988C40.1738 38.6301 39.0754 38.6988 37.7711 38.6988C37.5651 38.1496 37.2905 37.5318 37.0846 36.9139C36.2608 34.3053 35.437 31.6966 34.5446 29.088C34.476 28.8134 34.3387 28.5388 34.27 28.3328C33.9268 26.8912 33.7895 25.6555 35.0251 24.3512C36.3981 22.9782 36.3981 20.9188 35.9176 19.0653C35.5057 17.4177 33.3776 16.1134 31.4554 16.1134C29.6705 16.182 28.0916 17.0744 26.5127 17.8296C24.7965 18.6534 23.904 20.095 23.3549 21.8112C23.2176 22.2231 22.943 22.635 22.5997 23.1155C20.3343 20.5755 17.7943 20.1636 15.0484 21.6053C13.0576 22.635 12.0278 24.3512 12.0965 26.9599C13.5381 26.2734 14.7738 25.3809 16.5586 25.3809C15.323 26.342 13.6754 26.2047 12.7143 27.7836C14.3619 27.2345 15.7349 26.7539 17.1078 26.2734C17.1765 26.4107 17.1765 26.4793 17.2451 26.6166C16.9019 26.7539 16.49 26.8912 16.1467 27.0285C15.0484 27.5777 13.95 28.0582 12.9203 28.6074C12.3024 28.9507 12.2338 29.4999 12.7143 29.9804C13.2635 30.5296 13.8127 31.1474 14.4305 31.422C15.9408 32.1772 17.4511 33.0696 19.2359 32.9323C19.9911 32.8637 20.2657 33.4128 20.4716 34.0307C21.1581 36.0215 21.9132 37.9437 22.5997 39.8658C22.943 40.8269 23.4922 41.788 23.8354 42.7491C23.904 43.0237 23.6981 43.3669 23.5608 43.7101C23.2862 43.5729 22.943 43.4356 22.8057 43.2296C22.3938 42.4058 22.0505 41.5134 21.7073 40.6896C21.364 39.9345 20.9522 39.248 20.6089 38.4928C20.2657 37.3258 19.9224 36.2274 19.5792 35.0604C19.3732 34.2366 18.824 33.962 18.0003 33.8934C16.5586 33.8247 15.2543 33.1382 14.0186 32.3831C13.744 32.1772 13.4008 32.1085 12.8516 31.8339C12.9889 32.8637 13.5381 33.4128 14.2246 33.7561C15.323 34.3739 16.4213 34.9918 17.657 35.2664C18.6867 35.541 19.3046 35.9528 19.7165 36.8453C19.9911 37.3945 20.2657 37.875 20.6089 38.4242C20.9522 39.7972 21.2954 41.1701 21.7073 42.5431C22.1192 43.7788 22.1878 44.8085 21.2954 45.9069C20.5403 46.7993 20.1284 47.9664 20.2657 49.202C21.0895 49.408 21.0208 48.7215 21.2954 48.3783C21.9132 47.4172 22.5311 46.4561 23.2176 45.5637C23.3549 45.3577 23.8354 45.2891 24.11 45.1518C24.1786 45.2204 24.2473 45.3577 24.3846 45.4264C24.1786 45.7696 24.0413 46.1129 23.7668 46.3875C21.9132 48.1723 21.57 50.2318 22.3938 52.5658C22.8743 53.8702 23.4235 55.1058 24.5219 55.9983C26.9932 57.9891 30.1511 57.4399 32.1419 55.861C33.3776 54.8999 34.7505 54.0075 35.437 52.4972C35.5743 52.2912 35.9176 52.1539 36.2608 51.948C36.6041 52.7718 36.2608 53.321 35.9176 53.8702C33.5835 56.9594 30.357 58.8129 26.65 59.774C25.5516 60.0485 24.4532 59.8426 23.4922 59.1561C20.6776 57.1653 18.6867 54.6253 18.6181 51.0556C18.6181 49.0648 18.9613 47.0053 20.197 45.3577C20.6776 44.7399 20.7462 44.122 20.5403 43.3669C19.9911 41.7193 19.4419 40.0031 18.9613 38.3556C18.6181 37.2572 17.9316 36.708 16.8332 36.2961C15.5976 35.8842 14.4305 35.2664 13.3321 34.5112C12.0278 33.6188 11.3413 32.1085 11.1354 30.5982C10.9294 29.1566 10.9294 27.6463 10.9981 26.1361C11.0667 23.0469 13.4008 20.5755 16.4213 19.9577C18.6181 19.4771 20.5403 20.0263 22.2565 21.3307C22.3938 21.1247 22.5311 21.0561 22.5311 20.9874C23.7667 17.0744 27.1305 15.9761 30.563 15.1523C32.5538 14.6717 36.1235 16.1134 36.7414 18.4474C37.3592 20.7815 37.0846 23.0469 35.5057 24.969C34.6819 25.9301 34.476 26.8226 34.8192 27.9896C35.7803 31.0101 36.81 34.0307 37.7711 37.0512C37.8397 37.1885 37.9084 37.3258 38.0457 37.4631C39.556 37.6004 41.1349 37.6691 42.5765 38.0123C46.6268 38.9734 50.6084 42.6118 49.0295 48.035C48.343 50.3004 46.7641 51.3988 44.636 51.6734C42.7138 51.948 40.723 51.8793 38.7322 51.948C38.5949 51.948 38.3889 51.948 38.2516 51.8793C37.8397 51.7421 37.0846 51.6734 37.2905 50.9869C37.4965 50.3004 38.0457 50.575 38.5262 50.6437C40.7916 50.9869 42.9884 50.8496 45.2538 50.3691C46.7641 50.0258 47.7252 49.0648 48.137 47.5545C48.8922 44.8085 48.2057 42.6118 45.9403 40.8956C45.3224 40.415 44.7046 40.0031 44.0868 39.5226C43.7435 39.1793 43.263 39.042 42.8511 39.5912C42.7824 39.5912 42.8511 39.5912 42.8511 39.5912ZM26.0322 58.7442C26.1008 58.6069 26.2381 58.4696 26.3068 58.3323C22.943 57.3712 22.0505 54.4194 20.8835 51.8107C20.197 51.8793 19.9911 52.1539 20.1284 52.7031C20.7462 55.3804 22.3938 57.2339 24.7965 58.4696C25.1397 58.7442 25.6203 58.6756 26.0322 58.7442ZM20.8149 50.0945C20.197 50.1631 19.8538 50.4377 20.0597 51.0556C20.0597 51.1929 20.403 51.3302 20.5403 51.2615C21.1581 51.0556 21.0894 50.575 20.8149 50.0945Z" fill="black"/>
<path d="M39.1445 42.885C40.1056 41.512 41.2726 40.345 42.8516 39.5898C42.8516 39.5898 42.7829 39.5898 42.8516 39.5898C41.9591 40.4823 41.1353 41.3747 40.2429 42.1985C39.8997 42.4731 39.4878 42.6104 39.1445 42.885Z" fill="black"/>
<path d="M40.9297 42.7473C41.8221 41.9921 42.7146 41.3056 43.607 40.6191C43.6756 40.6878 43.7443 40.8251 43.8816 40.8937C42.9891 41.6489 42.1654 42.3354 41.2729 43.0905C41.1356 43.0219 40.9983 42.8846 40.9297 42.7473Z" fill="black"/>
<path d="M39.1453 42.8169C38.8707 43.1601 38.5961 43.572 38.3215 43.9153C38.1842 43.778 38.1155 43.7093 38.0469 43.572C38.3901 43.3661 38.7334 43.0915 39.1453 42.8169C39.1453 42.8855 39.1453 42.8169 39.1453 42.8169Z" fill="black"/>
<path d="M77.1668 60.8729C78.3339 58.8135 79.5696 56.754 81.3544 55.1751C83.002 53.6648 85.1301 52.6351 87.2582 51.8113C88.9058 51.1935 90.622 50.6443 91.789 49.34C92.9561 48.0356 93.2307 45.7702 91.8577 44.6718C90.9652 44.6032 90.5533 45.7702 90.2101 46.5254C89.7296 47.5551 88.9058 48.3789 87.8761 48.7908C86.4344 49.34 84.7182 49.2027 83.4825 50.0951C82.3842 50.8502 81.9036 52.0859 81.2171 53.1843C79.8441 55.381 77.6474 57.0286 75.9312 59.0194C74.8328 60.3238 73.0479 62.9324 73.6658 64.7859C74.1463 66.2275 74.4895 65.4038 75.1074 64.4427C75.7939 63.2756 76.4804 62.1086 77.1668 60.8729Z" fill="#BCBCBB"/>
<path d="M57.7442 67.5997C58.7053 68.1489 59.8724 68.4235 60.7648 69.11C62.687 70.5516 63.3048 73.4348 65.4329 74.5332C67.0805 75.357 69.0713 74.8765 70.7875 74.2586C71.268 74.0527 71.8172 73.8467 72.1605 73.4348C72.9843 72.6111 73.0529 71.3754 73.1902 70.277C73.808 64.2359 76.7599 58.4008 81.2908 54.3505C81.8399 53.8013 82.4578 53.3208 83.1443 52.9089C84.8605 51.8105 86.8513 51.3986 88.7048 50.5748C90.5583 49.751 92.3432 48.3781 92.7551 46.3872C93.0983 44.8083 92.4118 43.0921 91.2448 41.9251C90.0778 40.7581 88.5675 40.0029 87.0573 39.5224C85.6843 39.1105 84.2426 38.7672 83.3502 37.6689C82.801 36.9824 82.5264 36.0899 82.1145 35.4035C80.8102 33.344 77.8583 32.7948 75.5243 33.6872C73.1902 34.5797 71.6113 36.7078 70.5816 38.9045C70.1697 39.797 69.8264 40.8267 69.8264 41.7878C69.8264 42.7489 70.307 43.8472 71.1994 44.3278C68.3848 47.8975 65.6388 51.3986 62.7556 54.8997C62.6183 55.1056 62.4124 55.3116 62.2064 55.4489C61.8632 55.5862 61.4513 55.4489 61.0394 55.3802C53.6253 53.4581 52.3896 64.6478 57.7442 67.5997Z" fill="white"/>
<path d="M80.0496 33.2746C80.8734 33.4806 81.8345 33.9611 81.8345 34.7849C81.8345 35.2654 81.5599 35.6773 81.2166 35.9519C80.8734 36.2265 80.3929 36.3638 79.981 36.5698C77.9901 37.3935 76.8918 38.5606 75.3815 40.0022C74.3518 41.1006 73.7339 40.826 73.0474 39.3157C70.988 34.7849 76.2053 32.3822 80.0496 33.2746Z" fill="#BCBCBB"/>
<path d="M55.4748 65.745C55.6808 66.1568 55.8867 66.6374 56.23 66.9806C56.8478 67.5298 57.7402 67.7358 58.564 67.8731C60.2116 68.079 61.8592 68.1477 63.5067 68.0104C63.0262 69.8639 63.9873 71.9233 65.4976 73.0904C67.0078 74.2574 68.9986 74.6693 70.9895 74.7379C67.763 76.7287 63.0262 75.699 60.8981 72.5412C60.4862 71.9233 60.143 71.2369 59.6624 70.619C58.77 69.5206 57.397 68.9028 56.3673 67.9417C55.063 66.706 54.1019 64.5093 54.4451 62.6558C54.7197 63.6855 54.9943 64.7152 55.4748 65.745Z" fill="#BCBCBB"/>
<path d="M84.1017 37.9418C85.2687 37.9418 86.1611 37.8732 87.1222 37.9418C88.2892 38.0105 89.3876 38.3537 90.2114 39.2462C90.6919 39.7267 91.1725 40.1386 91.653 40.6191C93.8498 42.61 94.4676 45.4246 93.026 48.0332C91.5844 50.7105 89.3876 52.564 86.2298 52.9759C85.2 53.1132 84.5822 53.5937 83.9644 54.3489C82.0422 56.7516 79.9827 59.017 78.0606 61.4197C76.8249 62.93 75.6579 64.5089 74.4908 66.0878C74.3535 66.2938 74.4222 66.7057 74.3535 67.0489C74.1476 68.3532 74.0103 69.6576 73.8043 70.9619C73.7357 71.3738 73.4611 71.7857 73.5298 72.1976C73.6671 73.6392 72.7746 74.5316 71.7449 75.3554C69.4795 77.0716 66.5276 77.2776 64.1935 75.7673C62.546 74.6689 61.173 73.5019 60.2119 71.717C60.006 71.3051 59.5254 71.0305 59.1822 70.7559C58.7016 70.4127 58.1524 70.1381 57.6032 69.9321C53.9649 68.3532 52.3173 65.5386 52.5919 61.557C52.6605 60.9392 52.7292 60.2527 52.7978 59.6348C52.9351 59.017 52.9351 58.2619 53.9649 58.3305C54.1022 58.3305 54.2395 58.0559 54.3768 57.9186C54.7887 57.3694 55.2005 56.8202 55.6124 56.2024C56.7108 54.6235 58.2211 54.4175 60.006 54.8294C60.7611 55.0354 61.5162 55.2413 62.34 55.4473C65.7724 52.0835 68.3125 47.9646 71.1957 44.0516C69.3422 41.9235 70.0973 39.6581 70.7838 37.3927C71.4016 35.2645 72.8433 33.8229 74.9714 33.0678C75.246 32.9305 75.5892 32.7932 75.8638 32.6559C79.0903 30.871 82.4541 33.0678 83.4152 35.8824C83.5525 36.2256 83.6211 36.6375 83.6898 36.9808C83.8271 37.2554 83.9644 37.5986 84.1017 37.9418ZM81.699 37.2554C81.6303 36.2943 81.8362 35.4705 81.493 34.9899C81.2184 34.5094 80.4633 34.3035 79.9827 33.9602C79.8454 33.8916 79.7081 33.7543 79.6395 33.617C79.0217 33.0678 78.2665 32.9305 77.4427 33.1364C74.6968 33.8916 72.2941 35.0586 71.5389 38.2164C71.4703 38.491 71.4016 38.7656 71.333 39.0402C70.9211 40.8937 70.7152 42.7473 72.7746 43.777C71.6076 45.2186 70.5779 46.5229 69.4795 47.9646C68.6557 48.9943 67.9692 50.1613 67.2141 51.191C65.8411 52.9759 64.4681 54.7608 63.0951 56.477C62.6833 57.0262 62.2714 57.0262 61.5849 56.6143C58.8389 54.8981 56.2303 55.7905 55.2692 58.9484C54.7887 60.5959 54.7887 62.4494 55.5438 64.0284C56.7795 66.5684 58.5643 68.3532 61.9968 67.3921C62.34 67.3235 62.6833 67.2548 63.0951 67.2548C63.1638 67.5981 63.2324 67.804 63.2324 68.01C63.0951 70.4127 64.3995 71.923 66.1843 73.09C67.4887 73.9824 68.793 73.8451 70.0973 73.2273C70.5779 73.0213 71.4703 72.7467 70.8525 71.7857C70.7838 71.6484 70.9898 71.3051 71.1271 71.0992C71.5389 70.55 71.8822 70.0008 72.3627 69.5203C73.0492 68.7651 73.1865 67.8727 72.9119 66.9116C72.7746 66.3624 72.3627 65.8132 72.2941 65.264C72.1568 64.7148 72.0881 63.9597 72.3627 63.5478C73.3238 62.1748 74.2849 60.7332 75.5206 59.5662C76.8249 58.3992 77.9233 57.1635 78.8844 55.7905C79.8454 54.3489 80.8752 52.9073 81.9049 51.5343C82.1108 51.2597 82.3854 51.0537 82.66 50.8478C83.2779 51.397 82.9346 51.7402 82.7287 52.0835C82.3168 52.7013 81.9049 53.3878 81.4244 53.937C79.5022 56.3397 78.1979 59.1543 75.8638 61.2824C75.3146 61.763 74.9027 62.4494 74.4908 63.1359C74.3535 63.3419 74.4908 63.6851 74.5595 64.3716C75.246 63.6165 75.6579 63.1359 76.0698 62.5867C78.6784 59.3602 81.2184 56.0651 83.8271 52.8386C84.239 52.2894 84.6508 52.0835 85.3373 52.0835C88.2892 52.0148 90.5546 50.5732 91.9963 48.0332C92.6141 46.9348 92.6827 46.317 92.3395 45.15C92.2022 45.5619 92.0649 45.9051 91.9276 46.317C91.3784 48.0332 90.3487 49.3375 88.6325 49.9554C87.4654 50.3673 86.1611 50.5732 84.9254 50.7105C84.1703 50.7792 83.4152 50.6419 82.66 50.5046C82.4541 50.4359 82.3168 50.024 82.1108 49.8181C82.3168 49.6808 82.5227 49.5435 82.7287 49.4062C82.866 49.3375 83.0719 49.3375 83.2092 49.4062C84.7881 49.9554 86.3671 49.4748 87.8773 49.0629C89.8682 48.5137 91.3098 46.5916 91.2411 44.5321C91.1725 40.6878 88.0833 38.7656 84.7881 39.4521C84.239 39.5894 83.7584 39.6581 83.2092 39.7954C82.5914 38.697 83.0719 37.4613 82.2481 36.4316C82.0422 36.5689 81.9735 36.7748 81.699 37.2554ZM61.9281 68.5592C57.5346 69.1084 55.2005 66.7743 53.7589 62.9986C53.6903 64.9208 54.5141 66.4311 55.887 67.5981C56.9168 68.4219 58.2211 69.1084 59.4568 69.5889C60.4865 69.9321 61.0357 70.4813 61.5162 71.4424C62.8892 73.9824 65.086 75.424 67.9692 75.63C68.2438 75.63 68.5184 75.4927 68.793 75.424C65.2233 74.3257 62.6833 72.5408 61.9281 68.5592Z" fill="black"/>
<path d="M57.9456 62.1743C57.3278 62.5862 56.6413 62.9981 56.0234 63.41C56.298 62.4489 57.0532 62.243 57.9456 62.1743Z" fill="black"/>
<path d="M57.9492 62.2435C58.2925 62.0376 58.6357 61.9003 58.9789 61.6943C59.0476 61.763 59.0476 61.9003 59.0476 61.9689C58.6357 62.0376 58.2925 62.1062 57.9492 62.2435C57.9492 62.1749 57.9492 62.2435 57.9492 62.2435Z" fill="black"/>
<path d="M27.8737 80.3695C28.5602 79.5457 29.4527 78.9279 30.3451 78.3101C31.4435 77.4863 32.4732 76.6625 33.4343 75.6328C34.1894 74.8776 34.8759 74.0538 35.6997 73.436C36.5921 72.8182 37.6218 72.4749 38.6516 72.7495C40.3678 73.23 41.1229 75.3582 40.1618 76.7998C39.2008 78.3101 37.0727 78.8592 35.837 80.2322C34.1894 82.1544 33.5029 85.3122 30.4824 85.1063C28.0797 84.9003 26.0889 82.6349 27.8737 80.3695Z" fill="white"/>
<path d="M37.0729 79.8201C37.8967 79.2022 38.7205 78.653 39.3383 77.8979C39.9561 77.1428 40.4367 76.113 40.368 75.152C40.368 75.0147 40.368 74.8774 40.2307 74.7401C40.0248 74.5341 39.6816 74.6714 39.407 74.8774C36.9356 76.5249 34.6702 78.4471 32.6794 80.5752C31.8556 81.4676 31.8556 82.6347 33.2286 82.4287C34.4643 82.2914 36.0432 80.5752 37.0729 79.8201Z" fill="#BCBCBB"/>
<path d="M37.5559 71.2388C38.6543 72.1999 39.7526 72.955 40.6451 73.9161C41.5375 74.8771 41.4689 75.1517 40.7137 76.1815C40.0272 77.1426 39.2721 78.1036 38.3797 78.9274C36.938 80.369 35.2905 81.6047 33.9861 83.115C33.1624 84.0761 32.2013 84.6253 31.1715 85.1745C29.1121 86.2042 27.9451 85.7923 26.6407 83.7328C25.9542 82.6345 26.5034 80.575 27.6705 79.6139C29.6613 77.9663 31.6521 76.1815 33.6429 74.5339C34.8786 73.4355 36.0456 72.4744 37.5559 71.2388ZM28.2883 82.2912C28.357 83.1836 28.151 84.4193 29.318 84.6253C30.2105 84.7626 31.1029 84.1447 31.5148 83.1836C31.5834 83.115 31.5148 82.9777 31.5834 82.7031C31.0343 82.0853 30.4164 81.3988 29.8672 80.8496C29.1121 81.0555 28.5629 81.2615 27.9451 81.3988C28.0824 81.742 28.151 82.0166 28.2883 82.2912ZM32.8878 82.2912C33.5743 81.6047 34.1921 80.9869 34.8099 80.3691C35.3591 79.8199 35.4278 79.202 34.9472 78.5842C34.7413 78.2409 34.5353 77.829 34.3294 77.4172C34.398 77.3485 34.5353 77.2799 34.604 77.2799C35.0159 77.829 35.4278 78.3096 35.771 78.7901C37.3499 78.2409 35.977 77.1426 36.3202 76.2501C36.6634 76.5934 36.938 76.868 37.2126 77.2112C38.0364 76.662 38.7229 76.2501 39.4094 75.7009C39.6153 75.495 39.8213 75.0144 39.7526 74.7399C39.3407 73.2296 37.4186 72.5431 36.2516 73.5042C34.4667 75.0144 32.7505 76.5934 30.9656 78.1723C30.6224 78.5155 30.3478 78.9274 30.0045 79.3393C31.0343 80.369 31.858 81.2615 32.8878 82.2912Z" fill="black"/>
<path d="M78.8846 68.8355C78.6787 68.8355 78.4041 68.7669 78.2668 68.6296C78.1295 68.4923 78.1295 68.2863 78.0608 68.0804C77.8549 66.8447 77.6489 65.5404 77.9922 64.3047C78.2668 63.069 79.1592 61.902 80.4635 61.6274C81.5619 61.4214 82.6603 61.902 83.69 62.3139C84.9257 62.8631 86.1614 63.3436 87.3971 63.7555C88.2895 64.0987 90.2116 64.236 90.9668 64.8539C92.1338 65.815 91.8592 69.2474 90.3489 69.8652C89.1819 70.3458 87.3284 69.316 86.0927 69.1788C83.69 68.9042 81.2873 69.1788 78.8846 68.8355Z" fill="white"/>
<path d="M79.2295 66.914C79.5041 66.7081 79.8473 66.6394 80.1906 66.6394C82.7306 66.3648 85.2706 66.2275 87.8106 66.2275C88.0852 66.2275 88.3598 66.2275 88.5657 66.4335C88.703 66.5708 88.703 66.8454 88.703 67.0513C88.703 67.4632 88.703 67.8751 88.703 68.287C88.703 68.4243 88.703 68.6302 88.6343 68.7675C88.4971 68.9048 88.2911 68.9735 88.0852 68.9735C85.9571 69.1794 83.8976 69.1794 81.7695 68.9048C81.2203 68.7675 77.5819 68.287 79.2295 66.914Z" fill="#BCBCBB"/>
<path d="M78.5438 63.4137C79.2303 63.1391 79.9168 62.8645 80.5346 62.6585C80.8092 62.5212 81.2897 62.3839 81.4957 62.5212C82.8687 63.551 84.5849 63.2764 86.0952 63.345C88.1546 63.4823 90.0081 64.3747 91.9989 64.718C92.5481 64.7866 92.6854 65.2672 92.5481 65.7477C92.2049 66.8461 91.8616 67.9445 91.3811 68.9742C90.9692 69.798 90.2141 70.0726 89.3216 70.0039C87.6741 69.9353 86.0265 69.9353 84.3789 69.798C82.5941 69.592 80.8092 69.2488 79.0243 68.9056C78.0633 68.6996 77.9946 68.425 78.1319 67.3953C78.3379 66.091 78.4751 64.7866 78.5438 63.4137ZM82.6627 68.0131C84.5849 68.631 86.1638 68.425 87.8114 68.2877C87.9487 67.1207 88.0173 66.091 88.1546 64.9926C87.2622 64.7866 86.4384 64.512 85.6833 64.4434C85.2714 64.4434 84.7222 64.6493 84.4476 64.9926C83.7611 65.885 83.2806 66.8461 82.6627 68.0131ZM84.173 64.4434C82.9373 63.8942 81.7703 64.1001 80.6719 64.3061C79.9168 64.4434 79.5735 65.1299 79.5735 66.2969C79.5735 67.052 79.6422 67.8758 80.6719 67.8758C81.2211 66.7774 81.7016 65.7477 82.1822 64.6493C82.3195 64.718 82.3881 64.718 82.5254 64.7866C82.1135 65.8164 81.7016 66.8461 81.2211 68.0818C81.7016 68.0131 81.9076 68.0131 81.9762 67.9445C82.6627 66.7774 83.3492 65.6791 84.173 64.4434ZM91.3125 65.885C90.0768 65.7477 89.7335 65.885 89.4589 66.5715C89.1844 67.3953 89.3903 68.2191 90.2141 68.7683C91.0379 68.0131 91.1065 66.9834 91.3125 65.885Z" fill="black"/>
<path d="M61.9272 28.4003C65.7029 29.636 70.1651 28.1257 72.4991 24.9679C72.8424 24.4873 73.1169 24.0068 73.5975 23.6635C74.0094 23.3203 74.5586 23.183 75.0391 23.1143C80.2564 21.7414 85.6797 20.3684 90.897 21.6727C92.1326 22.016 93.437 22.4279 94.7413 22.2219C96.0456 22.016 97.144 21.1235 97.9678 20.0938C100.096 17.6224 100.92 13.5035 98.517 11.1695C97.7618 10.4143 96.7321 9.93379 96.2516 8.97271C95.2905 7.11919 97.144 4.57919 95.977 2.86297C95.5651 2.24513 94.8786 1.90189 94.1921 1.55865C91.6521 0.460267 88.7002 0.185672 86.1602 1.3527C83.6889 2.51973 81.904 5.40297 82.5905 8.08027C76.9613 8.97271 71.1948 9.59055 65.4969 10.0024C64.9477 10.0024 64.3986 10.0711 63.918 9.72784C63.5061 9.3846 63.3688 8.90406 63.0942 8.42352C62.4077 7.25649 60.9661 6.77595 59.5931 6.8446C57.1218 6.9819 54.8564 8.83541 54.3072 11.2381C53.6894 13.7781 54.9937 16.1122 56.9158 17.5538C55.6802 20.1624 54.7877 21.0549 56.4353 24.0068C57.7396 26.0662 59.6618 27.7138 61.9272 28.4003Z" fill="white"/>
<path d="M71.2641 27.5772C72.4998 26.3415 73.3236 24.8312 74.7652 23.8015C75.7263 23.115 76.8933 22.7718 78.0603 22.4285C79.8452 21.948 81.6987 21.5361 83.5522 21.1929C84.9252 20.9183 86.3668 20.7123 87.7398 20.9869C89.0441 21.2615 90.2111 21.948 91.5841 22.2226C92.9571 22.4972 94.4674 22.2226 95.1538 21.0556C92.1333 19.6139 88.7695 18.7902 85.4744 18.5842C82.7971 18.4469 80.1198 18.7215 77.4425 18.3783C76.1382 18.241 74.6965 17.9664 73.5295 18.5156C72.4998 18.9961 71.8819 20.0258 71.1954 20.9183C69.9598 22.4972 68.3808 23.8015 66.596 24.6939C65.223 25.3804 63.5068 25.861 63.2322 27.6458C62.4084 32.108 69.7538 29.0188 71.2641 27.5772Z" fill="#BCBCBB"/>
<path d="M89.936 0.942326C90.8971 0.667731 91.9269 0.667732 92.9566 0.736381C93.5744 0.736381 94.2609 0.805029 94.7415 1.28557C95.016 1.62881 95.0847 2.04071 95.1533 2.52125C95.3593 3.96287 95.4279 5.47314 95.3593 6.98341C94.9474 7.32666 94.3296 7.32666 93.849 7.05206C93.3685 6.84612 92.9566 6.43422 92.5447 6.09098C91.5836 5.40449 90.4852 5.06125 89.3869 4.78665C88.7004 4.64936 86.7096 4.8553 86.2977 4.37476C85.2679 3.27638 88.8377 1.28557 89.936 0.942326Z" fill="#BCBCBB"/>
<path d="M65.2916 9.52251C71.0581 9.31656 76.8933 9.52251 82.7971 8.83602C82.7971 6.43332 83.8268 4.64845 85.3371 3.06953C86.7787 1.55926 88.5636 0.598175 90.6917 0.117634C93.0944 -0.431556 94.7419 1.07872 96.7328 1.83385C97.8311 3.89331 97.4879 6.09007 96.5955 8.28683C98.9295 9.31656 99.9592 11.0328 100.714 13.2295C101.47 15.289 101.195 17.0739 100.234 18.8587C100.097 19.1333 99.9592 19.4766 99.6846 19.6825C97.4192 21.8106 94.8106 23.3209 91.5155 22.7031C90.829 22.5658 90.1425 22.2225 89.5246 21.8793C88.4949 21.3301 87.6025 21.0555 86.4354 21.4674C85.0625 21.8793 83.6208 21.9479 82.2479 22.2912C79.6392 22.909 77.0306 23.5268 74.4219 24.1447C73.3922 24.3506 72.7057 25.0371 72.0192 25.7923C71.0581 26.7533 70.097 27.7144 68.9987 28.5382C66.8019 30.2544 64.3306 30.3917 61.6533 29.7739C59.8684 29.362 58.1522 28.8128 56.7105 27.6458C55.9554 27.0279 55.4062 26.3414 55.3376 25.3117C55.3376 24.9685 55.2689 24.5566 55.1316 24.2133C54.3765 22.1539 54.5824 20.369 56.0927 18.7214C56.23 18.5841 56.23 18.4468 56.2987 18.3095C56.23 18.1723 56.1614 18.1036 56.0927 18.035C53.7587 17.2112 53.3468 15.2204 53.1408 13.1609C52.9349 11.0328 54.1019 9.59116 55.6122 8.49278C56.7792 7.66899 58.0835 7.1198 59.4565 6.70791C61.7219 6.02142 63.6441 6.84521 64.8111 8.97332C65.0857 9.17927 65.223 9.31656 65.2916 9.52251ZM94.8106 6.63926C93.8495 6.77656 92.9571 6.98251 91.79 7.18845C92.7511 6.43332 93.5749 5.88413 94.6046 5.60953C95.3598 5.40359 95.6344 4.92304 95.2911 4.09926C94.3301 4.51115 93.369 4.92305 92.4765 5.26629C92.4079 5.12899 92.4079 5.06034 92.3392 4.92305C93.0944 4.51115 93.8495 4.09926 94.6046 3.68737C95.4971 3.13818 95.5657 2.52034 94.6046 1.97115C93.5749 1.35331 92.4765 1.01007 91.1722 1.14736C88.083 1.55926 86.2295 3.55007 84.5819 5.88413C84.0327 6.70791 83.6895 7.73764 84.376 8.83602C84.5133 9.11062 84.376 9.52251 84.376 9.86575C83.4835 9.9344 82.7971 9.9344 82.0419 10.0031C78.3349 10.1403 74.6279 10.4149 70.8522 10.4836C68.6554 10.5522 66.5273 10.1403 64.3992 11.1014C64.1933 10.6209 63.9873 10.209 63.85 9.7971C63.3695 8.28683 62.2024 7.32575 60.6922 7.5317C58.4268 7.87494 56.3673 8.83602 55.063 10.8268C53.5527 13.0236 54.5824 16.1128 57.1224 17.0739C57.5343 17.2112 57.9462 17.4171 58.4268 17.6917C57.7403 19.2706 55.8868 20.0944 56.5046 22.1539C57.0538 21.8106 57.603 21.536 58.0835 21.1928C58.5641 20.8496 58.976 20.5063 59.4565 20.1631C59.4565 20.575 59.2506 20.8496 59.0446 21.0555C58.3581 21.536 57.603 22.0852 56.8478 22.4971C56.0927 22.9777 56.23 23.3896 56.7792 23.8701C58.0149 23.3896 58.976 22.2912 60.6235 22.1539C59.3878 23.2523 57.9462 23.5955 57.0538 24.7625C57.397 25.5177 57.7403 26.1355 58.5641 26.4787C62.2024 27.7831 67.2825 26.616 69.0673 23.3209C69.2733 22.909 69.6852 22.6344 69.8225 22.2225C70.3716 20.6436 71.7446 20.3004 73.1862 20.0258C73.4608 19.9571 73.7354 19.9571 74.01 19.8885C77.3738 19.3393 80.7376 18.7901 84.1014 18.2409C85.1311 18.1036 86.1609 17.9663 87.1906 18.035C88.0144 18.1036 88.6322 17.9663 89.0441 17.2112C90.2111 17.6231 91.5155 17.5544 91.996 18.9274C92.0646 19.0647 92.3392 19.1333 92.5452 19.2706C94.3987 20.0944 96.3895 19.7512 97.7625 18.2409C98.243 17.6917 98.7236 17.0739 99.1355 16.3874C100.577 13.7101 99.2041 10.4149 96.2522 9.59116C95.909 9.52251 95.5657 9.31656 95.2225 9.17927C95.2911 8.63008 95.3598 8.14954 95.4284 7.66899C95.703 7.1198 95.909 6.57061 96.1836 6.02142C96.1149 5.95278 95.9776 5.88413 95.909 5.81548C95.4971 6.09007 95.1538 6.36467 94.8106 6.63926ZM96.3209 20.575C95.9776 20.575 95.703 20.5063 95.4971 20.5063C93.9868 20.8496 92.6138 20.6436 91.2409 19.8885C90.623 19.5452 89.7992 19.4079 89.0441 19.4766C86.5727 19.6139 84.17 19.8885 81.6987 20.1631C79.3646 20.4377 77.0306 20.7123 74.6279 21.0555C74.7652 21.742 74.8338 22.2912 74.9711 22.909C75.7262 22.7031 76.2754 22.5658 76.8933 22.4285C77.8544 22.1539 78.8154 21.8793 79.7079 21.6733C82.5225 21.0555 85.3371 20.4377 88.2203 19.9571C88.6322 19.8885 89.1128 19.9571 89.456 20.1631C89.8679 20.369 90.2111 20.7809 90.623 21.0555C92.0646 22.2225 94.8106 22.0166 96.3209 20.575ZM72.0879 21.6047C71.1954 22.7031 70.5089 23.5955 69.8225 24.3506C68.5868 25.7923 67.2138 27.0966 65.1543 27.4398C63.85 27.6458 62.6143 27.989 61.0354 28.2636C63.7127 29.362 65.9781 29.2247 68.1749 27.8517C70.097 26.616 71.3327 24.8998 72.637 23.0463C72.4998 22.7717 72.3625 22.3598 72.0879 21.6047ZM74.216 22.9777C74.0787 22.3598 74.2846 21.536 73.1862 21.536C72.9116 23.1836 72.9116 23.1836 74.216 22.9777Z" fill="black"/>
<path d="M8.45133 51.8108C6.80376 53.2524 5.0189 54.8314 2.82214 55.1746C2.2043 55.3119 1.58646 55.3119 1.03727 55.0373C0.488082 54.7627 0.00754046 54.2822 0.00754046 53.733C-0.0611083 53.1838 0.350784 52.566 0.762676 52.2227C1.17457 51.8795 1.79241 51.6735 2.3416 51.4676C3.57727 51.0557 4.7443 50.5752 5.84268 49.9573C7.97079 48.8589 10.3048 47.5546 12.5703 48.2411C12.7762 49.0649 12.433 50.026 11.8151 50.6438C11.1973 51.2616 10.3735 51.6735 9.61836 52.0168C8.03944 52.7719 6.46052 53.527 4.81295 54.2822" fill="white"/>
<path d="M3.71442 53.5947C3.92036 53.938 4.12631 54.1439 4.12631 54.2812C4.05766 54.4872 3.78307 54.6931 3.57712 54.6931C3.43982 54.6931 3.09658 54.3499 3.16523 54.2126C3.16523 54.0753 3.43982 53.8693 3.71442 53.5947Z" fill="black"/>
<path d="M12.227 50.025C12.5016 49.6131 12.6389 48.9953 12.227 48.7894C12.0897 48.7207 11.8838 48.7207 11.6779 48.7207C10.0303 48.9266 3.8519 50.5742 5.98001 53.1142C7.83352 55.2423 11.266 51.5353 12.227 50.025Z" fill="#BCBCBB"/>
<path d="M1.6578 51.7421C3.99186 50.0945 6.46321 48.447 8.79727 46.7307C9.48376 46.2502 9.9643 46.1129 10.7194 46.5934C11.4746 47.074 12.367 47.4172 13.1221 47.8978C14.2892 48.6529 14.2892 50.3691 13.1221 51.1929C11.0627 52.6345 9.00322 54.0075 6.94375 55.5178C5.70808 56.4102 4.26645 56.4102 2.89348 56.3416C1.72645 56.2729 0.834018 54.694 1.10861 53.4583C1.31456 52.9091 1.45186 52.3599 1.6578 51.7421ZM6.53186 50.781C6.66916 50.6437 6.73781 50.5751 6.87511 50.5064C7.49294 51.2616 8.04213 51.948 8.65997 52.6345C11.5432 50.987 12.2297 50.3005 12.6416 48.9275C10.9254 47.4859 10.1702 47.3486 8.38538 48.3783C7.0124 49.2021 5.70808 50.0945 4.40375 50.987C4.06051 51.1929 3.85456 51.6048 3.57997 51.8794C4.74699 52.7032 6.25727 52.4286 6.87511 53.8702C7.1497 52.5659 5.57078 52.2913 5.29618 51.1929C6.53186 51.3989 6.80646 52.7718 8.17943 53.0464C7.49294 52.0853 7.0124 51.4675 6.53186 50.781ZM3.51132 53.2524C2.75618 53.2524 2.34429 53.5956 2.34429 54.2821C2.34429 54.9686 2.75618 55.3805 3.44267 55.3805C4.40375 55.4491 5.36483 54.8999 5.43348 54.3508C5.50213 53.7329 4.67835 53.321 3.51132 53.2524Z" fill="black"/>
</svg>
