<svg width="40" height="45" viewBox="0 0 40 45" fill="none" xmlns="http://www.w3.org/2000/svg">
<path d="M11.1922 41.8766C12.4965 43.4555 14.6933 44.2793 16.7527 44.142C18.8122 44.0047 20.803 42.9749 22.3133 41.602C23.8236 40.1603 24.9219 38.3068 26.7755 37.3457C29.1095 36.1101 32.0614 36.6592 34.5328 35.6982C37.2787 34.6684 39.1322 31.6479 38.789 28.696C38.5144 25.8127 36.043 23.2041 33.1598 22.7922C31.7182 22.5863 30.2079 22.7922 28.9722 22.1744C27.3933 21.3506 26.7068 19.4284 26.1576 17.7122C25.7457 16.4079 25.4025 15.1035 24.9906 13.7992C24.716 12.9068 24.4414 12.0144 24.5787 11.1219C24.716 10.0922 25.1965 9.19976 25.6771 8.30732C26.2263 7.20894 26.7755 6.11056 26.9128 4.87489C27.0501 3.63921 26.6382 2.33488 25.6771 1.57975C24.6473 0.755962 23.2057 0.687315 21.8328 0.755964C19.8419 0.824612 17.8511 0.961908 16.0663 1.71704C14.2814 2.47218 12.5652 3.84515 11.9473 5.69867C11.1236 4.60029 9.68193 4.11975 8.30895 4.25705C6.93598 4.39435 5.7003 4.94353 4.53327 5.69867C2.33651 7.14029 0.277052 9.4057 0.482998 12.083C0.620296 13.7992 1.71867 15.3095 2.74841 16.7511C3.36624 17.5749 4.05273 18.4673 5.01381 18.9479C5.7003 19.2911 6.52409 19.4284 7.21057 19.7717C8.6522 20.5268 9.27003 22.243 9.75057 23.7533C10.849 27.0484 11.3295 29.4511 10.0938 32.6776C9.06409 35.4236 9.13274 39.4052 11.1922 41.8766Z" fill="white"/>
<path d="M37.5479 26.0173C38.3717 26.9098 38.8523 28.1455 39.1269 29.3125C39.4014 30.4109 39.4701 31.5779 39.1269 32.6076C38.715 33.7747 37.8225 34.7357 36.7241 35.2849C35.6258 35.8341 34.3901 36.0401 33.1544 35.9028C32.7425 35.9028 32.3993 35.8341 32.056 35.6282C31.3695 35.2849 31.095 34.4611 31.095 33.706C31.0263 32.4017 31.4382 31.0287 31.5068 29.7244C31.5755 28.42 31.095 27.253 30.7517 26.0173C30.5458 25.3309 30.2712 24.0952 30.9577 23.546C31.7128 22.9281 33.429 23.8206 34.2528 24.0952C35.4198 24.5071 36.6555 25.0563 37.5479 26.0173Z" fill="#BCBCBB"/>
<path d="M11.122 33.2958C11.6026 32.1974 12.495 31.305 12.701 30.138C13.1128 28.0099 11.328 26.0877 10.7788 24.0282C10.5728 23.0671 10.5728 22.0374 10.0237 21.2136C9.47446 20.3212 8.44473 19.8407 7.48365 19.4288C5.35554 18.5363 3.29608 17.6439 1.16797 16.7515C1.71716 18.9482 3.29608 20.8704 5.35554 21.8315C6.38527 22.312 7.62095 22.5866 8.44473 23.479C8.99392 24.0969 9.19987 24.852 9.40581 25.6071C9.81771 27.0488 10.2296 28.559 9.81771 30.0007C9.33717 31.6482 7.89554 32.8839 7.34635 34.4628C6.72851 36.1791 7.2777 38.0326 8.23879 39.5428C8.92527 40.6412 11.1907 43.1126 12.701 42.7693C14.8291 42.2201 12.4264 40.5039 11.8085 39.4742C10.7788 37.552 10.2296 35.2866 11.122 33.2958Z" fill="#BCBCBB"/>
<path d="M24.4407 10.228C24.0974 10.5713 23.6169 10.8458 23.1363 10.9831C23.0677 10.9831 22.9304 11.0518 22.9304 11.1204C22.8617 11.1891 22.8617 11.3264 22.9304 11.395C23.1363 11.9442 23.3423 12.4934 23.4796 13.0426C23.5482 13.2486 23.7542 13.3172 23.8915 13.2486C24.0974 13.1799 24.1661 12.974 24.0974 12.8367C23.8915 12.2875 23.6855 11.7383 23.5482 11.1891L23.205 11.3264L23.2736 11.6696C23.9601 11.5323 24.5093 11.1891 24.9212 10.7772C25.0585 10.6399 25.0585 10.434 24.9212 10.2967C24.7839 10.0907 24.578 10.0907 24.4407 10.228Z" fill="black"/>
<path d="M24.3031 15.3082C24.7836 16.6126 25.1955 17.8482 25.6761 19.1526C25.7447 19.3585 25.9507 19.4272 26.088 19.3585C26.2939 19.2899 26.3626 19.0839 26.2939 18.9466C25.8134 17.6423 25.4015 16.4066 24.9209 15.1023C24.8523 14.8963 24.6463 14.8277 24.509 14.8963C24.3031 14.8963 24.2344 15.1023 24.3031 15.3082Z" fill="black"/>
<path d="M26.4289 21.4179C26.6348 21.9671 26.8408 22.5163 26.9781 23.0655C27.0467 23.2028 27.184 23.2714 27.3213 23.2714C27.5272 23.2714 27.8018 23.2714 28.0078 23.2714C28.351 23.2714 28.6256 23.2714 28.9689 23.2714C29.1748 23.2714 29.3121 23.1341 29.3121 22.9282C29.3121 22.7222 29.1748 22.5849 28.9689 22.5849C28.6256 22.5849 28.2824 22.5849 27.9391 22.5849C27.7332 22.5849 27.4586 22.5849 27.184 22.5849V22.9282L27.5272 22.7909C27.3213 22.2417 27.1154 21.6925 26.9781 21.1433C26.9094 20.9374 26.7035 20.8687 26.5662 20.9374C26.4975 21.0747 26.3602 21.2806 26.4289 21.4179Z" fill="black"/>
<path d="M11.9434 24.4386C11.5315 23.3403 11.1883 22.2419 10.7764 21.2122C10.7077 21.0062 10.5018 20.9376 10.3645 21.0062C10.1586 21.0749 10.0899 21.2808 10.1586 21.4181C10.5704 22.5165 10.9137 23.6149 11.3256 24.6446C11.3942 24.8505 11.6002 24.9192 11.7375 24.8505C11.8748 24.7819 11.9434 24.6446 11.9434 24.4386ZM13.2477 29.9305C13.385 29.7246 13.4537 29.5187 13.5223 29.1754V29.0381C13.5223 28.7635 13.385 28.4889 13.3164 28.283C13.1105 27.6651 12.8359 26.9786 12.6299 26.3608C12.5613 26.1549 12.3553 26.0862 12.218 26.1549C12.0121 26.2235 11.9434 26.4295 12.0121 26.5668C12.218 27.1846 12.4926 27.8711 12.6986 28.4889C12.7672 28.6949 12.8359 28.9008 12.8359 29.0381V29.1068C12.8359 29.2441 12.7672 29.3814 12.6986 29.5187C12.6299 29.656 12.6299 29.8619 12.8359 29.9992C12.9045 30.2051 13.1105 30.1365 13.2477 29.9305ZM11.4629 34.9419C11.5315 33.8435 11.7375 32.7451 12.218 31.7154C12.2867 31.5781 12.218 31.3035 12.0807 31.2349C11.9434 31.1662 11.6688 31.2349 11.6002 31.3722C11.1196 32.4705 10.845 33.6376 10.7764 34.8733C10.7764 35.0792 10.9137 35.2165 11.1196 35.2165C11.2569 35.2851 11.4629 35.0792 11.4629 34.9419ZM13.0418 39.816C12.5613 39.2668 12.218 38.5803 11.9434 37.8938C11.8061 37.5506 11.7375 37.2073 11.6688 36.8641C11.6002 36.6581 11.4629 36.5895 11.2569 36.5895C11.051 36.6581 10.9823 36.7954 10.9823 37.0014C11.051 37.4133 11.1883 37.7565 11.3256 38.0997C11.6002 38.8549 12.0121 39.61 12.5613 40.2279C12.6986 40.3652 12.9045 40.3652 13.0418 40.2965C13.1791 40.1592 13.1791 39.9533 13.0418 39.816ZM17.504 42.4246C16.4056 42.2873 15.3759 41.8754 14.4834 41.1889C14.3461 41.0516 14.1402 41.1203 14.0029 41.2576C13.8656 41.3949 13.9342 41.6008 14.0715 41.7381C15.0326 42.4246 16.1996 42.9052 17.3667 43.1111C17.5726 43.1111 17.7099 42.9738 17.7786 42.8365C17.7786 42.6306 17.6413 42.4246 17.504 42.4246ZM22.4467 41.0516C21.5542 41.6695 20.5245 42.15 19.4261 42.356C19.2202 42.4246 19.1515 42.5619 19.1515 42.7679C19.2202 42.9738 19.3575 43.0425 19.5634 43.0425C20.7305 42.8365 21.8288 42.356 22.8586 41.6695C22.9959 41.5322 23.0645 41.3262 22.9272 41.1889C22.7899 40.983 22.584 40.983 22.4467 41.0516ZM25.7418 37.0014C25.3299 38.0311 24.7121 38.9922 23.9569 39.816C23.8197 39.9533 23.8197 40.1592 23.9569 40.2965C24.0942 40.4338 24.3002 40.4338 24.4375 40.2965C25.2613 39.4041 25.8791 38.3743 26.3597 37.3446C26.4283 37.2073 26.3597 36.9327 26.1537 36.8641C26.0164 36.7268 25.8105 36.7954 25.7418 37.0014ZM31.0278 35.903C29.9294 35.8343 28.831 35.6284 27.664 35.6284H27.5267C27.3207 35.6284 27.1834 35.7657 27.1834 35.9716C27.1834 36.1776 27.3207 36.3149 27.5267 36.3149H27.664C28.6937 36.3149 29.8607 36.4522 30.9591 36.5895C31.1651 36.5895 31.3024 36.4522 31.3024 36.3149C31.371 36.1089 31.2337 35.903 31.0278 35.903ZM36.1078 35.0106C35.9018 35.1479 35.6959 35.2851 35.4899 35.4224C34.7348 35.8343 33.911 35.9716 33.0872 36.0403C32.8813 36.0403 32.744 36.1776 32.744 36.3835C32.744 36.5895 32.8813 36.7268 33.0872 36.7268C33.9797 36.6581 34.9407 36.5208 35.7645 36.0403C36.0391 35.903 36.2451 35.7657 36.451 35.5597C36.5883 35.4224 36.657 35.2165 36.5197 35.0792C36.451 34.9419 36.2451 34.8733 36.1078 35.0106ZM38.0986 30.4111C38.0986 30.4797 38.0986 30.617 38.0986 30.6857C38.0986 31.6468 37.824 32.6765 37.3434 33.5003C37.2748 33.6376 37.2748 33.8435 37.4807 33.9808C37.6867 34.1181 37.824 34.0495 37.9613 33.8435C38.5105 32.8824 38.7851 31.7841 38.7851 30.6857C38.7851 30.5484 38.7851 30.4797 38.7851 30.3424C38.7851 30.1365 38.6478 29.9992 38.4418 29.9992C38.2359 30.0678 38.0986 30.2051 38.0986 30.4111ZM35.7645 25.8803C36.5883 26.6354 37.2748 27.5278 37.6867 28.5576C37.7553 28.7635 37.9613 28.8322 38.1672 28.7635C38.3732 28.6949 38.4418 28.4889 38.3732 28.283C37.8926 27.1846 37.2062 26.1549 36.3137 25.3997C36.1764 25.2624 35.9705 25.2624 35.8332 25.3997C35.6272 25.537 35.6272 25.743 35.7645 25.8803ZM31.0278 23.5462C32.0575 23.7522 33.0872 24.0954 33.9797 24.5759L34.117 24.6446C34.2543 24.7132 34.5289 24.7132 34.5975 24.5073C34.6661 24.37 34.6661 24.0954 34.4602 24.0268L34.3229 23.9581C33.3618 23.4089 32.2634 23.0657 31.1651 22.8597C30.9591 22.7911 30.8218 22.9284 30.7532 23.1343C30.7532 23.3403 30.8905 23.5462 31.0278 23.5462Z" fill="black"/>
<path d="M10.0222 19.2211C9.81626 18.6719 9.61032 18.1227 9.47302 17.6422C9.40437 17.5049 9.26707 17.3676 9.06112 17.4362C8.58058 17.5735 8.0314 17.6422 7.55085 17.6422H7.41356C7.20761 17.6422 7.07031 17.7795 7.07031 17.9854C7.07031 18.1914 7.20761 18.3287 7.41356 18.3287H7.55085C8.10004 18.3287 8.64923 18.26 9.19842 18.1227L9.12978 17.7795L8.78653 17.9168C8.99248 18.466 9.19842 19.0151 9.33572 19.4957C9.40437 19.7016 9.61031 19.7703 9.74761 19.7016C10.0222 19.5643 10.0909 19.427 10.0222 19.2211Z" fill="black"/>
<path d="M26.3611 5.28595C26.2925 6.17839 26.0179 7.07082 25.7433 7.8946C25.6746 8.10055 25.606 8.3065 25.4687 8.51244C25.4 8.64974 25.4687 8.85569 25.6746 8.99298C25.8119 9.06163 26.0865 8.99298 26.1552 8.78704C26.2238 8.58109 26.3611 8.37514 26.4298 8.10055C26.773 7.20812 26.9789 6.24703 27.1162 5.28595C27.1162 5.08001 26.9789 4.94271 26.8416 4.94271C26.5671 4.94271 26.4298 5.08001 26.3611 5.28595ZM24.0957 1.16703C24.7135 1.37297 25.1941 1.71622 25.606 2.19676C25.8806 2.54 26.0865 2.9519 26.2238 3.36379C26.2925 3.56973 26.4984 3.63838 26.6357 3.56973C26.8417 3.50109 26.9103 3.29514 26.8416 3.15784C26.7044 2.6773 26.4298 2.19676 26.0865 1.78487C25.606 1.23568 24.9881 0.823784 24.3016 0.549189C24.0957 0.480541 23.8898 0.549191 23.8211 0.755138C23.8211 0.892435 23.8898 1.09838 24.0957 1.16703ZM18.8097 0.823785C19.4962 0.686488 20.1827 0.686487 20.8006 0.686487C21.0752 0.686487 21.4184 0.686487 21.693 0.686487C21.8303 0.686487 21.9676 0.686487 22.1049 0.686487C22.3108 0.686487 22.4481 0.54919 22.5168 0.343244C22.5168 0.137297 22.3795 0 22.2422 0C22.1049 0 21.9676 0 21.7616 0C21.4184 0 21.1438 0 20.8006 0C20.1141 0 19.3589 0.0686492 18.6724 0.137298C18.4665 0.137298 18.3292 0.343243 18.3979 0.549189C18.3979 0.755135 18.6038 0.892434 18.8097 0.823785ZM14.2103 3.29514C14.7595 2.6773 15.3773 2.12811 16.0638 1.78487C16.3384 1.64757 16.613 1.51027 16.8876 1.37297C17.0935 1.30433 17.1622 1.09838 17.0935 0.892433C17.0249 0.686487 16.8189 0.617839 16.613 0.686487C16.3384 0.823785 16.0638 0.961084 15.7206 1.09838C14.9654 1.51027 14.2103 2.12811 13.6611 2.8146C13.5238 2.9519 13.5238 3.15784 13.7297 3.29514C13.867 3.50108 14.073 3.43244 14.2103 3.29514ZM10.0914 6.31568C10.5719 6.45298 11.0524 6.52163 11.4643 6.52163C11.8076 6.52163 12.0822 6.45298 12.3568 6.31568C12.8373 6.04109 13.0433 5.4919 13.2492 5.01136C13.3179 4.80541 13.2492 4.66812 13.0433 4.53082C12.8373 4.46217 12.6314 4.53082 12.5627 4.73676C12.4254 5.2173 12.1508 5.56055 11.9449 5.69784C11.8076 5.76649 11.6016 5.83514 11.3957 5.83514C11.0524 5.83514 10.5719 5.76649 10.16 5.6292C9.95407 5.56055 9.81676 5.69785 9.74812 5.90379C9.81676 6.10974 9.88541 6.31568 10.0914 6.31568ZM4.66811 5.90379C4.87406 5.90379 5.01136 5.90379 5.2173 5.90379C5.4919 5.90379 5.76649 5.90379 6.04109 5.90379C6.72757 5.90379 7.41406 5.90379 8.10055 5.97244C8.3065 5.97244 8.44379 5.83514 8.51244 5.6292C8.51244 5.42325 8.37514 5.28595 8.23785 5.28595C7.55136 5.2173 6.86487 5.14865 6.10974 5.14865C5.83514 5.14865 5.56055 5.14865 5.28595 5.14865C5.08001 5.14865 4.87406 5.14865 4.66811 5.14865C4.46217 5.14865 4.32487 5.3546 4.32487 5.4919C4.32487 5.76649 4.46217 5.90379 4.66811 5.90379ZM0.961083 8.85569C1.02973 8.71839 1.02973 8.58109 1.09838 8.44379C1.30432 7.82595 1.64757 7.20812 2.12811 6.79623C2.33406 6.65893 2.54 6.52163 2.74595 6.38433C2.88325 6.31568 2.9519 6.10974 2.88325 5.90379C2.8146 5.69785 2.60865 5.69785 2.40271 5.76649C2.12811 5.90379 1.85351 6.04109 1.57892 6.24704C0.961082 6.79623 0.54919 7.48271 0.343244 8.1692C0.274595 8.3065 0.205946 8.4438 0.205946 8.64974C0.137297 8.85569 0.274594 8.99298 0.411891 9.06163C0.686486 9.13028 0.892434 9.06163 0.961083 8.85569ZM1.51027 14.0043C0.961083 13.0433 0.686487 11.9449 0.686487 10.8465C0.686487 10.6406 0.54919 10.5033 0.343244 10.5033C0.137297 10.5033 0 10.6406 0 10.8465C0 12.0822 0.343243 13.2492 0.892433 14.3476C0.961082 14.4849 1.16703 14.5535 1.37297 14.4849C1.51027 14.3476 1.57892 14.1416 1.51027 14.0043ZM5.4919 17.2308C4.46217 16.8876 3.43244 16.3384 2.6773 15.5833C2.54 15.446 2.33406 15.446 2.19676 15.5833C2.05946 15.7206 2.05946 15.9265 2.19676 16.0638C3.08919 16.8876 4.11892 17.5741 5.28595 17.9173C5.4919 17.986 5.62919 17.8487 5.69784 17.7114C5.76649 17.5054 5.69784 17.2995 5.4919 17.2308Z" fill="black"/>
<path d="M0.620011 7.4826C0.551362 8.03179 0.482711 8.64963 0.414062 9.19882C0.414062 9.40477 0.551361 9.54206 0.688658 9.61071C0.825956 9.67936 1.0319 9.47342 1.10055 9.33612C1.1692 8.78693 1.23785 8.23774 1.3065 7.6199C1.3065 7.41396 1.1692 7.27666 1.0319 7.20801C0.825956 7.20801 0.688659 7.34531 0.620011 7.4826Z" fill="black"/>
<path d="M7.75673 22.9968C8.23727 23.9579 8.64916 24.919 8.9924 25.8801C9.06105 26.086 9.267 26.1546 9.40429 26.086C9.54159 26.0174 9.67889 25.8114 9.61024 25.6741C9.267 24.6444 8.78646 23.6833 8.37456 22.7222C8.30591 22.5849 8.09997 22.5163 7.89402 22.5849C7.75673 22.6536 7.68808 22.8595 7.75673 22.9968ZM4.11834 20.3195C4.66753 20.5941 5.28537 20.8 5.90321 20.9373C6.24645 21.006 6.52105 21.006 6.72699 21.1433C6.79564 21.2119 6.86429 21.2806 6.93294 21.3492C7.07024 21.4865 7.27619 21.5552 7.41348 21.4179C7.55078 21.2806 7.61943 21.0746 7.48213 20.9373C7.41348 20.8 7.27619 20.6627 7.13889 20.5254C6.727 20.2509 6.3151 20.2509 6.04051 20.1822C5.49132 20.1136 4.94213 19.9076 4.46159 19.633C4.32429 19.5644 4.11834 19.633 3.98105 19.7703C3.9124 20.0449 3.9124 20.2509 4.11834 20.3195ZM0.823206 16.3379C1.2351 17.3676 1.78429 18.3287 2.53942 19.1525C2.67672 19.2898 2.88267 19.2898 3.01997 19.1525C3.15726 19.0152 3.15726 18.8092 3.01997 18.6719C2.33348 17.9854 1.78429 17.0244 1.44104 16.0633C1.37239 15.8573 1.16645 15.7887 1.02915 15.8573C0.823205 15.926 0.685908 16.1319 0.823206 16.3379ZM0.205366 11.1206C0.205366 11.5325 0.136719 11.9444 0.136719 12.3563C0.136719 13.0427 0.205368 13.7292 0.274017 14.4157C0.274017 14.6217 0.479962 14.759 0.685908 14.6903C0.891854 14.6217 1.02915 14.4844 0.960504 14.2784C0.891855 13.6606 0.823206 12.9741 0.823206 12.3563C0.823206 11.9444 0.823205 11.6011 0.891854 11.1892C0.891854 10.9833 0.754556 10.846 0.54861 10.846C0.342664 10.7773 0.205366 10.9146 0.205366 11.1206Z" fill="black"/>
<path d="M9.60903 27.7347C9.74633 28.2839 9.88363 28.8331 10.0896 29.3823L10.4328 29.3136L10.2269 29.039C9.74633 29.4509 9.40309 29.9315 9.12849 30.4807C9.05985 30.618 9.12849 30.8926 9.26579 30.9612C9.40309 31.0299 9.67768 30.9612 9.74633 30.8239C9.95227 30.3434 10.2955 29.9315 10.7074 29.5882C10.7761 29.5196 10.8447 29.3823 10.8447 29.245C10.7074 28.6958 10.5701 28.1466 10.3642 27.5974C10.2955 27.3915 10.0896 27.3228 9.95228 27.3915C9.60903 27.3915 9.54038 27.5288 9.60903 27.7347Z" fill="black"/>
<path d="M13.8675 43.1103C14.8286 43.5222 15.9269 43.7281 17.094 43.7281C17.2999 43.7281 17.5745 43.7281 17.7805 43.7281C17.9864 43.7281 18.1237 43.5222 18.1237 43.3849C18.1237 43.1789 17.9178 43.0416 17.7805 43.0416C17.5745 43.0416 17.3686 43.0416 17.1626 43.0416C16.1329 43.0416 15.1032 42.8357 14.2794 42.4924C14.1421 42.4238 13.8675 42.4924 13.7988 42.6297C13.6615 42.8357 13.7302 43.0416 13.8675 43.1103ZM9.33666 38.9227C9.47396 39.1973 9.61125 39.4719 9.74855 39.7465C10.2977 40.5703 11.1215 41.2568 11.9453 41.8746C12.0826 42.0119 12.2886 41.9432 12.4259 41.8059C12.5631 41.6686 12.4945 41.4627 12.3572 41.3254C11.5334 40.7762 10.7783 40.0897 10.3664 39.4032C10.2291 39.1973 10.0918 38.9227 9.9545 38.6481C9.88585 38.5108 9.67991 38.4422 9.47396 38.5108C9.26801 38.5108 9.19936 38.7168 9.33666 38.9227ZM8.37558 32.813C8.30693 33.2935 8.23828 33.774 8.23828 34.3232C8.23828 35.147 8.30693 35.9708 8.51288 36.7259C8.58153 36.9319 8.71882 37.0005 8.92477 37.0005C9.13071 36.9319 9.19936 36.7946 9.19936 36.5886C9.06207 35.8335 8.92477 35.0784 8.92477 34.3232C8.92477 33.8427 8.99342 33.3622 9.06206 32.9503C9.06206 32.7443 8.92477 32.607 8.78747 32.5384C8.58153 32.4697 8.37558 32.607 8.37558 32.813Z" fill="black"/>
<path d="M20.1134 43.1796C20.6626 42.9736 21.2118 42.6304 21.6923 42.2871C21.8296 42.1498 21.8296 41.9439 21.761 41.8066C21.6237 41.6693 21.4177 41.6693 21.2804 41.8066C20.8686 42.1498 20.388 42.3558 19.9075 42.5617C19.7015 42.6304 19.6329 42.8363 19.7015 43.0423C19.7015 43.1796 19.9075 43.2482 20.1134 43.1796Z" fill="black"/>
</svg>
