<svg width="33" height="14" viewBox="0 0 33 14" fill="none" xmlns="http://www.w3.org/2000/svg">
<path fill-rule="evenodd" clip-rule="evenodd" d="M32.3583 6.95669C32.3583 4.65557 31.2437 2.83984 29.1134 2.83984C26.9741 2.83984 25.6797 4.65557 25.6797 6.93872C25.6797 9.64433 27.2078 11.0106 29.401 11.0106C30.4707 11.0106 31.2797 10.7679 31.8909 10.4264V8.6286C31.2797 8.93422 30.5786 9.12298 29.6887 9.12298C28.8168 9.12298 28.0437 8.81737 27.9449 7.75669H32.3404C32.3404 7.63984 32.3583 7.17242 32.3583 6.95669ZM27.9179 6.10276C27.9179 5.08703 28.5381 4.66456 29.1044 4.66456C29.6527 4.66456 30.237 5.08703 30.237 6.10276H27.9179Z" fill="#32325D"/>
<path fill-rule="evenodd" clip-rule="evenodd" d="M22.2116 2.83984C21.3307 2.83984 20.7645 3.25333 20.4498 3.54097L20.333 2.98366H18.3555V13.4646L20.6027 12.9882L20.6116 10.4443C20.9352 10.678 21.4116 11.0106 22.2027 11.0106C23.8116 11.0106 25.2768 9.71624 25.2768 6.86681C25.2678 4.26007 23.7847 2.83984 22.2116 2.83984ZM21.6723 9.0331C21.142 9.0331 20.8274 8.84433 20.6116 8.61063L20.6027 5.2758C20.8364 5.01512 21.16 4.83535 21.6723 4.83535C22.4903 4.83535 23.0566 5.7522 23.0566 6.92973C23.0566 8.13422 22.4993 9.0331 21.6723 9.0331Z" fill="#32325D"/>
<path fill-rule="evenodd" clip-rule="evenodd" d="M15.2617 2.31011L17.5179 1.82472V0L15.2617 0.476404V2.31011Z" fill="#32325D"/>
<path d="M17.5179 2.99219H15.2617V10.8574H17.5179V2.99219Z" fill="#32325D"/>
<path fill-rule="evenodd" clip-rule="evenodd" d="M12.8432 3.65652L12.6994 2.99135H10.7578V10.8565H13.005V5.52618C13.5353 4.83405 14.4342 4.95989 14.7129 5.05877V2.99135C14.4252 2.88349 13.3735 2.68573 12.8432 3.65652Z" fill="#32325D"/>
<path fill-rule="evenodd" clip-rule="evenodd" d="M8.35069 1.04297L6.15743 1.51038L6.14844 8.71039C6.14844 10.0407 7.14619 11.0205 8.47653 11.0205C9.21361 11.0205 9.75294 10.8857 10.0496 10.7239V8.89915C9.76193 9.01601 8.3417 9.42949 8.3417 8.09915V4.90814H10.0496V2.99353H8.3417L8.35069 1.04297Z" fill="#32325D"/>
<path fill-rule="evenodd" clip-rule="evenodd" d="M2.27416 5.2758C2.27416 4.92524 2.5618 4.79041 3.0382 4.79041C3.72135 4.79041 4.58427 4.99715 5.26742 5.36569V3.25333C4.52135 2.9567 3.78427 2.83984 3.0382 2.83984C1.21348 2.83984 0 3.79265 0 5.38367C0 7.86457 3.41573 7.46906 3.41573 8.53872C3.41573 8.95221 3.05618 9.08704 2.55281 9.08704C1.80674 9.08704 0.853932 8.78142 0.0988763 8.36794V10.5073C0.934831 10.8668 1.77978 11.0196 2.55281 11.0196C4.42247 11.0196 5.70787 10.0938 5.70787 8.48479C5.69888 5.80614 2.27416 6.28254 2.27416 5.2758Z" fill="#32325D"/>
</svg>
