<svg width="164" height="31" viewBox="0 0 164 31" fill="none" xmlns="http://www.w3.org/2000/svg">
<path d="M106.211 10.534L103 0.691406H104.374L105.905 5.54189C106.327 6.86979 106.693 8.06758 106.955 9.22137H106.986C107.263 8.07332 107.673 6.83918 108.109 5.55528L109.773 0.693322H111.13L107.607 10.534H106.211Z" fill="#10357F"/>
<path d="M111.816 7.23107C111.847 8.97036 112.955 9.68406 114.24 9.68406C114.912 9.70508 115.579 9.5804 116.198 9.3186L116.408 10.2466C115.664 10.5562 114.863 10.7055 114.057 10.6848C111.879 10.6848 110.58 9.25163 110.58 7.1201C110.58 4.98857 111.837 3.30859 113.894 3.30859C116.204 3.30859 116.818 5.34063 116.818 6.63792C116.815 6.83832 116.8 7.03834 116.772 7.23681L111.816 7.23107ZM115.584 6.31073C115.601 5.4937 115.249 4.22129 113.802 4.22129C112.503 4.22129 111.933 5.41908 111.83 6.31073H115.584Z" fill="#10357F"/>
<path d="M117.825 5.66385C117.825 4.83344 117.81 4.11591 117.768 3.4577H118.896L118.939 4.84492H118.996C119.317 3.88821 120.09 3.29697 120.955 3.29697C121.078 3.29551 121.2 3.31031 121.319 3.34098V4.55408C121.175 4.52244 121.028 4.50767 120.881 4.51007C119.976 4.51007 119.335 5.19698 119.159 6.15942C119.122 6.35762 119.102 6.55863 119.099 6.76023V10.5296H117.825V5.66385Z" fill="#10357F"/>
<path d="M123.508 1.47407C123.508 1.68518 123.424 1.88764 123.275 2.03691C123.126 2.18619 122.923 2.27005 122.712 2.27005C122.501 2.27005 122.299 2.18619 122.149 2.03691C122 1.88764 121.916 1.68518 121.916 1.47407C121.914 1.3679 121.934 1.26239 121.973 1.16399C122.013 1.06559 122.073 0.976351 122.149 0.901705C122.224 0.827059 122.314 0.76857 122.413 0.729798C122.512 0.691026 122.617 0.672785 122.724 0.676182C122.829 0.672892 122.934 0.691481 123.032 0.730785C123.13 0.770088 123.219 0.829251 123.293 0.904555C123.367 0.979858 123.425 1.06967 123.463 1.16834C123.5 1.26701 123.517 1.37241 123.512 1.4779L123.508 1.47407ZM122.079 3.46401H123.367V10.5321H122.079V3.46401Z" fill="#10357F"/>
<path d="M125.04 10.5319V4.43963H124.047V3.46187H125.04V3.12512C125.04 2.13206 125.26 1.22702 125.857 0.656826C126.324 0.222728 126.942 -0.0126449 127.579 0.000524267C127.953 -0.000710258 128.325 0.068752 128.673 0.20526L128.499 1.19832C128.241 1.08639 127.962 1.03219 127.68 1.03951C126.586 1.03951 126.31 1.9962 126.31 3.08493V3.46761H128.017V4.44536H126.31V10.5319H125.04Z" fill="#10357F"/>
<path d="M130.715 1.47787C130.715 1.68898 130.631 1.89143 130.482 2.04071C130.333 2.18998 130.13 2.27384 129.919 2.27384C129.708 2.27384 129.506 2.18998 129.356 2.04071C129.207 1.89143 129.123 1.68898 129.123 1.47787C129.121 1.37178 129.14 1.26631 129.18 1.16785C129.219 1.06938 129.278 0.979975 129.353 0.905028C129.429 0.830081 129.518 0.771152 129.617 0.731812C129.715 0.692473 129.821 0.673538 129.927 0.676153C130.032 0.672863 130.138 0.691452 130.236 0.730756C130.334 0.770059 130.422 0.829222 130.496 0.904526C130.57 0.979829 130.628 1.06964 130.666 1.16831C130.703 1.26699 130.72 1.37238 130.715 1.47787ZM129.286 3.46398H130.568V10.5321H129.286V3.46398Z" fill="#10357F"/>
<path d="M132.834 7.23107C132.865 8.97036 133.972 9.68406 135.258 9.68406C135.929 9.7052 136.597 9.58052 137.216 9.3186L137.436 10.2466C136.691 10.5562 135.89 10.7055 135.084 10.6848C132.907 10.6848 131.607 9.25163 131.607 7.1201C131.607 4.98857 132.865 3.30859 134.92 3.30859C137.229 3.30859 137.841 5.34063 137.841 6.63792C137.839 6.83835 137.824 7.03842 137.795 7.23681L132.834 7.23107ZM136.601 6.31073C136.615 5.4937 136.265 4.22129 134.82 4.22129C133.521 4.22129 132.953 5.41908 132.847 6.31073H136.601Z" fill="#10357F"/>
<path d="M144.958 0.164062V8.7055C144.958 9.33501 144.972 10.0449 145.016 10.5328H143.868L143.808 9.30631H143.77C143.376 10.0946 142.517 10.6916 141.361 10.6916C139.653 10.6916 138.34 9.24508 138.34 7.09824C138.325 4.74666 139.786 3.30204 141.509 3.30204C142.588 3.30204 143.319 3.81484 143.638 4.38312H143.669V0.164062H144.958ZM143.671 6.34053C143.673 6.15839 143.654 5.9766 143.613 5.79904C143.521 5.37617 143.287 4.99767 142.95 4.72673C142.612 4.4558 142.192 4.30885 141.759 4.31041C140.42 4.31041 139.641 5.47759 139.641 7.04275C139.641 8.47398 140.339 9.65646 141.731 9.65646C142.172 9.6551 142.6 9.50241 142.942 9.22386C143.285 8.94531 143.522 8.55773 143.613 8.12574C143.656 7.94456 143.675 7.75877 143.671 7.57276V6.34053Z" fill="#10357F"/>
<path d="M149.715 10.5328C149.745 10.0487 149.772 9.33501 149.772 8.7055V0.164062H151.041V4.60316H151.07C151.523 3.81484 152.34 3.30396 153.48 3.30396C155.233 3.30396 156.473 4.7658 156.462 6.91073C156.462 9.43642 154.868 10.6935 153.291 10.6935C152.267 10.6935 151.45 10.2994 150.924 9.36562H150.882L150.821 10.5328H149.715ZM151.054 7.69905C151.058 7.85628 151.078 8.01271 151.114 8.16592C151.219 8.59479 151.466 8.97596 151.813 9.24882C152.16 9.52168 152.589 9.67055 153.031 9.67177C154.37 9.67177 155.178 8.5773 155.178 6.95473C155.178 5.53881 154.447 4.32572 153.073 4.32572C152.618 4.33419 152.179 4.49369 151.824 4.77911C151.47 5.06453 151.221 5.45968 151.115 5.90236C151.072 6.07142 151.047 6.24461 151.041 6.41898L151.054 7.69905Z" fill="#10357F"/>
<path d="M157.867 3.46094L159.415 7.63982C159.576 8.10669 159.752 8.66158 159.867 9.08635H159.896C160.03 8.66349 160.173 8.12965 160.351 7.61111L161.755 3.46094H163.116L161.181 8.49894C160.263 10.9232 159.633 12.165 158.757 12.9246C158.312 13.3336 157.769 13.6209 157.18 13.7589L156.859 12.6778C157.271 12.5419 157.653 12.3282 157.984 12.0483C158.451 11.6615 158.821 11.1715 159.065 10.6171C159.117 10.5218 159.151 10.4181 159.167 10.3109C159.155 10.1947 159.126 10.081 159.079 9.97417L156.465 3.46859L157.867 3.46094Z" fill="#10357F"/>
<path d="M124.318 15.3555L120.428 25.2076L118.852 16.8307C118.788 16.4197 118.579 16.0449 118.264 15.7743C117.948 15.5037 117.545 15.3552 117.129 15.3555H110.75L110.664 15.7745C111.971 16.0615 113.456 16.5188 114.357 17.0048C114.908 17.3071 115.065 17.5693 115.243 18.2811L118.232 29.8304H122.19L128.256 15.3555H124.318Z" fill="#10357F"/>
<path d="M129.858 15.3516L126.762 29.8265H130.508L133.596 15.3516H129.858Z" fill="#10357F"/>
<path d="M138.512 19.3683C138.524 18.8498 139.019 18.2987 140.1 18.1514C141.367 18.0342 142.642 18.2582 143.793 18.8L144.449 15.7386C143.33 15.3169 142.144 15.0985 140.948 15.0938C137.246 15.0938 134.645 17.0646 134.618 19.8773C134.599 21.9571 136.48 23.13 137.896 23.815C139.356 24.523 139.848 24.9765 139.838 25.6156C139.838 26.5876 138.675 27.0123 137.601 27.0277C135.717 27.0583 134.626 26.5206 133.754 26.1169L133.078 29.2874C133.949 29.6873 135.566 30.0374 137.244 30.0527C141.17 30.0527 143.749 28.1068 143.749 25.1009C143.764 21.274 138.468 21.0693 138.505 19.3606" fill="#10357F"/>
<path d="M149.352 24.7044L151.342 19.2685L152.462 24.7044H149.352ZM150.774 15.3556C150.432 15.3522 150.097 15.4516 149.813 15.641C149.528 15.8304 149.307 16.1009 149.178 16.4175L143.562 29.8285H147.496L148.277 27.6664H153.061L153.51 29.8285H156.981L153.971 15.3556H150.774Z" fill="#10357F"/>
<path fill-rule="evenodd" clip-rule="evenodd" d="M74.8066 13.0286C74.8066 12.1716 75.4833 11.4727 76.2939 11.4727C77.1285 11.4727 77.7828 12.1716 77.7828 13.0286C77.7828 13.8855 77.1285 14.5845 76.2939 14.5845C75.4833 14.6068 74.8066 13.9079 74.8066 13.0286ZM76.2939 14.2462C76.9258 14.2462 77.4222 13.7052 77.4222 13.0509C77.4222 12.3966 76.9035 11.8556 76.2939 11.8556C75.6636 11.8556 75.1673 12.3966 75.1673 13.0509C75.1673 13.7052 75.6636 14.2462 76.2939 14.2462ZM76.0912 13.7275H75.7752V12.3519H76.3402C76.4519 12.3519 76.5875 12.3519 76.6786 12.4189C76.7902 12.4876 76.8365 12.6216 76.8365 12.7572C76.8365 12.9152 76.7455 13.0509 76.6099 13.0956L76.8589 13.7052H76.5206L76.3179 13.1625H76.0912V13.7275ZM76.0912 12.9599H76.2715C76.3402 12.9599 76.4072 12.9599 76.4519 12.9376C76.4965 12.9152 76.5206 12.8483 76.5206 12.7796C76.5206 12.7349 76.4965 12.6679 76.4519 12.6456C76.4072 12.6216 76.3179 12.6216 76.2715 12.6216H76.1135L76.0912 12.9599Z" fill="#FD0C15"/>
<path fill-rule="evenodd" clip-rule="evenodd" d="M53.495 2.63198L53.0897 5.29387C52.2104 4.81989 51.5561 4.63956 50.8571 4.63956C49.0076 4.63956 47.6989 6.5338 47.6989 9.21801C47.6989 11.0659 48.5782 12.1942 50.0225 12.1942C50.6304 12.1942 51.3071 11.9915 52.1417 11.5622L51.7124 14.3598C50.7884 14.6294 50.2028 14.7204 49.5039 14.7204C46.8197 14.7204 45.1504 12.6905 45.1504 9.44299C45.1504 5.06718 47.4516 2 50.7661 2C51.1937 2 51.5784 2.04465 51.8944 2.13567L52.9317 2.40701C53.2013 2.51864 53.27 2.54096 53.495 2.63198Z" fill="#FD0C15"/>
<path fill-rule="evenodd" clip-rule="evenodd" d="M45.2183 4.45983C45.1496 4.4375 45.0603 4.4375 44.9692 4.4375C44.1569 4.4375 43.6847 4.86512 42.917 6.06039L43.142 4.54913H40.8871L39.3535 14.4943H41.8574C42.759 8.40629 42.984 7.36901 44.1793 7.36901C44.248 7.36901 44.2703 7.36901 44.3596 7.36901C44.5863 6.17374 44.8782 5.29446 45.3076 4.48215L45.2183 4.45983Z" fill="#FD0C15"/>
<path fill-rule="evenodd" clip-rule="evenodd" d="M30.3085 14.3587C29.6319 14.5837 29.0909 14.6953 28.5276 14.6953C27.2654 14.6953 26.5664 13.9294 26.5664 12.5092C26.5664 12.2378 26.5887 11.9218 26.6334 11.6058L26.7914 10.6372L26.903 9.84727L27.9867 3.05859H30.4665L30.1746 4.52521H31.4591L31.0985 6.93808H29.8345L29.1819 11.0872C29.1596 11.2675 29.1356 11.4032 29.1356 11.4942C29.1356 12.0128 29.4069 12.2378 29.9942 12.2378C30.2862 12.2378 30.4888 12.2155 30.6692 12.1485L30.3085 14.3587Z" fill="#FD0C15"/>
<path fill-rule="evenodd" clip-rule="evenodd" d="M20.4784 7.68335C20.4784 8.94732 21.064 9.80428 22.3726 10.4586C23.3652 10.9549 23.5456 11.1112 23.5456 11.5628C23.5456 12.1725 23.0939 12.4644 22.1236 12.4644C21.38 12.4644 20.7034 12.3528 19.8911 12.0592L19.5527 14.3604L19.6661 14.3827L20.1177 14.472C20.2757 14.4944 20.4784 14.539 20.7703 14.563C21.3577 14.6077 21.8317 14.6523 22.1459 14.6523C24.7632 14.6523 25.9808 13.5927 25.9808 11.3379C25.9808 9.9846 25.4845 9.17229 24.2222 8.56435C23.1849 8.06804 23.0716 7.95469 23.0716 7.4807C23.0716 6.93974 23.4769 6.67012 24.2892 6.67012C24.7855 6.67012 25.4398 6.73709 26.0718 6.82639L26.4324 4.52687C25.7781 4.41352 24.8078 4.32422 24.2445 4.32422C21.4246 4.32422 20.4561 5.83548 20.4784 7.68335Z" fill="#FD0C15"/>
<path fill-rule="evenodd" clip-rule="evenodd" d="M73.3621 14.473H70.9939L71.1072 13.5044C70.4306 14.2703 69.7093 14.6086 68.8077 14.6086C66.9804 14.6086 65.7852 12.9617 65.7852 10.4819C65.7852 7.16565 67.6347 4.36981 69.845 4.36981C70.8136 4.36981 71.5366 4.79915 72.2355 5.72308L72.7765 2.22656H75.234L73.3621 14.473ZM69.687 12.1511C70.8599 12.1511 71.6705 10.7755 71.6705 8.79027C71.6705 7.52802 71.1982 6.82734 70.3396 6.82734C69.213 6.82734 68.4007 8.22698 68.4007 10.1659C68.4007 11.4745 68.83 12.1511 69.687 12.1511Z" fill="#FD0C15"/>
<path fill-rule="evenodd" clip-rule="evenodd" d="M38.2019 14.2672C37.3449 14.5368 36.5343 14.6725 35.6327 14.6725C32.8575 14.6725 31.3926 13.1389 31.3926 10.2073C31.3926 6.77952 33.2404 4.27734 35.7443 4.27734C37.7966 4.27734 39.1052 5.69759 39.1052 7.90782C39.1052 8.6291 39.0142 9.35039 38.7892 10.3653H33.8278C33.8055 10.5233 33.8055 10.592 33.8055 10.6813C33.8055 11.8543 34.5491 12.4399 35.9934 12.4399C36.8726 12.4399 37.6849 12.2373 38.5865 11.8096L38.2019 14.2672ZM36.8039 8.33544C36.828 8.13279 36.828 7.95247 36.828 7.83912C36.828 7.02682 36.3986 6.55455 35.655 6.55455C34.8651 6.55455 34.3018 7.18653 34.0751 8.33544H36.8039Z" fill="#FD0C15"/>
<path fill-rule="evenodd" clip-rule="evenodd" d="M10.4644 14.4724H7.98457L9.40482 5.06817L6.20197 14.4724H4.51038L4.30773 5.13686L2.79646 14.4724H0.474609L2.4135 2.25H5.99932L6.09034 9.82694L8.52554 2.25H12.405L10.4644 14.4724Z" fill="#FD0C15"/>
<path fill-rule="evenodd" clip-rule="evenodd" d="M16.8929 10.0505C16.6215 10.0281 16.5099 10.0058 16.3296 10.0058C14.9076 10.0058 14.2086 10.5245 14.2086 11.5171C14.2086 12.1267 14.5693 12.532 15.1102 12.532C16.1029 12.532 16.8482 11.5171 16.8929 10.0505ZM18.6961 14.4709H16.6215L16.6662 13.4336C16.0359 14.2683 15.2013 14.6289 14.0506 14.6289C12.6974 14.6289 11.7734 13.5247 11.7734 11.9224C11.7734 9.48717 13.3963 8.08925 16.1492 8.08925C16.4412 8.08925 16.8018 8.11158 17.1625 8.15623C17.2312 7.81791 17.2535 7.68224 17.2535 7.50192C17.2535 6.84933 16.8259 6.60031 15.6529 6.60031C14.954 6.60031 14.1417 6.71365 13.5767 6.89398L13.2624 7.0056L13.0357 7.0743L13.374 4.84175C14.6139 4.45878 15.4486 4.30078 16.3519 4.30078C18.4934 4.30078 19.6217 5.31573 19.6217 7.20997C19.6217 7.70628 19.5753 8.06693 19.4174 9.19351L18.9228 12.7347L18.8317 13.3667L18.7648 13.8613L18.7201 14.2236L18.6961 14.4709Z" fill="#FD0C15"/>
<path fill-rule="evenodd" clip-rule="evenodd" d="M57.8011 10.0494C57.5538 10.027 57.4181 10.0047 57.2378 10.0047C55.8175 10.0047 55.0945 10.5233 55.0945 11.516C55.0945 12.1256 55.4569 12.5309 55.9978 12.5309C57.0128 12.5309 57.7564 11.516 57.8011 10.0494ZM59.606 14.4698H57.5314L57.5761 13.4325C56.9441 14.2672 56.1095 14.6278 54.9606 14.6278C53.6073 14.6278 52.6816 13.5235 52.6816 11.9213C52.6816 9.48606 54.3063 8.08814 57.0574 8.08814C57.3271 8.08814 57.7118 8.11046 58.0724 8.15512C58.1394 7.8168 58.1617 7.68113 58.1617 7.50081C58.1617 6.84821 57.7341 6.5992 56.5611 6.5992C55.8622 6.5992 55.0499 6.71254 54.4866 6.89286L54.1259 6.98217L53.8992 7.05086L54.2376 4.81831C55.4792 4.43534 56.3138 4.27734 57.2154 4.27734C59.357 4.27734 60.4853 5.2923 60.4853 7.18653C60.4853 7.68113 60.4406 8.04349 60.2826 9.17007L59.764 12.6889L59.6953 13.3209L59.6283 13.8155L59.5837 14.1538L59.606 14.4698Z" fill="#FD0C15"/>
<path fill-rule="evenodd" clip-rule="evenodd" d="M66.5737 4.45983C66.505 4.4375 66.4157 4.4375 66.3247 4.4375C65.5124 4.4375 65.0384 4.86512 64.2725 6.06039L64.4992 4.54913H62.2426L60.709 14.4943H63.2129C64.1145 8.40629 64.3395 7.36901 65.5347 7.36901C65.6034 7.36901 65.6034 7.36901 65.7168 7.36901C65.9417 6.17374 66.2577 5.29446 66.663 4.48215L66.5737 4.45983Z" fill="#FD0C15"/>
<path fill-rule="evenodd" clip-rule="evenodd" d="M56.1106 24.1459C56.1106 26.4008 55.4117 27.7317 54.3074 27.7317C53.4951 27.7541 53.0211 26.8524 53.0211 25.5215C53.0211 23.9433 53.7424 22.1383 54.8707 22.1383C55.7947 22.1383 56.1106 23.1086 56.1106 24.1459ZM58.5699 24.1682C58.5699 21.6643 57.3282 19.7031 55.0064 19.7031C52.3222 19.7031 50.5859 22.0713 50.5859 25.5662C50.5859 28.07 51.6232 30.1223 54.1494 30.1223C56.698 30.1223 58.5699 28.3173 58.5699 24.1682Z" fill="#F3AE12"/>
<path fill-rule="evenodd" clip-rule="evenodd" d="M51.3748 17.9679L50.9901 20.6281C50.1572 20.1558 49.5698 19.9738 48.9155 19.9738C47.1793 19.9738 45.9617 21.8697 45.9617 24.5522C45.9617 26.4018 46.774 27.5301 48.1273 27.5301C48.7129 27.5301 49.3449 27.3258 50.1108 26.8981L49.7055 29.694C48.8486 29.9653 48.2836 30.0546 47.631 30.0546C45.1271 30.0546 43.5488 28.0264 43.5488 24.7772C43.5488 20.4031 45.7127 17.3359 48.8039 17.3359C49.2092 17.3359 49.5475 17.3806 49.8412 17.4716L50.7874 17.7412C51.1034 17.8323 51.1704 17.8546 51.3748 17.9679Z" fill="#F3AE12"/>
<path fill-rule="evenodd" clip-rule="evenodd" d="M35.9695 19.7723C35.9025 19.75 35.8132 19.75 35.7222 19.75C34.9562 19.75 34.5269 20.1793 33.8056 21.3729L34.0306 19.8633H31.9337L30.5117 29.8085H32.8353C33.6699 23.7188 33.8949 22.6815 35.0009 22.6815C35.0678 22.6815 35.0678 22.6815 35.1812 22.7038C35.3838 21.5086 35.6775 20.6293 36.0605 19.817L35.9695 19.7723Z" fill="#F3AE12"/>
<path fill-rule="evenodd" clip-rule="evenodd" d="M66.3697 29.7146H64.1595L64.2728 28.746C63.6408 29.5119 62.9642 29.8502 62.1072 29.8502C60.4156 29.8502 59.2891 28.2033 59.2891 25.7234C59.2891 22.409 61.0253 19.6114 63.0775 19.6114C63.9791 19.6114 64.6781 20.0407 65.3101 20.987L65.8287 17.4922H68.13L66.3697 29.7146ZM62.9195 27.3704C64.0255 27.3704 64.7691 25.9948 64.7691 24.0095C64.7691 22.7473 64.3398 22.0706 63.5292 22.0706C62.4696 22.0706 61.7243 23.4462 61.7243 25.4074C61.7243 26.7161 62.1296 27.3704 62.9195 27.3704Z" fill="#F3AE12"/>
<path fill-rule="evenodd" clip-rule="evenodd" d="M14.1417 29.6734C13.3517 29.9447 12.5858 30.0804 11.7512 30.0804C9.15796 30.0804 7.80469 28.5468 7.80469 25.6136C7.80469 22.2098 9.54093 19.6836 11.8628 19.6836C13.7811 19.6836 14.9987 21.0815 14.9987 23.3141C14.9987 24.0354 14.9076 24.7566 14.705 25.7716H10.0819C10.0596 25.9296 10.0596 25.9983 10.0596 26.0876C10.0596 27.2382 10.7585 27.8238 12.1118 27.8238C12.9464 27.8238 13.69 27.6212 14.5247 27.1936L14.1417 29.6734ZM12.8331 23.7417C12.8331 23.539 12.8554 23.3587 12.8554 23.2471C12.8554 22.4348 12.4501 21.9608 11.7512 21.9608C11.0058 21.9608 10.4872 22.5928 10.2622 23.7417H12.8331Z" fill="#F3AE12"/>
<path fill-rule="evenodd" clip-rule="evenodd" d="M41.8357 29.6734C41.0457 29.9447 40.2797 30.0804 39.4451 30.0804C36.8296 30.0804 35.4746 28.5468 35.4746 25.6136C35.4746 22.2098 37.2126 19.6836 39.5344 19.6836C41.451 19.6836 42.6926 21.0815 42.6926 23.3141C42.6926 24.0354 42.6016 24.7566 42.399 25.7716H37.7759C37.7535 25.9296 37.7535 25.9983 37.7535 26.0876C37.7535 27.2382 38.4525 27.8238 39.8058 27.8238C40.6404 27.8238 41.384 27.6212 42.2186 27.1936L41.8357 29.6734ZM40.527 23.7417C40.5494 23.539 40.5494 23.3587 40.5494 23.2471C40.5494 22.4348 40.1441 21.9608 39.4451 21.9608C38.6998 21.9608 38.1811 22.5928 37.9562 23.7417H40.527Z" fill="#F3AE12"/>
<path fill-rule="evenodd" clip-rule="evenodd" d="M74.3105 29.6734C73.4982 29.9447 72.7323 30.0804 71.92 30.0804C69.3268 30.0804 67.9512 28.5468 67.9512 25.6136C67.9512 22.2098 69.6874 19.6836 72.0333 19.6836C73.9499 19.6836 75.1675 21.0815 75.1675 23.3141C75.1675 24.0354 75.0764 24.7566 74.8738 25.7716H70.2507C70.2284 25.9296 70.2284 25.9983 70.2284 26.0876C70.2284 27.2382 70.9273 27.8238 72.2806 27.8238C73.1152 27.8238 73.8588 27.6212 74.6935 27.1936L74.3105 29.6734ZM73.0019 23.7417C73.0019 23.539 73.0242 23.3587 73.0242 23.2471C73.0242 22.4348 72.6189 21.9608 71.92 21.9608C71.1746 21.9608 70.6577 22.5928 70.431 23.7417H73.0019Z" fill="#F3AE12"/>
<path fill-rule="evenodd" clip-rule="evenodd" d="M7.23862 20.2218C6.78868 19.9058 6.15669 19.6585 5.29974 19.6585C4.35176 19.6585 3.60815 19.8611 3.60815 20.852C3.60815 22.6123 7.03597 21.958 7.03597 25.7465C7.03597 29.1966 4.7811 30.0999 2.72887 30.0999C1.82726 30.0999 0.765937 29.8063 0 29.4456L0.56329 26.9194C1.03728 27.3487 1.96293 27.6407 2.75119 27.6407C3.4948 27.6407 4.6231 27.438 4.6231 26.1518C4.6231 24.1459 1.19527 24.8895 1.19527 21.3707C1.19527 18.1472 3.20285 17.1992 5.14174 17.1992C6.22367 17.1992 7.26266 17.3572 7.84828 17.7625L7.23862 20.2218Z" fill="#F3AE12"/>
<path fill-rule="evenodd" clip-rule="evenodd" d="M20.9524 29.6717C20.4784 29.8967 19.8241 30.0547 18.8761 30.0547C16.848 30.0547 15.584 28.0265 15.584 25.5449C15.584 22.2974 17.4112 19.7266 20.0937 19.7266C20.6811 19.7266 21.5827 19.9739 22.2816 20.3809L21.7647 22.7491C21.2667 22.4108 20.748 22.2081 20.2071 22.2081C18.9672 22.2081 18.0656 23.357 18.0656 25.3869C18.0656 26.5599 18.7199 27.5302 19.7348 27.5302C20.3428 27.5302 20.7704 27.3945 21.2907 27.1009L20.9524 29.6717Z" fill="#F3AE12"/>
<path fill-rule="evenodd" clip-rule="evenodd" d="M29.6546 27.17C29.543 28.0287 29.4297 28.8616 29.3627 29.7409H27.1301L27.3105 28.1403H27.2881C26.5892 29.2239 25.8679 29.9676 24.5816 29.9676C23.1837 29.9676 22.416 28.4786 22.416 26.562C22.416 25.8854 22.4607 25.5248 22.5963 24.4875L23.2283 19.8867H25.7322L25.0556 24.5098C24.9869 25.0061 24.8976 25.5024 24.8976 26.0211C24.8976 26.6067 25.1672 27.194 25.8438 27.1477C26.8588 27.1477 27.4685 25.9077 27.6488 24.4428L28.3477 19.8867H30.7606L29.6546 27.17Z" fill="#F3AE12"/>
<path fill-rule="evenodd" clip-rule="evenodd" d="M76.631 29.6287H76.248V27.9817H75.707V27.6211H77.1719V27.9817H76.631V29.6287Z" fill="#F3AE12"/>
<path fill-rule="evenodd" clip-rule="evenodd" d="M79.1355 29.6287H78.7749V27.9594L78.4366 29.6287H78.0759L77.7376 27.9594V29.6287H77.377V27.6211H77.9402L78.2562 29.1993H78.2786L78.5946 27.6211H79.1355V29.6287Z" fill="#F3AE12"/>
</svg>
