<svg width="130" height="105" viewBox="0 0 130 105" fill="none" xmlns="http://www.w3.org/2000/svg">
<path d="M26.7282 43.2512C26.7282 40.6456 26.7282 38.0401 26.7282 35.4346C27.2875 32.829 28.406 30.7446 29.5245 28.6602C34.558 20.8436 42.3878 14.0692 51.8954 10.4214C61.403 6.77367 72.0292 5.73146 82.0961 6.77367C86.011 7.29478 90.4852 8.33699 93.8408 9.90032C97.7557 11.9847 100.552 14.0692 103.908 16.6747C110.619 21.8858 117.889 27.618 121.245 34.9135C122.923 38.5612 124.041 42.209 125.16 45.8567C126.838 50.0256 128.516 54.1944 128.516 58.3633C128.516 60.9688 127.956 63.0533 126.279 65.1377C124.601 66.701 122.364 67.2221 120.686 68.7854C119.008 70.8699 119.008 75.5598 118.449 78.1654C117.33 81.8131 116.771 84.9398 115.652 88.5875C115.093 90.6719 114.534 93.2775 112.856 94.8408C110.619 96.9252 107.263 97.4463 104.467 97.9674C101.111 98.4885 97.7557 99.0097 94.4001 99.0097C82.0961 100.573 69.7921 102.136 57.4881 103.7C51.8954 104.221 45.7434 105.263 40.71 102.136C35.1173 99.0097 32.8802 92.7564 32.3209 87.0242C31.2024 81.292 31.2024 75.0387 28.406 69.8276C27.2875 67.7432 25.0504 65.6588 24.4911 63.0533C21.1355 56.8 26.1689 50.0256 26.7282 43.2512ZM39.0322 48.9834C41.2692 51.5889 44.6249 52.6311 47.9805 53.1522C57.4881 55.2366 68.1143 54.1944 77.6219 52.11C84.8924 50.5467 92.7222 48.9834 99.9928 47.42C105.585 46.3778 112.297 47.42 113.415 41.1668C113.415 40.1245 113.415 39.0823 113.415 38.0401C112.856 36.9979 112.297 36.4768 111.737 35.4346C103.348 27.0969 93.2815 19.2802 81.5368 15.6325C69.7921 11.9847 55.251 13.5481 46.862 21.3647C43.5063 24.4913 41.2692 28.1391 39.0322 32.3079C37.9136 34.9135 36.7951 37.519 36.2358 40.6456C36.2358 43.7723 36.7951 46.8989 39.0322 48.9834Z" fill="white"/>
<path d="M119.564 72.9518C119.564 73.4729 119.564 73.994 119.005 74.5151C118.446 75.5573 117.327 75.5573 116.768 76.0784C115.649 76.0784 115.09 76.0784 113.972 75.5573C110.616 74.5151 107.26 73.4729 103.905 72.4307C102.227 71.9095 101.108 71.3884 99.4304 70.8673C98.3119 70.3462 97.1933 69.8251 96.6341 68.7829C96.6341 68.7829 110.616 67.7407 112.294 67.7407C113.972 67.7407 117.887 66.1774 119.005 67.2196C120.683 67.7407 119.564 71.3884 119.564 72.9518Z" fill="#BCBCBB"/>
<path d="M115.652 42.2122C113.415 37.0011 112.296 30.7478 113.415 25.0156C115.093 25.0156 116.771 26.0578 117.889 27.1001C119.008 27.6212 119.567 28.6634 120.126 30.2267C121.804 33.8744 122.363 39.6066 122.363 43.7755C121.804 48.4654 116.771 45.3388 115.652 42.2122Z" fill="#BCBCBB"/>
<path d="M66.4335 70.8685C61.4001 63.573 54.6888 57.3197 46.8591 52.6297C45.7405 51.5875 44.0627 51.0664 42.3849 51.0664C41.8257 54.193 43.5035 56.7986 45.7405 59.4041C48.5369 63.573 51.3332 68.2629 53.5703 72.9529C55.2481 76.0796 56.3666 79.2062 58.6037 82.3328C60.2815 84.9384 67.552 92.755 70.9076 87.5439C73.704 83.375 69.2298 75.0373 66.4335 70.8685Z" fill="#BCBCBB"/>
<path d="M72.0262 89.1158C77.0596 87.0314 81.5338 84.4258 84.8894 80.7781C89.3636 76.0881 92.16 70.3559 96.6342 66.1871C98.8713 63.5816 101.668 61.4971 103.905 59.4127C106.142 56.8072 108.379 54.2016 108.379 50.5539C108.379 50.0328 108.379 49.5117 108.379 48.4695C107.82 47.9484 106.701 47.4272 106.142 46.9061C102.786 45.3428 98.8713 45.3428 94.9564 44.8217C80.4153 43.2584 65.8741 42.2162 51.8923 45.8639C49.6552 45.8639 42.9439 47.4272 42.9439 48.9906C43.5032 50.5539 48.5367 54.2016 50.2145 55.765C54.6887 60.4549 59.1629 65.1449 63.0778 70.3559C66.9927 76.0881 70.3483 82.3414 72.0262 89.1158Z" fill="#EB594B"/>
<path d="M25.6079 49.5093C26.1672 45.8616 26.1672 42.2138 26.7264 39.0872C27.2857 33.355 30.0821 28.1439 33.4377 23.454C37.9119 17.7218 44.0639 13.5529 51.3344 10.4263C59.7235 7.29965 68.6719 5.21522 78.1795 6.25744C81.5352 6.77855 84.8908 7.29965 88.2465 8.34187C91.0428 8.86297 93.2799 9.38408 96.0763 10.4263C103.906 13.5529 110.617 17.2007 115.651 23.454C119.006 28.1439 121.803 32.3128 121.803 38.045C121.803 40.6505 122.362 43.256 122.362 45.8616C122.921 45.8616 123.481 46.3827 124.04 46.3827C126.836 46.3827 128.514 47.946 129.073 50.0304C130.192 54.7204 130.192 58.8892 129.633 63.5792C129.633 65.1425 128.514 66.1847 126.836 66.1847C125.158 66.7058 123.481 66.7058 122.362 67.227C122.362 68.7903 122.362 70.3536 121.803 71.9169C121.803 73.4802 121.244 75.5647 121.244 77.128C121.244 83.9024 119.006 90.1557 116.21 95.8878C115.651 96.4089 115.651 96.9301 115.092 97.4512C111.736 101.099 107.262 101.099 102.788 101.62C95.517 100.057 88.2464 102.141 81.5352 102.662C76.5017 102.662 71.4683 103.704 66.4348 103.704C59.7235 104.226 52.453 104.226 45.7417 103.704C41.2675 103.704 37.3526 101.62 35.6748 97.4512C34.5563 94.8456 33.4377 92.7612 32.8784 90.1557C31.2006 84.4235 30.0821 78.1702 28.4043 72.438C27.845 70.3536 27.2857 68.2692 25.0486 67.227C23.3708 66.7058 23.3708 65.6636 23.3708 64.1003C23.3708 61.4948 22.8115 59.4103 22.2523 56.8048C20.5744 54.1993 21.693 51.5937 25.6079 49.5093ZM28.4043 38.5661C27.845 41.6927 27.2857 45.3405 27.2857 48.4671H33.997C33.997 45.3405 33.997 42.7349 33.4377 40.1294C33.4377 39.6083 32.8784 38.5661 32.3192 38.045C31.7599 37.5239 31.2006 37.0028 30.6413 36.4816C28.9635 36.4816 28.9635 37.5239 28.4043 38.5661ZM30.6413 36.4816C31.7599 36.4816 32.3192 37.0027 33.4377 37.0027C33.997 35.9605 33.997 34.9183 34.5563 33.8761C33.4377 33.355 32.3192 32.8339 30.6413 31.7917C29.5228 33.8761 29.5228 34.9183 30.6413 36.4816ZM120.125 34.9183C119.006 32.8339 117.888 30.2284 116.769 28.1439C115.651 26.5806 114.532 25.0173 113.414 23.454C112.854 22.4118 111.736 21.3695 111.177 20.8484C110.058 19.8062 108.94 18.764 107.262 18.2429C107.262 18.2429 107.262 18.2429 106.702 18.2429C106.143 17.7218 105.584 17.7218 105.025 17.2007C103.906 16.1585 102.788 15.6374 101.669 14.5951C98.3134 13.0318 94.3985 11.9896 90.4835 10.4263C85.4501 8.34187 80.4166 7.82076 75.3832 7.82076C72.0275 7.82076 68.1126 7.82076 64.757 8.34187C56.3679 9.90519 47.9788 13.0318 41.2675 18.2429C37.9119 20.8484 32.3192 27.1017 31.2006 31.2706C32.3192 31.7917 33.4377 32.3128 34.5563 33.355C36.2341 31.2706 37.3526 29.1861 39.0304 27.1017C43.5046 20.8484 50.2159 17.2007 57.4865 15.6374C64.1977 14.074 70.909 13.5529 78.1795 14.074C83.7723 14.5951 89.9243 15.1163 94.9577 17.2007C98.3134 18.2429 101.11 19.8062 103.906 21.8906C106.702 25.5384 111.177 29.1861 113.414 33.8761C114.532 36.4816 115.092 39.0872 115.651 41.6927C115.651 42.7349 115.651 43.7771 116.769 44.8194C117.329 45.3405 118.447 45.8616 119.566 45.8616H120.125C121.244 45.3405 121.244 44.2982 121.244 43.256V42.7349C121.244 40.1294 121.244 37.5239 120.125 34.9183ZM124.04 63.0581C124.04 63.5792 124.599 64.1003 125.158 64.1003C125.718 64.1003 126.277 64.1003 126.277 63.5792C126.277 63.0581 126.836 63.0581 126.836 62.537C127.396 58.3681 127.396 54.1993 126.277 50.0304H125.718C125.158 54.1993 124.599 57.847 124.04 62.0159C123.481 62.0159 123.481 62.537 124.04 63.0581ZM119.006 67.7481C116.21 71.3958 113.973 75.0436 111.736 79.2124C113.973 80.2546 115.651 81.2968 117.888 82.3391C118.447 77.128 119.006 72.438 119.006 67.7481ZM113.973 91.1979C115.092 89.1134 115.651 87.5501 116.769 85.4657C117.329 84.4235 117.329 83.3813 115.651 82.8602C113.973 81.8179 112.295 80.7757 110.617 79.7335C108.94 82.3391 107.262 84.4235 105.584 86.5079C108.38 88.0712 111.177 89.6346 113.973 91.1979ZM108.94 79.2124C106.702 77.6491 104.465 76.0858 101.669 75.0436C99.9912 77.6491 98.8726 79.7335 97.1948 81.8179C99.4319 83.3813 101.669 84.4235 104.465 85.9868C106.143 83.9024 107.262 81.8179 108.94 79.2124ZM34.5563 90.1557C36.2341 88.0712 37.9119 85.9868 39.0304 83.3813C36.7934 81.8179 34.5563 79.7335 31.2006 79.2124C32.8784 82.8602 32.3192 86.5079 34.5563 90.1557ZM23.3708 57.3259C23.9301 59.9315 24.4893 63.0581 25.0486 65.6636C26.7264 65.6636 27.2857 65.6636 27.2857 64.1003C27.2857 60.9737 26.7264 58.3681 26.7264 55.2415C26.7264 54.1993 26.7264 53.6782 26.7264 52.636C28.4043 57.3259 26.7264 62.537 28.4043 67.7481C30.0821 65.6636 29.5228 64.1003 29.5228 62.537C29.5228 60.9737 29.5228 59.4104 29.5228 57.847C29.5228 56.2837 29.5228 54.1993 29.5228 52.636C31.2006 57.3259 29.5228 62.0159 30.6413 67.227C31.7599 67.227 33.4377 67.227 34.5563 67.227C37.9119 67.227 41.2675 66.7058 44.6232 66.7058C45.7417 66.7058 46.8603 66.7058 47.4195 67.7481C41.2675 68.2692 35.1155 68.7903 28.4043 69.3114C28.9635 71.9169 29.5228 74.0013 30.0821 76.0858C30.0821 76.6069 30.6413 77.128 30.6413 77.128C33.4377 79.2124 36.2341 80.7757 39.0304 82.8602C40.7083 80.7757 41.8268 78.6913 43.5046 76.0858C40.7083 74.5225 37.9119 72.9591 34.5563 70.8747C36.2341 70.3536 36.2341 70.3536 39.0304 72.438C40.7083 73.4802 41.8268 74.0013 43.5046 75.0436C44.6232 73.4802 45.7417 71.9169 47.4195 70.8747C48.5381 69.8325 49.0974 67.7481 51.8937 67.7481C49.6566 70.8747 47.4195 72.9591 45.1824 76.0858C47.4195 77.6491 49.0974 78.6913 50.7752 80.2546C52.453 78.1702 53.5715 76.6069 55.2494 74.5225C55.2494 74.5225 55.8086 74.5225 56.3679 74.5225C55.2494 76.6069 54.1308 78.6913 52.453 80.7757C55.8086 83.3813 59.7235 85.4657 63.0792 88.0712C63.0792 88.0712 63.0792 88.5923 62.5199 88.5923C58.605 87.029 55.8086 83.9024 51.8937 82.3391C50.2159 84.4235 49.0974 86.5079 48.5381 88.5923C50.7752 90.6768 54.1308 91.1979 55.8086 93.8034C55.8086 93.8034 55.8086 94.3245 55.2494 94.3245C53.5715 93.2823 51.8937 92.2401 50.2159 91.1979C48.5381 90.1557 46.301 89.1134 44.6232 88.0712C42.9454 87.029 40.7083 85.9868 39.0304 84.9446C36.7934 87.029 35.1155 89.6346 33.4377 92.2401C33.4377 92.2401 33.4377 92.2401 33.4377 92.7612C32.8784 94.8456 36.2341 100.578 38.4712 101.62C39.5897 102.141 41.2675 102.662 42.3861 102.662C49.6566 102.662 56.9272 102.141 64.1977 101.62C69.7905 101.099 75.9424 101.099 81.5352 100.578C86.0094 100.057 91.0428 99.0145 95.517 98.4934C99.4319 97.9723 102.788 97.4512 106.702 97.4512C109.499 97.4512 110.058 96.9301 111.177 93.8034C108.94 91.719 106.143 90.6768 103.347 89.1134C102.788 89.1134 101.669 89.6346 101.11 90.1557C99.9912 91.1979 99.4319 92.2401 98.3134 93.2823C97.7541 93.8034 97.1948 93.8034 96.6355 93.2823C98.3134 91.1979 99.4319 89.6346 101.11 87.5501C97.7541 85.9868 94.9577 84.4235 91.0428 82.3391C95.517 81.2968 95.517 77.6491 97.1948 75.5647C99.4319 73.4802 98.8726 72.9591 98.3134 71.9169C99.4319 72.438 99.9912 72.438 101.11 72.438C102.788 70.8747 103.906 69.3114 105.584 68.2692C105.584 68.2692 106.143 68.2692 106.143 68.7903C106.143 69.8325 105.025 70.3536 104.465 71.3958C103.906 72.438 103.347 72.9591 102.788 74.0013C104.465 75.5647 107.262 76.6069 110.058 77.6491C112.854 74.5224 114.532 71.3958 117.329 67.7481C112.295 66.7058 107.821 67.227 102.228 67.227C102.788 66.1847 102.788 65.6636 103.347 65.6636C103.906 65.1425 104.465 65.1425 105.025 65.1425C108.38 65.1425 112.295 64.6214 115.651 64.6214C118.447 64.6214 119.006 64.1003 119.566 62.0159C120.125 58.8892 120.684 55.7626 120.684 52.1149C120.684 51.0726 120.684 50.0304 121.244 48.9882C122.362 54.1993 120.684 58.8892 120.125 63.5792C121.803 64.6214 122.362 64.1003 122.362 62.537C122.362 60.9737 122.921 59.4104 122.921 57.847C123.481 54.7204 123.481 51.0726 124.04 47.4249C122.921 47.4249 121.803 46.9038 120.684 46.9038C117.888 46.9038 115.651 46.9038 112.854 46.3827C110.617 46.9038 110.058 47.4249 110.058 50.0304C109.499 52.636 108.38 54.7204 106.702 56.2837C103.906 59.4104 101.11 62.0159 98.3134 64.6214C98.3134 64.6214 97.7541 65.1425 97.7541 65.6636C98.3134 66.1847 98.8726 66.1847 99.4319 66.7058C96.0763 66.7058 94.9577 69.3114 92.7206 71.3958C88.8057 76.0858 85.4501 80.7757 80.9759 84.4235C78.1795 87.029 74.2646 89.1134 70.909 90.6768C70.3497 90.6768 70.3497 90.6768 69.7905 90.6768C69.7905 90.1557 69.2312 90.1557 69.2312 90.1557C70.909 88.0712 70.3497 85.9868 69.7905 83.3813C67.5534 78.1702 65.3163 72.9591 61.9606 68.7903C61.4014 68.2692 60.8421 67.7481 60.8421 67.227C59.1643 63.5792 55.8086 60.9737 52.453 58.3681C49.6566 56.2837 47.4195 54.7204 44.6232 52.636C44.0639 52.1149 42.9454 51.5937 41.8268 50.5515C45.7417 51.0726 59.1643 62.0159 61.4014 65.6636C65.8755 72.438 70.3497 78.6913 72.5868 86.5079C77.061 85.9868 84.3315 78.6913 88.2465 70.8747C87.1279 69.8325 86.0094 68.7903 84.8908 67.7481C83.7723 66.7058 82.6537 65.6636 81.5352 64.6214C81.5352 64.6214 81.5352 64.6214 82.0945 64.1003C84.3315 66.1847 86.5686 67.7481 89.365 69.8325C89.9243 68.7903 90.4835 68.2692 91.6021 67.7481C88.8057 65.6636 86.5686 63.5792 84.3315 60.9737C84.3315 60.9737 84.3315 60.4526 84.8908 60.4526C87.1279 62.537 89.9243 64.6214 92.1614 66.7058C97.7541 62.0159 102.788 56.8048 106.702 51.0726C107.821 50.0304 107.262 48.9882 105.584 48.4671C103.906 47.946 101.669 47.4249 99.9912 46.9038C98.8726 46.9038 98.3134 46.9038 97.1948 46.9038C88.8057 44.2982 79.8574 44.2982 70.909 44.8194C64.757 45.3405 58.605 45.3405 52.453 46.9038C50.7752 47.4249 48.5381 47.946 46.8603 48.4671C46.301 47.4249 46.301 46.9038 47.9788 46.3827C53.0123 45.3405 58.0457 44.2982 63.0792 43.7771C66.4348 43.256 69.2312 43.256 72.5868 43.256C80.4166 43.256 87.6872 43.256 95.517 44.8194C97.7541 45.3405 100.55 45.3405 103.906 45.3405C104.465 45.3405 105.025 45.3405 105.584 45.3405C107.821 46.9038 110.617 45.3405 113.973 45.8616C113.973 42.7349 113.414 39.6083 112.295 37.0027C110.058 32.3128 106.702 27.6228 102.228 24.4962C99.4319 22.4118 96.6355 20.3273 92.7206 19.2851C84.8908 17.2007 76.5017 15.6374 68.1126 16.1585C61.9606 16.6796 56.3679 17.2007 50.7752 19.8062C46.8603 21.8906 43.5046 24.4962 40.7083 28.1439C36.7934 33.355 35.1155 39.6083 35.1155 45.8616C35.1155 46.3827 35.1155 46.9038 35.1155 47.4249C35.1155 47.4249 35.1155 47.946 35.6748 47.946C37.9119 48.4671 40.149 47.4249 42.3861 48.4671C41.8268 48.4671 41.2675 48.9882 40.7083 48.9882C37.3526 48.9882 33.4377 49.5093 30.0821 49.5093C28.9635 49.5093 28.4043 49.5093 27.2857 50.0304C23.9301 51.5937 22.8115 53.6782 23.3708 57.3259ZM41.2675 83.9024C44.0639 85.4657 46.301 87.029 49.0974 88.5923C50.2159 85.9868 51.3344 83.9024 52.453 81.2968C50.2159 79.7335 48.5381 78.6913 46.301 77.128C44.6232 79.2124 42.9454 81.2968 41.2675 83.9024Z" fill="#020203"/>
<path d="M20.0117 35.4375C18.8932 35.4375 18.3339 35.4375 17.7747 35.4375C12.182 38.5641 6.03005 40.6486 0.996655 44.2963C1.55592 45.3385 2.67445 45.3385 3.23372 44.8174C8.26712 42.2119 13.3005 39.6064 18.3339 37.0008C18.8932 36.4797 18.8932 36.4797 20.0117 35.4375Z" fill="#EB594B"/>
<path d="M1.55685 19.2812C2.6754 19.8024 2.67539 20.8446 3.23467 20.8446C9.38669 20.8446 15.5387 22.4079 21.6907 24.4923H22.25C20.5722 21.8868 8.26814 19.2812 1.55685 19.2812Z" fill="#EB594B"/>
<path d="M28.4023 13.5488C25.606 8.85882 21.6911 4.68996 17.7762 0C17.2169 0.521107 17.2169 1.04221 17.2169 1.04221C20.5725 5.21107 23.9282 9.37992 27.2838 13.5488C26.7245 14.0699 27.2838 14.0699 28.4023 13.5488C27.8431 14.0699 27.8431 13.5488 28.4023 13.5488Z" fill="#EB594B"/>
</svg>
