<svg width="118" height="92" viewBox="0 0 118 92" fill="none" xmlns="http://www.w3.org/2000/svg">
<path d="M23.4999 28.2504C23.1719 31.8401 22.8529 35.56 23.9851 38.9745C26.0383 45.1655 32.364 49.0337 34.6418 55.1393C35.5179 57.48 35.738 60.0139 35.9492 62.5118C36.5063 69.0083 37.0589 75.5047 37.616 82.0012C37.7328 83.3445 37.7553 84.9214 36.7309 85.7705C35.9582 86.4085 34.5475 87.0285 35.0596 87.9001C35.2304 88.1921 35.5763 88.3134 35.8953 88.4033C37.7463 88.9244 39.7051 89.0547 41.6055 88.7717C44.6651 78.1105 39.2334 65.6567 44.5393 55.9569C55.2319 57.2239 65.4932 51.936 76.0197 49.6447C77.2641 49.3751 78.5715 49.146 79.789 49.5054C82.3409 50.2602 83.527 53.1445 84.7355 55.5571C87.0762 60.243 90.6659 64.2235 94.8666 67.2651C98.3889 69.8169 102.464 71.8476 104.926 75.4688C106.646 77.9982 107.415 81.1835 107.046 84.2385C106.956 84.9888 106.786 85.7616 106.318 86.3456C105.793 86.9971 104.98 87.3205 104.328 87.8372C103.677 88.3539 103.169 89.3018 103.596 90.0251C106.22 90.4879 108.893 90.6676 111.557 90.5598C111.786 86.3276 112.02 82.0955 112.249 77.8634C112.294 77.0412 112.334 76.1831 112.011 75.4238C111.485 74.1928 110.173 73.5684 109.028 72.9079C102.495 69.152 98.8157 60.8315 100.384 53.3422C103.259 54.8023 105.806 56.9274 107.779 59.5152C108.834 60.8944 109.751 62.4354 111.144 63.4598C112.536 64.4841 114.603 64.83 115.906 63.6889C116.382 62.0041 115.358 60.2115 114.006 59.1243C112.653 58.0371 111 57.4306 109.531 56.523C104.724 53.5399 102.446 47.7398 100.712 42.2722C100.146 40.493 99.5794 38.66 98.4203 37.2134C97.4903 36.0542 96.2368 35.2186 94.9519 34.4953C80.8942 26.5656 63.3457 30.7079 47.7201 26.9116C45.8062 26.4488 43.8788 25.8378 42.3109 24.6293C40.2577 23.0479 39.0357 20.6173 37.8811 18.2721C36.1693 14.7948 34.4576 11.3174 32.7459 7.84004C31.753 5.82731 30.7017 3.73371 28.9271 2.39488C26.2809 0.400116 22.6957 0.521419 19.4115 0.728084C17.4887 0.849387 15.413 1.03359 13.9574 2.32749C12.4164 3.71124 11.9491 6.02948 10.4306 7.44468C7.82933 9.87074 3.29619 8.68916 0.62752 11.0388C0.173756 15.3518 3.49836 19.3459 7.44296 20.9498C11.3876 22.5537 15.7994 22.2976 20.027 21.8618C22.5834 24.8584 22.2285 24.6832 23.4774 28.4526L23.4999 28.2504Z" fill="white"/>
<path d="M26.6936 17.2614C28.1358 17.9308 29.8116 17.2614 31.2268 16.5336C32.2332 16.0169 33.2665 15.4239 33.846 14.44C34.4615 13.3977 34.4481 12.1038 34.4211 10.8862C34.3986 9.84392 34.1291 8.49611 33.1182 8.34785C32.5701 8.26698 32.04 8.6264 31.7075 9.08016C31.3795 9.53392 31.1953 10.0775 30.9482 10.5852C29.9284 12.6833 28.3559 12.9933 26.5319 13.9592C25.0089 14.7724 24.4473 16.2191 26.6936 17.2614Z" fill="#BCBCBB"/>
<path d="M43.0119 87.2074C43.0524 88.061 43.0838 89.0404 42.4818 89.6334C42.0191 90.0872 41.3182 90.1636 40.6757 90.195C39.9299 90.231 39.1168 90.222 38.5192 89.7637C37.7555 89.1752 37.6162 88.0206 37.9172 87.0906C38.2137 86.1651 38.8517 85.3968 39.4402 84.6286C41.2059 82.3013 42.6121 79.6282 43.1243 76.7304C43.6814 73.59 42.9176 70.5215 43.1243 67.3945C43.4073 63.104 44.8719 66.8958 44.7237 69.2096C44.3418 75.2163 42.7334 81.1422 43.0119 87.2074Z" fill="#BCBCBB"/>
<path d="M112.021 74.8839C111.59 79.3811 112.713 83.8873 112.664 88.407C112.664 88.5867 112.659 88.7709 112.592 88.9416C112.453 89.2965 112.075 89.4897 111.716 89.5796C110.961 89.7728 110.112 89.647 109.488 89.1707C108.863 88.6945 108.499 87.8544 108.652 87.0726C108.724 86.7087 108.895 86.3763 109.056 86.0483C110.224 83.6267 110.817 80.9221 110.777 78.2265C110.746 76.3485 110.498 74.201 111.77 72.8442L112.021 74.8839Z" fill="#BCBCBB"/>
<path d="M49.9081 33.8443C52.9317 35.0394 56.1934 35.4168 59.4147 35.7852C65.0306 36.4232 70.7004 37.0656 76.3253 36.495C78.6166 36.2614 80.9303 35.8166 82.9475 34.68C83.4911 34.3745 84.0437 33.9836 84.2864 33.3996C84.7356 32.3258 83.9179 31.0634 82.8622 30.6141C81.8064 30.1693 80.6158 30.3041 79.4836 30.4299C71.554 31.2925 63.5076 31.0005 55.6543 29.5898C53.4394 29.1899 46.7902 26.328 45.0425 27.7882C42.1358 30.2097 48.3357 33.2244 49.9081 33.8443Z" fill="#BCBCBB"/>
<path d="M82.6426 45.7361C82.6381 46.8817 82.6381 48.0319 82.6336 49.182C82.6336 49.4066 82.6246 49.6537 82.4898 49.8289C82.2966 50.085 81.9327 50.0985 81.6182 50.0895C77.0222 49.9368 72.1476 49.0517 68.0143 51.1094C67.1023 51.5631 65.9567 52.1337 65.1794 51.4688C64.5415 50.9207 64.6717 49.811 65.2333 49.182C65.7949 48.553 66.6395 48.2834 67.4437 48.0633C69.5014 47.4972 71.604 47.0479 73.5763 46.2078C74.8971 45.6417 76.1596 44.9049 77.5389 44.5186C78.7564 44.1771 80.0368 44.1232 81.2993 44.1277C81.7665 44.1277 82.2607 44.1457 82.665 44.3928C83.6579 45.0038 83.4917 46.4953 83.1997 47.6365L82.6426 45.7361Z" fill="#BCBCBB"/>
<path d="M110.131 62.9741C111.501 63.7199 113.19 64.0075 114.615 63.374C114.722 63.3246 114.83 63.2707 114.902 63.1808C114.987 63.0775 115.019 62.9427 115.032 62.8079C115.131 61.9857 114.713 61.1771 114.138 60.5975C113.563 60.0179 112.835 59.6226 112.139 59.2003C109.578 57.6503 107.467 55.6555 105.355 53.5439C104.479 52.6679 101.689 49.8824 101.145 52.1916C100.485 54.9951 108.199 61.9228 110.131 62.9741Z" fill="#BCBCBB"/>
<path d="M22.3002 22.9075L29.5963 19.4076L36.1467 15.0767L37.8854 18.28L31.5327 23.3567L25.454 26.6049L20.8984 27.5844L21.0647 23.2489L22.3002 22.9075Z" fill="#EB584A"/>
<path d="M19.1328 5.62939C19.2272 6.14606 19.2002 6.6717 19.4159 7.05358C19.7753 7.69155 19.7932 8.32951 19.7393 9.00342C19.6764 9.80761 19.6315 10.6163 19.5327 11.4205C19.4473 12.1214 19.5282 12.7953 19.9235 13.3569C20.5884 14.3048 21.2758 15.2393 22.0351 16.1019C22.4709 16.5916 23.0774 17.0094 23.8007 16.7578C24.4207 16.5422 25.0722 16.3175 25.5933 15.9267C27.5432 14.4621 29.2953 12.7638 30.8767 10.8948C31.2092 10.4995 31.4878 10.0053 31.645 9.51109C31.955 8.51821 31.4069 7.38155 30.2837 6.77953C30.423 7.28271 30.4724 7.66908 30.6297 8.00154C31.0969 9.00342 30.7869 9.8795 30.1624 10.6163C29.3582 11.5643 28.4776 12.4538 27.5746 13.3029C26.9007 13.9364 26.1414 14.4845 25.4001 15.0461C24.4926 15.729 23.0505 15.7515 22.4934 15.0551C21.9408 14.3587 21.5364 13.568 21.6173 12.647C22.125 12.3101 22.5787 12.0135 23.2391 11.5777C22.1923 11.6272 21.4915 12.7638 20.6693 11.8024C20.7906 11.3441 20.9389 10.9892 20.9613 10.6253C20.9838 10.2434 20.858 9.85703 20.8445 9.47066C20.8176 8.7069 20.8715 7.93865 20.8086 7.18387C20.7322 6.33026 20.22 5.85852 19.1328 5.62939Z" fill="black"/>
<path d="M13.0926 8.57536C13.1151 9.29419 13.5104 9.93665 14.0675 10.0535C14.5617 10.1568 15.1053 9.76592 15.4782 9.0381C15.5411 8.9168 15.586 8.79101 15.6355 8.66521C15.8421 8.09014 15.9365 7.47913 15.4872 7.02088C15.0065 6.52668 14.4853 7.00291 14.0271 7.17363C13.479 7.38029 13.0252 7.75768 13.0926 8.57536Z" fill="black"/>
<path d="M24.2315 2.42979C22.996 2.295 21.3292 2.83862 20.7227 3.55746C22.1558 3.75064 23.1487 2.93297 24.2315 2.42979Z" fill="black"/>
<path d="M14.7344 4.92356C14.8557 5.12124 14.9635 5.48066 15.0983 5.48965C15.6734 5.53907 16.2619 5.48965 16.8459 5.47617C16.8549 5.35487 16.8639 5.23356 16.8729 5.11675C16.3383 4.97748 15.8126 4.81125 15.269 4.71241C15.1073 4.68096 14.9141 4.84719 14.7344 4.92356Z" fill="black"/>
<path d="M8.60751 13.7835C8.58056 13.8329 8.82766 14.1249 8.89505 14.1024C9.07026 14.053 9.24548 13.9137 9.34881 13.761C9.38475 13.7116 9.20504 13.5049 9.06128 13.2803C8.85911 13.4959 8.68838 13.6172 8.60751 13.7835Z" fill="black"/>
<path d="M6.59068 13.5319C6.40648 13.6443 6.26271 13.833 6.10547 13.9902C6.22677 14.0801 6.36605 14.2598 6.46489 14.2373C6.6401 14.2014 6.78836 14.0396 7.02647 13.8779C6.8243 13.7117 6.6401 13.5005 6.59068 13.5319Z" fill="black"/>
<path d="M7.33386 16.3291C7.2485 16.2528 7.16763 16.1764 7.02387 16.0371C6.89807 16.1809 6.79474 16.2932 6.69141 16.41C6.78126 16.4819 6.89807 16.6346 6.95198 16.6167C7.09575 16.5628 7.20807 16.4325 7.33386 16.3291Z" fill="black"/>
<path d="M116.72 62.0392C115.511 60.9745 114.276 59.9591 112.946 59.0336C110.232 57.1467 107.923 54.7835 106.27 51.8588C104.854 49.3608 103.57 46.782 102.249 44.2257C100.928 41.6693 99.598 39.1219 98.3355 36.5341C97.3337 34.4855 95.5231 33.8116 93.5328 33.3623C93.0925 33.2634 92.6298 33.1691 92.2479 32.94C89.7005 31.4214 86.9465 30.7655 84.0128 30.6936C82.0764 30.6442 80.1446 30.4016 78.2037 30.2803C77.067 30.2129 75.9259 30.1994 74.7848 30.2039C74.605 30.2039 74.4298 30.4151 74.003 30.6801C74.5601 30.779 74.8252 30.8554 75.0947 30.8643C76.191 30.9003 77.2917 30.8733 78.3879 30.9542C80.5354 31.1159 82.6784 31.381 84.826 31.5248C87.6564 31.718 90.3205 32.4008 92.7376 33.9868C93.0701 34.2069 93.5104 34.2653 93.9102 34.3507C95.4961 34.6921 96.8844 35.3256 97.6751 36.8936C99.3194 40.1553 100.964 43.4125 102.608 46.6742C104.266 49.9673 105.825 53.3099 108.476 55.9741C110.493 58.0003 112.555 59.9546 114.815 61.6933C115.367 62.1201 116.001 62.466 116.284 63.1894C115.489 63.6881 114.743 63.6476 114.011 63.3466C111.71 62.3987 109.419 61.4192 106.876 60.35C107.806 59.5907 107.384 59.101 106.984 58.6293C105.43 56.8097 103.817 55.0351 102.321 53.1661C101.498 52.1373 100.816 50.9827 100.164 49.8236C99.7462 49.0823 99.5171 48.2376 99.1847 47.4469C98.996 46.9977 98.7578 46.5888 98.021 46.9617C98.2951 47.6536 98.6186 48.3005 98.8118 48.9834C99.1218 50.0976 99.5081 51.2253 99.5845 52.3664C99.8271 56.1358 100.357 59.8288 101.737 63.3646C101.835 63.6207 101.939 64.0205 101.817 64.2002C101.467 64.7259 101.678 65.0763 101.993 65.4717C102.231 65.7727 102.424 66.1096 102.649 66.4241C104.863 69.5645 107.236 72.5342 110.875 74.0707C111.405 74.2953 111.517 74.6727 111.526 75.1894C111.54 76.2227 111.585 77.2605 111.62 78.2939C111.71 81.2276 111.8 84.1568 111.89 87.0906C111.921 88.1598 111.62 89.0629 110.623 89.5706C108.705 90.5455 106.71 90.5994 104.711 89.903C103.619 89.5211 103.511 88.6136 104.405 87.8364C104.625 87.6432 104.886 87.4725 105.16 87.3646C105.825 87.0996 106.508 86.8749 107.182 86.6323C107.766 86.4212 107.986 86.0258 107.613 85.7203C106.84 85.0913 107.011 84.2377 106.971 83.4605C106.867 81.6095 106.863 79.7495 106.809 77.894C106.8 77.5615 106.75 77.2291 106.723 76.9281C106.31 76.7169 105.937 76.5956 105.645 76.3665C102.95 74.219 100.155 72.1838 97.6077 69.8655C94.5796 67.116 91.7627 64.1328 88.8649 61.235C88.191 60.5611 88.2045 60.3365 88.8514 59.6087C89.4175 58.9707 90.024 58.3687 90.6036 57.7352C90.8147 57.5061 90.99 57.241 91.1831 56.9939C91.1337 56.949 91.0798 56.8996 91.0304 56.8547C89.9611 57.8431 88.8874 58.8359 87.8495 59.7929C87.1622 59.3975 87.2475 58.9752 87.58 58.5439C88.2359 57.6993 88.9143 56.8726 89.5703 56.0235C89.7005 55.8573 89.7724 55.6461 89.8713 55.4529C89.7994 55.399 89.7275 55.3451 89.6511 55.2912C88.7436 56.3784 87.8361 57.4657 86.8746 58.6203C84.3048 55.4889 83.6354 51.7644 82.8671 47.9905C81.9866 48.651 82.5122 49.4147 82.4853 50.0617C82.3864 50.1201 82.319 50.192 82.2426 50.201C82.036 50.2234 81.8203 50.2369 81.6137 50.2144C78.4104 49.9044 75.2116 49.6708 72.0307 50.3986C71.7836 50.4525 71.523 50.4346 71.2715 50.4705C68.9308 50.812 66.5676 51.0636 64.3392 51.9396C61.8952 52.9011 59.4736 53.9119 57.0386 54.8913C56.7331 55.0126 56.3647 55.2058 56.0816 55.1295C54.7787 54.7835 53.5792 55.2103 52.3482 55.5023C51.1621 55.7854 49.958 56.0325 48.7495 56.1942C47.1726 56.4099 45.5777 56.5267 44.0097 56.6839C43.8075 57.4387 44.0232 57.7217 44.742 57.6274C47.7881 57.2231 50.9195 57.4207 53.7993 56.2302C54.8012 57.25 54.8416 57.2455 56.0502 56.7019C57.8697 55.8887 59.6803 55.0576 61.5223 54.3028C62.9689 53.7098 64.4246 53.0987 65.9296 52.7124C67.8076 52.2272 69.7349 51.9172 71.6578 51.6206C73.9536 51.2657 76.2539 50.8614 78.5946 51.1714C79.2325 51.2567 79.8166 51.1714 80.4411 50.9602C81.1329 50.7311 81.9057 50.7625 82.6784 50.6727C82.8402 51.3376 82.966 51.8318 83.0783 52.3305C83.7163 55.1609 84.9607 57.6948 86.7938 59.8917C88.1595 61.5316 89.6511 63.0636 91.1113 64.6225C94.6785 68.4369 98.4928 71.9636 102.662 75.0906C103.61 75.8004 104.486 76.6136 105.407 77.3639C105.843 77.7188 105.982 78.1546 106.005 78.7117C106.081 80.7379 106.211 82.7641 106.31 84.7858C106.328 85.1183 106.301 85.4507 106.297 85.5945C105.281 86.2235 104.338 86.6638 103.579 87.3152C102.41 88.3216 102.541 89.7278 103.826 90.3927C106.18 91.6147 109.931 91.5204 112.065 89.5346C112.51 89.1213 112.717 88.681 112.694 88.07C112.609 85.8281 112.537 83.5908 112.488 81.3489C112.434 78.9767 112.425 76.6001 112.375 74.228C112.366 73.6978 112.528 73.0958 111.877 72.6375C111.373 73.4777 110.758 73.1003 110.169 72.7768C109.689 72.5117 109.221 72.2107 108.777 71.8828C106.422 70.1351 104.67 67.8214 102.945 65.3908C103.426 64.8831 103.426 64.3799 103.075 63.7734C101.656 61.3474 101.287 58.5888 100.807 55.8752C100.726 55.408 100.775 54.9183 100.762 54.4151C102.437 56.046 104.014 57.5825 105.605 59.1325C105.03 59.9906 105.057 60.1748 105.951 60.7319C106.238 60.9116 106.548 61.0553 106.858 61.1901C107.514 61.4821 108.237 61.6618 108.826 62.0527C110.448 63.1265 112.231 63.7779 114.06 64.3081C115.399 64.6944 116.616 64.335 117.735 63.2343C117.353 62.803 117.084 62.3627 116.72 62.0392Z" fill="black"/>
<path d="M43.6809 62.4127C43.636 58.9219 43.5416 55.4311 43.4697 51.9402C43.4607 51.5583 43.4877 51.1585 42.9531 50.9788C42.8767 51.1226 42.7464 51.2573 42.7419 51.3966C42.679 52.7759 42.5936 54.1551 42.5981 55.5299C42.6161 59.497 42.706 63.464 42.715 67.4311C42.7239 72.3057 42.688 77.1848 42.6431 82.0593C42.6296 83.6543 42.5622 85.2537 42.4723 86.8486C42.4409 87.3787 42.4858 88.0796 41.776 88.2188C40.837 88.3986 39.88 88.4659 38.7254 88.6097C39.0893 87.9493 39.3499 87.4731 39.6599 86.9115C38.4918 87.2664 38.5053 88.9871 36.8924 88.8928C37.5034 87.792 38.0246 86.8576 38.5457 85.9231C38.4648 85.8692 38.3795 85.8197 38.2986 85.7658C37.6607 86.7273 37.0227 87.6842 36.3757 88.6636C35.5805 87.8684 35.5042 87.4461 35.931 86.6689C36.3667 85.8781 37.0631 85.4154 37.8493 85.047C38.8512 84.5753 38.8422 84.5438 38.7344 83.3757C38.3211 78.9055 37.9347 74.4352 37.5079 69.9695C37.2563 67.3502 36.9463 64.74 36.6498 62.1252C36.4252 60.1529 36.1825 58.1851 35.9355 56.2173C35.8905 55.8399 35.8097 55.4715 35.7288 55.0177C35.3424 55.0761 35.0324 55.1256 34.5876 55.1929C33.3836 53.3959 32.1481 51.5988 30.953 49.7658C30.3735 48.8807 30.4049 48.8492 31.0698 47.9597C31.4517 47.4475 31.8651 46.9578 32.2649 46.4591C32.202 46.4007 32.1346 46.3468 32.0717 46.2884C31.3978 46.9578 30.7284 47.6227 30.068 48.2787C29.5333 47.8114 29.8883 47.5059 30.0859 47.2049C30.5757 46.4546 31.0788 45.7133 31.582 44.972C31.5056 44.9136 31.4293 44.8552 31.3529 44.7968C30.7014 45.6055 30.05 46.4097 29.3896 47.2319C29.2144 47.0746 29.0931 47.0072 29.0347 46.9039C27.6868 44.5947 26.5008 42.2315 26.4244 39.446C26.4109 38.9743 26.2312 38.2824 25.9032 38.0937C25.2338 37.7028 25.1395 37.1412 25.0182 36.5078C24.6498 34.6029 24.2679 32.7024 23.8725 30.8065C23.6838 29.899 23.4502 28.996 23.2436 28.1199C29.3806 27.2393 34.0485 23.9282 38.038 19.3591C40.6393 22.6163 43.4742 25.4332 46.5742 27.8818C47.0369 27.7829 47.4727 27.7425 47.8636 27.8593C48.7936 28.1334 49.6876 28.5377 50.6221 28.7938C53.484 29.5755 56.3548 30.2719 59.3604 30.0967C60.3668 30.0383 61.3821 30.1326 62.3975 30.1506C65.6053 30.209 68.8176 30.492 72.0209 30.0652C72.2725 30.0293 72.5151 29.9305 72.7622 29.8631C72.7532 29.7777 72.7487 29.6878 72.7397 29.6025C72.2949 29.5665 71.8502 29.4992 71.4009 29.4992C69.8374 29.4947 68.274 29.5486 66.7105 29.5171C63.7543 29.4587 60.7981 29.3778 57.8464 29.2565C56.6289 29.2071 55.4024 29.0813 54.2028 28.8702C53.2099 28.695 52.2575 28.2726 51.2646 28.0884C49.8269 27.8234 48.4881 27.3741 47.2795 26.516C47.0145 26.3318 46.5742 26.0937 46.3675 26.197C45.7296 26.516 45.4016 26.0982 45.0601 25.7522C43.4922 24.1798 41.8883 22.6433 40.4147 20.9855C39.5745 20.042 38.4469 19.13 38.8332 17.5485L38.7928 17.4272C38.1908 16.0435 37.2069 14.9518 36.4027 13.9274C36.3533 13.9634 36.2994 13.9948 36.2499 14.0308C35.4233 12.1124 34.39 9.5021 33.3117 7.15242C32.7322 5.88997 32.1391 4.70389 31.5506 3.73796C31.2585 3.25275 30.9665 2.82594 30.6745 2.46203C30.3825 2.10261 30.0859 1.8061 29.7715 1.59943C29.713 1.56349 29.6502 1.54103 29.5828 1.53653C29.5648 1.51407 29.5423 1.4961 29.5199 1.47364C29.0302 0.939003 28.5 0.620021 27.871 0.453791C27.1118 0.251619 26.3211 0.0898812 25.5393 0.0494468C22.0395 -0.134754 18.5891 0.184228 15.2106 1.19958C14.2177 1.50059 13.5483 2.19247 13.0541 3.06405C12.8205 3.47738 12.9283 3.85028 13.4764 3.91318C13.9886 3.4055 14.4019 2.69116 14.9994 2.45305C16.3428 1.91841 17.7535 1.47813 19.1732 1.26248C20.9478 0.988423 22.7628 0.992916 24.5599 0.853642C25.9706 0.745817 27.2645 1.11422 28.4596 1.82856C28.8639 2.07117 29.2413 2.34073 29.6052 2.63275C29.722 2.74507 29.8478 2.88435 29.9736 3.04159C30.4229 3.59419 30.9171 4.39839 31.4158 5.34186C32.8624 8.07342 34.363 11.9416 35.4817 14.5339C33.3746 15.9312 31.3169 17.1981 29.4435 18.7032C27.2331 20.4733 24.4925 21.2371 22.2776 22.8994C22.7898 24.7009 22.8617 25.7388 22.5112 26.5969C21.7744 25.7253 22.1114 24.3909 21.3746 23.5418C21.4824 23.416 21.5228 23.2363 21.4555 23.0701C21.2353 22.531 21.1949 22.3018 21.1634 22.0278C21.132 21.7492 21.123 21.3898 20.9972 20.7653C20.9568 20.5766 20.8085 20.4329 20.6198 20.4104C20.5255 20.3969 20.4356 20.3924 20.3413 20.3924C19.7033 20.3924 19.0878 20.6755 18.661 21.1652C17.3761 21.8615 15.9788 22.1446 14.5232 22.1491C12.3263 22.1491 10.1293 22.1131 7.9369 22.0457C7.33038 22.0278 6.69691 21.902 6.13083 21.6818C5.61866 21.4797 5.0975 21.1562 4.72461 20.7518C3.56549 19.4939 3.14318 17.7956 2.25362 16.4928C2.89608 15.2797 3.45317 14.2105 4.03273 13.1502C4.51345 12.2651 4.83693 11.3666 4.49099 10.3422C4.47302 10.2883 4.56287 10.194 4.63476 10.0592C5.87025 9.74022 7.15067 9.43022 8.41761 9.0708C9.34761 8.80573 10.2776 8.51371 11.1716 8.14081C12.4071 7.62865 13.3776 5.82707 13.2428 4.43882C13.2383 4.40737 13.1799 4.38042 13.0676 4.28607C12.9283 4.38042 12.7082 4.45679 12.6228 4.61404C12.4116 5.0049 12.2319 5.42273 12.0971 5.84953C11.7827 6.84242 11.0998 7.40401 10.1518 7.68256C9.18138 7.97009 8.21544 8.28009 7.23603 8.54066C5.57822 8.98095 3.90694 9.35834 2.25811 9.8121C0.726099 10.2344 0.133062 10.9667 0.0162511 12.5751C-0.0241833 13.1502 0.00726579 13.7567 0.151032 14.3093C0.824939 16.8612 2.06493 19.121 3.64187 21.2056C4.21244 21.9604 4.92229 22.4546 5.83431 22.5759C6.92154 22.7197 8.01777 22.7646 9.105 22.9083C11.5625 23.2273 14.02 23.1195 16.4685 22.8679C17.43 22.7691 18.369 22.522 19.2001 21.9649C19.3933 21.8391 19.5281 21.6998 19.6 21.5426C19.7752 21.4302 19.9774 21.3539 20.184 21.3314C20.2379 21.6684 20.2469 21.8885 20.2694 22.1446C20.3053 22.4815 20.3817 22.8544 20.6243 23.4385C20.6827 23.5778 20.804 23.6676 20.9388 23.6991C20.6917 25.0064 20.8265 26.2914 20.8669 27.5942C21.3701 27.729 21.7699 27.8324 22.2282 27.9537C23.4907 31.4041 23.9983 35.0387 24.6857 38.6283C24.8519 39.4909 24.7846 39.5044 25.6247 39.8593C25.7864 42.2944 26.7703 44.4823 28.0013 46.4681C30.0365 49.7388 32.2874 52.8702 34.5292 56.0016C35.0324 56.7025 35.3155 57.3809 35.4053 58.2165C35.594 60.0181 35.6614 61.8511 36.0657 63.6033C36.816 66.865 36.7936 70.1986 37.1844 73.4873C37.5438 76.5288 37.764 79.5883 38.0605 82.6344C38.1818 83.8744 38.1818 83.9283 37.0541 84.5393C36.0073 85.1054 35.1627 85.8557 34.8527 87.0732C34.4618 88.5962 35.1582 89.7194 36.6498 90.0698C38.6715 90.5416 40.5764 90.0653 42.4903 89.4319C43.1328 89.2207 43.4068 88.9242 43.4428 88.2862C43.5326 86.6913 43.6989 85.1009 43.7213 83.506C43.7662 80.5318 43.7393 77.5576 43.7258 74.579C43.7393 70.5221 43.7303 66.4651 43.6809 62.4127ZM23.2391 23.2139C23.3334 23.2049 23.4278 23.1959 23.5221 23.1824C23.7018 24.0854 23.877 24.9885 24.0567 25.8915C24.1511 25.8825 24.2454 25.8735 24.3353 25.8645C24.2634 25.2356 24.2364 24.6021 24.1151 23.9866C23.9489 23.1465 24.187 22.5624 24.9688 22.212C25.2383 22.0907 25.4764 21.866 25.755 21.7986C27.2915 21.4213 28.4102 20.379 29.6007 19.413C30.4543 18.7211 31.4652 18.2359 32.3862 17.6294C33.6576 16.7938 34.9066 15.9267 36.1466 15.082H36.1511C36.2185 15.1 36.2679 15.1 36.2949 15.127C38.3031 17.0993 38.1818 17.2026 36.4611 19.1479C35.0189 20.7878 33.3746 22.1985 31.5326 23.3576C31.2855 23.5149 31.0204 23.6496 30.7599 23.7799C29.5828 24.3595 28.3877 24.8986 27.2376 25.5186C26.0695 26.1476 24.8699 26.6193 23.4098 26.6598C23.0459 25.4288 23.0459 24.3235 23.2391 23.2139Z" fill="black"/>
<path d="M59.0863 49.3683C59.0503 49.6244 59.0908 49.894 59.0998 50.159C59.4232 49.9883 59.567 49.7862 59.6074 49.566C59.859 48.1239 60.1735 46.6862 60.3038 45.235C60.4925 43.1145 60.3218 41.0164 59.4637 39.0261C59.284 38.6128 59.2031 38.1186 58.6101 38.2084C58.5561 38.3208 58.5157 38.3612 58.5247 38.3882C58.5741 38.5499 58.6235 38.7116 58.6864 38.8644C59.5086 40.7918 59.9713 42.791 59.7332 44.8981C59.5625 46.3942 59.2929 47.8768 59.0863 49.3683Z" fill="black"/>
<path d="M52.0757 51.2746C52.224 50.9915 52.4666 50.722 52.507 50.421C52.6867 49.1091 52.9922 47.7748 52.9114 46.4719C52.8035 44.7242 52.3947 42.99 52.0757 41.2603C51.9994 40.847 51.7972 40.4472 51.586 40.0832C51.5007 39.935 51.2356 39.8946 50.8672 39.7148C52.2375 43.6055 52.8619 47.348 51.7972 51.2341C51.8915 51.2431 51.9859 51.2611 52.0757 51.2746Z" fill="black"/>
<path d="M47.8633 40.3296C48.2676 42.4232 48.7798 44.391 48.9954 46.3947C49.2111 48.412 49.1302 50.4606 49.1752 52.4958C49.2785 52.4913 49.3818 52.4824 49.4851 52.4779C50.204 48.8388 49.6469 45.2626 48.7843 41.7089C48.672 41.2326 48.663 40.5722 47.8633 40.3296Z" fill="black"/>
<path d="M54.4141 38.8706C55.1464 40.8833 55.1958 42.8601 55.2138 44.8324C55.2362 46.8497 55.2407 48.8669 55.2542 50.8841C55.3351 50.8931 55.4204 50.9021 55.5013 50.9111C55.6181 50.3854 55.8472 49.8553 55.8383 49.3296C55.7933 46.6115 55.7214 43.8935 55.5867 41.1844C55.5507 40.5149 55.2632 39.85 55.0206 39.212C54.9577 39.0413 54.6207 38.9784 54.4141 38.8706Z" fill="black"/>
<path d="M45.3772 42.5769C45.2874 42.4331 44.9594 42.4466 44.582 42.3433C46.2264 45.5016 46.1185 48.7723 46.5364 51.9352C46.6352 51.9352 46.7385 51.9352 46.8374 51.9352C46.8778 51.5264 46.9677 51.1175 46.9497 50.7132C46.8464 48.4354 46.6217 46.1666 46.0152 43.9606C45.8804 43.4754 45.6423 43.0037 45.3772 42.5769Z" fill="black"/>
<path d="M80.5939 43.1069C79.6505 43.1968 74.9915 45.8744 74.0391 46.9257C75.1937 46.9212 75.8182 46.2788 76.5325 45.8969C77.2424 45.5195 77.9028 45.0433 78.5587 44.5716C79.2057 44.0998 80.0413 43.8932 80.5939 43.1069Z" fill="black"/>
<path d="M33.061 32.3155C33.2856 32.2167 33.5282 32.0999 33.699 31.9291C35.0333 30.5633 36.5339 29.3503 37.5088 27.6566C37.4369 27.5937 37.365 27.5263 37.2976 27.4634C35.7342 29.0044 34.1662 30.5409 32.5039 32.1762C32.8319 32.2661 32.9711 32.3514 33.061 32.3155Z" fill="black"/>
<path d="M11.5645 19.08C11.8071 19.1204 12.0722 19.1474 12.3058 19.0935C14.1433 18.6487 16.0437 18.4196 17.7465 17.5076C17.7195 17.4132 17.6926 17.3234 17.6656 17.229C15.5405 17.6962 13.42 18.168 11.1602 18.6667C11.3983 18.9183 11.4702 19.0665 11.5645 19.08Z" fill="black"/>
<path d="M66.0095 40.7803C65.7444 39.082 65.4929 38.6238 64.7695 38.2104C65.1065 40.2726 65.9376 42.1865 65.4345 44.2576C66.4049 43.2243 66.1982 41.9798 66.0095 40.7803Z" fill="black"/>
<path d="M67.5508 37.8813C67.7934 38.9057 68.0809 39.7907 68.1977 40.6938C68.3145 41.5878 68.2606 42.4999 68.2831 43.4343C69.267 41.9338 68.9211 38.7574 67.5508 37.8813Z" fill="black"/>
<path d="M90.0742 38.934C91.0267 37.7569 91.8443 36.7416 92.8462 35.4971C91.3861 36.454 90.227 37.8647 90.0742 38.934Z" fill="black"/>
<path d="M42.5078 43.413C42.7953 44.1902 43.0829 44.972 43.3659 45.7492C43.4468 45.7178 43.5277 45.6863 43.6085 45.6549C43.5501 44.7743 43.7298 43.8084 42.7819 43.2603C42.692 43.3097 42.6022 43.3636 42.5078 43.413Z" fill="black"/>
<path d="M88.75 37.1639C88.8533 37.2627 88.9567 37.3571 89.06 37.4559C89.68 36.463 90.6909 35.8026 91.2704 34.7693C91.1985 34.7064 91.1311 34.6435 91.0637 34.5806C90.2865 35.4432 89.5183 36.3058 88.75 37.1639Z" fill="black"/>
<path d="M14.4469 8.0054C14.4514 8.24351 14.2671 8.44569 14.0335 8.45018C13.7999 8.45467 13.6022 8.26598 13.5977 8.02786C13.5932 7.78975 13.7774 7.58758 14.0111 7.58309C14.2447 7.57859 14.4424 7.76729 14.4469 8.0054Z" fill="white"/>
<path d="M1.03762 12.3144C1.71602 11.7303 2.54267 11.3215 3.40977 11.1463C3.53107 11.1238 3.60745 11.0025 3.58498 10.8812C3.56252 10.7599 3.44571 10.679 3.32441 10.7015C2.38094 10.8947 1.48689 11.335 0.750083 11.9684C0.655737 12.0493 0.646751 12.1931 0.723127 12.2874C0.803996 12.3863 0.94327 12.3953 1.03762 12.3144Z" fill="white"/>
</svg>
