<svg width="130" height="91" viewBox="0 0 130 91" fill="none" xmlns="http://www.w3.org/2000/svg">
<path d="M7.33469 19.0396C9.27105 19.408 11.3332 18.9767 13.2112 19.5877C14.6938 20.0729 15.9023 21.1601 16.9626 22.3058C19.7121 25.262 21.8416 28.7932 23.1805 32.603C24.9236 37.5675 25.4718 43.2508 29.0749 47.083C31.2269 49.3743 34.2865 50.7581 36.124 53.3099C37.8806 55.745 38.2625 58.8809 38.5905 61.8641C39.1116 66.6084 39.6373 71.3571 40.1584 76.1014C40.3202 77.5526 40.4729 79.0397 40.0955 80.4504C39.4441 82.872 37.2471 84.9431 37.5706 87.4321C37.8582 89.647 40.5313 91.1925 42.5935 90.3298C44.3546 89.593 45.2711 87.5668 45.3565 85.6574C45.4418 83.748 47.1401 82.562 46.7582 80.6885C45.9271 76.5867 47.1626 70.0632 47.2389 65.8805C47.3153 61.5585 46.5695 58.8584 50.1322 56.4099C52.4055 54.8464 53.0929 54.1276 55.8515 54.0512C62.2266 53.8715 68.5928 53.1931 74.8601 52.025C78.3869 51.3691 82.0754 50.5649 85.4943 51.6476C89.6995 52.982 92.503 56.8457 95.0099 60.4758C97.7055 64.3845 100.406 68.2976 103.101 72.2063C104.997 74.9558 106.969 78.4152 105.536 81.4343C105.038 82.4856 104.144 83.3931 104.009 84.5477C103.798 86.3763 105.828 87.9173 107.648 87.6522C109.472 87.3871 110.878 85.7967 111.471 84.058C112.069 82.3149 112.01 80.4279 111.943 78.5859C111.84 75.76 111.741 72.9386 111.637 70.1127C111.597 68.994 111.548 67.8304 111.022 66.842C110.393 65.6514 109.193 64.9056 108.178 64.0206C103.133 59.6312 103.101 50.7176 108.12 46.2923C112.114 53.3279 118.013 59.2673 125.021 63.3062C125.565 63.6207 126.207 63.9307 126.791 63.7016C127.268 63.5129 127.546 63.0187 127.694 62.529C128.391 60.2781 127.128 57.8521 125.452 56.1943C123.777 54.5364 121.674 53.3504 120.034 51.6611C115.865 47.3706 115.335 40.6764 111.893 35.7839C110.716 34.1081 109.225 32.6884 107.742 31.2732C103.995 27.706 100.082 24.0399 95.1806 22.4001C90.1892 20.7333 84.771 21.3578 79.5145 21.5914C68.2423 22.0856 56.8848 20.648 46.0888 17.3593C42.9214 16.3934 39.7092 15.2118 37.2786 12.9654C35.6433 11.4514 34.4437 9.5285 32.9701 7.85721C29.4074 3.81377 24.1419 1.31134 18.7507 1.10467C17.1782 1.04627 15.5519 1.18554 14.1636 1.91336C12.6675 2.69509 11.5938 4.07884 10.3538 5.21999C8.76338 6.68911 6.95731 7.57866 4.97602 8.38286C3.65966 8.91749 2.19953 9.3443 1.6604 10.7954C0.384475 14.2548 4.16734 18.4375 7.33469 19.0396Z" fill="white"/>
<path d="M22.2901 16.9908C23.5031 17.5748 24.9363 17.0537 26.1538 16.4786C27.0164 16.0697 27.9105 15.598 28.4182 14.7893C28.9618 13.9357 28.9797 12.8575 28.9797 11.8466C28.9797 10.9795 28.7776 9.85633 27.924 9.71257C27.4612 9.63619 27.003 9.92372 26.7109 10.2921C26.4234 10.665 26.2572 11.1143 26.037 11.5276C25.1295 13.2528 23.7862 13.4775 22.2182 14.2457C20.9108 14.8837 20.4032 16.0787 22.2901 16.9908Z" fill="#BCBCBB"/>
<path d="M50.0207 55.8088C50.6857 56.1592 51.4584 56.2356 52.2087 56.285C59.4375 56.7478 66.7336 55.1484 73.3244 52.1383C74.5195 51.5946 75.8538 50.7725 75.9347 49.4651C74.3218 48.6519 72.3989 48.908 70.6063 49.1506C65.0578 49.9054 59.4644 50.3502 53.8665 50.476C52.5277 50.5074 49.54 50.0357 48.5247 51.2442C47.3835 52.601 48.6774 55.1034 50.0207 55.8088Z" fill="#BCBCBB"/>
<path d="M109.893 46.9412C110.464 48.0734 111.035 49.2056 111.726 50.2658C113.02 52.2606 114.71 53.9678 116.385 55.6571C117.369 56.65 118.349 57.6384 119.333 58.6313C119.957 59.2647 120.586 59.8982 121.264 60.4688C122.168 61.2325 123.673 61.8301 124.396 60.8911C124.975 60.1408 124.49 59.0581 123.956 58.2718C121.211 54.2329 117.387 51.0341 114.498 47.094C113.69 45.9933 112.939 44.8207 111.875 43.9671C111.295 43.5043 109.125 42.2868 108.411 43.0505C107.782 43.7334 109.494 46.146 109.893 46.9412Z" fill="#BCBCBB"/>
<path d="M45.6166 86.3773C45.6345 87.2354 45.648 88.2193 45.0145 88.7988C44.5293 89.2436 43.8105 89.302 43.1501 89.3155C42.3818 89.3335 41.5507 89.3065 40.9486 88.8303C40.1804 88.2193 40.0681 87.0557 40.396 86.1347C40.724 85.2136 41.3979 84.4589 42.0134 83.6996C43.8779 81.4083 45.3874 78.7621 45.9805 75.8643C46.6274 72.7284 45.9221 69.6284 46.2051 66.497C46.6005 62.1975 48.0067 66.0433 47.8 68.357C47.2699 74.3862 45.4773 80.2851 45.6166 86.3773Z" fill="#BCBCBB"/>
<path d="M112.459 68.868C111.79 74.3401 113.057 79.8706 112.864 85.3787C112.855 85.5988 112.846 85.8234 112.756 86.0256C112.572 86.4524 112.1 86.6771 111.642 86.7804C110.694 86.9915 109.642 86.8163 108.879 86.2188C108.115 85.6213 107.684 84.5835 107.899 83.6355C107.998 83.1952 108.223 82.7954 108.434 82.3955C109.961 79.4797 110.779 76.2001 110.806 72.9069C110.824 70.6156 110.581 67.9919 112.199 66.3745L112.459 68.868Z" fill="#BCBCBB"/>
<path d="M48.5404 24.7445C51.4787 25.962 54.673 26.4023 57.8224 26.8336C63.3214 27.5794 68.8654 28.3297 74.4005 27.9163C76.6513 27.7456 78.9381 27.3727 80.9418 26.3304C81.4855 26.0474 82.0291 25.6879 82.2852 25.1308C82.7479 24.111 81.9752 22.8755 80.9508 22.4217C79.9265 21.968 78.7539 22.0713 77.6397 22.1657C69.8404 22.8081 61.9467 22.3364 54.2731 20.7954C52.1076 20.3596 45.6516 17.4528 43.8995 18.8141C41.0017 21.0694 47.0174 24.111 48.5404 24.7445Z" fill="#BCBCBB"/>
<path d="M19.4805 24.3495L23.7935 21.618L30.6583 14.9688L34.257 10.6333L36.719 12.2866L37.3525 13.4772L34.4592 18.846L29.3554 23.7835C29.3554 23.7835 24.984 26.0613 24.8178 26.3713C24.6471 26.6768 21.2012 28.2178 21.2012 28.2178L19.4805 24.3495Z" fill="#EB584A"/>
<path d="M128.658 59.6992C127.67 58.4412 126.654 57.2012 125.594 56.0017C124.107 54.3259 122.575 52.6905 121.047 51.0507C120.67 50.6418 120.23 50.2914 119.825 49.905C119.596 49.6849 119.349 49.4693 119.183 49.2087C118.145 47.5958 116.99 46.0368 116.132 44.3341C114.618 41.3375 113.324 38.233 111.869 35.2049C110.939 33.2641 110.13 31.2423 108.773 29.5306C107.762 28.2592 106.725 26.9922 104.748 27.5943C103.935 26.7856 103.126 26.0128 102.353 25.2086C101.369 24.1798 100.269 23.3082 98.8938 22.9129C96.0095 22.0817 93.1117 21.3135 90.0791 21.2371C87.8417 21.1787 85.6043 21.0169 83.3625 21.0169C81.7271 21.0214 80.0828 21.1293 78.4609 21.3449C75.4059 21.7537 72.3464 22.0772 69.2778 22.3198C69.1655 22.3288 69.0487 22.2794 68.9409 22.2614C68.8465 21.9874 68.7612 21.7358 68.6579 21.4348C67.9031 21.5021 67.1977 21.601 66.4879 21.6235C65.3692 21.6594 64.2415 21.7358 63.1363 21.6235C61.7481 21.4842 60.3778 21.1607 58.994 20.9361C57.0981 20.6306 55.2022 20.3475 53.3018 20.06C51.8866 19.8488 50.6196 18.9997 49.128 19.0851C48.9843 19.0941 48.836 18.9638 48.6833 18.9099C46.356 18.1281 44.1951 17.0544 42.1554 15.6661C40.7896 14.7361 39.4373 13.8106 38.1793 12.7593C38.1883 12.7369 38.1928 12.7099 38.2018 12.6919C37.9142 12.4718 37.6402 12.2517 37.3616 12.036C36.9303 11.6362 36.508 11.2228 36.1127 10.7781C35.8656 10.504 35.4837 10.2794 35.1288 10.1895C35.0254 10.1626 34.9356 10.1266 34.8592 10.0862C34.7694 10.0233 34.6795 9.95589 34.5941 9.88401C34.4953 9.78517 34.4054 9.67734 34.3111 9.56053C33.0576 8.01055 31.8491 6.42013 30.5237 4.93753C29.432 3.71552 28.1516 2.66872 27.0599 1.4467C26.6241 0.961487 26.1478 0.664969 25.5863 0.503231C24.8989 0.305552 24.189 0.148307 23.4747 0.0943947C20.2983 -0.148212 17.1579 0.0629457 14.0714 0.889604C13.1639 1.13221 12.5394 1.73423 12.0722 2.50249C11.8476 2.8664 11.9419 3.19886 12.4406 3.26625C12.9168 2.82596 13.3077 2.20147 13.8558 2.0038C15.0868 1.55902 16.3762 1.1996 17.6746 1.03786C19.292 0.835692 20.9408 0.876126 22.5761 0.790764C23.8566 0.723374 25.0247 1.08279 26.0984 1.74322C27.5451 2.63277 28.6638 3.90421 29.7914 5.13971C30.6226 6.05173 31.283 7.12099 32.1411 8.00156C32.7701 8.653 33.3227 9.35387 33.8439 10.0772C32.1007 12.8672 30.0475 15.3292 27.7383 17.6294C25.2852 20.069 22.4548 21.9514 19.5885 23.8428C20.5005 24.8223 21.8034 26.8934 21.9157 27.5898C21.709 27.3876 21.5473 27.2798 21.453 27.127C21.0666 26.525 20.7072 25.9005 20.3253 25.2985C20.204 25.1053 20.0378 24.8986 19.8266 24.966C19.4986 24.337 19.1437 23.7215 18.7573 23.1195L18.7843 23.1465C18.7933 23.1285 18.7978 23.115 18.8068 23.0971C18.7933 23.106 18.7798 23.115 18.7663 23.1195C18.2452 22.3827 17.724 21.6414 17.1939 20.9091C17.0142 20.6575 16.8255 20.352 16.3268 20.7159C16.502 21.0439 16.6682 21.3853 16.8614 21.7043C17.9981 23.5823 19.1662 25.4378 20.1681 27.3966C21.1969 29.4093 21.9561 31.4939 22.3964 33.7043C22.5402 34.4277 22.7783 35.1375 23.0074 35.9642C23.4253 35.6991 23.7038 35.5194 24.0003 35.3352C24.0587 35.4655 24.1171 35.5688 24.1486 35.6811C25.0202 38.9788 26.3051 42.1282 27.891 45.1293C29.3826 47.9552 31.1033 50.6553 32.7386 53.4049C32.851 53.5936 33.0666 53.7328 33.2598 53.8631C33.5878 54.0833 33.9607 54.236 34.2617 54.4876C34.8457 54.9728 35.3489 55.5569 35.9599 56.0061C36.8225 56.6441 37.7435 57.2057 38.66 57.7673C38.7679 57.8347 38.997 57.6999 39.1677 57.664C39.1048 57.4932 39.0554 57.3135 38.979 57.1518C38.9476 57.0934 38.8487 57.0619 38.7813 57.026C37.3302 56.2892 36.216 55.1435 35.0838 54.0114C34.6076 53.5307 34.1269 53.005 33.5428 52.695C32.9678 52.3895 32.6218 51.9672 32.3253 51.4416C31.5616 50.0848 30.8292 48.7055 30.0251 47.3712C28.3313 44.5587 26.7903 41.6744 25.7615 38.543C25.4155 37.4917 24.9034 36.5033 25.0876 35.3127C25.1684 34.7826 24.8405 34.2659 24.3597 33.8751C23.906 33.5022 23.5735 33.7942 23.1961 34.0233C22.8502 32.7833 22.5986 31.6107 22.1898 30.4921C21.9427 29.8182 21.6911 29.1487 21.426 28.4793C21.6506 28.677 21.9247 28.7129 22.2572 28.5961C24.5934 27.7695 26.7903 26.6867 28.6323 25.0154C29.2613 25.2266 29.7061 24.984 30.1239 24.7773C31.903 23.9013 33.2643 22.4861 34.684 21.1517C34.693 21.1427 34.666 21.0888 34.6121 20.9181C33.5294 21.5561 32.6758 22.4366 31.7458 23.1914C30.964 23.8249 30.0565 24.1843 29.0681 24.6156C30.5956 23.142 32.0917 21.6324 33.5294 20.0735C34.2392 19.3052 34.7694 18.3707 35.3849 17.5126C36.2969 16.2457 37.2179 14.9877 37.8873 13.5725C39.7967 15.1674 41.9442 16.4254 43.9974 17.8226C44.7611 18.3438 45.5968 18.6852 46.5088 18.9233C47.6634 19.2288 48.7507 19.8174 49.9143 20.069C51.7877 20.4688 53.7016 20.689 55.5931 20.9945C56.9723 21.2191 58.3606 21.4123 59.7308 21.6908C62.0491 22.1626 64.3628 22.6523 66.744 22.1536C66.9326 22.1132 67.1393 22.1491 67.3909 22.1491C67.5616 23.2229 68.3748 23.1375 69.1341 23.0881C70.2887 23.0117 71.4433 22.9218 72.5935 22.8005C73.829 22.6703 75.0555 22.495 76.2865 22.3423C77.513 22.185 78.7395 22.0098 79.9705 21.875C82.3247 21.61 84.6788 21.7987 87.033 21.884C90.4834 22.0143 93.8889 22.4366 97.2449 23.2408C97.6538 23.3397 98.0446 23.5104 98.5703 23.6901C97.6673 24.6605 96.4632 25.002 95.7713 25.9589C96.3599 25.6938 96.8765 25.3344 97.4067 24.993C97.8784 24.6875 98.3502 24.3865 98.8399 24.1169C99.2262 23.9013 99.5138 24.0405 99.6665 24.4044C99.379 24.7144 99.1229 24.984 98.8713 25.2536C99.3251 25.0739 99.7788 24.8897 100.291 24.6875C102.012 25.7657 103.342 27.2977 104.662 28.8612C105.786 28.2053 106.725 28.5467 107.425 29.3464C108.288 30.3348 109.074 31.4086 109.775 32.5183C110.328 33.3899 110.701 34.3738 111.159 35.3037C111.667 36.3461 112.242 37.3614 112.682 38.4307C114.043 41.7238 115.517 44.9676 117.453 47.9642C118.257 49.2042 118.841 50.6868 120.351 51.3517C120.486 51.4101 120.571 51.5808 120.674 51.6976C121.559 52.677 122.449 53.6475 123.325 54.6359C124.785 56.2802 126.245 57.9245 127.674 59.5958C128.007 59.9867 128.276 60.4494 128.487 60.9212C128.766 61.5367 128.577 62.0084 127.971 62.3139C127.234 62.6868 126.475 62.8755 125.666 62.5071C125.23 62.3094 124.767 62.1612 124.327 61.977C123.788 61.7523 123.154 61.658 122.988 60.9257C122.952 60.7774 122.71 60.6606 122.543 60.5618C121.896 60.1709 121.218 59.8205 120.589 59.4026C119.731 58.8321 118.904 58.2166 118.024 57.5876C118.612 56.7429 118.069 56.3386 117.539 55.9388C115.804 54.6269 114.304 53.0769 113.019 51.3337C112.125 50.1207 111.334 48.8313 110.687 47.3487C111.186 47.0252 111.626 46.7646 112.039 46.4681C112.421 46.1941 112.951 46.1042 113.329 45.3719C112.215 45.9694 111.343 46.4367 110.454 46.9129C110.031 46.4591 109.919 46.0773 110.436 45.6684C110.575 45.5606 110.669 45.3989 110.777 45.2551C110.454 45.3225 110.13 45.3899 109.78 45.4663C109.214 44.2173 108.594 43.0582 108.4 41.7238C108.315 41.1353 108.144 40.5512 107.96 39.9807C107.915 39.8504 107.655 39.7875 107.34 39.6078C107.389 40.5512 107.439 41.2925 107.47 42.0383C107.547 43.9837 107.165 45.8526 106.558 47.6856C105.588 50.6104 104.689 53.5486 105.067 56.6935C105.363 59.1421 106.217 61.3165 108.063 63.0552C109.371 64.2862 110.597 65.6026 111.909 66.9369C111.442 67.5165 111.433 68.078 111.752 68.6486C112.017 69.1293 111.977 69.6235 111.873 70.1582C111.568 71.7756 111.581 73.4199 111.649 75.0597C111.756 77.7733 111.896 80.4914 112.026 83.205C112.035 83.4072 112.12 83.6048 112.179 83.8564C112.799 83.5509 112.695 83.0522 112.686 82.6524C112.615 80.2937 112.529 77.9351 112.399 75.5809C112.309 73.9815 112.309 72.3955 112.547 70.8051C112.668 69.983 112.893 69.1518 112.597 68.3117C112.556 68.1904 112.623 68.0062 112.691 67.8759C113.073 67.1076 113.068 67.1166 112.547 66.4921C111.195 64.8568 109.721 63.3382 108.162 61.8961C107.704 61.4693 107.286 60.9391 107.026 60.3775C106.662 59.5913 106.473 58.7197 106.181 57.8976C105.619 56.3431 105.664 54.7751 105.916 53.1668C106.325 50.5475 107.106 48.0316 107.803 45.4887C107.87 45.2461 107.956 45.0035 108.072 44.6396C108.791 46.0548 109.456 47.3172 110.085 48.5977C111.505 51.5045 113.203 54.1866 115.836 56.1724C116.047 56.3296 116.299 56.5767 116.33 56.8058C116.487 57.8796 117.26 58.4367 118.046 58.9938C118.828 59.5509 119.655 60.0541 120.391 60.6651C121.937 61.95 123.815 62.552 125.621 63.2933C126.686 63.7291 127.697 63.3068 128.564 62.7138C129.444 62.1027 129.467 60.728 128.658 59.6992ZM22.6435 27.2169C21.8304 26.4441 21.2463 25.5411 20.7251 24.6021C20.6488 24.4628 20.7296 24.2337 20.7341 24.0495C20.9408 24.0899 21.2238 24.0585 21.3406 24.1843C22.0595 24.9481 22.7424 25.7433 23.5421 26.6418C23.1916 26.8664 22.9401 27.0282 22.6435 27.2169ZM32.2894 19.9701C30.7619 21.5426 29.0951 22.9353 27.4103 24.3101C26.5207 25.0379 25.4739 25.5725 24.5035 26.206C24.1261 26.4531 23.8206 26.4351 23.5241 26.0712C22.8816 25.2805 22.2212 24.4988 21.4575 23.5778C26.0176 20.5677 29.8094 16.9331 33.0891 12.6425C33.9472 13.6893 34.7334 14.6508 35.5691 15.6706C34.5178 17.1532 33.5698 18.6583 32.2894 19.9701ZM36.6518 13.1232C36.4361 13.6489 36.234 14.1835 35.9734 14.8529C35.0434 13.8511 34.3785 12.8537 33.9427 11.726C33.8528 11.4969 34.0954 11.142 34.2482 10.6612C34.4189 10.9128 34.5896 11.1644 34.7559 11.4205C34.8188 11.5194 34.9176 11.5957 35.0254 11.708C35.1917 11.6721 35.3624 11.6362 35.5376 11.6002C35.8296 11.8204 36.1082 12.0315 36.3867 12.2382C36.7012 12.4673 36.8046 12.7504 36.6518 13.1232Z" fill="black"/>
<path d="M111.015 85.5175C109.398 86.3622 107.785 86.2409 106.127 85.6703C105.264 85.3738 105.04 84.6415 104.887 83.9002C104.743 83.1858 105.188 82.6467 105.741 82.3053C106.203 82.0222 106.769 81.9099 107.304 81.7527C107.556 81.6763 107.834 81.6763 108.144 81.6403C108.041 81.1461 107.929 80.7283 107.866 80.3015C107.632 78.7201 107.448 77.1297 107.178 75.5572C107.021 74.6542 106.792 73.7556 106.491 72.893C106.001 71.4868 105.314 70.2064 104.092 69.2539C103.4 68.7148 102.757 68.0948 102.196 67.4209C100.403 65.2689 98.6601 63.081 96.9035 60.8975C96.5845 60.5021 96.3194 60.0708 95.96 59.5587C96.7957 58.9971 97.537 58.5029 98.2783 58.0087C98.2378 57.9458 98.2019 57.8784 98.1615 57.8155C97.3348 58.2513 96.5081 58.6871 95.6905 59.1229C95.1199 58.5568 95.1199 58.5568 95.4973 58.0042C95.5781 57.8874 95.6545 57.7751 95.7309 57.6583L95.6231 57.5684C95.3625 57.7301 95.0974 57.8919 94.7425 58.112C93.9653 56.9619 93.0667 55.942 92.4737 54.7065C91.647 52.9858 90.4565 51.5437 89.0907 50.2318C88.3808 49.5489 87.5587 49.0952 86.5972 48.8705C85.2225 48.547 83.8791 48.4482 82.4594 48.7582C79.9974 49.2973 77.5354 49.778 75.1633 50.6721C72.0948 51.8267 68.9948 52.896 65.8993 53.9697C65.504 54.1045 65.0098 54.1854 64.6324 54.0641C64.2909 53.9563 64.0573 53.9428 63.7473 54.0866C63.4238 54.2393 63.0734 54.3516 62.723 54.428C59.286 55.1918 55.8491 55.9555 52.3313 56.2386C51.5855 56.297 50.8308 56.3419 49.9547 55.8926C51.1453 55.0255 52.237 54.2258 53.3287 53.4261C53.2793 53.3587 53.2299 53.2869 53.1805 53.2195C51.8641 54.0866 50.5432 54.9536 49.1999 55.8387C48.8809 55.2636 49.0966 54.8458 49.4964 54.4505C49.9637 53.9787 50.4129 53.489 50.8667 53.0038C50.3006 53.3857 49.7345 53.7676 49.155 54.1539C48.6204 53.0937 49.0337 52.1143 49.155 51.1483C49.2403 50.4609 49.1235 49.8769 48.7641 49.3288C48.6698 49.185 48.4047 49.1536 48.0722 49.0053C48.0722 49.9578 48.0992 50.7575 48.0677 51.5527C47.9285 55.1064 47.7712 58.6646 47.614 62.2184C47.596 62.5778 47.5107 62.9327 47.5017 63.2921C47.4478 65.8395 46.5941 68.3195 46.8996 70.9028C46.9715 71.5138 46.711 72.1607 46.657 72.7942C46.4728 74.8653 46.3426 76.941 46.1359 79.0121C45.8528 81.838 45.5159 84.6549 45.2149 87.4764C45.1744 87.8762 44.9723 88.1098 44.6578 88.3345C43.5481 89.1387 42.2497 89.1746 40.9828 89.2061C40.237 89.224 39.4373 89.1162 38.7454 88.8466C37.3481 88.2985 36.4811 86.9597 37.7974 85.5715C38.1568 85.1941 38.5252 84.8302 38.8712 84.4438C39.3654 83.8912 39.9045 83.5677 40.5919 84.0484C40.9603 83.6845 41.2164 83.3116 40.9378 82.9342C40.5919 82.458 40.6548 81.9548 40.6278 81.4427C40.5649 80.3644 40.502 79.2862 40.4481 78.2079C40.3448 76.0918 40.2639 73.9713 40.1426 71.8597C40.0977 71.1229 40.2909 70.5254 40.8704 70.0581C40.9019 70.0357 40.8614 69.9278 40.857 69.856C40.6413 69.9189 40.4257 69.9862 40.1561 70.0626C40.1022 69.7526 40.0438 69.519 40.0258 69.2854C39.7652 66.4145 39.5226 63.5482 39.2486 60.6774C39.1902 60.0439 39.0689 59.4104 38.9116 58.7949C38.8173 58.4265 38.5207 58.3277 38.1164 58.5927C38.2242 59.1004 38.3815 59.5946 38.4309 60.0978C38.7723 63.4808 39.1677 66.8638 39.3923 70.2513C39.581 73.0817 39.5181 75.9256 39.9135 78.7515C40.0662 79.8567 40.0752 80.9844 40.1426 82.1031C40.1651 82.4805 40.0438 82.741 39.6888 82.9926C38.8847 83.5722 38.1434 84.2416 37.3841 84.8796C36.7641 85.4007 36.4945 86.1241 36.3822 86.8788C36.3238 87.2787 36.4002 87.7909 36.6158 88.1188C37.1505 88.941 37.9097 89.534 38.9026 89.7497C40.9468 90.1945 42.9461 90.0642 44.8914 89.2555C45.8618 88.8511 46.4549 88.1952 46.5402 87.108C46.7154 84.8346 46.9176 82.5658 47.0883 80.2925C47.2231 78.5404 47.3938 76.7837 47.4388 75.0271C47.4927 72.8796 48.1846 70.8174 48.0228 68.625C47.9105 67.1379 48.2834 65.6059 48.4901 64.1053C48.7551 62.1644 49.0561 60.2281 49.0427 58.2558C49.0382 57.8694 49.1011 57.483 49.1325 57.0787C49.447 57.0562 49.6492 57.0068 49.8379 57.0383C52.0842 57.3932 54.3126 57.1506 56.5275 56.7732C58.4998 56.4362 60.4541 56.0094 62.4175 55.6276C62.7275 55.5691 63.1004 55.4119 63.3519 55.5152C64.2415 55.8791 65.0008 55.4613 65.787 55.2187C66.9281 54.8593 68.0603 54.455 69.1925 54.0641C70.0955 53.7541 71.003 53.4486 71.8971 53.1161C73.3572 52.577 74.7994 51.984 76.273 51.4808C77.6343 51.018 79.018 50.6182 80.4018 50.2363C81.8754 49.832 83.376 49.6073 84.908 49.6478C86.1749 49.6792 87.4149 49.9083 88.3629 50.7844C89.4726 51.8088 90.4969 52.9589 91.1798 54.3202C92.0064 55.969 92.8286 57.6043 93.9203 59.0959C95.1738 60.8076 96.3194 62.6092 97.7212 64.1907C99.8148 66.5538 102.057 68.7912 104.307 71.0106C105.318 72.008 106.015 73.1267 106.248 74.5104C106.59 76.5187 106.882 78.5359 107.178 80.5531C107.205 80.7283 107.097 80.917 107.079 80.9934C106.451 81.2225 105.88 81.3303 105.422 81.6134C104.64 82.0941 104.024 82.8534 104.123 83.7699C104.222 84.6909 104.469 85.7557 105.485 86.1555C107.726 87.0451 109.986 87.1529 112.183 85.9578C112.57 85.7467 112.907 85.4591 112.682 84.8931C112.017 84.8616 111.523 85.2525 111.015 85.5175Z" fill="black"/>
<path d="M17.6203 18.4291C17.4675 18.4381 17.3328 18.4111 17.2429 18.4605C15.931 19.2467 14.4934 19.5343 12.9928 19.4983C10.998 19.4534 9.00328 19.3725 7.01301 19.2602C6.46041 19.2288 5.88983 19.1075 5.38216 18.8963C4.91941 18.7031 4.45666 18.4066 4.1242 18.0382C3.09986 16.8926 2.75392 15.374 1.97669 14.1969C2.58769 13.1322 3.11783 12.1932 3.66145 11.2632C4.11971 10.486 4.4297 9.69524 4.13768 8.77873C4.1242 8.72931 4.20507 8.64844 4.27246 8.53163C5.40013 8.27554 6.57273 8.02844 7.73184 7.73193C8.58097 7.51628 9.43458 7.27367 10.2567 6.96367C11.3889 6.53687 12.3099 4.95094 12.2156 3.71545C12.2156 3.68849 12.1572 3.66153 12.0628 3.57617C11.937 3.65704 11.7304 3.71994 11.654 3.85472C11.4563 4.20066 11.2856 4.56457 11.1508 4.94196C10.8408 5.81803 10.2118 6.29875 9.34473 6.52788C8.45517 6.7615 7.57011 7.01759 6.67606 7.22425C5.16202 7.57917 3.63449 7.87569 2.12494 8.24859C0.723219 8.59003 0.170616 9.228 0.0268497 10.6567C-0.0225701 11.1644 -0.009092 11.708 0.112211 12.2022C0.669307 14.4845 1.74756 16.5242 3.1358 18.4111C3.63899 19.094 4.26797 19.5477 5.09462 19.678C6.07853 19.8308 7.07591 19.8937 8.05981 20.0464C10.2882 20.3879 12.5211 20.343 14.7495 20.1722C15.6255 20.1048 16.4791 19.9072 17.2519 19.4309C17.6517 19.1793 17.809 18.8918 17.6203 18.4291Z" fill="black"/>
<path d="M17.5195 4.91113C17.5914 5.37388 17.5555 5.84112 17.7442 6.18706C18.0587 6.76213 18.0587 7.32821 17.9958 7.93023C17.9194 8.64457 17.861 9.36341 17.7576 10.0733C17.6633 10.6932 17.7217 11.2953 18.0676 11.8029C18.6517 12.6611 19.2537 13.5102 19.9276 14.2919C20.314 14.7367 20.8531 15.1231 21.5135 14.9164C22.0796 14.7367 22.6817 14.5525 23.1579 14.2155C24.9595 12.9576 26.5858 11.484 28.0639 9.8576C28.3784 9.51167 28.639 9.08037 28.7872 8.64457C29.0927 7.7685 28.6165 6.74865 27.6057 6.18257C27.7225 6.63633 27.7584 6.97778 27.8932 7.27879C28.2975 8.17733 27.992 8.95457 27.4125 9.59703C26.6622 10.4237 25.8445 11.1919 25.0044 11.9287C24.3754 12.4769 23.679 12.9486 22.9917 13.4293C22.1515 14.0179 20.8441 14.0089 20.3544 13.3709C19.8647 12.7419 19.5188 12.0276 19.6086 11.2099C20.0759 10.9224 20.4937 10.6708 21.1047 10.2934C20.1523 10.3159 19.4918 11.3132 18.7685 10.4372C18.8898 10.0328 19.0336 9.72282 19.0605 9.39935C19.092 9.0624 18.9842 8.71646 18.9797 8.37052C18.9707 7.69212 19.0381 7.00923 18.9931 6.33532C18.9572 5.56707 18.4989 5.13577 17.5195 4.91113Z" fill="black"/>
<path d="M90.584 42.0107C90.6199 41.6693 90.5301 41.3952 90.1212 41.3413C88.6252 46.3147 92.0217 52.6 95.3193 54.4735C95.0587 54.1365 94.8027 53.7906 94.5331 53.4581C93.8906 52.645 93.1493 51.8902 92.6102 51.0141C91.2085 48.7363 90.1797 46.3237 90.3908 43.5562C90.4312 43.0351 90.5301 42.5229 90.584 42.0107Z" fill="black"/>
<path d="M11.9715 7.39901C11.976 8.03697 12.3219 8.62103 12.8251 8.73335C13.2699 8.83668 13.773 8.49972 14.128 7.86176C14.1864 7.75843 14.2313 7.64611 14.2762 7.53379C14.4784 7.02612 14.5772 6.48699 14.1774 6.06468C13.7506 5.61541 13.2654 6.02873 12.8475 6.16801C12.3488 6.33873 11.931 6.6667 11.9715 7.39901Z" fill="black"/>
<path d="M48.0829 45.5923C47.1035 46.8727 49.1342 48.0498 51.0121 49.2763C51.5782 48.9753 51.5557 48.9663 51.2188 48.6743C50.7156 48.2385 50.0866 47.8072 49.8081 47.3714C49.5026 46.8907 49.5385 46.4055 49.4127 45.9247C49.3813 45.8034 49.7092 45.6552 48.0829 45.5923Z" fill="black"/>
<path d="M85.2312 39.9673C84.3327 41.8677 84.0092 44.0377 82.6569 45.7404C82.6254 45.7808 82.6614 45.8887 82.6838 45.9606L82.7557 46.0549C83.9373 45.5517 85.1638 42.7078 85.2312 39.9673Z" fill="black"/>
<path d="M22.2201 2.17445C21.1014 2.02619 19.5784 2.47546 19.0078 3.09995C20.3062 3.30661 21.2272 2.59676 22.2201 2.17445Z" fill="black"/>
<path d="M13.8575 4.69969C14.3831 4.75809 14.9132 4.72215 15.4434 4.72215C15.4524 4.61433 15.4658 4.5065 15.4793 4.40317C14.9986 4.26839 14.5224 4.10665 14.0327 4.00781C13.8844 3.98086 13.7047 4.12013 13.543 4.18752C13.6418 4.36274 13.7317 4.68621 13.8575 4.69969Z" fill="black"/>
<path d="M44.1669 69.4438C43.0347 69.9425 42.0014 70.5491 41.5117 71.7531C42.3968 70.9848 43.2818 70.2166 44.1669 69.4438Z" fill="black"/>
<path d="M20.2409 21.6538C20.2274 21.6583 20.2184 21.6673 20.2049 21.6763C20.2004 21.6853 20.1959 21.6943 20.1914 21.7033C20.2004 21.6988 20.2094 21.6943 20.2229 21.6898C20.2229 21.6763 20.2319 21.6673 20.2409 21.6538Z" fill="black"/>
<path d="M22.4571 19.5967C21.7338 20.302 20.7229 20.6749 20.2422 21.6543C21.0778 21.2096 21.927 20.4728 22.4571 19.5967Z" fill="black"/>
<path d="M51.0117 52.8756C51.7216 52.4803 52.4314 52.0804 53.1413 51.6851C52.3011 51.8738 51.4969 52.1298 51.0117 52.8756Z" fill="black"/>
<path d="M51.0085 52.875C50.986 52.8885 50.968 52.8975 50.9455 52.911C50.914 52.9425 50.887 52.974 50.8555 53.0101C50.8915 52.983 50.932 52.9605 50.968 52.9335C50.9815 52.911 50.995 52.8975 51.0085 52.875Z" fill="black"/>
<path d="M98.7188 25.3341C98.7503 25.3206 98.7728 25.3116 98.8043 25.2981C98.8178 25.2846 98.8358 25.2665 98.8493 25.2485C98.8268 25.2575 98.8043 25.2665 98.7818 25.2755C98.7593 25.2981 98.7368 25.3161 98.7188 25.3341Z" fill="black"/>
<path d="M97.0664 26.8136C97.6145 26.3194 98.1671 25.8296 98.7152 25.3354C97.5426 25.8117 97.3539 25.9734 97.0664 26.8136Z" fill="black"/>
<path d="M18.5977 21.6184C19.1188 21.223 19.5861 20.8681 20.0533 20.5132C18.8268 20.931 18.8268 20.931 18.5977 21.6184Z" fill="black"/>
<path d="M20.1857 21.7056C19.4804 21.9302 19.058 22.4379 18.793 23.0938C19.4219 22.7928 19.9027 22.348 20.1857 21.7056Z" fill="black"/>
<path d="M7.78288 11.928C7.76042 11.9729 7.97607 12.2335 8.03897 12.22C8.19621 12.1796 8.36244 12.0628 8.46128 11.928C8.49273 11.8831 8.33549 11.6989 8.21418 11.4922C8.0165 11.6809 7.85926 11.7842 7.78288 11.928Z" fill="black"/>
<path d="M5.95318 11.6576C5.78245 11.7519 5.65217 11.9182 5.50391 12.053C5.61173 12.1338 5.73753 12.2956 5.82738 12.2821C5.98463 12.2506 6.1239 12.1114 6.34404 11.9766C6.16433 11.8238 5.9981 11.6351 5.95318 11.6576Z" fill="black"/>
<path d="M43.6906 67.728C43.2458 67.8853 42.8055 68.0515 42.5898 68.5187C43.0706 68.4199 43.4435 68.1638 43.6906 67.728Z" fill="black"/>
<path d="M42.5948 68.519C42.5812 68.5236 42.5721 68.5281 42.5585 68.5281C42.5494 68.5372 42.5403 68.5463 42.5312 68.5599C42.5494 68.5599 42.563 68.5554 42.5812 68.5508C42.5812 68.5417 42.5857 68.5327 42.5948 68.519Z" fill="black"/>
<path d="M41.7109 69.4297C41.9805 69.1377 42.2546 68.8501 42.5241 68.5581C42.0524 68.621 41.8008 68.9355 41.7109 69.4297Z" fill="black"/>
<path d="M6.2219 14.4174C6.35219 14.3725 6.46002 14.2557 6.57683 14.1703C6.50494 14.0985 6.42857 14.0311 6.29828 13.9053C6.18147 14.0311 6.08263 14.1299 5.98828 14.2287C6.06915 14.2961 6.17248 14.4354 6.2219 14.4174Z" fill="black"/>
<path d="M110.829 45.2158C110.811 45.2158 110.798 45.2203 110.784 45.2203C110.775 45.2293 110.766 45.2428 110.762 45.2518C110.775 45.2473 110.793 45.2473 110.807 45.2428C110.811 45.2338 110.82 45.2248 110.829 45.2158Z" fill="black"/>
<path d="M111.888 44.6094C111.205 44.825 111.182 44.834 110.832 45.2159C111.25 45.2114 111.546 44.9957 111.888 44.6094Z" fill="black"/>
<path d="M29.6655 45.5749C29.7059 45.5614 29.7508 45.5434 29.7912 45.5299C29.7553 45.3547 29.7239 45.184 29.6879 45.0088C29.6071 45.0313 29.5262 45.0492 29.4453 45.0717C29.5172 45.2379 29.5936 45.4086 29.6655 45.5749Z" fill="black"/>
<path d="M13.2142 6.92006C13.2142 7.13571 13.0389 7.30644 12.8278 7.30644C12.6166 7.30644 12.4414 7.13122 12.4414 6.92006C12.4414 6.70891 12.6166 6.53369 12.8278 6.53369C13.0389 6.53369 13.2142 6.70891 13.2142 6.92006Z" fill="white"/>
<path d="M0.950054 10.4771C1.57454 9.97389 2.32932 9.63245 3.12003 9.49317C3.24133 9.47071 3.3222 9.3539 3.30423 9.2326C3.28177 9.11129 3.16496 9.03042 3.04366 9.04839C2.17656 9.20115 1.3544 9.57404 0.667013 10.1222C0.568174 10.1985 0.554695 10.3423 0.631071 10.4366C0.71194 10.54 0.855707 10.5535 0.950054 10.4771Z" fill="white"/>
</svg>
