<svg width="120" height="92" viewBox="0 0 120 92" fill="none" xmlns="http://www.w3.org/2000/svg">
<path d="M37.8167 78.396C38.0009 80.256 38.1627 82.2463 37.2596 83.8906C36.433 85.4002 34.7212 86.721 35.0852 88.3968C35.4311 90.0007 37.6685 90.5758 39.1331 89.803C40.5932 89.0303 41.3839 87.4219 41.9141 85.8629C44.4884 78.3331 43.1855 70.107 43.7561 62.1774C43.8684 60.6184 44.1065 58.9516 45.1848 57.8149C46.883 56.0268 49.7583 56.3503 52.2383 56.3323C61.3046 56.2649 69.2657 49.8718 78.305 49.1395C80.448 48.9643 82.9505 49.3013 84.1006 51.0983C85.1743 52.7786 84.5993 54.9935 85.0845 56.9209C85.6551 59.1762 87.5959 60.7981 89.4245 62.2537C92.6951 64.855 95.9658 67.4563 99.2365 70.0576C101.703 72.0164 104.223 74.0426 105.818 76.7427C107.418 79.4428 107.916 83.0145 106.227 85.6652C105.508 86.7929 104.385 87.8846 104.578 89.201C104.749 90.3781 106.007 91.1688 107.207 91.2047C109.354 91.2721 111.178 89.4391 111.807 87.4039C112.441 85.3732 112.158 83.1853 111.866 81.0782C111.34 77.2369 110.756 73.2474 108.563 70.0351C107.243 68.1032 105.401 66.5532 104.147 64.5765C101.775 60.843 101.806 56.1436 101.914 51.7363C108.271 54.1489 109.152 63.4128 115.078 66.724C116.372 67.4473 118.34 67.6629 119.067 66.3735C119.678 65.2908 118.955 63.9654 118.214 62.9681C114.346 57.743 109.453 53.2144 106.393 47.4817C104.179 43.3304 102.93 38.5637 99.7172 35.1088C96.1141 31.2316 90.5971 29.6681 85.2957 29.2638C79.9898 28.8594 74.6479 29.4345 69.3465 29.0032C61.1788 28.3383 53.4154 25.3237 45.8721 22.1473C43.4685 21.1365 41.029 20.0762 39.0837 18.3555C36.9676 16.482 35.5793 13.9571 34.2315 11.4861C32.9331 9.10499 31.6348 6.72835 30.3364 4.34721C29.7343 3.242 29.0919 2.09187 28.0361 1.39101C26.8635 0.61377 25.3764 0.519423 23.9702 0.478988C21.4318 0.402612 18.8844 0.420583 16.3461 0.532901C15.2768 0.577828 14.1132 0.685653 13.3494 1.42695C12.069 2.67592 12.6845 4.9088 11.7949 6.45878C10.0473 9.50933 4.72792 7.42472 2.09968 9.7789C0.383469 11.3154 0.621583 14.1323 1.76273 16.1226C4.64256 21.1589 11.4894 22.5247 17.2536 21.5723C18.3229 21.397 19.4955 21.1769 20.4254 21.7205C21.0454 22.0844 21.4408 22.7314 21.7553 23.3783C24.2128 28.4057 23.3053 34.4304 25.0844 39.7273C26.1042 42.7554 27.9597 45.4285 29.8826 47.9894C33.2386 52.4731 35.4491 54.6206 36.0017 60.214C36.6127 66.2792 37.2147 72.3399 37.8167 78.396Z" fill="white"/>
<path d="M30.9036 17.7322C31.8246 16.5371 32.1391 14.9602 32.0043 13.4641C31.9235 12.6105 31.6943 11.7434 31.1687 11.0605C28.8594 8.06837 24.4072 13.1721 23.8411 15.4813C22.8707 19.4214 28.7831 20.4907 30.9036 17.7322Z" fill="#BCBCBB"/>
<path d="M35.1483 25.104C34.9416 26.2317 34.1284 27.1707 33.1939 27.8446C32.2595 28.5185 31.1902 28.9857 30.1883 29.5563C28.225 30.6705 26.5043 32.2025 25.1745 34.013C24.9992 34.2512 24.8016 34.5117 24.5095 34.5567C23.8806 34.66 23.6245 33.7839 23.629 33.1504C23.6559 29.5518 24.4242 29.8977 27.6814 28.5948C28.7372 28.177 34.9551 26.1553 35.1483 25.104Z" fill="#BCBCBB"/>
<path d="M57.4098 53.1476C57.6075 53.1745 57.8097 53.206 57.9894 53.2913C58.3084 53.4351 58.542 53.7316 58.6408 54.0641C58.9014 54.8997 58.3308 55.8072 57.5626 56.2385C56.7943 56.6698 55.8823 56.7327 55.0017 56.7822C51.6637 56.9708 48.3166 57.0966 44.974 57.164C44.1474 54.7425 43.8868 51.7952 47.126 51.9121C50.4506 52.0289 54.1077 52.6668 57.4098 53.1476Z" fill="#BCBCBB"/>
<path d="M111.508 90.0869C110.484 89.8937 109.446 90.2756 108.421 90.4823C107.397 90.6845 106.171 90.635 105.519 89.8263C104.679 88.7885 105.303 87.2655 105.95 86.0974C107.047 84.1161 109.342 77.5657 111.741 77.3726C112.038 78.4688 110.982 89.9881 111.508 90.0869Z" fill="#BCBCBB"/>
<path d="M43.3555 85.4466C43.3555 86.3227 43.3465 87.2302 43.0095 88.0389C42.6726 88.852 41.9133 89.5529 41.0282 89.5574C40.1656 89.5619 39.4109 88.897 39.0694 88.1108C38.728 87.3245 38.728 86.4395 38.7774 85.5858C38.9751 82.2208 39.9545 76.8296 42.6232 74.5518C44.5865 76.232 43.36 82.998 43.3555 85.4466Z" fill="#BCBCBB"/>
<path d="M55.4687 27.7583C60.7251 28.877 66.1164 29.2094 71.4807 29.6093C72.2759 29.6677 73.107 29.7396 73.7854 30.1529C74.4638 30.5662 74.9311 31.4423 74.6121 32.1656C74.2662 32.9608 73.2418 33.172 72.3747 33.2753C66.7229 33.9492 60.7072 34.5737 55.5765 32.1252C53.8558 31.303 52.3058 30.1664 50.7738 29.0387C48.4421 27.3225 44.2054 25.2873 42.7812 22.7983C46.7887 25.0672 50.9131 26.8553 55.4687 27.7583Z" fill="#BCBCBB"/>
<path d="M21 25.7693L29.3879 21.8068L38.1532 16.3931L40.0626 20.2972L31.6612 26.7353L21.1617 29.6555L21 25.7693Z" fill="#EB584A"/>
<path d="M118.865 65.2067C118.798 64.9641 118.708 64.717 118.564 64.5103C117.778 63.3602 116.992 62.21 116.174 61.0824C115.379 59.9861 114.426 58.9843 113.744 57.8251C112.176 55.1655 110.657 52.4743 109.251 49.7293C107.4 46.1172 105.711 42.4286 103.873 38.8075C103.343 37.7652 102.606 36.8083 101.856 35.8962C101.537 35.5099 100.966 35.2134 100.463 35.119C99.9061 35.0112 99.5556 34.7551 99.2007 34.3732C98.3156 33.4073 97.4081 32.4998 96.2085 31.8528C93.2344 30.2444 89.9951 29.885 86.72 29.7188C83.2381 29.5436 79.7473 29.5076 76.2609 29.4088C75.4073 29.3863 74.5582 29.3549 73.7046 29.3189C71.4987 29.2201 69.2838 29.1931 67.0823 28.9954C64.198 28.7349 61.3227 28.3755 58.4563 27.9711C57.2433 27.8004 56.0572 27.4275 54.8666 27.122C54.6824 27.0726 54.4488 26.9243 54.3859 26.7671C54.1838 26.2729 53.7704 26.2774 53.3481 26.183C52.3552 25.9629 51.3803 25.6843 50.3964 25.4282C50.1493 25.3653 49.9067 25.28 49.6551 25.244C46.2676 24.7993 43.5495 23.0022 40.9437 20.9849C40.6113 20.7289 40.2743 20.4683 40.0542 20.2976C40.171 19.6192 40.2474 19.1789 40.3417 18.6308C39.6319 18.7206 39.3039 18.4196 39.0568 17.9164C38.8007 17.3863 38.4458 16.9011 38.1448 16.3934C37.8887 15.9621 37.691 15.7195 37.4844 15.6386C36.1455 13.6394 34.9819 11.0695 33.6521 8.52217C32.3177 5.97031 30.8082 3.43193 28.7146 1.50007C28.5978 1.39224 28.4361 1.3608 28.2923 1.39674C27.8655 0.960944 27.4027 0.682396 26.8591 0.525152C26.1403 0.318487 25.39 0.152257 24.6442 0.0983444C21.3106 -0.153247 18.0085 0.0624027 14.7692 0.925003C13.8168 1.18109 13.1608 1.80557 12.6711 2.60078C12.4375 2.97817 12.5319 3.3286 13.0575 3.39599C13.5562 2.93774 13.9695 2.28629 14.5446 2.07963C15.8385 1.61688 17.1908 1.23949 18.5521 1.07326C20.2503 0.862105 21.9845 0.907032 23.7007 0.817178C25.0485 0.749787 26.2751 1.11819 27.3982 1.80557C27.825 2.06615 28.2159 2.35818 28.5978 2.67267C30.305 4.41584 31.6349 6.64422 32.8344 8.93999C34.1193 11.3975 35.2605 13.9224 36.6173 15.9891C36.5634 16.0385 36.5094 16.0789 36.4465 16.1373C35.858 16.6854 35.3279 17.3279 34.6585 17.7547C32.3762 19.2193 30.2511 20.9131 27.8116 22.1665C25.992 23.101 24.1994 23.9996 22.1822 24.3635C22.1463 23.2627 21.7599 22.189 21.1219 21.2904C20.4884 20.4009 19.6034 19.691 18.5521 19.3092C18.5386 19.2642 18.5251 19.2193 18.5072 19.1699C18.3454 19.1834 18.2017 19.1519 18.1118 19.2058C16.737 20.0235 15.2275 20.3245 13.6505 20.2886C11.5569 20.2392 9.46334 20.1583 7.36974 20.0415C6.79018 20.01 6.19265 19.8797 5.65802 19.6641C5.17281 19.4664 4.6831 19.1564 4.33716 18.77C3.26341 17.5795 2.895 15.998 2.07733 14.7715C2.71979 13.6618 3.27239 12.6869 3.84746 11.721C4.32818 10.9123 4.65165 10.0901 4.34615 9.13318C4.32818 9.08376 4.41803 8.9984 4.48991 8.8771C5.6715 8.60753 6.9025 8.35594 8.12002 8.04595C9.01407 7.82131 9.90812 7.56972 10.7707 7.25074C11.9613 6.80596 12.9272 5.15713 12.8284 3.87222C12.8239 3.84077 12.77 3.81831 12.6666 3.72396C12.5319 3.80932 12.3162 3.87671 12.2353 4.01599C12.0242 4.3754 11.8445 4.75728 11.7052 5.14815C11.3817 6.06017 10.7168 6.56335 9.80928 6.80147C8.8748 7.04407 7.9493 7.30914 7.00583 7.52928C5.41541 7.89769 3.81601 8.20768 2.23008 8.59406C0.756474 8.94898 0.176915 9.6139 0.0286558 11.0965C-0.0252567 11.6266 -0.00728592 12.1882 0.11851 12.7049C0.702562 15.0815 1.83472 17.2021 3.29485 19.1654C3.8205 19.8752 4.48542 20.3515 5.35251 20.4818C6.38584 20.639 7.43264 20.7064 8.46596 20.8636C10.8022 21.2186 13.1474 21.1691 15.4926 20.9939C16.4091 20.9265 17.3121 20.7199 18.1208 20.2212C18.1477 20.2032 18.1702 20.1852 18.1972 20.1718C19.0643 20.4773 19.8235 21.0748 20.3671 21.8341C20.9332 22.6293 21.2657 23.5952 21.2657 24.5477C21.2657 24.6016 21.2612 24.6555 21.2567 24.7049C21.1983 24.7408 21.1354 24.7768 21.068 24.8172C21.1309 24.8532 21.1893 24.8936 21.2477 24.934C21.2387 25.0508 21.2208 25.1677 21.1983 25.28C21.1534 25.5316 21.3196 25.7697 21.5712 25.8146C21.7419 25.8461 21.9037 25.7742 22.007 25.6529C22.6719 26.5829 22.6135 27.733 22.8516 28.7663C22.2765 29.0898 21.9845 28.937 21.8812 28.4698C21.7554 27.8947 21.67 27.3107 21.5757 26.7266C21.5083 26.3313 21.4813 25.909 21.0051 25.7742C20.8928 25.9 20.7805 25.9629 20.785 26.0213C20.9018 27.2343 21.0231 28.4518 21.1668 29.6604C21.2253 30.1591 21.6521 30.213 22.0384 30.2175C22.4877 30.2264 22.9415 30.168 23.4851 30.1366C23.9703 33.3624 24.0017 36.5207 24.0826 39.6387C24.4555 40.0116 24.7565 40.4069 24.9901 40.8427C25.2238 41.2875 25.3361 41.8042 25.5877 42.2399C27.7846 46.0453 29.8423 49.9494 32.8479 53.2336C33.1983 53.6155 33.5847 53.9659 33.9576 54.3298C34.0429 54.2579 34.1328 54.1861 34.2182 54.1187C33.5308 53.0809 32.8389 52.043 32.147 51.0007L32.1695 51.0232C32.174 51.0097 32.174 50.9917 32.174 50.9783C32.165 50.9873 32.156 50.9917 32.147 51.0007C31.0778 49.5945 31.0957 49.4552 32.4121 48.2332C32.6277 48.031 32.8434 47.8199 33.068 47.6312C33.6611 47.1415 34.2586 46.6563 34.8561 46.1711C34.7977 46.1037 34.7438 46.0318 34.6854 45.9644C33.1803 46.7147 32.1515 48.0984 30.7183 49.1318C30.3185 48.5881 29.9007 48.1119 29.5907 47.5728C28.5304 45.7443 27.4791 43.9067 26.4862 42.0423C26.1358 41.3818 25.9111 40.6405 25.7045 39.9127C25.4843 39.131 25.7135 38.192 24.8239 37.6484C24.7071 37.5765 24.7206 37.2575 24.7116 37.0509C24.6083 34.6967 24.5094 32.338 24.4061 29.8895C25.4349 29.4447 26.5266 28.8427 27.6948 28.4923C30.6914 27.5937 33.2073 25.855 35.7142 24.1164C37.0441 23.1954 38.1852 22.0093 39.4117 20.94C40.7775 21.8655 42.1837 22.8135 43.5855 23.7659C45.8049 25.2755 48.4556 25.6888 50.9265 26.5514C51.8565 26.8749 52.9707 26.6862 53.6806 27.6117C53.7884 27.751 54.0625 27.7914 54.2691 27.8363C55.5945 28.1284 56.9153 28.4518 58.2542 28.6854C59.5975 28.9191 60.9588 29.0404 62.3066 29.2336C65.8468 29.7412 69.3961 30.1456 72.9813 30.1995C74.9356 30.2264 76.8899 30.3792 78.8487 30.4825C79.6125 30.523 80.3763 30.6173 81.14 30.6263C83.4717 30.6622 85.8079 30.5679 88.1352 30.7117C90.9476 30.8824 93.6837 31.408 96.2041 32.8322C97.3138 33.4612 98.1269 34.3552 99.003 35.2044C99.5017 35.6851 99.4208 36.0041 98.8817 36.4758C98.1808 37.0913 97.462 37.6888 96.7836 38.3268C96.577 38.52 96.4826 38.83 96.3388 39.0861C96.4422 39.1624 96.5455 39.2388 96.6443 39.3197C96.7207 39.1669 96.7612 38.9782 96.878 38.8659C97.6732 38.1022 98.4459 37.3114 99.2906 36.6061C100.396 35.6851 100.697 35.7076 101.582 36.7993C102.193 37.5541 102.804 38.3403 103.222 39.2029C103.976 40.7529 104.614 42.3523 105.446 43.8798C107.301 47.2898 108.896 50.8345 110.756 54.2445C112.351 57.1737 114.063 60.0535 116.385 62.5155C116.987 63.1535 117.455 63.9352 117.917 64.69C118.137 65.0494 118.2 65.5032 118.344 65.9435C117.189 66.1187 116.763 66.0603 115.95 65.7458C113.195 64.672 111.367 62.4616 109.287 60.5477C110.015 59.7211 110.109 59.6177 109.493 58.8046C108.451 57.4253 107.261 56.1539 106.169 54.8105C104.758 53.0764 103.069 51.5443 102.072 49.4957C101.465 48.2422 100.876 46.9753 100.194 45.5286C100.194 46.189 100.036 46.7506 100.225 47.146C100.764 48.2692 100.477 49.325 100.382 50.4796C100.225 52.3485 100.346 54.2804 100.661 56.1359C101.227 59.5144 102.835 62.4976 104.614 65.4043C105.998 67.6642 108.114 69.1827 109.956 70.9843C110.051 71.0741 110.235 71.0786 110.608 71.191C110.073 70.1621 109.556 69.4073 108.856 68.7963C106.443 66.6982 104.731 64.097 103.289 61.289C101.685 58.1756 101.074 54.8375 100.975 51.3826C100.962 50.8974 101.052 50.4077 101.106 49.7742C101.721 50.6233 102.184 51.3691 102.75 52.0251C104.349 53.8895 105.998 55.7136 107.616 57.5646C108.056 58.0678 108.465 58.6024 108.936 59.1775C108.546 59.4245 108.24 59.6177 107.863 59.8603C108.011 60.1569 108.078 60.4624 108.267 60.6466C109.79 62.1202 111.259 63.6702 112.903 64.9955C114.184 66.0288 115.698 66.7656 117.423 66.8914C118.659 66.9723 119.184 66.3882 118.865 65.2067ZM23.3233 28.8382C23.0897 27.7195 22.8651 26.7446 22.6809 25.7562C22.5731 25.1587 22.8381 24.8756 23.557 25.0239C23.8804 26.0662 24.2174 27.1444 24.6038 28.3799C24.2174 28.5192 23.8175 28.6585 23.3233 28.8382ZM25.1609 28.2541C24.4735 27.122 24.3162 26.0168 24.1904 24.8487C27.9643 23.1414 31.4147 21.2051 34.6719 18.6847C35.238 19.7629 35.7232 20.6794 36.2803 21.7307C33.1264 24.8756 29.375 26.8974 25.1609 28.2541ZM35.4312 18.9497C35.3593 18.7745 35.3728 18.5499 35.4132 18.3567C35.4267 18.2758 35.6109 18.2309 35.8176 18.1096C36.195 19.125 36.9048 19.9786 36.8329 21.1197C36.1276 20.5267 35.7592 19.745 35.4312 18.9497ZM37.4215 20.4773C37.0351 19.5383 36.6802 18.7521 36.3837 17.9479C36.15 17.3189 36.6128 17.0493 37.071 16.8067C38.8052 18.177 38.9625 19.1205 37.4215 20.4773Z" fill="black"/>
<path d="M112.544 80.873C112.337 77.7595 111.924 74.655 112.166 71.5191C112.189 71.2136 112.068 70.8991 112.014 70.5847C111.888 70.5577 111.762 70.5352 111.641 70.5128C111.519 70.7958 111.322 71.0699 111.295 71.3619C111.227 72.0313 111.191 72.7142 111.236 73.3836C111.434 76.3308 111.695 79.278 111.865 82.2297C111.982 84.2515 112.032 86.2777 112.045 88.2994C112.054 89.3148 111.933 89.481 110.904 89.6517C109.565 89.8718 108.208 89.9797 106.852 90.074C105.98 90.1324 105.297 89.7101 104.78 89.0227C104.268 88.3398 104.246 87.7603 104.911 87.2526C105.391 86.8842 106.016 86.6236 106.618 86.5023C107.849 86.2507 107.925 86.2238 107.844 84.9703C107.755 83.5371 107.624 82.1084 107.575 80.6753C107.53 79.4533 107.539 78.2267 107.588 77.0047C107.624 76.1736 107.242 75.7063 106.555 75.284C104.277 73.8913 102.076 72.3638 99.762 71.0249C97.1922 69.5379 95.0447 67.5655 92.9151 65.5573C92.7085 65.3596 92.5378 65.126 92.3491 64.9104C92.8882 63.7423 94.0204 63.257 94.847 62.4618C93.643 62.7539 92.8073 63.5895 91.8459 64.4341C91.4999 63.9759 91.1899 63.5625 90.8305 63.0818C91.9986 62.026 93.0634 61.0691 94.1282 60.1121C94.0563 60.0358 93.9844 59.9549 93.917 59.8785C92.7669 60.84 91.6212 61.8014 90.4217 62.8033C90.1252 62.4484 89.905 62.1429 89.6445 61.8778C89.4108 61.6442 89.1278 61.2847 88.8627 61.2803C88.0675 61.2713 87.9058 60.7052 87.6677 60.1795C86.4771 57.5558 85.4932 54.8647 84.9046 52.0343C84.8283 51.6659 84.7564 51.266 84.5587 50.956C83.1166 48.6872 80.5198 47.6494 77.7882 48.3547C75.9821 48.822 74.1761 49.3611 72.4419 50.0395C69.5126 51.1896 66.6508 52.5015 63.744 53.7056C60.7833 54.9321 57.6833 55.6689 54.4621 56.2215C54.17 55.5745 53.7522 55.2016 52.9795 55.4847C50.787 56.2934 48.5137 56.536 46.191 56.3473C45.9349 56.3248 45.6653 56.2933 45.4272 56.3562C45.2295 56.4102 45.0678 56.5989 44.8477 56.7561C45.3194 57.3267 45.863 57.3222 46.4156 57.3446C48.3475 57.421 50.2389 57.2054 52.1034 56.7112C52.5437 56.5944 53.0199 56.4057 53.3973 56.8774C53.9139 57.5154 54.5789 57.43 55.2707 57.2728C56.2232 57.0571 57.1891 56.8819 58.1416 56.6528C59.5433 56.3113 60.9585 56.0193 62.3243 55.561C63.7665 55.0758 65.1457 54.4064 66.5654 53.8448C68.4209 53.108 70.2899 52.3937 72.1543 51.6748C73.6235 51.1088 75.0611 50.4483 76.5707 50.0081C80.7983 48.7726 83.6602 50.6191 84.7429 54.0784C85.2955 55.8486 85.8391 57.6232 86.4726 59.3664C86.8904 60.5075 87.461 61.5903 87.9597 62.691C88.4179 62.655 88.7459 62.6281 89.002 62.6101C89.7837 63.4772 90.4756 64.3308 91.2528 65.1035C93.5082 67.3454 95.7635 69.5828 98.4996 71.281C100.993 72.822 103.433 74.4439 105.908 76.0163C106.344 76.2904 106.577 76.6139 106.591 77.1395C106.663 79.7543 106.753 82.3645 106.834 84.9793C106.838 85.1006 106.775 85.2219 106.73 85.4016C106.196 85.5858 105.598 85.7071 105.09 85.9812C103.311 86.9516 102.781 88.4387 104.349 89.9258C104.974 90.5188 105.719 90.8827 106.636 90.9052C108.352 90.9501 110.037 90.8018 111.695 90.3481C112.912 90.0156 112.989 89.9932 112.935 88.7082C112.845 86.089 112.715 83.4787 112.544 80.873Z" fill="black"/>
<path d="M46.3221 53.9914C47.1128 53.5152 47.9305 53.0839 48.7347 52.6346C47.1937 52.6796 46.1154 53.7533 44.7002 54.3823C44.6373 52.3291 46.5557 52.2842 47.6654 51.2868C46.394 51.206 45.7381 52.1719 44.817 52.4504C44.4936 51.1386 45.136 49.8177 44.5655 48.6227C44.4576 48.6137 44.3453 48.6047 44.2375 48.5957C44.0488 49.4134 43.7029 50.231 43.7118 51.0487C43.7298 52.428 43.5816 53.7983 43.5905 55.1775C43.6085 58.3359 43.3255 61.4943 43.2132 64.6571C43.1143 67.5235 43.0784 70.3898 43.0245 73.2562C43.0155 73.7639 43.0469 74.267 43.0469 74.7747C43.0469 77.2637 43.0604 79.7481 43.0289 82.2371C43.0065 83.9623 42.9166 85.6875 42.8627 87.4082C42.8447 87.9743 42.5527 88.3067 42.054 88.5898C40.4906 89.4704 38.7699 89.3625 37.0806 89.4614C36.8784 89.4749 36.6538 89.394 36.4651 89.3086C35.7103 88.9672 35.279 88.3786 35.1308 87.5699C34.987 86.7792 35.3958 86.2401 36.0293 85.9121C36.7751 85.5258 37.5748 85.2382 38.3655 84.9372C38.7115 84.8069 39.0933 84.7575 39.5246 84.6587C39.7133 82.6909 38.361 81.0151 38.5767 79.2495C39.3045 78.5306 39.929 77.9016 40.5669 77.2906C41.2184 76.6617 41.8788 76.0506 42.5347 75.4307C42.4763 75.3678 42.4179 75.3049 42.355 75.242C40.9264 76.0282 40.0952 77.5647 38.6531 78.3734C37.9702 76.6302 38.1049 75.9383 39.3225 74.8376C39.9155 74.303 40.531 73.7953 41.1375 73.2741C39.9245 73.3999 39.318 74.4288 38.2712 74.9589C38.1858 74.6309 38.0735 74.3659 38.051 74.0918C37.7635 70.7268 37.4535 67.3573 37.2154 63.9877C37.0132 61.1259 36.0248 58.4707 35.1667 55.7751C35.0544 55.4201 34.9061 54.9529 34.2188 54.9574C34.2547 55.2809 34.2412 55.5594 34.3266 55.8065C34.4658 56.2019 34.695 56.5658 34.8387 56.9611C36.209 60.6946 36.6044 64.5897 36.8335 68.5209C37.0222 71.7242 37.2513 74.923 37.5568 78.1173C37.6916 79.4965 37.9971 80.8713 38.379 82.2057C38.5497 82.8122 38.6396 83.3243 38.4644 83.7826C37.3636 84.3037 36.3438 84.735 35.3779 85.2607C34.6231 85.674 34.2098 86.3659 34.2547 87.2555C34.3356 88.7965 35.3419 90.1083 36.8964 90.2162C38.3116 90.315 39.7807 90.1083 41.1869 89.8433C41.9462 89.6995 42.6516 89.1873 43.3255 88.7515C43.613 88.5673 43.905 88.181 43.9455 87.8575C44.0847 86.7298 44.1611 85.5887 44.1746 84.452C44.1971 81.5812 44.1566 78.7148 44.1701 75.844C44.1791 72.9327 44.1701 70.0169 44.2644 67.1057C44.3768 63.6463 44.7047 60.1869 44.7047 56.732C44.7137 55.3348 45.2978 54.6114 46.3221 53.9914Z" fill="black"/>
<path d="M65.358 45.1732C65.1109 42.9672 64.5942 41.4846 63.7227 40.8018C64.1405 43.0841 64.5224 45.1821 64.9402 47.46C65.5647 46.7276 65.4434 45.9324 65.358 45.1732Z" fill="black"/>
<path d="M84.6289 35.1808C84.2335 34.8708 83.8292 34.6237 83.2227 34.8259C84.4132 36.2366 85.5499 37.5799 86.8438 39.1164C86.691 37.6338 85.7565 36.0748 84.6289 35.1808Z" fill="black"/>
<path d="M77.0352 44.3384C79.5017 43.8532 81.7166 42.8872 83.4822 41.0542C82.3994 41.5529 81.3571 42.1369 80.3193 42.7255C79.2546 43.3275 77.8394 43.2017 77.0352 44.3384Z" fill="black"/>
<path d="M33.8297 30.998C32.0551 31.9235 29.9884 34.7135 30.0199 36.2365C31.3812 34.3631 32.6032 32.6783 33.8297 30.998Z" fill="black"/>
<path d="M66.7821 45.5319C67.2 42.0321 67.0023 40.572 65.8477 39.7812C65.9779 40.6304 66.0858 41.2414 66.1666 41.8524C66.2475 42.4769 66.3239 43.1059 66.3598 43.7348C66.3958 44.3099 66.2071 44.9299 66.7821 45.5319Z" fill="black"/>
<path d="M32.2635 50.5462C32.1781 50.6405 32.1826 50.8158 32.1602 50.9685C33.3552 49.9801 34.5548 48.9962 35.7498 48.0078C34.2762 48.4661 33.2519 49.4859 32.2635 50.5462Z" fill="black"/>
<path d="M98.0718 34.9531C97.0789 35.7124 96.1893 36.575 95.457 37.5948C95.5244 37.6622 95.5963 37.7296 95.6637 37.797C96.5353 36.9164 97.4069 36.0404 98.2829 35.1598C98.2111 35.0879 98.1437 35.0205 98.0718 34.9531Z" fill="black"/>
<path d="M18.3984 5.10791C18.4748 5.58863 18.4389 6.07384 18.6366 6.43326C18.9645 7.03079 18.969 7.62383 18.9016 8.24831C18.8252 8.9941 18.7623 9.73989 18.65 10.4812C18.5512 11.1281 18.6141 11.7526 18.978 12.2828C19.589 13.1723 20.2225 14.0574 20.9323 14.8706C21.3367 15.3378 21.9027 15.7332 22.5991 15.5175C23.1966 15.3333 23.8256 15.1401 24.3243 14.7897C26.2157 13.4778 27.923 11.9458 29.4775 10.2566C29.8054 9.89714 30.0795 9.44787 30.2412 8.9941C30.5602 8.08208 30.0615 7.0218 29.0012 6.43326C29.1225 6.90499 29.163 7.25992 29.3022 7.56991C29.7246 8.50889 29.4101 9.31309 28.7946 9.9825C28.0083 10.8406 27.1457 11.6448 26.2652 12.4086C25.6047 12.9791 24.8724 13.4688 24.1536 13.972C23.273 14.583 21.8983 14.574 21.3816 13.9136C20.8694 13.2577 20.501 12.5164 20.5999 11.6673C21.0941 11.3707 21.5299 11.1057 22.1723 10.7148C21.1749 10.7373 20.4786 11.7751 19.7148 10.8631C19.8406 10.4408 19.9933 10.1173 20.0203 9.78033C20.0518 9.4299 19.9394 9.06599 19.9349 8.71106C19.926 8.00571 19.9933 7.29586 19.9529 6.5905C19.9035 5.7908 19.4273 5.34153 18.3984 5.10791Z" fill="black"/>
<path d="M12.5735 7.69612C12.578 8.36104 12.9419 8.96756 13.472 9.08437C13.9393 9.1877 14.4649 8.84176 14.8378 8.17684C14.9007 8.06901 14.9457 7.9522 14.9951 7.83539C15.2062 7.30975 15.3096 6.74367 14.8917 6.30787C14.447 5.84063 13.9348 6.26744 13.4945 6.4157C12.9644 6.5999 12.5286 6.93685 12.5735 7.69612Z" fill="black"/>
<path d="M23.335 2.26446C22.1624 2.11171 20.5585 2.57895 19.9609 3.2259C21.3267 3.44155 22.2882 2.70025 23.335 2.26446Z" fill="black"/>
<path d="M14.5512 4.88712C15.0993 4.94552 15.6609 4.91408 16.218 4.91408C16.2315 4.80176 16.2405 4.68944 16.2539 4.58161C15.7463 4.43785 15.2476 4.27162 14.7354 4.17278C14.5827 4.14133 14.394 4.28959 14.2188 4.35698C14.3266 4.54118 14.4209 4.87364 14.5512 4.88712Z" fill="black"/>
<path d="M8.17407 12.4118C8.14711 12.4567 8.37624 12.7308 8.44363 12.7128C8.60986 12.6723 8.78058 12.5466 8.88392 12.4073C8.91986 12.3624 8.74914 12.1692 8.62334 11.958C8.42117 12.1512 8.25494 12.259 8.17407 12.4118Z" fill="black"/>
<path d="M6.2608 12.1297C6.08109 12.2285 5.94181 12.3992 5.78906 12.543C5.90138 12.6284 6.03167 12.7946 6.13051 12.7811C6.29674 12.7497 6.445 12.6059 6.67413 12.4621C6.47645 12.3049 6.30572 12.1072 6.2608 12.1297Z" fill="black"/>
<path d="M6.53558 15.0008C6.67485 14.9514 6.78267 14.8346 6.90847 14.7448C6.83209 14.6729 6.75122 14.5965 6.61644 14.4707C6.49065 14.601 6.39181 14.7043 6.29297 14.8077C6.37384 14.875 6.48166 15.0188 6.53558 15.0008Z" fill="black"/>
<path d="M13.4668 7.60556C13.6902 7.60556 13.8712 7.42453 13.8712 7.20122C13.8712 6.97791 13.6902 6.79688 13.4668 6.79688C13.2435 6.79688 13.0625 6.97791 13.0625 7.20122C13.0625 7.42453 13.2435 7.60556 13.4668 7.60556Z" fill="white"/>
<path d="M0.996084 10.8987C1.65202 10.373 2.44723 10.0181 3.27838 9.87435C3.40418 9.85188 3.48954 9.73507 3.46707 9.60928C3.44461 9.48348 3.32331 9.39812 3.19751 9.42058C2.28998 9.57783 1.42289 9.9642 0.704058 10.5393C0.605218 10.6201 0.587247 10.7639 0.668116 10.8627C0.753477 10.9616 0.897244 10.9751 0.996084 10.8987Z" fill="white"/>
</svg>
