<svg width="130" height="91" viewBox="0 0 130 91" fill="none" xmlns="http://www.w3.org/2000/svg">
<path d="M128.947 65.9048C129.778 63.5731 128.278 61.0527 126.418 59.3499C124.558 57.6427 122.262 56.3263 120.802 54.3001C117.751 50.0545 119.221 44.0298 116.615 39.5236C113.699 34.4738 105.63 32.5105 103.159 29.7026C101.609 27.9369 99.547 26.9575 97.1659 26.6026C85.696 24.9043 75.5066 25.4525 61.3321 23.0129C49.9071 21.0496 43.5589 14.3689 34.7307 5.14541C33.8502 4.2289 30.4312 2.80022 29.3305 2.1353C28.2972 1.51081 27.0482 1.30864 25.8397 1.11995C21.2571 0.4101 15.6412 0.0821328 12.9321 3.67181C12.3481 4.44455 11.9572 5.34759 11.2923 6.05743C9.28404 8.20495 5.5506 7.89945 3.18743 9.68754C0.105433 12.0148 0.918613 17.0825 3.9467 19.4861C6.97029 21.8852 11.2698 22.1773 15.1785 21.7325C17.2451 21.4989 19.4016 21.099 21.3604 21.7684C28.2073 24.1136 21.7423 33.1035 23.0048 37.5109C23.4001 38.8991 24.2807 40.1122 25.1388 41.2937C28.8453 46.384 32.5922 51.5102 37.3051 55.7737C39.9423 58.1594 42.9165 60.3159 44.7674 63.299C46.9105 66.7539 47.2968 70.9097 47.6338 74.9082C47.8809 77.824 48.0516 81.0138 46.268 83.3949C45.3605 84.6035 43.9363 85.6772 43.9543 87.1643C43.9722 88.4672 45.1943 89.523 46.5151 89.8734C49.4668 90.6506 52.5758 88.5391 53.8382 85.8749C55.1007 83.2107 54.9749 80.1647 54.8266 77.2489C54.6649 74.0411 54.5031 70.8333 54.3414 67.63C54.3189 67.1897 54.301 66.727 54.4942 66.3271C54.8221 65.6442 55.6443 65.3387 56.3946 65.1186C62.3025 63.3844 68.462 63.1463 74.6754 63.1193C75.0887 62.8947 75.529 62.7015 75.9828 62.5398C77.4384 62.0321 78.957 61.7356 80.4575 61.3717C83.845 59.5027 87.4302 58.0246 91.5006 58.9007C94.4568 59.5386 96.9233 61.6053 98.4014 64.0763C98.8462 64.8221 99.1607 65.6757 99.4931 66.4754C99.5965 66.727 99.866 67.4233 99.7941 67.293C100.333 68.4791 100.94 69.6293 101.452 70.8288C101.829 71.0085 102.211 71.1792 102.598 71.341C106.762 73.0662 111.313 73.9512 115.24 76.1212C116.929 77.0557 118.542 78.3002 119.275 80.0254C120.002 81.7506 119.562 84.0284 117.882 84.9719C117.441 85.219 116.907 85.3942 116.66 85.8255C116.197 86.6342 117.114 87.5417 117.994 87.9236C119.868 88.7322 122.082 88.8041 124.01 88.1078C124.634 84.9763 125.259 81.8404 125.883 78.7045C126.05 77.8734 126.211 77.0063 125.964 76.1976C125.632 75.1149 124.643 74.3556 123.731 73.6368C120.074 70.7704 116.727 67.4323 114.593 63.4024C112.464 59.3724 111.646 54.5787 113.084 50.2792C117.01 56.551 122.491 61.9467 128.947 65.9048Z" fill="white"/>
<path d="M32.7708 10.791C33.4986 10.7236 34.0961 11.4469 34.1051 12.1433C34.1141 12.8397 33.7053 13.4776 33.2515 14.0257C32.326 15.1534 24.1223 20.1179 24.8816 17.1302C25.1511 16.0654 27.7524 14.9512 28.5881 14.3582C29.6978 13.572 31.4679 10.9123 32.7708 10.791Z" fill="#BCBCBB"/>
<path d="M24.2305 32.3568C25.2458 32.7252 26.369 32.3478 27.3799 31.9749C28.7142 31.4807 30.053 30.9865 31.3874 30.4923C33.755 29.6163 36.1721 28.7132 38.0905 27.1273C40.0089 25.5414 41.3612 23.1153 40.9254 20.7342C39.4877 20.5006 38.0321 21.0981 36.8595 21.9203C35.6869 22.7424 34.703 23.7892 33.5573 24.6473C31.612 26.103 29.478 26.6825 27.0968 27.0959C25.4076 27.3879 25.5334 26.9476 24.8505 28.5111C24.3563 29.6297 24.3024 31.1573 24.2305 32.3568Z" fill="#BCBCBB"/>
<path d="M58.2574 26.5704C62.184 27.8014 66.1645 29.0459 70.2933 29.2481C72.935 29.3784 75.5813 29.0773 78.2095 28.7808C82.81 28.2552 87.4106 27.734 92.0111 27.2084C93.0714 27.0871 94.1811 26.9523 95.0571 26.3727C95.1425 25.7977 94.3024 25.5685 93.6914 25.573C85.0788 25.591 76.4663 25.2136 67.8897 24.4409C64.0844 24.0994 59.3132 22.6932 55.5438 23.111C50.3053 23.6951 56.5277 26.0313 58.2574 26.5704Z" fill="#BCBCBB"/>
<path d="M52.9095 88.2235C51.692 88.52 50.4699 88.8165 49.2524 89.1086C48.9784 89.1759 48.6863 89.2388 48.4213 89.158C48.1607 89.0771 47.9675 88.8704 47.8372 88.6413C47.2666 87.6574 47.7204 86.4399 48.1787 85.4021C49.796 81.7495 51.1888 77.7914 53.1566 74.332C53.1701 75.59 53.4756 88.0842 52.9095 88.2235Z" fill="#BCBCBB"/>
<path d="M57.2734 59.8975C68.5456 58.1139 79.8987 56.3258 91.3192 56.6223C90.8789 58.5002 88.2551 58.7788 86.2379 58.8911C80.4648 59.2146 75.069 61.5598 69.552 63.2131C67.1349 63.9409 64.6729 64.5339 62.2019 65.0596C60.4543 65.4325 57.3318 66.641 55.5797 66.1648C51.7923 65.1315 54.4071 60.3512 57.2734 59.8975Z" fill="#BCBCBB"/>
<path d="M124.65 85.4476C124.605 86.3371 124.6 87.2671 124.187 88.0668C123.774 88.8665 122.799 89.491 121.914 89.2035C120.858 88.862 120.593 87.5636 120.602 86.4989C120.611 84.6658 121.172 77.7201 123.531 77.1271C126.766 76.3184 124.722 84.1087 124.65 85.4476Z" fill="#BCBCBB"/>
<path d="M116.522 56.2683C115.376 55.0463 114.222 53.8153 113.395 52.3776C112.569 50.9444 112.088 49.2686 112.393 47.6558C113.184 47.7366 113.719 48.424 114.204 49.026C115.803 51.0253 117.816 52.6651 119.766 54.3364C121.316 55.6663 124.353 57.661 125.009 59.6333C125.75 61.8617 124.205 62.6165 122.385 61.6056C120.121 60.3477 118.243 58.1013 116.522 56.2683Z" fill="#BCBCBB"/>
<path d="M42.1023 12.521C42.7807 13.4869 43.3738 14.5023 43.8725 15.5581C44.0252 15.8815 44.178 16.2275 44.16 16.5824C44.1465 16.9508 43.9533 17.2923 43.7557 17.6112C41.8058 20.7022 38.4543 22.8048 34.9005 24.0358C31.3468 25.2668 26.9035 28.0208 23.799 26.1474C23.8709 26.1384 23.4441 23.6449 23.516 23.3844C23.7361 22.5622 24.0911 22.4993 24.8908 22.095C26.8676 21.1021 28.8803 20.1856 30.8391 19.1567C34.7028 17.1305 38.4677 14.9156 42.1023 12.521Z" fill="#EB584A"/>
<path d="M129.084 63.2842C128.446 62.17 127.79 61.0289 126.932 60.0674C125.468 58.4231 123.689 57.0798 122.431 55.2108C120.175 51.8637 118.167 48.4268 117.053 44.5811C116.312 42.0247 115.409 39.5402 113.841 37.3343C113.117 36.319 112.282 35.353 111.352 34.5039C110.633 33.848 109.739 33.3178 108.84 32.8955C107.798 32.4058 106.553 32.8596 105.844 33.9288C106.207 33.866 106.486 33.8884 106.679 33.7761C107.654 33.21 108.589 33.3942 109.415 33.9873C110.287 34.6162 111.145 35.2901 111.864 36.0674C113.504 37.8285 114.559 39.9266 115.377 42.1325C116.024 43.8847 116.514 45.6908 117.259 47.4025C118.131 49.4017 119.151 51.3426 120.198 53.2655C121.555 55.7544 123.235 58.0188 125.571 59.7979C126.762 60.7054 127.543 61.9544 128.199 63.2572C128.28 63.419 128.276 63.6167 128.339 63.9356C126.178 64.0525 124.412 63.3291 122.651 62.2374C123.316 61.6489 123.015 61.1726 122.529 60.7323C121.68 59.9596 120.791 59.2228 119.982 58.4141C118.863 57.2954 117.781 56.1408 116.716 54.9772C116.163 54.3752 115.678 53.7237 115.161 53.0947C115.543 52.6365 115.858 52.2591 116.172 51.8817L116.069 51.7694C115.656 52.0345 115.238 52.2995 114.739 52.623C114.541 52.2905 114.375 52.012 114.11 51.5627C114.672 51.0865 115.202 50.6417 115.84 50.0981C114.937 50.1161 114.622 50.8709 113.859 51.118C113.09 49.2804 112.327 47.4564 111.567 45.6279C111.356 45.8031 111.298 45.9154 111.311 46.0187C111.671 48.31 111.19 50.5743 111.1 52.8476C111.06 53.89 111.033 54.9323 111.078 55.9746C111.113 56.9001 111.271 57.8256 111.352 58.7511C111.459 60.0045 111.769 61.1771 112.506 62.2554C112.991 62.9652 113.297 63.7784 113.737 64.5152C114.276 65.4182 114.784 66.3572 115.453 67.1704C117.906 70.1446 120.818 72.674 124.079 74.8215C124.722 75.2483 124.982 75.6886 124.987 76.4164C125.014 79.7051 125.09 82.9937 125.144 86.2824C125.158 86.9653 125.144 87.6527 125.144 88.2771C123.702 88.4164 122.413 88.5377 121.128 88.659C120.162 88.7534 119.268 88.5782 118.468 88.03C117.754 87.5358 117.372 86.5474 117.659 85.887C117.929 85.2715 119.29 84.6605 120.027 84.8896C120.373 84.9975 120.714 85.1008 120.881 84.7773C121.02 84.5078 121.029 84.1349 120.984 83.8249C120.881 83.1465 120.674 82.4771 120.571 81.7987C120.445 80.9945 120.436 80.1768 120.288 79.3771C119.969 77.6699 119.151 77.0184 117.349 76.7938C116.554 76.6949 115.714 76.5736 115.004 76.2412C113.499 75.5403 111.918 75.0821 110.327 74.6283C108.171 74.0128 106.194 73.0648 104.325 71.8473C103.175 71.097 102.452 69.7762 100.929 69.5246C100.87 69.5156 100.821 69.4168 100.771 69.3539C100.394 68.8552 100.016 68.361 99.5627 67.7634C100.003 67.3995 100.407 67.0985 100.776 66.7571C101.113 66.4471 101.647 66.2943 101.836 65.6294C100.794 66.1281 100.133 66.9278 99.1494 67.1614C98.8169 66.7391 99.0685 66.5279 99.3426 66.3392C100.169 65.7777 101.009 65.2295 101.832 64.668C102.155 64.4433 102.613 64.3085 102.708 63.6391C101.23 64.5961 99.9042 65.4542 98.498 66.3662C97.8106 65.5306 97.1232 64.8162 96.5751 64.012C96.0989 63.3112 95.6631 62.5923 95.2318 61.8645C95.2497 61.8465 95.2677 61.8331 95.2857 61.8151C95.2138 61.7297 95.1329 61.6489 95.0565 61.5635C94.9757 61.4242 94.8903 61.2805 94.8094 61.1412C94.459 60.8626 94.14 60.5526 93.8525 60.2157C93.8345 60.2292 93.8121 60.2471 93.7896 60.2651C93.7402 60.2202 93.6953 60.1708 93.6458 60.1258C92.9315 59.4699 92.1093 59.0386 91.1434 58.8229C90.8289 58.7511 90.5144 58.6927 90.2044 58.6477C90.6986 58.0682 91.0401 57.4032 91.058 56.8866C90.3931 57.4032 89.9214 57.9603 89.5799 58.5758C88.7308 58.4995 87.8727 58.5354 86.9876 58.7196C86.9158 58.7331 86.8394 58.7511 86.7675 58.7645C87.5762 58.1221 88.5152 57.1562 89.0004 56.4238C89.1307 56.2307 89.1576 55.9746 89.2565 55.6691C88.7084 55.8488 86.9832 57.6908 86.1475 58.8903C83.9551 59.3441 81.7716 59.7889 79.6555 60.5481C76.5735 61.6534 73.4601 62.6777 70.3511 63.7065C69.9558 63.8368 69.4616 63.9132 69.0797 63.8009C68.7383 63.6975 68.5046 63.6841 68.1946 63.8233C67.8712 63.9671 67.5207 64.0749 67.1658 64.1513C63.7154 64.8836 60.265 65.6114 56.7293 65.8855C56.0239 65.9394 55.3096 65.9753 54.4964 65.6204C54.4829 65.571 54.4694 65.5216 54.4604 65.4722C55.6106 64.6725 56.6709 63.9312 57.7311 63.1899C57.6817 63.1225 57.6323 63.0551 57.5784 62.9877C56.4911 63.6706 55.3949 64.358 54.2942 65.0498C54.2807 65.0498 54.2672 65.0498 54.2538 65.0498C54.2672 64.7533 54.2942 64.4748 54.3077 64.2007C54.3077 64.0435 54.3122 63.8862 54.3212 63.729C54.3212 63.7245 54.3212 63.7245 54.3212 63.72C54.6312 63.4055 54.9412 63.091 55.2512 62.7765C54.9412 62.9742 54.6267 63.1764 54.3122 63.3786C54.2897 63.2033 54.0291 62.9158 53.9123 62.9293C53.7012 62.9517 53.2294 63.3651 53.0991 63.702C53.0362 63.9042 52.9868 64.1109 52.9419 64.322C52.9419 64.7488 52.9374 65.1667 52.9509 65.589C52.9733 65.6743 53.0138 65.9484 53.0587 66.2C53.0407 66.6223 53.0273 67.0446 53.0273 67.4714C53.0183 69.2146 53.0857 70.9533 53.1126 72.6964C53.162 75.5223 53.2025 78.3527 53.2519 81.1787C53.2878 83.3441 53.171 85.5006 52.7577 87.5718C51.1358 88.4703 49.478 88.8747 47.6899 88.8657C46.5892 88.8612 45.8254 88.385 45.3447 87.4909C44.8326 86.5385 45.2459 85.4512 46.2657 84.9975C46.8498 84.7369 47.4428 84.4628 48.0583 84.2876C48.6424 84.1214 48.8176 83.8024 48.7996 83.2633C48.7637 82.2569 48.8356 81.2416 48.7322 80.2442C48.6154 79.139 49.177 78.501 50.0935 78.0113C50.5563 77.7642 51.019 77.5171 51.4818 77.27C51.4368 77.1936 51.3919 77.1128 51.3515 77.0364C50.5383 77.4093 49.7206 77.7777 48.7861 78.2045C48.6109 76.5062 50.0576 76.2547 51.2257 75.5942C50.0441 75.3381 49.5005 76.2412 48.5795 76.4523C48.4896 76.0749 48.4088 75.7155 48.3189 75.3561C47.9101 73.7028 47.5551 72.0315 47.0609 70.4007C46.7015 69.2146 46.0995 68.0959 45.7086 66.9188C44.8101 64.2187 43.3724 61.8106 41.463 59.6586C40.7217 58.8229 39.7648 58.203 38.5742 57.6728C38.6236 58.5219 39.1044 58.8813 39.5716 59.2273C40.8745 60.1932 41.8674 61.4063 42.739 62.7316C44.3249 65.1487 45.2144 67.8578 46.3062 70.477C47.0744 72.319 47.3979 74.2689 47.6809 76.2367C47.9864 78.3617 48.0404 80.4778 47.7708 82.6028C47.6495 83.5418 46.9576 84.0765 45.9333 84.027C45.7805 84.0181 45.6323 83.9731 45.4615 83.9417C45.1875 84.2786 44.9179 84.5707 44.6978 84.8941C44.5226 85.1502 44.4013 85.4422 44.2845 85.7298C43.8037 86.8664 44.0374 87.9627 45.0078 88.7758C45.8165 89.4542 46.7375 89.908 47.8831 89.8136C49.0153 89.7193 50.1564 89.7193 51.2886 89.6205C51.8052 89.5755 52.3174 89.4183 52.8161 89.2565C53.5394 89.0229 53.9348 88.5467 53.9483 87.774C53.9617 87.0416 54.0561 86.3093 54.101 85.577C54.1774 84.2607 54.3122 82.9488 54.2987 81.6324C54.2538 76.7893 54.1549 71.9506 54.0875 67.1075C54.0875 66.9503 54.11 66.793 54.1415 66.6268C54.1684 66.6268 54.1999 66.6268 54.2268 66.6313C56.4866 66.9682 58.724 66.7391 60.9434 66.3797C62.9247 66.0562 64.888 65.6474 66.8603 65.2835C67.1748 65.2251 67.5432 65.0768 67.7993 65.1756C68.6933 65.5261 69.4571 65.1262 70.2433 64.8926C71.3935 64.5511 72.5256 64.1603 73.6623 63.7874C74.5698 63.4909 75.4773 63.1988 76.3804 62.8799C77.8495 62.3632 79.2961 61.7926 80.7742 61.3119C82.14 60.8671 83.5328 60.4852 84.9255 60.1213C86.4036 59.735 87.9131 59.5193 89.4541 59.5597C90.7301 59.5912 91.9745 59.8113 92.927 60.647C93.3853 61.0468 93.8255 61.4736 94.2344 61.9184C94.4231 62.2733 94.6208 62.6238 94.8589 62.9428C96.8716 65.6609 98.9472 68.3385 101.018 71.0162C101.158 71.2004 101.531 71.416 101.688 71.3576C102.195 71.1689 102.434 71.4744 102.753 71.7035C104.756 73.1637 106.787 74.5834 109.289 75.2168C110.467 75.5178 111.63 75.8728 112.78 76.2591C114.425 76.8118 116.024 77.4946 117.803 77.6249C118.616 77.6833 119.164 78.218 119.281 78.9727C119.488 80.3475 119.591 81.7402 119.744 83.124C119.798 83.5912 119.537 83.8294 119.124 84.0046C118.571 84.2427 118.01 84.4808 117.493 84.7908C116.792 85.2131 116.388 86.2689 116.671 86.9293C117.174 88.0884 117.915 88.9735 119.344 89.2071C121.42 89.5441 123.473 89.1802 125.535 89.1487C125.993 89.1442 126.052 88.7354 126.038 88.358C125.962 86.2285 125.863 84.0989 125.818 81.9694C125.773 79.8398 125.769 77.7148 125.773 75.5852C125.778 74.9293 125.454 74.498 124.938 74.1296C123.994 73.4557 123.069 72.7638 122.13 72.0899C118.967 69.8121 116.55 66.9323 114.654 63.6391C114.595 63.5358 114.55 63.428 114.51 63.3201C113.899 61.6354 113.261 59.9641 112.686 58.2703C111.913 55.9925 111.85 53.6698 112.331 51.1449C114.474 54.5728 116.577 57.8301 120.072 60.0225C119.847 60.2876 119.686 60.4897 119.434 60.7863C119.879 61.1816 120.315 61.4377 120.562 61.8151C121.15 62.7136 121.977 63.2842 122.992 63.6301C124.178 64.0345 125.355 64.4703 126.568 64.7803C127.125 64.924 127.786 64.9106 128.352 64.7848C129.179 64.6096 129.493 63.9941 129.084 63.2842Z" fill="black"/>
<path d="M23.2586 26.4665C23.2497 26.516 23.2452 26.5699 23.2362 26.6193C23.2182 26.7046 23.2362 26.7855 23.2676 26.8619C23.3036 27.1944 23.4608 27.437 23.8876 27.4504C25.2264 27.4999 26.5743 27.6436 27.8547 27.109C29.8225 26.2913 31.7813 25.4467 33.7626 24.647C34.3017 24.4268 34.9576 24.4358 35.4563 24.1618C38.8034 22.3108 42.2134 20.5362 44.5586 17.4721C44.5676 17.4811 44.5765 17.4856 44.59 17.4946C45.3268 18.0786 46.158 18.492 47.07 18.811C48.2336 19.2153 49.2984 19.8982 50.471 20.2486C52.3624 20.8147 54.3122 21.2101 56.2351 21.6818C57.6368 22.0277 59.0476 22.3467 60.4358 22.7511C62.781 23.4295 65.1172 24.1213 67.6196 23.8518C67.8173 23.8293 68.0285 23.8832 68.2846 23.9057C68.3564 24.9794 69.2011 24.9705 69.9918 24.9884C71.1913 25.0199 72.3909 25.0379 73.5904 25.0244C74.8754 25.0109 76.1558 24.9525 77.4407 24.9121C78.7211 24.8716 80.0015 24.8132 81.282 24.7908C83.735 24.7458 86.1431 25.1502 88.5646 25.4512C92.1094 25.896 95.5778 26.6238 98.9608 27.7245C99.3741 27.8593 99.756 28.0614 100.282 28.2906C99.2573 29.1577 97.9858 29.3868 97.1772 30.2629C97.8106 30.0562 98.3767 29.7507 98.9563 29.4632C99.4684 29.2071 99.9851 28.951 100.515 28.7309C100.938 28.5556 101.216 28.7174 101.337 29.0903C101.009 29.3643 100.722 29.6114 100.434 29.854C100.92 29.7193 101.409 29.58 101.953 29.4272C103.552 30.5908 104.734 32.1318 105.893 33.7133C106.163 33.3269 106.473 32.963 106.819 32.635C106.652 32.644 106.477 32.662 106.293 32.6979C105.534 31.8308 104.774 30.9952 104.055 30.1281C103.139 29.0274 102.088 28.0704 100.713 27.5493C97.8196 26.4665 94.9039 25.4422 91.7859 25.0873C89.4812 24.8222 87.1899 24.4583 84.8851 24.2516C83.2003 24.1034 81.4931 24.0584 79.7994 24.1213C76.614 24.2382 73.4242 24.2786 70.2389 24.2337C70.1221 24.2337 70.0053 24.1753 69.8974 24.1438C69.8256 23.8653 69.7627 23.6092 69.6818 23.3037C68.8956 23.2992 68.1588 23.3306 67.422 23.2857C66.2673 23.2183 65.0947 23.1869 63.9626 22.9757C62.5429 22.7106 61.1636 22.2659 59.7574 21.9199C57.8345 21.4482 55.9027 20.9899 53.9753 20.5362C52.5331 20.1992 51.3111 19.2468 49.7701 19.1928C49.6218 19.1883 49.4826 19.0446 49.3298 18.9817C47.7664 18.3168 46.2928 17.526 44.891 16.605C44.9 16.5916 44.9045 16.5736 44.909 16.5601C44.909 16.5152 44.9135 16.4792 44.9135 16.4253C44.9045 16.2906 44.8955 16.1872 44.891 16.1019C44.8371 15.8503 44.7877 15.6032 44.7248 15.3561C44.1318 15.2437 43.8487 14.7855 43.5432 14.3542C43.0895 13.7117 42.6806 13.0423 42.2268 12.3999C42.1325 12.2651 42.0471 12.1617 41.9618 12.0764C41.9483 12.0494 41.9438 12.027 41.9303 12C41.4092 11.2677 40.6409 10.3692 39.7199 9.38526C38.3451 7.91165 36.6424 6.25833 35.0026 4.77574C33.3942 3.32459 31.8532 2.04417 30.7255 1.26244C30.3212 0.920993 29.8809 0.691865 29.3777 0.552591C28.5915 0.336941 27.7693 0.161725 26.9561 0.10332C23.3081 -0.16175 19.7004 0.0673784 16.1557 0.974905C15.1134 1.24447 14.399 1.9004 13.8599 2.74054C13.6038 3.14039 13.7071 3.5043 14.2822 3.58068C14.8258 3.09546 15.2796 2.41257 15.9086 2.19692C17.3238 1.70722 18.8064 1.31635 20.2934 1.13664C22.1534 0.9165 24.0449 0.961427 25.9228 0.86708C27.3964 0.795197 28.7352 1.18606 29.9707 1.90939C31.031 2.52938 31.9341 3.32459 32.7877 4.16473C32.7607 4.10183 32.7472 4.03893 32.7203 3.98053C33.7581 4.8611 34.8903 5.88094 35.991 6.92774C37.0692 7.95657 38.1205 9.00787 39.0236 9.9738C39.7918 10.796 40.4477 11.5552 40.924 12.1797C40.906 12.1932 40.888 12.2067 40.8656 12.2202C37.0962 15.1224 33.1291 17.7417 28.7622 19.7724C26.9786 20.5991 25.195 21.4257 23.4833 22.2209C23.4428 22.4501 23.3979 22.6567 23.353 22.8634C23.2631 22.7151 23.1688 22.5714 23.0654 22.4321C22.3826 21.5111 21.4301 20.7743 20.3024 20.3744C20.289 20.3115 20.2665 20.2486 20.2395 20.1767C20.0643 20.1902 19.9071 20.1543 19.8082 20.2127C18.3032 21.0753 16.6499 21.3898 14.9292 21.3493C12.6379 21.2999 10.3466 21.2101 8.0598 21.0888C7.42633 21.0528 6.7704 20.918 6.18634 20.6889C5.6562 20.4778 5.12157 20.1543 4.73969 19.7454C3.5626 18.492 3.16275 16.8297 2.2687 15.5403C2.96956 14.3767 3.57608 13.3478 4.20506 12.328C4.73071 11.4789 5.08563 10.6118 4.75317 9.6054C4.7352 9.55149 4.83404 9.46163 4.91041 9.33584C6.20431 9.0528 7.55213 8.78773 8.88197 8.45976C9.86138 8.22164 10.8363 7.96107 11.7798 7.61962C13.0827 7.15238 14.1384 5.41819 14.0306 4.0614C14.0261 4.02995 13.9677 4.00299 13.8554 3.90864C13.7071 3.9985 13.4735 4.06589 13.3837 4.21415C13.1545 4.59154 12.9569 4.99139 12.8041 5.40472C12.4492 6.36166 11.7259 6.8918 10.7285 7.14339C9.70863 7.39948 8.69328 7.67803 7.66444 7.90715C5.92577 8.29353 4.17361 8.6215 2.43943 9.02584C0.826543 9.40323 0.197564 10.0951 0.0313336 11.6631C-0.0270716 12.2202 -0.00910078 12.8132 0.130173 13.3568C0.768138 15.8592 2.00813 18.0876 3.60304 20.1543C4.1781 20.9001 4.90592 21.3988 5.85388 21.5425C6.98605 21.7088 8.12719 21.7806 9.25936 21.9469C11.8157 22.3198 14.381 22.2703 16.9464 22.0861C17.9527 22.0143 18.9366 21.7941 19.8172 21.273C19.8621 21.246 19.9026 21.2191 19.943 21.1921C20.891 21.5201 21.7131 22.149 22.3062 22.9443C22.7914 23.5957 23.1149 24.355 23.2407 25.1322C23.2586 25.586 23.2631 26.0262 23.2586 26.4665ZM41.4406 12.9884C42.1819 13.7567 42.7615 14.6193 43.2781 15.5133C43.3815 15.6885 43.1928 16.1019 43.0266 16.322C42.6492 16.8207 42.1954 17.2655 41.5799 17.9529C40.7443 16.5736 40.1063 15.5178 39.4414 14.4171C40.1512 13.9094 40.7308 13.4961 41.4406 12.9884ZM38.9022 14.9248C38.9921 14.9787 39.1089 15.0146 39.1628 15.091C39.7783 15.9895 40.4073 16.8836 40.9644 17.8136C41.0543 17.9663 40.8072 18.3033 40.7128 18.5549C40.605 18.5369 40.4972 18.5144 40.3848 18.4965C39.8277 17.3374 39.2751 16.1782 38.718 15.0191L38.9022 14.9248ZM28.3803 20.9046C29.3822 20.4014 30.402 19.9207 31.377 19.3681C33.1156 18.3842 34.8319 17.3643 36.5481 16.3445C37.0557 16.0435 37.5365 15.693 38.1205 15.3066C38.9651 16.5107 39.5133 17.7372 40.0659 19.1749C36.6694 21.8076 33.0527 23.9326 29.0228 25.6309C28.3174 24.328 27.967 23.0835 27.7648 21.7896C27.6884 21.3134 27.9984 21.0933 28.3803 20.9046ZM26.7899 21.7447C26.9561 21.8795 27.2122 21.9873 27.2661 22.158C27.666 23.3306 28.0209 24.5122 28.4252 25.8016C27.9715 25.9094 27.5222 26.0173 26.9157 26.161C26.7045 24.8087 26.4844 23.5642 26.3361 22.3153C26.3137 22.1446 26.6282 21.9379 26.7899 21.7447ZM25.6128 22.176C26.2014 23.5148 26.2193 24.8537 26.4574 26.3587H24.3908C24.3099 25.1726 24.2291 24.045 24.1392 22.7466C24.4717 22.6163 24.9748 22.4186 25.6128 22.176Z" fill="black"/>
<path d="M31.2764 46.1681C30.6654 46.523 30.0588 46.8825 29.4029 47.2643C29.0794 46.7791 28.8189 46.3928 28.5628 46.0109C29.1603 44.8652 30.3958 44.3845 31.0967 43.3916C30.5575 43.6252 30.0768 43.9397 29.6231 44.2812C29.1648 44.6271 28.729 45 28.1944 45.4313C26.3928 42.0483 24.6182 38.863 24.5598 35.1161C24.2767 35.0037 24.0251 34.9094 23.7062 34.7836C24.0746 32.9281 24.4564 31.1086 24.7754 29.28C24.8473 28.8577 25.2876 28.1434 24.5193 28.0311C23.8859 27.9412 23.9892 28.7229 23.9218 29.1183C23.4905 31.5623 23.1176 34.0108 22.7357 36.4594C22.7223 36.5492 22.8121 36.6571 22.884 36.8233C23.2344 36.711 23.5534 36.6076 23.8499 36.5088C24.2093 37.7263 24.4609 38.9034 24.9057 40.0086C25.9076 42.4931 26.9544 44.9731 28.5628 47.1745C28.8862 47.6148 28.8144 47.9382 28.5268 48.3201C28.4819 48.3785 28.5358 48.5088 28.5493 48.6256C28.8099 48.5223 29.021 48.4324 29.2187 48.3516C30.3194 49.7443 31.3842 51.1056 32.4669 52.4489C32.7859 52.8443 33.2352 53.1588 33.4958 53.5856C34.5381 55.2973 36.1465 56.4969 37.6246 57.8087C37.665 57.8447 37.7683 57.8132 38.0738 57.8132C35.2479 54.3583 32.0761 51.3257 29.7129 47.754C30.2026 47.0622 31.0742 46.9364 31.2764 46.1681Z" fill="black"/>
<path d="M20.1406 5.38721C20.226 5.89488 20.1856 6.40705 20.4012 6.78444C20.7606 7.41342 20.7651 8.03341 20.6932 8.69384C20.6079 9.47557 20.5405 10.2618 20.4192 11.0435C20.3113 11.7264 20.3787 12.3824 20.7786 12.9395C21.448 13.8784 22.1399 14.8084 22.9171 15.6665C23.3574 16.1562 23.9819 16.574 24.7412 16.3494C25.3926 16.1562 26.08 15.9496 26.6281 15.5857C28.6947 14.2064 30.5682 12.5935 32.262 10.8144C32.6214 10.437 32.9224 9.96528 33.0931 9.48456C33.4435 8.52312 32.8999 7.40893 31.7363 6.78893C31.8666 7.28313 31.9115 7.66052 32.0643 7.98849C32.527 8.97239 32.1811 9.82151 31.5117 10.5269C30.6491 11.4344 29.7101 12.2745 28.7442 13.0832C28.0253 13.6852 27.2211 14.2019 26.4349 14.7275C25.4735 15.37 23.9684 15.361 23.4023 14.6646C22.8407 13.9728 22.4409 13.1955 22.5442 12.297C23.0834 11.9825 23.5596 11.704 24.2649 11.2951C23.1732 11.3221 22.4094 12.4093 21.5783 11.4524C21.7131 11.0076 21.8793 10.6661 21.9152 10.3157C21.9512 9.94731 21.8299 9.56543 21.8254 9.18804C21.8164 8.44674 21.8928 7.69646 21.8434 6.95966C21.7894 6.10604 21.2638 5.63431 20.1406 5.38721Z" fill="black"/>
<path d="M13.7652 8.10843C13.7697 8.80929 14.1696 9.44276 14.7491 9.56856C15.2613 9.68088 15.8364 9.31247 16.2452 8.6161C16.3126 8.50379 16.3665 8.37799 16.4159 8.25669C16.6495 7.70409 16.7619 7.11105 16.3036 6.6483C15.8139 6.1541 15.2568 6.60786 14.7761 6.76062C14.1965 6.9538 13.7158 7.30873 13.7652 8.10843Z" fill="black"/>
<path d="M25.5362 2.39042C24.2513 2.22868 22.4991 2.71839 21.8477 3.40577C23.3392 3.63041 24.395 2.85317 25.5362 2.39042Z" fill="black"/>
<path d="M15.9303 5.15244C16.5323 5.21534 17.1433 5.1794 17.7544 5.1794C17.7678 5.06258 17.7813 4.94577 17.7948 4.82896C17.2422 4.6807 16.6941 4.50549 16.1325 4.39766C15.9663 4.36622 15.7551 4.52346 15.5664 4.59085C15.6832 4.78853 15.7865 5.13896 15.9303 5.15244Z" fill="black"/>
<path d="M8.95908 13.0734C8.93212 13.1228 9.17922 13.4103 9.2511 13.3924C9.4353 13.3475 9.6195 13.2172 9.73182 13.0734C9.76776 13.024 9.58356 12.8218 9.44429 12.5972C9.22415 12.7993 9.04444 12.9117 8.95908 13.0734Z" fill="black"/>
<path d="M6.8526 12.7778C6.65492 12.8811 6.50217 13.0608 6.33594 13.2136C6.46173 13.3034 6.60101 13.4786 6.70883 13.4607C6.89303 13.4292 7.05028 13.2765 7.30187 13.1237C7.09521 12.9575 6.90202 12.7508 6.8526 12.7778Z" fill="black"/>
<path d="M7.56453 15.522C7.47917 15.4456 7.39381 15.3693 7.24555 15.23C7.11077 15.3648 6.99845 15.4771 6.89062 15.5849C6.98048 15.6568 7.10178 15.8095 7.15569 15.7916C7.30845 15.7421 7.42975 15.6208 7.56453 15.522Z" fill="black"/>
<path d="M14.7417 8.01162C14.9873 8.01162 15.1864 7.82254 15.1864 7.58931C15.1864 7.35607 14.9873 7.16699 14.7417 7.16699C14.496 7.16699 14.2969 7.35607 14.2969 7.58931C14.2969 7.82254 14.496 8.01162 14.7417 8.01162Z" fill="white"/>
<path d="M1.09433 11.4621C1.81316 10.9095 2.68475 10.5321 3.59677 10.3839C3.72256 10.3614 3.80792 10.2491 3.78546 10.1278C3.763 10.0065 3.64169 9.92562 3.5159 9.94808C2.5275 10.1143 1.58403 10.5187 0.797808 11.1207C0.698968 11.1971 0.680997 11.3363 0.761866 11.4307C0.847228 11.525 0.995487 11.5385 1.09433 11.4621Z" fill="white"/>
</svg>
