<svg width="27" height="18" viewBox="0 0 27 18" fill="none" xmlns="http://www.w3.org/2000/svg">
<path d="M25.248 0.826172H1.89594C0.928662 0.826172 0.144531 1.6103 0.144531 2.57758V15.4212C0.144531 16.3885 0.928662 17.1726 1.89594 17.1726H25.248C26.2153 17.1726 26.9994 16.3885 26.9994 15.4212V2.57758C26.9994 1.6103 26.2153 0.826172 25.248 0.826172Z" fill="#1A1F6F"/>
<path d="M13.145 6.18516L11.9365 11.8305H10.477L11.6855 6.18516H13.145ZM19.2866 9.82808L20.0572 7.70888L20.5009 9.82808H19.2866ZM20.9212 11.8305H22.2698L21.1022 6.18516H19.8412C19.7083 6.18388 19.5781 6.22276 19.4677 6.29672C19.3573 6.37069 19.2718 6.47628 19.2224 6.59966L17.0273 11.8539H18.5627L18.8662 11.0074H20.7403L20.9212 11.8305ZM17.109 9.98571C17.109 8.49702 15.0423 8.41528 15.0599 7.74975C15.0599 7.54542 15.2584 7.32941 15.6787 7.27687C16.1733 7.22664 16.6722 7.31349 17.1207 7.52791L17.3776 6.33111C16.9407 6.16709 16.4781 6.08209 16.0115 6.08008C14.5636 6.08008 13.5712 6.84486 13.5712 7.94824C13.5712 8.75973 14.2951 9.21509 14.8497 9.48364C15.4043 9.75219 15.6086 9.93901 15.6086 10.1842C15.6086 10.5637 15.1533 10.733 14.7329 10.7388C14.2106 10.7504 13.694 10.6278 13.2326 10.3827L12.9699 11.6204C13.4786 11.8155 14.0187 11.9164 14.5636 11.9181C16.099 11.9181 17.1032 11.1592 17.109 9.98571ZM11.055 6.18516L8.69059 11.8305H7.14935L5.98175 7.32358C5.9715 7.21756 5.93381 7.11604 5.87239 7.02902C5.81097 6.94201 5.72793 6.8725 5.63146 6.82734C5.1749 6.60773 4.69233 6.44688 4.19531 6.34863L4.23034 6.18516H6.7115C6.87537 6.18602 7.03356 6.24527 7.15768 6.35227C7.2818 6.45927 7.36371 6.60701 7.38871 6.76896L8.0017 10.0383L9.51958 6.19684L11.055 6.18516Z" fill="white"/>
</svg>
