<svg width="65" height="56" viewBox="0 0 65 56" fill="none" xmlns="http://www.w3.org/2000/svg">
<g opacity="0.6">
<path d="M1.63281 15.4993C1.63281 20.3586 1.63281 25.4122 3.77088 29.6883C4.54836 31.2433 5.71458 32.7982 7.26954 33.7701C8.24138 34.3532 9.4076 34.7419 10.5738 35.325C12.9063 36.4913 14.85 38.2406 16.5993 39.9899C16.7937 40.1843 17.1824 40.573 17.1824 40.7674C17.3768 41.3505 16.988 41.9336 16.988 42.7111C16.5993 44.4604 18.1542 46.2097 17.7655 47.9591C17.5711 49.1253 16.5993 50.2915 17.3768 51.2634C18.3486 51.4577 19.1261 51.6521 20.0979 51.6521C19.3205 52.8183 21.0698 54.1789 22.4304 53.9845C23.791 53.5958 24.5684 52.2352 25.1515 51.069C26.1234 48.5422 27.0952 45.821 29.2333 44.0717C30.3995 43.2942 31.9545 42.9055 32.9263 41.7393C33.5094 41.1561 33.8982 40.1843 34.6757 39.6012C35.4531 39.0181 36.6194 38.8237 37.2025 39.6012C37.3968 39.9899 37.5912 40.3787 37.5912 40.7674C37.98 43.8773 38.3687 47.1816 36.8137 50.0971C36.8137 50.2915 36.6194 50.2915 36.6194 50.4859C36.6194 50.6803 36.8137 50.8746 37.0081 51.069C38.1743 51.6521 39.9236 51.069 40.5068 49.9028C41.0899 48.5422 40.3124 46.9872 41.2842 45.821C41.4786 45.4323 42.0617 45.2379 42.4505 44.8492C43.2279 44.2661 43.4223 43.2942 44.0054 42.5167C44.5885 41.7393 45.5604 41.1561 46.5322 41.7393C46.921 41.9336 47.1153 42.3224 47.5041 42.7111C48.8647 45.4323 48.8647 48.7366 47.3097 51.2634C47.1153 51.6521 46.7266 52.0408 46.921 52.624C47.1153 53.2071 47.8928 53.2071 48.4759 53.2071C49.6421 53.2071 51.0027 53.0127 51.7802 52.2352C53.5295 50.2915 51.1971 46.4041 53.3352 45.0435C53.7239 44.8492 54.307 44.6548 54.5014 44.266C55.0845 43.6829 54.8901 42.5167 54.5014 41.7393C54.1126 40.9618 53.5295 39.9899 53.7239 39.2124C54.1126 39.2124 54.307 39.2124 54.6958 39.4068C54.6958 38.435 54.6958 37.6575 54.5014 36.6856C55.0845 36.4913 55.2789 35.7138 55.2789 35.1307C55.2789 34.5476 54.8901 33.7701 54.8901 33.187C54.8901 31.632 56.2507 30.6602 57.4169 29.6883C59.3606 27.939 61.3043 25.9953 62.8593 24.0516C63.4424 23.2741 64.2199 22.4966 64.4142 21.5248C64.6086 20.7473 64.2199 19.7755 64.0255 18.998C63.4424 17.6374 63.0536 16.2768 62.4705 14.7219C62.0818 13.9444 61.8874 13.1669 61.3043 12.3894C59.3606 10.057 55.2789 10.6401 53.1408 8.50203C52.3633 9.08514 51.7802 9.86262 51.3915 10.8345C50.2252 10.8345 49.059 10.057 47.8928 9.86262C46.921 9.66825 45.9491 10.057 44.9773 10.2513C42.4505 10.8345 39.9236 11.6119 37.5912 12.195C35.4531 12.7782 32.732 13.1669 31.3714 11.2232C30.3995 9.66824 30.7883 6.94707 29.0389 6.16959C28.6502 5.97522 28.0671 5.97522 27.484 5.78085C26.5121 5.19774 26.5121 3.83716 26.9009 2.67094C24.1797 3.44842 21.4585 3.83715 18.7373 4.03152C17.5711 4.03152 16.5993 4.03153 15.6274 3.64279C14.4612 3.05968 13.6837 2.2822 12.5175 2.08783C11.3513 1.89346 10.1851 2.67093 9.60197 3.44841C8.82449 4.22589 8.43575 5.39211 7.65827 6.36395C6.49206 7.91891 4.74273 9.08513 3.96525 11.0288C3.38214 12.7782 3.77088 14.9162 2.41029 16.0824" fill="white"/>
<path d="M32.3438 20.3616C33.7043 20.5559 34.8706 19.5841 35.648 18.6122C36.4255 17.6404 37.203 16.4742 37.9805 15.5023C39.1467 14.1417 41.0904 13.3643 41.6735 11.6149C41.8679 11.2262 41.8679 10.4487 41.4791 10.2543C41.0904 10.06 40.7016 10.2543 40.3129 10.4487C39.1467 11.0318 37.7861 11.4206 36.4255 11.8093C35.648 12.0037 33.51 12.0037 32.9269 12.5868C32.5381 13.3643 32.3438 20.3616 32.3438 20.3616Z" fill="#BCBCBB"/>
<path d="M21.4579 49.516C21.4579 49.9048 21.4579 50.4879 21.2635 50.6822C21.0692 51.071 20.4861 51.071 20.0973 51.071C19.903 51.071 19.903 51.071 19.7086 50.8766C19.7086 50.8766 19.5142 50.6823 19.5142 50.4879C19.3198 49.3217 18.7367 45.6286 20.0973 44.8512C20.8748 44.4624 20.8748 45.6286 20.8748 46.2117C21.0692 47.378 21.4579 48.5442 21.4579 49.516Z" fill="#BCBCBB"/>
<path d="M9.80226 4.42314C9.41353 5.00625 9.02479 5.395 8.63605 5.97811C8.05294 6.75558 7.46983 7.72744 6.88672 8.50492V8.69929C6.88672 8.89365 7.08109 8.89365 7.08109 8.89365C7.46983 8.89365 7.85857 9.08802 8.24731 8.89365C8.63605 8.69928 9.02479 8.31054 9.21916 8.11617C9.99663 7.14432 11.1629 6.17247 12.3291 5.39499C12.5234 5.20062 12.7178 5.20063 12.9122 5.00626C13.1065 4.61752 12.9122 3.84003 12.5234 3.45129C12.1347 2.67381 11.5516 0.924496 10.7741 1.89634C10.191 2.09071 10.191 3.64566 9.80226 4.42314Z" fill="#BCBCBB"/>
<path d="M44.0064 42.9082C43.6177 43.1026 43.4233 43.297 43.0346 43.4913C42.6458 43.6857 42.4515 44.0744 42.2571 44.4632C41.674 45.435 40.8965 46.4069 40.119 47.1843C39.9246 47.3787 39.7303 47.5731 39.5359 47.5731C39.3415 47.5731 39.3415 47.3787 39.3415 47.3787C37.7866 45.435 37.3978 42.7139 38.3697 40.5758C38.5641 39.9927 38.9528 39.4096 39.3415 39.2152C40.3134 38.8264 43.0346 38.6321 44.0064 39.2152C45.5614 39.7983 45.1726 41.9364 44.0064 42.9082Z" fill="#BCBCBB"/>
<path d="M17.7679 20.165C17.9623 20.165 18.1566 19.9706 18.1566 20.165C18.1566 20.3594 18.1566 20.3594 18.1566 20.5537C17.7679 21.1368 17.1848 21.5256 16.7961 22.1087C16.7961 22.3031 16.6017 22.4974 16.6017 22.4974C16.4073 22.6918 16.4073 22.6918 16.213 22.6918L16.0186 22.4974C15.8242 22.1087 15.0467 20.7481 15.4355 20.3594C15.6298 20.165 16.213 20.5537 16.6017 20.5537C16.9904 20.3594 17.5735 20.3594 17.7679 20.165Z" fill="#BCBCBB"/>
<path d="M56.8339 20.3608C57.417 22.3045 57.417 24.4425 57.417 26.3862C57.417 27.1637 57.2226 27.9412 57.0282 28.7187C56.8339 29.3018 56.4451 29.8849 56.6395 30.468C57.8057 30.0793 58.7776 29.3018 59.5551 28.7187C60.5269 27.9412 61.3044 27.1637 62.0819 26.5806L62.2762 26.3862C62.4706 26.3862 62.665 26.5806 62.665 26.5806C62.8593 26.5806 63.0537 26.3862 63.0537 26.1919C63.2481 24.6369 63.4425 23.082 62.665 21.7214C62.2762 20.7495 61.4988 20.1664 60.7213 19.3889C58.7776 17.6396 56.8339 15.8903 54.3071 15.1128C54.1127 15.6959 54.3071 16.279 54.5014 16.6678C55.0846 18.2227 56.0564 19.972 57.0282 21.3326" fill="#BCBCBB"/>
<path d="M53.141 45.0451C53.7241 45.0451 54.3072 45.0451 54.696 44.462C55.0847 44.0733 54.8904 43.2958 54.696 42.9071C54.3072 41.7408 53.9185 40.5746 53.5298 39.6028C53.3354 39.4084 52.9467 39.7971 52.7523 39.9915C51.1973 42.5183 51.003 45.6282 50.8086 48.5438C50.8086 49.1269 50.8086 49.71 51.1973 50.0987C51.5861 48.9325 51.7804 47.7663 51.9748 46.6001C52.1692 45.8226 52.3635 45.2395 53.141 45.0451Z" fill="#BCBCBB"/>
<path d="M20.0982 42.5186C19.7095 42.5186 19.3207 42.3242 19.1264 42.1299C17.377 41.158 15.6277 40.1862 14.2671 38.6312C14.0727 38.2425 13.684 38.0481 13.4896 37.6594C13.1009 37.465 12.7122 37.2706 12.3234 36.8819C11.7403 36.4931 11.3516 35.7157 11.3516 34.9382C11.3516 34.5494 11.3516 34.1607 11.7403 33.9663C11.9347 33.772 12.129 33.772 12.3234 33.772C12.9065 33.772 13.4896 33.9663 14.0727 34.3551C15.239 34.9382 16.2108 35.3269 17.377 35.91C17.9601 36.2988 18.932 36.4931 19.5151 37.0763C19.7095 37.6594 20.8757 42.3242 20.0982 42.5186Z" fill="#BCBCBB"/>
<path d="M23.2117 3.45171C23.406 3.25734 23.6004 3.06298 23.6004 2.86861C24.5722 1.50802 25.9328 0.536167 27.4878 0.341797C27.4878 1.31365 26.9047 2.28549 26.7103 3.45171C26.5159 4.42356 26.5159 5.20104 26.7103 6.17289C25.1554 5.78415 23.406 5.58978 21.6567 5.97852C21.4623 5.97852 21.6567 4.42356 21.6567 4.42356C21.8511 4.03482 22.0454 3.84045 22.0454 3.45171C22.2398 3.45171 22.8229 3.64608 23.2117 3.45171Z" fill="#BCBCBB"/>
<path d="M10.3842 22.8877C10.3842 23.6652 9.80105 24.2483 9.60668 25.0258C10.1898 24.8314 10.7729 24.637 11.356 24.4427C11.356 25.2201 11.1616 25.8032 10.9673 26.5807C11.356 26.3864 11.9391 26.192 12.3279 25.9976C12.3279 26.5807 12.3279 27.1638 12.5222 27.7469C12.911 27.3582 13.2997 26.9695 13.6884 26.5807C13.6884 26.9695 13.8828 27.3582 13.8828 27.7469C14.2716 27.5526 14.4659 27.3582 14.8547 27.1638C15.049 27.5526 15.049 27.9413 15.049 28.5244C15.049 28.7188 15.049 28.7188 15.049 28.7188C15.049 28.9132 14.8547 28.9132 14.6603 28.9132C14.0772 28.9132 13.2997 28.9132 12.7166 29.1075C12.3279 29.1075 11.9391 29.1075 11.5504 29.1075C10.5785 28.9132 9.80105 27.9413 9.21794 27.1638C9.02357 26.7751 8.63483 26.3864 8.44046 25.8032C8.24609 25.2201 8.05172 24.4427 8.63483 24.0539C9.02357 23.4708 9.80105 23.0821 10.3842 22.8877Z" fill="#BCBCBB"/>
<path d="M18.1564 26.9698L18.3508 26.7754H18.5451C18.7395 26.9698 19.1282 27.1642 19.3226 27.1642C19.3226 26.5811 19.3226 25.998 19.3226 25.4148C19.517 25.6092 19.7113 25.8036 20.1001 25.998C20.2945 26.1923 20.6832 26.3867 20.8776 26.3867C20.6832 25.8036 20.4888 25.0261 20.1001 24.443C20.6832 24.6374 21.2663 24.8317 22.0438 24.8317C22.0438 24.443 22.0438 24.0543 21.8494 23.6655V23.4711C21.8494 23.2768 22.0438 23.2768 22.2381 23.2768C22.8213 23.4712 23.4044 23.4711 23.9875 23.6655C23.5987 22.888 23.21 22.1106 23.0156 21.3331C23.5987 21.5275 24.1818 21.7218 24.765 21.9162C24.9593 21.7218 24.9593 21.5275 24.765 21.5275C24.765 21.3331 24.5706 21.1387 24.5706 20.9443C25.5424 20.9443 26.3199 21.1387 27.2918 21.3331C27.2918 21.3331 27.4861 21.3331 27.4861 21.5275V21.7218C27.6805 22.6937 27.2918 23.8599 26.5143 24.443C25.7368 25.0261 24.9593 25.8036 23.9875 26.3867C23.21 26.9698 22.4325 27.5529 21.4607 27.9417C20.4888 28.3304 19.517 28.7191 18.5451 28.5248C18.1564 28.5248 17.5733 28.136 17.3789 27.7473C17.3789 27.7473 17.962 27.1642 18.1564 26.9698Z" fill="#BCBCBB"/>
<path d="M35.2614 15.1122C34.8727 15.3066 34.484 15.6954 34.0952 15.8897C33.7065 16.0841 33.3177 16.4728 32.929 16.8616C32.5403 17.2503 32.5403 17.4447 32.929 17.8334C33.7065 17.2503 34.484 16.8616 35.4558 16.2785V16.4728C34.8727 16.8616 34.2896 17.2503 33.9008 17.6391C33.5121 18.0278 32.929 18.0278 32.929 18.8053L32.7346 18.9996C32.3459 19.194 32.5403 19.3884 32.7346 19.7771C33.9008 19.194 34.6783 18.2222 36.0389 17.8334C35.8445 18.0278 35.8445 18.0278 35.6502 18.2222C34.8727 18.8053 34.0952 19.3884 33.1234 19.9715C32.7346 20.1659 32.7346 20.5546 32.7346 20.9433C32.7346 21.3321 32.929 21.5264 32.929 21.9152C32.929 22.1096 32.929 22.1096 32.7346 22.4983C32.5403 22.3039 32.5403 22.1096 32.5403 22.1096C32.3459 20.9433 32.1515 19.7771 31.9571 18.8053C31.9571 18.6109 31.9571 18.4165 31.9571 18.4165C32.3459 17.4447 31.9571 16.6672 31.7628 15.6954C31.5684 15.3066 31.5684 14.9179 31.9571 14.5291C32.1515 14.3348 32.1515 14.3348 32.7346 14.1404C32.5403 13.946 32.3459 13.7517 32.3459 13.3629C32.1515 12.9742 31.9571 12.7798 31.7628 12.3911C31.5684 11.2249 30.7909 10.253 30.2078 9.28115C29.6247 8.3093 29.236 7.14309 28.6529 6.17124C28.0698 6.17124 28.0698 6.94872 27.4866 6.75435C26.9035 4.81065 27.2923 3.06132 28.2641 1.31199C27.4866 1.31199 27.2923 1.312 25.5429 2.67259C24.7655 3.2557 23.988 4.03318 23.2105 4.61629C23.0161 4.42192 22.8218 4.42191 22.6274 4.22754C22.6274 4.42191 22.6274 4.61629 22.6274 4.61629C22.6274 5.39377 22.6274 5.39376 21.8499 5.19939C21.6556 5.19939 21.4612 5.19939 21.4612 5.00502C20.1006 4.42191 18.74 4.61628 17.3794 5.00502C17.185 5.00502 17.185 5.00502 16.9907 5.00502C16.9907 5.00502 16.9907 5.00502 16.7963 5.00502C16.7963 4.81065 16.7963 4.61628 16.9907 4.22754C16.2132 3.8388 16.0188 4.03317 15.6301 4.22754C15.6301 4.42191 15.6301 4.61628 15.6301 4.81065C15.2413 4.81065 14.8526 4.81065 14.2695 4.81065C14.4639 4.61628 14.4639 4.42191 14.6582 4.22754C14.4639 3.64443 14.0751 3.2557 13.492 2.86696C13.2977 3.06133 13.1033 3.06132 12.9089 3.25569C12.1314 2.67258 11.5483 1.8951 10.7708 1.31199C10.3821 1.70073 10.3821 2.08947 10.1877 2.47821C9.99337 3.06132 9.799 3.64443 9.41026 4.03317C9.21589 4.22754 9.21589 4.42191 9.02152 4.81065C8.04967 6.55998 6.88345 8.11494 5.52286 9.47553C5.32849 9.86427 4.93975 10.0586 4.74538 10.4474C4.74538 10.6417 4.55101 10.6417 4.55101 10.8361C4.74538 11.6136 4.35664 12.3911 3.96791 13.1685C3.3848 14.3348 2.60732 15.501 2.02421 16.8616C2.02421 17.0559 1.82984 17.2503 1.82984 17.4447C2.21858 17.2503 2.60732 17.2503 3.19043 17.0559C2.99606 17.639 2.99606 17.8334 2.99606 18.2222C3.19043 18.2222 3.19043 18.4165 3.3848 18.6109C3.19043 19.5828 2.80169 20.749 2.60732 21.9152C2.80169 21.5264 2.99606 21.3321 3.19043 21.1377C3.3848 21.3321 3.3848 21.5264 3.19043 21.7208C2.99606 22.1096 2.60732 22.6927 2.41295 23.0814C2.02421 24.2476 2.02421 24.2476 2.21858 25.6082C3.57917 24.6364 4.55101 23.0814 6.30034 22.6927C6.10597 22.887 5.9116 22.887 5.71723 23.0814C5.32849 23.4701 4.93975 23.6645 4.55101 24.0533C4.16227 24.2476 3.96791 24.6364 3.96791 25.0251C3.96791 25.2195 3.96791 25.6082 3.96791 25.997C3.96791 26.3857 3.77354 26.5801 4.16227 26.7744C4.35664 26.9688 4.16227 27.1632 4.16227 27.3575C4.16227 27.7463 4.16228 28.3294 4.35665 28.9125C4.55101 29.4956 4.74538 29.4956 5.13412 29.3012C5.32849 29.3012 5.52286 29.1069 5.71723 29.1069C5.9116 29.1069 6.10597 29.1069 6.10597 29.1069C6.49471 29.8843 5.9116 30.6618 6.30034 31.4393C6.49471 31.2449 6.68908 31.2449 6.68908 31.2449C6.88345 31.0506 7.07782 30.8562 7.27219 30.8562C7.66093 30.6618 7.8553 30.8562 7.8553 31.2449C7.8553 31.6337 7.66093 31.828 7.66093 32.2168C7.66093 32.4112 7.66093 32.7999 7.66093 32.9943C8.24404 32.9943 8.43841 32.2168 9.02152 32.2168C9.799 33.1886 9.21589 34.5492 9.60463 35.5211C10.1877 35.5211 9.99337 34.938 10.3821 34.7436C10.5765 34.7436 10.7708 34.938 10.9652 35.1323C11.354 35.9098 11.7427 36.4929 12.1314 37.2704C12.3258 37.6591 12.7145 38.2423 13.1033 38.631C13.1033 38.8254 12.9089 39.0197 12.7145 38.8254C12.5202 38.631 12.3258 38.4366 12.1314 38.0479C11.7427 37.4648 11.5483 36.8817 11.354 36.2985C11.1596 36.1042 11.1596 35.9098 10.9652 35.5211C10.7708 35.7154 10.5765 35.7154 10.3821 35.9098C9.799 36.1042 9.60463 36.1042 9.41026 35.5211C9.41026 35.1323 9.41026 34.5492 9.41026 33.9661C9.41026 33.5774 9.41026 33.1886 9.21589 32.7999C8.82715 32.7999 8.63278 33.1886 8.43841 33.383C7.8553 32.9943 7.66093 33.1886 7.46656 32.9943C7.27219 32.7999 7.27219 32.6055 7.27219 32.2168C7.27219 31.828 7.46656 31.2449 7.46656 30.6618C7.07782 31.0506 6.88345 31.2449 6.49471 31.2449C5.9116 31.6337 5.71723 31.4393 5.52286 30.8562C5.52286 30.6618 5.52286 30.2731 5.52286 30.0787C5.52286 29.8843 5.52286 29.69 5.52286 29.3012C5.32849 29.3012 4.93975 29.4956 4.74538 29.4956C4.16228 29.69 3.77354 29.4956 3.57917 28.9125C3.57917 28.7181 3.57917 28.3294 3.57917 28.135C3.57917 27.9407 3.57917 27.7463 3.57917 27.7463C2.99606 27.3575 3.3848 26.7744 3.3848 26.1913C3.3848 25.8026 3.57917 25.6082 3.57917 25.2195C2.99606 25.2195 2.80169 25.8026 2.41295 25.997C2.02421 26.3857 1.82984 26.5801 1.24673 26.7744C1.05236 26.3857 2.02421 25.997 1.63547 25.4138C1.4411 25.6082 1.24673 25.6082 1.05236 25.8026C1.05236 25.6082 0.85799 25.6082 0.85799 25.6082C1.05236 24.8307 1.24673 24.0533 1.63547 23.2758C1.24673 23.4701 1.05236 24.2476 0.27488 24.2476C0.46925 23.2758 1.24673 22.6927 1.4411 21.7208C0.857989 21.7208 0.66362 22.3039 0.0805106 21.9152C-0.113859 21.5264 0.0805106 21.3321 0.27488 21.1377C0.66362 20.5546 1.05236 19.9715 1.4411 19.5828C1.63547 19.3884 1.82984 18.9996 2.02421 18.6109C1.4411 18.6109 1.05236 18.9996 0.46925 18.8053C1.82984 17.0559 2.80169 14.9179 3.96791 12.7798C3.3848 12.7798 2.99606 13.1686 2.80169 13.3629C2.41295 13.5573 2.02421 13.7517 1.4411 13.5573C1.63547 13.3629 1.63547 13.1685 1.82984 13.1685C2.21858 12.7798 2.60732 12.3911 2.99606 12.0023C4.16228 10.6417 5.32849 9.47552 6.49471 8.11493C7.27219 7.14308 7.8553 5.97687 8.63278 5.00502C8.82715 4.81065 9.02152 4.61628 9.21589 4.22754C9.41026 4.03317 9.799 3.64443 9.799 3.45006C9.99337 2.86695 10.3821 2.08947 10.5765 1.31199C10.5765 1.11762 10.5765 0.728881 10.5765 0.534511C10.5765 0.340141 10.5765 0.145777 10.7708 0.145777C10.9652 -0.0485924 11.1596 0.145774 11.1596 0.340144C11.5483 0.728884 11.7427 1.11762 12.1314 1.50636C12.7145 1.11762 12.9089 1.312 13.2977 1.70074C14.0751 2.28385 14.6582 3.06133 15.4357 3.83881C16.0188 3.64444 16.6019 3.06133 17.3794 2.67259C17.185 3.2557 17.185 3.45007 17.185 3.83881C17.9625 3.83881 18.74 3.64444 19.3231 3.64444C19.9062 3.64444 20.6837 3.8388 21.6556 4.03317C21.6556 3.45006 21.6556 2.86695 21.6556 2.28384C22.433 2.28384 22.433 3.06132 23.0161 3.25569C23.2105 3.06132 23.4049 2.86696 23.5992 2.67259C24.9598 1.50637 26.1261 0.534517 27.8754 0.145777C28.2641 -0.0485924 28.2641 -0.0485924 28.6529 0.145777C27.8754 1.312 27.2923 2.67258 27.2923 4.03317C27.2923 4.42191 27.2923 4.81065 27.4866 5.19939C27.8754 5.00502 28.0698 4.81065 28.4585 4.42191C28.8472 5.00501 29.0416 5.58813 29.236 6.17124C29.6247 7.14309 30.2078 8.11493 30.5966 9.08678C30.7909 9.47552 30.9853 9.86426 31.1797 10.253C31.5684 11.0305 32.1515 11.4192 33.1234 11.2248C33.3177 11.2248 33.5121 11.2248 33.9008 11.2248C34.8727 11.2248 35.8445 11.0305 36.8164 10.8361C37.5939 10.6417 38.177 10.6417 38.9545 10.4474C40.1207 10.0586 41.2869 9.66989 42.2587 8.89242C42.4531 8.69804 42.6475 8.69805 42.8419 8.50368C43.0362 8.69805 43.2306 8.89242 43.6193 8.89242C43.425 9.28115 43.2306 9.66989 42.8419 10.253C43.0362 10.253 43.2306 10.253 43.425 10.253C44.2024 10.0586 44.9799 9.6699 45.7574 9.47553C47.118 9.08679 48.4786 8.69805 49.8392 8.69805C50.0335 8.69805 50.2279 8.69805 50.4223 8.69805C50.4223 9.28116 49.8392 9.47552 49.4504 10.0586C50.2279 10.4474 51.0054 10.6417 51.7829 11.0305C52.366 9.66989 52.5603 8.50368 52.5603 6.94872C53.1434 6.94872 53.1434 7.33746 53.3378 7.7262C53.9209 8.89242 54.6984 9.66989 55.4759 10.253C55.8646 9.86426 56.2534 9.6699 56.4477 9.47553C57.4196 8.69805 58.3914 8.50368 59.5577 8.50368C59.752 8.50368 59.752 8.50368 59.9464 8.50368L60.1408 8.69805C60.1408 8.89242 60.1408 8.89241 59.9464 9.08678C59.5576 9.28115 59.1689 9.47553 58.9745 9.6699C58.7802 9.86427 58.5858 10.0586 58.5858 10.253C58.9745 10.6417 59.3633 10.8361 59.752 11.0305C61.1126 11.4192 62.2788 12.3911 63.2507 13.5573C62.6676 13.946 61.8901 13.3629 61.307 13.7517C61.5013 14.1404 61.8901 14.3348 62.0845 14.7235C62.8619 15.501 63.6394 16.4728 64.2225 17.2503C64.4169 17.4447 64.6113 17.8334 64.6113 18.2222C64.0282 18.4165 63.6394 17.8334 63.0563 18.0278C64.2225 19.7771 65 21.5264 65 23.4701C64.6113 23.4701 64.2225 23.6645 63.6394 23.6645C63.6394 24.0533 63.6394 24.442 63.6394 24.6364C63.6394 25.4138 63.6394 26.3857 63.8338 27.1632C63.8338 27.7463 63.6394 28.135 63.2507 28.7181C62.4732 28.135 62.6676 27.1632 62.0845 26.5801C61.307 27.5519 61.1126 28.7181 60.1408 29.4956C59.9464 29.3012 59.752 29.3012 59.752 29.3012H59.5577C58.9745 29.69 58.5858 30.0787 58.0027 30.4675C57.614 30.6618 57.4196 30.8562 57.0308 31.2449C56.6421 31.6337 56.4477 31.828 56.059 31.6337C55.8646 31.2449 55.6703 30.8562 55.4759 30.4675C55.0871 31.2449 55.0871 31.828 55.2815 32.4112C55.4759 33.9661 55.8646 35.3267 56.059 36.6873C56.059 36.8817 56.2534 37.2704 55.8646 37.4648C55.4759 37.076 55.2815 36.8817 54.8928 36.4929H54.6984C54.8928 37.076 55.0871 37.6591 55.4759 38.2422C55.6703 38.8254 55.8646 39.2141 56.2534 39.7972C56.2534 39.9916 56.4477 40.1859 56.2534 40.3803C55.6703 39.9916 55.2815 39.4085 54.3097 39.2141C54.3097 39.6028 54.504 39.7972 54.6984 39.9916C54.8928 40.3803 55.2815 40.769 55.4759 41.3522C55.8646 41.9353 55.6703 41.9353 55.0871 42.1296C55.2815 42.5184 55.2815 42.9071 55.4759 43.2959L55.2815 43.4902C54.8928 42.7128 54.3097 41.7409 53.9209 40.9634C53.9209 40.9634 53.9209 40.7691 54.1153 40.5747C54.504 40.7691 54.6984 40.9634 55.0871 40.9634C54.504 41.1578 54.504 40.9634 54.3097 40.7691C53.9209 40.1859 53.7266 39.6028 53.3378 39.0197C53.3378 38.8254 53.3378 38.631 53.3378 38.631C53.3378 38.631 53.7266 38.4366 53.7266 38.631C53.9209 38.631 54.3097 38.8254 54.504 39.0197C54.6984 39.2141 54.8928 39.2141 55.2815 39.4085C55.2815 39.2141 55.2815 39.0197 55.0871 38.8254C54.8928 38.2422 54.504 37.6591 54.3097 36.8817C54.1153 36.4929 53.9209 35.9098 53.9209 35.3267C54.504 35.3267 54.8928 35.9098 55.4759 36.2985C55.4759 35.9098 55.2815 35.5211 55.2815 35.1323C55.0871 34.1605 54.8928 33.1886 54.6984 32.4112C54.504 31.4393 54.6984 30.4675 55.0871 29.4956C55.6703 29.4956 55.6703 29.4956 56.059 30.0787C56.4477 29.69 57.0308 27.1632 57.0308 26.1913C56.2534 26.5801 55.6703 26.9688 54.8928 27.3575V27.1632C54.8928 26.9688 55.0871 26.9688 55.2815 26.7744C55.8646 26.3857 56.2534 26.1913 56.8365 25.997C57.4196 25.8026 57.4196 25.4138 57.4196 24.8307C57.4196 24.6364 57.4196 24.2476 57.4196 23.8589C56.4477 24.2476 55.6703 25.0251 54.6984 25.4138C54.8928 25.0251 55.0871 24.8307 55.4759 24.8307C55.8646 24.442 56.4477 24.2476 57.0308 23.8589C57.4196 23.6645 57.4196 23.4701 57.4196 23.0814C57.2252 21.9152 56.8365 20.749 56.059 19.5828C55.8646 19.3884 55.8646 19.194 55.8646 18.8053C56.059 18.8053 56.2534 18.8053 56.2534 18.9996C56.4477 19.3884 56.6421 19.7771 57.0308 20.1659C57.2252 20.3602 57.4196 20.749 57.614 20.9433C58.3914 20.749 58.9745 20.1659 59.5577 19.7771C59.1689 20.1659 58.7802 20.5546 58.1971 20.9433C57.614 21.3321 57.614 21.5265 57.8083 22.1096C58.0027 22.4983 58.0027 22.887 58.1971 23.4701C58.1971 23.4701 58.0027 23.6645 58.0027 23.8589C58.0027 25.2195 57.614 26.5801 57.4196 27.9407C57.2252 28.5238 57.0308 29.3012 57.0308 30.0787C58.0027 29.69 58.5858 29.1069 59.3633 28.7181C60.1408 28.3294 60.3351 27.3575 60.9182 26.5801C61.1126 26.7744 61.1126 26.9688 61.307 27.1632C61.6957 26.5801 61.8901 25.997 62.0845 25.2195C62.0845 25.0251 62.2788 24.8307 62.2788 24.8307C62.4732 24.8307 62.6676 25.0251 62.6676 25.2195C62.8619 25.6082 63.0563 25.997 63.2507 26.3857C63.445 24.8307 63.0563 23.2758 63.0563 21.7208C63.8338 21.3321 64.0282 22.3039 64.6113 22.1096C64.4169 19.9715 63.0563 18.4165 61.6957 16.4728C62.6676 16.2785 63.0563 16.8616 63.8338 16.8616C63.6394 16.2785 63.2507 15.8897 62.8619 15.501C62.0844 14.7235 61.307 13.946 60.5295 13.1685C60.3351 12.9742 60.1408 12.7798 60.1408 12.3911C60.5295 12.3911 61.1126 12.5854 61.6957 12.5854C61.5014 12.1967 61.1126 12.0023 60.9182 11.808C60.3351 11.4192 59.5576 11.2249 58.9745 10.8361C58.7802 10.8361 58.5858 10.6417 58.3914 10.6417C57.614 10.253 57.614 10.0586 58.0027 9.28115C58.1971 9.08678 58.1971 8.89242 58.3914 8.69805C57.614 8.69805 57.0308 8.89241 56.6421 9.28115C56.2534 9.66989 55.8646 10.253 55.4759 10.8361C55.0871 10.4474 54.504 9.86427 54.1153 9.47553C53.7266 9.08679 53.1434 8.50368 52.7547 7.92057C52.5603 8.89242 52.366 9.86426 51.9772 10.8361C52.366 11.2249 52.9491 11.6136 53.3378 12.0023C53.1434 12.1967 53.1435 12.3911 52.9491 12.5854C53.3378 12.9742 53.9209 13.5573 54.3097 14.1404C54.6984 14.5291 55.2815 14.9179 55.2815 15.8897C54.6984 15.3066 54.1153 14.5291 53.7266 14.1404C53.1434 13.5573 52.5603 13.1686 51.9772 12.5854C52.1716 12.3911 52.366 12.3911 52.366 12.1967C52.366 11.4192 51.3941 12.0023 51.1997 11.4192C50.811 11.2249 50.2279 11.0305 49.8392 10.8361C49.4504 10.6417 48.8673 10.4474 48.2842 10.253C48.6729 9.86426 48.8673 9.66989 49.0617 9.28115C48.8673 9.28115 48.6729 9.28115 48.6729 9.28115C48.0898 9.47552 47.7011 9.47553 47.118 9.6699C47.118 9.86427 47.118 10.0586 47.118 10.253L46.9236 10.4474C45.563 10.8361 44.2024 11.0305 42.8419 11.4192C42.6475 11.4192 42.4531 11.4192 42.4531 11.4192C41.6756 11.4192 41.4813 11.2249 41.4813 10.4474C41.0925 10.6417 40.7038 10.6417 40.315 10.8361C39.5376 11.2249 38.7601 11.6136 37.7882 11.6136C37.5939 11.6136 37.3995 11.6136 37.3995 11.6136C36.2333 11.808 35.0671 12.1967 33.9008 12.1967C33.5121 12.1967 33.3177 12.3911 32.929 12.3911C33.1234 12.7798 33.3177 12.9742 33.7065 13.1685C34.2896 13.946 34.2896 13.946 33.5121 14.3348C33.7065 14.7235 33.5121 14.9179 33.1234 15.1122C33.1234 15.501 33.3177 15.8897 33.5121 16.4728C34.2896 16.0841 35.0671 15.501 35.6502 15.1122C35.2614 15.1122 35.2614 15.1122 35.2614 15.1122ZM2.02421 20.3602C2.41295 20.1659 2.41295 20.1659 2.60732 19.5828C2.41295 19.7771 2.21858 20.1659 2.02421 20.3602ZM32.929 13.5573C32.929 13.1686 32.7346 12.9742 32.5403 12.9742C32.5403 13.1685 32.7346 13.3629 32.929 13.5573Z" fill="black"/>
<path d="M32.7338 41.7418C33.1225 40.5756 33.1225 39.4094 33.3169 38.4375C33.7056 38.4375 33.7056 38.4375 34.2888 39.4094C34.6775 38.8263 34.6775 37.8544 35.2606 37.0769C35.6493 37.66 35.6493 38.4375 36.2325 38.8263C36.4268 38.6319 36.6212 38.4375 36.8156 38.2432C37.2043 38.2432 37.3987 38.4375 37.593 38.8263C37.7874 39.0206 37.7874 39.4094 37.9818 39.6037C38.1761 39.215 38.1761 39.215 38.3705 39.0206C38.5649 38.8263 38.5649 38.6319 38.7593 38.4375C39.148 37.8544 39.5367 37.8544 39.9255 38.2432C40.1198 38.4375 40.3142 38.8263 40.5086 39.0206C40.703 38.8263 41.0917 38.6319 41.2861 38.4375C41.4804 38.0488 41.8692 38.0488 42.2579 38.2432C42.4523 38.4375 42.841 38.4375 43.2298 38.4375C43.6185 38.4375 43.8129 38.2432 43.6185 37.8544C43.4241 37.4657 43.4241 37.2713 43.2298 37.0769C43.0354 36.6882 42.841 36.1051 43.0354 35.522H43.2298C43.4241 36.2995 43.6185 37.0769 44.396 37.8544C44.7847 38.2432 44.9791 38.6319 45.1735 39.215C45.9509 40.1868 46.534 41.3531 47.1172 42.3249C47.3115 42.5193 47.3115 42.7137 47.7003 42.908C48.2834 42.3249 48.8665 41.7418 49.644 41.1587L49.8383 41.3531C49.2552 41.9362 48.6721 42.5193 48.089 43.2968C48.4777 43.6855 48.6721 43.8799 48.8665 44.2686C49.2552 44.463 49.0609 44.8517 49.0609 45.2405C49.0609 46.0179 49.0609 46.7954 49.0609 47.7673C49.0609 47.9616 49.0608 48.3504 49.2552 48.5448C49.8383 48.7391 50.0327 47.9616 50.6158 48.3504C50.0327 48.5448 49.644 48.7391 49.4496 49.3222C49.4496 49.5166 49.4496 49.711 49.644 49.9053C50.0327 49.711 50.6158 49.5166 51.0045 49.3222V49.5166C50.8102 49.711 50.6158 49.711 50.6158 49.9053C50.0327 50.2941 49.4496 50.6828 49.0609 51.4603C48.8665 51.849 48.2834 52.2378 47.8946 52.4321C47.7003 52.6265 47.5059 52.8209 47.3115 53.0152C46.9228 53.404 47.1172 53.7927 47.7003 53.9871C47.7003 53.9871 47.7003 53.9871 47.8946 53.9871C48.089 53.9871 47.8946 53.9871 48.089 53.9871C48.089 53.5984 48.2834 53.404 48.2834 53.0152C48.6721 53.2096 48.6721 53.2096 48.4777 54.1815C48.8665 54.1815 49.2552 54.1815 49.644 54.1815C49.644 53.7927 49.8383 53.404 50.0327 53.0152C50.4214 53.404 50.0327 53.9871 50.4214 54.3758C50.8102 54.5702 50.8102 54.1815 50.8102 53.9871C51.0045 53.2096 51.3933 52.4321 51.5877 51.6547C51.9764 50.2941 52.1708 48.9335 52.5595 47.5729C52.5595 47.1842 52.7539 46.7954 52.7539 46.4067C52.7539 46.018 52.9482 45.8236 53.337 46.0179C53.9201 46.0179 54.5032 45.8236 55.0863 45.4348C55.2807 46.018 55.2807 46.0179 54.8919 46.2123C54.5032 46.4067 54.1145 46.4067 53.7257 46.6011C53.337 46.7954 53.1426 46.9898 53.1426 47.1842C52.7539 48.7391 52.5595 50.2941 52.1708 51.849C51.9764 52.6265 51.5877 53.2096 51.3933 53.9871C51.1989 54.5702 50.6158 54.959 50.0327 55.3477C49.8383 54.959 49.4496 54.9589 49.0609 54.9589C48.4777 54.9589 48.089 54.9589 47.5059 54.9589C46.1453 54.7646 46.1453 53.7927 46.7284 52.8209C46.9228 52.4321 47.1172 52.2378 47.5059 51.849C47.7003 51.6547 47.8946 51.4603 48.089 51.2659C48.2834 51.0716 48.4777 50.8772 48.6721 50.8772C49.0608 50.4884 49.2552 50.0997 49.0609 49.5166C48.8665 48.5448 48.6721 47.3785 48.4777 46.4067C48.4777 45.8236 48.2834 45.2405 48.2834 44.6574C48.2834 44.463 48.089 44.0742 48.089 44.0742C46.7284 42.7137 45.5622 41.1587 44.5903 39.4094C44.0072 39.7981 43.4241 39.7981 42.841 39.4094C42.6467 39.215 42.2579 39.4094 42.0635 39.6037L41.8692 39.7981C41.0917 40.5756 41.0917 40.5756 40.3142 39.6037C40.1198 39.4094 40.1198 39.215 39.9255 39.215C39.3424 39.6037 39.3424 39.9925 39.148 40.5756C38.7593 41.5474 38.3705 42.3249 38.7593 43.4911C39.3424 43.2968 39.7311 42.7137 40.5086 42.7137C40.1198 42.908 39.9255 43.1024 39.5367 43.4911C38.5649 44.0743 38.5649 44.0742 38.7593 45.2405C38.7593 46.2123 38.9536 47.1842 38.9536 48.156C38.9536 48.3504 38.9536 48.7391 38.7593 48.7391C38.3705 49.1279 37.9818 49.5166 37.593 50.0997C37.3987 50.2941 37.0099 50.6828 37.0099 51.0716C36.8156 51.849 37.0099 52.2378 37.9818 52.2378C38.1761 51.849 38.3705 51.4603 38.5649 50.8772C38.5649 50.8772 38.7593 50.8772 38.9536 50.8772C38.7593 51.2659 38.7593 51.6547 38.5649 52.2378C38.9536 52.2378 39.148 52.2378 39.3424 52.2378C39.5367 51.849 39.3424 51.4603 39.7311 51.0716C39.7311 51.4603 39.7311 51.6547 39.9255 52.0434C40.5086 52.0434 40.8973 51.6547 41.0917 51.2659C40.703 50.4885 40.8973 49.9053 41.0917 49.1279C41.2861 48.5447 41.2861 47.9616 41.2861 47.1842C41.2861 46.7954 41.2861 46.4067 41.4804 46.0179C42.0635 46.0179 42.4523 46.0179 43.0354 46.0179C42.841 45.6292 42.6466 45.4348 42.4523 45.2405C42.2579 45.0461 42.2579 44.8517 42.2579 44.8517C42.4523 44.8517 42.6466 44.6574 42.6466 44.6574C43.0354 44.6574 43.2298 44.6574 43.6185 44.6574C43.4241 44.2686 43.2298 43.8799 43.2298 43.2968C43.6185 42.908 43.8129 42.908 44.2016 42.908C45.3678 42.908 45.5622 42.908 45.3678 41.7418C45.3678 41.7418 45.3678 41.7418 45.3678 41.5474C45.5622 41.5474 45.7566 41.5474 45.7566 41.7418C46.1453 42.5193 45.5622 43.4911 44.5903 43.4911C44.396 43.4911 44.2016 43.4911 43.6185 43.4911C43.8129 43.8799 43.8129 44.0742 44.0072 44.2686C44.2016 44.463 44.396 44.6574 44.2016 45.0461C44.0072 45.4348 43.8129 45.2405 43.6185 45.0461C43.4241 45.0461 43.2298 45.0461 42.841 45.0461C43.2298 45.4348 43.4241 45.6292 43.6185 46.0179C43.6185 46.2123 43.8129 46.4067 43.8129 46.4067C43.6185 46.4067 43.4241 46.6011 43.2298 46.6011C42.841 46.6011 42.4523 46.6011 42.2579 46.6011C41.6748 46.6011 41.6748 46.7954 41.4804 47.1842C41.4804 47.9616 41.2861 48.7391 41.2861 49.5166C41.2861 49.9053 41.2861 50.2941 41.2861 50.6828C41.2861 51.0716 41.2861 51.4603 40.8973 51.6547C40.5086 52.0434 40.1198 52.2378 39.7311 52.4321C38.7593 52.6265 37.593 52.6265 36.6212 52.2378C36.2324 52.0434 36.0381 51.4603 36.0381 50.8772C36.0381 50.0997 36.4268 49.711 37.0099 49.3222C37.2043 49.1279 37.593 48.9335 37.7874 48.5448C38.1761 48.156 38.1761 47.7673 38.1761 47.3785C38.1761 46.2123 37.9818 45.0461 37.9818 44.0742C37.9818 43.1024 37.9818 42.1305 37.7874 40.9643C37.7874 40.3812 37.593 39.7981 37.2043 39.4094C37.0099 39.6037 36.8156 39.9925 36.6212 40.1868C36.0381 39.7981 36.0381 39.215 35.455 38.6319C35.2606 39.0206 35.2606 39.215 35.0662 39.6037C35.0662 40.1869 35.0662 40.77 34.8719 41.5474C34.8719 41.7418 34.8719 41.9362 34.6775 42.1305C34.0944 41.5474 34.2887 40.77 33.7056 40.1868C33.3169 41.1587 33.5113 42.1305 33.1225 42.908C32.7338 42.7137 32.3451 42.5193 31.9563 42.3249C31.9563 42.7137 31.9563 43.1024 31.9563 43.4911C31.5676 43.4911 31.1788 43.2968 30.7901 43.2968C30.5957 43.8799 30.7901 44.463 30.4014 45.0461C30.207 45.0461 29.8182 45.0461 29.4295 45.0461L29.2351 45.2405C29.2351 46.4067 29.0408 46.2123 28.0689 46.2123C28.0689 46.2123 27.8746 46.2123 27.6802 46.2123C27.6802 46.4067 27.6802 46.6011 27.6802 46.6011C27.6802 46.9898 27.6802 47.1842 27.0971 47.1842C26.7083 47.1842 26.514 47.1842 25.9309 47.1842C26.1252 47.5729 26.3196 47.9616 26.514 48.3504C26.514 48.5448 26.7083 48.7391 26.7083 48.7391C26.9027 49.1279 26.7083 49.3222 26.3196 49.1279C25.9309 49.1279 25.5421 48.9335 24.959 48.9335C25.1534 49.3222 25.3477 49.711 25.5421 49.9053C25.7365 50.0997 25.7365 50.2941 25.9309 50.4885C26.1252 51.0716 26.1252 51.2659 25.5421 51.2659C25.1534 51.2659 24.7646 51.2659 24.1815 51.2659C24.1815 51.6547 24.1815 51.849 24.1815 52.2378C24.1815 52.8209 24.1815 53.404 24.1815 53.7927C24.1815 54.1815 23.9872 54.3758 23.5984 54.3758C22.8209 54.3758 21.8491 54.3758 21.0716 54.3758C20.8772 54.3758 20.6829 54.3758 20.2941 54.1815C19.5167 53.9871 19.1279 53.2096 19.5167 52.6265C19.711 52.4321 19.711 52.0434 19.9054 51.849C19.711 51.849 19.5167 51.849 19.3223 51.849C18.7392 51.849 18.1561 51.849 17.573 51.849C16.7955 51.849 16.2124 50.8772 16.7955 50.0997C17.3786 49.5166 17.7673 48.9335 18.3504 48.3504C18.3504 47.3785 18.1561 46.4067 17.9617 45.2405C17.9617 44.6574 17.7673 44.2686 17.7673 43.6855C17.7673 43.2968 17.9617 43.1024 18.3504 43.1024C18.5448 43.2968 18.5448 43.6855 18.5448 43.8799C18.5448 44.463 18.7392 45.0461 18.7392 45.8236C18.7392 46.2123 18.7392 46.4067 19.3223 46.4067C19.1279 46.6011 18.7392 46.7954 18.9335 47.3785C19.1279 47.3785 19.1279 47.3785 19.3223 47.1842V47.3785C18.7392 47.7673 18.7392 48.156 18.9335 48.9335C18.9335 49.1279 18.9335 49.1279 18.9335 49.3222C18.7392 49.3222 18.7392 49.5166 18.5448 49.3222C18.3504 49.3222 17.9617 49.1279 17.7673 49.3222C17.3786 49.711 16.7955 50.0997 16.7955 50.6828C16.7955 50.8772 16.9898 51.0716 16.9898 51.0716C17.1842 51.2659 17.3786 51.2659 17.7673 51.2659C17.9617 50.8772 17.9617 50.4884 18.3504 50.0997C18.7392 50.4884 18.1561 50.6828 18.3504 51.0716C18.5448 51.0716 18.9335 51.0716 19.1279 51.0716C19.5167 50.6828 19.1279 50.0997 19.711 49.711C19.711 50.0997 19.711 50.4884 19.711 50.8772C20.4885 50.6828 20.4885 50.4884 20.4885 50.0997C20.2941 48.7391 20.0998 47.5729 20.0998 46.2123C20.0998 46.0179 20.0998 45.8236 19.9054 45.6292C19.9054 45.2405 19.711 44.8517 19.711 44.463C19.711 42.3249 19.3223 40.1868 18.9335 38.2432C18.9335 37.8544 18.9335 37.4657 18.7392 36.8826C18.7392 36.6882 18.7392 36.6882 18.9335 36.4938C19.3223 36.6882 19.3223 36.8826 19.3223 37.0769C19.3223 37.4657 19.3223 37.8544 19.5167 38.2432C19.9054 39.6037 19.9054 40.9643 20.0998 42.3249C20.2941 43.8799 20.4885 45.4348 20.8772 46.9898C21.6547 46.7954 22.2378 46.0179 23.0153 46.0179C22.8209 46.0179 22.8209 46.2123 22.6266 46.2123C22.2378 46.601 21.6547 46.7954 21.266 47.1842C20.8772 47.3785 20.8772 47.7673 21.0716 48.156C21.4604 47.7673 22.0435 47.5729 22.6266 47.1842V47.3785C22.0435 47.7673 21.6547 48.156 21.0716 48.5448C21.0716 49.1279 21.266 49.711 21.266 50.2941C21.266 50.6828 21.266 50.8772 21.0716 51.2659C20.8772 51.4603 20.6829 51.6547 20.2941 52.0434C20.0998 52.4321 19.9054 52.6265 19.711 53.0152C19.5167 53.5984 19.711 53.5984 20.4885 53.5984C20.4885 53.404 20.4885 53.0153 20.6829 52.6265C21.266 52.8209 20.8772 53.2096 21.266 53.5984C21.4603 53.5984 21.6547 53.5984 22.2378 53.7927C22.2378 53.5984 22.2378 53.404 22.2378 53.2096C22.2378 53.0153 22.2378 52.8209 22.4322 52.6265C22.4322 52.8209 22.6266 52.8209 22.6266 53.0152C22.6266 53.2096 22.6266 53.404 22.6266 53.404C22.6266 53.5984 22.8209 53.7927 23.0153 53.7927C23.2097 53.7927 23.2097 53.5984 23.404 53.404C23.5984 52.8209 23.5984 52.2378 23.404 51.6547C23.404 51.2659 23.2097 50.8772 23.404 50.6828C23.5984 50.2941 23.9872 50.6828 24.3759 50.6828C24.5703 50.6828 24.959 50.6828 25.3477 50.6828C25.1534 49.9053 24.3759 49.3222 24.3759 48.5448C24.959 48.156 25.5421 48.7391 26.1252 48.3504C25.9309 47.7673 25.5421 47.1842 25.3477 46.7954C25.9309 46.4067 26.514 46.7954 27.0971 46.4067C27.0971 46.018 27.0971 45.6292 27.0971 45.2405C27.6802 45.2405 28.0689 45.4348 28.652 45.4348C28.652 45.0461 28.652 44.6574 28.8464 44.2686C29.2351 44.2686 29.6239 44.2686 30.0126 44.2686C30.0126 43.6855 30.0126 43.1024 30.0126 42.3249C30.4014 42.3249 30.7901 42.5193 31.1788 42.5193C31.1788 42.1306 31.1788 41.7418 31.1788 41.1587C31.5676 41.3531 31.7619 41.3531 31.9563 41.3531C32.1507 41.5474 32.3451 41.5474 32.7338 41.7418Z" fill="black"/>
<path d="M21.8466 24.637C21.6522 24.2483 21.4578 23.8596 21.2635 23.4708C22.0409 23.0821 22.6241 23.4708 23.4015 23.6652C23.2072 23.4708 23.2072 23.2765 23.2072 23.0821C23.0128 22.6934 22.6241 22.1102 22.2353 21.7215C22.2353 21.5271 22.2353 21.3328 22.2353 21.3328C22.2353 21.3328 22.4297 21.1384 22.6241 21.1384C23.0128 21.1384 23.2072 21.3328 23.5959 21.3328C23.7903 21.3328 24.179 21.5271 24.5678 21.7215C24.179 20.944 23.2072 20.7496 22.6241 19.9722C23.0128 19.9722 23.2072 19.9722 23.2072 19.9722C23.9846 20.3609 24.9565 20.944 25.5396 22.1102C25.3452 22.1102 25.1509 22.3046 25.1509 22.3046C24.7621 22.3046 24.3734 22.1102 23.9846 21.9159C23.7903 21.9159 23.4015 21.7215 23.0128 21.7215C23.2072 22.3046 23.4015 22.6934 23.7903 23.0821C23.9846 23.4708 24.179 23.6652 24.3734 23.8596C24.3734 24.0539 24.3734 24.2483 24.3734 24.4427C23.5959 24.2483 23.0128 24.0539 22.2353 23.6652C22.4297 24.2483 22.8184 24.8314 23.0128 25.2202C23.0128 25.2202 23.0128 25.4145 22.8184 25.4145C22.041 25.2202 21.4578 24.8314 20.6804 24.637C20.8747 25.4145 21.2635 25.9976 21.0691 26.7751C20.486 26.7751 20.2916 26.192 19.9029 25.9976C19.9029 26.5808 19.7085 26.9695 19.7085 27.5526C19.3198 27.747 19.3198 27.5526 18.931 27.3582C18.5423 27.1639 18.5423 26.9695 18.3479 26.9695C17.5704 27.747 17.5704 28.5244 16.793 28.7188C16.9873 28.1357 17.1817 27.5526 17.3761 27.1639C17.5704 26.3864 17.9592 26.3864 18.5423 26.7751C18.7367 26.9695 18.931 26.9695 19.1254 27.1639C19.3198 26.5807 18.7367 25.9976 18.931 25.2202C19.5141 25.4145 19.9029 25.8033 20.2916 26.192C20.2916 25.4145 19.3198 24.8314 19.5141 24.0539C20.2916 24.2483 21.0691 24.637 21.6522 24.8314C21.8466 24.637 21.8466 24.637 21.8466 24.637Z" fill="black"/>
<path d="M15.6342 28.9132C15.2454 28.7188 15.2454 28.7188 15.0511 27.1639C14.2736 27.3582 14.2736 28.3301 13.6905 28.5244C13.4961 27.747 13.8848 27.1639 13.8848 26.5807C13.1074 26.9695 12.913 27.9413 11.9411 28.1357C12.1355 27.3582 12.3299 26.5807 12.5242 25.6089C11.7468 25.8033 11.358 26.7751 10.3862 26.7751C10.3862 26.192 10.7749 25.9976 10.9693 25.6089C11.1637 25.2202 11.358 25.0258 11.358 24.2483C11.1637 24.4427 10.9693 24.4427 10.5806 24.637C10.3862 24.8314 10.1918 25.0258 9.80307 25.0258C9.6087 25.0258 9.6087 25.0258 9.41433 25.0258C9.41433 25.0258 9.41433 24.8314 9.41433 24.637C9.6087 24.2483 9.80307 24.0539 9.80307 23.6652C9.99744 23.4708 9.99744 23.0821 10.1918 22.6933C9.21996 22.8877 8.83122 23.8596 7.85938 23.8596C7.85938 23.6652 7.85938 23.4708 7.85938 23.2765C8.05374 22.6934 8.44248 22.1102 8.63685 21.5271C8.63685 21.3328 8.83122 21.1384 8.83122 20.944C8.83122 20.3609 9.21996 20.1665 9.6087 19.9722C9.80307 20.7496 9.41433 20.944 9.02559 21.5271C8.83122 21.9159 8.63685 22.499 8.24811 23.0821C9.02559 22.6934 9.6087 22.1102 10.3862 21.9159C10.5806 22.1102 10.5806 22.3046 10.5806 22.499C10.3862 22.8877 10.3862 23.0821 10.1918 23.4708C9.99744 23.6652 9.99744 24.0539 9.80307 24.4427C10.5806 24.2483 10.9693 23.6652 11.5524 23.6652C11.7468 24.4427 11.1637 25.0258 10.9693 25.6089C11.358 25.6089 11.5524 25.2202 11.7468 25.0258C11.9411 24.8314 12.1355 24.637 12.5242 24.4427C12.913 25.2202 12.3299 25.8033 12.3299 26.3864C12.913 26.192 13.1074 25.4145 13.8848 25.2202C13.8848 25.6089 13.8848 25.9976 13.8848 26.3864C14.2736 26.192 14.4679 26.192 14.8567 25.9976C15.4398 27.3582 15.4398 28.1357 15.6342 28.9132Z" fill="black"/>
<path d="M16.6049 17.4433C16.9937 18.0265 17.3824 18.2208 17.7712 18.2208C18.1599 18.2208 18.5486 17.8321 19.1317 17.6377C18.743 18.4152 18.3543 18.8039 17.7712 18.8039C17.5768 18.8039 17.3824 18.8039 17.188 18.9983C16.6049 19.387 16.2162 19.1927 15.8275 18.8039C15.6331 18.6096 15.2443 18.6096 15.05 18.6096C14.6612 18.6096 14.2725 18.4152 14.0781 18.0264C14.0781 17.8321 14.0781 17.8321 14.0781 17.6377C14.2725 17.8321 14.4669 17.8321 14.4669 18.0264C15.05 18.2208 15.6331 18.0265 16.0218 17.6377C16.2162 17.249 16.2162 17.0546 16.0218 16.6659C15.8275 16.4715 15.6331 16.0828 15.2443 15.694C15.8275 15.1109 16.4106 14.7222 17.188 14.7222C17.9655 14.7222 18.1599 15.1109 17.9655 15.8884C17.7711 16.4715 17.3824 17.0546 16.6049 17.4433Z" fill="black"/>
<path d="M39.3404 23.0816C38.9516 22.8872 38.5629 22.8872 38.3685 22.6928C38.3685 23.4703 39.3404 23.6647 39.5348 24.2478C38.9516 24.4421 38.3685 24.0534 37.7854 24.2478C37.7854 24.8309 38.5629 25.0252 38.7573 25.8027C37.9798 25.6084 37.3967 25.6084 36.8136 25.414C37.0079 26.3858 37.5911 26.9689 37.9798 27.7464C37.7854 27.5521 37.5911 27.5521 37.5911 27.5521C37.0079 26.7746 36.6192 25.9971 36.2305 25.2196C36.6192 24.8309 37.2023 25.2196 37.5911 25.0253C37.3967 24.6365 37.2023 24.2478 37.0079 23.859C37.3967 23.859 37.9798 23.859 38.3685 23.859C38.3685 23.4703 37.9798 23.2759 37.7854 23.0816C37.5911 22.8872 37.3967 22.6928 37.3967 22.3041C37.7854 22.1097 38.1742 22.4984 38.5629 22.4984C38.5629 21.721 37.5911 20.9435 37.7854 20.166C38.5629 20.3604 39.5348 22.3041 39.3404 23.0816Z" fill="black"/>
<path d="M8.6343 11.8072C7.46808 12.5846 6.88497 13.1677 6.49623 13.9452C6.88497 13.7509 7.27371 13.7509 7.85682 13.5565C7.66245 14.5283 6.88497 14.9171 6.49623 15.8889C7.07934 15.6946 7.46808 15.5002 7.85682 15.5002C7.85682 16.0833 7.46808 16.2777 7.27371 16.6664C7.07934 17.0551 6.88497 17.2495 6.49623 17.8326C6.88497 17.6382 7.07934 17.6383 7.27371 17.6383C7.66245 17.6383 7.85682 17.8326 7.85682 18.2214C7.85682 18.2214 7.85682 18.6101 7.85682 18.9988C7.46808 18.8045 7.46808 18.8045 7.66245 17.8326C7.07934 18.027 6.6906 18.2214 6.10749 18.2214C6.30186 17.2495 6.88497 16.8608 7.07934 16.0833C6.6906 16.2777 6.30186 16.472 5.71875 16.472C5.71875 15.8889 6.10749 15.5002 6.30186 15.1114C6.49623 14.7227 6.6906 14.334 7.07934 13.9452C6.49623 13.9452 6.10749 14.334 5.71875 14.1396C5.71875 13.9452 5.71875 13.9452 5.71875 13.9452C6.30186 13.1677 7.07934 12.3903 7.66245 11.8072C7.85682 11.8072 8.24556 11.8072 8.43993 11.6128C8.43993 11.6128 8.6343 11.6128 8.6343 11.8072Z" fill="black"/>
<path d="M17.3791 9.66895C17.3791 9.86332 17.3791 10.0577 17.3791 10.4464C17.3791 11.0295 17.3791 11.6126 17.3791 12.1957C17.3791 12.7789 17.5735 13.1676 18.1566 13.5563C18.7397 13.9451 19.3228 14.5282 19.9059 15.1113C20.1003 15.3057 20.1003 15.6944 19.7115 15.8888C19.3228 15.5 18.934 14.9169 18.3509 14.5282C16.796 12.9732 14.6579 13.362 13.6861 15.3057C13.6861 15.3057 13.6861 15.5 13.2973 15.5C13.2973 15.3057 13.103 15.1113 13.2973 14.9169C13.6861 13.9451 14.4635 13.1676 15.4354 12.9732C16.4072 12.7789 16.796 12.3901 16.796 11.4183C16.796 11.0295 16.796 10.4464 16.796 10.0577C16.796 9.66894 16.796 9.66895 17.3791 9.66895Z" fill="black"/>
<path d="M20.1008 42.9061C19.5176 42.9061 19.1289 42.5174 18.5458 42.323C18.3514 42.5174 18.1571 42.5174 18.1571 42.7118C16.2134 41.5456 14.8528 39.7962 13.4922 38.2413C13.4922 38.2413 13.4922 38.0469 13.4922 37.8525C13.6866 38.0469 13.8809 38.2413 14.0753 38.2413C14.8528 39.0188 15.6303 39.9906 16.4077 40.7681C16.6021 41.1568 16.9908 41.5456 17.574 41.1568C17.574 41.1568 17.7683 41.1568 17.7683 41.3512C18.5458 41.7399 19.1289 42.1287 19.9064 42.5174C19.9064 42.5174 19.9064 42.7118 20.1008 42.9061Z" fill="black"/>
<path d="M28.4615 16.863C27.8784 17.2517 27.4896 16.6686 27.1009 16.6686C27.1009 16.6686 27.1009 16.4742 26.9065 16.4742C27.1009 16.4742 27.1009 16.2799 27.2953 16.2799C26.9065 15.6968 25.9347 15.5024 25.5459 14.5305C25.7403 14.5305 26.129 14.3362 26.3234 14.3362C26.129 13.9474 25.3516 13.7531 25.3516 12.9756C26.3234 13.5587 27.2953 14.3362 28.0727 15.1137C28.0727 15.1137 28.0727 15.308 28.0727 15.5024C27.684 15.5024 27.4896 15.308 27.1009 15.308C27.2953 15.6968 27.684 15.8911 27.8784 16.0855C28.0727 16.2799 28.2671 16.6686 28.4615 16.863Z" fill="black"/>
<path d="M29.6227 29.6914C29.4283 29.8858 29.0396 30.0802 28.8452 30.0802C28.8452 30.2746 28.8452 30.6633 28.8452 30.8577C28.8452 31.2464 28.8452 31.4408 28.2621 31.4408C27.679 31.4408 27.4846 31.6351 27.8734 32.2182C27.8734 32.4126 28.0678 32.607 28.0678 32.8014C28.2621 33.1901 28.0678 33.3845 27.8734 33.3845C27.2903 33.3845 26.5128 33.3845 25.9297 33.3845C26.1241 32.9957 26.1241 32.9957 27.4846 32.8014C27.2903 32.4126 27.0959 31.8295 26.9015 31.4408C27.0959 30.8577 27.679 31.052 28.0678 30.8577C28.0678 30.6633 28.0678 30.4689 28.0678 30.0802C28.0678 29.4971 28.2621 29.4971 28.8452 29.4971C29.234 29.4971 29.4283 29.4971 29.6227 29.6914Z" fill="black"/>
<path d="M18.743 35.1341C18.743 35.3285 18.743 35.3285 18.5486 35.5228C17.9655 35.7172 17.5768 35.1341 17.188 34.9397C16.6049 35.3285 16.7993 36.1059 16.0218 36.3003C15.6331 35.9116 16.0218 35.3285 15.6331 34.7454C15.05 34.9397 14.8556 35.7172 14.0781 35.7172C14.0781 35.1341 14.2725 34.1622 14.8556 33.3848C15.2443 33.5791 15.05 33.7735 14.8556 33.9679C14.6612 34.1623 14.6612 34.3566 14.6612 34.7454C15.05 34.3566 15.4387 34.1623 15.8275 33.7735C16.2162 34.1623 16.0218 34.7454 16.2162 35.3285C16.6049 34.7454 16.7993 34.3566 16.9937 33.9679C17.5768 34.551 18.1599 34.7454 18.743 35.1341Z" fill="black"/>
<path d="M12.1297 5.00649C12.324 4.81212 12.5184 4.61775 12.9072 4.61775C13.2959 5.20086 13.2959 5.39523 12.7128 5.5896H12.5184C12.1297 6.17271 11.5466 5.97833 11.1578 5.97833C10.7691 6.36707 10.5747 6.75581 10.186 6.95018C9.99161 6.56144 10.186 6.36707 10.3803 6.36707C10.5747 5.97833 10.9635 5.5896 10.3803 5.00649C10.7691 5.00649 10.7691 5.00649 11.1578 4.81212C11.1578 4.61775 11.3522 4.42337 11.5466 4.229C11.7409 4.61774 11.9353 4.81212 12.1297 5.00649Z" fill="black"/>
<path d="M25.347 5.5896C26.1245 6.17271 26.1245 6.36707 25.5414 7.14455C25.347 6.75581 25.347 6.75581 25.347 6.36707C24.9582 6.36707 24.3751 6.36707 23.9864 6.36707C23.792 5.97833 23.5977 5.58959 23.5977 5.39522C23.5977 5.00648 23.792 4.61774 23.9864 4.229C24.5695 4.61774 24.1808 5.00648 24.5695 5.39522C24.7639 5.20085 25.1526 5.00649 25.5414 4.81212C25.347 5.20086 25.347 5.39523 25.347 5.5896Z" fill="black"/>
<path d="M29.8215 37.2719C29.4327 37.855 29.6271 38.4381 29.4327 39.0213C29.044 38.4381 29.2383 37.2719 29.8215 36.4944C30.0158 36.6888 30.4046 36.8832 30.5989 37.0776C30.7933 36.8832 30.7933 36.6888 30.9877 36.3001C31.182 35.9113 31.3764 35.5226 31.7651 35.3282C32.3483 34.7451 32.5426 34.7451 33.3201 34.9395C33.3201 35.1339 32.9314 35.1339 32.737 35.1339C32.1539 35.1339 31.7652 35.5226 31.5708 35.9113C31.3764 36.3001 31.182 36.6888 30.9877 37.0776C30.5989 37.6607 30.5989 37.6607 30.0158 37.2719H29.8215Z" fill="black"/>
<path d="M20.8811 11.8066C21.4642 11.8066 21.8529 12.001 21.8529 12.5841C21.8529 13.1672 21.4642 13.7503 20.8811 13.7503C20.298 13.7503 19.9092 13.3616 19.9092 12.7785C19.7149 12.1954 20.298 11.8066 20.8811 11.8066Z" fill="black"/>
<path d="M18.9353 19.0005C17.9635 20.5554 15.8254 20.7498 14.4648 19.3892C14.6592 19.3892 14.8536 19.1949 14.8536 19.1949C15.048 19.1949 15.2423 19.3892 15.2423 19.3892C16.2142 19.9723 17.186 19.778 17.9635 19.1949C18.3522 19.0005 18.5466 19.0005 18.9353 19.0005Z" fill="black"/>
<path d="M11.9336 12.0041C11.9336 11.6153 12.3223 11.0322 12.9054 11.0322C13.2942 11.0322 13.6829 11.421 13.6829 11.8097C13.6829 12.1984 13.2942 12.9759 12.7111 12.9759C12.5167 12.7816 11.9336 12.3928 11.9336 12.0041Z" fill="black"/>
<path d="M47.1213 13.75C47.1213 14.7218 46.7326 14.9162 45.372 15.305C45.372 15.4993 45.372 15.6937 45.1777 16.0824C44.5945 16.0824 44.7889 15.6937 44.7889 15.305C44.7889 14.9162 44.9833 14.7218 45.372 14.7218C46.1495 14.9162 46.7326 14.5275 47.1213 13.75Z" fill="black"/>
<path d="M27.6828 42.131C27.6828 41.9367 27.8772 41.7423 27.8772 41.3535C28.2659 41.5479 28.6546 41.9367 29.2377 42.131C29.0434 42.5198 28.6546 42.131 28.2659 42.131C28.0715 42.3254 27.8772 42.5198 27.6828 42.7141C27.294 42.3254 26.7109 41.9367 26.7109 41.1592C26.9053 41.3535 27.0997 41.5479 27.294 41.5479C27.4884 41.9367 27.4884 41.9367 27.6828 42.131Z" fill="black"/>
<path d="M12.3284 9.66895C12.134 10.2521 11.5509 10.6408 10.9678 11.0295H10.7734C10.7734 10.4464 11.1622 10.2521 12.3284 9.66895Z" fill="black"/>
<path d="M3 24.0546C3.19437 23.8602 3.19437 23.6659 3.19437 23.6659C3.97185 23.0828 4.74933 22.3053 5.72118 21.7222C5.72118 21.7222 5.91555 21.7222 6.10992 21.7222C4.9437 22.4996 4.16622 23.4715 3 24.0546Z" fill="black"/>
<path d="M21.2656 10.8353C21.6544 10.4465 22.0431 10.6409 22.2375 10.8353C22.6262 11.0296 22.8206 11.224 22.8206 11.8071C22.2375 11.4184 21.8487 11.224 21.2656 10.8353Z" fill="black"/>
<path d="M40.8979 42.3247C40.1204 43.1022 39.3429 43.8797 38.3711 44.4628C38.5655 43.8797 39.7317 42.7134 40.8979 42.3247Z" fill="black"/>
<path d="M12.9062 33.3836C13.295 32.6061 14.2668 31.8286 15.0443 31.6343C14.2668 32.023 13.6837 32.6061 12.9062 33.3836Z" fill="black"/>
<path d="M12.3242 32.4109C13.1017 31.8278 13.6848 31.2447 14.4623 30.856C13.8792 31.4391 13.1017 32.0222 12.3242 32.4109C12.3242 32.6053 12.3242 32.6053 12.3242 32.4109Z" fill="black"/>
<path d="M42.0665 37.0759C41.6778 36.6872 41.4834 36.2984 41.2891 35.7153C41.8722 35.9097 42.0665 36.2984 42.0665 37.0759Z" fill="black"/>
<path d="M26.7109 23.0822C26.9053 22.3048 27.4884 22.1104 28.0715 21.916C27.6828 22.3048 27.294 22.6935 26.7109 23.0822Z" fill="black"/>
<path d="M20.4876 21.1377C19.9045 21.5264 19.3214 21.9152 18.7383 22.3039C18.9327 21.7208 19.5158 21.3321 20.4876 21.1377Z" fill="black"/>
<path d="M5.1312 21.1377C4.93683 21.3321 4.93683 21.3321 4.93683 21.5264C4.35372 21.9152 3.96498 22.3039 3.1875 22.887C3.38187 22.3039 4.35372 21.5264 5.1312 21.1377Z" fill="black"/>
<path d="M25.1526 8.31006C24.5695 8.6988 23.9864 9.28192 23.5977 9.67066C23.792 8.89318 24.3751 8.50443 25.1526 8.31006Z" fill="black"/>
<path d="M23.0117 8.69681C23.7892 7.72496 24.1779 7.53059 24.5667 7.72496C24.1779 7.91933 23.5948 8.30807 23.0117 8.69681Z" fill="black"/>
<path d="M40.8947 37.2688C40.5059 36.88 40.5059 36.88 40.1172 36.1025C40.3116 36.1025 40.5059 36.1025 40.5059 36.1025C40.8947 36.4913 41.089 36.88 40.8947 37.2688Z" fill="black"/>
<path d="M47.1211 41.5481C47.5098 41.1594 47.8986 40.7706 48.4817 40.1875C48.2873 40.7706 47.8986 40.965 47.1211 41.5481Z" fill="black"/>
<path d="M20.1037 19.7788C20.1037 19.9732 20.1037 19.9732 20.1037 19.9732C19.715 20.3619 19.3262 20.5563 18.9375 20.945V20.7507C19.3262 20.3619 19.5206 19.9732 20.1037 19.7788Z" fill="black"/>
<path d="M27.2961 21.1377C26.9073 21.5264 26.713 21.7208 26.3242 22.1095C26.5186 21.5264 26.5186 21.3321 27.2961 21.1377Z" fill="black"/>
<path d="M27.2969 21.1363C27.4912 20.7476 27.88 20.5532 28.2687 20.5532V20.7476C28.0744 20.7476 27.6856 20.942 27.2969 21.1363Z" fill="black"/>
<path d="M58.3937 19.3877C58.1994 19.7764 57.8106 19.9708 57.6162 20.3595L57.4219 20.1652C57.6162 19.9708 58.005 19.5821 58.3937 19.3877Z" fill="black"/>
<path d="M5.13281 21.1392C5.13281 20.9449 5.32718 20.7505 5.71592 20.7505C5.71592 21.1392 5.52155 21.1392 5.13281 21.1392Z" fill="black"/>
<path d="M58.3945 19.3898C58.5889 19.1954 58.7833 19.001 58.7833 18.8066C58.9776 19.3897 58.5889 19.3898 58.3945 19.3898Z" fill="black"/>
<path d="M23.7969 46.794C23.9912 46.794 23.9912 46.5996 24.1856 46.5996V46.794C24.1856 46.794 23.9912 46.794 23.7969 46.794Z" fill="black"/>
<path d="M12.5186 11.8082C12.6259 11.8082 12.713 11.7211 12.713 11.6138C12.713 11.5065 12.6259 11.4194 12.5186 11.4194C12.4112 11.4194 12.3242 11.5065 12.3242 11.6138C12.3242 11.7211 12.4112 11.8082 12.5186 11.8082Z" fill="white"/>
<path d="M20.292 12.7798C20.3994 12.7798 20.4864 12.6928 20.4864 12.5855C20.4864 12.4781 20.3994 12.3911 20.292 12.3911C20.1847 12.3911 20.0977 12.4781 20.0977 12.5855C20.0977 12.6928 20.1847 12.7798 20.292 12.7798Z" fill="white"/>
<path d="M16.4053 15.8887C16.5997 15.6944 16.794 15.6944 16.9884 15.6944H17.1828H17.3772V15.5C17.1828 15.5 17.1828 15.5 16.9884 15.5C16.794 15.5 16.4053 15.6944 16.2109 15.8887V16.0831C16.2109 15.8887 16.4053 15.8887 16.4053 15.8887Z" fill="white"/>
</g>
</svg>
