<svg width="81" height="71" viewBox="0 0 81 71" fill="none" xmlns="http://www.w3.org/2000/svg">
<path d="M42.2958 42.6036C42.2958 43.7624 42.1992 44.8246 42.1992 45.9834C42.1992 46.4662 42.1992 46.949 42.2958 47.4319C42.3924 48.0113 42.6821 48.4941 42.8752 48.9769C43.7443 50.6186 44.71 52.3568 45.9653 53.7087C46.5447 54.2881 47.0276 54.6744 47.6069 55.2538C48.9589 56.6057 49.828 58.3439 50.2142 60.2752C50.5039 61.8203 50.2142 63.5585 48.9589 64.4276C48.5726 64.7173 47.9932 64.9104 47.8001 65.2967C47.5104 65.7795 47.7035 66.4555 48.1864 66.8417C48.5726 67.228 49.152 67.3246 49.7314 67.4211C50.0211 67.5177 50.3108 67.5177 50.6971 67.4211C51.1799 67.3246 51.5662 66.9383 51.9524 66.552C52.6284 65.8761 53.3044 65.2001 53.5941 64.331C54.27 62.786 53.7872 61.0478 53.5941 59.3096C53.4975 58.2473 53.5941 57.2817 53.5941 56.2194C53.6906 53.3224 53.7872 50.4254 53.9803 47.4319C53.9803 46.3696 54.0769 45.3074 53.5941 44.3417C52.8215 42.7967 50.9868 42.1207 49.2486 42.0242C47.3172 41.9276 45.3859 42.3139 43.7443 43.2795" fill="white"/>
<path d="M10.7188 38.3545C11.6844 43.0863 11.3947 51.0047 11.781 55.833C11.9741 58.2472 12.4569 60.5648 12.2638 62.979C12.2638 63.6549 12.1672 64.4274 11.781 65.0068C11.4913 65.4897 11.105 65.9725 11.2981 66.4553C11.3947 66.9382 11.9741 67.1313 12.457 67.2279C13.2295 67.421 14.0986 67.421 14.8711 67.421C14.9677 67.421 15.0642 67.421 15.2574 67.3244C15.4505 67.2279 15.4505 67.0347 15.5471 66.8416C16.6093 62.2064 15.3539 57.2815 16.223 52.5498C16.4162 51.2944 16.8024 49.9425 17.0921 48.6871C17.2853 47.4317 17.4784 46.1764 17.4784 45.0176C17.4784 44.6313 17.4784 44.245 17.3818 43.8588C17.0921 43.1828 16.5127 42.7 15.9333 42.2172C15.1608 41.6378 14.3883 41.1549 13.5192 41.1549" fill="white"/>
<path d="M68.2748 43.9565C66.2469 39.9972 67.0195 34.8792 64.5087 31.2097C63.2534 29.3749 61.4186 28.2161 59.2942 27.347C54.659 26.8642 49.9272 26.1882 45.292 25.7054C38.3392 24.8363 30.9036 23.5809 25.3027 19.1389C25.2062 19.0423 25.1096 18.9457 25.013 18.8492C24.1439 18.4629 23.2748 17.8835 22.6954 17.111C21.4401 15.5659 21.5366 13.2483 22.2126 11.317C22.8886 9.38565 24.0474 7.74401 24.8199 5.81268C25.1096 5.04015 25.3027 4.07449 24.6268 3.59166C24.3371 3.39852 24.0474 3.30196 23.6611 3.30196C21.8263 3.10882 19.9916 2.81912 18.1568 2.62599C17.2877 2.52942 16.5152 2.43286 15.6461 2.62599C14.1976 3.01226 13.0388 4.26762 11.4937 4.26762C9.8521 4.36419 8.50016 2.91569 7.24479 1.75689C5.98943 0.598092 4.25124 -0.464137 2.80274 0.404961C1.64395 1.08093 1.45081 2.52942 1.25767 3.88135C1.16111 4.75045 1.06454 5.61955 0.967971 6.58522C0.967971 6.87492 0.871402 7.26118 1.1611 7.45432C1.35423 7.64745 1.74051 7.64745 2.03021 7.64745C3.67184 7.84058 4.25124 10.0616 3.67184 11.6067C3.09244 13.1517 1.7405 14.4071 1.1611 15.9522C0.388569 17.8835 0.871402 20.2011 2.12677 21.8427C2.3199 22.0359 2.51304 22.3256 2.70617 22.4221C3.57527 22.8084 4.44437 21.7462 4.83063 20.8771C5.60316 19.0423 7.2448 18.3663 7.05166 20.9736C6.9551 22.3256 6.37569 23.2912 5.98943 24.5466C4.9272 28.1195 6.27913 32.465 7.92076 35.6517C9.94865 39.611 13.0388 42.8942 16.1289 46.0809C16.6117 46.5638 16.998 47.0466 17.3843 47.5294C17.7705 47.5294 18.1568 47.7226 18.4465 47.9157C20.2813 49.2676 21.6332 51.0058 22.116 53.3234C22.5023 55.4479 22.5023 57.6689 22.5023 59.7934C22.5989 61.0487 22.5989 62.4007 22.2126 63.656C21.9229 64.5251 21.3435 65.2977 20.8607 66.1668C20.571 66.6496 20.4744 67.1324 20.3778 67.6153C21.4401 68.0981 22.5989 68.1946 23.7577 68.2912C24.2405 68.2912 24.8199 68.2912 25.3027 68.0015C25.5924 67.8084 25.7856 67.3255 25.9787 67.0359C27.8135 62.4007 28.6826 57.2826 28.3929 52.2612C28.2963 51.1024 28.1997 49.847 28.8757 48.7848C29.4551 47.8191 30.6139 47.4328 31.6761 47.0466C36.6976 45.405 42.0087 44.3427 47.3199 43.7633C48.0924 43.6668 48.865 43.6668 49.5409 44.053C50.6032 44.8256 50.41 46.3706 49.9272 47.5294C49.9272 47.5294 49.9272 47.626 49.8306 47.626C50.2169 47.9157 50.41 48.3985 50.6032 48.8814C51.2791 50.7161 52.8242 52.1646 54.0796 53.6131C55.4315 55.1582 56.7834 56.7998 57.6525 58.7311C58.3285 60.2762 59.0045 62.4007 58.5216 64.1389C58.1354 65.3942 57.3628 66.2633 56.3006 66.8427C56.1075 67.3256 55.7212 67.7118 55.7212 68.1946C55.528 69.2569 56.6869 70.126 57.7491 70.126C59.777 70.2225 61.4186 68.4843 62.0946 66.553C62.7705 64.7183 62.674 62.5938 62.674 60.6625C62.674 58.6346 62.8671 56.6067 64.0259 54.965C64.3156 54.5788 64.6053 54.2891 64.9916 54.1925C65.3778 54.0959 65.7641 54.2891 66.1504 54.4822C69.5302 56.0273 73.0066 58.538 76.5796 57.7655C77.4487 55.7376 78.2212 53.8062 79.0903 51.7783C74.9379 50.1367 70.3027 48.0123 68.2748 43.9565Z" fill="white"/>
<path d="M5.11791 19.7177C5.02135 19.8143 4.92478 19.8143 4.82821 19.9109C4.44194 20.2006 4.15224 20.6834 3.86254 21.0697C3.57285 21.4559 3.18658 21.8422 2.70375 21.9388C2.60718 21.9388 2.41406 22.0353 2.31749 21.9388C2.12436 21.8422 1.93122 21.6491 1.83466 21.3594C1.64152 20.8765 1.54495 20.2006 1.73808 19.7177C1.93122 19.2349 2.51061 18.8486 3.09001 18.8486C3.66941 18.8486 4.15225 19.0418 4.63508 19.428" fill="#BCBCBB"/>
<path d="M19.6983 10.2539C19.7949 10.3504 19.988 10.3504 20.1811 10.447C20.664 10.6401 20.8571 11.123 21.1468 11.6058C21.2434 11.7989 21.2434 11.8955 21.2434 12.0886C21.2434 12.2818 21.0502 12.4749 20.8571 12.5715C20.3743 12.9577 19.8914 13.2474 19.4086 13.5371C19.2155 13.6337 19.0223 13.7303 18.7326 13.8268C18.4429 13.9234 18.1532 13.8268 17.8635 13.7303C16.8013 13.4406 16.0288 12.668 15.5459 11.7024C15.0631 10.7367 14.9665 9.67446 15.1597 8.61223C15.4494 7.35687 16.5116 6.9706 17.3807 7.93627C17.767 8.4191 18.0567 8.7088 18.6361 9.09507C19.1189 9.2882 19.312 9.96417 19.6983 10.2539Z" fill="#BCBCBB"/>
<path d="M28.6803 48.1082C29.3563 47.6253 29.9357 47.0459 30.4185 46.37C30.6116 46.37 30.6116 46.6597 30.7082 46.9494C30.8048 47.4322 31.4808 47.5288 31.9636 47.3356C32.4464 47.1425 32.7361 46.6597 33.1224 46.37C33.9915 45.8871 35.0537 46.37 36.0194 46.37C37.0816 46.37 38.1438 45.7906 39.1095 45.3077C40.3649 44.5352 41.7168 43.8592 42.9722 43.0867C43.2619 42.8936 43.5516 42.7004 43.455 42.4107C43.455 42.3142 43.3584 42.2176 43.2619 42.2176C42.2962 41.5417 40.9443 41.5416 39.7855 41.8313C38.6267 42.121 37.5644 42.6039 36.4056 42.9902C34.3777 43.6661 32.1567 43.8592 30.0323 43.5695C28.7769 43.3764 28.3906 43.1833 28.3906 44.6318C28.3906 45.694 28.4872 46.9494 28.6803 48.1082Z" fill="#BCBCBB"/>
<path d="M9.84794 19.7184C10.0411 20.7806 10.3308 21.9394 10.6205 23.0016C10.717 23.4845 10.8136 24.0639 10.8136 24.6433C10.717 25.3192 10.4273 25.8986 10.1376 26.5746C9.26855 28.7956 9.17198 31.3063 8.68915 33.7205C8.68915 33.9136 8.59259 34.1068 8.49602 34.2033C8.39945 34.2999 8.30289 34.2999 8.10976 34.2999C7.43379 34.2999 6.95095 33.6239 6.75782 32.948C6.66125 32.272 6.75782 31.596 6.75782 30.9201C6.75782 30.2441 6.75782 29.4716 6.27499 28.9887C6.17842 28.7956 5.98529 28.699 5.88873 28.5059C5.79216 28.3128 5.79215 28.2162 5.79215 28.0231C5.69559 26.3815 5.98529 24.8364 6.37156 23.2913C6.66126 22.4222 6.85439 21.6497 6.85439 20.7806C6.85439 20.2012 6.56469 19.6218 6.75782 19.0424C6.95095 18.463 7.91662 17.9802 8.49602 17.8836C9.07542 17.787 9.17198 17.787 9.46168 18.463C9.65482 18.7527 9.75138 19.2355 9.84794 19.7184Z" fill="#BCBCBB"/>
<path d="M2.028 7.45333C1.93143 7.54989 1.93143 7.54989 1.83487 7.64646C1.7383 7.74303 1.54517 7.64646 1.35203 7.64646C0.772633 7.45333 0.579489 6.77736 0.676055 6.19796C0.772622 5.61856 1.1589 5.13573 1.54516 4.74946C1.64173 4.6529 1.64173 4.6529 1.73829 4.55633C1.93143 4.3632 2.31769 4.45976 2.51083 4.55633C3.09023 4.84603 4.44216 5.23229 4.15246 6.10139C3.95932 6.87392 2.51083 6.97049 2.028 7.45333Z" fill="#BCBCBB"/>
<path d="M13.0333 67.1314C13.2265 67.228 13.4196 67.228 13.6127 67.3245C13.6127 67.3245 13.8059 67.3245 13.9025 67.3245C13.9025 67.3245 14.2887 67.228 14.3853 67.228C14.3853 67.228 15.1578 66.9383 14.675 67.1314C15.0612 66.9383 15.4475 66.8417 15.7372 66.8417C15.8338 66.8417 15.8338 66.7451 15.9303 66.6486C16.0269 66.552 16.0269 66.3589 16.0269 66.1657C16.1235 65.1035 16.1235 64.0413 16.1235 62.979C16.0269 61.9168 15.9303 60.8546 15.8338 59.6958C15.8338 57.5713 16.4132 55.4469 15.7372 53.5155C15.6406 53.2258 15.4475 52.8396 15.1578 52.6464C14.7715 52.4533 14.2887 52.743 13.999 53.1293C13.8059 53.5155 13.8059 53.9984 13.7093 54.4812C13.6127 56.6057 13.6127 58.6336 13.5162 60.758C13.5162 61.9168 13.4196 63.1722 12.7436 64.1378C12.4539 64.5241 12.0677 64.8138 11.8745 65.2001C11.4883 65.7795 11.3917 66.4554 11.5848 67.1314C12.1642 66.9383 12.5505 66.9383 13.0333 67.1314Z" fill="#BCBCBB"/>
<path d="M50.5995 50.135C50.9857 50.3282 51.2754 50.6179 51.5651 50.9076C51.6617 51.0041 51.6617 51.1973 51.7583 51.2938C52.048 51.6801 52.3377 52.1629 52.6274 52.6458C52.7239 52.8389 53.0136 53.032 53.0136 53.2252C53.0136 53.2252 53.1102 53.2252 53.1102 53.1286C53.3033 52.9355 53.3999 52.7423 53.593 52.5492C53.2068 52.2595 53.0136 52.0664 52.8205 51.5835C52.6274 51.1007 52.6274 50.5213 52.6274 49.9419C52.6274 49.6522 52.5308 49.2659 52.5308 48.9762C52.4342 49.0728 52.4342 49.0728 52.3377 49.0728C52.2411 49.1694 52.1445 49.2659 52.048 49.4591C51.8548 49.7488 51.372 49.4591 51.372 49.1694C51.372 48.3968 51.4686 47.6243 51.6617 46.8518C51.6617 46.6586 51.7583 46.5621 51.7583 46.3689C51.7583 46.2724 51.8548 46.0792 51.9514 45.8861C51.9514 45.7895 52.048 45.7895 52.048 45.693C52.1445 45.4998 52.1445 45.4033 52.2411 45.2101C52.3377 44.9204 52.3377 44.6307 52.4342 44.341C52.1445 44.6307 51.5651 44.1479 51.8548 43.7616C51.9514 43.6651 51.9514 43.5685 52.048 43.4719C51.9514 43.4719 51.9514 43.4719 51.8548 43.3754C51.4686 43.2788 51.0823 43.2788 50.696 43.2788C49.5372 43.2788 48.3784 43.3754 47.3162 43.3754C47.1231 44.5342 47.3162 45.7895 47.799 46.8518C48.3784 48.3003 49.4407 49.3625 50.5995 50.135Z" fill="#BCBCBB"/>
<path d="M64.0232 52.551C64.6026 53.903 65.9546 54.7721 67.3065 55.448C67.4996 55.5446 67.6928 55.6412 67.8859 55.5446C67.9825 55.448 67.9825 55.448 68.079 55.3515C68.2722 55.1583 68.6584 55.3515 68.8516 55.5446C69.2378 55.9309 69.7207 56.4137 70.3001 56.7034C70.8795 56.9931 71.4589 57.1862 72.1348 56.9931C73.0039 56.7034 73.5833 55.448 73.1005 54.6755C72.8108 53.9995 72.1348 53.6133 71.4589 53.3236C69.5275 52.2613 67.6928 50.9094 66.0511 49.4609C65.2786 48.7849 64.6026 47.9158 64.1198 49.2678C63.7335 50.2334 63.637 51.5854 64.0232 52.551Z" fill="#BCBCBB"/>
<path d="M31.7697 22.711C32.4457 23.0972 33.3148 23.3869 34.0873 23.5801C37.4672 24.5457 41.0401 24.8354 44.5165 24.5457C44.8062 24.8354 44.6131 25.4148 44.3234 25.7045C44.0337 25.9942 43.5508 26.0908 43.1646 26.1874C42.4886 26.3805 41.8126 26.4771 41.0401 26.6702C39.495 26.9599 37.95 27.3461 36.4049 27.4427C34.2804 27.5393 32.156 27.153 30.4178 25.9942C28.6796 24.932 27.3277 23.0972 26.9414 20.9728C27.7139 20.7796 28.4865 21.1659 29.1624 21.5522C30.5144 22.3247 31.9629 22.9041 33.5079 23.3869" fill="#BCBCBB"/>
<path d="M5.89191 9.09536C5.89191 9.2885 5.79534 9.38506 5.6022 9.38506C5.40907 9.38506 5.3125 9.2885 5.3125 9.09536C5.3125 8.90223 5.40907 8.80566 5.6022 8.80566C5.69877 8.80566 5.89191 8.90223 5.89191 9.09536Z" fill="white"/>
<path d="M79.5727 51.3918C79.1865 51.2952 78.8968 51.2952 78.5105 51.1986C77.4483 50.9089 76.386 50.5227 75.2272 50.233C73.9719 49.8467 72.8131 49.3639 71.7508 48.4948C70.2058 47.336 68.8538 46.0806 67.695 44.6321C67.5985 44.439 67.4053 44.2459 67.3088 44.0527C66.9225 42.9905 66.7294 41.9283 66.9225 40.7695C67.0191 40.3832 67.0191 39.9969 66.8259 39.6107C66.6328 39.1278 66.4397 38.645 66.5363 37.969C66.9225 38.1622 67.1156 38.3553 67.4053 38.5484C67.5985 38.2587 67.5019 38.1622 67.4053 37.969C67.1156 37.2931 66.826 36.6171 66.5363 35.9411C65.9569 33.9132 64.7981 32.0785 63.6393 30.3403C63.3496 29.8574 62.9633 29.3746 62.7701 28.7952C62.9633 28.7952 63.0598 28.7952 63.253 28.8918C62.9633 28.6021 62.7701 28.2158 62.4804 28.1192C61.6113 27.8295 60.8388 27.2501 59.8732 27.057C59.1006 26.9604 58.4247 26.6707 57.7487 26.4776C57.2659 26.381 56.783 26.2845 56.3968 26.1879C55.238 26.0913 54.1757 25.8982 53.0169 25.8016C51.2787 25.7051 49.6371 25.6085 47.8989 25.5119C46.9332 25.4154 46.0641 25.4154 45.0985 25.4154C44.9053 25.4154 44.8088 25.3188 44.5191 25.3188C44.8088 25.1257 45.0019 24.9325 45.195 24.836C45.3882 24.7394 45.5813 24.5463 45.5813 24.2566C45.4847 24.2566 45.3882 24.16 45.2916 24.16C43.4569 24.2566 41.6221 24.16 39.7873 23.9669C39.3045 23.9669 38.9182 23.8703 38.4354 23.8703C37.2766 23.9669 36.1178 23.7737 34.959 23.5806C32.738 23.0978 30.7101 22.2287 28.5856 21.4562C27.7165 21.0699 27.0405 20.4905 26.4612 19.718C25.9783 19.042 25.3989 18.2695 24.9161 17.5935C24.7229 17.3038 24.5298 17.0141 24.3367 16.7244C23.5641 15.1793 22.9847 13.5377 22.695 11.7029C22.695 11.5098 22.6951 11.2201 22.5019 11.1235C22.2122 11.2201 22.3088 11.4132 22.3088 11.6064C22.4054 12.572 22.6951 13.5377 22.9848 14.4068C23.371 15.9519 24.1435 17.3038 25.1092 18.5592C25.3989 18.9454 25.7852 19.4283 26.0749 19.9111C26.5577 20.5871 27.0405 21.1665 27.8131 21.5527C28.8753 22.0356 30.0341 22.5184 31.1929 23.0012C33.3174 23.7737 35.4418 24.2566 37.6629 24.3531C37.7594 24.3531 37.856 24.4497 38.0491 24.5463C38.2423 24.2566 38.6285 24.2566 39.1114 24.2566C40.9461 24.3532 42.6843 24.4497 44.5191 24.5463C44.6157 24.5463 44.7122 24.5463 44.8088 24.6429C44.6157 25.0291 44.1328 25.0291 44.1328 25.5119C44.2294 25.6085 44.4225 25.7051 44.6156 25.7051C45.195 25.8016 45.7744 25.8016 46.3538 25.8982C47.0298 25.8982 47.8023 25.8982 48.4783 25.8982C50.5062 25.9948 52.6307 26.1879 54.6586 26.381C55.5277 26.4776 56.3968 26.5742 57.1693 26.7673C57.9418 26.9604 58.8109 27.1536 59.68 27.3467C60.356 27.5398 61.032 27.8295 61.7079 28.1192C61.9011 28.2158 61.9976 28.3124 62.0942 28.5055C62.4805 29.0849 62.7702 29.5677 63.0599 30.1471C63.7358 31.2094 64.4118 32.2716 64.9912 33.2373C65.7637 34.5892 66.15 36.0377 66.7294 37.4862C66.7294 37.5828 66.7294 37.5828 66.6328 37.6793C66.15 37.4862 66.15 37.4862 65.7637 37.6793C65.9568 38.3553 66.15 38.9347 66.2465 39.6107C66.3431 40.0935 66.4397 40.6729 66.3431 41.1557C66.2465 41.542 66.3431 41.9283 66.4397 42.3145C66.5362 42.7974 66.6328 43.2802 66.7294 43.6665C66.8259 44.1493 67.0191 44.6321 67.3088 45.0184C67.5985 45.3081 67.8882 45.6943 68.1779 46.0806C69.2401 47.2394 70.4955 48.3016 71.8474 49.2673C72.7165 49.8467 73.5856 50.3295 74.6478 50.6192C74.9375 50.7158 75.0341 50.8124 75.0341 51.1021C75.3238 51.0055 75.6135 50.9089 75.9998 51.0055C76.8689 51.2952 77.738 51.4883 78.5105 51.6815C78.8002 51.778 79.0899 51.8746 79.3796 52.0677C79.283 52.2609 79.1865 52.454 78.9933 52.6471C78.7036 53.0334 78.4139 53.5162 78.1242 53.9991C77.4483 55.1579 76.9654 56.4132 76.5792 57.6686C76.4826 57.8617 76.5792 58.0549 76.1929 58.1514C75.9032 57.6686 75.6135 57.1858 75.3238 56.7029C75.2272 56.5098 75.0341 56.3167 74.841 56.3167C74.4547 56.7029 74.4547 57.2823 74.0684 57.6686C73.489 57.3789 73.489 56.6064 72.9096 56.4132C72.3302 56.8961 72.2337 57.572 71.5577 58.0549C71.4611 57.9583 71.268 57.8617 71.1714 57.7652C70.7852 57.3789 70.3023 57.0892 69.6264 57.2823C69.5298 57.2823 69.4332 57.1858 69.3367 57.1858C69.5298 56.9926 69.7229 56.7995 69.8195 56.6064C69.8195 56.6064 69.8195 56.5098 69.7229 56.4132C69.5298 56.5098 69.3367 56.6064 69.2401 56.7029C68.9504 56.4132 68.7573 55.9304 68.2744 56.027C67.8882 55.4476 68.1779 54.675 67.5985 54.0956C67.4053 54.7716 67.3088 55.351 67.2122 55.9304C67.1156 55.8338 66.9225 55.8338 66.9225 55.8338C66.15 55.2544 65.3775 54.7716 64.6049 54.1922C64.1221 53.8059 63.6393 53.2265 63.6393 52.454C63.6393 51.5849 63.6393 50.7158 64.5084 50.1364C64.6049 50.0398 64.6049 49.9433 64.7015 49.9433C64.5083 50.0398 64.2186 50.1364 63.9289 50.233C63.9289 50.1364 63.9289 50.0398 63.9289 49.9433C64.0255 49.2673 64.0255 48.5913 64.1221 47.9154C64.3152 46.5634 64.6049 45.2115 64.8946 43.763C64.9912 43.1836 65.0877 42.6042 65.2809 42.1214C65.2809 41.9283 65.2809 41.7351 64.9912 41.7351C64.8946 42.1214 64.798 42.5077 64.798 42.8939C64.5084 44.2458 64.2187 45.5978 64.0255 47.0463C63.929 47.8188 63.8324 48.6879 63.7358 49.4604C63.6392 50.6192 63.5427 51.778 63.3496 53.0334C63.253 53.5162 63.3496 54.0956 63.1564 54.5785C62.8667 55.2544 62.4805 55.9304 62.1908 56.5098C61.9976 56.8961 61.901 56.8961 61.5148 56.7029C61.3216 56.6064 61.1285 56.5098 60.9354 56.4132C60.5491 57.1858 60.8388 57.9583 60.4526 58.7308C60.1629 58.6343 59.9697 58.4411 59.68 58.3446C59.5835 58.6343 59.4869 58.924 59.3903 59.1171C59.2938 58.5377 59.4869 58.0549 59.1972 57.3789C58.9075 58.1514 59.1006 58.8274 58.8109 59.5034C58.4247 58.8274 58.135 58.1514 57.6521 57.4755C57.1693 56.7995 56.5899 56.3167 56.1071 55.7373C56.0105 55.6407 56.0105 55.5441 55.9139 55.4476C55.7208 55.2544 55.5277 55.0613 55.3345 54.7716C55.8174 54.3853 56.2036 53.9991 56.6865 53.7094L56.5899 53.6128C56.1071 53.9025 55.6242 54.1922 55.238 54.4819C54.9483 54.0956 54.7551 53.7094 54.562 53.3231C54.3689 53.0334 54.2723 52.6471 53.7895 52.7437C53.6929 52.7437 53.5963 52.6471 53.4998 52.5506C53.3066 52.1643 53.1135 51.778 52.9204 51.3918C52.7272 50.7158 52.7272 50.0398 52.8238 49.3639C52.9204 49.0742 53.0169 48.6879 52.7272 48.3016C52.2444 48.5913 52.2444 49.3639 51.665 49.557C51.5684 49.4604 51.5684 49.4604 51.5684 49.3639C51.4719 47.5291 51.7616 45.7909 52.7272 44.2458C52.8238 44.0527 52.9204 43.8596 52.7272 43.5699C52.341 43.8596 51.9547 44.3424 51.4719 44.5356C51.4719 43.8596 52.0513 43.763 52.4375 43.3768C52.1478 42.9905 52.4375 42.6042 52.6307 42.3145C53.1135 41.542 53.4998 40.6729 54.1757 39.9969C54.2723 39.8038 54.3689 39.7072 54.0792 39.5141C53.9826 39.6107 53.886 39.6107 53.886 39.7072C53.3066 40.6729 52.7272 41.542 52.2444 42.5077C51.9547 42.9905 51.665 43.2802 51.0856 43.2802C50.7959 43.2802 50.5062 43.2802 50.3131 43.2802C49.3474 43.0871 48.4783 43.1836 47.5126 43.3768C47.3195 43.4733 47.0298 43.4733 46.8367 43.3768C45.871 43.1836 45.0019 43.2802 44.326 44.0527C44.2294 43.8596 44.0362 43.6665 43.9397 43.4733C43.5534 43.8596 43.1672 44.1493 42.7809 44.439C42.5878 44.1493 42.8775 43.6665 42.3946 43.4733C42.1049 43.763 41.8152 44.0527 41.429 44.2458C41.1393 44.439 40.9461 44.9218 40.4633 45.0184C40.5599 44.6321 40.5599 44.2459 40.6564 43.9562C40.1736 43.763 39.7873 43.9562 39.4976 44.1493C38.4354 44.7287 37.4697 45.3081 36.4075 45.8875C35.8281 46.1772 35.2487 46.5634 34.5727 46.9497C34.4762 46.2738 35.0556 45.6944 34.7659 45.0184C33.9933 45.5978 33.6071 46.3703 32.8345 46.9497C32.5448 46.4669 33.0277 45.8875 32.5448 45.5012C31.8689 46.2738 31.1929 46.9497 30.4204 47.7222C30.3238 47.1428 30.5169 46.8531 30.6135 46.4669C30.6135 46.0806 30.9032 45.6943 30.4204 45.3081C29.6478 46.1772 29.2616 47.1428 28.5856 48.0119C28.3925 47.2394 28.2959 45.115 28.3925 44.439C28.489 43.763 28.5856 43.087 28.6822 42.4111C28.6822 42.218 28.6822 41.9283 28.3925 41.9283C28.3925 42.0248 28.2959 42.0248 28.2959 42.1214C28.1993 43.9562 28.0062 45.7909 28.1993 47.6257C28.2959 47.9154 28.2959 48.3016 28.1028 48.5913C28.0062 48.7845 28.0062 48.9776 28.0062 49.2673C28.1028 49.2673 28.2959 49.2673 28.3925 49.2673C28.489 49.9433 28.6822 50.5227 28.7787 51.1021C28.7787 51.2952 28.7787 51.4883 28.6822 51.5849C28.2959 52.0677 27.9096 52.5506 27.4268 53.0334C26.8474 53.7094 26.3646 54.3853 26.1714 55.2544C26.0749 55.6407 26.0749 56.027 25.7852 56.3167C25.592 56.027 25.3989 55.8338 25.2058 55.5441C24.723 56.4132 24.8195 57.2823 24.4332 58.1514C24.2401 58.0549 24.047 57.9583 23.8538 57.9583C23.6607 57.9583 23.5641 58.1514 23.371 58.248C23.371 58.0549 23.2745 57.8617 23.2745 57.572C23.1779 56.8961 23.1779 56.2201 23.1779 55.5441C23.0813 54.0956 22.8882 52.5506 22.695 51.1021C22.5985 50.3295 22.5985 49.557 22.5985 48.7845C22.5019 48.2051 22.5019 47.6257 22.4053 47.0463C22.3088 45.984 22.3088 44.8252 22.2122 43.763C22.2122 43.6665 22.1157 43.5699 22.0191 43.4733C21.9225 43.6665 21.826 43.763 21.826 43.9562C21.826 44.6321 21.9225 45.3081 21.9225 45.9841C22.0191 46.9497 22.1156 48.0119 22.2122 48.9776C22.2122 49.3639 22.3088 49.6536 22.3088 50.0398C22.2122 51.3918 22.5019 52.6471 22.5985 53.9025C22.7916 55.8338 22.9848 57.7652 23.0813 59.5999C23.1779 60.5656 23.1779 61.5313 23.1779 62.4969C23.2744 63.4626 22.9847 64.2351 22.4053 64.9111C22.1156 65.2008 21.7294 65.4905 21.5363 65.8768C21.4397 65.9733 21.4397 66.0699 21.3431 66.0699C21.15 66.4561 20.8603 66.8424 20.5706 67.2287V67.3252C20.474 67.9046 20.6672 68.3875 21.2466 68.5806C22.0191 68.8703 22.7916 69.0634 23.6607 68.9669C23.7573 68.9669 23.9504 68.9669 24.047 68.9669C24.6264 68.9669 25.3023 69.0634 25.8817 69.0634C26.268 69.0634 26.6543 69.0634 26.944 68.6772C26.944 68.0012 27.0405 67.2287 27.0405 66.4562C27.0405 65.7802 27.0405 65.1042 27.1371 64.4283C27.1371 64.1386 27.2337 63.7523 27.3302 63.4626C27.5234 63.1729 27.6199 62.8832 27.6199 62.4969C27.6199 62.0141 27.5234 61.4347 27.6199 60.9519C27.7165 59.8896 27.8131 58.924 27.9096 57.8617C28.0062 57.1858 28.0062 56.5098 28.1028 55.8338C28.2959 55.8338 28.489 55.9304 28.6822 55.9304C28.7787 54.8682 28.489 53.8059 28.7787 52.8403C29.165 53.0334 29.0684 53.6128 29.5513 53.6128C29.5513 53.4197 29.5513 53.2265 29.4547 53.13C29.165 52.2609 29.165 51.3918 28.8753 50.5227C28.7787 50.233 28.6822 49.8467 28.6822 49.4604C28.6822 49.2673 28.6822 49.0742 28.6822 48.9776C28.9719 48.2051 29.3581 47.4325 29.7444 46.7566C29.841 46.5634 29.9375 46.4669 30.1307 46.3703C30.1307 46.8531 30.0341 47.2394 30.0341 47.6257C30.0341 48.0119 29.7444 48.3982 29.9375 48.7845C30.5169 48.4948 30.7101 47.9154 31.0963 47.5291C31.4826 47.1428 31.6757 46.5634 32.2551 46.3703C32.5448 46.8531 32.1586 47.4325 32.3517 47.9154C32.8345 47.7222 33.0277 47.336 33.3174 47.0463C33.6071 46.7566 33.7036 46.2737 34.283 46.0806C34.1865 46.3703 34.1865 46.66 34.0899 46.8531C33.9933 47.1428 33.8968 47.336 34.0899 47.6257C34.283 47.5291 34.4762 47.5291 34.6693 47.4325C36.1178 46.5634 37.6629 45.5978 39.1114 44.7287C39.4011 44.5355 39.5942 44.439 39.9805 44.5356C40.077 45.115 39.5942 45.6943 39.8839 46.2737C40.4633 46.1772 40.5599 45.5978 40.9461 45.3081C41.3324 45.0184 41.5255 44.5355 42.1049 44.2458C42.0084 44.6321 42.0084 44.9218 41.9118 45.2115C41.8152 45.5978 41.9118 45.8875 42.2981 45.9841C42.4912 45.2115 43.0706 44.7287 43.65 44.2458C43.7465 44.439 43.7466 44.6321 43.8431 44.8252C44.2294 44.9218 44.326 44.6321 44.5191 44.439C45.0019 43.8596 45.5813 43.6665 46.3538 43.8596C46.9332 43.9562 47.4161 43.9562 47.8989 43.763C48.768 43.5699 49.5405 43.5699 50.4096 43.6665C50.6993 43.763 50.989 43.763 51.3753 43.8596C51.3753 44.3424 50.8925 44.7287 50.989 45.3081C51.2787 45.2115 51.5684 45.115 51.9547 44.9218C51.4719 45.8875 51.2787 46.7566 51.1822 47.7222C51.0856 48.6879 51.1822 49.557 51.0856 50.5227C51.665 50.4261 51.7616 49.9433 52.1478 49.6536C52.1478 50.0398 52.1478 50.233 52.1478 50.5227C52.1478 51.778 52.8238 52.6471 53.5963 53.4197C53.6929 53.5162 53.7895 53.6128 53.7895 53.6128C54.1757 53.6128 54.1757 53.8059 54.3689 54.0956C54.6586 54.5785 55.0448 55.0613 55.4311 55.5441C56.1071 56.3167 56.783 57.1858 57.459 57.9583C57.5556 58.0549 57.5556 58.248 57.7487 58.4411C57.6521 58.4411 57.5556 58.4411 57.5556 58.4411C57.6521 58.5377 57.6521 58.6343 57.7487 58.6343C57.8453 58.7308 57.8453 58.8274 57.8453 58.924C57.9418 58.924 57.9418 59.0205 57.9418 59.0205C58.3281 59.3102 58.7144 59.7931 58.7144 60.3725C58.5212 61.821 58.5212 63.1729 58.5212 64.6214C58.5212 65.0076 58.4247 65.2974 58.4247 65.6836C58.135 65.7802 57.8453 65.8768 57.6521 65.9733C56.4933 66.263 55.9139 67.1321 55.6242 68.1943C55.5277 68.5806 55.6242 68.8703 56.0105 69.0634C56.3968 69.2566 56.783 69.3531 57.1693 69.4497C57.459 69.5463 57.8453 69.4497 58.135 69.4497C59.0041 69.3531 59.8732 69.2566 60.7423 69.0634C61.1285 68.9669 61.6113 68.7738 61.9976 68.5806C62.4804 68.3875 62.577 68.0978 62.6736 67.615C62.6736 67.1321 62.7701 66.5527 62.7701 66.0699C62.8667 64.1385 62.9633 62.3038 63.0599 60.3725C63.1564 58.7308 63.3496 56.9926 63.5427 55.351C63.6393 54.7716 63.6393 54.2888 64.1221 53.9025C64.2187 53.9991 64.3152 53.9991 64.3152 54.0956C65.1843 54.8682 66.0534 55.5441 67.1156 56.1235C67.8882 56.5098 68.4676 56.8961 69.2401 57.2823C69.4332 57.3789 69.7229 57.4755 70.0126 57.3789C70.4955 57.1858 70.7852 57.3789 71.0749 57.7652C71.6543 58.4411 71.8474 58.3446 72.4268 57.6686C72.6199 57.3789 72.9096 57.0892 73.1993 56.7995C73.5856 57.1858 73.6822 57.7652 74.2616 58.0549C74.841 57.8617 74.841 57.1858 75.3238 56.7995C75.4204 56.8961 75.5169 56.9926 75.6135 57.0892C75.8066 57.572 75.9998 58.1514 76.1929 58.6343C76.2895 58.7308 76.386 58.924 76.4826 59.0205C76.6757 59.0205 76.7723 58.8274 76.8689 58.6343C76.9654 58.1514 77.1586 57.6686 77.2551 57.1858C77.738 55.8338 78.2208 54.4819 79.0899 53.3231C79.3796 52.9368 79.6693 52.5506 79.8624 52.1643C80.1521 51.6815 79.959 51.4883 79.5727 51.3918ZM27.9096 54.1922C27.9096 54.675 27.9096 55.2544 27.8131 55.7373C27.6199 57.4755 27.5234 59.2137 27.3302 60.9519C27.2337 61.9175 27.0405 62.8832 26.944 63.8489C26.8474 65.2008 26.7508 66.6493 26.6543 68.0012C26.6543 68.1943 26.5577 68.3875 26.5577 68.5806C26.1714 68.5806 25.6886 68.6772 25.3023 68.5806C25.0126 68.5806 24.8195 68.484 24.5298 68.484C24.1436 67.9046 23.9504 67.3253 24.1435 66.6493C24.2401 66.4562 24.2401 66.263 23.9504 66.1665C23.5641 66.939 23.6607 67.6149 23.9504 68.3875C23.5641 68.0012 23.0813 68.5806 22.5985 68.2909C22.5019 68.0012 22.5019 67.7115 22.695 67.4218C22.7916 67.2287 22.8882 67.0355 22.8882 66.8424C22.8882 66.7458 22.7916 66.5527 22.7916 66.263C22.2122 66.939 22.2122 67.6149 22.0191 68.1943C21.6328 68.2909 21.3431 68.1943 21.15 67.9046C21.0534 67.7115 20.9569 67.3252 21.0534 67.2287C21.4397 66.7458 21.5363 66.0699 22.1157 65.6836C22.5019 65.2974 22.8882 64.8145 23.1779 64.3317C23.4676 63.9454 23.6607 63.4626 23.4676 62.8832C23.4676 62.6901 23.4676 62.5935 23.4676 62.4004C23.4676 61.6278 23.371 60.9519 23.5642 60.1793C23.7573 59.6965 23.7573 59.0205 23.7573 58.4411C24.047 58.5377 24.2401 58.6343 24.5298 58.7308C24.6264 58.6343 24.723 58.4411 24.723 58.3446C24.8195 58.0549 24.8195 57.6686 24.8195 57.3789C24.9161 57.0892 24.9161 56.7995 25.0127 56.4132C25.3024 56.6064 25.4955 56.7029 25.6886 56.8961C25.7852 56.7029 25.8817 56.6064 25.8817 56.4132C26.0749 55.8338 26.268 55.2544 26.4612 54.675C26.7509 53.9025 27.2337 53.2265 28.0062 52.6471C28.0062 53.3231 28.0062 53.7094 28.1028 54.2888C28.1993 54.2888 28.0062 54.2888 27.9096 54.1922ZM63.253 55.9304C63.1564 57.0892 62.9633 58.248 62.8667 59.4068C62.7702 60.8553 62.6736 62.4004 62.4804 63.8489C62.3839 65.1042 62.1908 66.3596 62.1908 67.615C62.1908 68.0978 61.901 68.2909 61.5148 68.484C60.6457 68.7737 59.7766 68.9669 58.8109 69.0634C58.8109 68.6772 58.7144 68.3875 58.7144 67.9046C58.6178 68.0978 58.5212 68.0978 58.5212 68.1943C58.4247 68.484 58.4247 68.7738 58.4247 69.0634C58.0384 69.2566 57.7487 69.3531 57.3624 69.16C57.2659 68.6772 57.2659 68.6772 57.7487 67.5184C57.3624 67.5184 57.3624 67.5184 56.783 68.9669C56.3002 68.7737 56.2036 68.6772 56.2036 68.2909C56.3968 67.6149 56.6865 66.939 57.459 66.6493C57.9418 66.4562 58.4247 66.263 59.0041 66.0699C59.0041 65.3939 59.0041 64.718 59.0041 64.042C59.0041 63.1729 59.0041 62.2072 59.1006 61.3381C59.1006 61.2416 59.1006 61.0484 59.1972 61.0484C59.68 60.6622 59.68 60.0828 59.7766 59.5999C59.8732 59.4068 59.8732 59.1171 59.9697 58.8274C60.2594 59.0205 60.4526 59.2137 60.7423 59.5034C61.1285 58.7308 60.9354 57.8617 61.2251 57.0892C61.3217 57.0892 61.4182 57.0892 61.4182 57.0892C62.0942 57.2823 62.3839 57.0892 62.6736 56.4132C62.7702 56.1235 62.8667 55.9304 63.1564 55.6407C63.1564 55.7373 63.253 55.8338 63.253 55.9304ZM68.9504 56.6064C68.7573 56.5098 68.4676 56.4132 68.2744 56.3167C67.7916 56.1235 67.7916 56.027 68.0813 55.351C68.2744 55.8338 68.4676 56.3167 69.047 56.4132C68.9504 56.4132 68.9504 56.5098 68.9504 56.6064Z" fill="black"/>
<path d="M15.6438 47.0459C15.6438 46.7562 15.6438 46.4665 15.6438 45.9837C16.03 46.5631 16.4163 46.9493 16.706 47.3356C16.8991 47.6253 17.1888 48.0116 17.382 48.3013C17.5751 48.2047 17.6717 48.2047 17.8648 48.2047C17.9614 47.915 17.7682 47.6253 18.0579 47.4322C18.3476 47.5287 18.5408 47.7219 18.6373 47.915C18.8305 48.0116 19.1202 48.2047 19.3133 48.3978C19.6996 48.591 20.0858 48.7841 20.3755 49.1704L20.4721 49.0738C20.0858 48.591 19.6996 48.2047 19.3133 47.8184C19.0236 47.5287 18.7339 47.239 18.3476 46.9493C18.1545 46.8528 17.9614 46.7562 17.7682 46.7562C17.5751 46.7562 17.4785 46.9493 17.2854 46.9493C16.8026 46.6596 16.4163 46.2734 16.2232 45.7905C16.1266 45.5008 15.9335 45.3077 15.7403 45.018C15.6438 44.9214 15.4507 44.9214 15.3541 44.8249C15.161 45.2111 15.4506 45.5974 15.0644 45.9837C14.6781 45.5008 14.2919 45.1146 13.9056 44.6317C13.4228 44.0523 12.9399 43.4729 12.8433 42.7004C12.8433 42.4107 12.6502 42.2176 12.2639 42.121C12.0708 42.121 11.8777 41.9279 11.7811 41.7348C11.0086 40.6725 10.3326 39.6103 9.94635 38.3549C9.75322 37.679 9.36695 37.0996 8.98069 36.6167C8.59442 36.2305 8.40129 35.8442 8.20815 35.3614C8.01502 34.782 7.91846 34.2026 7.82189 33.6232C7.72533 33.43 7.72532 33.1403 7.43562 33.1403C7.14592 33.2369 7.24249 33.7197 6.75966 33.6232C6.46996 31.7884 6.18026 30.0502 6.85623 28.2154C6.95279 28.0223 7.04936 27.7326 6.75966 27.5395C6.27682 27.636 6.18026 28.2154 5.60086 28.312C5.60086 28.0223 5.60086 27.8292 5.60086 27.636C5.79399 26.3807 5.98712 25.1253 6.27682 23.8699C6.46996 22.9043 6.85622 21.9386 7.24249 20.9729C7.33905 20.4901 7.62875 20.1038 7.72532 19.621C7.72532 19.5244 7.72532 19.3313 7.72532 19.2347H7.62876C7.43563 19.4279 7.33906 19.7176 7.14593 20.0073C6.9528 19.8141 6.75965 19.7176 6.46995 19.5245C6.56652 19.4279 6.75966 19.3313 6.85623 19.2347C7.82189 18.4622 8.78755 17.6897 9.84978 16.9172C10.1395 16.724 10.3326 16.5309 10.6223 16.3378C10.8154 16.1446 10.912 16.0481 10.7189 15.6618C10.5258 15.8549 10.2361 15.9515 10.0429 16.0481C8.88413 16.9172 7.62875 17.8828 6.27682 18.5588C5.79399 18.7519 5.31116 18.945 4.82833 19.1382C4.44206 19.2347 3.95923 19.1382 3.66953 18.8485C3.4764 18.6554 3.28327 18.5588 2.99357 18.5588C3.09013 18.1725 3.37983 17.7863 3.66953 17.4966C4.15236 17.1103 4.3455 16.5309 4.44207 15.9515C4.53863 15.4687 4.34549 15.179 3.86266 15.0824C3.28326 14.8893 2.70386 14.7927 2.12446 14.9858C1.93133 15.0824 1.73821 15.0824 1.35194 15.0824C1.73821 14.503 2.0279 14.0202 2.51074 13.827C2.897 13.6339 3.37982 13.5373 3.57296 12.9579C3.57296 12.8614 3.76609 12.7648 3.86266 12.6682C4.34549 12.282 4.9249 11.8957 5.40773 11.4129C6.85623 10.3506 8.01502 9.09527 8.49786 7.2605C8.59442 6.9708 8.78756 6.68111 8.98069 6.39141C9.27039 6.10171 9.46352 5.71544 9.27039 5.32917C10.4292 4.17037 11.8777 4.17037 13.3262 4.17037C13.3262 4.07381 13.3262 3.97724 13.3262 3.97724C13.2296 3.88068 13.133 3.88068 13.0365 3.78411C12.3605 3.59098 11.6846 3.78411 11.0086 3.88067C10.8155 3.68754 10.6223 3.39784 10.5258 3.30128C10.1395 3.10814 9.75321 2.81844 9.36695 2.72188C8.88412 2.52874 8.49786 2.23904 8.30473 1.75621C8.20816 1.36994 7.91845 0.98368 7.72532 0.69398C7.43562 0.211148 6.95279 -0.0785525 6.3734 0.018014C5.5043 0.114581 4.63519 0.211147 3.86266 0.500847C3.18669 0.69398 2.6073 0.98368 1.93133 1.17681C1.83476 1.17681 1.73819 1.36995 1.64163 1.46651C1.93133 1.65964 2.12446 1.75621 2.41416 1.85278C2.22103 2.14248 2.02791 2.33561 1.83477 2.52875C1.44851 3.10814 1.06223 3.68754 0.675963 4.26694C0.579396 4.36351 0.675971 4.55664 0.579405 4.74977C0.772538 4.74977 0.965662 4.84634 1.1588 4.84634C0.965662 5.23261 0.869096 5.61887 0.675963 5.90857C0.48283 6.48797 0.193133 7.06737 0 7.64677C0 7.74334 0.0965724 7.8399 0.0965724 7.93647C0.482838 7.8399 0.675968 7.45364 1.25537 7.45364C1.06223 7.8399 0.869102 8.1296 0.772535 8.51587C0.869102 8.51587 1.06223 8.61244 1.1588 8.61244C1.35193 8.51587 1.4485 8.4193 1.54507 8.22617C2.12447 7.5502 2.80043 7.06737 3.57296 6.68111C3.66952 6.58454 3.86266 6.58454 4.05579 6.48797C4.15236 6.58454 4.15236 6.68111 4.15236 6.68111C4.15236 7.8399 4.05579 8.90213 4.05579 10.0609C4.05579 10.4472 4.05579 10.8335 4.34549 11.2197C4.63519 10.7369 4.63519 10.4472 4.53862 9.96437C4.44206 9.67467 4.44207 9.48153 4.44207 9.19183C4.44207 8.32273 4.53863 7.45364 4.6352 6.58454C4.82833 6.29484 5.11802 6.00514 5.31116 5.71544C5.50429 5.42574 5.98712 5.23261 5.79399 4.65321C5.40772 5.03947 5.02146 5.32917 4.6352 5.61887C4.53863 5.71544 4.3455 5.81201 4.24894 5.90857C3.95924 6.10171 3.57297 6.19827 3.28327 6.29484C3.1867 6.3914 2.99356 6.39141 2.70387 6.48797C2.99356 6.00514 3.18669 5.71544 3.37983 5.32917C2.897 5.61887 2.51074 6.1017 2.31761 6.58454C2.22104 6.87424 2.0279 6.9708 1.7382 7.06737C1.64163 6.77767 1.64164 6.48797 1.54507 6.19827C1.25537 6.39141 0.965662 6.58454 0.675963 6.77767C0.675963 6.58454 0.675969 6.3914 0.772535 6.29484C1.06223 5.71544 1.35194 5.03947 1.54507 4.46008C1.64164 4.17038 1.73821 3.88068 1.83477 3.59098C1.83477 3.59098 1.7382 3.49441 1.7382 3.39784C1.54507 3.49441 1.35193 3.59097 1.1588 3.68754C1.54506 2.72188 2.41416 2.23905 2.897 1.56308C2.80043 1.36995 2.70386 1.27338 2.60729 1.08025C3.18669 0.887115 3.66954 0.597413 4.24894 0.500847C4.9249 0.40428 5.60087 0.307713 6.18027 0.307713C6.75966 0.307713 7.14592 0.597415 7.43562 1.08025C7.53219 1.27338 7.72532 1.46651 7.72532 1.75621C7.82189 2.62531 8.49786 2.81844 9.07726 3.10814C9.17383 3.10814 9.27039 3.10814 9.46352 3.20471C9.84979 3.39784 10.2361 3.59098 10.5258 3.97724C9.75323 4.55664 8.78756 4.84634 8.1116 5.52231C8.30473 5.71544 8.49786 5.81201 8.59443 5.90857C8.20816 6.29484 8.01503 6.77767 7.82189 7.2605C7.53219 8.1296 7.14592 8.9987 6.46995 9.5781C5.98712 9.96437 5.60086 10.4472 5.11803 10.8335C4.15236 11.606 3.28327 12.282 2.31761 12.9579C1.93134 13.2476 1.54507 13.4408 1.25537 13.827C0.772535 14.4064 0.386266 15.0824 0.482833 15.8549C0.579399 16.4343 0.579405 16.9172 0.579405 17.4966C0.579405 18.076 0.675963 18.4622 1.1588 18.8485C1.25536 18.9451 1.25537 18.9451 1.35194 19.0416C0.965674 19.7176 0.965662 20.4901 1.1588 21.2626C1.1588 21.3592 1.1588 21.4558 1.1588 21.4558C1.25536 22.2283 2.02791 23.0974 2.80044 23.194C3.37984 23.2905 3.76609 23.194 4.05579 22.6146C4.24892 22.2283 4.44206 21.7455 4.6352 21.2626C4.82833 20.4901 5.31116 20.1038 5.89056 19.7176C6.18026 19.9107 6.46996 20.1038 6.75966 20.2004C6.37339 21.7455 5.69743 23.0974 5.60086 24.6425C5.50429 26.091 4.92489 27.5395 5.11803 29.2777C5.50429 28.988 5.69743 28.7948 6.08369 28.5051C5.98713 28.7948 5.98712 28.988 5.98712 29.1811C5.89055 29.3742 5.89056 29.6639 5.89056 29.8571C5.89056 31.3056 5.98713 32.8506 6.18027 34.2991C6.18027 34.4923 6.27683 34.6854 6.56653 34.6854C6.75966 34.4923 6.85623 34.2991 7.14593 34.0094C7.2425 34.3957 7.24249 34.6854 7.33906 34.9751C7.62876 35.6511 7.82189 36.327 8.20815 36.8099C8.49785 37.1961 8.78756 37.679 9.07726 38.0652C9.36696 38.6446 9.56008 39.224 9.84978 39.7069C10.4292 40.576 11.1051 41.445 11.588 42.3141C12.0708 43.2798 12.7468 44.0523 13.5193 44.7283L13.6159 44.8249C14.0987 45.4043 14.5815 45.9837 15.0644 46.4665C15.2575 47.0459 15.3541 47.239 15.6438 47.0459ZM3.7661 15.6618C4.0558 16.0481 4.0558 16.0481 3.66953 16.5309C3.66953 16.1446 3.7661 15.8549 3.7661 15.6618ZM2.60729 17.1103C2.70386 17.3034 2.70387 17.4 2.80044 17.4966C2.41417 17.4966 2.41416 17.4966 2.60729 17.1103ZM1.4485 18.5588C1.25536 18.1725 1.25537 17.6897 1.25537 17.1103C1.83477 17.4966 2.22103 17.7863 2.60729 18.1725C2.51073 18.3657 2.41417 18.4622 2.31761 18.6553C2.12447 19.0416 1.64163 18.9451 1.4485 18.5588ZM4.9249 20.1038C4.6352 20.3935 4.63519 20.7798 4.53862 21.1661C4.44206 21.7455 4.24892 22.2283 4.05579 22.8077C3.86266 23.2905 3.66953 23.2905 3.1867 23.0974C2.80043 23.0008 2.51074 22.8077 2.31761 22.4214C2.6073 21.842 3.1867 21.7455 3.66953 21.3592C2.99356 21.3592 2.6073 21.7455 2.22103 22.0352C1.83477 21.4558 1.83476 21.1661 2.41416 20.6832C2.70386 20.4901 2.99357 20.297 3.28327 20.0073C2.897 20.2004 2.41417 20.3935 2.0279 20.5867C1.83477 19.9107 1.93133 19.7176 2.41416 19.3313C2.70386 19.1382 2.897 18.8485 3.1867 18.5588C3.57296 19.4279 4.24894 19.8141 5.2146 19.621C5.02147 19.8141 4.9249 20.0073 4.9249 20.1038Z" fill="black"/>
<path d="M20.8564 37.6786C21.1461 37.4854 21.2427 37.3889 21.4358 37.2923C21.9187 36.906 22.4015 36.4232 22.9809 36.1335C23.7534 35.6507 24.4294 34.9747 25.0088 34.2987C25.4916 33.7193 26.071 33.3331 26.747 32.9468C26.8435 32.8502 26.9401 32.9468 27.0367 32.8502C27.0367 33.0434 27.0367 33.2365 27.0367 33.3331C27.0367 33.5262 26.9401 33.6228 26.9401 33.9125C27.5195 33.9125 27.8092 33.5262 28.1955 33.3331C28.5817 33.1399 29.0646 32.9468 29.4508 32.8502C29.8371 33.2365 29.4508 33.6228 29.644 34.009C31.5753 33.0434 33.1204 31.4983 35.0517 30.5326C35.5345 30.7258 35.1483 31.3052 35.438 31.5949C36.5002 31.2086 36.983 30.2429 37.7556 29.6635C37.9487 29.7601 38.2384 29.8567 38.4315 29.9532C38.8178 29.7601 39.0109 29.4704 39.2041 29.1807C39.9766 28.215 40.6526 27.2494 41.4251 26.2837C41.7148 25.8974 42.1011 25.6077 42.3908 25.2215C42.4873 25.1249 42.5839 25.1249 42.8736 25.0283C42.777 25.2215 42.6805 25.318 42.5839 25.4146C42.1011 25.8974 41.6182 26.3803 41.232 26.9597C40.556 27.8288 39.88 28.6979 39.2041 29.6635C39.2041 29.7601 39.1075 29.7601 39.1075 29.8567C38.6247 30.4361 38.5281 30.4361 37.659 30.1464C36.8865 30.9189 36.1139 31.788 34.9551 32.2708C34.8586 32.0777 34.8586 31.8846 34.8586 31.6914C34.8586 31.4983 34.8586 31.4017 34.8586 31.112C34.3757 31.2086 33.9895 31.4017 33.6998 31.6914C32.6375 32.464 31.6719 33.1399 30.6096 33.9125C30.3199 34.1056 30.0302 34.2987 29.7405 34.4919C29.5474 34.5884 29.4508 34.5884 29.1611 34.7816C29.1611 34.2987 29.1611 33.9125 29.1611 33.5262C28.3886 33.6228 27.9058 34.009 27.3264 34.3953C27.0367 34.5884 26.8436 34.7816 26.4573 34.685C26.4573 34.3953 26.4573 34.1056 26.5538 33.8159C26.2641 33.8159 26.071 34.009 25.8779 34.1056C25.5882 34.3953 25.2985 34.685 25.0088 34.9747C24.4294 35.5541 23.9466 36.1335 23.2706 36.5198C22.4981 37.0026 21.8221 37.582 21.2427 38.258C21.0496 38.4511 20.8564 38.6442 20.6633 38.7408C20.277 38.5477 20.4702 38.3545 20.4702 38.1614C20.7599 36.906 21.0496 35.5541 21.3393 34.2987C21.7255 32.3674 22.1118 30.3395 22.4015 28.4082C22.498 27.6356 22.4981 26.8631 22.4981 26.0906C22.5946 24.7386 22.5946 23.3867 22.5946 22.1313C22.5946 20.1034 22.6912 17.979 22.4981 15.9511C22.4015 15.3717 22.3049 14.7923 22.3049 14.2129C22.6912 14.2129 22.7878 14.406 22.7878 14.6957C22.8843 15.5648 22.9809 16.3374 22.9809 17.2065C22.9809 19.1378 22.9809 21.1657 22.9809 23.097C22.9809 24.9318 22.8843 26.8631 22.6912 28.6979C22.4981 30.6292 22.0152 32.464 21.7255 34.3953C21.5324 35.2644 21.3393 36.2301 21.1461 37.0992C20.8564 37.1957 20.8564 37.3889 20.8564 37.6786Z" fill="black"/>
<path d="M15.7385 4.46073C15.6419 4.5573 15.4488 4.75043 15.3522 4.75043C15.1591 4.65387 15.1591 4.46073 15.2556 4.2676C15.3522 4.17103 15.3522 4.07447 15.4487 3.88133C15.0625 3.78477 14.7728 3.6882 14.4831 3.59163C14.0968 3.3985 14.0003 3.1088 14.3865 2.8191C15.1591 2.2397 15.9316 1.56374 16.8972 1.46717C17.2835 1.46717 17.6698 1.37061 18.056 1.37061C18.6354 1.37061 19.2148 1.37061 19.7942 1.37061C20.5668 1.37061 21.3393 1.56374 22.0153 1.85344C22.7878 2.14314 23.4638 2.43284 24.1397 2.8191C24.8157 3.1088 25.2985 3.6882 25.9745 4.2676C25.6848 4.36417 25.4917 4.46073 25.202 4.46073C25.202 4.65387 25.202 4.94357 25.202 5.23327C25.202 5.52297 25.2985 5.81266 25.2985 6.10236C25.2985 6.10236 25.2985 6.19893 25.202 6.19893C24.526 6.48863 24.2363 6.97146 23.9466 7.64743C23.7535 8.0337 23.5603 8.32339 23.2706 8.61309C22.8844 9.19249 22.4015 9.77189 21.9187 10.3513C21.5324 10.8341 21.1462 11.1238 21.0496 11.7032C20.4702 11.7032 20.4702 11.7032 20.3736 10.1582C20.1805 10.1582 19.8908 10.1582 19.6977 10.1582C18.9252 10.0616 18.5389 9.96502 18.5389 8.99936C18.5389 8.90279 18.5389 8.90279 18.5389 8.80623C18.4423 8.80623 18.4423 8.70966 18.4423 8.70966C17.5732 8.51653 17.0904 7.93713 16.8007 7.06803C16.7041 6.87489 16.7041 6.5852 16.6075 6.39207C16.4144 5.7161 16.2213 5.04013 15.6419 4.5573C15.7384 4.65387 15.7385 4.5573 15.7385 4.46073C16.4144 4.65387 16.8007 5.1367 16.8972 5.81266C16.9938 6.2955 17.187 6.77833 17.2835 7.26116C17.3801 7.45429 17.4766 7.55086 17.5732 7.74399C17.7663 7.55086 17.9595 7.45429 18.056 7.26116H18.1526C18.056 7.45429 17.9595 7.74399 17.8629 8.03369C18.2492 8.13026 18.6354 8.22683 19.0217 8.22683C19.0217 8.32339 19.1183 8.41996 19.1183 8.51653C19.1183 8.70966 19.2149 8.80622 19.2149 8.99936C19.3114 9.48219 19.3114 9.48219 19.7942 9.57876C19.9874 9.57876 20.1805 9.57876 20.4702 9.57876C21.0496 9.57876 21.1462 9.77189 21.1462 10.3513C21.1462 10.4479 21.1462 10.641 21.1462 10.8341C22.305 9.67533 23.2706 8.41996 23.9466 7.06803C24.1397 6.5852 24.526 6.10236 24.9123 5.81266C25.1054 5.04013 24.4294 4.36417 24.8157 3.59163C24.7191 3.49507 24.526 3.30194 24.3329 3.30194C23.0775 2.8191 21.9187 2.33627 20.6633 1.85344C20.5668 1.85344 20.4702 1.75687 20.2771 1.75687C19.1183 1.75687 17.8629 1.6603 16.7041 1.95C15.9316 2.14314 15.2556 2.62597 14.6762 3.20537C15.0625 3.30193 15.3522 3.3985 15.6419 3.49507C16.1247 3.6882 16.1247 3.78477 15.9316 4.2676C15.835 4.36417 15.7385 4.36417 15.7385 4.46073Z" fill="black"/>
<path d="M17.767 26.8643C17.2842 28.1197 17.1876 29.1819 17.4773 31.0167C18.0567 30.8236 18.2499 30.1476 18.9258 29.9545C18.3464 30.6304 17.5739 31.1133 17.3808 32.1755C17.9602 31.6927 18.443 31.3064 19.0224 30.9201L19.119 31.0167C18.8293 31.3064 18.5396 31.5961 18.2499 31.8858C18.0567 32.0789 17.767 32.2721 17.5739 32.5618C17.2842 32.8515 17.2842 33.2377 17.4773 33.4309C17.767 33.8171 17.767 34.3 17.8636 34.6862C17.9602 36.2313 18.0567 37.8729 18.1533 39.418C18.1533 39.6111 18.1533 39.8043 18.2499 40.094C18.3464 40.5768 18.5396 41.0596 18.7327 41.5425C18.9258 42.5081 19.3121 43.3772 19.7949 44.2463C19.8915 44.536 19.9881 44.7291 19.9881 45.1154C19.8915 45.0188 19.6984 44.9223 19.6018 44.7291C19.0224 43.7635 18.5396 42.8944 18.3464 41.8322C18.3464 41.639 18.2499 41.5425 18.2499 41.3493C17.767 40.3837 17.767 39.418 17.767 38.4523C17.6705 37.2935 17.6705 36.2313 17.5739 35.0725C17.5739 34.7828 17.5739 34.3 17.1876 34.2034C17.0911 34.2034 17.0911 34.0103 17.0911 33.9137C17.0911 33.624 17.0911 33.2377 17.1876 32.948C17.3808 32.2721 17.2842 31.5961 17.1876 30.9201C17.0911 29.6648 17.0911 28.4094 17.2842 27.154C17.3808 26.5746 17.3808 26.5746 17.9602 26.2849C17.6705 24.7399 17.3808 23.0982 16.7048 21.6497C16.6082 21.4566 16.5117 21.2635 16.3185 21.1669C16.222 20.9738 16.1254 20.8772 16.3185 20.6841C16.4151 20.7806 16.6082 20.7807 16.6082 20.8772C16.8979 21.3601 17.1876 21.8429 17.2842 22.3257C17.5739 23.1948 17.767 24.1605 18.0567 25.0296C18.2499 25.609 18.3464 26.1884 18.5396 26.8643C18.443 27.154 18.0567 26.7678 17.767 26.8643Z" fill="black"/>
<path d="M8.78906 12.7639C8.78906 12.6674 8.88562 12.5708 8.88562 12.5708C9.56159 11.9914 9.94785 11.3154 10.3341 10.6395C10.817 9.77037 11.2998 8.90127 11.8792 8.03217C11.7826 7.83904 11.6861 7.64591 11.5895 7.45277C13.6174 4.94204 13.714 4.84548 14.3899 4.65234C14.2934 4.84548 14.2933 4.94204 14.1968 5.03861C13.7139 5.61801 13.1346 6.19741 12.6517 6.77681C12.4586 6.96994 12.362 7.16307 12.5552 7.45277C12.6517 7.74247 12.4586 8.03217 12.362 8.22531C11.7826 9.19097 11.2032 10.0601 10.6238 11.0257C10.3341 11.5086 10.0444 11.9914 9.65816 12.5708C10.4307 12.8605 11.0101 13.4399 11.4929 14.1159C11.6861 14.4056 11.9758 14.5987 12.1689 14.8884C12.4586 15.1781 12.6517 15.5644 12.8449 16.0472C13.038 16.7232 13.4243 17.3991 13.9071 17.882C14.1968 17.7854 14.3899 17.6888 14.6796 17.6888C14.9693 17.6888 15.1624 17.9785 15.259 18.2682C15.4521 18.7511 15.7418 19.2339 15.935 19.7167C16.0315 19.9099 16.0316 20.0064 16.0316 20.3927C15.5487 20.103 15.5487 19.6202 15.259 19.2339C15.0659 18.9442 14.8727 18.5579 14.6796 18.1717C14.4865 18.3648 14.2933 18.4614 14.1968 18.6545C14.1002 18.6545 14.0036 18.6545 14.0036 18.5579C13.7139 18.1717 13.4243 17.882 13.1346 17.4957C12.6517 16.7232 12.1689 15.8541 11.5895 15.0815C11.3964 14.6953 11.1066 14.309 10.817 13.9227C10.4307 13.3433 9.85129 12.9571 9.17532 12.9571C9.07876 12.8605 8.9822 12.7639 8.78906 12.7639Z" fill="black"/>
<path d="M10.7182 29.4699C11.4908 29.4699 11.7804 30.339 12.553 30.4356C12.9392 29.9527 13.0358 29.2768 13.3255 28.7939C13.4221 29.2768 13.1324 30.339 12.8427 30.7253C12.6496 30.9184 12.4564 30.9184 12.1667 30.8218C11.877 30.7253 11.7805 30.5321 11.5873 30.339C11.3942 30.2424 11.2011 30.1459 10.9114 29.9527C10.9114 30.4356 10.9114 30.8218 11.0079 31.1115C11.0079 31.4012 11.1045 31.7875 10.8148 32.1738C10.4285 31.4012 10.4285 30.1459 10.7182 29.4699Z" fill="black"/>
<path d="M12.8426 10.6401C12.8426 11.0264 12.5529 11.5092 12.2632 11.6058C11.9735 11.7023 11.5872 11.4126 11.3941 11.1229C11.1044 10.6401 11.6838 9.771 12.1666 9.771C12.4563 9.771 12.8426 10.1573 12.8426 10.6401Z" fill="black"/>
<path d="M5.11719 9.57857C5.11719 9.09574 5.31032 8.70947 5.79315 8.70947C6.17942 8.70947 6.37256 8.90261 6.37256 9.28887C6.37256 9.67514 5.98629 10.0614 5.60002 10.0614C5.31032 10.0614 5.11719 9.96484 5.11719 9.57857Z" fill="black"/>
<path d="M53.2109 49.1703C53.2109 49.0738 53.2109 48.9772 53.2109 48.9772C53.9835 48.4944 54.5629 47.8184 55.5285 47.4321C55.432 47.8184 55.1423 48.0115 54.9491 48.1081C54.3697 48.3012 53.8869 48.6875 53.4041 49.0738C53.4041 49.1703 53.3075 49.1703 53.2109 49.1703Z" fill="black"/>
<path d="M9.84784 20.4899C9.75127 20.1037 9.65471 19.9105 9.65471 19.5243C9.46157 19.814 9.36501 20.1037 9.26845 20.2968H9.17188C9.36501 19.7174 9.55814 19.2346 9.84784 18.5586C10.1375 18.9449 9.94442 19.4277 10.041 19.814C10.1375 19.814 10.2341 19.814 10.4272 19.814C10.2341 20.0071 10.041 20.2002 9.84784 20.4899Z" fill="black"/>
<path d="M13.9997 9.77088C13.2272 9.28805 12.9375 8.90178 12.9375 8.41895C13.3238 8.51551 13.9032 9.09491 13.9997 9.77088Z" fill="black"/>
<path d="M66.9187 49.8462C66.0496 50.329 65.2771 50.9084 64.408 51.3913C64.3114 51.3913 64.3114 51.3913 64.2148 51.3913C64.408 51.1016 66.2427 49.9428 66.9187 49.8462Z" fill="black"/>
<path d="M55.9124 48.3977C55.1399 48.8806 54.4639 49.3634 53.6914 49.9428C53.6914 49.6531 53.6914 49.46 53.788 49.46C54.3674 49.3634 54.7536 48.8806 55.333 48.5909C55.4296 48.3977 55.6227 48.3012 55.9124 48.3977Z" fill="black"/>
<path d="M30.9001 44.3428C30.3207 44.8256 29.6447 45.405 28.9688 45.8878C29.1619 45.3084 30.031 44.6325 30.9001 44.3428Z" fill="black"/>
<path d="M22.9844 30.2436C23.6603 29.8574 24.2397 29.3745 24.9157 28.9883C24.3363 29.5677 23.7569 29.9539 23.0809 30.3402C22.9844 30.3402 22.9844 30.3402 22.9844 30.2436Z" fill="black"/>
<path d="M56.3008 54.9643C56.687 54.2884 57.2665 54.0953 57.8459 53.709L57.9424 53.8055C57.363 54.1918 56.7836 54.5781 56.3008 54.9643Z" fill="black"/>
<path d="M2.03125 6.48868C2.32095 5.71615 2.80378 5.32989 3.19005 4.75049C2.99691 5.23332 2.51408 6.00585 2.03125 6.48868Z" fill="black"/>
<path d="M10.5234 19.3311C10.62 19.138 10.8131 18.8483 11.0063 18.5586C11.296 18.8483 11.4891 19.138 11.7788 19.4277C11.3925 19.5243 11.296 19.138 10.9097 18.9449C10.8131 19.0414 10.8131 19.2346 10.7166 19.4277C10.62 19.4277 10.62 19.3311 10.5234 19.3311Z" fill="black"/>
<path d="M13.0366 26.7676C12.3607 26.5744 11.9744 26.0916 11.7812 25.6088L11.8778 25.5122C12.2641 25.995 12.6504 26.2847 13.0366 26.7676Z" fill="black"/>
<path d="M64.8906 49.6541C65.3735 49.0747 66.0494 48.785 66.822 48.6885C66.4357 48.8816 66.146 49.0747 65.7597 49.1713C65.47 49.3644 65.1803 49.5576 64.8906 49.6541Z" fill="black"/>
<path d="M4.05832 14.3104C3.57548 14.407 3.28579 14.5035 2.99609 14.2138C3.47893 13.9241 3.57548 13.9241 4.05832 14.3104Z" fill="black"/>
<path d="M75.516 52.3564C75.2263 52.7427 74.6469 53.2255 74.1641 53.4187C74.5503 52.9358 75.0332 52.6461 75.516 52.3564Z" fill="black"/>
<path d="M6.6638 7.54971C6.18097 7.74284 5.89126 8.03254 5.60156 7.74285C5.89126 7.35658 5.89127 7.35658 6.6638 7.54971Z" fill="black"/>
<path d="M23.5625 52.3579C23.7556 51.7785 24.2385 51.3922 24.7213 51.1025C24.335 51.4888 23.9488 51.9716 23.5625 52.3579Z" fill="black"/>
<path d="M74.5511 52.2603C74.2614 52.8397 73.6821 53.0328 73.1992 53.419C73.4889 53.0328 73.9717 52.55 74.5511 52.2603Z" fill="black"/>
<path d="M24.7202 51.9702C24.3339 52.453 24.0442 52.9359 23.4648 53.3221C23.658 52.8393 24.2374 52.2599 24.7202 51.9702Z" fill="black"/>
<path d="M38.0499 38.7403C37.6636 38.5472 37.3739 38.354 37.2773 37.9678C37.6636 38.0643 37.6636 38.1609 38.0499 38.7403Z" fill="black"/>
<path d="M36.4062 38.9336C36.7925 39.0302 36.9857 39.3199 37.1788 39.7061C36.8891 39.4164 36.5994 39.2233 36.4062 38.9336Z" fill="black"/>
<path d="M12.9405 25.5114C12.7474 25.3183 12.5542 25.1251 12.168 24.8354C12.6508 24.932 12.6508 24.932 12.9405 25.5114Z" fill="black"/>
<path d="M37.5644 25.9951C37.4679 26.3814 37.0816 26.6711 36.6953 26.8642C36.8884 26.478 37.1782 26.1883 37.5644 25.9951Z" fill="black"/>
<path d="M73.296 52.1641C73.1028 52.4538 72.8131 52.6469 72.62 52.9366L72.5234 52.84C72.7166 52.5503 72.9097 52.2606 73.296 52.1641Z" fill="black"/>
<path d="M4.82985 17.2061C4.92642 17.3026 5.02298 17.3992 5.02298 17.4958C5.02298 17.5923 4.92642 17.6889 4.82985 17.6889C4.82985 17.6889 4.63672 17.5923 4.63672 17.4958C4.63672 17.3992 4.73328 17.3026 4.82985 17.2061Z" fill="black"/>
<path d="M23.4689 28.6023C23.2758 28.7955 22.9861 28.9886 22.793 29.0851C22.8895 28.6989 23.1792 28.6989 23.3724 28.4092C23.4689 28.5057 23.4689 28.6023 23.4689 28.6023Z" fill="black"/>
<path d="M38.1445 25.608C38.3377 25.4149 38.6274 25.1251 38.8205 24.8354C38.7239 25.3183 38.7239 25.3183 38.1445 25.608Z" fill="black"/>
<path d="M5.02215 17.9795C5.21528 18.1726 5.31185 18.2692 5.11872 18.4623H4.92559C4.73246 18.1726 4.82901 18.0761 5.02215 17.9795Z" fill="black"/>
<path d="M75.1297 51.0044C74.84 51.1975 74.4538 51.3907 74.1641 51.5838C74.3572 51.2941 74.6469 51.101 75.1297 51.0044Z" fill="black"/>
<path d="M13.3283 37.583C13.1352 37.8727 12.942 38.0658 12.7489 38.3555L12.6523 38.259C12.7489 37.8727 12.942 37.6796 13.3283 37.583Z" fill="black"/>
<path d="M29.4533 44.3428C29.3567 44.729 29.067 44.8256 28.7773 45.0187C28.8739 44.729 29.067 44.4393 29.4533 44.3428Z" fill="black"/>
<path d="M12.9375 39.2233C13.0341 38.8371 13.3238 38.837 13.6135 39.0302C13.4203 39.0302 13.1306 39.1267 12.9375 39.2233Z" fill="black"/>
<path d="M73.293 52.1649C73.4861 51.7786 73.7758 51.5854 74.1621 51.5854C73.8724 51.7786 73.5827 51.9717 73.293 52.1649Z" fill="black"/>
<path d="M74.5469 52.261C74.74 52.0679 74.9332 51.8748 75.2229 51.6816C75.0297 52.0679 74.8366 52.261 74.5469 52.261Z" fill="black"/>
<path d="M49.5391 36.2305C49.7322 36.1339 49.9253 36.0374 50.1185 35.8442L50.215 35.9408C50.0219 36.0374 49.8288 36.1339 49.6356 36.3271C49.5391 36.3271 49.5391 36.2305 49.5391 36.2305Z" fill="black"/>
<path d="M5.98718 16.7231C6.08375 16.8197 6.18033 16.9163 6.18033 16.9163C6.18033 17.0128 6.08375 17.1094 5.98718 17.206C5.89062 17.206 5.89063 17.1094 5.89063 17.1094C5.89063 17.0128 5.89062 16.9163 5.98718 16.7231Z" fill="black"/>
<path d="M37.0816 25.4144C36.985 25.511 36.8884 25.6076 36.6953 25.7041C36.7919 25.6076 36.8884 25.4144 36.985 25.3179C37.0816 25.3179 37.0816 25.3179 37.0816 25.4144Z" fill="black"/>
<path d="M13.3281 37.5818C13.5213 37.3887 13.7144 37.1956 13.9075 37.0024C13.7144 37.3887 13.7144 37.3887 13.3281 37.5818Z" fill="black"/>
<path d="M25.013 27.6362C24.9164 28.0225 24.8199 28.0225 24.4336 27.8294C24.7233 27.8294 24.8199 27.7328 25.013 27.6362Z" fill="black"/>
<path d="M30.0352 43.9556C30.1317 43.6659 30.3248 43.5693 30.6145 43.5693C30.3248 43.6659 30.1317 43.7625 30.0352 43.9556Z" fill="black"/>
<path d="M49.6341 35.5541C49.441 35.6507 49.3444 35.7472 49.1513 35.8438L49.0547 35.7472C49.1513 35.6507 49.3444 35.5541 49.4409 35.4575C49.6341 35.4575 49.6341 35.5541 49.6341 35.5541Z" fill="black"/>
<path d="M38.1419 25.6084C37.9488 25.8015 37.7556 25.8981 37.5625 25.9947C37.6591 25.8015 37.8522 25.6084 38.1419 25.6084Z" fill="black"/>
<path d="M36.2144 26.2841C36.1178 26.3806 36.0212 26.4772 35.9247 26.5738L35.8281 26.4772C35.9247 26.3806 36.0213 26.2841 36.1178 26.1875C36.1178 26.1875 36.1178 26.1875 36.2144 26.2841Z" fill="black"/>
<path d="M30.0325 43.8599C29.936 44.1496 29.7428 44.2461 29.4531 44.3427C29.6463 44.2461 29.8394 44.053 30.0325 43.8599Z" fill="black"/>
<path d="M24.7227 51.9713C24.7227 51.8748 24.7226 51.7782 24.8192 51.7782C24.9158 51.6816 25.0123 51.6816 25.1089 51.6816C25.0123 51.7782 24.9158 51.8748 24.7227 51.9713Z" fill="black"/>
<path d="M19.4114 6.3916C19.2183 6.48817 19.0252 6.6813 18.832 6.87443C18.9286 6.48817 18.9286 6.48817 19.4114 6.3916Z" fill="black"/>
<path d="M17.4805 6.97097C17.577 6.8744 17.6736 6.77783 17.6736 6.77783C17.6736 6.77783 17.7702 6.77783 17.7702 6.8744C17.6736 6.97097 17.6736 7.06753 17.577 7.1641C17.577 7.06753 17.4805 7.06753 17.4805 6.97097Z" fill="black"/>
<path d="M5.69768 9.09499C5.69768 9.19156 5.6011 9.38469 5.50453 9.38469C5.40796 9.38469 5.21484 9.38469 5.21484 9.19155C5.21484 9.09499 5.31141 8.90186 5.40797 8.90186C5.60111 8.90186 5.69768 8.99842 5.69768 9.09499Z" fill="white"/>
<path d="M12.0727 10.3508C12.0727 10.4474 11.9761 10.6405 11.8795 10.6405C11.783 10.6405 11.5898 10.6405 11.5898 10.4474C11.5898 10.3508 11.6864 10.1577 11.783 10.1577C11.8795 10.1577 12.0727 10.2543 12.0727 10.3508Z" fill="white"/>
<path d="M1.34939 15.7593C1.63909 15.6627 1.92878 15.6627 2.12192 15.6627C2.50818 15.6627 2.79788 15.7593 3.08758 15.8559C3.18415 15.8559 3.18416 15.8559 3.28073 15.7593C3.28073 15.6627 3.28072 15.5662 3.18415 15.5662C2.79789 15.3731 2.50818 15.373 2.12192 15.373C1.83222 15.373 1.54252 15.4696 1.25282 15.5662C1.15626 15.5662 1.15625 15.6627 1.15625 15.7593C1.15625 15.7593 1.25283 15.7593 1.34939 15.7593Z" fill="white"/>
<path d="M54.0775 53.2261C54.0775 53.3227 54.0775 53.4193 54.0775 53.5158C54.0775 53.6124 54.1741 53.709 54.1741 53.8055C54.0775 54.9643 53.981 56.1231 53.981 57.2819C53.8844 58.7304 53.8844 60.2755 53.8844 61.724C53.8844 62.9794 53.7878 64.2347 53.7878 65.4901C53.7878 65.9729 53.5947 66.2626 53.2084 66.3592C52.3393 66.6489 51.4702 66.9386 50.5046 67.0352C50.408 66.6489 50.408 66.3592 50.3114 65.8764C50.2149 66.0695 50.1183 66.1661 50.1183 66.1661C50.0217 66.4558 50.0217 66.7455 50.0217 67.0352C49.732 67.2283 49.3458 67.3249 48.9595 67.2283C48.8629 66.7455 48.8629 66.7455 49.2492 65.5867C48.8629 65.5867 48.8629 65.5867 48.3801 67.1317C47.8973 67.0352 47.7041 66.842 47.8007 66.4558C47.8973 65.6832 48.187 65.1038 48.9595 64.7176C49.4423 64.5244 49.9252 64.3313 50.5046 64.0416C50.5046 63.3656 50.408 62.6897 50.408 62.0137C50.408 61.1446 50.3114 60.1789 50.3114 59.3098C50.3114 59.2133 50.3114 59.0201 50.408 59.0201L50.5046 58.9236C50.5046 58.5373 50.408 58.151 50.3114 57.8613C50.2149 57.6682 50.1183 57.5716 50.1183 57.3785V57.4751C49.732 56.7991 49.3458 56.1231 48.8629 55.5437C48.3801 54.9643 47.8007 54.3849 47.2213 53.8055C47.1247 53.709 47.0282 53.6124 47.0282 53.5158C46.835 53.3227 46.6419 53.1296 46.4488 52.9364C46.9316 52.5502 47.3179 52.1639 47.7041 51.7776L47.6076 51.6811C47.1247 51.9708 46.7385 52.357 46.2556 52.6467C45.966 52.2605 45.7728 51.8742 45.4831 51.4879C45.29 51.1982 45.0968 50.812 44.614 51.0051C44.5174 51.0051 44.4209 50.9085 44.3243 50.812C44.1312 50.4257 43.8415 50.0394 43.7449 49.6532C43.5518 48.9772 43.4552 48.3012 43.5518 47.6253C43.5518 47.3356 43.6484 46.9493 43.3587 46.5631C42.8758 46.8528 42.9724 47.6253 42.393 47.915C42.2964 47.8184 42.2964 47.8184 42.2964 47.7218C42.1998 46.6596 42.1998 45.5974 42.4895 44.5352C42.393 44.5352 42.1999 44.6317 42.1033 44.6317C42.0067 45.1146 42.0067 45.694 41.9102 46.1768C41.9102 47.1424 42.0067 48.0115 42.0067 48.9772C42.5861 48.8806 42.6827 48.3012 43.069 48.0115C43.069 48.3978 43.1655 48.591 43.1655 48.8806C43.2621 50.136 43.938 50.9085 44.7106 51.7776C44.8071 51.8742 44.9037 51.9708 44.9037 51.9708C45.29 51.9708 45.29 52.1639 45.4831 52.357C45.8694 52.8399 46.1591 53.3227 46.5453 53.709C47.2213 54.4815 47.9938 55.254 48.6698 56.0266C48.7664 56.1231 48.8629 56.3163 48.9595 56.5094C48.8629 56.5094 48.7664 56.5094 48.7664 56.5094C48.8629 56.606 48.8629 56.7025 48.9595 56.7025C49.0561 56.7991 49.0561 56.8957 49.0561 56.9922C49.1526 56.9922 49.1526 57.0888 49.1526 57.0888C49.5389 57.3785 50.0217 57.8613 49.9252 58.4407C49.8286 59.8892 49.8286 61.2412 49.9252 62.6897C49.9252 63.0759 49.9252 63.3656 49.9252 63.7519C49.6355 63.8485 49.4423 64.0416 49.1526 64.1382C47.9938 64.5244 47.511 65.3935 47.3179 66.4558C47.2213 66.842 47.3179 67.1317 47.7041 67.2283C48.0904 67.4214 48.4767 67.518 48.8629 67.518C49.1526 67.518 49.5389 67.518 49.8286 67.4214C50.6977 67.2283 51.5668 67.1317 52.4359 66.9386C52.8222 66.842 53.305 66.6489 53.6913 66.4558C54.0775 66.2626 54.2707 65.9729 54.2707 65.4901C54.2707 65.0073 54.2707 64.4279 54.2707 63.945C54.2707 62.0137 54.2707 60.1789 54.2707 58.2476C54.2707 56.606 54.3672 54.8678 54.4638 53.2261V53.1296C54.2707 53.2261 54.1741 53.2261 54.0775 53.2261Z" fill="black"/>
<path d="M43.7421 47.6263C43.7421 47.5297 43.6456 47.4331 43.7421 47.4331C44.5147 46.9503 45.0941 46.2743 46.0597 45.7915C45.9632 46.1778 45.77 46.3709 45.4803 46.4675C44.9009 46.6606 44.4181 47.1434 44.0318 47.5297C43.8387 47.5297 43.8387 47.5297 43.7421 47.6263Z" fill="black"/>
<path d="M46.351 46.5625C45.6751 47.1419 44.9991 47.6247 44.2266 48.2041C44.2266 47.9144 44.2266 47.7213 44.3231 47.7213C44.9025 47.6247 45.2888 47.1419 45.7716 46.7556C45.8682 46.6591 46.0613 46.5625 46.351 46.5625Z" fill="black"/>
<path d="M47.0273 53.226C47.317 52.55 47.993 52.2603 48.4758 51.874L48.5724 51.9706C48.0896 52.3569 47.6067 52.7431 47.0273 53.226Z" fill="black"/>
<path d="M17.8648 50.4256C17.5751 49.5565 17.4786 48.4942 17.2855 47.6251C17.2855 47.5286 17.1889 47.432 17.1889 47.2389C16.9958 47.0457 16.8992 46.7561 16.8992 46.4664C16.8026 46.4664 16.8026 46.3698 16.7061 46.3698C16.8026 47.0458 16.9957 47.6251 17.0923 48.2045C17.0923 48.3977 17.0923 48.5908 16.9958 48.6874C16.8992 48.7839 16.8992 48.8805 16.8026 48.9771C16.8992 49.0736 16.8992 49.1702 16.8992 49.2668C16.8992 49.4599 16.8026 49.7496 16.8026 49.9427C16.8026 50.6187 16.8992 51.1015 16.8992 51.5844C16.8026 51.5844 16.6095 51.5844 16.4163 51.5844C16.4163 52.1638 16.4163 52.7432 16.4163 53.226C16.3198 55.1573 16.2232 56.9921 16.1266 58.9234C16.0301 59.9857 15.9335 61.0479 15.837 62.0136C15.7404 63.5586 15.7404 65.0071 15.7404 66.5522C15.7404 66.7453 15.7404 66.9385 15.6438 67.2282C15.2575 67.2282 14.8713 67.3247 14.5816 67.3247C14.3885 67.3247 14.0988 67.2282 13.9056 67.2282C13.5194 66.6488 13.4228 65.9728 13.5194 65.2003C13.5194 65.0071 13.6159 64.814 13.3262 64.6209C13.0365 65.3934 13.1331 66.1659 13.4228 67.035C13.0365 66.6488 12.6503 67.2282 12.264 66.9385C12.1674 66.6488 12.1674 66.2625 12.264 65.9728C12.3606 65.7797 12.4571 65.5865 12.4571 65.2968C12.4571 65.1037 12.3606 65.0071 12.3606 64.7174C11.8777 65.3934 11.8777 66.1659 11.7812 66.8419C11.4915 66.9385 11.2018 66.8419 11.0086 66.5522C10.9121 66.3591 10.8155 65.9728 10.9121 65.8762C11.2983 65.3934 11.2983 64.6209 11.7812 64.138C12.1674 63.7518 12.4571 63.1724 12.6503 62.6895C12.8434 62.2067 13.0365 61.7239 12.8434 61.1445C12.8434 60.9513 12.8434 60.7582 12.7468 60.5651C12.7468 59.9857 12.6503 59.4063 12.6503 58.7303C12.5537 57.7646 12.3606 56.7024 12.3606 55.7367C12.3606 55.5436 12.264 55.447 12.264 55.2539C12.1674 54.5779 12.1674 53.8054 12.0709 53.1294C11.8777 51.4878 11.6846 49.9427 11.4915 48.3011C11.3949 47.432 11.3949 46.5629 11.2983 45.7904C11.2018 45.1144 11.1052 44.535 11.1052 43.8591C11.0086 42.8934 10.9121 41.9277 10.8155 40.9621C10.7189 40.8655 10.6224 40.7689 10.5258 40.7689L10.4292 40.6724C10.5258 41.3483 10.5258 42.0243 10.6224 42.7968C10.7189 43.8591 10.8155 44.9213 10.9121 45.9835C10.9121 46.3698 11.0086 46.7561 11.0086 47.1423C11.0086 48.5908 11.2018 49.9427 11.3949 51.3912C11.588 53.5157 11.7812 55.5436 11.9743 57.5715C12.0709 58.6337 12.0709 59.696 12.1674 60.7582C12.264 61.8204 12.0709 62.593 11.588 63.4621C11.3949 63.8483 11.0086 64.138 10.8155 64.5243C10.7189 64.6209 10.7189 64.7174 10.7189 64.814C10.5258 65.2968 10.3327 65.6831 10.043 66.0694V66.1659C10.043 66.8419 10.2361 67.2282 10.7189 67.5179C11.3949 67.8076 12.1674 68.0007 12.8434 67.9041C12.94 67.9041 13.1331 67.9041 13.2297 67.9041C13.8091 67.9041 14.2919 67.9041 14.8713 67.9041C15.2576 67.9041 15.5473 67.9041 15.837 67.5179C15.837 66.7453 15.837 65.8762 15.837 65.1037C15.837 64.3312 15.837 63.6552 15.837 62.9792C15.837 62.593 15.837 62.2067 16.0301 61.917C16.2232 61.6273 16.2232 61.241 16.2232 60.8548C16.2232 60.2754 16.1266 59.696 16.1266 59.1166C16.1266 58.0543 16.2232 56.8955 16.3198 55.8333C16.3198 55.0608 16.4163 54.3848 16.4163 53.6123C16.6095 53.6123 16.706 53.6123 16.8992 53.7088C16.9957 52.55 16.6095 51.4878 16.8992 50.329C17.1889 50.5221 17.1889 51.1015 17.6717 51.1015C17.8649 50.7153 17.8648 50.6187 17.8648 50.4256Z" fill="black"/>
<path d="M12.5547 49.6537C12.6513 48.9777 13.1341 48.5915 13.5204 48.3018C13.1341 48.7846 12.8444 49.2674 12.5547 49.6537Z" fill="black"/>
<path d="M13.5193 49.2671C13.2296 49.7499 12.9399 50.3293 12.457 50.7156C12.6502 50.2328 13.133 49.5568 13.5193 49.2671Z" fill="black"/>
<path d="M13.5195 49.2667C13.5195 49.1701 13.5195 49.0736 13.6161 49.0736C13.7127 48.977 13.8092 48.8804 13.9058 48.977C13.7127 49.0736 13.6161 49.1701 13.5195 49.2667Z" fill="black"/>
</svg>
