<svg width="83" height="75" viewBox="0 0 83 75" fill="none" xmlns="http://www.w3.org/2000/svg">
<path d="M77.6124 31.676C75.2499 33.601 72.4498 35.0886 69.4747 35.9636C68.3372 36.3136 67.1996 36.5761 66.2371 37.1886C65.5371 37.7136 65.0121 38.5012 64.5746 39.2012C61.5995 44.2763 61.6869 51.0141 64.662 56.0892C65.3621 57.3143 66.2371 58.4518 66.7621 59.7643C67.8997 62.8269 66.8496 66.2395 65.7996 69.3896C65.2746 70.8772 64.5745 72.5397 63.087 72.8897C62.037 73.0647 60.9869 72.5397 60.0244 71.9272C59.4119 71.5772 58.7119 70.9647 58.8869 70.2646C59.0619 69.7396 59.7619 69.5646 60.2869 69.3021C63.087 68.2521 64.312 64.6645 63.437 61.8644C62.562 59.0643 59.9369 56.9642 57.1368 56.0017C56.4368 57.3143 58.3619 58.5393 58.5369 59.9393C58.7119 60.9019 58.0993 61.6894 57.6618 62.5644C56.3493 64.8395 55.7368 67.4646 55.7368 70.0896C55.7368 70.5272 55.7368 70.9647 55.5618 71.3147C55.2993 71.8397 54.6867 72.0147 54.1617 72.1022C51.8867 72.5397 49.4366 72.1022 47.424 70.7897C49.6116 69.1271 51.9742 67.3771 53.0242 64.8395C54.0742 62.3019 53.2867 58.7143 50.6616 57.8393C49.6116 57.4893 48.3866 57.5768 47.3365 57.0517C45.849 56.3517 45.149 54.7767 44.8865 53.2016C44.624 51.6266 44.7989 49.964 44.6239 48.389C44.5364 47.689 44.3614 46.9889 43.7489 46.6389C43.2239 46.2889 42.5239 46.3764 41.9113 46.5514C39.7238 46.9889 37.7112 47.689 35.6987 48.564C34.4736 49.089 33.2486 49.789 32.5486 50.9266C31.7611 51.9766 31.586 53.3766 31.4985 54.6892C31.061 59.0643 31.1485 63.5269 30.2735 67.8146C29.9235 69.6521 29.311 71.4897 28.0859 72.8897C26.7734 74.2898 24.7608 75.0773 23.0108 74.2898C22.3108 73.9398 21.6107 73.3272 21.6982 72.5397C21.7857 71.4022 23.0983 70.9647 24.0608 70.3521C25.9859 69.0396 26.3359 66.327 26.5109 64.052C26.5984 62.3019 26.5984 60.6394 26.5984 58.8893C26.5984 57.4018 26.5109 55.9142 25.8984 54.6892C24.6733 52.2391 21.6107 51.2766 18.8982 50.7516C18.4606 50.664 17.9356 50.5765 17.4981 50.8391C17.1481 51.1016 16.9731 51.5391 16.7981 51.8891C14.9605 57.2267 15.9231 63.0894 15.1355 68.6021C14.9605 70.0021 14.6105 71.4022 13.823 72.5397C13.0355 73.6772 11.5479 74.4648 10.2354 74.1148C8.83535 73.7648 7.87281 72.1022 8.57283 70.8772C8.83534 70.3521 9.36035 70.0896 9.62286 69.6521C10.3229 68.7771 10.4104 67.6396 10.4104 66.502C10.7604 59.1518 10.1479 51.8016 8.57283 44.6264C8.04781 41.3888 8.22283 38.0637 9.09785 34.8261C9.62287 32.901 10.4104 31.0634 10.6729 29.1384C11.0229 26.6008 10.4979 24.1507 9.97288 21.6132C9.53537 21.3506 8.92284 21.1756 8.39783 21.0881C7.6103 21.0006 6.82277 21.0006 6.12275 21.0881C5.68524 21.0881 5.24773 21.1756 4.89772 21.0006C4.46021 20.8256 4.1977 20.3006 4.02269 19.8631C2.18514 15.488 2.27265 10.5003 4.1102 6.12518C5.16023 3.5876 6.99778 1.22503 9.62286 0.525008C12.0729 -0.175013 14.6105 0.700011 16.9731 1.75004C18.8107 2.53757 20.6482 3.5001 22.3983 4.46263C23.0108 4.81264 23.6233 5.16265 24.0608 5.68766C24.7608 6.56269 24.7608 7.87523 24.4108 9.01277C24.4983 9.01277 24.4983 9.01277 24.5858 9.10027C24.4108 11.2878 21.7857 13.2129 22.7483 15.2255C23.0108 15.7505 23.5358 16.188 23.9733 16.538C28.2609 19.6006 33.4236 21.4382 38.6738 21.9632C44.7114 22.4882 50.9241 21.2631 56.8743 22.5757C57.7493 22.7507 58.6244 23.0132 59.4119 23.6257C60.1119 24.1507 60.5494 24.8508 61.0745 25.4633C62.4745 27.4758 64.0495 29.4009 66.1496 30.6259C68.2497 31.851 70.9622 32.2885 73.1498 31.1509C74.9874 30.1884 76.0374 28.2634 77.2624 26.5133C78.4875 24.8508 80.0625 23.1007 82.1626 23.0132C82.5126 26.3383 80.2375 29.4884 77.6124 31.676Z" fill="white"/>
<path d="M8.39845 44.977L7.96094 42.877C8.04844 43.402 8.22344 44.0145 8.31094 44.5395C8.31094 44.7145 8.31095 44.802 8.39845 44.977Z" fill="white"/>
<path d="M5.60005 17.5012C5.25003 17.8512 4.81252 18.1137 4.55002 18.5512C4.46251 18.6387 4.4625 18.7262 4.375 18.8137C4.375 18.9012 4.37501 19.0762 4.46251 19.0762C4.55001 19.0762 4.55001 19.1637 4.63751 19.1637C5.07502 19.2512 5.51254 19.0762 5.95005 18.9887C6.21256 18.9012 6.56257 18.8137 6.82508 18.6387C7.26259 18.3762 7.6126 18.0262 7.87511 17.5887C7.87511 17.5012 7.96262 17.5012 7.96262 17.4137C7.96262 17.2387 7.78761 17.2387 7.7001 17.1512C7.00008 16.9762 6.30007 16.9762 5.60005 16.8887" fill="#BCBCBB"/>
<path d="M18.1978 14.6131C19.0728 15.4881 20.3854 15.9256 21.5229 15.4881C21.7854 15.4006 22.1354 15.2256 22.3979 15.3131C22.6605 15.4006 22.8355 15.5756 23.0105 15.8381C23.8855 17.0632 24.5855 18.3757 25.1105 19.7757C25.198 20.0383 25.2855 20.3883 25.198 20.6508C25.1105 20.8258 25.023 20.9133 24.848 21.0008C23.7105 21.8758 22.1354 21.8758 20.8229 21.2633C19.5104 20.6508 18.5478 19.6007 17.8478 18.3757C17.2353 17.3257 16.7978 16.1881 16.6228 14.9631C16.4478 14.0881 16.1853 12.163 16.7978 11.3755C17.1478 12.6005 17.2353 13.6506 18.1978 14.6131Z" fill="#BCBCBB"/>
<path d="M10.063 34.4771C10.413 34.6521 10.8506 34.4771 11.1131 34.2146C12.6006 32.9021 12.6881 30.802 12.9506 28.8769C13.3881 26.0769 14.3507 23.3643 14.1757 20.6517C14.1757 20.3017 14.0882 19.9517 13.7381 19.9517C13.6506 19.9517 13.5631 19.9517 13.3881 20.0392C12.5131 20.3892 10.7631 20.8267 10.238 21.7017C9.71302 22.5767 10.238 24.4143 10.3255 25.3768C10.413 26.9519 10.413 28.4394 10.413 29.927C10.413 30.3645 9.88802 34.3896 10.063 34.4771Z" fill="#BCBCBB"/>
<path d="M16.0994 61.6028C16.0994 61.8653 16.0994 62.0403 16.0994 62.3028C15.9244 62.9153 15.3119 63.2653 14.8744 63.7029C13.9119 64.8404 14.5244 66.7655 13.6494 68.078C13.5619 68.1655 13.4744 68.3405 13.2994 68.3405C13.1244 68.3405 13.0369 68.078 13.0369 67.8155C13.0369 66.853 13.0369 65.8029 13.0369 64.8404C12.9494 58.9777 11.8118 52.94 13.1243 47.2524C13.1243 47.0774 13.2119 46.9023 13.3869 46.9023C13.5619 46.9023 13.7369 46.9898 13.8244 47.0773C14.7869 47.8649 15.9244 48.7399 16.537 49.7899C17.062 50.665 16.712 51.715 16.6245 52.6775C16.0994 55.5651 15.9244 58.6277 16.0994 61.6028Z" fill="#BCBCBB"/>
<path d="M29.3136 69.5644C29.2261 70.9644 29.3136 72.627 28.2636 73.5895C27.8261 73.9395 27.301 74.202 26.6885 74.2895C25.901 74.4645 24.851 74.377 24.4134 73.5895C24.0634 72.977 24.2384 72.277 24.5884 71.6644C24.9385 71.0519 25.4635 70.7019 25.9885 70.1769C27.5635 68.6894 28.6136 66.7643 29.0511 64.6642C29.2261 63.9642 29.3136 63.1767 29.4886 62.4767C29.9261 60.5516 30.8011 58.8015 31.7637 57.139C31.9387 56.7015 32.2012 56.3515 32.4637 56.0015C32.2887 56.264 32.4637 57.4015 32.2887 57.7515C32.2012 58.1015 32.0262 58.4515 31.9387 58.8015C31.6762 60.0266 31.5012 61.1641 31.1511 62.3892C30.4511 64.7517 29.4886 67.1143 29.3136 69.5644Z" fill="#BCBCBB"/>
<path d="M53.7301 51.888C54.2551 52.413 54.8676 52.938 55.3051 53.5505C55.5676 53.9005 55.7427 54.338 55.8302 54.6881C56.0927 55.4756 56.4427 56.1756 56.7052 56.9631C56.7927 57.1381 56.7927 57.2256 56.7927 57.4006C56.7927 57.7507 56.4427 57.9257 56.0927 57.9257C55.7426 57.9257 55.4801 57.7506 55.2176 57.6631C53.9926 56.8756 53.0301 55.7381 51.805 54.8631C49.4425 53.0255 46.3799 51.9755 44.8923 49.3504C44.6298 48.9129 44.4548 48.4754 44.5423 47.9503C44.7173 47.2503 45.5048 46.9003 46.2049 46.7253C47.0799 46.4628 47.8674 46.2878 48.7424 46.1128C48.8299 46.1128 49.0049 46.1128 49.0924 46.1128C49.1799 46.2003 49.18 46.2878 49.2675 46.3753C49.355 46.9003 49.53 47.4253 49.705 47.9503C50.1425 47.6003 50.23 47.0753 50.8425 47.2503C51.28 47.4253 51.5425 48.2129 51.7175 48.5629C52.2425 49.8754 52.7675 50.9254 53.7301 51.888Z" fill="#BCBCBB"/>
<path d="M64.226 70.9643C64.1385 71.2268 64.051 71.4894 63.876 71.7519C63.526 72.2769 62.826 72.7144 62.2134 72.7144C62.0384 72.7144 61.8634 72.7144 61.7759 72.6269C61.6884 72.5394 61.5134 72.4519 61.4259 72.3644C60.9009 71.8394 60.5509 71.0518 60.6384 70.2643C60.7259 69.2143 61.4259 68.3393 62.0384 67.5517C62.7384 66.7642 63.526 65.9767 64.1385 65.1017C64.4885 64.5766 64.751 63.8766 65.276 63.5266C65.7135 63.1766 66.6761 62.9141 67.0261 63.5266C67.2886 64.0516 66.5886 65.2767 66.3261 65.8017C65.6261 67.4642 64.926 69.2143 64.226 70.9643Z" fill="#BCBCBB"/>
<path d="M33.4258 50.7506C34.6508 50.4006 35.0883 49.0006 36.1384 48.3006C36.8384 47.8631 37.6259 47.688 38.4134 47.6005C39.726 47.4255 40.951 47.2505 42.176 47.0755C43.0511 46.988 43.9261 46.813 44.6261 46.463C45.0636 46.288 45.5011 45.8505 45.4136 45.413C45.3261 44.8005 44.6261 44.6255 44.1011 44.4505C41.651 44.0129 39.026 43.4004 36.5759 43.4879C34.8258 43.5754 34.3008 44.888 34.0383 46.3755C33.7758 47.7756 33.6008 49.2631 33.4258 50.7506Z" fill="#BCBCBB"/>
<path d="M70.4426 36.314C71.8427 35.8765 73.3302 35.3514 74.5553 34.4764C74.8178 34.3014 75.1678 33.9514 75.0803 33.6014C74.9928 33.3389 74.6428 33.1639 74.3803 33.1639C71.5802 32.6389 68.7801 33.5139 66.0675 34.3889C65.7175 34.4764 65.3675 34.6514 65.105 34.8264C64.0549 35.5264 63.5299 37.714 65.1925 37.9765C66.5925 38.1515 69.0426 36.664 70.4426 36.314Z" fill="#BCBCBB"/>
<path d="M15.4885 54.4263C16.1886 53.8138 16.4511 53.0263 16.5386 52.1512C16.7136 51.4512 16.8886 50.8387 17.0636 50.1387C16.3636 49.5261 15.6635 48.9136 14.9635 48.2136C14.7885 48.5636 14.701 48.8261 14.6135 49.2636C14.001 48.7386 13.826 48.1261 13.5635 47.5136C13.2135 46.9011 13.0385 46.2885 12.7759 45.676C12.5134 45.0635 12.3384 44.5385 12.1634 43.926C11.9884 43.3135 11.8134 42.7009 11.6384 42.0009C11.5509 41.3884 11.5509 40.6884 11.4634 40.0759C11.8134 39.9009 11.9009 39.9884 11.9884 40.2509C11.9884 40.3384 11.9884 40.3384 11.9884 40.4259C11.8134 42.0884 12.4259 43.576 12.951 45.0635C13.2135 45.676 13.3885 46.2886 13.651 46.9011C13.826 47.2511 14.001 47.6011 14.2635 48.0386C14.4385 47.6886 14.526 47.5136 14.6135 47.2511C15.4885 47.9511 16.2761 48.7386 17.0636 49.3511C17.8511 49.9637 18.8136 50.4012 19.7762 50.8387C20.4762 50.2262 21.1762 49.5261 21.8762 48.9136C21.5262 49.7012 20.6512 50.0512 20.3012 50.9262C20.5637 51.1887 20.8262 51.1887 21.0887 50.9262C21.6137 50.4012 22.2262 50.0512 22.9263 49.7887C22.4012 50.3137 21.7012 50.5762 21.3512 51.2762C21.7012 51.6262 24.1513 52.5012 24.9388 52.5887C24.8513 51.5387 24.6763 50.4887 24.5888 49.4386C24.5013 48.3886 24.4138 47.2511 24.4138 46.201C24.4138 45.151 23.9763 44.1885 23.9763 43.1385C24.0638 43.1385 24.0638 43.1385 24.1513 43.051C24.2388 43.226 24.3263 43.3135 24.3263 43.4885C24.6763 45.0635 24.8513 46.6386 24.8513 48.2136C24.9388 50.2262 25.3763 52.1512 25.6389 54.1638C26.0764 53.9013 26.5139 53.6388 26.9514 53.4638C26.6014 53.8138 26.1639 54.2513 25.8138 54.6888C25.9888 56.0014 26.2514 57.4014 26.5139 58.8014C26.6014 59.3265 26.8639 59.8515 27.1264 60.289C27.3014 60.5515 27.3014 60.7265 27.3014 60.989C27.0389 62.564 27.1264 64.0516 27.0389 65.6266C27.0389 65.9767 27.0389 66.3267 26.9514 66.6767C26.9514 66.9392 26.8639 67.1142 26.7764 67.3767C26.4264 67.2017 26.4264 67.0267 26.4264 66.7642C26.4264 64.7516 26.5139 62.6516 26.5139 60.639C26.5139 60.464 26.5139 60.114 26.3389 60.0265C25.9014 59.764 25.9889 59.3264 25.9014 58.8889C25.6388 57.0514 25.2888 55.3013 25.0263 53.4638C24.9388 53.1138 24.8513 53.0263 24.5013 52.9388C24.1513 52.8513 23.8888 52.7637 23.5388 52.6762C21.6137 52.2387 19.7762 51.4512 18.0261 50.6637C17.9386 50.5762 17.8511 50.5762 17.6761 50.4887C17.5011 51.3637 17.2386 52.1512 17.1511 53.0263C16.9761 54.9513 16.4511 56.8764 16.4511 58.8014C16.4511 59.8515 16.4511 60.9015 16.4511 61.9515C16.4511 62.389 16.4511 62.8266 16.3636 63.2641C16.3636 63.6141 16.3636 63.9641 15.8385 63.8766C15.751 63.8766 15.576 64.0516 15.576 64.2266C15.401 64.9266 15.1385 65.7141 14.9635 66.4142C14.7885 67.3767 14.701 68.4267 14.6135 69.3893C14.526 70.3518 14.351 71.4018 14.2635 72.3643C14.176 72.9769 13.826 73.2394 13.3885 73.4144C12.6884 73.7644 11.9884 74.2019 11.1134 74.0269C10.9384 73.9394 10.6759 74.1144 10.5009 74.1144C10.3259 74.1144 10.0634 74.1144 9.88836 74.0269C9.62585 73.9394 9.36334 73.8519 9.01333 73.8519C7.9633 73.7644 7.35079 72.7144 7.61329 71.7518C7.7008 71.4893 7.8758 71.1393 8.05081 70.9643C8.75083 70.4393 9.45085 69.9143 10.1509 69.3893C10.6759 69.0392 10.8509 68.8642 10.7634 68.2517C10.7634 67.9892 10.6759 67.7267 10.6759 67.4642C10.5009 66.5892 10.5884 65.7141 10.5884 64.8391C10.6759 63.0016 10.6759 61.164 10.7634 59.2389C10.7634 59.0639 10.7634 58.8889 10.7634 58.7139C10.7634 58.0139 10.6759 57.3139 10.6759 56.7014C10.7634 55.6513 10.6759 54.6888 10.1509 53.7263C9.80086 53.1138 9.80086 52.3262 9.53835 51.6262C9.01333 50.0512 8.66333 48.4761 8.48832 46.8136C8.31332 45.4135 8.22581 44.0135 8.1383 42.6134C8.1383 42.4384 8.1383 42.2634 8.1383 42.0884C8.0508 41.3884 8.0508 40.6009 7.9633 39.8134C7.78829 39.6383 7.35079 40.1634 7.17578 39.5508C7.7883 38.4133 8.0508 37.1008 8.31331 35.7882C8.48831 35.0882 8.66332 34.3882 8.83833 33.6882C9.01333 32.6381 9.27584 31.5006 9.45084 30.3631C9.71335 28.263 10.2384 26.2504 10.0634 24.0629C10.0634 23.4504 9.97586 22.9253 9.97586 22.3128C9.97586 22.0503 9.97586 21.8753 10.0634 21.6128C10.1509 21.6128 10.1509 21.6128 10.2384 21.6128C10.3259 21.7878 10.4134 21.8753 10.5009 22.0503C10.7634 23.4503 10.7634 24.9379 10.5884 26.3379C10.3259 28.438 10.0634 30.6256 9.71335 32.7256C9.45085 34.3882 9.01333 35.9632 8.75082 37.6258C8.66332 37.8883 8.75082 38.1508 8.83833 38.3258C9.01333 38.7633 9.01333 39.1133 9.01333 39.6383C8.92583 40.6884 8.92583 41.7384 9.01333 42.7884C9.10083 44.451 9.36334 46.026 9.62585 47.6886C9.88835 49.6137 10.5884 51.3637 11.2009 53.2013C11.4634 53.9013 11.6384 54.5138 11.8134 55.2138C11.9884 55.8263 11.9884 55.8263 11.3759 56.1764C11.3759 59.3265 11.3759 62.4765 11.3759 65.7141C11.9009 65.4516 12.2509 65.1891 12.6884 65.0141L12.7759 65.1016C12.5134 65.2766 12.2509 65.5391 11.9884 65.6266C11.4634 65.9767 11.2884 66.4142 11.4634 66.9392C11.4634 67.0267 11.4634 67.1142 11.4634 67.2892C11.6384 68.0767 11.5509 68.9517 11.3759 69.7393C10.8509 70.0018 10.2384 70.2643 9.71335 70.6143C9.36334 70.8768 9.01333 71.1393 8.75082 71.4893C8.48831 71.8393 8.57582 72.1018 8.92584 72.3643C9.27585 72.5394 9.62585 72.7144 9.97586 72.8894C10.3259 72.1894 10.4134 71.4893 11.0259 70.8768C11.1134 71.1393 11.2009 71.2268 11.1134 71.4018C11.0259 71.6643 10.8509 71.9268 10.7634 72.1893C10.6759 72.4519 10.4134 72.8019 10.5884 73.1519C10.9384 73.3269 11.1134 73.0644 11.2009 72.8019C11.3759 72.5394 11.5509 72.1893 11.8134 71.9268C11.9009 71.8393 12.0759 71.8393 12.3384 71.7518C12.0759 72.1893 11.8134 72.5394 11.6384 72.8894C12.1634 73.0644 12.5134 72.8894 12.8635 72.7144C12.8635 72.7144 12.951 72.7144 12.951 72.6269C13.9135 72.0143 13.9135 72.0143 14.0885 70.7893C14.2635 69.5643 14.2635 68.3392 14.4385 67.1142C14.701 65.8016 14.701 64.4016 15.3135 63.2641C15.4885 62.9141 15.576 62.5641 16.0135 62.5641C16.101 61.339 16.0136 60.2015 15.9261 59.0639C15.8385 57.9264 16.0135 56.7889 16.0135 55.6513C15.401 55.6513 15.051 56.1764 14.526 56.4389C14.6135 56.0889 14.7885 55.9138 15.051 55.8263C15.9261 55.4763 16.3636 54.8638 16.2761 53.9013C16.2761 53.9013 16.2761 53.8138 16.2761 53.7263C15.926 54.2513 15.751 54.3388 15.4885 54.4263Z" fill="black"/>
<path d="M64.7549 30.4513C64.9299 30.4513 65.1925 30.4513 65.3675 30.5388C66.2425 30.8013 67.03 31.1513 67.8175 31.4138C69.3926 31.7638 70.8801 31.6763 72.3677 30.8013C72.4552 30.7138 72.6302 30.6263 72.7177 30.6263C73.2427 30.8013 73.5927 30.3638 73.9427 30.1888C75.4303 29.3138 76.4803 28.0012 77.4428 26.6887C78.1429 25.8136 78.8429 24.8511 79.5429 23.9761C79.8929 23.5386 80.3304 23.2761 80.8554 23.0136C81.2929 22.751 81.7305 22.8385 82.0805 23.4511C82.518 24.2386 82.7805 25.0261 82.343 25.9011C82.0805 26.4262 81.993 27.0387 81.7305 27.4762C81.3804 28.0887 81.0304 28.7012 80.5929 29.3138C80.3304 29.6638 80.0679 30.0138 79.7179 30.3638C79.5429 30.5388 79.3679 30.7138 79.1929 30.8888C78.7554 31.3263 78.2304 31.6763 77.7928 32.1138C76.5678 33.0764 75.4303 34.0389 74.2052 35.0014C72.8052 36.0515 71.2301 36.664 69.4801 37.1015C68.7801 37.2765 68.08 37.539 67.38 37.714C66.68 37.889 66.0675 37.889 65.3675 37.9765C65.105 37.9765 64.8425 38.064 64.4924 38.064C64.3174 38.6765 64.0549 39.2891 63.8799 39.9016C63.5299 41.3891 63.2674 42.9642 62.9174 44.4517C62.7424 45.3267 62.6549 46.2018 62.4799 47.1643C62.3924 47.5143 62.3924 47.7768 62.6549 48.1268C62.8299 48.3893 62.9174 48.7393 62.7424 49.0894C62.4799 49.8769 62.5674 50.6644 62.7424 51.5394C63.2674 53.552 64.0549 55.3895 65.3675 57.0521C65.8925 57.7521 66.4175 58.4521 66.855 59.2397C67.1175 59.7647 67.38 60.3772 67.38 60.9897C67.38 62.1273 67.2925 63.2648 67.03 64.4023C66.68 66.2399 66.155 68.0774 65.7175 70.0025C65.5425 70.79 65.3675 71.5775 65.1049 72.3651C64.8424 73.0651 64.3174 73.4151 63.5299 73.5026C62.0424 73.6776 60.7298 73.3276 59.4173 72.6276C58.8048 72.2776 58.3672 71.7526 58.1047 71.0525C57.8422 70.3525 58.1047 69.74 58.5422 69.215C59.0673 68.6025 59.7673 68.2524 60.4673 67.9899C60.9923 67.8149 61.2549 67.4649 61.5174 67.0274C62.0424 66.1524 62.3049 65.1898 62.5674 64.2273C62.6549 63.9648 62.6549 63.7023 62.7424 63.4398C62.9174 62.9148 63.1799 62.3898 63.0924 61.7772C63.0924 61.6897 63.1799 61.6022 63.2674 61.3397C63.6174 61.9523 63.5299 62.3898 63.3549 62.9148C63.1799 63.7023 62.9174 64.4898 62.7424 65.2774C62.7424 65.3649 62.7424 65.4524 62.6549 65.6274C63.4424 65.5399 64.0549 65.0148 64.8425 65.1023C64.7549 65.1898 64.5799 65.1899 64.4924 65.2774C63.9674 65.4524 63.5299 65.7149 63.0049 65.8899C62.4799 66.0649 62.1299 66.5024 62.1299 67.1149C62.4799 67.1149 62.8299 67.0274 63.0924 67.0274V67.1149C62.9174 67.2024 62.7424 67.2899 62.5674 67.2899C62.3049 67.3774 61.9549 67.4649 61.7799 67.7274C61.4298 68.1649 60.9923 68.2524 60.5548 68.4274C60.0298 68.69 59.5048 68.9525 59.0673 69.3025C58.2797 69.915 58.2797 70.7025 59.0673 71.49C59.2423 71.14 59.4173 70.79 59.5923 70.44C59.7673 70.09 60.0298 69.8275 60.6423 69.915C60.5548 70.09 60.3798 70.1775 60.2923 70.44C60.0298 70.79 59.7673 71.2275 59.5923 71.665C59.4173 71.9276 59.5923 72.1901 59.8548 72.3651C60.4673 72.5401 60.9923 72.8026 61.6924 72.8026C61.6924 72.4526 61.6924 72.1901 61.6924 71.8401C61.6924 71.5775 61.7799 71.315 61.8674 71.0525C61.9549 70.79 62.0424 70.44 62.4799 70.44C62.3924 71.2275 61.8674 71.9276 62.2174 72.8026C62.6549 72.8026 63.1799 72.8026 63.6174 72.7151C64.0549 72.6276 64.2299 72.3651 64.4049 72.0151C64.5799 71.665 64.6674 71.2275 64.8425 70.8775C65.3675 68.515 65.98 66.0649 66.505 63.7023C66.68 62.9148 66.7675 62.0398 66.855 61.1647C66.855 60.8147 66.7675 60.5522 66.33 60.3772C66.5925 59.7647 66.33 59.4147 65.98 58.9772C65.1925 57.9271 64.2299 56.8771 63.6174 55.7396C62.7424 53.9895 61.9549 52.2395 61.6924 50.3144C61.5173 49.2644 61.4298 48.2143 61.6924 47.1643C62.1299 44.9767 62.5674 42.7892 63.0049 40.6016C63.1799 39.7266 63.3549 38.8515 63.4424 37.9765C63.4424 37.889 63.4424 37.8015 63.5299 37.6265C63.8799 36.664 63.9674 35.6139 63.9674 34.5639C63.9674 34.3889 63.9674 34.1264 64.1424 33.8639C64.2299 34.0389 64.3174 34.1264 64.3174 34.2139C64.3174 35.0014 64.3174 35.7014 64.2299 36.489C64.2299 36.7515 64.2299 37.014 64.1424 37.364C64.58 37.2765 64.9299 37.2765 65.1925 37.189C65.5425 36.2265 65.3675 35.2639 65.8925 34.3889C65.805 35.2639 65.7175 36.139 65.5425 37.014C66.2425 37.014 66.2425 37.014 66.33 36.5765C66.4175 36.139 66.4175 35.7014 66.505 35.2639C66.5925 35.0014 66.68 34.6514 66.68 34.3014C66.7675 34.3014 66.7675 34.3014 66.855 34.3014C66.7675 35.0889 66.68 35.8764 66.5925 36.664C67.03 36.7515 67.1175 36.5765 67.1175 36.314C67.205 35.7889 67.205 35.3514 67.2925 34.8264C67.2925 34.7389 67.38 34.5639 67.555 34.4764C67.4675 35.0889 67.4675 35.7014 67.38 36.489C68.4301 36.2265 69.3926 36.139 70.2676 35.8765C70.7926 35.7014 71.2301 35.5264 71.6677 35.2639C72.4552 34.9139 73.0677 34.3889 73.6802 33.7764C73.7677 33.6014 73.9427 33.5139 74.1177 33.4264C74.4678 33.2514 74.8178 33.1639 75.0803 32.9014C75.8678 32.2888 76.6553 31.5888 77.3553 30.8888C78.2304 30.1013 79.1054 29.3137 79.7179 28.3512C80.4179 27.2137 81.1179 26.0761 81.3805 24.7636C81.468 24.0636 81.3804 23.8011 80.8554 23.2761C80.2429 23.4511 79.8054 23.8011 79.3679 24.3261C78.4929 25.4636 77.7054 26.6887 76.7428 27.7387C75.7803 28.8762 74.8178 30.1013 73.3302 30.8013C73.2427 30.8888 73.0677 30.9763 72.9802 30.9763C71.9302 31.2388 70.8801 31.5013 69.8301 31.7638C68.5176 32.1138 67.205 31.7638 65.8925 31.3263C65.455 31.1513 65.1049 31.0638 64.6674 30.8888C64.9299 30.9763 64.7549 30.8013 64.7549 30.4513Z" fill="black"/>
<path d="M62.7389 60.4636C62.5639 60.3761 62.3889 60.3761 62.2139 60.2886C61.3388 59.676 60.4638 59.0635 59.5888 58.451C58.7137 57.8385 57.8387 57.226 57.1387 56.4385C57.0512 56.351 56.8762 56.2634 56.7012 56.0884C56.7012 56.2634 56.7012 56.4385 56.7012 56.526C56.9637 57.226 57.2262 57.926 57.6637 58.5385C57.8387 58.8885 58.3637 59.0635 58.7137 59.326C58.6262 59.501 58.6262 59.676 58.5387 59.8511C57.6637 61.2511 57.0512 62.7386 56.6137 64.3137C56.0887 66.0637 55.9137 67.9013 55.5636 69.6514C55.4761 70.1764 55.3011 70.7014 55.1261 71.2264C54.9511 71.6639 54.6886 71.9264 54.1636 72.0139C53.7261 72.1014 53.2886 72.1889 52.7636 72.2764C52.3261 72.3639 51.801 72.4514 51.3635 72.5389H51.276C50.3135 72.3639 49.351 72.5389 48.3884 72.1014C47.4259 71.5764 47.1634 70.6139 47.8634 69.6514C48.3884 68.9513 49.0884 68.4263 49.7885 68.0763C50.051 67.9013 50.3135 67.8138 50.4885 67.7263C50.926 67.4638 51.1885 67.2013 51.3635 66.6763C51.626 65.6262 52.151 64.6637 52.4135 63.6137C52.676 62.4761 52.7636 61.3386 52.5886 60.2011C52.5011 59.501 52.0635 59.151 51.5385 58.801C50.226 57.926 48.9134 57.051 47.6009 56.0884C47.3384 55.9134 47.0759 55.8259 46.9009 55.9134C46.8134 55.6509 46.7259 55.3884 46.6384 55.3009C46.2009 54.8634 45.8509 54.4259 45.3258 54.0759C44.9758 53.8134 44.8008 53.4634 44.8008 53.0258C44.8008 52.6758 44.7133 52.4133 44.6258 52.0633C44.6258 51.6258 44.4508 51.1883 44.1008 50.8383C43.6633 50.4008 43.5758 49.7882 43.4883 49.1757V49.0882C43.9258 48.6507 43.6633 48.0382 43.6633 47.6007C43.6633 47.6007 43.7508 47.5132 43.8383 47.5132C44.1883 47.8632 44.2758 48.3007 44.3633 48.7382C44.6258 49.6132 44.8008 50.4883 45.0633 51.3633C45.1508 51.6258 45.3258 51.8883 45.5008 52.1508C45.6758 52.3258 45.8508 52.5883 45.9383 52.7633C46.0258 52.9383 46.2009 53.0258 46.3759 53.2884C46.2884 53.4634 46.2009 53.6384 45.9383 53.9884C46.1134 54.1634 46.2884 54.3384 46.4634 54.5134C46.8134 54.1634 47.0759 53.9009 47.5134 53.5509C47.3384 54.1634 46.5509 54.5134 47.1634 55.1259C47.6009 54.7759 48.0384 54.4259 48.4759 54.0759L48.5634 54.1634C48.2134 54.4259 47.8634 54.7759 47.3384 55.1259C47.6884 55.3884 47.8634 55.6509 48.0384 55.8259C49.2634 56.6135 50.4885 57.401 51.7135 58.1885C51.8885 58.276 52.1511 58.3635 52.3261 58.451C52.8511 58.7135 52.8511 58.7135 52.7636 59.4135C52.7636 59.501 52.7636 59.5885 52.7636 59.676C53.1136 60.9886 52.9386 62.2136 52.6761 63.5262C52.5011 64.4012 52.1511 65.1887 51.8885 65.9762C51.801 66.2387 51.7135 66.5013 51.5385 66.8513C51.801 66.9388 52.0635 67.0263 52.4135 67.2013C52.2385 67.3763 52.0635 67.4638 51.976 67.5513C50.8385 67.9888 49.701 68.5138 48.7384 69.3888C48.5634 69.5639 48.3009 69.7389 48.2134 70.0014C47.6009 70.8764 47.9509 71.5764 49.176 71.9264C49.351 71.4889 49.526 71.0514 49.701 70.7014C49.7885 70.5264 49.7885 70.4389 49.876 70.2639C49.9635 70.0889 50.1385 70.0014 50.3135 70.0889C50.4885 70.2639 50.4885 70.4389 50.3135 70.6139C49.9635 71.0514 49.7885 71.4889 49.6135 72.1014C50.051 72.1014 50.3135 72.1889 50.576 72.1889C50.926 71.8389 50.576 71.2264 51.101 70.9639C51.1885 71.3139 51.1885 71.6639 51.276 72.0139C51.451 72.0139 51.7135 72.0139 51.976 72.0139C52.501 71.9264 53.0261 71.8389 53.5511 71.7514C53.9886 71.6639 54.1636 71.4889 54.4261 71.0514C54.7761 70.1764 54.8636 69.2138 55.0386 68.3388C55.3011 67.2888 55.4761 66.2387 55.6511 65.1012C55.6511 64.9262 55.6511 64.7512 55.6511 64.4887C54.8636 64.3137 54.3386 65.1012 53.5511 65.0137C54.1636 64.4012 54.9511 64.2262 55.7387 63.9637C56.3512 62.5636 56.9637 61.1636 57.5762 59.676C56.5262 58.976 56.0887 57.8385 55.8262 56.6135C55.8262 56.4384 55.6512 56.2634 55.7387 56.0884C55.9137 55.4759 55.4761 55.1259 55.2136 54.7759C54.3386 53.6384 53.2886 52.5883 52.501 51.4508C51.7135 50.3133 51.101 49.0007 50.401 47.6882C50.3135 47.6007 50.3135 47.5132 50.226 47.4257C49.7885 47.6007 49.7885 48.2132 49.176 48.2132C49.176 48.0382 49.0884 47.8632 49.0884 47.6882C49.0009 45.4131 49.2635 43.138 49.701 40.9505C49.7885 40.2505 49.9635 39.6379 50.051 38.9379C50.1385 38.6754 50.1385 38.4129 50.4885 38.1504C50.4885 38.4129 50.576 38.5879 50.576 38.6754C50.3135 40.4255 49.9635 42.263 49.701 44.0131C49.6135 44.7131 49.526 45.5006 49.526 46.2006C49.526 46.4631 49.526 46.7256 49.6135 47.1632C49.9635 46.9007 50.1385 46.7257 50.401 46.4631C50.6635 46.7257 50.8385 47.0757 51.0135 47.3382C51.7135 48.5632 52.326 49.7007 53.0261 50.9258C53.2011 51.2758 53.4636 51.5383 53.6386 51.8883C54.6011 53.2008 55.7387 54.4259 56.9637 55.5634C57.7512 56.351 58.7137 56.9635 59.5888 57.6635C60.5513 58.451 61.5138 59.326 62.4763 60.1136C62.5639 60.2011 62.5639 60.4636 62.6514 60.5511C62.9139 60.3761 62.8264 60.4636 62.7389 60.4636Z" fill="black"/>
<path d="M4.63594 8.48866C4.72344 8.48866 4.72345 8.48866 4.72345 8.48866C4.72345 8.48866 4.72344 8.48866 4.81094 8.40116C4.81094 8.31366 4.89845 8.22615 4.89845 8.22615C4.89845 8.05115 4.89845 7.87614 4.89845 7.70114C4.89845 7.35113 4.98596 7.00112 4.98596 6.65111V6.5636C4.98596 6.4761 5.07345 6.3011 5.07345 6.21359C5.07345 6.21359 5.07345 6.12609 5.07345 6.03859V5.95108C5.07345 5.86358 5.07346 5.77608 5.16096 5.77608C5.16096 5.68858 5.16096 5.60107 5.16096 5.60107C4.89845 5.68858 4.63594 5.77608 4.63594 6.12609C4.63594 6.82611 4.63594 7.61363 4.63594 8.31366C4.54844 8.31366 4.54844 8.40116 4.63594 8.48866Z" fill="black"/>
<path d="M16.2771 17.5873C16.0146 17.7623 15.8396 17.8498 15.6645 18.0248C14.877 18.5498 14.177 19.1623 13.3895 19.6873C12.8645 20.0374 12.2519 20.1249 11.7269 20.4749C10.9394 20.9999 10.0644 21.0874 9.18934 21.1749C9.10184 21.1749 9.01434 21.0874 9.01434 21.0874C8.92684 20.9124 8.92684 20.7374 8.83934 20.5624C8.66433 20.8249 8.57683 20.9124 8.40182 21.1749C8.40182 20.9124 8.40182 20.7374 8.31432 20.6499C8.31432 20.4749 8.31432 20.3874 8.22682 20.2124C8.31432 20.1249 8.31432 20.1249 8.40182 20.1249C8.48933 20.1249 8.57682 20.0373 8.75183 20.0373C10.8519 19.5123 12.602 18.5498 14.0895 17.0623C14.2645 16.8873 14.527 16.6247 14.6145 16.3622C14.877 15.8372 14.527 15.4872 14.002 15.4872C13.7395 15.4872 13.3895 15.5747 13.127 15.6622C11.3769 16.4497 9.53936 16.8873 7.7018 16.8873C6.91428 16.8873 6.12676 16.7122 5.42674 16.3622C5.16423 16.2747 4.90171 16.0997 4.63921 15.9247C4.2892 14.6997 4.2892 14.6997 4.02669 14.5247C4.02669 15.0497 4.02669 15.5747 3.93918 16.0997C3.85168 16.6247 3.50168 17.0623 3.23917 17.5873C2.80166 17.4998 2.45164 17.3248 2.45164 16.7998C2.36414 16.3622 2.36414 15.8372 2.45164 15.3997C2.53914 14.8747 2.71416 14.2622 3.23917 13.9122C3.50168 13.9997 3.85169 14.0872 4.1142 14.1747C4.98923 13.5622 5.68924 12.7746 5.68924 11.6371C5.68924 10.6746 5.42673 10.4121 4.4642 10.4121C4.11419 10.4121 3.85168 10.4121 3.32667 10.4121C5.16422 9.01201 7.00178 7.96198 7.78931 5.77441C7.5268 6.03692 7.17678 6.38693 6.82677 6.64944C6.38926 6.03692 5.86424 6.03692 5.25172 6.21193V6.29943C5.25172 6.47443 5.16423 6.56194 5.16423 6.64944V6.73694C5.16423 6.91195 5.25173 7.08695 5.33923 7.17446H6.38926C5.95175 7.61197 5.60174 8.04948 5.16423 8.31199C4.1142 9.18702 2.88916 9.88704 1.83912 10.8496C1.40161 11.2871 1.1391 11.7246 1.40161 12.3371C1.48911 12.5996 1.48912 12.9496 1.48912 13.2996C1.48912 13.6497 1.40161 14.0872 1.40161 14.4372C1.48911 15.2247 1.66411 15.9247 1.75162 16.7122C1.83912 17.1498 2.01413 17.4123 2.36415 17.6748C2.80166 18.0248 3.23916 18.0248 3.76418 18.0248C3.67668 19.2498 3.76418 19.8623 3.93918 20.3874C4.3767 21.3499 5.25172 21.6124 6.12675 20.9999C6.56426 20.6499 6.91428 20.2999 7.26429 19.9498C7.43929 19.7748 7.6143 19.7748 7.8768 19.9498C7.8768 20.2124 7.87681 20.4749 7.78931 20.8249C7.5268 20.8249 7.26428 20.9124 7.00178 20.9124C7.08928 21.2624 7.26429 21.2624 7.5268 21.2624C8.22682 21.2624 9.01434 21.2624 9.71437 21.1749C10.5894 21.0874 11.2894 20.6499 11.9894 20.3874C13.652 19.8623 14.877 18.7248 16.0146 17.5873C16.3646 17.7623 16.2771 17.7623 16.2771 17.5873ZM12.5144 17.3248C13.0395 16.9748 13.477 16.4497 14.0895 16.0122C14.177 16.4497 13.9145 16.6247 13.7395 16.7998C12.777 17.7623 11.6394 18.4623 10.9394 18.5498C11.3769 17.9373 11.9894 17.6748 12.5144 17.3248ZM7.26429 19.5998C6.91428 20.0373 6.56426 20.3874 6.12675 20.7374C5.51423 21.1749 4.98922 20.9999 4.72671 20.2999C4.3767 19.4248 4.5517 18.8123 5.25172 18.1998C5.51423 18.0248 5.77674 17.7623 6.21426 17.5873C6.03925 17.4998 5.95175 17.4123 5.95175 17.4123C5.86424 17.3248 5.86425 17.3248 5.77674 17.1498C6.30176 16.9748 6.73928 17.3248 7.17679 17.4123C7.70181 17.4123 8.13931 17.4998 8.75183 17.4998C8.66433 17.6748 8.66433 17.8498 8.57683 17.9373C8.05181 18.4623 7.7018 19.0748 7.26429 19.5998Z" fill="black"/>
<path d="M21.6158 17.5011C21.7908 17.3261 21.9658 17.0636 22.1408 16.8011C22.4033 16.5386 22.5784 16.3636 22.9284 16.1011C22.6659 15.8386 22.4033 15.5761 22.1408 15.3136C21.6158 15.4011 21.0908 15.5761 20.5658 15.6636C19.6908 15.8386 18.9907 15.4886 18.2907 15.0511C18.1157 14.9636 18.0282 14.7011 18.0282 14.6136C18.0282 14.0885 17.6782 13.826 17.3282 13.5635C16.8032 13.126 16.5407 12.601 16.3657 11.901C16.2782 11.726 16.2782 11.4635 16.1907 11.2009C15.8406 11.376 15.4906 11.551 15.1406 11.8135C15.2281 11.376 15.5781 11.2885 15.8406 11.2009C16.1907 11.1134 16.2782 10.9384 16.1907 10.5884C16.1907 10.5884 16.1032 10.5009 16.0157 10.5009C16.1032 10.2384 16.2782 10.0634 16.2782 9.80091C16.4532 8.66337 16.9782 7.61334 17.5032 6.65081C17.5032 6.56331 17.6782 6.56331 17.7657 6.56331C17.9407 6.91332 17.9407 7.17583 17.7657 7.43833C16.8907 8.83838 16.7157 10.4134 17.0657 12.076C17.8532 11.8135 18.2907 11.1134 19.0782 10.9384C18.8157 11.2009 18.4657 11.376 18.2032 11.6385C17.8532 11.901 17.5907 12.1635 17.2407 12.426C17.3282 13.0385 17.7657 13.3885 18.1157 13.7385C18.4657 14.0885 18.9032 14.351 18.7282 14.9636C19.4283 15.2261 20.0408 15.4886 20.7408 15.3136C21.4408 15.1386 21.8783 14.8761 22.1408 14.176C22.5784 13.0385 23.1909 11.9885 23.6284 10.8509C23.8909 10.2384 24.0659 9.6259 24.2409 9.01338C24.4159 8.31336 24.4159 7.52584 23.9784 6.82581C23.8909 6.73831 23.8909 6.65081 23.8909 6.56331C23.3659 4.81325 21.9658 3.93823 20.3033 3.50071C20.0408 3.41321 19.7783 3.41321 19.5158 3.32571C19.4283 3.32571 19.3408 3.1507 19.1658 3.0632C19.4283 2.9757 19.5158 2.8882 19.6033 2.9757C20.5658 3.23821 21.4408 3.41321 22.3158 3.93823C23.1034 4.37574 23.7159 4.98826 24.0659 5.77578C24.1534 5.95079 24.2409 6.2133 24.3284 6.3883C24.9409 7.35083 24.8534 8.40086 24.6784 9.36339C24.5909 9.97591 24.3284 10.5884 24.0659 11.1134C23.5409 12.3385 23.0159 13.5635 22.4909 14.7886C23.3659 15.9261 24.2409 17.0636 25.4659 17.9387C25.9035 17.5886 26.2535 17.8512 26.6035 18.2012C27.3035 18.8137 28.0035 19.4262 28.7036 20.0387C29.2286 20.5637 29.9286 20.5637 30.5411 20.8262C31.8536 21.3513 33.1662 21.4388 34.5662 21.5263C35.0912 21.6138 35.6162 21.6138 36.2288 21.6138C37.1913 21.7013 38.0663 21.4388 38.9414 21.2638C39.4664 21.1763 39.4664 21.1763 39.5539 21.7013C39.5539 21.9638 39.6414 22.1388 39.6414 22.4013C40.1664 22.5763 40.7789 22.4888 41.3914 22.4888C43.054 22.4013 44.804 22.3138 46.4666 22.1388C47.3416 22.0513 48.2166 21.8763 49.0917 21.7013C50.4917 21.4388 51.9793 21.4388 53.3793 21.6138C54.7793 21.7888 56.2669 21.8763 57.7544 21.9638C57.7544 22.1388 57.8419 22.3138 57.8419 22.5763C57.9294 22.5763 58.0169 22.6638 58.1044 22.7513C59.5045 23.2763 60.642 24.3263 61.6921 25.2889C62.3921 25.9889 62.9171 26.9514 63.4421 27.8265C63.8796 28.5265 64.2296 29.2265 64.5797 29.9265C64.6672 30.1015 64.7546 30.364 64.7546 30.6265C64.2296 30.4515 63.8796 30.014 63.7046 29.5765C63.3546 28.964 63.0921 28.264 62.7421 27.6515C62.1296 26.6889 61.4296 25.7264 60.5545 24.9389C60.0295 24.5014 59.5045 23.9763 58.892 23.6263C58.542 23.3638 58.1044 23.2763 57.7544 23.1013C57.4044 22.9263 57.1419 22.7513 56.7919 22.4888C56.4419 22.4888 56.0044 22.4013 55.5669 22.4013C54.6043 22.4013 53.6418 22.2263 52.5918 22.3138C50.5792 22.3138 48.6542 22.4888 46.6416 22.8388C46.2916 22.9263 46.0291 23.0138 45.7666 23.2763C45.5916 23.4513 45.4166 23.5388 45.154 23.7138C45.2416 23.5388 45.329 23.3638 45.5041 23.1013C45.329 23.1013 45.154 23.0138 44.979 23.0138C43.6665 23.1013 42.2665 23.1888 40.8664 23.3638C39.9039 23.4513 39.0289 23.3638 38.5038 22.4888C35.9663 22.3138 33.6037 22.0513 31.0661 21.8763C31.1536 22.2263 31.4161 22.4888 31.7661 22.6638C32.2912 22.9263 32.8162 23.2763 33.3412 23.5388C33.5162 23.6263 33.6037 23.7138 33.7787 23.8888C33.0787 23.8013 32.5537 23.6263 31.9411 23.2763C30.5411 22.5763 29.3161 21.5263 28.1785 20.3887C27.741 19.9512 27.216 19.5137 26.691 19.1637C26.341 18.9012 25.9035 18.7262 25.4659 18.5512C24.9409 18.3762 24.6784 18.0262 24.3284 17.6761C23.9784 17.3261 23.5409 16.8886 23.1034 16.5386C22.5784 16.7136 22.0533 17.0636 21.6158 17.5011Z" fill="black"/>
<path d="M33.9481 50.2258C34.3856 49.7883 34.9106 49.4383 35.3481 49.0008C36.0482 48.3882 36.7482 47.7757 37.5357 47.0757C37.7982 46.8132 37.9732 46.9882 38.2357 47.2507C38.7608 46.6382 39.2858 45.9382 39.8108 45.3257C39.5483 46.1132 38.8482 46.7257 38.4107 47.5132C38.9357 47.5132 39.2858 47.5132 39.6358 47.0757C40.0733 46.4632 40.4233 45.9382 41.2108 45.5007C40.7733 46.1132 40.4233 46.6382 39.9858 47.1632C40.2483 47.1632 40.4233 47.1632 40.5983 47.1632C43.1359 46.7257 45.6735 46.2882 48.211 45.8507C48.5611 45.7632 48.9111 45.7632 49.2611 46.2007C49.0861 46.2882 48.9986 46.2882 48.9111 46.3757C47.9485 46.5507 46.8985 46.5507 46.0235 46.8132C44.0984 47.3382 42.1734 47.5132 40.2483 47.9507C39.6358 48.1257 38.9358 48.2132 38.3232 48.3882C37.9732 48.4757 37.6232 48.4757 37.4482 47.9507C37.1857 48.1257 37.0107 48.3007 36.8357 48.4757C36.0482 49.1758 35.2606 49.8758 34.4731 50.5758C34.2981 50.7508 34.2106 51.0133 34.1231 51.1883C34.0356 51.3633 34.0356 51.5383 33.8606 51.6258C33.2481 51.8884 33.3356 52.4134 33.2481 52.8509C33.1606 53.8134 32.9856 54.7759 32.8981 55.651C32.8981 55.7385 32.8981 55.9135 32.9856 56.001C33.3356 56.351 33.2481 56.701 33.0731 57.1385C32.5481 59.0636 32.023 60.9011 31.5855 62.8262C31.2355 64.2262 31.0605 65.7138 30.7105 67.2013C30.5355 68.1639 30.273 69.1264 30.098 70.0889C29.923 70.7889 29.8355 71.5765 29.6605 72.2765C29.573 72.539 29.4855 72.714 29.398 72.9765C28.8729 72.8015 28.5229 73.1515 28.2604 73.414C27.9104 73.764 27.5604 73.939 27.1229 74.114C26.2479 74.464 25.2853 74.6391 24.4103 74.8141C23.8853 74.9016 23.3603 74.8141 22.9228 74.3765C22.5728 74.0265 22.0477 73.939 21.5227 73.764C21.5227 73.764 21.4352 73.589 21.4352 73.5015C21.3477 72.1015 22.3102 70.6139 23.5353 70.0889C23.9728 69.9139 24.4103 69.7389 24.8478 69.5639C25.3728 69.3889 25.8104 69.0389 25.9854 68.5139C25.9854 68.3389 26.1604 68.2514 26.3354 68.0763C26.4229 68.2514 26.5979 68.4264 26.5979 68.5139C26.4229 69.0389 26.2479 69.5639 25.7228 69.8264C25.1978 70.0014 24.7603 70.2639 24.2353 70.5264C23.2728 70.8764 22.6603 71.5765 22.3102 72.539C22.0477 73.239 22.1352 73.414 22.7478 73.764C22.9228 73.8515 23.0103 73.939 23.1853 73.939C23.2728 73.939 23.3603 73.939 23.5353 73.939C23.8853 73.1515 23.8853 72.1015 24.9353 71.664C24.9353 71.839 25.0228 72.014 25.0228 72.014C24.4978 72.539 24.5853 73.3265 24.0603 73.939C24.5853 74.3765 25.0228 74.289 25.4603 74.0265C25.6353 73.939 25.7228 73.589 25.8103 73.3265C25.8979 72.9765 25.9854 72.6265 26.4229 72.4515C26.8604 72.8015 26.3354 73.1515 26.4229 73.589C27.3854 73.8515 28.4354 73.3265 28.9605 72.189C28.6979 72.2765 28.5229 72.2765 28.2604 72.364C28.3479 72.2765 28.3479 72.189 28.3479 72.1015C28.9604 71.839 29.1355 71.2264 29.4855 70.7014C29.573 70.6139 29.4855 70.4389 29.4855 70.2639C28.9605 70.4389 28.6979 70.9639 27.9979 71.0514C28.2604 70.5264 28.6104 70.4389 28.9605 70.2639C29.398 70.0889 29.6605 69.8264 29.748 69.3014C30.0105 67.9013 30.273 66.5888 30.5355 65.1888C31.148 62.6512 31.7605 60.1136 32.3731 57.576C32.4606 57.3135 32.548 57.051 32.2855 56.7885C32.198 56.701 32.198 56.4385 32.2855 56.2635C32.4605 55.126 32.6356 53.9884 32.8106 52.7634C32.8106 52.5009 32.8981 52.2384 32.9856 52.0634C33.5106 50.1383 34.0356 48.3007 34.5606 46.3757C34.8231 45.5007 34.9981 44.7131 35.1731 43.8381C35.2606 43.5756 35.3482 43.3131 35.6982 43.2256C35.7857 43.4881 35.6982 43.8381 35.6107 44.1006C35.1731 45.7632 34.6481 47.5132 34.2106 49.2633C34.1231 49.6133 34.0356 49.9633 33.9481 50.3133C33.7731 50.1383 33.8606 50.1383 33.9481 50.2258Z" fill="black"/>
<path d="M3.23794 8.57526C3.23794 8.83777 3.15044 9.01278 3.15044 9.36279C2.53792 8.92527 2.62541 8.31276 2.62541 7.78774C2.62541 7.26272 2.71293 6.73771 2.80043 6.21269C2.80043 6.03769 2.88793 5.95018 2.80043 5.77518C2.53792 5.07516 2.97543 4.72515 3.41295 4.28763C4.28797 3.58761 5.338 2.97509 6.38803 2.45007C6.56304 2.36257 6.65054 2.27507 6.82555 2.18757C8.05058 1.48755 9.18812 0.787524 10.4132 0C10.7632 0.437513 11.0257 0.437515 11.4632 0.350012C12.7757 0.262509 14.0008 0.350011 15.3133 0.612519C16.0133 0.787525 16.7134 1.13754 17.4134 1.48755C17.8509 1.66255 18.2009 1.92506 18.6384 2.18757C18.7259 2.27507 18.8134 2.36257 19.0759 2.62508C18.4634 2.53758 18.1134 2.36257 17.6759 2.18757C17.2384 2.01256 16.8009 1.75005 16.3633 1.57505C15.4008 1.05003 14.2633 0.875027 13.2132 0.875027C12.4257 0.875027 11.5507 0.700022 10.7632 1.05003C10.6757 1.05003 10.6757 1.05003 10.5882 1.05003C9.88814 0.787525 9.36313 1.22504 8.83811 1.48755C8.13809 1.83756 7.52557 2.27507 6.91305 2.71258C6.47554 2.97509 5.95052 3.1501 5.51301 3.41261C4.81298 3.85012 4.20047 4.28763 3.58795 4.72515C3.50045 4.81265 3.32544 4.90015 3.32544 5.07515C3.23794 5.77518 3.15043 6.4752 3.06293 7.26272C3.41294 7.08772 3.67545 7.00021 4.02546 6.82521C3.93796 7.26272 3.58795 7.35023 3.41295 7.52523C3.15044 7.87524 2.97544 8.22525 3.23794 8.57526Z" fill="black"/>
<path d="M13.1227 26.0745C13.3852 25.8995 13.6477 25.812 13.8227 25.7245C13.9977 25.637 14.1727 25.3745 14.5227 25.5495C13.9977 25.8995 13.5602 26.162 13.1227 26.5121C13.0352 27.0371 13.0352 27.5621 12.9477 28.0871C12.9477 28.1746 12.9477 28.1746 12.9477 28.2621C13.3852 28.9621 13.0352 29.6621 13.0352 30.2747C12.9477 30.9747 12.8602 31.6747 12.6852 32.3747C12.5977 32.1997 12.5977 32.1122 12.5977 31.9372C12.5977 31.3247 12.5977 30.7997 12.6852 30.1872C12.6852 29.8372 12.8602 29.4871 12.5102 29.2246C12.4227 29.1371 12.4227 28.8746 12.5102 28.6996C12.8602 26.8621 12.8602 25.0245 12.4227 23.187C12.3352 22.9244 12.2477 22.6619 12.1602 22.3119C12.1602 22.2244 12.2477 22.0494 12.2477 21.9619C12.3352 22.0494 12.5102 22.0494 12.5977 22.1369C12.6852 22.2244 12.7727 22.3994 12.7727 22.5744C12.8602 23.4495 12.9477 24.412 13.1227 25.287C13.1227 25.5495 13.1227 25.7245 13.1227 26.0745Z" fill="black"/>
<path d="M12.3377 6.73682C12.6877 6.82432 12.9502 6.82432 13.2127 6.91182C13.4753 6.99933 13.5628 7.17433 13.5628 7.52434C13.5628 7.87435 13.3878 7.96186 13.2127 7.96186C12.7752 8.13686 12.2502 8.22436 11.8127 7.96186C11.6377 7.87435 11.4627 7.69935 11.4627 7.52434C11.3752 7.26183 11.6377 7.08683 11.8127 6.99932C11.9877 6.91182 12.2502 6.82432 12.3377 6.73682Z" fill="black"/>
<path d="M36.9258 34.3887C36.5758 33.4261 36.0508 32.4636 36.0508 31.4136C37.0133 32.2011 36.7508 33.4261 36.9258 34.3887Z" fill="black"/>
<path d="M44.8008 25.1142C44.8883 24.4142 45.8508 23.4517 46.9008 23.0142C46.2008 23.7142 45.5883 24.4142 44.8008 25.1142Z" fill="black"/>
<path d="M31.4149 34.5645C30.6274 35.2645 29.7524 35.9645 28.9648 36.6645C29.0523 36.052 30.0149 35.2645 31.4149 34.5645Z" fill="black"/>
<path d="M26.3398 55.0385C26.6899 54.3385 27.3024 53.9885 28.0024 53.8135C27.8274 53.901 27.6524 54.076 27.4774 54.1635C27.3024 54.3385 27.1274 54.426 26.9524 54.6885C26.7774 54.8635 26.6024 55.0385 26.5149 55.2135C26.4274 55.126 26.4273 55.0385 26.3398 55.0385Z" fill="black"/>
<path d="M28.6157 54.6025C28.0907 55.0401 27.4781 55.5651 26.9531 56.0026C27.3031 55.3026 27.9156 54.865 28.6157 54.6025Z" fill="black"/>
<path d="M54.4258 50.9258C54.5133 50.3133 55.0383 49.7883 55.9133 49.1758C55.3883 49.8758 54.8633 50.4008 54.4258 50.9258Z" fill="black"/>
<path d="M55.4766 65.4521C54.8641 65.7147 54.3391 65.9772 53.7266 66.3272C54.1641 65.7147 54.7766 65.4521 55.4766 65.4521Z" fill="black"/>
<path d="M14.2602 6.21359C13.8227 6.03859 13.4727 5.95108 13.0352 5.86358C13.2102 5.68858 13.2977 5.60107 13.3852 5.60107C13.7352 5.60107 14.0852 5.60107 14.2602 6.21359Z" fill="black"/>
<path d="M19.4266 11.9878C18.9016 12.3378 18.4641 12.6878 17.8516 13.0378C18.2016 12.4253 18.3766 12.2503 19.4266 11.9878Z" fill="black"/>
<path d="M45.2376 23.5391C44.7125 24.2391 44.275 24.6766 43.75 24.9391C44.1875 24.3266 44.625 23.8016 45.2376 23.5391Z" fill="black"/>
<path d="M5.59766 5.68747C6.03517 5.24996 6.38518 5.33746 6.82269 5.42496C6.47268 5.77497 6.12267 5.86247 5.59766 5.68747Z" fill="black"/>
<path d="M30.8014 36.1392C30.5389 36.5767 30.2764 36.9267 29.9264 37.3642C29.8389 36.7517 30.1014 36.4017 30.8014 36.1392Z" fill="black"/>
<path d="M21.5273 18.9011C21.9649 18.5511 22.4024 18.2011 22.8399 17.8511C22.8399 17.9386 22.9274 17.9386 22.9274 18.0261C22.4899 18.3761 22.0524 18.8136 21.6149 19.1636C21.6149 18.9886 21.5273 18.9011 21.5273 18.9011Z" fill="black"/>
<path d="M29.9274 34.2998C29.5774 34.8248 29.0524 35.1748 28.5273 35.6998C28.7899 35.1748 29.3149 34.6498 29.9274 34.2998Z" fill="black"/>
<path d="M27.0391 53.3777C27.5641 52.6777 27.8266 52.5901 28.6141 52.3276C28.0016 52.7652 27.5641 53.2027 27.0391 53.3777Z" fill="black"/>
<path d="M11.0274 47.3389C10.7649 47.6889 10.4149 48.0389 10.1523 48.3014C10.1523 47.7764 10.6774 47.6014 11.0274 47.3389Z" fill="black"/>
<path d="M15.4914 54.3379C15.2289 54.7754 14.9664 55.1254 14.4414 55.4754C14.7914 54.8629 14.9664 54.6879 15.4914 54.3379Z" fill="black"/>
<path d="M10.6758 48.9141C10.7633 48.3891 11.1133 48.2141 11.5508 48.0391C11.2008 48.3891 10.9383 48.6516 10.6758 48.9141Z" fill="black"/>
<path d="M9.89062 31.9368C10.1531 31.7618 10.5031 31.4993 10.7657 31.2368C10.7657 31.3243 10.8532 31.3243 10.8532 31.3243C10.5907 31.5868 10.3281 31.7618 9.97813 32.0243C9.97813 32.0243 9.97813 31.9368 9.89062 31.9368Z" fill="black"/>
<path d="M12.7735 63.8771C12.511 64.2271 12.1609 64.4896 11.8984 64.8396C11.9859 64.2271 12.4234 64.1396 12.686 63.7896C12.686 63.7896 12.7735 63.8771 12.7735 63.8771Z" fill="black"/>
<path d="M16.0102 10.4131C15.6602 10.6756 15.2227 10.9381 14.7852 11.2006C15.1352 10.6756 15.3977 10.5006 16.0102 10.4131Z" fill="black"/>
<path d="M6.91439 14.2637C6.73938 14.2637 6.56437 14.3512 6.38937 14.2637C6.30186 14.2637 6.21437 14.0887 6.30187 14.0012C6.30187 13.9137 6.47687 13.8262 6.56437 13.8262C6.73937 13.8262 6.82688 13.9137 7.00188 14.0012C6.91438 14.1762 6.91439 14.2637 6.91439 14.2637Z" fill="black"/>
<path d="M14.0883 26.7768C13.7383 26.9518 13.5633 27.0393 13.3008 27.2143C13.3883 26.6893 13.3883 26.6893 14.0883 26.7768Z" fill="black"/>
<path d="M48.9149 51.2773C48.7398 51.4523 48.4774 51.6274 48.2148 51.8024C48.4774 51.4523 48.4773 51.4523 48.9149 51.2773Z" fill="black"/>
<path d="M29.9258 34.3885C30.1883 34.126 30.4508 33.8635 30.6258 33.6885C30.5383 34.0385 30.2758 34.2135 29.9258 34.3885Z" fill="black"/>
<path d="M3.23828 8.66271C3.32578 8.13769 3.67579 8.2252 4.0258 8.2252C3.76329 8.3127 3.50079 8.4877 3.23828 8.66271Z" fill="black"/>
<path d="M56.0008 50.839C55.8258 51.014 55.5633 51.189 55.3883 51.364L55.3008 51.2765C55.4758 51.1015 55.6508 50.9265 55.9133 50.7515C55.9133 50.7515 55.9133 50.7515 56.0008 50.839Z" fill="black"/>
<path d="M10.8469 30.4504C10.6719 30.6254 10.4969 30.7129 10.3219 30.8879C10.3219 30.8004 10.2344 30.8004 10.2344 30.7129C10.4094 30.5379 10.5844 30.4504 10.7594 30.2754C10.7594 30.3629 10.7594 30.3629 10.8469 30.4504Z" fill="black"/>
<path d="M21.6102 17.4131C21.4352 17.6756 21.2602 17.8506 20.9102 17.9381C21.0852 17.7631 21.2602 17.5006 21.6102 17.4131Z" fill="black"/>
<path d="M8.13937 13.6504C8.22687 13.7379 8.31437 13.8254 8.31437 13.9129L8.22687 14.0879C8.13937 14.0879 8.05187 14.0004 8.05187 13.9129C7.96437 13.9129 8.05186 13.8254 8.13937 13.6504Z" fill="black"/>
<path d="M56.4375 48.7391C56.525 48.6516 56.7 48.5641 56.7875 48.4766C56.7875 48.4766 56.7875 48.5641 56.875 48.5641C56.7 48.6516 56.6125 48.7391 56.4375 48.8266C56.4375 48.8266 56.4375 48.8266 56.4375 48.7391Z" fill="black"/>
<path d="M7 15.4001C7.17501 15.3126 7.17501 15.2251 7.26251 15.2251C7.35001 15.2251 7.43751 15.3126 7.43751 15.4001C7.43751 15.4876 7.35001 15.5751 7.26251 15.5751C7.17501 15.5751 7.0875 15.4876 7 15.4001Z" fill="black"/>
<path d="M56.3516 50.2265C56.4389 50.1391 56.5263 50.0518 56.6137 50.0518C56.6137 50.0518 56.6137 50.1391 56.701 50.1391C56.6137 50.2265 56.5263 50.3139 56.4389 50.4012C56.4389 50.3139 56.3516 50.3139 56.3516 50.2265Z" fill="black"/>
<path d="M4.72266 19.6875C5.07267 19.25 5.33517 19.25 5.77269 19.25C5.42268 19.6 5.16017 19.6 4.72266 19.6875Z" fill="black"/>
<path d="M5.86119 6.82463C5.86119 6.912 5.77381 6.99936 5.68645 6.99936C5.59908 6.99936 5.51172 6.912 5.51172 6.82463C5.51172 6.73726 5.59908 6.6499 5.68645 6.6499C5.77381 6.6499 5.86119 6.73726 5.86119 6.82463Z" fill="white"/>
<path d="M12.162 7.34954C12.162 7.4369 12.0746 7.52427 11.9872 7.52427C11.8999 7.52427 11.8125 7.4369 11.8125 7.34954C11.8125 7.26217 11.8999 7.1748 11.9872 7.1748C12.0746 7.1748 12.162 7.26217 12.162 7.34954Z" fill="white"/>
<path d="M2.88516 11.7255C2.97266 11.638 3.06017 11.638 3.23518 11.5505C3.32268 11.5505 3.49769 11.5505 3.67269 11.5505H3.76019C4.0227 11.5505 4.28521 11.5505 4.46021 11.7255C4.54771 11.7255 4.54771 11.7255 4.63521 11.7255C4.63521 11.638 4.63522 11.5505 4.54772 11.5505C4.28521 11.3755 4.0227 11.3755 3.67269 11.3755H3.58519C3.41018 11.3755 3.32268 11.3755 3.14767 11.3755C2.97267 11.3755 2.79766 11.463 2.71016 11.5505C2.62266 11.5505 2.62266 11.638 2.71016 11.7255C2.79766 11.7255 2.79766 11.813 2.88516 11.7255Z" fill="white"/>
<path d="M0 58.5389C0.175005 58.4514 0.350011 58.3639 0.437513 58.2764C0.437513 58.2764 0.437519 58.3639 0.525021 58.3639C0.350016 58.4514 0.175005 58.4514 0 58.5389Z" fill="black"/>
</svg>
