<svg width="74" height="83" viewBox="0 0 74 83" fill="none" xmlns="http://www.w3.org/2000/svg">
<path d="M5.90779 37.2391C6.44637 38.0085 7.21579 38.6241 7.60049 39.5474C8.29295 41.24 7.0619 43.1636 7.0619 45.0101C7.0619 47.1645 8.52377 48.9341 9.524 50.8576C13.0633 57.4745 10.755 65.6302 11.9861 73.0164C12.14 74.0167 12.3708 75.0169 12.2169 75.9402C12.063 76.8635 11.5244 77.6329 11.2167 78.5561C10.9089 79.4794 10.9089 80.5566 11.6783 81.0952C12.5247 81.7876 13.9096 81.326 14.5251 80.4797C15.1406 79.5564 15.2945 78.4792 15.2945 77.3251C15.4484 74.0936 15.2945 70.8621 15.6792 67.7076C16.0639 64.553 17.1411 61.3215 19.3724 58.9363C20.4495 59.8596 20.4495 61.4754 20.3726 62.8603C20.2187 66.6304 20.0648 70.4774 19.911 74.2475C19.911 75.2477 19.834 76.4018 19.1416 77.2482C18.8338 77.6329 18.3722 77.9406 18.0644 78.4023C17.218 79.7872 18.9107 81.7107 20.6034 81.4799C22.2192 81.2491 23.3733 79.5564 23.681 77.9406C23.9888 76.3249 23.758 74.6322 23.8349 72.9395C24.0657 67.9384 27.2203 63.0142 25.9123 58.1669C29.7593 58.7825 33.8372 58.1669 37.2995 56.3204C38.0689 58.1669 36.4531 60.3982 37.2995 62.1678C37.7611 63.0911 38.6844 63.5528 39.6077 64.0144C41.9159 65.1685 44.301 66.3226 46.6093 67.4767C46.917 67.6306 47.3017 67.7845 47.4556 68.1692C47.6864 68.6308 47.4556 69.0925 47.2248 69.5541C45.8399 72.247 44.0702 74.7091 41.9928 76.8635C41.6851 77.1712 41.3773 77.5559 41.3004 77.9406C41.2234 78.8639 42.5314 79.2486 43.4547 79.3256C45.1474 79.4025 46.8401 79.4794 48.5328 79.4794C49.6869 76.7096 51.2257 74.0936 53.1492 71.7085C55.6882 72.1701 58.1503 72.8626 60.5355 73.7858C62.459 74.4783 64.5364 75.5555 64.998 77.479C65.3827 78.9408 64.7672 80.7105 65.6135 81.9415C66.306 82.9417 67.8448 83.0956 68.8451 82.4801C69.8453 81.8646 70.3839 80.4797 70.23 79.3256C70.153 78.4792 69.6914 77.6329 69.6145 76.7865C69.4606 74.6322 71.0763 72.9395 72.6921 71.4776C70.6916 71.3237 68.3065 70.939 67.2293 69.2464C66.7677 68.5539 66.5368 67.6306 66.1521 66.8612C65.3827 65.6302 64.0748 64.8608 63.0745 63.7836C60.9202 61.3984 60.9971 57.9361 60.7663 54.7816C60.5355 51.1654 59.843 47.6261 58.6889 44.1638C58.1503 42.548 57.5348 40.9323 56.3038 39.7782C55.3035 38.778 53.9186 38.1624 52.6106 37.6238C48.3789 35.8542 43.9933 34.4693 39.4538 33.546C35.8376 32.7766 32.1445 32.315 28.836 30.6223C25.5276 28.9296 22.6808 25.852 22.6808 22.1588C22.6808 20.2353 23.3733 18.3118 22.9886 16.4652C22.6808 14.9264 21.6036 13.6184 21.0651 12.0796C19.834 8.54037 21.5267 4.00088 18.9107 1.38491C16.1409 1.69267 14.756 4.84723 13.8327 7.4632C12.14 8.69425 9.98563 6.92462 8.6007 5.23193C7.52354 3.847 6.36944 2.46208 5.29228 1.07715C4.13817 2.6929 2.90711 4.46253 2.75323 6.46298C2.59935 9.54059 5.06145 12.4643 4.44593 15.465C4.06122 17.2346 2.75323 18.6196 1.67607 20.0814C0.598902 21.5433 -0.247438 23.5437 0.598907 25.1595C3.13794 25.1595 7.29273 24.467 6.44638 28.3141C5.83086 31.3917 3.75346 34.1615 5.90779 37.2391Z" fill="white"/>
<path d="M5.9814 31.6982C5.75058 32.6215 5.44283 33.6217 5.75059 34.622C6.51999 34.8528 7.21246 34.0064 7.6741 33.3909C8.8282 31.929 10.367 30.8519 11.598 29.467C12.8291 28.082 13.7524 26.1585 13.1368 24.3889C12.983 23.9272 12.7522 23.5425 12.5213 23.1578C12.4444 23.004 12.2905 22.7731 12.0597 22.6962C11.8289 22.6193 11.5981 22.6962 11.4442 22.8501C10.1362 23.5425 7.6741 24.235 6.90469 25.6199C6.51999 26.3893 6.59693 27.3896 6.51999 28.159C6.51999 29.39 6.21222 30.5441 5.9814 31.6982Z" fill="#BCBCBB"/>
<path d="M6.59899 8.92585C6.36817 8.92585 6.13736 8.92585 5.98348 8.84891C5.75265 8.69503 5.67571 8.46421 5.59877 8.23339C5.13713 6.84846 4.82937 5.30965 4.90631 3.84778C4.90631 3.6939 4.9063 3.46308 5.06018 3.3092C5.291 2.9245 5.98348 2.9245 6.36818 3.23226C6.75288 3.54002 6.98371 4.00166 7.29147 4.38637C7.98394 5.23271 9.59967 5.61741 9.67661 6.84846C9.59967 8.23339 7.67616 8.84891 6.59899 8.92585Z" fill="#BCBCBB"/>
<path d="M19.9055 73.0919C21.2905 71.8609 22.2137 70.1682 22.6754 68.3986C23.137 66.6289 23.2909 64.7824 23.4448 62.9358C23.5217 61.7047 24.0603 58.0885 22.2137 57.9347C20.7519 57.7808 20.598 59.7812 20.4441 60.7815C20.1363 62.7819 19.7516 64.7824 19.6747 66.8597C19.5977 67.6292 20.2133 72.7842 19.9055 73.0919Z" fill="#BCBCBB"/>
<path d="M12.6008 70.17C12.8316 71.1702 13.0624 72.2474 13.2932 73.3245C14.2165 71.0163 14.4474 68.5542 14.5243 66.0921C14.6012 64.7072 14.6012 63.2453 14.2935 61.8604C13.9857 60.5524 13.2163 58.0903 12.1391 57.244C10.5234 56.0129 10.6773 58.0903 10.7542 59.2444C11.062 62.8606 11.8314 66.4768 12.6008 70.17Z" fill="#BCBCBB"/>
<path d="M41.1467 64.9371C41.5314 64.9371 41.9161 64.7832 42.2239 64.7063C45.4554 63.783 48.8407 64.9371 51.7645 66.5529C50.5334 64.0908 49.3024 61.6287 48.0713 59.0896C47.6866 58.3202 47.0711 57.3969 46.1478 57.5508C45.7631 57.6278 45.4553 57.9355 45.1476 58.0894C44.8398 58.2433 44.3012 58.3202 44.0704 58.0894C43.9935 57.9355 43.9166 57.7816 43.8396 57.6278C43.5319 57.0122 42.6855 56.8584 42.07 57.0892C41.5314 57.0892 40.8389 57.9355 40.5312 58.2433C40.5312 58.0125 40.3773 57.7816 40.3773 57.5508C39.8387 57.6278 39.3771 57.8586 38.9924 58.2433C38.9924 58.0125 38.8385 57.7816 38.7615 57.6278C36.1456 59.3205 38.3768 65.014 41.1467 64.9371Z" fill="#BCBCBB"/>
<path d="M62.7661 70.3989C62.92 70.5527 63.1508 70.7066 63.2277 70.9374C63.3047 71.0913 63.3816 71.3221 63.3816 71.553C63.4586 72.0146 63.4585 72.4763 63.5355 72.9379C63.5355 73.0918 63.5355 73.2457 63.5355 73.4765C63.4585 73.7073 63.1508 73.8612 62.843 73.9381C61.7659 74.1689 60.7656 73.7842 59.7654 73.3995C57.5341 72.3224 53.0716 68.7062 53.5332 65.8594C54.9182 65.8594 56.8417 67.3212 58.1497 67.8598C59.8424 68.4754 61.3812 69.3217 62.7661 70.3989Z" fill="#BCBCBB"/>
<path d="M36.0664 31.929C39.5287 33.314 43.1449 34.4681 46.838 35.3914C46.4533 35.9299 45.6839 36.0069 44.9915 36.0838C43.1449 36.1608 41.2983 36.1608 39.4517 36.1608C37.7591 36.1608 36.0664 36.1608 34.5276 35.6991C32.9888 35.2375 31.5269 34.4681 30.2958 33.4679C29.6803 33.0062 26.7566 31.0058 26.8335 30.2364C27.1413 28.159 35.0661 31.5443 36.0664 31.929Z" fill="#BCBCBB"/>
<path d="M20.8355 5.6925C21.2971 7.00049 21.0663 8.46235 20.8355 9.84728C20.8355 10.0012 20.7585 10.232 20.6047 10.3089C20.4508 10.3859 20.2969 10.4628 20.143 10.3859C19.3736 10.232 19.1428 9.3087 19.0658 8.53929C18.9889 7.38519 18.912 6.30802 18.9889 5.15392C18.9889 4.38451 19.0659 3.30735 19.6044 2.8457C19.9891 3.61511 20.5277 4.84615 20.8355 5.6925Z" fill="#BCBCBB"/>
<path d="M42.5308 78.9406C42.3 78.9406 41.9922 78.9406 41.7614 78.7867C41.6075 78.6329 41.6075 78.479 41.5306 78.3251C41.2998 77.7096 41.1459 76.8632 41.6075 76.4016C41.9153 76.0938 42.4539 76.0169 42.9155 76.0169C44.3004 75.9399 45.7623 75.9399 47.1472 75.9399C48.6091 75.9399 47.9166 77.7865 47.1472 78.2482C45.9931 78.9406 43.9157 78.9406 42.5308 78.9406Z" fill="#BCBCBB"/>
<path d="M27.2187 53.3953C27.4495 54.3186 27.6804 55.2419 27.9112 56.1652C27.9881 56.5499 28.0651 56.8576 27.9881 57.2423C27.8342 57.9348 27.2187 58.3964 26.6032 58.6273C25.603 59.012 25.4491 58.7811 24.6797 58.0117C23.6794 57.0115 22.9101 56.1652 23.3717 54.7802C23.7564 53.7031 24.5258 51.9334 25.2183 51.0102C26.6032 49.0097 26.911 52.1643 27.2187 53.3953Z" fill="#BCBCBB"/>
<path d="M47.839 39.8546C48.6084 38.7775 49.7625 38.3158 50.7627 37.5464C50.378 37.3926 50.1472 37.2387 49.8394 37.0848C48.9931 37.7773 48.2237 38.4697 47.2235 39.3161C47.3004 38.7775 47.6082 38.6236 47.839 38.4697C48.1467 38.2389 48.3776 38.0081 48.6853 37.7773C48.9161 37.5464 49.147 37.3156 49.4547 37.0848C49.147 36.6231 48.6853 36.5462 48.3006 36.3923C46.9926 35.9307 45.6846 35.546 44.3767 35.1613C44.0689 35.0843 43.7611 35.0074 43.4534 35.0074C42.9148 34.8535 42.3762 34.6996 41.9915 34.238C42.0684 34.0841 42.0684 33.9302 42.1454 33.7764C42.0684 33.7764 41.9915 33.6994 41.9146 33.6994C40.7605 33.5455 39.6063 33.4686 38.5292 33.1608C37.1442 32.8531 35.8363 32.3914 34.5283 32.0067C32.1431 31.3143 29.8349 30.6218 27.4498 29.8524H27.3728C26.6804 30.0063 26.2957 29.5446 25.9879 29.083C25.4493 28.2366 24.9107 27.3903 24.3721 26.544C24.1413 26.1593 23.9875 25.8515 23.7566 25.3898C22.8333 26.0054 21.91 26.6209 21.2176 27.4672C21.2176 27.4672 21.1407 27.3903 21.0637 27.3903C21.1407 27.2364 21.1406 27.0825 21.2176 27.0056C21.8331 26.544 22.3717 26.0823 22.9872 25.6207C23.218 25.4668 23.3719 25.3129 23.6797 25.159C23.5258 24.6974 23.295 24.3127 23.1411 23.851C22.7564 22.6969 22.3717 21.6198 22.0639 20.4657C21.9101 20.004 21.987 19.4654 21.987 19.0038C21.987 18.4652 22.0639 18.4652 22.7564 18.4652C22.7564 18.3113 22.6795 18.1574 22.6795 18.0036C22.2178 16.7725 21.7562 15.5415 21.3715 14.2335C21.0637 13.0794 20.9098 11.9253 20.679 10.7712C20.6021 10.3865 20.5251 10.0018 20.3713 9.61706C20.2943 9.23236 20.1404 8.84766 20.0635 8.46296C19.9865 8.1552 20.0635 7.84743 20.0635 7.53967C20.3712 7.53967 20.6021 7.53967 20.8329 7.61661C20.8329 6.0778 19.2941 2.15384 18.14 0.845856C17.6014 1.07668 17.2167 1.53832 16.832 1.99996C16.2934 2.76937 15.8318 3.53877 15.2932 4.23123C15.1393 4.46206 14.9085 4.69288 14.7546 5.00064C14.6007 5.38534 14.4468 5.77004 14.3699 6.23169C14.2929 6.53945 14.3699 6.84721 14.3699 7.15497C14.3699 7.53967 14.3699 7.84743 14.7546 8.1552C14.8315 8.23214 14.8315 8.30908 14.8315 8.46296C14.0621 8.61684 13.4466 8.46296 12.8311 8.30908C12.1386 8.15519 11.3692 8.30908 10.9076 7.77049C9.98429 7.84743 9.52265 8.61684 8.6763 9.00154C8.90713 8.23213 9.52266 8.00131 9.9843 7.61661C9.2149 6.15474 8.36854 4.76982 7.1375 3.61571C6.59891 3.07713 6.06032 2.4616 5.52174 1.92302C5.29092 2.30772 5.0601 2.61549 4.75234 3.00019C3.75211 4.61594 2.98272 6.38557 3.05966 8.38602C3.05966 8.61684 3.05965 8.9246 3.21353 9.15542C3.59823 9.694 3.75211 10.3865 3.98293 11.002C4.44458 12.4639 4.59845 13.9257 4.29069 15.3876C4.13681 15.9262 4.05987 16.4648 3.90599 17.0033C4.52151 16.8495 4.82928 16.5417 5.21398 16.157C4.52152 15.6954 4.36765 15.3876 4.52153 15.0029C4.67541 14.5412 4.98317 14.3104 5.36788 14.2335C5.9834 14.1565 6.06032 14.6182 6.2142 15.1568C6.75278 14.6182 6.82972 13.7718 7.36831 13.2333C7.44525 13.3871 7.44525 13.4641 7.44525 13.541C7.06055 14.926 6.36809 16.0801 5.21398 16.8495C4.44458 17.388 3.67518 17.8497 2.90577 18.3883C2.52107 18.6191 2.13638 18.8499 1.90556 19.3885C2.13638 19.4654 2.36719 19.5424 2.52107 19.5424C3.13659 19.5424 3.44436 19.9271 3.67518 20.3887C3.906 20.9273 3.67518 21.312 3.29047 21.6967C2.90577 22.0814 2.67496 22.5431 2.21331 22.7739C1.98249 22.8508 1.90555 23.2355 1.75167 23.5433C1.67473 23.3894 1.52085 23.3125 1.44391 23.2355C1.05921 22.6969 0.75145 22.1583 0.366748 21.6198C0.212867 21.3889 0.135908 21.1581 0.0589677 20.9273C-0.0949132 20.4657 0.0589676 20.2348 0.44367 19.9271C0.751431 19.6963 1.0592 19.3885 1.29002 19.0807C1.59778 18.773 1.9825 18.4652 2.29026 18.1574C2.52108 17.9266 2.75189 17.7727 2.82883 17.388C2.98271 16.4648 3.29047 15.6184 3.52129 14.6951C3.67517 13.9257 3.67517 13.0794 3.52129 12.31C3.44435 12.0792 3.36742 11.8483 3.36742 11.6175C3.36742 11.1559 3.05964 10.7712 2.75188 10.3865C2.44412 10.1556 2.29024 9.92482 2.44413 9.46318C2.52107 9.23236 2.21331 8.84766 2.13637 8.61684C2.21331 8.15519 2.29024 7.69355 2.36718 7.23191C2.52106 5.92392 2.82883 4.61594 3.59823 3.53877C3.82905 3.15407 3.98294 2.76937 4.13682 2.38466C4.44459 1.6922 4.6754 0.999737 5.13704 0.384214C5.52174 0.461154 5.59869 0.768915 5.67563 0.999736C5.98339 1.84608 6.59892 2.4616 7.21444 3.07713C8.13773 4.00041 9.06102 4.9237 9.5996 6.0778C9.75348 6.46251 10.0612 6.84721 10.2921 7.23191C10.5998 7.15497 10.8306 7.07803 11.1384 7.00109C11.677 7.84743 12.6003 7.61661 13.4466 7.69355C13.5236 7.15497 13.6005 6.61639 13.6774 6.15474C13.8313 5.53922 13.9083 4.9237 14.0621 4.30818C14.0621 4.23123 14.1391 4.07735 14.1391 4.00041C14.7546 3.69265 14.9085 3.07713 15.2932 2.61549C15.6779 2.15384 15.9856 1.6922 16.3703 1.23056C16.5242 0.999737 16.755 0.845856 16.9859 0.691975C17.2936 0.461154 17.6783 0.230333 18.063 -0.000488281C18.3708 -0.000488281 18.5247 0.307273 18.6786 0.615034C19.1402 1.38444 19.5249 2.23078 19.9866 3.00019C20.1404 3.30795 20.2174 3.61571 20.2943 3.92347C20.679 5.23146 21.1407 6.46251 21.5254 7.77049C21.5254 7.84743 21.5254 7.92437 21.5254 8.07825C21.0637 8.30908 20.756 7.84743 20.3713 7.92437C20.3713 8.61684 20.6021 9.15542 20.8329 9.694C21.0637 10.2326 21.2176 10.8481 21.1407 11.4636C21.0637 12.233 21.2176 13.0794 21.5254 13.8488C22.2178 15.7723 22.9103 17.6958 23.6797 19.6193C23.7566 19.8501 23.9875 20.1579 23.7566 20.4657C23.1411 20.2348 22.9872 19.6193 22.5256 19.1577C22.4486 19.3885 22.4486 19.5424 22.4486 19.6193C22.5256 20.5426 22.7564 21.3889 23.0642 22.1584C23.7566 24.0049 24.4491 25.8515 25.5263 27.6211C25.5263 27.6981 25.6032 27.775 25.6032 27.8519C25.9879 28.3905 26.3726 28.8522 27.0651 29.083C27.9883 29.3138 28.9116 29.6216 29.9119 29.8524C30.7582 30.0063 31.5276 30.314 32.3739 30.5449C32.9125 30.6987 33.4511 30.8526 33.9128 31.0065C34.2205 31.0834 34.5283 31.1604 34.7591 31.3143C36.144 31.9298 37.6828 32.3145 39.1447 32.5453C40.4527 32.6992 41.8376 32.7761 43.1456 32.93C43.5303 32.93 43.992 33.0069 44.3767 33.0839C44.4536 33.0839 44.6075 33.2378 44.6844 33.2378C44.4536 33.9302 43.6842 33.7764 43.2225 34.1611C43.4534 34.238 43.6073 34.3149 43.7611 34.3149C45.6077 34.9305 47.3773 35.469 49.2239 36.0076C49.6086 36.1615 50.0702 36.1615 50.5319 36.3154C51.9168 36.854 53.2248 37.3156 54.4558 38.2389C55.2253 38.8544 56.0716 39.393 56.918 39.9316C57.8412 40.5471 58.3029 41.5473 58.6876 42.4706C58.9953 43.1631 59.1492 44.0094 59.3031 44.7788C59.38 45.2405 59.38 45.7021 59.38 46.1638C59.457 46.9332 59.457 47.7795 59.5339 48.5489C59.6878 49.8569 59.8417 51.2418 59.9186 52.5498C59.9186 52.7037 59.9186 52.8576 59.9186 53.0115C59.8417 54.7041 60.1494 56.3199 60.688 57.9356C60.765 58.3203 60.9188 58.705 60.9958 59.0897C61.0727 59.5514 61.0727 59.6283 60.5341 59.7053C60.4572 59.7053 60.4572 59.7053 60.3803 59.7053C60.3803 59.7053 60.3033 59.7053 60.2264 59.7822C60.3033 59.9361 60.3033 60.1669 60.4572 60.3208C61.5344 61.7057 62.5346 63.0906 63.8426 64.2448C64.5351 64.8603 65.1506 65.4758 65.843 66.0144C66.0738 66.2452 66.3816 66.3991 66.6894 66.6299C66.3816 66.9377 66.0738 66.8607 65.92 66.6299C65.4583 66.2452 64.9197 65.8605 64.4581 65.4758C63.9965 65.0911 63.6118 64.6295 63.0732 64.1678C62.1499 63.3984 61.5344 62.3982 60.765 61.5518C60.3033 61.0133 59.9186 60.3977 59.5339 59.7822C59.457 59.6283 59.457 59.3975 59.457 59.2436C59.6109 59.2436 59.7647 59.1667 59.9956 59.1667C60.1494 59.1667 60.2264 59.1667 60.3803 59.1667C60.6111 58.8589 60.3803 58.5512 60.3803 58.3203C60.1494 57.1662 59.8417 56.0121 59.6109 54.858C59.6109 54.7041 59.6109 54.5503 59.5339 54.3964C59.457 53.1653 59.457 51.9343 59.38 50.7802C59.38 50.6263 59.38 50.5494 59.38 50.3955C59.2262 49.2414 59.0723 48.1642 58.9184 47.0101C58.8414 46.4715 58.9184 45.9329 58.9184 45.3944C58.9184 43.9325 58.3798 42.6245 57.6874 41.3935C57.3796 40.8549 56.841 40.6241 56.3794 40.3163C55.533 39.8546 54.6097 39.5469 53.8403 39.0083C53.0709 38.4697 52.1476 38.162 51.3013 37.7003C50.9166 37.5464 50.6858 37.5464 50.378 37.7773C49.5317 38.3928 48.6084 38.8544 47.9159 39.7008C48.1467 39.8546 48.0698 39.8546 47.839 39.8546ZM5.52174 1.07668C5.21398 1.23056 5.13704 1.46138 5.13704 1.84608C5.4448 1.61526 5.67562 1.46138 5.52174 1.07668ZM3.13658 20.3887C3.21352 20.5426 3.21353 20.6965 3.21353 20.7734H3.29047C3.44436 20.6195 3.44435 20.4657 3.13658 20.3887Z" fill="black"/>
<path d="M63.9975 75.0157C63.7667 75.1696 63.6898 75.2465 63.5359 75.3235C63.6898 75.4004 63.9206 75.4774 64.1514 75.5543C63.9206 76.0929 63.5359 76.4006 62.9973 76.2468C62.3048 76.1698 61.6124 76.0159 60.9199 75.8621C60.3044 75.7082 59.7658 75.4774 59.2272 75.3235C58.3809 75.0927 57.6884 74.5541 56.919 74.0155C55.9957 73.323 55.0724 72.6306 54.38 71.6303C54.303 71.4765 54.1492 71.3995 53.9953 71.1687C53.9183 71.4765 53.7645 71.7842 53.6875 72.092C53.5336 72.092 53.3028 72.092 53.072 72.015C52.6104 72.7075 52.0718 73.4769 51.6101 74.2463C51.3793 74.708 51.0715 75.0157 50.6099 75.0927C50.3791 75.1696 50.2252 75.3235 50.0713 75.4774C49.5327 76.2468 48.8403 76.8623 48.4556 77.7856C48.3786 77.9394 48.2248 78.0164 48.0709 78.0933C47.0707 78.478 46.0704 78.8627 44.9933 79.1705C43.8392 79.4783 42.9159 79.1705 41.9156 78.9397C41.6079 78.8627 41.3001 78.555 41.1462 78.2472C40.7615 77.5548 41.0693 76.4006 41.6848 75.939C42.2234 75.5543 42.8389 75.2465 43.4545 75.0157C44.1469 74.7849 44.6086 74.3233 44.9163 73.7077C45.6857 72.4767 46.3012 71.1687 46.8398 69.7838C46.9168 69.476 46.9937 69.1682 47.1476 68.8605C47.2245 68.7066 47.3015 68.6297 47.4553 68.3219C47.5323 68.5527 47.6092 68.7066 47.6092 68.8605C47.5323 69.2452 47.4554 69.6299 47.3015 70.0146C46.8398 71.3995 46.1473 72.7075 45.4549 74.0155C45.301 74.2463 45.301 74.631 45.2241 75.0157C45.2241 75.0157 45.0702 75.0927 44.8394 75.0927C44.07 75.2465 43.3775 75.5543 42.685 75.8621C41.8387 76.3237 41.6079 76.7853 41.7618 77.9395C41.9156 77.8625 41.9926 77.7856 42.1465 77.7086C42.4542 77.4009 42.685 77.0931 42.9928 76.8623C43.3006 76.6315 43.3775 76.7084 43.6083 77.0931C43.3775 77.247 43.1467 77.4009 42.9159 77.6317C42.685 77.8625 42.5312 78.0933 42.3003 78.4011C42.9159 78.7089 43.3775 78.7089 43.9161 78.7858C44.3777 78.478 44.3008 77.6317 45.1471 77.6317C44.9932 78.0164 44.8394 78.2472 44.6855 78.6319C45.2241 78.7089 45.6857 78.6319 46.1474 78.478C46.6859 78.3242 47.2245 78.0164 47.7631 77.7856C47.84 77.7086 47.917 77.6317 47.9939 77.5547C48.6864 76.6315 49.3788 75.6312 50.0713 74.708C50.3021 74.4002 50.533 74.1694 50.8407 74.5541C51.3793 73.7847 51.841 73.0922 52.3026 72.4767C52.6873 71.9381 52.7642 71.4765 52.3795 70.784C51.5332 69.2452 50.9946 67.5525 50.8407 65.7829C50.7638 65.1673 50.533 64.6288 50.3021 64.0902C49.9174 63.2438 49.4558 62.5514 49.148 61.705C48.6864 60.5509 48.3786 59.3199 47.917 58.1658C47.7631 57.7041 47.6092 57.2425 47.4553 56.7039C47.6092 56.7039 47.7631 56.627 47.84 56.627C48.0709 56.9347 48.4556 57.1655 48.6094 57.5502C48.8403 58.3966 49.148 59.2429 49.3788 60.0123C49.6866 61.0895 50.3791 61.9358 50.9177 62.8591C50.9946 63.013 51.1485 63.0899 51.3024 63.1669C51.9179 63.4746 52.5334 63.7055 53.2259 64.0902C53.8414 63.6285 54.6108 63.09 55.3033 62.6283C55.3033 62.7052 55.3802 62.7052 55.3802 62.7822C54.6878 63.3208 54.0722 63.8594 53.3798 64.4749C53.6875 64.9365 54.0722 65.2443 54.4569 65.552C55.611 66.3214 56.7651 67.1678 57.9962 67.8603C59.2272 68.5527 60.4583 69.3221 61.8432 69.7838C62.2279 69.9376 62.6126 70.0146 62.9973 70.2454C63.5359 70.4762 63.5359 70.5532 63.459 71.1687C63.459 71.2456 63.459 71.3995 63.459 71.4765C63.6898 72.5536 63.9975 73.5538 64.5361 74.5541C64.9978 75.4774 65.3825 76.4006 65.8441 77.4009C65.998 77.4009 66.2288 77.4009 66.4596 77.4009C66.4596 77.4778 66.4596 77.5547 66.3827 77.6317C65.8441 78.478 65.3055 79.3244 65.2286 80.4015C65.2286 80.7093 65.2286 81.0171 65.5363 81.2479C65.7672 80.7862 65.998 80.3246 66.2288 79.863C66.2288 79.786 66.3827 79.786 66.5366 79.786C66.6135 79.786 66.6905 79.863 66.8443 79.9399C66.3827 80.4015 66.2288 80.9401 66.3057 81.5556C66.3057 81.8634 66.3827 82.0942 66.6904 82.1712C67.0751 82.3251 67.4598 82.402 67.8445 82.402C68.3062 82.402 68.8448 82.3251 69.3064 82.2481C69.9989 82.0942 70.5375 81.2479 70.3836 80.5554C70.3067 80.0168 70.0758 79.4783 69.7681 78.9397C69.3834 78.3241 69.0756 77.6317 68.9217 76.8623C68.1523 74.3232 67.6137 71.7073 67.1521 69.0913C67.0751 68.7835 66.9982 68.4758 66.9213 68.168C66.8443 67.9372 66.7674 67.6294 66.9982 67.3986C67.306 67.4756 67.306 67.7064 67.306 67.9372C67.4599 68.7835 67.6137 69.5529 67.7676 70.3993C67.9215 70.3993 68.1523 70.3223 68.3062 70.3993C69.1525 70.707 69.845 70.4762 70.6144 70.1685C70.6913 70.0915 70.7683 70.0915 70.9222 70.0146C71.3069 69.8607 71.5377 70.0146 71.4608 70.4762C71.4608 70.6301 71.3838 70.784 71.3838 70.9379C71.8455 71.0918 72.2302 70.8609 72.6918 70.7071C73.0765 70.5532 73.4612 70.3223 73.8459 70.3223C74.0767 70.5532 73.9998 70.784 73.9228 70.9379C72.9226 72.3997 72.0763 73.9385 70.4605 74.8618C70.0758 75.0927 69.845 75.4774 69.3834 75.4774C69.1525 75.1696 69.3064 75.0157 69.5372 74.8618C69.9989 74.5541 70.3836 74.2463 70.8452 73.9385C71.9224 73.2461 72.5379 72.2459 73.2304 71.2456C73.2304 71.2456 73.2304 71.1687 73.2304 71.0148C72.3071 71.1687 71.3838 71.7073 70.4605 71.1687C70.4605 71.0148 70.4605 70.9379 70.4605 70.784C69.6911 70.784 68.9217 70.784 68.0754 70.784C68.0754 70.9379 68.1523 71.0918 68.1523 71.3226C68.4601 72.7844 68.8448 74.1694 69.1525 75.6312C69.3834 76.6315 69.845 77.5547 70.2297 78.478C70.4605 78.9397 70.6144 79.4013 70.7683 79.863C71.153 80.8632 70.6914 81.6326 69.9989 82.402C69.922 82.5559 69.6911 82.6328 69.5372 82.6328C68.4601 82.7867 67.4599 83.0175 66.3827 82.7867C66.3057 82.7867 66.1519 82.7098 66.0749 82.7098C64.69 82.3251 64.0745 81.2479 64.4592 79.863C64.5361 79.4783 64.7669 79.0936 64.9208 78.7089C65.1516 78.3242 65.2286 77.9395 65.0747 77.5547C64.613 76.4776 64.1514 75.4004 63.7667 74.3232C63.459 73.6308 63.1512 72.9383 62.9973 72.2459C62.8434 71.7842 62.6126 71.3226 62.2279 71.0148C61.9971 70.784 61.7663 70.5532 61.3816 70.6301C61.2277 70.7071 60.9199 70.5532 60.766 70.3993C58.4578 69.2452 56.3035 67.9372 54.303 66.2445C53.7644 65.7829 53.1489 65.4751 52.5334 65.0135C52.4565 65.3982 52.4565 65.7059 52.4565 66.0137C51.9179 66.0906 51.9948 65.4751 51.5332 65.3982C51.5332 65.4751 51.4562 65.552 51.4562 65.629C51.6871 67.4756 52.3795 69.1682 53.1489 70.9379C53.3028 70.4762 53.3797 70.2454 53.5336 69.8607C53.6875 69.8607 53.7644 69.8607 53.9183 69.9376C53.9953 70.0146 54.1492 70.0146 54.2261 70.0915C54.8416 69.7068 55.4572 69.3221 56.0727 68.9374C56.0727 69.0144 56.1496 69.0144 56.1496 69.0913C55.5341 69.5529 54.9955 69.9376 54.38 70.4762C54.5339 70.6301 54.6108 70.784 54.7647 71.0148C55.3033 70.5532 55.8418 70.1685 56.3035 69.7838C55.9957 70.3993 55.3802 70.707 54.9955 71.2456C55.3033 71.7842 55.611 72.1689 56.0727 72.5536C57.6884 73.8616 59.4581 74.8618 61.4585 75.4004C61.9201 75.5543 62.3818 75.6312 62.8434 75.3235C63.0742 74.8618 63.4589 74.8618 63.9975 75.0157Z" fill="black"/>
<path d="M19.6026 59.3982C19.064 59.9368 18.6793 60.3215 18.2946 60.7832C18.2177 60.9371 18.1407 61.1679 18.1407 61.3987C18.1407 62.7067 18.1407 64.0147 18.1407 65.2457C18.1407 65.8612 18.2177 66.3998 18.2946 67.0153C18.2946 67.1692 18.2946 67.4001 18.1407 67.477C17.9868 67.6309 17.756 67.477 17.6022 67.3231C17.6022 67.3231 17.5252 67.3231 17.4483 67.3231C16.9866 68.0925 16.9866 68.9389 16.8328 69.7852C16.6019 71.4779 16.3711 73.2475 16.2172 74.9402C16.1403 76.1713 15.9095 77.4023 15.6786 78.6334C15.6017 79.1719 15.2939 79.5566 14.8323 79.7875C14.1398 80.0952 13.5243 80.4799 12.9088 80.7107C12.1394 81.0185 11.293 81.0954 10.4467 80.7877C9.60034 80.4799 9.29259 79.9413 9.52341 79.095C9.83117 78.1717 10.2159 77.2484 11.2161 76.8637C11.6777 76.6329 12.1394 76.3251 12.601 76.0174C12.678 75.9404 12.9088 76.0174 12.9088 76.0943C13.0627 76.2482 12.9857 76.4021 12.8318 76.479C12.2163 76.8637 11.5239 77.2484 10.9083 77.6331C10.2159 78.0948 9.98506 78.7872 9.90811 79.5566C9.90811 79.8644 9.90812 79.9413 10.3698 80.1722C10.6775 79.7875 10.6006 79.1719 11.2161 78.7872C11.2161 79.0181 11.2161 79.1719 11.2161 79.2489C11.1391 79.5566 11.0622 79.7875 10.9853 80.0952C10.9083 80.5569 11.1392 80.7107 11.5239 80.6338C11.7547 80.5569 11.9855 80.4799 12.2933 80.4799C12.2933 79.7875 12.2933 79.0181 13.0627 78.4025C12.9857 79.095 12.9088 79.7105 12.7549 80.403C13.6012 80.0952 14.2168 79.7875 14.8323 79.3258C14.9862 79.1719 15.1401 78.8642 15.1401 78.5564C15.6017 76.4021 15.8325 74.2477 15.9864 72.0934C16.1403 70.3238 16.3711 68.5542 16.8328 66.8615C16.9097 66.3998 16.9866 66.3998 17.6022 66.6306C17.756 65.6304 17.4483 64.7071 17.4483 63.7069C17.4483 62.7836 17.4483 61.7834 17.4483 60.7832C18.9101 59.6291 19.8334 57.9364 21.1414 56.5514C21.3722 56.7053 21.5261 56.8592 21.7569 57.09C22.3725 56.6284 22.8341 56.0129 23.1418 55.3973C23.9882 53.7047 24.6807 52.012 25.4501 50.3193C25.527 50.2423 25.527 50.1654 25.527 50.0115C25.7578 49.2421 25.8348 49.2421 26.4503 49.7807C26.7581 49.2421 26.9889 48.7035 26.9889 48.088C27.0658 47.1647 27.2197 46.2414 27.5275 45.2412C27.6813 45.3182 27.7583 45.3951 27.8352 45.472C27.9122 45.549 27.9122 45.7029 27.8352 45.7798C27.3736 47.0108 27.6044 48.3958 27.0658 49.5499C26.9119 49.9346 26.835 50.3193 26.4503 50.627C26.2964 50.5501 26.0656 50.4732 25.9117 50.3962C25.8348 50.4732 25.8348 50.5501 25.7578 50.627C24.9115 52.4736 24.0651 54.2432 23.1418 56.0898C22.911 56.4745 22.6033 56.8592 22.2955 57.2439C21.8339 57.7825 21.68 57.7825 20.9106 57.3978C20.5259 57.9364 20.1412 58.398 19.6795 59.0135C19.8334 59.0905 20.0642 59.1674 20.1412 59.2444C20.2181 59.3982 20.2181 59.5521 20.2181 59.706C20.2181 60.5523 20.1412 61.3987 20.0642 62.245C20.0642 62.3989 20.0642 62.6297 20.0642 62.7836C20.2181 64.0147 20.0643 65.2457 19.9873 66.3998C19.9104 67.2462 19.9873 68.1695 19.9104 69.0158C19.7565 71.6318 19.5257 74.2477 19.6795 76.8637C19.8334 76.9407 20.0643 77.0945 20.372 77.2484C19.8334 77.4792 19.3718 77.7101 18.9871 77.9409C18.2946 78.4025 17.9099 79.095 17.9099 79.9413C17.9099 80.2491 17.9869 80.5569 18.3716 80.7107C18.7563 80.1722 18.4485 79.4028 19.141 78.8642C19.3718 79.6336 18.9101 80.326 19.141 81.0954C19.5257 81.0185 19.9104 80.9416 20.2181 80.8646C20.4489 80.403 20.2181 80.0183 20.5259 79.6336C20.9875 79.8644 20.6798 80.326 20.9106 80.5569C21.7569 80.5569 22.5263 80.0183 22.6802 79.2489C22.8341 78.2486 22.911 77.3254 23.0649 76.3251C23.2188 74.9402 23.2188 73.4783 23.3727 72.0934C23.3727 71.6318 23.5266 71.2471 23.5266 70.7854C23.6804 69.9391 23.7574 69.8621 24.6807 69.8621C24.6807 69.3236 24.7576 68.8619 24.7576 68.3233C24.7576 67.477 24.8346 66.5537 24.9115 65.7074C24.9884 65.0918 25.1423 64.4763 25.4501 63.8608C25.7578 63.9377 26.0656 64.0147 26.4503 64.0916C26.3734 63.4761 26.2195 62.9375 26.1425 62.322C26.0656 61.7065 25.9887 61.1679 25.9887 60.5524C25.9887 60.0138 25.7578 59.3982 25.9887 58.7827C26.3734 58.7827 26.3734 59.0135 26.4503 59.2444C26.4503 59.5521 26.4503 59.7829 26.4503 60.0907C26.3734 61.3987 26.5272 62.7067 26.9889 64.0147C27.0658 64.1686 27.0658 64.3994 27.1428 64.6302C27.1428 64.7071 27.1428 64.7071 27.0658 64.7841C26.6042 65.0149 26.2964 64.3994 25.8348 64.3994C25.7578 64.5533 25.604 64.6302 25.604 64.861C25.4501 65.7843 25.2962 66.6306 25.2193 67.5539C25.1423 68.4003 25.1423 69.2466 25.1423 70.016C25.1423 70.6315 25.0654 70.7085 24.3729 70.4777C24.3729 70.9393 24.296 71.324 24.3729 71.7857C24.4498 72.7859 24.296 73.7861 24.0651 74.7863C23.9113 75.4019 23.9113 75.9404 23.8343 76.556C23.6805 77.4792 23.6035 78.4025 23.4496 79.3258C23.3727 79.7105 23.2188 80.0952 22.988 80.4799C22.8341 80.7107 22.5263 80.9416 22.2955 81.0185C21.3722 81.2493 20.372 81.4801 19.4487 81.634C18.5254 81.7879 17.9099 81.2493 17.3713 80.6338C17.2174 80.4799 17.2175 80.1722 17.2175 79.8644C17.2175 79.0181 17.5252 78.3256 18.1407 77.787C18.8332 77.2484 19.064 76.556 19.064 75.7096C19.064 74.4016 19.141 73.0936 19.2179 71.8626C19.2948 70.7085 19.3718 69.5544 19.4487 68.4003C19.5257 66.5537 19.6026 64.7071 19.6795 62.8606C19.6795 62.0912 19.6795 61.2448 19.7565 60.4754C19.6795 60.1676 19.6026 59.8599 19.6026 59.3982Z" fill="black"/>
<path d="M10.9865 56.0126C10.8326 55.7048 10.6018 55.3971 10.4479 55.0893C9.52462 53.7044 8.98604 52.1656 8.5244 50.6268C8.37052 50.0882 8.37053 49.5496 8.29359 48.9341C7.755 49.3188 7.90888 50.2421 6.98559 50.2421C6.98559 50.1651 6.90867 50.0112 6.90867 49.9343C6.90867 48.6263 6.90867 47.3183 6.90867 46.0103C6.90867 45.5487 6.90867 45.164 6.90867 44.7024C6.98561 43.7021 7.06254 42.625 7.13948 41.6247C7.13948 41.3939 7.06253 41.0862 6.98559 40.9323C6.75477 40.5476 6.52395 40.1629 6.21619 39.7782C5.83148 39.3165 5.60067 38.778 5.60067 38.1624C5.60067 37.5469 5.52372 37.0083 5.44678 36.3928C4.9082 36.5467 4.9082 37.2391 4.36962 37.393C4.1388 37.2391 4.21574 37.0083 4.29268 36.7775C4.75432 35.1618 5.21598 33.546 5.67762 31.9303C5.75456 31.6994 5.75454 31.5456 5.83148 31.3147C6.52395 30.0067 6.6009 28.6218 6.83172 27.1599C6.90866 26.6983 6.83173 26.2367 6.52397 25.852C6.13927 25.852 5.83148 25.775 5.44678 25.852C4.44656 26.0058 3.60022 25.852 2.83081 25.1595C2.75387 25.2364 2.67695 25.2364 2.67695 25.2364C1.90754 26.0058 1.0612 25.775 0.753436 24.6979C0.676496 24.3132 0.599541 24.0054 0.522601 23.6207C0.44566 23.3129 0.368725 23.0052 0.214844 22.5435C0.445665 22.6205 0.599551 22.6205 0.676491 22.6974C0.830372 22.9282 0.907308 23.236 0.984248 23.4668C1.06119 23.8515 1.13812 24.2362 1.21506 24.6979C1.292 24.9287 1.44589 25.0826 1.67671 25.0826C1.98447 25.0826 2.06141 24.8517 2.13835 24.6209C2.13835 24.467 2.13836 24.2362 2.2153 24.0054C2.52306 24.1593 2.67694 24.1593 2.90776 24.3132C3.67716 24.9287 4.5235 25.1595 5.52373 24.9287C6.06231 24.7748 6.6009 24.7748 7.13948 24.6979C8.21665 24.544 8.75523 23.9285 8.98605 22.8513C9.06299 22.5435 9.06299 22.3127 9.44769 22.0819C9.60157 22.6974 9.063 23.0821 9.13994 23.6976C9.4477 23.7746 9.60157 23.6976 9.67851 23.3129C9.75545 23.0052 9.8324 22.6974 9.90934 22.3127C9.98628 22.1588 10.0632 22.0819 10.294 22.0049C10.2171 22.3896 10.0632 22.7743 9.90934 23.236C10.1402 23.159 10.294 23.159 10.4479 23.0821C11.1404 22.6974 11.9098 22.3127 12.5253 21.928C12.987 21.6972 13.2947 21.6972 13.7564 21.928C13.2947 22.6205 12.2945 22.4666 11.9867 23.3129C12.3714 23.5437 12.7561 23.8515 13.2178 24.0823C13.3717 24.1593 13.5255 24.2362 13.6794 24.3132C13.9872 24.467 13.9102 24.6979 13.6794 24.9287C13.6025 24.9287 13.6025 24.9287 13.5255 25.0056C12.5253 25.3903 11.9867 26.1597 11.8329 27.1599C11.7559 27.7755 11.7559 27.7755 11.0634 27.6985C10.2171 27.6216 9.67852 28.0832 9.13994 28.6218C9.063 28.6988 8.98606 28.8526 8.83218 29.0065C8.2936 29.8529 8.21664 29.9298 7.37029 30.3914C6.60089 30.8531 6.06231 31.3917 5.83148 32.238C5.60066 33.3152 5.21598 34.3154 4.90821 35.3926C5.13904 35.3156 5.2929 35.3156 5.44678 35.2387C5.75454 35.4695 5.75454 35.7773 5.83148 36.085C5.83148 36.5467 5.83149 37.0853 5.90843 37.5469C5.90843 37.8547 5.98538 38.1624 6.06232 38.4702C6.67784 38.2394 7.06254 37.8547 7.52418 37.47C7.98583 37.1622 8.29358 36.7006 8.9091 36.6236C8.21664 37.2391 7.52418 37.7777 6.75478 38.3932C6.67784 38.4702 6.44702 38.5471 6.44702 38.701C6.44702 38.8549 6.44702 39.0088 6.44702 39.3165C6.90866 38.9318 7.29337 38.701 7.67807 38.3932C8.06278 38.1624 8.44747 37.8547 8.75523 37.6238C8.75523 37.7008 8.83218 37.7008 8.83218 37.7777C8.13972 38.3932 7.44724 39.0088 6.75478 39.6243C7.06254 40.0859 7.29336 40.5476 7.52418 40.9323C7.60112 41.0862 7.755 41.0862 7.90889 41.1631C8.52441 41.3939 8.90912 41.8556 9.21688 42.3172C8.98606 42.548 8.83217 42.548 8.67829 42.3941C8.37053 42.0094 7.98582 41.9325 7.44724 42.0864C7.06254 44.1638 7.3703 46.2412 7.44724 48.3186C7.98582 48.1647 7.83195 47.4722 8.44748 47.3953C8.6783 47.78 8.83218 48.1647 8.83218 48.6263C8.98606 49.7804 9.4477 51.0884 9.98629 51.8578C10.371 51.4731 10.6787 51.1654 11.0634 50.7807C10.7557 51.3192 10.5249 51.7809 10.1402 52.3964C10.2171 52.4733 10.294 52.6272 10.371 52.7811C11.3712 51.7039 12.2945 50.7037 13.2178 49.7035C13.2947 50.0882 12.9869 50.2421 12.8331 50.396C12.6792 50.6268 12.4484 50.7807 12.2176 51.0115C11.9867 51.2423 11.8328 51.4731 11.602 51.7039C11.4481 51.9348 11.2173 52.1656 11.0634 52.3964C10.9096 52.6272 10.7557 52.935 10.5249 53.2427C10.6787 54.0122 11.2173 54.6277 11.679 55.2432C12.2945 56.0895 12.9869 56.9359 13.6025 57.7822C13.7564 58.0131 13.9872 58.1669 14.1411 58.3208C14.9874 59.0133 15.9107 59.7057 16.757 60.3982C16.9879 60.5521 17.2187 60.7829 16.834 61.0907C16.6801 61.0137 16.5262 60.9368 16.3723 60.7829C15.8337 60.3982 15.3721 60.0904 14.8335 59.7057C14.6796 59.6288 14.5258 59.4749 14.4488 59.4749C13.8333 59.6288 13.6794 59.1672 13.3717 58.7825C12.6792 58.0131 12.0637 57.2436 11.4481 56.4742C11.3712 56.3204 11.2173 56.2434 11.0634 56.0895C11.1404 56.1665 11.0634 56.0895 10.9865 56.0126ZM8.5244 26.5444C8.60134 26.6214 8.60135 26.6214 8.67829 26.6983C8.37053 27.0061 8.06276 27.2369 7.83194 27.5447C7.60112 27.7755 7.37031 28.0063 7.29337 28.3141C7.13949 28.9296 7.06255 29.5451 6.90867 30.2376C7.13949 30.0837 7.29336 30.0067 7.44724 29.9298C7.98582 29.7759 8.29358 29.3912 8.5244 28.8526C8.67828 28.5449 8.98606 28.2371 9.21688 28.0063C9.83241 27.3908 10.6018 27.1599 11.3712 27.083C11.602 26.5444 11.679 26.0058 11.9867 25.6211C12.2945 25.2364 12.7561 24.8517 13.1408 24.544C12.6792 24.1593 12.2945 23.8515 11.7559 23.3899C10.4479 24.467 8.75523 24.7748 7.13948 25.4673C7.21642 25.775 7.3703 26.0058 7.44724 26.2367C7.90888 26.0828 8.13971 25.4673 8.75523 25.3903C8.37053 26.0828 7.44723 26.3905 7.37029 27.3908C7.83194 27.083 8.21664 26.8522 8.5244 26.5444Z" fill="black"/>
<path d="M42.0705 65.4757C41.9935 65.6296 41.8397 65.8604 41.7627 66.0143C40.7625 65.8604 39.0698 64.7063 38.2235 63.3983C38.0696 63.5522 37.8388 63.7061 37.6079 63.9369C37.2232 63.3214 37.2232 62.6289 37.0694 62.0134C36.9155 61.3209 36.8385 60.6285 36.7616 59.936C36.6847 59.2436 36.7616 58.628 36.7616 57.8586C35.1459 57.9356 33.5301 57.8586 31.9144 58.0895C32.0682 58.3972 32.1452 58.628 32.2991 58.9358C31.8374 59.0897 31.4527 59.3205 30.9911 59.2436C30.2217 59.1666 29.5292 59.0127 28.7598 58.9358C27.5288 58.705 26.3746 58.4742 25.1436 58.3203C24.9128 58.2433 24.4511 58.3203 24.5281 57.9356C24.5281 57.5509 24.9897 57.7047 25.2205 57.7047C26.1438 57.8586 26.9902 58.0125 27.9135 58.1664C28.8367 58.3203 29.837 58.3972 30.7603 58.5511C30.8372 57.9356 30.3755 58.1664 30.1447 58.0895C30.6064 57.2431 31.2219 56.7045 31.9913 56.3198C31.6835 56.6276 31.3758 57.0123 30.9911 57.397C31.3758 57.6278 31.6835 57.5509 31.9913 57.4739C33.607 57.32 35.2997 57.1662 36.9155 57.0892C37.6849 57.0123 38.3774 57.0892 39.2237 57.0892C39.1468 57.5509 39.1468 57.8586 39.0698 58.2433C39.7623 57.7048 40.4547 57.2431 41.1472 56.7045C41.6089 57.1662 41.455 57.7048 41.455 58.3203C41.8397 58.0125 42.1474 57.7817 42.4552 57.5509C42.686 57.397 42.8399 57.2431 43.0707 57.0892C43.7632 56.6276 44.1479 56.7815 44.3787 57.6278C44.4556 57.8586 44.5326 58.1664 44.6095 58.4742C45.1481 58.2433 45.4559 57.7048 46.0714 57.8586C46.533 57.9356 47.0716 58.0125 47.6102 58.2433C47.3794 58.3972 47.3024 58.4742 47.1486 58.4742C46.9947 58.4742 46.8408 58.3972 46.6869 58.3972C46.0714 58.2433 45.4559 58.3203 44.9942 58.7819C44.8404 58.9358 44.6095 59.0127 44.4556 59.0897C43.8401 58.5511 44.1479 57.7047 43.5323 57.2431C42.4552 57.5509 41.9935 58.7819 40.8394 59.0897C40.5317 58.4742 41.0703 58.0125 40.8394 57.397C40.4547 57.4739 40.147 57.7047 39.9162 58.0125C39.6084 58.3203 39.3006 58.628 39.0698 58.8589C38.9929 58.9358 38.839 59.0897 38.6851 59.1666C38.4543 59.3205 38.2235 59.0897 38.2235 58.8589C38.3004 58.5511 38.3774 58.1664 38.4543 57.7817C37.9157 57.6278 37.4541 57.7817 36.9155 57.9356C37.3002 58.2433 37.2232 58.628 37.2232 58.9358C37.1463 59.7821 37.2232 60.6285 37.531 61.4748C37.6849 61.9365 37.9157 62.3212 38.3774 62.552C39.0698 62.1673 39.6084 61.3979 40.5317 61.244C40.4547 61.3209 40.3778 61.3979 40.3009 61.4748C39.8392 61.8595 39.3006 62.1673 38.839 62.552C38.6082 62.7059 38.6082 62.7828 38.839 63.2445C39.4545 62.7828 40.07 62.3981 40.6856 61.9365C40.3009 62.6289 39.5315 62.8598 39.1468 63.6292C39.4545 63.86 39.7623 64.0908 40.07 64.3216C40.3778 64.5524 40.6086 64.7833 40.9164 65.0141C40.9933 64.8602 41.1472 64.7063 41.3011 64.3986C41.6088 64.5524 41.9166 64.6294 42.1474 64.7833C43.3015 65.3219 44.3787 65.7835 45.5328 66.3221C46.3022 66.7068 47.0716 67.1684 47.7641 67.707C47.9949 67.8609 47.918 68.0917 47.6871 68.3225C46.6869 67.9378 45.8406 67.3223 44.8403 66.8607C44.0709 66.399 43.0707 65.9374 42.0705 65.4757Z" fill="black"/>
<path d="M10.9867 56.0132C11.0636 56.0901 11.1406 56.1671 11.2175 56.244C11.2945 57.552 11.2945 58.783 11.3714 60.091C11.3714 61.0143 11.4484 61.8607 11.5253 62.7839C11.5253 63.1686 11.5253 63.5533 11.7561 63.938C12.6794 63.3225 13.3719 62.5531 14.449 62.0915C14.3721 62.1684 14.2952 62.3223 14.2182 62.3992C13.4488 63.0148 12.7563 63.6303 11.9869 64.2458C11.7561 64.3997 11.6022 64.6305 11.8331 64.9383C12.9102 64.3227 13.7566 63.3995 14.8337 62.7839C14.8337 62.8609 14.9107 62.8609 14.9107 62.9378C14.8337 63.0148 14.8337 63.0917 14.7568 63.1686C13.8335 63.8611 12.9102 64.5536 11.9869 65.323C11.6792 65.5538 11.6792 65.9385 11.7561 66.3232C12.7563 65.5538 13.6796 64.7074 14.8337 64.0919C14.6798 64.4766 14.3721 64.6305 14.2182 64.7844C13.6027 65.323 12.9102 65.8616 12.2947 66.3232C11.8331 66.631 11.6792 67.0926 11.6792 67.7081C11.833 69.5547 12.0639 71.4013 12.2178 73.2478C12.2947 73.7864 12.3716 74.2481 12.3716 74.7866C12.3716 74.9405 12.3716 75.1713 12.3716 75.3252C12.2947 75.4791 12.0639 75.633 11.91 75.7099C11.6792 75.7869 11.5253 75.556 11.5253 75.3252C11.4484 74.4789 11.2175 73.5556 11.2175 72.7093C11.1406 70.9396 11.0636 69.17 10.9867 67.4773C10.9098 65.7846 10.9098 64.015 10.8328 62.2454C10.8328 61.8607 10.7559 61.399 10.679 61.0143C10.602 60.0141 10.5251 59.0908 10.3712 58.0906C10.3712 57.7828 10.3712 57.3981 10.2942 57.0904C10.2173 56.3209 10.2173 56.3209 10.9867 56.0132Z" fill="black"/>
<path d="M42.6824 52.9344C42.5285 52.6266 42.3746 52.3958 42.2977 52.088C41.836 51.1647 42.2207 50.2415 43.144 49.7798C43.4517 49.6259 43.7595 49.549 44.0673 49.4721C44.375 49.3951 44.6828 49.3182 44.9906 49.1643C44.9906 49.0104 45.0675 48.9335 45.0675 48.8565C45.0675 48.3949 44.9906 47.9332 45.3753 47.6255C45.8369 47.0869 46.3755 46.7022 46.991 46.5483C48.1451 46.2406 49.3762 45.8559 50.5303 45.4711C50.6841 45.3942 50.838 45.3173 51.0689 45.2403C50.915 44.8556 50.6072 44.7017 50.2995 44.4709C49.5301 43.8554 49.607 43.5476 50.2225 42.8552C50.3764 42.7013 50.6072 42.5474 50.7611 42.3935C50.9919 42.2397 51.2227 42.3166 51.4536 42.5474C51.1458 42.7782 50.7611 42.9321 50.5303 43.1629C50.1456 43.5476 50.2225 43.8554 50.6072 44.1632C50.9919 44.394 51.3766 44.6248 51.8383 44.8556C51.9152 44.9326 52.0691 45.0095 52.223 45.0864C52.146 45.2403 51.9921 45.3942 51.9152 45.3942C50.6072 45.5481 49.53 46.1636 48.299 46.4714C47.8374 46.6253 47.3757 46.7791 46.9141 46.933C45.9908 47.2408 45.6061 47.8563 45.6061 48.7796C45.6061 49.3951 45.5291 49.4721 44.8367 49.6259C44.2981 49.7029 43.8365 49.8568 43.3748 50.0106C42.6054 50.3184 42.3746 50.9339 42.6824 51.6264C42.8362 51.9341 42.9901 52.165 43.144 52.4727C43.2979 52.7805 43.2209 52.9344 42.9132 53.0883C42.2976 53.3191 41.7591 53.473 41.1436 53.7038C40.528 54.0115 39.9125 54.3193 39.297 54.6271C38.6814 54.9348 38.2198 55.3965 37.912 56.012C37.8351 56.0889 37.7582 56.1659 37.6043 56.3967C37.6043 56.1659 37.5273 56.012 37.5273 55.8581C37.8351 55.2426 38.2198 54.7809 38.7584 54.4732C39.7586 53.9346 40.8358 53.396 41.913 53.0883C42.2207 53.1652 42.3746 53.0883 42.6824 52.9344Z" fill="black"/>
<path d="M30.2956 35.3148C29.9878 35.1609 29.757 35.084 29.4492 34.9301C29.0645 35.5456 29.2953 36.1611 29.2953 36.6997C28.9106 36.7767 28.8337 36.6228 28.8337 36.392C28.8337 35.7764 28.8337 35.2379 28.8337 34.5454C29.2184 34.5454 29.5262 34.4684 29.9109 34.3915C29.6031 33.3143 29.0645 32.3911 28.2951 31.5447C27.9104 31.16 27.7565 30.9292 27.9874 30.7753C28.3721 30.6214 28.449 30.9292 28.6029 31.16C29.5262 32.1602 30.0647 33.3913 30.4494 34.6993C30.6033 35.007 30.5264 35.1609 30.2956 35.3148Z" fill="black"/>
<path d="M17.6016 8.38588C17.7554 6.92402 17.8324 5.53909 17.9863 3.92334C18.4479 4.38498 18.294 4.84662 18.294 5.23133C18.294 5.61603 18.294 6.07767 18.294 6.53931C18.6018 6.46237 18.8326 6.46237 19.2942 6.30849C18.8326 6.77013 18.1401 6.92402 18.2171 7.69342C18.6018 7.53954 18.9095 7.4626 19.2942 7.38566C19.2942 7.38566 19.2942 7.4626 19.3712 7.4626C18.9865 7.69342 18.6787 7.92424 18.2171 8.232C18.6787 8.84753 19.1404 9.46305 19.6789 10.1555C18.9865 10.0786 18.6787 9.69387 18.371 9.30917C18.1401 9.00141 17.8324 8.69365 17.6016 8.38588Z" fill="black"/>
<path d="M11.9041 21.5426C11.7502 21.3887 11.5193 21.1579 11.2885 21.004C10.7499 20.3885 10.1344 19.8499 9.36501 19.4652C9.21112 19.3883 8.9803 19.2344 8.90336 19.0805C8.82642 18.6958 8.51866 18.6189 8.2109 18.5419C7.21067 18.465 6.51822 17.7725 5.67188 17.157C5.9027 17.0801 6.05658 17.0801 6.13352 17.0801C6.21046 17.0801 6.21045 17.0801 6.28739 17.157C6.90291 17.7725 7.67232 18.0803 8.5956 18.1572C8.90336 18.1572 9.1342 18.3881 9.21114 18.6958C9.28808 18.9266 9.51889 19.0805 9.74971 19.2344C10.673 19.6961 11.3655 20.3885 11.9041 21.1579C11.981 21.2349 11.981 21.3118 11.981 21.4657C11.981 21.3887 11.981 21.4657 11.9041 21.5426Z" fill="black"/>
<path d="M11.3673 15.5419C11.3673 16.0804 10.9056 16.5421 10.444 16.5421C10.0593 16.5421 9.59766 16.0804 9.59766 15.6957C9.59766 15.2341 10.0593 14.7725 10.5209 14.7725C11.0595 14.7725 11.3673 15.0802 11.3673 15.5419Z" fill="black"/>
<path d="M18.1429 33.1608C17.2196 33.8533 16.758 33.8533 15.3731 33.0069C15.2192 33.3147 15.0653 33.6224 14.9114 33.8533C14.7575 34.0841 14.7575 34.4688 14.4498 34.5457C14.3728 33.8533 14.8345 32.853 15.5269 32.3145C15.6808 32.4683 15.9116 32.6222 16.1425 32.853C16.5272 33.2377 16.9118 33.3147 17.3735 33.0839C17.6043 33.0069 17.9121 32.93 18.1429 32.93C18.1429 33.0069 18.1429 33.0839 18.1429 33.1608Z" fill="black"/>
<path d="M4.90363 5.69434C4.98057 6.46374 4.44198 7.1562 4.82668 7.92561C5.44221 7.54091 5.98078 7.23314 6.5963 6.92538L6.67325 7.00232C6.13467 7.38703 5.67302 7.77173 5.13444 8.15643C4.82668 8.31031 4.59586 8.23337 4.44198 7.92561C4.05728 7.23314 4.28811 6.30986 4.90363 5.69434Z" fill="black"/>
<path d="M20.5248 39.085C19.9862 39.9313 19.6015 40.0852 18.8321 39.9313C18.6783 39.9313 18.6013 39.8544 18.4474 39.8544C17.9858 39.7005 17.9089 39.7774 17.6011 40.1621C17.4472 40.4699 17.3703 40.7776 17.0625 41.0085C17.0625 40.4699 17.5241 39.4697 17.9088 39.3158C18.0627 39.2388 18.2935 39.3158 18.5244 39.3927C19.5246 39.6235 19.5246 39.6235 20.5248 39.085Z" fill="black"/>
<path d="M23.6831 63.3992C22.6829 64.0147 21.6826 64.6303 20.6055 65.3227C20.8363 64.7072 21.4518 64.4764 21.9135 64.1686C22.452 63.8608 22.9906 63.5531 23.5292 63.3223C23.6061 63.3223 23.6061 63.3223 23.6831 63.3992Z" fill="black"/>
<path d="M68.5364 79.1709C68.6903 80.0942 68.5364 81.0944 68.3056 81.5561C67.9978 81.0175 67.9978 80.5558 68.5364 79.1709Z" fill="black"/>
<path d="M11.1406 53.78C11.7561 52.7029 12.6794 51.9335 13.6027 51.1641C13.2949 51.7026 12.8333 52.0873 12.4486 52.549C12.0639 53.0106 11.6792 53.4723 11.2945 53.9339C11.2176 53.857 11.1406 53.78 11.1406 53.78Z" fill="black"/>
<path d="M27.9113 31.9302C26.988 32.6226 26.2186 33.1612 25.4492 33.7767C25.6031 33.1612 26.7572 32.3149 27.9113 31.9302Z" fill="black"/>
<path d="M56.609 63.1675C55.8396 63.783 55.0702 64.3216 54.3008 64.8602C54.3777 64.3216 55.4549 63.4752 56.609 63.1675Z" fill="black"/>
<path d="M25.2969 32.7765C25.6046 32.0071 26.9896 30.776 27.8359 30.4683C26.9126 31.2377 26.0663 32.0071 25.2969 32.7765Z" fill="black"/>
<path d="M23.2195 24.3892C23.1426 24.8508 21.6807 25.928 20.9883 26.2357C21.296 25.6971 21.7577 25.5433 22.0654 25.2355C22.5271 24.9277 22.9118 24.62 23.2195 24.3892Z" fill="black"/>
<path d="M29.1406 57.7052C29.2945 57.2435 30.2947 55.9356 31.0641 55.397C30.9103 55.7817 29.6792 57.3205 29.1406 57.7052Z" fill="black"/>
<path d="M6.29117 13.0025C5.98341 13.3872 5.59871 13.3872 5.21401 13.5411C5.13707 13.5411 4.98319 13.4641 4.90625 13.4641C5.29095 12.8486 5.52176 12.7717 6.29117 13.0025Z" fill="black"/>
<path d="M12.1404 14.3119C11.6018 14.6966 11.1402 14.5427 10.7555 14.4658C10.6785 14.4658 10.6016 14.3119 10.6016 14.2349C10.6016 14.158 10.7554 14.0811 10.8324 14.0811C11.2171 14.158 11.6018 14.2349 12.1404 14.3119Z" fill="black"/>
<path d="M11.2148 51.0112C11.2918 50.8573 11.3687 50.6265 11.5226 50.4726C11.9843 50.011 12.4459 49.5493 12.9845 49.0107C12.7537 49.5493 11.8304 50.5495 11.2148 51.0112Z" fill="black"/>
<path d="M19.2969 14.6183C19.6046 14.0028 20.0663 13.6181 20.6049 13.2334C20.2971 13.772 19.7585 14.3875 19.2969 14.6183Z" fill="black"/>
<path d="M5.0625 7.15494C5.4472 6.6933 5.90886 6.46247 6.44744 6.30859C6.13968 6.77024 5.60108 7.078 5.0625 7.15494Z" fill="black"/>
<path d="M19.1367 13.3866C19.5984 13.0019 20.06 12.6172 20.6755 12.0786C20.4447 12.7711 19.7522 13.3097 19.1367 13.3866Z" fill="black"/>
<path d="M22.0646 62.938C21.6799 63.4766 21.1413 63.7074 20.6797 64.169C20.9105 63.5535 21.3721 63.2457 22.0646 62.938Z" fill="black"/>
<path d="M22.0625 62.9373C22.5241 62.4757 22.5241 62.4757 23.1397 62.3218C22.8319 62.7065 22.4472 62.8604 22.0625 62.9373Z" fill="black"/>
<path d="M5.98592 21.6953C6.06286 21.7723 6.13979 21.8492 6.21673 21.9261C6.13979 22.0031 6.06286 22.08 5.98592 22.08C5.90898 22.08 5.83203 22.0031 5.83203 21.9261C5.83203 21.9261 5.90898 21.8492 5.98592 21.6953Z" fill="black"/>
<path d="M5.13824 23.082C5.29212 23.3898 5.44602 23.4667 5.36908 23.5437C5.36908 23.6206 5.21518 23.6976 5.13824 23.6976C5.0613 23.6976 4.98438 23.5437 4.98438 23.5437C4.98438 23.3898 5.0613 23.3129 5.13824 23.082Z" fill="black"/>
<path d="M3.90387 23.0044C3.82693 22.8505 3.75 22.7736 3.75 22.6197C3.75 22.5428 3.82693 22.4658 3.90387 22.4658C3.98081 22.4658 4.05776 22.5428 4.1347 22.6197C4.1347 22.6966 4.05775 22.7736 3.90387 23.0044Z" fill="black"/>
<path d="M5.3679 14.9261C5.3679 15.08 5.29094 15.157 5.13706 15.157C4.98318 15.157 4.90625 15.0031 4.90625 14.9261C4.90625 14.8492 4.98318 14.6953 5.13706 14.6953C5.214 14.6953 5.3679 14.7723 5.3679 14.9261Z" fill="white"/>
<path d="M10.5241 15.3876C10.5241 15.5414 10.4472 15.6184 10.2933 15.6184C10.1395 15.6184 10.0625 15.4645 10.0625 15.3876C10.0625 15.3106 10.1395 15.1567 10.2933 15.1567C10.4472 15.1567 10.5241 15.2337 10.5241 15.3876Z" fill="white"/>
<path d="M1.13738 20.4649C1.3682 20.311 1.67596 20.234 1.90678 20.234C2.06066 20.234 2.29147 20.234 2.44535 20.311C2.52229 20.311 2.5223 20.311 2.59924 20.234C2.67618 20.1571 2.59924 20.0802 2.52229 20.0802C2.29147 20.0032 2.1376 19.9263 1.90678 19.9263C1.59902 19.9263 1.29125 20.0032 0.983487 20.1571C0.906546 20.1571 0.906546 20.234 0.983487 20.311C1.06043 20.4649 1.13738 20.4649 1.13738 20.4649Z" fill="white"/>
</svg>
