<svg width="60" height="92" viewBox="0 0 60 92" fill="none" xmlns="http://www.w3.org/2000/svg">
<path d="M19.4396 87.9455C19.2061 88.3347 18.9726 88.8016 19.0504 89.1908C19.2061 89.6577 19.8287 89.8134 20.2957 89.8912C20.9961 89.969 21.8523 89.969 22.397 89.5799C23.1753 89.0351 23.331 87.8677 23.331 86.9337C23.4088 84.2098 23.1753 81.4858 22.5527 78.8396C22.397 78.2948 21.9301 76.1935 21.1518 77.5165C20.7627 78.2948 21.1518 80.1627 21.1518 81.0966C21.074 83.5093 20.6848 85.922 19.4396 87.9455Z" fill="#BCBCBB"/>
<path d="M59.2098 83.5095C58.8207 81.5638 57.9646 74.6371 57.8867 72.6914C57.6532 67.7104 56.4858 68.2552 55.941 64.5194C55.4741 61.4063 55.0849 58.2932 54.6179 55.1801C55.3184 56.3475 56.408 57.6706 57.7311 57.3592C59.132 57.0479 59.4433 55.1801 59.0542 53.7791C58.198 50.7438 55.5519 48.4868 54.5401 45.5294C53.4505 42.5719 53.9953 38.9918 51.894 36.657C50.4152 35.0226 48.0025 34.5556 45.979 33.5438C44.0333 32.6099 42.3989 31.1312 40.3754 30.5864C39.1301 30.275 37.7292 30.3529 36.484 30.1972C33.293 29.8081 30.4912 28.018 27.8451 26.228C25.6659 24.7492 23.4088 23.1149 21.8523 21.0135C20.2957 18.9121 19.3618 16.0325 20.0622 13.4642C20.607 11.5185 21.9301 9.9619 23.4088 8.48316C24.1093 7.78271 24.9654 6.84877 24.4984 5.91483C24.3428 5.52569 23.9537 5.29221 23.6423 4.9809C20.5292 2.80171 17.0269 1.08949 13.2912 0.700349C9.55544 0.311208 5.50839 1.55646 3.01788 4.4361C0.916525 6.9266 0.29389 10.1954 0.138234 13.3863C0.0604057 15.2542 -0.484391 18.6008 1.30566 19.8461C2.55091 20.78 4.34096 20.4687 5.66404 21.0913C7.99888 22.1809 7.92105 25.4497 7.60974 27.6289C7.14277 30.8198 5.27489 33.5438 4.34095 36.5013C3.17353 40.1592 3.25135 44.1285 3.87398 47.942C4.80791 53.9348 6.75362 59.7719 7.76538 65.6869C8.77715 71.6018 8.77716 78.0615 6.05318 83.5095C5.2749 84.9882 4.34095 86.7005 5.11923 88.1792C6.05317 89.9692 9.01064 89.6579 10.2559 88.0235C11.5011 86.3891 11.579 84.21 11.6568 82.1864C11.7346 74.7149 11.9681 67.2434 12.3573 59.7719C12.3573 59.0715 12.4351 58.2932 12.9799 57.904C13.369 57.5927 13.836 57.5927 14.3808 57.5149C16.4821 57.4371 18.6613 57.6706 20.6849 58.2932C22.2414 68.0217 22.0079 78.0615 19.9844 87.7122C19.8288 88.3348 19.6731 89.0353 19.9066 89.5801C20.4514 90.981 22.7084 90.981 23.7202 89.8914C24.7319 88.8018 24.8876 87.0896 24.9654 85.6109C25.5102 77.3611 25.9772 69.1891 26.522 60.9393C26.5998 59.0715 26.8333 57.0479 28.0007 55.647C28.3898 55.1801 28.9346 54.7909 29.5573 54.8687C30.7247 55.0244 30.9582 56.6588 30.8804 57.8262C30.7247 60.4724 30.8804 63.2742 32.3591 65.4534C33.8378 67.6326 36.5618 69.0335 37.4179 71.524C37.8071 72.6914 37.8071 74.0145 37.8071 75.2597C37.7292 77.2832 37.6514 79.3846 36.6396 81.0968C36.4062 81.486 36.0948 81.9529 36.017 82.4199C35.9392 83.3538 36.8731 84.0543 37.7292 84.5991C38.274 84.9104 38.9745 85.2217 39.3636 84.7548C39.5971 84.5991 39.6749 84.2878 39.7528 84.0543C41.1537 79.3846 42.4768 74.7927 43.8777 70.1231C44.0333 69.5004 44.189 68.9556 44.189 68.333C44.1111 66.6986 42.6324 65.5312 41.5428 64.2859C38.1962 60.3945 38.6632 54.4796 42.7102 51.3665C46.1347 58.1375 46.1347 56.8923 49.0921 64.1303C50.4152 67.2434 51.894 64.9086 53.217 69.3448C53.3727 69.5004 53.5284 69.6561 53.6062 69.8117C53.7618 69.9674 53.9175 70.0452 53.9953 70.2009C54.3845 70.5122 54.5401 70.9792 54.6958 71.4461C54.7736 71.9131 54.8514 72.4579 54.8514 72.9249C54.9292 73.2362 55.0071 73.4697 55.1627 73.781C55.3962 74.7149 55.6297 75.6489 55.7075 76.5828C55.7075 77.0498 55.7075 77.5167 55.8632 77.9837C55.941 78.3728 56.1745 78.762 56.1745 79.229C56.1745 79.3068 56.1745 79.3846 56.1745 79.4624C56.2523 79.6181 56.2523 79.7738 56.2523 79.9294C56.2523 80.2407 56.0967 80.4742 55.941 80.7077C55.8632 80.7855 55.8632 80.9412 55.7075 81.019C55.7075 81.0968 55.6297 81.0968 55.5519 81.1747C55.3184 81.4081 55.1627 81.7195 55.0071 82.0308C54.8514 82.3421 54.7736 82.7312 54.6958 83.0425C54.6179 83.276 54.5401 83.5873 54.6958 83.743C54.7736 83.8208 54.7736 83.8986 54.8514 83.9765C56.6415 84.6769 59.5989 85.3774 59.2098 83.5095Z" fill="white"/>
<path d="M14.2224 19.3013C14.7672 18.523 15.312 17.5112 16.2459 17.5112C16.4794 18.3673 16.3238 19.2235 15.9346 20.0017C15.5455 20.78 15.0785 21.4805 14.6115 22.2587C13.9111 23.4262 13.5219 24.7492 12.8993 25.9945C12.121 27.6289 11.1093 29.1076 10.0975 30.6642C9.70836 31.209 9.31924 31.7538 8.85227 32.1429C8.3853 32.5321 7.607 32.7655 6.98438 32.5321C7.14003 30.5864 7.29569 28.7185 7.45135 26.7728C7.52918 25.6054 7.45136 24.0488 8.07399 23.037C8.69661 22.1031 9.78621 22.0253 10.798 21.714C12.1989 21.3248 13.2885 20.4687 14.2224 19.3013Z" fill="#BCBCBB"/>
<path d="M37.8863 51.6005C38.0419 51.6005 38.1976 51.5227 38.2754 51.6783C38.3532 51.7562 38.3532 51.834 38.3532 51.9118C38.5089 52.8458 37.8084 53.7019 37.2636 54.4802C35.4736 57.2041 35.6292 60.7064 35.5514 63.9752C35.5514 64.9091 35.3957 65.9987 34.6175 66.4657C33.9948 66.8548 33.1387 66.6213 32.5161 66.1544C31.9713 65.6874 31.5822 64.987 31.2709 64.2865C30.1034 61.6403 29.2473 57.7489 30.0256 54.8693C30.3369 53.624 31.8935 53.3127 32.9831 52.8458C34.6953 52.3788 36.3297 51.9118 37.8863 51.6005Z" fill="#BCBCBB"/>
<path d="M51.9697 44.5958C52.5145 48.0202 52.9814 51.6781 55.1606 54.3243C55.6276 52.3786 54.6936 50.5107 54.1488 48.565C53.3706 45.6075 53.5262 42.4944 52.4366 39.6148C52.1253 38.8365 51.6584 38.0582 51.2692 37.2799C50.9579 36.6573 49.8683 34.7116 48.9344 35.3342C48.0783 35.9568 49.557 37.2799 49.9461 37.8247C51.1135 39.9261 51.5805 42.3387 51.9697 44.5958Z" fill="#BCBCBB"/>
<path d="M14.5348 13.2307C14.457 14.0868 14.457 15.0208 14.6905 15.8769C15.0018 16.733 15.7023 17.5113 16.5584 17.5891C16.8697 17.5891 17.181 17.5891 17.4145 17.3556C17.7258 17.1221 17.8036 16.733 17.8036 16.3439C17.8814 15.4099 18.0371 14.476 17.7258 13.6199C17.648 13.3086 17.4923 13.0751 17.4145 12.8416C17.181 12.3746 16.9475 11.9077 16.714 11.4407C16.4027 10.7402 15.7801 8.79453 14.924 9.8063C14.3792 10.4289 14.6127 12.3746 14.5348 13.2307Z" fill="#BCBCBB"/>
<path d="M2.78241 9.33914C2.78241 9.49479 2.78241 9.65045 2.70458 9.72828C2.62675 9.80611 2.54893 9.88394 2.4711 9.88394C2.08196 10.1174 1.69282 10.2731 1.30368 10.5066C1.22585 10.5844 1.0702 10.5844 0.992375 10.5844C0.914546 10.5844 0.914537 10.5066 0.836709 10.4287C0.447568 9.26131 0.836704 5.60339 2.31544 5.3699C4.10549 4.98076 2.86024 8.48303 2.78241 9.33914Z" fill="#BCBCBB"/>
<path d="M31.1145 54.1679C31.7371 53.8565 32.3597 53.5452 32.9823 53.3117C34.928 52.5335 36.8738 51.7552 38.8195 50.9769C39.2086 50.8212 39.5199 50.6656 39.909 50.5878C40.1425 50.5099 40.376 50.5099 40.6095 50.7434C41.7769 51.9108 42.9443 53.0783 44.0339 54.3235C44.4231 54.7127 45.4348 56.8918 45.7462 57.3588C45.5127 56.814 44.8122 55.1018 44.5009 54.09C44.3452 53.7787 44.1896 53.4674 43.9561 53.2339C43.3335 52.4556 42.633 51.6773 41.7769 51.1325C41.5434 50.9769 41.3878 50.7434 41.1543 50.5878C41.31 50.3543 41.3878 50.1208 41.4656 49.9651C40.9986 49.6538 40.9986 49.6538 40.5317 49.7316C39.1308 49.9651 37.8077 50.3543 36.4846 50.9769C34.8502 51.7552 33.2158 52.5335 31.5036 53.0783C30.4918 53.3896 29.4801 53.9344 28.624 54.557C28.4683 54.6348 28.3126 54.7905 28.157 54.8683C28.0013 54.9461 27.7679 55.024 27.4565 55.1018C27.5344 54.6348 27.6122 54.3235 27.6122 54.09C28.3905 53.7787 29.7914 52.6891 30.1805 52.0665C29.7136 52.3778 29.3244 52.6113 28.9353 52.8448C28.5461 53.0783 28.3126 53.4674 27.7678 53.4674C27.9235 52.9226 27.8457 52.3778 28.3127 51.9887C28.7796 51.5995 29.2466 51.1326 29.8692 50.9769C30.0249 50.8991 30.2584 50.8212 30.1027 50.4321C29.4801 50.8212 28.8574 51.2104 28.0792 51.5995C28.3126 50.5099 28.5461 49.4982 28.7018 48.5642C28.8575 47.8638 28.9353 47.0855 29.0909 46.385C29.0909 46.3072 29.0131 46.1516 28.9353 45.9181C28.8574 46.1516 28.7796 46.3072 28.7796 46.385C28.7018 46.9298 28.5461 47.4746 28.4683 48.0194C28.2348 49.0312 28.0013 50.1208 27.7678 51.1325C27.5344 51.9887 27.3787 52.7669 27.1452 53.6231C26.8339 55.024 26.4448 56.4249 26.2113 57.8258C25.9778 58.9154 25.8222 60.005 25.5887 61.0167C25.5108 61.2502 25.5108 61.5615 25.3552 61.7172C25.1217 61.9507 25.1217 62.1063 25.1995 62.3398C25.2774 62.8068 25.3552 63.3516 25.3552 63.8185C25.2773 65.9977 25.1995 68.2547 25.1217 70.4339C25.0439 71.8348 25.1217 73.3136 24.7326 74.7145C24.4991 75.6484 24.4991 76.738 24.4212 77.7498C24.3434 79.1507 24.3434 80.6294 24.3434 82.0303C24.3434 83.3534 24.2656 84.6765 24.2656 85.9996C24.2656 87.0892 24.2656 88.1787 23.9543 89.1905C23.7208 89.9688 23.0982 90.5136 22.3199 90.8249C22.0864 90.2023 22.4755 89.5797 22.242 88.8792C21.6194 89.5797 21.7751 90.2801 21.7751 90.9806C20.919 91.0584 20.7633 90.9027 20.8411 90.1245C20.8411 89.9688 20.919 89.7353 20.919 89.5797C20.919 89.3462 20.9968 89.1127 21.0746 88.8792C20.919 88.8792 20.8411 88.8014 20.8411 88.8014C20.3742 89.2683 20.452 89.9688 20.2185 90.5914C19.3624 90.0466 19.2067 89.6575 19.4402 88.8792C19.5959 88.4901 19.8294 88.1009 20.0629 87.7896C20.2964 87.4783 20.6855 87.167 20.9968 86.8557C21.0746 86.7778 21.0746 86.7 21.1525 86.4665C20.9968 86.3887 20.7633 86.3109 20.7633 86.3109C20.919 85.6883 21.0746 85.2991 21.0746 84.8321C21.1525 83.1978 21.2303 81.6412 21.2303 80.0068C21.2303 78.9172 21.2303 77.8276 21.2303 76.8158C21.2303 75.1036 21.2303 75.1036 22.6312 74.1697C22.7868 74.014 23.0203 73.9362 23.0203 73.5471C22.4755 73.9362 21.9307 74.2475 21.3859 74.6367C21.0746 73.9362 21.6194 73.6249 22.0086 73.2357C22.3977 72.8466 22.7869 72.6131 23.2538 72.3018C22.4755 72.3018 22.0864 73.0801 21.3081 73.3136C21.3081 71.757 21.3081 70.3561 21.3081 68.8774C21.3081 67.6321 21.5416 66.4647 21.5416 65.2195C21.6194 63.8185 21.6194 62.3398 21.5416 60.9389C21.4638 59.8493 21.2303 58.6819 20.919 57.5923C20.7633 56.814 20.2964 56.1914 19.7516 55.6466C19.5181 55.4131 19.2846 55.1796 18.8954 55.3353C18.8176 55.7244 19.0511 55.8801 19.2846 56.1136C19.4402 56.347 19.6737 56.6583 19.9072 56.9697C18.195 57.5923 16.5606 57.9036 14.7705 57.281C15.1597 56.6584 15.7823 56.4249 16.0158 55.8801C15.471 56.1914 15.004 56.5805 14.5371 56.9697C14.1479 57.281 14.0701 57.281 13.4475 56.8918C14.1479 56.2692 14.7706 55.5688 15.471 54.9461C15.471 54.8683 15.3932 54.8683 15.3932 54.7905C14.5371 55.4131 13.7588 56.1136 13.0583 56.814C12.5914 56.6584 13.1362 55.9579 12.5135 55.8022C12.4357 56.1914 12.3579 56.5027 12.3579 56.814C11.9687 58.9154 11.9687 61.0167 11.5796 63.1181C11.2683 64.9081 11.2683 66.776 11.1126 68.5661C11.1126 68.8774 10.957 69.1109 10.7235 69.2665C10.1009 69.6557 9.47824 70.1226 8.85562 70.5896C8.77779 70.6674 8.69995 70.7452 8.62212 70.9009C9.55606 70.5896 10.1787 69.8891 11.0348 69.3443C11.0348 69.5778 11.1126 69.7335 11.1126 69.8891C11.1126 70.5896 11.1126 71.3679 11.1126 72.0683C11.1905 76.1154 11.0348 80.0846 10.8013 84.0539C10.7235 85.3769 10.49 86.6222 9.86737 87.7118C9.55606 88.3344 8.69996 88.8792 7.9995 88.957C7.92168 88.2566 8.15516 87.634 8.38864 86.7778C8.15516 86.9335 7.9995 86.9335 7.92167 87.0113C7.4547 87.7118 7.53253 88.4901 7.4547 89.3462C7.22121 89.424 6.98772 89.5018 6.59858 89.6575C6.59858 89.1905 6.52077 88.8014 6.52077 88.4901C6.52077 88.1009 6.67642 87.7896 6.75425 87.3226C6.59859 87.4005 6.52077 87.3226 6.44294 87.4005C6.36511 87.4783 6.20944 87.6339 6.20944 87.7118C6.05379 88.3344 5.97596 88.957 5.89813 89.5018C5.11985 89.424 4.88637 89.2683 4.80854 88.5679C4.65289 87.4783 4.80854 86.3887 5.58683 85.6104C5.82031 85.2991 6.13163 85.0656 6.44294 84.7543C6.83208 84.3652 7.14339 83.976 7.53253 83.5869C7.68819 83.4312 7.84385 83.1977 7.61036 83.0421C7.37688 82.8864 7.29905 83.1199 7.14339 83.2756C6.9099 83.5091 6.67642 83.8204 6.44294 84.0539C6.36511 83.8204 6.36511 83.6647 6.44294 83.5091C7.22122 81.1742 7.61035 78.7615 7.84384 76.3489C7.84384 76.1154 7.84385 75.8819 7.9995 75.6484C8.38864 75.0258 8.38864 74.3253 8.31081 73.5471C8.23298 72.7688 8.15515 71.9905 8.15515 71.29C8.07732 70.0448 7.9995 68.8774 7.9995 67.6321C7.92168 66.3869 7.84384 65.1416 7.92167 63.8964C8.07733 61.5615 7.84384 59.2267 7.53253 56.9697C7.29905 55.024 6.67642 53.1561 6.0538 51.2104C5.43117 49.2647 5.04203 47.3968 4.80854 45.4511C4.80854 45.2954 4.73073 44.9841 4.57507 44.9063C4.34159 44.7506 4.26374 44.5172 4.26374 44.2058C4.26374 43.1941 4.26374 42.1045 4.34157 41.0927C4.4194 40.2366 4.41939 39.3805 4.65288 38.5244C5.11985 36.5009 5.58682 34.5552 6.20944 32.6095C6.67641 30.9751 7.37687 29.3407 7.84384 27.7063C8.15515 26.6167 8.46648 25.4493 8.46648 24.2818C8.46648 23.6592 8.54429 22.9588 8.62212 22.3361C8.77777 22.3361 8.8556 22.3361 9.01126 22.3361C10.2565 22.4918 11.3461 22.0248 12.2801 21.1687C12.747 20.7017 13.2918 20.2348 13.8366 19.69C14.2258 19.3008 14.6149 18.8339 14.9262 18.3669C15.004 18.2112 15.2375 18.0556 15.004 17.8221C14.9262 17.8999 14.8484 17.8999 14.7705 17.9778C13.8366 18.9117 12.9805 19.8456 12.0466 20.7796C11.6574 21.0909 11.2683 21.4022 10.8013 21.6357C10.1009 21.8692 9.32258 22.0248 8.69995 21.6357C6.75425 20.5461 5.50899 18.9895 5.04202 16.7325C4.80854 15.7207 4.65289 14.709 4.49724 13.6972C5.11986 13.0746 5.509 12.2185 5.66466 11.2845C5.89814 10.2728 5.509 9.88363 4.4194 9.88363C4.34158 9.88363 4.34157 9.88363 4.26374 9.88363C3.8746 9.88363 3.40765 9.96146 3.01851 9.96146C2.39588 9.96146 1.85107 10.4284 2.00673 11.1289C2.08455 11.985 2.39587 12.8411 3.25198 13.3081C3.56329 13.4637 3.64112 13.6972 3.64112 14.0085C3.64112 16.1099 3.32981 18.1334 2.86284 20.1569C2.86284 20.1569 2.785 20.2348 2.70718 20.3126C2.55152 20.1569 2.31805 20.0791 2.24023 19.8456C2.00674 19.3787 1.85107 18.9895 1.69542 18.5226C1.22845 16.5769 1.38412 14.5533 1.85108 12.6076C1.92891 12.3741 2.00674 12.2185 1.77325 12.0628C1.30628 12.1406 1.46193 12.6076 1.22844 12.8411C1.15062 12.6854 1.15061 12.6076 1.15061 12.5298C0.917127 11.1289 0.839304 9.72798 0.839304 8.24924C0.839304 7.3153 1.15063 6.61485 1.77325 5.9144C2.24022 5.3696 2.78501 4.8248 3.25198 4.20218C3.48547 3.96869 3.71895 3.73521 4.03026 3.57955C3.71895 4.43566 3.48547 5.21394 3.25198 5.9144C3.17415 5.83657 3.17416 5.83657 3.01851 5.68091C2.94068 6.84833 2.86284 7.93793 2.78501 9.10535C2.4737 9.41666 2.00672 9.8058 1.53975 10.1171C1.85107 10.3506 2.00674 10.1171 2.16239 10.0393C2.31805 9.96146 2.47371 9.72797 2.62937 9.72797C3.01851 9.8058 3.25198 9.49449 3.56329 9.33883C3.8746 9.10535 4.18592 8.87187 4.49724 8.71621C4.88638 8.48272 5.27551 8.32707 5.58683 8.01576C6.20945 7.39313 6.75426 6.61485 7.29905 5.9144C7.1434 5.9144 6.98774 5.99222 6.90991 5.99222C6.75426 5.99222 6.67643 5.9144 6.52077 5.83657C6.36512 6.14788 6.44293 6.61485 5.8203 6.77051C5.89813 6.45919 5.89814 6.22571 5.97597 5.9144C5.27551 5.9144 4.73071 6.07005 4.26374 6.38136C4.18591 6.45919 4.03027 6.69268 4.1081 6.84833C4.18592 7.23747 4.41941 7.62661 4.57507 8.09358C4.26376 8.24924 3.87462 8.48272 3.40765 8.79404C3.17416 8.32707 3.25199 7.8601 3.40765 7.47096C3.79679 6.14788 4.03025 4.74697 4.65288 3.50172C4.73071 3.34607 4.65288 3.11258 4.65288 2.80127C4.26374 2.95693 4.03027 2.95693 3.79679 3.11258C3.48548 3.34607 3.17415 3.65738 2.86284 3.96869C2.39587 4.43566 1.92891 4.98046 1.46194 5.52525C0.994975 6.07005 0.450163 6.53702 0.450163 7.23747C0.294507 9.10535 0.37233 11.0511 0.761471 12.9189C0.917127 13.8529 1.15063 14.709 0.99497 15.6429C0.839314 16.7325 1.07279 17.8999 1.30628 18.9895C1.38411 19.3787 1.53977 19.7678 1.77325 20.0791C2.08456 20.7017 2.62936 20.8574 3.25198 20.7796C4.03026 20.7796 4.41941 20.1569 4.96421 19.6122C5.27552 19.3008 5.04202 18.8339 5.04202 18.4447C5.04202 18.3669 5.04202 18.3669 5.04202 18.2112C5.58682 19.6122 6.44294 20.6239 7.53253 21.48C7.76601 21.6357 7.92167 21.947 7.92167 22.2583C7.9995 23.1144 7.76602 23.9705 7.61036 24.8266C7.37688 26.0719 7.22123 27.3171 6.90991 28.6402C6.52077 30.5859 5.66465 32.376 5.11985 34.3217C4.73071 35.4891 4.41941 36.6565 4.18593 37.8239C4.03027 38.5244 4.10809 39.3027 3.95243 40.0031C3.71895 41.4819 3.79679 42.9606 3.79679 44.4393C3.79679 44.6728 3.79677 44.9063 3.8746 45.1398C4.03025 45.7624 4.26375 46.4629 4.4194 47.0855C4.9642 49.3425 5.509 51.5995 6.0538 53.8565C6.20946 54.557 6.52076 55.2574 6.75425 55.9579C6.83208 56.347 6.90989 56.814 6.98772 57.2031C7.14338 58.2149 7.29904 59.2267 7.37686 60.1606C7.45469 60.9389 7.37686 61.7172 7.37686 62.4176C7.45469 64.2077 7.61035 65.9199 7.37686 67.7099C7.29904 68.1769 7.29905 68.5661 7.29905 69.033C7.29905 69.3443 7.22122 69.6557 7.61036 69.8891C7.61036 69.6557 7.6882 69.4222 7.6882 69.1887C7.84385 70.7452 7.92168 72.3018 7.9995 73.8584C7.9995 74.2475 8.15516 74.7145 7.6882 74.948C7.61037 75.0258 7.61036 75.2593 7.61036 75.4149C7.76602 76.5045 7.53254 77.5163 7.29905 78.5281C6.98774 80.5516 6.52075 82.4973 5.8203 84.443C5.74247 84.7543 5.58684 85.0656 5.35335 85.2991C4.41941 86.3109 4.18592 87.5561 4.4194 88.957C4.49723 89.5797 4.80854 89.9688 5.43116 90.1245C5.66464 90.2023 5.89815 90.2801 6.13163 90.3579C6.36512 90.4358 6.5986 90.4358 6.83208 90.3579C7.9995 89.9688 9.08908 89.3462 10.1008 88.5679C10.2565 88.4122 10.4122 88.2566 10.49 88.1009C10.8791 87.2448 11.3461 86.4665 11.4239 85.5326C11.5018 84.5208 11.6574 83.5091 11.7352 82.4973C11.8131 80.2403 11.8909 77.9833 11.9687 75.7262C12.0466 73.7805 12.1244 71.8348 12.1244 69.8891C12.1244 69.5 12.1244 69.1109 12.1244 68.7995C12.3579 65.7642 12.6692 62.7289 12.9027 59.6936C12.9805 58.9932 13.0583 58.2927 13.214 57.4366C15.6266 58.3706 17.9615 58.3706 20.3742 57.5145C20.6855 58.5262 20.919 59.4602 21.0746 60.4719C21.3081 63.1959 21.1525 65.9199 20.919 68.6439C20.919 68.9552 20.8411 69.2665 20.8411 69.5778C20.8411 72.9244 20.7633 76.271 20.919 79.5398C20.9968 81.1742 20.919 82.8864 20.8411 84.5987C20.8411 85.2213 20.7633 85.7661 20.6855 86.3887C20.6077 86.7778 20.452 87.2448 20.1407 87.4783C19.4402 88.1009 19.1289 88.957 19.0511 89.891C18.9733 90.2801 19.0511 90.6693 19.4402 90.9806C19.985 91.4475 20.6077 91.7588 21.3081 91.9145C22.0086 92.0702 22.709 91.8367 23.3316 91.681C24.4212 91.3697 24.966 90.6693 25.1995 89.6575C25.5108 88.4901 25.6665 87.3226 25.5108 86.0774C25.433 85.3769 25.5108 84.6765 25.5108 83.976C25.5108 82.8864 25.5887 81.7968 25.5887 80.7851C25.5887 78.7616 25.5887 76.738 25.8221 74.7145C25.9 74.4032 25.9 74.014 25.9 73.7027C25.9778 72.6909 25.9778 71.6792 25.9778 70.5896C26.0556 68.8774 26.1335 67.243 26.2113 65.6086C26.2891 64.519 26.2113 63.4294 26.367 62.3398C26.6783 60.5498 26.9117 58.6819 27.3787 56.8918C27.4565 56.4249 27.6122 56.1136 28.0792 55.9579C28.5461 55.7244 29.0131 55.3353 29.4801 55.1018C29.7136 54.9461 29.947 54.9461 30.2584 54.7905C30.2584 55.4131 30.1805 55.9579 30.1805 56.4249C30.1805 56.9697 30.0249 57.5923 30.1027 58.1371C30.1805 59.3045 30.2583 60.5498 30.414 61.7172C30.6475 63.5072 31.2701 65.0638 32.5154 66.3869C33.3715 67.3208 34.1498 68.2547 35.0837 69.1887C35.7063 69.8113 36.3289 70.4339 37.0294 70.9009C37.4964 71.2122 37.652 71.6014 37.7298 72.1461C37.8077 73.7027 37.7299 75.2593 37.4964 76.8158C37.2629 78.1389 37.0294 79.462 37.1851 80.8629C37.1851 81.0964 37.1072 81.3299 36.8738 81.4077C36.1733 81.6412 35.7063 82.2638 35.395 82.8864C34.8502 83.8204 35.4728 85.0656 36.4846 85.2991C36.7959 85.3769 37.1072 85.3769 37.3407 85.4548C38.5081 85.6883 39.5199 85.3769 40.4538 84.7543C40.843 84.5208 41.0765 84.2095 41.1543 83.7425C41.2321 83.1199 41.3099 82.4973 41.3878 81.8747C41.3878 81.1742 41.3878 80.4738 41.3878 79.7733C41.4656 78.995 41.4656 78.1389 41.6991 77.3606C42.1661 75.6484 42.7108 74.014 43.2556 72.3796C43.4113 71.8348 43.567 71.29 43.8783 70.8231C44.1896 70.2004 44.2674 69.5 44.2674 68.7995C44.2674 68.4104 44.1118 68.0991 43.8005 67.8656C42.7887 67.1651 42.0882 66.2312 41.3878 65.1416C40.4538 63.5851 40.0647 61.8728 39.909 60.0828C39.7534 58.3706 40.0647 56.7362 40.6873 55.1018C40.9986 54.4013 41.2321 53.6231 41.4656 52.8448C41.4656 52.7669 41.4656 52.6113 41.4656 52.4556C41.31 52.5335 41.1543 52.5335 41.0765 52.6113C40.9986 52.6891 40.9208 52.9226 40.843 53.0783C40.4538 54.3235 40.0647 55.5688 39.6755 56.8918C39.5199 57.5145 39.4421 58.2149 39.4421 58.8375C39.3642 60.2384 39.5977 61.5615 39.909 62.8846C40.4538 64.8303 41.4656 66.5425 43.0222 67.8656C43.1778 68.0213 43.4113 68.1769 43.567 68.3326C43.9561 68.7217 43.8783 69.4222 43.3335 69.7335C42.3995 70.3561 41.3878 70.9009 40.4538 71.5235C40.376 71.6014 40.2982 71.6792 40.2204 71.757C40.2204 71.8348 40.2982 71.8348 40.2982 71.8348C40.7652 71.5235 41.31 71.1344 41.8547 70.8231C42.3995 70.5118 42.8665 70.0448 43.567 69.967C43.4891 70.4339 43.1778 70.6674 42.8665 70.9009C42.0882 71.3679 41.3878 71.8348 40.6873 72.3018C40.6095 72.3796 40.5317 72.5353 40.4538 72.6131C41.3878 72.3796 42.0104 71.6014 43.1 71.29C43.0222 71.6792 42.9443 71.9127 42.8665 72.0683C42.7108 72.4575 42.633 72.9244 42.4774 73.3136C42.3217 73.9362 42.0882 74.5588 41.8547 75.1814C41.4656 76.271 41.1543 77.3606 41.0765 78.5281C40.9986 79.929 40.9208 81.4077 40.9208 82.8086C40.9208 84.0539 39.8312 84.91 38.586 84.91C38.2746 84.2095 38.7416 83.4312 38.6638 82.7308C38.0412 83.1199 37.9633 83.3534 37.8855 84.91C36.9516 84.9878 36.7181 84.7543 36.7959 83.8982C36.7959 83.6647 36.8737 83.4312 36.9516 83.1978C36.9516 82.9643 37.0294 82.7308 37.1072 82.4973C36.1733 82.9643 36.4068 83.8204 36.1733 84.5208C36.0176 84.2873 35.9398 84.0539 35.862 83.8204C35.7841 83.1199 36.4068 82.2638 37.1851 81.9525C37.3407 81.8747 37.5742 81.7968 37.8077 81.719C37.8077 81.4077 37.7298 81.0964 37.7298 80.8629C37.8855 79.6955 37.8855 78.4502 38.119 77.2828C38.586 75.0258 38.4303 72.6131 38.586 70.3561C38.586 70.2783 38.5081 70.2004 38.4303 69.967C38.2747 70.2783 38.119 70.5118 38.0412 70.8231C37.652 70.5896 37.2629 70.3561 36.9516 70.1226C35.6285 68.9552 34.4611 67.6321 33.3715 66.2312C33.138 65.9199 32.9823 65.6086 32.671 65.2973C33.4493 64.6747 34.1498 64.052 34.928 63.5072C33.9163 63.7407 33.2936 64.519 32.4375 64.986C32.2819 64.7525 32.1262 64.519 32.0484 64.3633C32.5932 63.5851 33.3715 63.1959 33.9941 62.5733C33.138 62.8068 32.5154 63.4294 31.8149 63.8964C31.7371 63.5072 31.5814 63.2737 31.5036 62.9624C31.0366 60.4719 30.7253 57.9036 31.1145 55.3353C30.7253 54.557 30.8031 54.3235 31.1145 54.1679ZM4.96421 11.0511C4.57507 10.8954 4.57507 10.8954 4.57507 10.4284C4.88638 10.5063 4.96421 10.7397 4.96421 11.0511Z" fill="black"/>
<path d="M21.0732 20.5468C20.6063 20.8581 20.2171 21.1694 19.7502 21.4807C19.7502 21.5585 19.828 21.5585 19.828 21.6364C20.3728 21.4807 20.6841 20.9359 21.3067 20.7803C21.4624 21.0916 21.6959 21.4029 21.8515 21.6364C22.3185 22.4146 22.7855 23.1929 23.5638 23.8156C23.7972 24.049 24.1085 24.2047 24.2642 24.4382C26.2877 26.6952 28.8561 28.0183 31.6579 29.03C31.8135 29.1079 31.9692 29.1079 32.047 29.1079C32.9031 29.2635 33.7592 29.3414 34.6153 29.497C35.8606 29.7305 37.1837 30.1196 38.4289 30.2753C40.219 30.5866 41.9312 31.0536 43.5656 31.754C43.7991 31.8319 44.0326 31.9875 44.266 32.0653C46.0561 33.1549 47.5348 34.5558 48.5466 36.3459C48.9357 37.0463 49.4027 37.8246 49.7918 38.5251C50.181 39.3034 50.4923 40.0816 50.8036 40.8599C51.4262 42.5721 52.1267 44.3622 52.438 46.1522C52.6715 47.4753 52.9828 48.7984 53.2163 50.1215C53.6054 52.2228 54.0724 54.3242 54.4615 56.4256C54.6172 57.2817 54.7728 58.1378 55.0063 58.9939C55.162 59.6165 55.3955 60.317 55.5511 60.9396C55.7846 61.7957 56.0959 62.6518 56.3294 63.5079C56.3294 63.5857 56.3294 63.6636 56.3294 63.7414C55.9403 63.5079 55.8624 62.8853 55.3176 62.6518C55.3176 62.8075 55.3176 62.8853 55.3176 62.9631C55.7846 64.2084 56.3294 65.3758 56.7964 66.621C56.8742 66.8545 56.952 67.088 57.0299 67.3215C57.1855 67.2437 57.3412 67.1658 57.4968 67.088C57.1855 66.3097 56.8742 65.5314 56.5629 64.7532C56.4851 64.5197 56.4072 64.2862 56.3294 64.0527C56.7964 63.9749 56.7185 63.6636 56.6407 63.4301C56.1737 61.7179 55.7068 59.9278 55.162 58.2156C55.0063 57.5152 54.8507 56.8147 54.8507 56.0364C55.0063 56.1142 55.0842 56.1921 55.162 56.1921C55.5511 56.5034 55.9403 56.8147 56.4072 57.126C57.2633 57.6708 58.2751 57.7486 59.2869 57.9043C59.7538 57.9821 60.0651 57.7486 59.9873 57.2038C59.8317 56.1921 59.5982 55.1803 58.8199 54.402C58.6642 54.2464 58.4308 54.0129 58.3529 53.8572C57.8081 52.8455 57.1855 51.9115 56.6407 50.8998C56.4851 50.5106 56.2516 50.1215 56.1737 49.7323C55.7846 48.0201 55.3176 46.3079 55.0063 44.5957C54.5394 41.9495 53.7611 39.3812 52.5158 36.9685C52.438 36.8129 52.3602 36.6572 52.2045 36.5015C51.971 36.1902 51.7375 35.8011 51.5041 35.4898C51.2706 35.1006 51.0371 34.8672 50.5701 34.8672C50.2588 34.8672 49.9475 34.7893 49.714 34.7115C49.247 34.6337 48.7801 34.5558 48.3909 34.945C48.0018 34.5558 47.6905 34.1667 47.3013 33.7776C46.2896 32.7658 45.2 31.754 43.8769 31.2092C42.7095 30.6644 41.4642 30.1975 40.1411 29.964C39.0515 29.7305 37.8841 29.4192 36.7945 29.2635C35.4715 29.03 34.1484 28.8744 32.8253 28.6409C32.514 28.5631 32.1249 28.4074 31.8135 28.3296C31.5801 28.2518 31.3466 28.1739 31.1131 28.1739C30.7239 28.0961 30.4126 28.0183 30.0235 27.9404C27.1438 26.9287 25.1203 24.8273 23.0189 22.726C22.9411 22.6481 22.9411 22.5703 22.8633 22.4925C21.5402 20.6246 20.4506 18.6011 20.1393 16.2662C20.1393 16.1106 20.0615 15.8771 19.6723 15.9549C19.5945 16.7332 19.9058 17.5115 20.1393 18.2898C20.4506 19.068 20.7619 19.7685 21.0732 20.5468ZM55.4733 49.3432C55.4733 50.0436 55.7068 50.6663 56.0181 51.2889C56.485 52.145 56.952 53.0789 57.419 53.9351C57.5747 54.2464 57.8081 54.6355 57.9638 54.9468C58.3529 55.5694 58.6643 56.1142 59.0534 56.7369C59.1312 56.8147 59.1312 56.9704 59.209 57.0482C58.8199 57.3595 58.4308 57.2817 58.0416 57.2038C56.4851 56.7369 55.3176 55.8808 54.6172 54.4799C54.5394 54.2464 54.4615 54.0129 54.3837 53.7794C54.1502 52.7676 53.9946 51.678 53.7611 50.6663C53.6832 50.1993 53.7611 49.888 54.1502 49.6545C54.5393 49.421 54.9285 49.1097 55.3955 48.7984C55.3955 49.0319 55.4733 49.1875 55.4733 49.3432ZM54.4615 44.5957C54.695 45.6074 54.8507 46.697 55.162 47.7088C55.3176 48.4093 55.3176 48.4093 54.695 48.7984C54.5394 48.8762 54.3059 49.0319 54.1502 49.1097C53.9946 49.1875 53.8389 49.2654 53.6832 49.421C53.4497 48.7206 53.4498 48.6427 53.9167 48.4093C54.1502 48.3314 54.3837 48.2536 54.5393 48.0979C54.6172 48.0201 54.695 47.9423 54.9285 47.7866C54.3059 47.7088 53.9167 48.1758 53.4498 48.2536C52.9828 46.4636 52.5158 44.6735 52.0489 42.8056C52.5937 42.4165 53.0606 41.8717 53.8389 41.5604C53.9946 42.7278 54.228 43.6617 54.4615 44.5957ZM48.7801 35.4898C48.9357 35.3341 49.247 35.3341 49.4805 35.2563C49.714 35.2563 49.8697 35.3341 50.1032 35.3341C50.648 35.3341 51.1149 35.5676 51.3484 36.1902C51.4262 36.4237 51.6597 36.5794 51.7375 36.735C51.971 37.1242 52.2045 37.4355 52.3602 37.8246C52.7493 38.7586 53.1385 39.6925 53.5276 40.6264C53.7611 41.3269 53.7611 41.3269 53.1385 41.6382C52.7493 41.8717 52.2823 42.183 51.8154 42.4165C51.7375 42.2608 51.6597 42.183 51.6597 42.1052C50.8814 40.0038 50.0253 37.9803 48.9357 36.0346C48.7801 35.9567 48.7022 35.6454 48.7801 35.4898Z" fill="black"/>
<path d="M16.2488 12.7641C15.704 13.1533 15.3149 13.4646 14.8479 13.8537C14.3809 14.2429 14.3809 14.2429 14.6144 14.8655C15.3149 14.5542 15.8597 13.7759 16.7936 13.6981C16.0153 14.2429 15.3927 14.7877 14.6923 15.2546C15.0814 16.4221 15.7818 17.2782 16.9493 17.5895C17.5719 17.7451 18.1167 17.4338 18.1945 16.7334C18.2724 15.9551 18.2723 15.1768 18.2723 14.3985C18.2723 14.0094 18.2723 13.6981 18.2723 13.3089C18.2723 13.1533 18.3502 12.9198 18.428 12.6863C18.7393 13.1533 18.7393 13.3089 18.6615 14.5542C18.895 14.2429 18.895 14.2429 19.0506 13.0755C19.1284 13.3089 19.1285 13.3868 19.2063 13.5424C19.2841 13.5424 19.3619 13.4646 19.3619 13.4646C19.9067 12.1415 20.9185 11.1298 21.5411 9.8845C21.9303 9.18405 22.6307 8.71708 23.0199 8.01662C23.3312 7.394 23.7203 6.77137 24.0316 6.22658C24.3429 5.60395 24.3429 5.52612 23.7203 5.21481C22.4751 4.59219 21.152 4.04739 19.9067 3.50259C18.8171 3.03562 17.6497 2.64648 16.4823 2.25734C16.3266 2.17951 16.171 2.10168 16.0153 2.02386C16.171 1.63472 16.4045 1.63472 16.638 1.71254C18.1945 2.33517 19.7511 2.87997 21.3076 3.50259C22.2416 3.89173 23.0977 4.3587 24.0316 4.74784C24.3429 4.9035 24.6542 5.13698 24.9656 5.37047C24.8877 5.60395 24.8099 5.91526 24.7321 6.07092C24.1873 7.00486 23.7203 8.01662 23.1755 8.95056C23.0977 9.02839 23.0198 9.26187 22.942 9.26187C22.4751 9.3397 22.3194 9.72884 22.0859 10.118C21.0742 11.5189 20.0624 12.9198 19.3619 14.5542C19.2841 14.7098 19.2063 14.8655 19.1284 15.099C18.895 15.7216 18.7393 16.3442 18.5837 17.0447C18.3502 17.823 17.6497 18.2899 16.7936 18.0565C15.5484 17.6673 14.7701 16.8112 14.2253 15.6438C13.447 13.9316 13.5248 12.1415 13.7583 10.3515C13.914 9.49536 13.9918 8.56142 14.0696 7.70531C14.1474 6.92703 14.3031 6.14875 14.4588 5.37047C14.6922 4.67001 15.0814 3.96956 15.6262 3.42476C15.704 3.42476 15.704 3.50259 15.7818 3.50259C15.704 3.65825 15.704 3.89173 15.6262 4.04739C15.0036 4.98133 14.8479 6.07092 14.6923 7.16051C14.4588 8.40577 14.3031 9.65102 14.1474 10.8963C14.0696 11.7524 14.0696 12.6085 14.2253 13.6203C14.6144 13.3868 14.8479 13.2311 15.1592 12.9976C15.5483 12.9976 15.704 12.6085 16.2488 12.7641Z" fill="black"/>
<path d="M4.49609 2.80181C4.49609 2.33484 4.72958 2.17919 4.88523 2.10136C5.3522 1.79005 5.81917 1.55656 6.36396 1.24525C7.2979 0.622625 8.38749 0.466969 9.39926 0.0778282C9.71057 0 10.0219 0 10.3332 0C11.4228 0.233484 12.5124 0.466969 13.5242 0.700453C14.2246 0.85611 14.7694 1.24525 15.392 1.55656C15.7812 1.79005 15.9368 2.02353 16.0925 2.4905C16.0147 2.4905 15.9368 2.4905 15.9368 2.4905C14.7694 1.55656 13.3685 1.16742 11.8898 0.778282C11.345 0.622625 10.878 0.544797 10.3332 0.466969C9.94406 0.389141 9.55493 0.389141 9.24362 0.544797C7.84271 1.01177 6.36396 1.40091 5.19654 2.33484C5.04089 2.56833 4.80741 2.64616 4.49609 2.80181Z" fill="black"/>
<path d="M10.335 8.79478C10.0237 8.56129 9.71242 8.48347 9.55676 8.24998C9.24545 7.78301 9.24544 7.16039 9.47893 6.61559C9.55676 6.30428 9.86808 6.30428 10.0237 6.38211C10.7242 6.84907 11.5025 6.84907 12.2807 7.00473H12.3586C12.4364 7.08256 12.5921 7.16039 12.5921 7.31604C12.5921 7.39387 12.4364 7.54953 12.3586 7.54953C11.8916 7.4717 11.6581 7.86084 11.3468 8.09432C11.0355 8.32781 10.6464 8.56129 10.335 8.79478Z" fill="black"/>
<path d="M9.08781 43.4282C9.08781 43.1169 9.08781 42.7277 9.08781 42.4164C9.16563 40.0816 8.77649 37.7467 8.23169 35.4119C8.15386 34.9449 7.84256 34.5558 7.60908 34.0888C7.53125 33.9331 7.45342 33.6996 7.68691 33.6218C7.92039 33.544 8.07603 33.6218 8.15386 33.9331C9.16562 36.4236 9.55477 38.9141 9.47695 41.5603C9.47695 42.1829 9.39911 42.8055 9.32128 43.4282C9.24345 43.4282 9.16563 43.4282 9.08781 43.4282Z" fill="black"/>
<path d="M20.9187 29.5748C20.8409 29.4191 20.6852 29.3413 20.6074 29.1856C19.9069 27.9404 19.2065 26.6951 18.973 25.2164C18.8952 24.5938 18.5839 24.049 18.4282 23.5042C18.2725 22.9594 18.1169 22.3368 18.0391 21.7141C18.0391 21.6363 18.1169 21.5585 18.1947 21.4028C18.2726 21.4807 18.4282 21.5585 18.506 21.5585C18.506 21.5585 18.506 21.5585 18.506 21.6363C18.8952 22.9594 19.2065 24.2825 19.5956 25.6056C19.8291 26.3838 20.2183 27.0843 20.5296 27.7847C20.7631 28.3295 21.1522 28.7965 21.1522 29.3413C20.9965 29.497 20.9187 29.497 20.9187 29.5748Z" fill="black"/>
<path d="M13.6031 42.0278C12.5135 40.3156 13.2918 35.179 14.6927 34.4785C14.6149 35.179 14.2257 35.7238 13.9922 36.3464C13.8366 36.969 13.7587 37.5916 13.6031 38.3699C14.0701 38.0586 14.4592 37.8251 14.9262 37.5916C14.9262 37.9808 14.6927 38.0586 14.4592 38.1364C13.4474 38.9147 13.3696 38.9147 13.4474 40.16C13.4474 40.5491 13.5253 40.9383 13.5253 41.2496C13.5253 41.483 13.5253 41.6387 13.6031 42.0278Z" fill="black"/>
<path d="M9.24502 10.7407C9.94547 11.052 10.2568 11.6747 10.4124 12.2973C10.8016 13.776 10.9572 15.2548 10.8794 16.8113C10.8794 16.967 10.8016 17.1226 10.7237 17.2005C10.6459 17.2005 10.6459 17.2005 10.5681 17.2005C10.5681 16.967 10.4902 16.7335 10.4902 16.5C10.3346 15.2548 10.179 14.0095 10.0233 12.7643C9.94547 12.2195 9.71198 11.6747 9.24502 11.2855C9.01153 11.052 9.08936 11.052 9.24502 10.7407Z" fill="black"/>
<path d="M14.6915 25.4497C14.925 24.9828 15.0806 24.5158 15.392 23.8932C15.4698 24.1267 15.5476 24.2823 15.4698 24.3601C15.3141 24.8271 15.2363 25.2941 15.0028 25.6832C14.6915 26.228 14.3802 26.228 14.0689 25.6832C13.9132 25.3719 13.7576 25.0606 13.6797 24.8271C13.3684 24.1267 13.0571 23.504 12.7458 22.8036C12.7458 22.8036 12.668 22.7258 12.668 22.6479C12.668 22.4923 12.7458 22.4144 12.7458 22.2588C12.8236 22.2588 12.9793 22.2588 13.0571 22.3366C13.2128 22.5701 13.3684 22.8036 13.4463 23.0371C13.7576 23.6597 13.991 24.2823 14.2245 24.9049C14.3024 25.0606 14.3802 25.2163 14.5358 25.3719C14.5358 25.4497 14.6137 25.4497 14.6915 25.4497Z" fill="black"/>
<path d="M43.7229 42.8835C43.7229 42.9613 43.645 43.117 43.645 43.1948C42.8667 44.3622 42.0885 45.5296 41.3102 46.6971C41.0767 47.0862 40.6876 47.3197 40.3763 47.631C40.2206 47.7867 39.9871 47.8645 39.6758 48.098C39.6758 47.7867 39.6758 47.631 39.6758 47.5532C41.1545 46.5414 41.9328 44.8292 42.9446 43.4283C43.1002 43.1948 43.3337 43.0391 43.5672 42.8057C43.645 42.8835 43.7229 42.8835 43.7229 42.8835Z" fill="black"/>
<path d="M8.07725 9.18312C7.61028 8.5605 7.53244 7.86004 7.45461 7.15959C7.37678 6.53697 8.15506 5.83651 8.93334 5.60303C8.77768 5.91434 8.62205 6.30348 8.46639 6.45914C7.99942 6.92611 7.9994 7.39308 8.15506 8.0157C8.23289 8.24918 8.31072 8.48267 8.31072 8.71615C8.31072 8.87181 8.31072 9.02747 8.31072 9.18312C8.15507 9.18312 8.07725 9.18312 8.07725 9.18312Z" fill="black"/>
<path d="M9.63546 26.6944C8.935 26.0717 8.70152 24.5152 9.24632 23.5034C9.55763 23.5034 9.55762 23.7369 9.55762 23.9704C9.55762 24.3595 9.47979 24.6708 9.40196 25.06C9.40196 25.5269 9.40196 25.6826 9.7911 26.0717C10.0246 25.7604 10.2581 25.4491 10.4915 25.2156C10.4137 25.9939 10.1024 26.3831 9.63546 26.6944Z" fill="black"/>
<path d="M44.579 46.1528C44.579 46.3863 44.579 46.4641 44.579 46.4641C43.645 47.1646 42.7889 47.8651 42.1663 48.8768C41.9328 48.5655 42.0885 48.4098 42.1663 48.332C42.6333 47.7872 43.1781 47.3203 43.7228 46.8533C43.9563 46.6198 44.1898 46.4641 44.579 46.1528Z" fill="black"/>
<path d="M44.267 45.4521C43.4887 46.5417 42.3991 47.0087 41.543 47.787C41.543 47.32 41.9321 47.0865 42.2434 46.8531C42.5547 46.6196 42.866 46.3861 43.2552 46.2304C43.5665 45.9969 43.6443 45.53 44.267 45.4521Z" fill="black"/>
<path d="M6.59892 10.0403C6.28761 9.80681 6.05415 9.57333 5.74283 9.41767C5.50935 9.26201 5.19803 9.26201 4.88672 9.10636C5.19803 8.79504 5.74283 8.71722 6.05414 8.9507C6.44328 9.18418 6.67675 9.4955 6.59892 10.0403Z" fill="black"/>
<path d="M45.1984 47.3974C44.498 48.02 43.7975 48.7205 43.0971 49.3431C43.0192 49.3431 43.0192 49.2653 42.9414 49.2653C42.9414 49.1096 42.9414 48.9539 43.0192 48.9539C43.6419 48.4091 44.3423 47.8644 45.0428 47.3974C45.0428 47.3974 45.1206 47.3974 45.1984 47.3974C45.1984 47.3974 45.1984 47.3196 45.1984 47.3974Z" fill="black"/>
<path d="M6.5193 4.90278C6.36364 4.51364 6.13016 4.20233 5.66319 4.1245C5.58536 4.1245 5.50752 3.89102 5.42969 3.81319C5.58534 3.73536 5.741 3.65753 5.81883 3.73536C6.51928 3.81319 6.75279 4.20233 6.5193 4.90278Z" fill="black"/>
<path d="M8.77734 4.5148C9.55563 3.65869 10.0226 3.58086 10.6452 3.97C10.3339 4.04783 10.0226 4.12566 9.71127 4.28131C9.47778 4.35914 9.24431 4.67045 8.77734 4.5148Z" fill="black"/>
<path d="M10.2588 68.3328C9.63616 68.7219 9.09138 69.1111 8.46875 69.5002C8.54658 68.8776 9.63616 68.255 10.2588 68.3328Z" fill="black"/>
<path d="M15.7035 38.6025C15.0031 38.9917 14.4583 39.3808 13.7578 39.6921C13.9913 39.1473 14.7696 38.6804 15.7035 38.6025Z" fill="black"/>
<path d="M20.6819 20.1577C20.2149 20.5469 19.7479 20.8582 19.2031 21.0138C19.4366 20.5469 19.9814 20.2355 20.6819 20.1577Z" fill="black"/>
<path d="M2.31857 7.93799C1.85161 8.32713 1.38464 8.71627 0.839844 9.10541C1.07333 8.40496 1.61812 7.93799 2.31857 7.93799Z" fill="black"/>
<path d="M6.67488 13.4648C6.75271 13.6205 6.83055 13.7762 6.90838 13.854C6.83055 13.9318 6.7527 14.0096 6.59705 14.0096C6.51922 14.0096 6.44141 13.854 6.44141 13.7762C6.44141 13.6983 6.51922 13.6205 6.67488 13.4648Z" fill="black"/>
<path d="M7.21787 15.4106C7.2957 15.5663 7.45135 15.6441 7.45135 15.722C7.45135 15.7998 7.2957 15.8776 7.21787 15.8776C7.14005 15.8776 7.0622 15.722 6.98438 15.722C6.98438 15.6441 7.06222 15.5663 7.21787 15.4106Z" fill="black"/>
<path d="M8.07635 13.9307C7.92069 14.0086 7.76502 14.0864 7.76502 14.0864C7.68719 14.0864 7.6872 13.9307 7.60938 13.8529C7.6872 13.7751 7.76502 13.6973 7.84285 13.6973C7.84285 13.7751 7.92069 13.8529 8.07635 13.9307Z" fill="black"/>
<path d="M51.8164 41.6379C51.8942 41.2488 52.2055 41.171 52.5947 41.2488C52.3612 41.4045 52.1277 41.6379 51.8942 41.7936C51.8942 41.7936 51.8942 41.7158 51.8164 41.6379Z" fill="black"/>
<path d="M4.41648 6.92616C4.41648 7.00399 4.33865 7.08182 4.26082 7.08182C4.18299 7.08182 4.02734 7.00399 4.02734 6.92616C4.02734 6.84834 4.10518 6.77051 4.18301 6.77051C4.26084 6.77051 4.41648 6.84834 4.41648 6.92616Z" fill="white"/>
<path d="M9.866 7.23769C9.866 7.31552 9.78816 7.39334 9.71033 7.39334C9.6325 7.39334 9.55469 7.31552 9.55469 7.23769C9.55469 7.15986 9.6325 7.08203 9.71033 7.08203C9.78816 7.08203 9.866 7.15986 9.866 7.23769Z" fill="white"/>
<path d="M2.86007 10.8181C3.09355 10.7403 3.32703 10.7403 3.56052 10.7403C3.71617 10.7403 3.794 10.7403 3.94966 10.7403C4.02749 10.7403 4.0275 10.7403 4.10532 10.6625C4.10532 10.5847 4.10532 10.5847 4.02749 10.5068C3.87184 10.5068 3.71618 10.5068 3.63835 10.5068C3.40487 10.5068 3.17138 10.5068 2.86007 10.5847C2.78224 10.5847 2.78224 10.6625 2.78224 10.7403C2.70441 10.8181 2.78224 10.896 2.86007 10.8181Z" fill="white"/>
<path d="M59.5201 83.0422C59.2088 80.6295 58.8975 78.2168 58.5862 75.882C58.5862 75.8041 58.5862 75.7263 58.5862 75.6485C58.5083 74.7924 58.4305 73.8584 58.3527 73.0023C58.1192 71.1345 57.8857 69.2666 57.6522 67.3987C57.6522 67.243 57.5744 67.0096 57.4966 66.7761C57.4188 66.7761 57.4187 66.7761 57.3409 66.6982C57.1853 67.0096 56.8739 67.243 56.8739 67.6322C56.8739 68.0992 56.7961 68.5661 57.0296 68.9553C57.1074 69.1109 57.1074 69.3444 57.1853 69.5779C57.4187 71.5236 57.7301 73.3915 57.9635 75.3372C58.0414 76.0376 58.197 76.7381 58.2749 77.3607C58.4305 78.7616 58.5083 80.0847 58.5862 81.4078C58.5862 81.5634 58.664 81.7191 58.664 81.8747C58.7418 82.4974 58.7418 83.0422 58.664 83.587C58.664 83.587 58.5862 83.587 58.5862 83.6648C58.5083 83.8204 58.3527 83.8983 58.197 83.8983H58.1192C58.0414 83.8983 57.9635 83.8983 57.9635 83.9761C57.8079 84.0539 57.6522 84.0539 57.5744 84.0539C57.3409 84.0539 57.1074 84.0539 56.8739 84.0539C56.6405 84.0539 56.4848 84.0539 56.2513 84.0539C56.0178 84.0539 55.7843 84.0539 55.6287 83.9761C55.473 83.9761 55.2396 83.8204 55.1617 83.7426C55.0061 83.5091 54.9282 83.2756 55.0061 82.9643C55.0061 82.8865 55.0839 82.7308 55.1617 82.653V82.5752V82.4974C55.2396 82.2639 55.3174 82.0304 55.473 81.8747C55.7065 81.4856 56.0178 81.1743 56.3292 80.9408C56.407 80.863 56.4848 80.7851 56.6405 80.7851C56.7183 80.7073 56.7961 80.6295 56.9518 80.6295C56.7961 80.1625 56.7183 79.6955 56.5626 79.2286C56.4848 78.7616 56.4848 78.4503 56.7961 78.139C57.1853 77.7498 57.4966 77.3607 57.8079 76.9716C57.8857 76.8937 57.9635 76.7381 57.9635 76.6602L57.8857 76.5824C57.4188 77.0494 56.9518 77.5164 56.407 78.0612C55.94 77.0494 55.94 76.8937 56.6405 76.1933C56.7961 75.9598 57.0296 75.8041 57.2631 75.5707C57.3409 75.4928 57.3409 75.3372 57.4188 75.2593L57.3409 75.1815C56.9518 75.6485 56.4848 76.0376 56.0957 76.5046C56.0178 76.3489 56.0178 76.3489 56.0178 76.2711C55.5509 74.2476 55.5509 72.224 54.2278 69.8892C53.1382 68.7996 53.7608 69.6557 53.5273 69.7335C53.6052 69.967 54.3835 70.901 54.3835 71.1345C54.6169 72.5354 54.8504 73.9363 55.0839 75.3372C55.3174 76.8159 55.7065 78.2946 56.1735 79.6955C56.2513 80.0069 56.2513 80.3182 55.94 80.5517C55.1617 81.1743 53.9943 82.4974 53.9943 83.4313C53.9943 84.3652 55.2396 84.8322 56.1735 84.7544C56.6405 84.6765 56.7961 84.6765 56.9518 84.7544C57.2631 84.6765 57.4966 84.5987 57.7301 84.5987C58.0414 84.5987 58.3527 84.5987 58.664 84.5209C59.2866 84.4431 59.5979 83.9761 59.5201 83.0422Z" fill="black"/>
<path d="M43.1016 53.1568C43.8798 54.2464 44.8138 56.0365 45.6699 57.7487C46.526 59.5387 47.2264 61.251 47.5378 62.2627C47.7712 62.9632 48.0047 63.7415 48.3939 64.4419C48.783 65.0645 49.4056 65.6093 49.8726 66.0763C50.9622 67.0881 51.8961 68.1777 52.8301 69.3451C53.6084 70.279 54.231 71.2908 54.3866 72.3804L54.8536 72.3026C54.6979 71.0573 53.9975 69.9677 53.2192 69.0338C52.2853 67.8663 51.2735 66.7768 50.2617 65.765C49.7169 65.2202 49.1721 64.7532 48.783 64.2084C48.3939 63.5858 48.1604 62.8853 47.9269 62.1849C47.6156 61.0953 46.9151 59.3831 46.059 57.593C45.2029 55.803 44.269 54.0129 43.4907 52.9233L43.1016 53.1568Z" fill="black"/>
<path d="M56.1728 83.9765C56.0172 83.743 55.8615 83.4317 55.8615 83.1204C55.8615 82.8091 55.9393 82.4978 56.1728 82.2643C56.2506 82.1865 56.2506 82.0308 56.095 81.953C56.0172 81.8751 55.8615 81.8751 55.7837 82.0308C55.5502 82.3421 55.3945 82.7313 55.3945 83.1982C55.3945 83.5874 55.4724 83.9765 55.7837 84.2878C55.8615 84.3657 56.0172 84.4435 56.095 84.3656C56.2506 84.21 56.2506 84.1322 56.1728 83.9765Z" fill="black"/>
<path d="M57.6536 83.9763C57.5757 83.665 57.4979 83.3537 57.4979 83.1202V83.0424C57.4979 82.8089 57.5757 82.4976 57.6536 82.3419C57.7314 82.2641 57.7314 82.1084 57.5757 82.0306C57.4201 81.9528 57.3423 81.9528 57.2644 82.1084C57.0309 82.4198 56.9531 82.7311 56.9531 83.0424V83.1202C56.9531 83.4315 57.031 83.7428 57.1088 84.0541C57.1088 84.2098 57.2644 84.2098 57.3423 84.2098C57.5758 84.2098 57.6536 84.132 57.6536 83.9763Z" fill="black"/>
</svg>
