<svg width="57" height="60" viewBox="0 0 57 60" fill="none" xmlns="http://www.w3.org/2000/svg">
<g opacity="0.6">
<path d="M54.9813 21.0174C52.9622 17.2899 48.7688 14.6495 44.42 14.8048C43.6434 14.8048 42.8669 14.9601 42.4009 15.4261C41.1584 16.358 41.1584 18.5323 39.7606 19.3089C38.6734 20.0855 37.1203 19.4642 35.8778 18.843C35.4118 18.6877 35.1012 18.377 34.6352 18.2217C34.4799 18.0664 34.1693 18.0664 34.014 17.9111C27.9568 16.8239 30.2865 7.97104 26.7143 4.39884C23.608 1.29257 18.9486 0.671322 14.7551 0.050069C12.8914 -0.260558 11.4936 0.981949 9.6298 0.826636C9.00854 0.826636 8.54261 0.516004 7.92135 0.360691C6.52353 1.29257 5.28102 2.37976 4.03852 3.62227C2.79601 4.86478 1.70882 6.41791 0.932251 8.12636C0.155684 10.1454 0.000371076 12.3198 0.155684 14.4942C0.155684 14.9601 0.15568 15.5814 0.466306 16.0473C0.776933 16.358 1.08756 23.9683 1.5535 24.2789C3.26195 25.2108 5.12571 23.1918 5.90227 25.3661C6.67884 27.5405 5.43634 25.5215 4.65977 27.5405C3.26195 31.4234 4.50445 35.9275 5.90227 39.8103C7.30009 43.6931 9.00854 47.8866 8.07666 52.08C7.61072 53.9438 6.83415 55.9629 7.76603 57.6713C8.69792 58.9138 10.5617 59.3798 11.9595 58.6032C13.3573 57.8266 14.1339 56.2735 14.4445 54.7204C14.7551 53.0119 14.4445 51.3035 14.4445 49.595C14.4445 47.8866 15.2211 46.0228 16.7742 45.2463C18.4827 44.4697 20.8124 45.5569 21.7442 47.2653C22.6761 48.9738 22.6761 50.9928 22.3655 53.0119C22.2102 54.2544 21.8996 55.4969 22.0549 56.7394C22.2102 57.9819 23.1421 59.2245 24.3846 59.3798C25.4718 59.5351 26.559 58.7585 27.1802 57.8266C27.8015 56.8948 27.9568 55.6522 28.1121 54.5651C28.4227 51.9247 28.8887 49.2844 29.3546 46.6441C29.5099 45.5569 29.6652 44.4697 30.2865 43.5378C30.9077 42.2953 32.3055 41.5187 33.5481 41.674C34.9459 41.674 36.1884 42.6059 36.499 44.0037C36.8096 45.2462 36.1884 46.6441 36.1884 47.8866C36.1884 49.1291 36.8096 50.8375 38.0521 50.8375C40.2265 50.6822 40.0712 46.4888 42.4009 46.3334C43.4881 47.11 43.6434 48.6631 43.4881 49.9057C43.3328 51.1482 42.5562 52.3907 42.4009 53.6332C42.4009 53.9438 42.2456 54.4097 42.5562 54.7204C43.0222 55.8076 44.7306 55.6522 45.8178 55.031C48.4581 53.3225 49.5453 50.061 50.0113 46.9547C50.4772 43.8484 50.4772 40.5868 52.0303 37.7912C52.6516 36.3934 53.7388 35.3062 54.5154 33.9084C57.0004 29.5596 57.1557 24.7449 54.9813 21.0174Z" fill="white"/>
<path d="M15.531 22.4166C15.531 22.1059 15.531 20.7081 15.2204 20.2422C14.7544 20.2422 14.1332 20.2422 13.6672 20.2422C13.2013 20.5528 12.58 20.7081 12.2694 20.8634C11.1822 21.1741 10.2503 21.0187 9.31846 20.7081C9.16315 20.7081 9.00783 20.5528 9.00783 20.5528C8.07595 21.9506 7.14407 23.3484 6.05688 24.591C5.74625 25.8335 5.43563 26.9207 5.28031 27.6972C5.125 28.4738 4.96969 29.4057 5.43563 30.0269C6.05688 30.8035 7.14407 30.1822 7.76533 29.2504C8.54189 28.1632 9.00783 26.7653 9.7844 25.6782C10.7163 24.2803 12.1141 23.1931 13.6672 22.8825C14.1332 22.7272 14.7544 22.7272 15.2204 22.5719C15.531 22.5719 15.531 22.4166 15.531 22.4166Z" fill="#BCBCBB"/>
<path d="M7.76438 16.8224C7.45375 17.5989 7.45375 18.6861 8.23032 19.1521C8.69626 19.4627 9.1622 19.4627 9.78345 19.3074C10.8706 18.9967 11.8025 18.2202 12.2685 17.2883C12.4238 16.9777 12.5791 16.667 12.5791 16.2011C12.5791 15.4245 12.2685 14.648 11.6472 14.182C9.62814 12.3183 8.38563 15.1139 7.76438 16.8224Z" fill="#BCBCBB"/>
<path d="M1.70575 16.6678C2.327 16.2018 2.63763 15.4253 2.94825 14.804C3.41419 14.0275 3.88013 13.2509 4.50139 12.6296C4.6567 12.4743 4.81201 12.319 4.96732 12.319C4.81201 8.90211 4.96732 5.64053 5.8992 2.22363C2.94825 5.95115 1.39512 10.7659 1.70575 15.5806C1.55043 15.8912 1.70575 16.3572 1.70575 16.6678Z" fill="#BCBCBB"/>
<path d="M26.7109 17.756C26.7109 18.8432 26.7109 20.241 27.6428 20.8623C28.5747 21.4835 29.9725 21.1729 30.5938 20.241C31.215 19.3092 31.3703 18.222 31.0597 16.9795C30.9044 15.8923 30.2831 14.9604 29.9725 13.8732C29.5066 12.786 29.3513 11.6988 29.0406 10.6116C28.8853 9.36911 28.73 7.97128 28.2641 6.88409C27.3322 4.86502 26.8662 6.26284 26.8662 7.66066C26.8662 11.0775 26.8663 14.3391 26.7109 17.756Z" fill="#BCBCBB"/>
<path d="M42.243 16.359C43.3302 15.7378 44.5727 15.7378 45.8152 15.7378C47.6789 15.7378 49.5427 15.7378 50.9405 16.9803C52.0277 17.9122 52.4937 19.31 52.4937 20.5525C52.649 21.9503 52.3384 23.1928 52.0277 24.5906C51.8724 25.5225 51.5618 26.4544 51.4065 27.5416C51.2512 28.1629 51.0958 28.6288 50.7852 29.25C50.4746 29.8713 50.0086 30.1819 49.3874 30.1819C48.3002 30.1819 47.6789 28.7841 47.213 27.8522C46.5917 26.6097 45.3492 25.5225 44.4174 24.4353C43.6408 23.6588 42.8642 23.0375 42.0877 22.2609C41.6217 21.795 40.2239 20.8631 39.9133 20.2419C39.758 19.6206 40.2239 18.6887 40.6898 18.2228C40.8452 17.6016 42.243 16.359 42.243 16.359Z" fill="#BCBCBB"/>
<path d="M36.6582 45.8688C36.5029 46.49 36.1923 47.1113 36.037 47.7325C35.8817 48.1985 36.037 48.8197 36.1923 49.2857C37.4348 49.5963 38.8326 49.2857 39.7645 48.3538C40.8517 47.4219 41.3176 46.0241 41.6283 44.7816C41.7836 44.3156 41.9389 43.8497 41.9389 43.3838C41.9389 42.1413 41.1623 41.0541 40.3858 40.1222C40.2304 39.9669 40.2304 39.8116 40.0751 39.8116C39.9198 39.6562 39.7645 39.6562 39.6092 39.6562C38.8326 39.8116 37.2795 40.8987 36.8136 41.6753C36.1923 42.7625 37.1242 44.471 36.6582 45.8688Z" fill="#BCBCBB"/>
<path d="M16.3091 52.8568C16.6197 53.944 16.6197 55.1865 16.3091 56.2737C15.9985 57.3609 15.0666 58.4481 13.9794 58.7587C12.8922 58.914 11.805 58.4481 11.1838 57.5162C10.5625 56.5843 10.4072 55.4972 10.7178 54.41C11.0284 53.3228 11.4944 52.3909 11.9603 51.459C12.2709 50.6824 12.7369 49.1293 13.3581 48.6634C15.3772 47.2655 15.9985 51.6143 16.3091 52.8568Z" fill="#BCBCBB"/>
<path d="M56.6854 25.3662C56.5301 25.0556 56.5301 24.745 56.5301 24.4344C55.9088 22.26 55.1323 20.0856 53.5791 18.3771C52.492 16.9793 51.2494 16.0474 49.541 15.4262C47.5219 14.8049 45.5028 14.6496 43.6391 15.4262C41.7753 16.2027 39.9116 16.9793 39.135 19.1537C37.5819 18.5325 36.0287 17.9112 34.6309 17.2899C34.6309 17.1346 31.68 16.3581 31.68 16.2027C31.214 16.5134 32.1459 16.5134 31.8353 16.824C32.3012 17.1346 34.3203 18.3771 34.6309 18.6878C35.5628 19.1537 36.4947 19.4643 37.4266 19.6196C39.4456 20.0856 41.62 20.7068 42.8625 22.5706C42.8625 22.7259 43.0178 22.7259 43.1731 22.8812C42.8625 20.8622 41.3094 20.2409 39.9116 19.6196C40.0669 19.309 40.3775 19.309 40.3775 18.9984C40.9988 17.6006 42.2413 17.1346 43.3285 16.3581C43.6391 16.2028 43.9497 16.2028 44.2603 16.3581C45.5028 17.29 46.7454 18.2218 47.6772 19.4643C47.8325 19.775 48.1432 19.9303 48.2985 20.2409C48.4538 20.5515 48.6091 20.7068 48.9197 21.0175C48.6091 19.9303 48.1432 19.1537 47.5219 18.5324C46.9007 17.9112 46.2794 17.1346 45.5028 16.3581L45.6582 16.2027C46.1241 16.3581 46.59 16.5134 47.056 16.6687C48.9197 17.7559 49.8516 19.6196 50.9388 21.1728C50.6282 19.9303 50.0069 18.8431 49.2304 17.7559C48.4538 16.6687 47.3666 15.8921 46.1241 15.5815C46.4347 15.4262 46.59 15.4262 46.9007 15.4262C48.6091 15.5815 50.1622 16.0474 51.5601 16.9793C52.6473 17.6006 53.4238 18.6878 54.0451 19.6196C55.1323 21.3281 56.0642 23.0365 56.0642 25.0556C56.0642 26.4534 55.9088 28.0066 55.9088 29.4044C55.9088 30.0256 55.7535 30.6469 55.5982 31.4235C55.4429 32.0447 54.977 32.5106 55.1323 33.2872C55.1323 33.5978 54.8216 33.9085 54.511 34.3744C54.3557 34.685 54.3557 34.9957 54.3557 35.3063C54.3557 35.4616 54.3557 35.7722 54.3557 35.9275H54.511C55.2876 33.7532 56.3748 31.7341 56.8407 29.5597C56.8407 29.2491 56.996 28.9384 56.996 28.6278C56.8407 27.6959 56.8407 26.6087 56.6854 25.3662Z" fill="black"/>
<path d="M44.5769 48.1973C44.2663 47.2655 43.9557 46.3336 43.8004 45.4017C43.6451 44.3145 43.0238 43.3826 42.4026 42.4507C42.2472 42.1401 41.9366 41.8295 41.7813 41.5189C41.16 40.2764 40.6941 39.0338 40.0729 37.7913C39.2963 38.102 39.9175 38.5679 39.9175 39.0338C37.1219 40.2764 34.1709 41.3635 31.22 42.606C31.3753 41.2082 31.6859 39.9657 31.8412 38.7232C31.9966 36.8595 32.1519 35.7723 31.5306 34.9957C31.5306 35.151 31.3753 35.151 31.3753 35.3063C31.3753 37.636 31.22 39.9657 30.5987 42.1401C30.5987 42.4507 30.5987 42.6061 30.5987 42.9167C30.5987 43.8486 30.7541 44.9358 30.5987 45.8676C30.4434 47.5761 30.4434 49.4398 29.9775 51.1483C29.8222 51.7695 29.8222 52.3908 29.6669 52.8567C29.6669 53.0121 29.5115 53.0121 29.5115 53.0121C29.3562 52.8567 29.0456 52.7014 28.8903 52.7014C28.5797 53.1674 28.8903 53.3227 29.0456 53.6333C29.5115 54.7205 29.8222 55.6524 29.5115 56.8949C29.3562 57.5161 28.8903 57.9821 28.269 58.2927C27.8031 57.5161 28.1137 56.5843 26.8712 56.1183C27.1818 56.8949 27.4925 57.5161 27.8031 58.2927C26.4053 58.6033 25.4734 58.2927 23.9203 57.5161C24.2309 56.5843 24.2309 56.5843 24.2309 56.2736C23.4543 56.2736 23.4543 56.8949 23.299 57.3608C22.0565 57.0502 21.7459 56.7396 22.0565 55.4971C22.0565 55.3417 22.2118 55.1864 22.3671 54.8758C22.6778 53.9439 23.1437 52.8567 23.4543 51.9249C23.765 51.1483 23.6096 50.527 23.1437 49.9058C22.3671 48.8186 22.2118 47.5761 22.2118 46.3336C22.2118 45.557 22.2118 44.7804 22.2118 43.8486C21.4353 44.1592 21.9012 44.9358 21.4353 45.557C20.6587 45.7123 19.8821 46.0229 19.1056 46.0229C18.329 46.0229 17.3971 45.7123 16.6205 45.557C16.1546 45.4017 15.844 45.2464 15.378 45.4017C15.378 46.0229 15.378 46.6442 15.2227 47.2654C14.9121 48.1973 15.0674 48.9739 15.378 49.9058C15.9993 51.7695 16.1546 53.6333 16.3099 55.4971C16.3099 56.7396 15.6887 57.6714 14.4462 57.9821C14.1355 57.5161 13.9802 56.8949 13.6696 56.2736C13.2036 56.7396 13.5143 56.8949 13.6696 57.2055C13.8249 57.5161 13.8249 57.8268 13.9802 58.1374C13.0483 58.2927 12.2718 58.6033 11.4952 58.2927C10.7186 58.1374 10.5633 57.8268 10.5633 57.0502C10.5633 56.7396 10.5633 56.5843 10.7186 56.2736C9.94207 56.5843 10.408 57.3608 10.0974 57.6715C8.69956 57.3608 8.23362 56.2736 8.54425 55.0311C8.85487 53.9439 9.32081 52.8567 9.78675 51.7695C9.78675 51.6142 9.78675 51.4589 9.78675 51.3036C9.63144 50.3717 9.47613 49.4398 9.1655 48.508C8.85488 47.5761 8.54425 46.6442 8.23362 45.7123C7.92299 44.6251 7.45705 43.6932 6.99111 42.606C6.52517 41.3635 5.90392 39.9657 5.90392 38.4126C6.99111 37.636 8.23362 37.0148 9.47613 36.2382C9.47613 36.2382 9.47613 36.0829 9.32081 36.0829C8.07831 36.7041 6.99111 37.3254 5.74861 38.102C5.12735 36.5488 5.12735 33.5979 5.74861 32.0447C6.05923 30.9576 6.05923 29.5597 5.43798 28.6278C5.74861 28.1619 5.90392 27.696 6.21455 27.23C7.14643 25.5216 7.92299 23.9684 8.85487 22.26C9.01019 21.9494 9.01019 21.7941 9.1655 21.3281C8.23362 21.7941 7.92299 22.1047 5.43798 27.0747C4.5061 28.9385 3.72953 30.8022 3.57422 32.9766C4.04016 32.8213 4.35079 32.8213 4.66141 32.666C4.66141 33.1319 4.66141 33.5979 4.66141 33.9085C4.66141 34.9957 4.35079 36.2382 4.66141 37.3254C5.12735 39.1892 5.43798 41.3635 6.21455 43.2273C7.14643 45.4017 7.923 47.5761 8.69956 49.7505C9.01019 50.6824 9.1655 51.6142 8.85487 52.5461C8.54425 53.3227 8.23362 54.2546 7.923 55.0311C7.61237 55.6524 7.76768 56.1183 7.923 56.7396C8.23362 57.3608 8.69956 57.8268 9.32081 58.1374C10.8739 59.0693 12.5824 59.0693 14.1355 58.6033C15.844 58.1374 16.7759 57.3608 16.9312 55.8077C16.9312 55.3417 16.9312 54.7205 16.7759 54.2546C16.4652 52.3908 15.9993 50.6824 15.6887 48.9739C15.5333 47.8867 15.6887 47.1101 16.1546 46.1783C17.0865 46.3336 18.0184 46.6442 18.7949 46.6442C19.7268 46.6442 20.5034 46.3336 21.4353 46.1783C21.4353 46.4889 21.4353 46.7995 21.4353 47.1101C21.5906 48.042 21.7459 48.9739 22.2118 49.7505C22.8331 50.8377 22.8331 51.6142 22.3671 52.7014C22.2118 53.012 22.0565 53.3227 22.0565 53.6333C21.7459 54.5652 21.4353 55.3417 21.1246 56.2736C20.9693 57.0502 21.1246 57.3608 21.9012 57.6715C23.6096 58.2927 25.3181 59.0693 27.1818 59.0693C27.6478 59.0693 28.1137 58.914 28.5797 58.7586C29.2009 58.2927 29.6669 57.6715 29.8222 56.8949C29.9775 56.1183 30.1328 55.4971 29.8222 54.7205C29.8222 54.4099 29.6669 54.0992 29.8222 53.9439C30.1328 52.3908 30.4434 50.8377 30.7541 49.2845C30.7541 49.1292 30.7541 48.8186 30.9094 48.6633C30.9094 47.2655 31.0647 45.8676 31.0647 44.3145C31.0647 43.6933 31.22 43.3826 31.6859 43.072C32.7731 42.6061 33.705 42.1401 34.7922 41.6742C34.9475 41.6742 35.1028 41.6742 35.4135 41.5189C35.5688 43.6932 36.3453 45.8676 35.1028 48.042C34.9475 48.1973 34.9475 48.3526 34.9475 48.3526C34.4816 49.5952 35.1028 50.6823 36.3453 50.8377C39.6069 51.3036 41.7813 49.9058 42.5579 46.7995C42.7132 46.4889 42.7132 46.0229 42.8685 45.557C43.4897 46.6442 43.1791 48.042 44.4216 48.8186C44.5769 48.6633 44.7323 48.3527 44.5769 48.1973ZM42.2472 46.3336C41.9366 47.2655 41.626 48.042 41.1601 48.9739C40.5388 49.9058 39.4516 50.3717 38.3644 50.527C37.7432 50.6824 37.2772 50.527 36.5006 50.527C36.8113 49.9058 37.1219 49.4398 37.4325 48.9739C36.9666 48.6633 36.9666 48.6633 36.19 49.9058C36.0347 49.5952 35.8794 49.4398 36.0347 49.2845C36.19 48.8186 36.3453 48.3526 36.5006 47.8867C36.656 47.2655 36.9666 46.6442 36.9666 46.0229C36.9666 45.557 37.2772 45.4017 37.5878 45.0911C38.3644 44.7804 39.141 44.3145 39.9175 43.8486C39.9175 43.8486 39.9175 43.6932 39.7622 43.6932C38.8304 44.1592 37.8985 44.4698 36.9666 44.9357C36.9666 44.3145 36.9666 44.3145 38.9857 42.7614C38.675 42.9167 38.3644 43.072 38.0538 43.2273C37.7432 43.3826 37.4325 43.6932 36.9666 43.8486C36.8113 43.6932 36.8113 43.5379 36.8113 43.5379C36.3453 41.5189 36.3453 41.5189 38.2091 40.587C38.8304 40.2764 39.6069 39.9657 40.3835 39.4998C41.3154 41.2082 42.2472 42.9167 43.1791 44.4698C42.7132 45.0911 42.5579 45.7123 42.2472 46.3336Z" fill="black"/>
<path d="M54.2009 34.53C54.0456 34.8406 54.0456 35.1513 54.0456 35.4619C53.4244 36.5491 52.6478 37.481 52.0265 38.4128C51.4053 39.3447 51.4053 40.4319 51.25 41.5191C51.0947 42.2957 51.25 43.0722 51.25 44.0041C51.4053 46.0232 51.25 48.1976 51.0947 50.2167C50.9393 51.7698 50.3181 53.0123 49.2309 54.0995C48.1437 55.1867 46.7459 55.6526 45.3481 56.1186C43.6396 56.7398 41.4652 55.0314 41.9312 52.857C42.2418 51.3039 43.329 50.0614 44.5715 48.9742C44.8821 49.4401 44.5715 49.7507 44.4162 49.906C43.9502 50.5273 43.329 51.3039 43.0184 51.9251C42.7077 52.5464 42.5524 53.4782 42.8631 54.2548C43.4843 53.9442 43.4843 52.857 44.5715 52.7017C44.2609 53.3229 43.9502 53.7889 43.7949 54.0995C43.4843 54.8761 43.6396 55.1867 44.1056 55.342C44.8821 55.6526 45.5034 55.342 45.6587 54.7207C45.814 54.4101 45.9693 53.9442 46.1246 53.4782C46.2799 53.3229 46.4353 53.1676 46.5906 53.1676L46.7459 53.3229C46.5906 53.7889 46.2799 54.4101 45.9693 55.0314C46.4353 54.8761 46.7459 54.8761 47.0565 54.7207C48.6096 53.7889 49.8521 52.5464 50.3181 50.9932C50.6287 50.2167 50.4734 49.2848 50.6287 48.3529C50.6287 47.887 50.784 47.5763 50.784 47.1104C50.784 46.4891 50.9393 45.8679 50.9393 45.2466C50.784 43.5382 50.784 41.8297 50.9393 40.2766C51.0947 39.3447 50.9393 38.5682 50.6287 37.6363C50.3181 36.3938 50.3181 35.1513 50.1628 33.9088C50.0075 32.045 49.2309 30.3366 48.299 28.7834C47.9884 28.4728 47.8331 28.0069 47.6778 27.5409C48.1437 27.3856 48.299 27.5409 48.4543 27.8515C48.9203 28.9387 49.3862 28.9387 50.1628 28.3175C50.3181 28.3175 50.3181 28.3175 50.4734 28.1622C50.3181 28.7834 49.0756 28.6281 49.5415 29.7153C50.1628 29.4047 50.784 29.094 51.25 28.6281C51.25 28.6281 51.25 28.7834 51.4053 28.7834C50.9393 29.094 50.3181 29.56 49.8522 29.8706C50.4734 32.5109 50.9393 35.1513 51.5606 37.7916C52.4925 36.8597 53.1137 35.7725 53.5797 34.6853C53.8903 33.5981 54.0456 32.5109 54.3562 31.2684C54.5116 32.2003 54.5115 33.1322 54.2009 34.53Z" fill="black"/>
<path d="M11.6484 40.12C12.1144 39.3434 12.8909 38.8775 13.9781 38.7222C13.2016 39.3434 12.425 39.8094 11.8038 40.4306C11.8038 40.2753 11.6484 40.12 11.6484 40.12Z" fill="black"/>
<path d="M13.8228 53.7896C13.2016 54.2555 12.5803 54.7214 11.8038 55.0321C11.8038 54.8767 11.6484 54.8767 11.6484 54.8767C12.1144 54.2555 12.8909 53.9449 13.8228 53.7896Z" fill="black"/>
<path d="M34.0117 37.1689C35.0989 37.3243 35.4095 37.7902 35.8755 38.5668C35.4095 38.4115 35.0989 38.2561 34.0117 37.1689Z" fill="black"/>
<path d="M11.1797 53.6342C11.335 52.8576 11.9563 52.547 12.7328 52.2363C12.2669 52.7023 11.8009 53.1682 11.1797 53.6342Z" fill="black"/>
<path d="M46.7503 42.7627C46.4397 43.3839 45.9738 44.0052 45.5078 44.4711C45.6631 43.6946 45.8184 43.3839 46.7503 42.7627Z" fill="black"/>
<path d="M13.2025 37.4814C12.7366 37.7921 12.4259 38.5686 11.8047 38.7239C11.8047 37.9474 12.2706 37.6368 13.2025 37.4814Z" fill="black"/>
<path d="M47.06 44.7798C46.7494 45.401 46.1281 45.867 45.3516 46.3329C45.8175 45.5564 46.1281 45.0904 47.06 44.7798Z" fill="black"/>
<path d="M25.3119 39.3442C25.0013 39.9655 24.5353 40.5867 23.9141 40.8974C24.0694 40.1208 24.6906 39.8102 25.3119 39.3442Z" fill="black"/>
<path d="M20.8139 32.6662C20.1927 32.3556 19.7267 32.2003 19.1055 32.045C19.882 31.579 20.1927 31.7343 20.8139 32.6662Z" fill="black"/>
<path d="M34.6367 36.2364C35.4133 36.0811 35.4133 36.0811 36.1899 36.5471C35.7239 37.013 35.5686 37.013 34.6367 36.2364Z" fill="black"/>
<path d="M36.5 27.3856C36.8106 26.4537 37.2766 26.2984 37.8978 25.9878C37.7425 26.609 37.5872 26.7644 36.5 27.3856Z" fill="black"/>
<path d="M35.7227 25.6776C36.1886 25.2117 36.8098 24.7457 37.2758 24.2798C37.1205 25.2117 36.3439 25.5223 35.878 25.9882C35.878 25.8329 35.7227 25.8329 35.7227 25.6776Z" fill="black"/>
<path d="M24.5391 42.1408C24.8497 41.6749 25.3156 41.3643 26.0922 41.3643C25.6263 41.6749 25.1603 41.9855 24.6944 42.4514C24.5391 42.2961 24.5391 42.2961 24.5391 42.1408Z" fill="black"/>
<path d="M21.7434 31.2669C21.4328 30.9563 20.9669 30.6457 20.6562 30.335C21.4328 30.1797 21.5881 30.6457 21.8988 30.9563C21.7434 31.1116 21.7434 31.1116 21.7434 31.2669Z" fill="black"/>
<path d="M6.52344 36.239C6.98938 35.9284 7.3 35.6178 7.76594 35.1519C7.76594 35.3072 7.92126 35.3072 7.92126 35.3072C7.61063 35.7731 7.14469 36.239 6.52344 36.239Z" fill="black"/>
<path d="M51.0938 27.8522C51.4044 27.6969 51.5597 27.5415 51.8703 27.3862C51.8703 27.3862 51.8703 27.5415 52.0256 27.5415C51.5597 27.6969 51.4044 27.8522 51.0938 27.8522C51.0938 28.0075 51.0938 27.8522 51.0938 27.8522Z" fill="black"/>
<path d="M6.52266 36.2378C6.21203 36.5484 6.05672 36.7037 5.74609 36.859C5.90141 36.5484 6.21203 36.3931 6.52266 36.2378Z" fill="black"/>
<path d="M37.8945 45.4026C38.3605 44.7813 39.137 44.626 39.9136 44.4707C39.2924 44.7813 38.6711 45.2473 37.8945 45.5579C38.0498 45.5579 38.0498 45.5579 37.8945 45.4026Z" fill="black"/>
<path d="M39.9171 49.4392C39.7618 48.8179 39.7618 48.8179 40.2277 48.6626C40.2277 48.9732 40.0724 49.2839 39.9171 49.4392Z" fill="black"/>
<path d="M32.4605 21.482C32.1499 19.3076 31.9946 17.1332 31.3733 15.1141C30.752 13.2504 30.2861 11.2313 29.6649 9.2122C29.5095 8.59095 29.3542 7.81439 29.0436 7.19314C28.5777 6.10595 27.9564 5.01875 27.3352 4.08687C26.248 2.37843 24.6948 0.980598 22.5204 0.669971C22.2098 0.669971 22.0545 0.51466 21.7439 0.51466C20.1907 0.204034 18.7929 0.0487272 17.3951 0.825294C17.0845 0.669981 16.7738 0.669974 16.4632 0.51466C15.376 -0.106593 14.1335 -0.106588 13.0463 0.204038C11.6485 0.514665 10.2507 0.669974 8.85286 0.51466C7.92098 0.51466 6.9891 0.669971 5.90191 0.669971C5.74659 0.669971 5.43597 0.669981 5.28066 0.825294C4.50409 1.60186 3.41689 2.22311 2.79564 3.15499C1.86376 4.3975 1.0872 5.79532 0.621256 7.34845C0.465942 7.9697 0.31063 8.74627 0.155317 9.36753C3.55253e-06 10.7653 0 12.3185 0 13.7163C0 14.3375 3.55253e-06 14.8035 0.155317 15.4247C0.31063 16.3566 0.46594 17.2885 0.776567 18.2204C1.08719 19.1523 1.0872 20.2395 0.931884 21.1713C0.931884 21.482 0.93188 21.9479 0.776567 22.2585C0.776567 23.6563 1.08719 24.1223 2.3297 24.5882C3.26158 24.8989 4.19346 24.8989 4.97003 25.2095C5.28065 25.3648 5.59128 25.2095 5.74659 24.7435C5.90191 24.1223 5.90191 23.501 6.05722 22.8798C6.21254 22.1032 6.36785 21.3267 6.67847 20.5501C7.29973 20.8607 7.92098 21.016 8.54223 21.1713C10.406 21.9479 11.9591 21.482 13.357 20.2395C13.5123 20.0842 13.8229 19.9288 13.6676 19.4629C13.2016 19.7735 12.891 19.9288 12.4251 20.2395C11.6485 20.7054 10.7166 21.016 9.78474 20.7054C9.16349 20.5501 8.69755 20.3948 8.07629 20.2395C7.61036 20.0842 7.29973 19.9288 6.83379 19.6182C6.83379 19.3076 6.83379 19.3076 6.83379 19.1523C6.9891 17.4438 7.61036 15.8907 8.69755 14.4929C8.85286 14.3375 9.00818 14.1822 9.16349 14.0269C9.16349 14.0269 9.16349 13.8716 9.3188 13.8716C9.3188 13.7163 9.47412 13.7163 9.62943 13.561C9.78474 13.4057 9.78474 13.4057 9.94006 13.4057C10.0954 13.4057 10.0954 13.2504 10.2507 13.4057C10.2507 13.2504 10.406 13.2504 10.406 13.095C10.8719 13.2504 11.1826 13.4057 11.6485 13.7163C12.7357 14.8035 13.5123 16.2013 13.8229 17.7544C13.8229 18.0651 14.1335 18.3757 14.1335 18.6863C14.2888 19.3076 14.4441 19.9288 14.5995 20.5501C14.9101 21.9479 15.2207 23.3457 14.9101 24.7435V24.8989C15.0654 25.0542 15.2207 25.0542 15.2207 25.2095C15.376 24.5882 15.5313 23.967 15.5313 23.501C15.5313 22.5692 15.9973 21.9479 16.6185 21.482C16.9292 21.1713 17.3951 20.8607 17.7057 20.5501C17.861 20.3948 17.861 20.2395 18.0164 20.2395L17.861 20.0841C17.0845 20.7054 16.3079 21.3267 15.5313 21.9479C15.376 21.3267 15.2207 20.8607 15.2207 20.3948C15.0654 19.7735 14.9101 19.1523 14.5995 18.531C14.4441 18.2204 14.4441 17.9098 14.2888 17.5991C13.9782 16.2013 13.3569 14.9588 12.4251 13.8716C12.2698 13.7163 12.2698 13.561 12.1144 13.4057C12.4251 12.9397 12.7357 12.6291 13.0463 12.1632C13.8229 12.6291 14.4441 13.2504 15.0654 13.7163C15.842 14.3375 15.842 15.4247 16.1526 16.2013C16.1526 14.6482 15.6866 13.4057 14.2888 12.6291C13.8229 12.4738 13.5123 12.0079 13.2016 11.6972C13.3569 11.2313 13.5123 10.7653 13.6676 10.4547C15.2207 10.1441 16.6185 10.2994 18.0164 11.076C19.7248 12.0079 20.6567 13.561 21.5886 15.2694C22.8311 17.5991 22.9864 20.0841 23.1417 22.7245C23.1417 23.6564 22.9864 24.4329 22.2098 24.7435C21.7439 24.8989 21.4332 25.0542 20.9673 25.0542C20.812 25.0542 20.6567 25.2095 20.3461 25.2095C19.8801 25.2095 19.5695 25.3648 19.1035 25.3648C18.7929 25.3648 18.6376 25.5201 18.327 25.3648C17.5504 24.8989 16.7738 25.3648 15.9973 25.2095C16.1526 25.6754 16.4632 25.6754 16.7738 25.6754C17.3951 25.5201 18.0164 25.6754 18.4823 25.8307C18.6376 25.8307 18.7929 25.8307 18.9482 25.8307C19.4142 25.6754 20.0354 25.5201 20.5014 25.6754C20.6567 25.6754 20.812 25.6754 20.9673 25.5201C21.2779 25.2095 21.7439 25.0542 22.2098 25.3648C22.3651 24.4329 23.1417 24.7435 23.6076 24.7435C23.7629 24.1223 23.7629 23.6563 23.9183 23.0351C24.5395 22.8798 25.1608 22.8798 25.6267 22.7245C26.4033 22.5692 27.1798 22.7245 27.9564 22.1032C28.5777 21.6373 29.1989 21.482 29.9755 22.1032C30.2861 21.6373 30.5967 21.3266 30.752 20.8607C31.218 21.016 31.3733 21.6373 31.9946 21.6373C32.3052 21.7926 32.4605 21.6373 32.4605 21.482ZM2.01907 17.1332H1.86376C1.86376 16.046 1.70845 14.8035 1.70845 13.7163C1.70845 12.1632 1.55314 10.7653 1.70845 9.2122C1.86376 7.34844 2.48501 5.64 3.57221 4.24218C3.57221 4.24218 3.72752 4.08687 3.88283 4.08687C3.41689 5.17407 2.95095 6.10594 3.10627 7.34845C3.57221 5.48469 4.03815 3.62093 5.74659 2.37843L6.05722 2.53374C6.05722 2.68905 6.05722 2.99968 5.90191 3.15499C5.43597 4.08687 5.12534 5.17406 4.81472 6.10594C4.34878 7.9697 3.88283 9.67815 3.88283 11.6972C3.88283 12.3185 4.03815 12.7844 4.03815 13.561C3.26158 14.6482 2.64033 15.8907 2.01907 17.1332ZM6.83379 17.5991C6.67848 17.9098 6.52316 18.3757 6.52316 18.6863C6.52316 20.0842 6.21254 21.6373 5.74659 23.0351C5.59128 23.6563 5.59128 23.6564 4.97003 24.2776C4.6594 24.2776 4.19346 24.2776 3.88283 24.1223C3.57221 24.1223 3.26158 24.1223 3.10627 24.1223C2.17439 23.967 1.86376 23.501 2.01907 22.5692C2.17439 21.6373 2.3297 20.7054 3.26158 20.2395C3.4169 20.0842 3.57221 19.9288 3.72752 19.6182C3.4169 19.7735 2.95096 20.0842 2.48502 20.2395C2.48502 19.7735 2.64033 19.4629 2.64033 18.997C2.95095 17.2885 3.57221 15.5801 4.34877 14.0269C4.81471 13.095 5.59128 12.1632 6.36785 11.5419C6.67848 11.2313 7.29973 11.076 7.76567 11.076C8.23161 10.9207 8.85286 11.2313 9.00817 11.6972C9.16349 12.0079 9.47412 12.4738 9.62943 12.9397C7.92098 14.3375 7.45504 16.046 6.83379 17.5991ZM20.9673 12.1632C20.9673 12.1632 20.9673 12.3185 20.812 12.3185C20.6567 12.3185 20.6567 12.3185 20.5014 12.1632C19.1035 10.2994 17.0845 9.67815 14.7548 9.36753C14.2888 9.36753 13.5123 9.05689 13.357 9.98877C12.1144 9.36752 11.8038 8.74627 12.2698 7.81439C12.5804 7.03783 12.891 6.41657 13.5123 5.79532C14.4441 5.01875 15.5313 4.70812 16.7738 5.01875C17.0845 5.17406 17.5504 5.32937 18.0164 5.17406C14.5995 3.3103 11.8038 5.64 11.4932 9.2122C11.3379 9.05689 11.1826 8.90158 11.1826 8.90158C11.0272 8.28033 11.0272 7.50376 10.8719 6.8825C10.5613 5.48468 9.47412 4.70812 8.07629 4.5528C7.92098 4.5528 7.92098 4.55281 7.61036 4.70813C7.92098 4.86344 8.23161 4.86344 8.38692 5.01875C9.47412 5.17406 10.2507 5.95063 10.406 7.03783C10.5613 7.81439 10.5613 8.59095 10.7166 9.2122C9.94006 9.83346 9.16349 10.4547 8.38692 10.9207C8.23161 10.9207 8.0763 10.7653 7.92098 10.7653C7.29973 10.61 6.67848 10.7653 6.05722 11.2313C5.59128 11.5419 5.12534 12.0078 4.6594 12.3185C4.50409 12.4738 4.19346 12.6291 3.88283 12.9397C3.88283 11.5419 3.88284 10.1441 4.03815 8.90158C4.34878 7.65908 4.6594 6.57188 4.97003 5.32937C5.12534 4.24218 5.74659 3.46562 6.21253 2.53374C6.36785 2.37843 6.52316 2.22311 6.83379 2.06779C6.9891 1.91248 7.14442 1.91249 7.14442 1.75717C7.29973 1.13592 7.76567 1.13592 8.23161 0.980605C9.00817 0.825292 9.78474 0.9806 10.406 1.29123C10.7166 1.44654 10.8719 1.60186 11.3379 1.75717C12.1144 1.13592 12.891 0.669971 13.8229 0.669971C14.2888 0.669971 14.5995 0.669981 15.0654 0.825294C15.9973 1.13592 16.9292 1.29123 17.7057 2.06779C18.6376 2.99967 19.2589 3.93155 19.7248 5.32937C19.7248 5.64 19.8801 5.79531 20.0354 5.95063C20.812 7.81439 20.9673 9.83347 20.9673 11.8525C21.1226 12.0079 20.9673 12.1632 20.9673 12.1632ZM30.1308 21.3267C29.6649 21.3267 29.3542 21.1713 28.8883 21.3267C28.5777 21.482 28.1117 21.6373 27.8011 21.9479C27.6458 22.1032 27.3351 22.2585 27.1798 22.2585C26.7139 22.4138 26.0926 22.4138 25.6267 22.4138C25.1608 22.4138 24.6948 22.5692 24.0736 22.7245C23.7629 22.1032 23.9183 21.482 23.7629 21.016C23.6076 19.9288 23.4523 18.6863 23.297 17.5991C23.297 17.2885 23.1417 16.9779 22.9864 16.6673C22.6757 15.8907 22.6757 15.8907 22.9864 15.1141C22.8311 15.1141 22.6758 15.2694 22.3651 15.2694C21.8992 14.8035 22.0545 14.4929 22.3651 14.0269C22.6758 13.7163 22.9864 13.4057 23.297 12.9397C22.8311 13.2504 22.3651 13.7163 21.8992 14.1822C21.7439 14.0269 21.5886 13.8716 21.4332 13.7163C22.0545 12.9397 21.8992 12.0079 21.8992 11.2313C21.8992 9.36752 21.4332 7.50377 20.812 5.64001C20.3461 4.3975 19.7248 3.3103 18.9482 2.2231C18.7929 1.91248 18.6376 1.75717 18.327 1.29123C18.6376 1.13591 18.9482 0.980605 19.2589 0.980605C21.1226 0.980605 23.1417 1.29123 24.6948 2.37843C25.4714 2.99968 26.0926 3.62093 26.5586 4.39749C27.8011 6.10594 28.4223 7.96971 28.8883 10.1441C29.5095 13.4057 30.1308 16.5119 30.752 19.7735C30.5967 20.3948 30.4414 20.8607 30.1308 21.3267Z" fill="black"/>
<path d="M9.62939 17.6001C8.85282 18.066 8.38688 18.3767 7.76562 18.8426C7.92094 18.532 7.92094 18.3767 7.92094 18.2214C8.38688 17.9107 8.85282 17.6001 9.62939 17.6001Z" fill="black"/>
<path d="M8.07422 19.7762C8.54016 19.1549 9.0061 18.9996 9.47204 18.689C9.16141 19.1549 8.69547 19.4655 8.07422 19.7762Z" fill="black"/>
<path d="M16.4648 23.346C16.7755 23.0353 17.2414 22.7247 17.552 22.4141C17.3967 22.88 16.9308 23.1906 16.6202 23.5013L16.4648 23.346Z" fill="black"/>
<path d="M24.0763 5.79556C23.921 5.64024 23.7656 5.64025 23.6103 5.48493C23.2997 5.17431 23.1444 4.86367 22.9891 4.39773C22.5231 3.31054 21.7466 2.53397 20.6594 2.06803C20.3488 1.91272 20.1934 1.7574 19.8828 1.44678C20.97 1.7574 21.9019 2.37866 22.5231 3.31054C23.1444 4.08711 23.6103 5.01899 24.0763 5.79556Z" fill="black"/>
<path d="M24.6914 16.3594C25.1573 17.1359 25.9339 20.8635 25.9339 21.7953C25.3127 20.2422 25.002 18.3784 24.6914 16.3594Z" fill="black"/>
<path d="M26.8662 16.5142C27.1768 18.0673 27.3321 19.7757 27.4875 21.3289C27.0215 20.397 26.5556 17.2907 26.8662 16.5142Z" fill="black"/>
<path d="M24.0742 5.79688C24.5402 6.41813 25.0061 7.1947 25.0061 7.97126C24.5402 7.35001 24.0742 6.72876 24.0742 5.79688Z" fill="black"/>
<path d="M8.85266 8.43647C8.85266 9.21304 8.38672 9.67899 7.76546 9.52367C6.9889 9.52367 6.21233 8.7471 6.36765 8.12585C6.52296 7.34928 7.14421 6.72803 7.76546 6.72803C8.69734 6.88334 9.00797 7.34928 8.85266 8.43647Z" fill="black"/>
<path d="M17.2394 7.81657C17.0841 7.97188 16.9288 8.2825 16.7734 8.74844C16.3075 9.3697 15.6863 9.3697 15.065 8.74844C14.7544 8.43782 14.7544 7.81656 15.065 7.35062C15.3756 6.88468 15.9969 6.57405 16.6181 6.72937C17.0841 6.72937 17.2394 7.19531 17.2394 7.81657Z" fill="black"/>
<path d="M15.5272 2.8469C14.9059 2.8469 14.2847 2.84689 13.8188 3.00221C13.3528 3.15752 12.8869 3.46815 12.2656 3.77877C12.2656 3.31283 12.7316 2.8469 13.1975 2.69159C13.9741 2.38096 14.7506 2.38096 15.5272 2.8469Z" fill="black"/>
<path d="M10.0941 3.31264C9.47281 3.62326 9.3175 3.31264 8.85156 3.15732C9.3175 2.8467 9.62813 3.15732 10.0941 3.31264Z" fill="black"/>
<path d="M2.64062 21.6393C2.95125 21.484 3.10657 21.3287 3.41719 21.1733L3.5725 21.3287C3.26188 21.484 3.10657 21.6393 2.95125 21.9499C2.64063 21.7946 2.64062 21.7946 2.64062 21.6393Z" fill="black"/>
<path d="M6.37109 12.6319C6.52641 12.6319 6.68172 12.4766 6.99234 12.4766V12.6319C6.83703 12.7872 6.68172 12.7872 6.37109 12.9425C6.37109 12.7872 6.37109 12.7872 6.37109 12.6319Z" fill="black"/>
<path d="M5.4375 14.1851C5.59281 14.1851 5.74813 14.0298 6.05876 14.0298V14.1851C5.90344 14.3404 5.74813 14.3404 5.4375 14.4957C5.59281 14.3404 5.4375 14.3404 5.4375 14.1851Z" fill="black"/>
<path d="M7.1436 14.3394C7.29891 14.3394 7.29891 14.4947 7.45422 14.4947C7.45422 14.65 7.29891 14.65 7.1436 14.8053L6.98828 14.65C6.98828 14.4947 6.98828 14.3394 7.1436 14.3394Z" fill="black"/>
<path d="M15.0625 12.0103C15.2178 12.0103 15.3731 11.855 15.6838 11.855V12.0103C15.5284 12.1656 15.3731 12.1656 15.0625 12.3209C15.0625 12.1656 15.0625 12.1656 15.0625 12.0103Z" fill="black"/>
<path d="M13.8203 14.1851C13.9756 14.1851 14.1309 14.0298 14.4416 14.0298V14.1851C14.2862 14.3404 14.1309 14.3404 13.9756 14.4957C13.9756 14.3404 13.9756 14.3404 13.8203 14.1851Z" fill="black"/>
<path d="M16.4639 12.7861C16.6192 12.7861 16.6192 12.9414 16.7745 12.9414C16.7745 13.0968 16.6192 13.0968 16.4639 13.2521L16.3086 13.0968C16.3086 12.9414 16.3086 12.9414 16.4639 12.7861Z" fill="black"/>
<path d="M10.7198 10.9235C10.8752 10.7682 11.1858 10.6129 11.3411 10.6129C11.6517 10.6129 11.807 10.7682 11.9624 10.9235C11.9624 11.0789 12.1177 11.0789 12.273 10.9235C12.4283 10.7682 12.4283 10.7682 12.273 10.6129C11.9624 10.3023 11.6517 10.147 11.3411 10.147C10.8752 10.147 10.5645 10.4576 10.2539 10.6129C10.2539 10.7682 10.2539 10.9235 10.2539 10.9235C10.5645 11.0789 10.7198 11.0789 10.7198 10.9235Z" fill="white"/>
<path d="M7.60954 7.6611C7.60954 7.81642 7.45422 7.97174 7.29891 7.97174C7.1436 7.97174 6.98828 7.81642 6.98828 7.6611C6.98828 7.50579 7.1436 7.35048 7.29891 7.35048C7.45422 7.19517 7.60954 7.35048 7.60954 7.6611Z" fill="white"/>
<path d="M15.8439 7.50593C15.8439 7.66125 15.6886 7.81657 15.5333 7.81657C15.378 7.81657 15.2227 7.66125 15.2227 7.50593C15.2227 7.35062 15.378 7.19531 15.5333 7.19531C15.6886 7.19531 15.8439 7.35062 15.8439 7.50593Z" fill="white"/>
<path d="M17.0831 5.01917C17.5491 5.17448 18.015 5.32979 18.3256 5.79573C18.7916 6.41699 19.2575 7.19355 19.4128 8.12543C19.7235 9.05731 19.7235 9.98919 19.7235 10.7658C19.7235 10.9211 19.7235 10.9211 19.7235 10.9211C19.7235 11.0764 19.8788 11.0764 19.8788 11.0764C20.0341 11.0764 20.0341 10.9211 20.0341 10.9211C20.0341 10.7658 20.0341 10.7658 20.0341 10.7658C20.0341 9.67856 19.8788 8.28075 19.4128 7.03825C19.1022 6.41699 18.9469 5.95105 18.4809 5.48511C18.015 5.01917 17.5491 4.70854 16.9278 4.55322C16.7725 4.55322 16.6172 4.55323 16.6172 4.70855C16.7725 4.86386 16.9278 5.01917 17.0831 5.01917Z" fill="#010202"/>
<path d="M5.59094 10.7663C5.59094 10.4557 5.59094 10.3003 5.59094 9.98972C5.59094 8.5919 6.05688 7.03877 6.83345 5.79626C6.98876 5.48563 7.14407 5.33032 7.4547 5.175C7.61001 5.01969 7.92064 4.86438 8.23127 4.86438C8.38658 4.86438 8.54189 4.70907 8.54189 4.70907C8.54189 4.55376 8.5419 4.39844 8.38658 4.39844C8.38658 4.39844 8.38658 4.39844 8.23127 4.39844C7.92064 4.39844 7.4547 4.55376 7.14408 4.70907C6.83345 4.86438 6.67814 5.17501 6.52282 5.48564C5.59094 6.88346 5.125 8.43658 5.125 9.98972C5.125 10.3003 5.125 10.4557 5.125 10.7663C5.125 10.9216 5.28031 10.9216 5.43563 10.9216C5.43563 10.9216 5.59094 10.9216 5.59094 10.7663Z" fill="#010202"/>
</g>
</svg>
