<svg width="74" height="64" viewBox="0 0 74 64" fill="none" xmlns="http://www.w3.org/2000/svg">
<path d="M12.8737 62.6686C12.4877 61.8964 12.6164 61.3817 13.0024 60.7383C13.2598 61.3817 13.1311 61.8964 12.8737 62.6686Z" fill="black"/>
<path d="M53.7964 14.7988C51.3514 15.9569 48.7777 17.3725 46.0753 18.0159C41.0566 19.1741 35.6519 17.2438 30.5045 18.2733C30.3758 17.8872 30.5045 17.6298 30.6331 17.2438C30.3758 17.1151 30.1184 16.8577 30.1184 16.343C30.3758 15.3135 30.2471 14.284 30.1184 13.2546C29.9897 12.4824 30.1184 11.7103 29.6037 11.0669C28.8315 9.90875 27.6734 8.87927 28.0594 7.33505V7.20636C27.9308 6.82031 27.8021 6.30557 27.6734 5.79083C26.9013 3.4745 24.7136 1.67291 22.1399 1.54422C21.4965 1.54422 20.8531 1.54422 20.2097 1.41554C19.5662 1.28685 19.0515 1.02948 18.4081 0.772113C16.4778 2.91469e-06 14.1615 0 12.1025 0C9.78617 0 7.08378 0.257371 5.92561 2.18765C5.66824 2.5737 5.53956 3.08844 5.15351 3.4745C4.89614 3.73187 4.51008 3.98924 3.99534 4.11792C3.86665 4.24661 3.86666 4.37529 3.73797 4.37529C3.60929 4.50397 3.4806 4.50398 3.35191 4.63266C2.45112 6.0482 2.83717 8.36453 2.70849 9.90875C2.5798 11.453 2.19375 12.4824 1.16427 13.3832C0.263478 14.5414 0.520848 15.8283 1.16427 17.1151C1.42164 17.3725 1.55033 17.7585 1.55033 18.1446V18.2733C1.55033 19.0454 1.16427 19.9462 0.778214 20.847C0.263474 21.8765 -0.251266 22.3912 0.134789 23.5494C0.392159 24.1928 0.77822 24.7075 1.03559 25.2223C1.42164 26.3804 1.29296 27.6673 1.16427 28.9541C1.16427 29.0828 1.16427 29.2115 1.03559 29.3402C1.16427 29.4689 1.29295 29.5976 1.42164 29.5976C2.45112 30.1123 3.86666 29.3402 4.89614 29.9836C5.2822 30.241 5.53956 30.627 5.79693 31.0131C6.9551 33.2007 8.11326 35.3884 8.37063 37.7047C8.49932 38.7342 8.37064 39.8924 8.75669 40.9218C9.01406 41.6939 9.5288 42.3374 9.91486 43.1095C10.4296 44.2676 10.687 45.5545 10.9443 46.97C11.7164 51.7314 12.3599 56.6214 10.8156 61.2541C12.2312 61.1254 13.3893 62.927 14.8049 62.5409C15.577 62.2835 15.963 61.3828 16.2204 60.6106C17.1212 57.6509 17.3786 54.4338 16.9925 51.3453C16.9925 50.9593 16.8638 50.5732 16.9925 50.3158C17.2499 49.8011 17.8933 49.5437 18.4081 49.415C19.8236 49.029 21.2391 48.6429 22.6547 48.3856C22.912 48.3856 23.0407 48.2569 23.2981 48.3856C23.5555 48.5143 23.5555 48.6429 23.6842 48.9003C25.2284 52.5035 25.3571 56.6214 24.0702 60.2246C23.9415 60.482 23.8128 60.7393 23.9415 60.9967C24.0702 61.6401 24.8423 61.7688 25.4857 61.7688C27.9308 61.5114 29.9897 58.809 29.475 56.364C29.3463 55.978 29.2176 55.4632 29.3463 55.0772C29.7323 54.0477 31.5339 53.919 31.6626 52.7609C31.6626 51.9888 30.7618 51.6027 30.6331 50.8306C30.5045 49.8011 31.7913 49.415 32.306 48.5142C32.9495 47.2274 31.6626 45.8119 32.0487 44.3963C32.306 43.2382 33.7216 42.7234 34.8797 42.3374C37.4534 41.5653 39.8985 40.9218 42.4722 40.1497C41.8287 41.4366 41.314 42.7234 41.314 44.139C41.4427 45.4258 42.0861 46.584 42.4722 47.7421C43.6303 50.4445 43.8877 53.533 43.373 56.4927C43.2443 56.7501 43.2443 57.1361 43.5016 57.3935C43.759 57.7796 44.2738 57.6509 44.6598 57.5222C46.7188 57.0075 49.1638 56.1067 49.1638 54.0477C49.1638 53.2756 48.7777 52.5035 48.3917 51.7314C47.4909 49.8011 47.3622 47.4848 47.7482 45.4258C49.5498 45.6832 51.2227 46.8413 51.8662 48.5142C52.5096 50.1872 52.2522 52.2461 51.2227 53.6617C50.9654 53.919 50.708 54.3051 50.5793 54.6911C50.4506 55.0772 50.708 55.4632 50.8367 55.8493C51.7375 57.1361 53.7964 57.5222 54.9546 56.6214C56.1128 55.8493 56.4988 54.3051 56.3701 52.8895C56.2415 51.474 55.7267 50.1872 55.3407 48.9003C54.5686 46.4553 54.1825 43.8816 53.7964 41.4366C53.2817 38.0908 52.767 34.8736 52.2522 31.5278C56.1128 30.1123 59.8446 28.0533 63.0618 25.6083C63.8339 25.0936 64.4773 24.4502 64.992 23.8067C67.4371 20.4609 71.1689 17.5012 73.4852 14.1554C68.9813 14.7988 69.11 7.20637 53.7964 14.7988Z" fill="white"/>
<path d="M9.65582 14.1562C10.0419 14.4135 10.4279 14.5422 10.6853 14.9283C10.9427 15.3143 11.2 15.7004 11.2 16.0864C11.2 16.4725 10.9427 16.9872 10.6853 17.3733C10.5566 17.6307 10.2992 17.888 10.0419 18.0167C9.14108 18.4028 7.46817 17.7593 7.59686 16.6012C7.72554 16.0864 9.26976 14.0275 9.65582 14.1562Z" fill="#BCBCBB"/>
<path d="M15.189 15.4423C15.7037 15.1849 16.0898 14.6702 16.6045 14.4128C17.1193 14.1555 17.634 13.7694 18.1487 14.0268C17.5053 16.7292 15.575 19.0455 15.4464 21.7479C15.4464 22.52 15.4464 23.4208 15.0603 24.0642C14.5456 24.8363 13.6448 25.0937 12.744 25.2224C11.9719 25.3511 11.1998 25.4797 10.4276 25.3511C9.9129 25.2224 9.39817 24.8363 8.88343 24.4503C8.24 23.9355 7.59658 23.1634 7.33921 22.3913C7.08184 21.4905 7.21052 20.461 7.98263 19.9463C9.1408 19.0455 11.0711 19.8176 12.2292 18.6594C12.744 18.1447 12.8727 17.3726 13.2587 16.8578C13.6448 16.0857 14.1595 15.9571 15.189 15.4423Z" fill="#BCBCBB"/>
<path d="M7.85232 26.8943C7.72363 25.9935 6.95152 25.6075 6.56547 24.964C6.05073 23.9346 6.69415 23.4198 6.56547 22.3903C6.3081 20.2027 2.8336 22.2617 1.80412 22.6477C1.41807 22.7764 0.903325 23.0338 0.77464 23.5485C0.645955 24.0633 1.28939 24.4493 1.54676 24.964C1.80413 25.3501 1.80413 25.8648 1.54676 26.3796C1.54676 26.5083 1.54676 26.637 1.54676 26.637C1.54676 27.9238 1.41807 30.1115 2.57623 31.0122C3.09097 31.1409 3.7344 31.1409 4.37782 31.0122C5.02125 30.8836 5.66468 30.7549 6.05073 30.2401C6.69416 29.7254 7.08021 28.9533 7.33758 28.1812C7.72364 27.7951 7.85232 27.4091 7.85232 26.8943Z" fill="#BCBCBB"/>
<path d="M19.9543 16.9871C19.4395 17.3732 19.5682 18.274 19.9543 18.7887C20.3403 19.3034 20.9838 19.8182 21.2411 20.3329C22.0132 21.6198 21.3698 23.2927 20.8551 24.7082C20.7264 24.9656 20.5977 25.3516 20.7264 25.609C20.7264 25.995 20.9838 26.2524 21.2411 26.5098C22.3993 27.668 24.0722 28.3114 25.6164 28.8261C26.2598 29.0835 26.9033 29.2122 27.5467 29.2122C28.1901 29.2122 28.9622 28.8261 29.2196 28.3114C29.7343 27.4106 29.0909 26.3811 28.3188 25.609C27.5467 24.9656 26.6459 24.3221 26.2598 23.4214C25.7451 22.2632 26.0025 20.9763 26.1312 19.8182C26.2598 18.66 25.8738 17.1158 24.7156 16.7297C24.3296 16.6011 23.9435 16.601 23.4288 16.601C22.6567 16.601 21.7559 16.4724 21.1124 16.0863C20.469 15.7003 19.9543 14.7995 20.083 14.0273C18.9248 15.5716 19.0535 17.8879 20.3403 19.3034" fill="#BCBCBB"/>
<path d="M20.3388 7.84978C20.0814 7.72109 19.6954 8.10715 19.5667 8.36452C18.9233 9.65137 18.4085 11.0669 18.2798 12.4824C18.2798 12.7398 18.1512 13.1259 18.2798 13.3832C18.5372 14.0267 19.3093 14.6701 19.8241 14.1553C20.2101 13.7693 20.0814 12.7398 20.0814 12.2251C20.0814 11.453 21.1109 8.23583 20.3388 7.84978Z" fill="#BCBCBB"/>
<path d="M37.7081 17.8877C38.4802 17.8877 39.381 17.8877 40.1532 17.8877C41.8261 18.0164 43.6276 18.5311 45.1719 18.9172C45.3005 19.1745 45.1719 19.4319 45.0432 19.5606C44.9145 19.6893 44.6571 19.818 44.3998 19.9467C43.499 20.3327 42.7268 20.8475 41.8261 21.3622C41.3113 21.6196 40.7966 22.0056 40.4105 22.3917C40.0245 22.7777 39.7671 23.1638 39.381 23.5498C38.995 23.9359 38.6089 24.3219 38.0942 24.708C37.7081 24.9654 37.1934 25.2227 36.8073 25.2227C36.4213 25.2227 35.7779 25.2227 35.3918 24.8367C35.2631 24.708 35.1344 24.4506 35.0058 24.3219C34.491 23.5498 33.9763 22.7777 33.4615 22.0056C33.0755 21.4909 32.5607 20.9761 32.1747 20.4614C31.7886 19.9467 31.5312 19.1745 31.5312 18.5311C31.6599 17.8877 31.9173 17.8877 32.4321 17.8877C32.9468 17.8877 33.4615 17.8877 33.9763 17.8877C35.3918 18.0164 36.55 18.0164 37.7081 17.8877Z" fill="#BCBCBB"/>
<path d="M25.2295 52.8908C25.4869 54.0489 25.3582 55.3358 25.8729 56.3652C26.0016 56.6226 26.1303 56.7513 26.3876 56.7513C26.5163 56.7513 26.645 56.6226 26.645 56.6226C27.4171 55.9792 27.8032 54.821 27.9319 53.7915C28.3179 51.8613 28.4466 49.931 28.3179 48.0007C28.3179 47.6147 28.1892 47.0999 27.9319 46.8426C27.6745 46.7139 27.4171 46.7139 27.1598 46.7139C25.8729 46.7139 24.3287 46.7139 24.2 48.2581C24.0713 49.8023 24.9721 51.4752 25.2295 52.8908Z" fill="#BCBCBB"/>
<path d="M45.4309 51.0886C45.5595 51.9894 45.4309 52.8902 45.6882 53.6623C46.203 53.791 46.589 53.2762 46.7177 52.7615C47.2325 51.2173 47.2325 49.5444 46.7177 48.0001C46.4603 47.0993 45.9456 46.3272 45.4309 45.5551C44.9161 44.783 44.2727 42.7241 43.1145 42.4667C42.085 42.338 41.5703 43.7535 41.5703 44.6543C41.699 45.9412 42.8572 46.7133 43.758 47.6141C44.5301 48.5149 45.3022 49.6731 45.4309 51.0886Z" fill="#BCBCBB"/>
<path d="M61.0034 22.3918C62.1616 22.2631 63.7058 22.3918 64.0919 23.5499C64.4779 24.4507 63.9632 25.3515 63.1911 25.9949C62.805 26.2523 62.419 26.381 62.1616 26.7671C61.9042 27.0244 61.6468 27.5392 61.5182 27.9252C60.4887 29.7268 58.4297 30.3702 56.4995 31.0137C55.3413 31.3997 54.0544 31.7858 53.025 31.271C51.9955 30.885 51.0947 29.4694 50.966 28.44C50.8373 27.2818 52.1242 26.5097 52.8963 25.8663C55.2126 23.936 58.0437 22.7778 61.0034 22.3918Z" fill="#BCBCBB"/>
<path d="M56.757 53.5329C56.6283 52.3747 56.4996 51.2165 56.2422 50.0584C55.5988 47.742 54.8267 45.4257 54.1833 43.1094C53.5398 40.6644 53.2825 38.0907 52.8964 35.517C52.5104 33.3293 51.8669 31.1417 51.8669 28.954C51.7383 28.0532 51.9956 27.5385 52.6391 26.8951C53.6685 25.9943 54.698 24.9648 55.8562 23.8066C54.0546 24.4501 53.2825 26.123 51.7383 26.8951C51.4809 26.509 51.0948 26.2517 50.7088 25.7369C50.4514 25.3509 50.194 24.8361 49.9367 24.3214C50.0654 25.0935 50.0654 25.8656 50.194 26.509C50.4514 27.5385 50.9662 28.3106 51.0948 29.3401C51.2235 30.8843 50.3227 31.9138 49.4219 32.9433C48.5211 34.1014 47.8777 35.517 48.0064 37.0612C48.1351 38.348 49.2932 39.3775 49.9367 40.407C50.3227 41.0504 50.9661 41.5652 51.4809 41.9512C51.9956 42.466 52.3817 43.1094 53.0251 43.4954L53.1538 43.6241C53.2825 43.6241 53.4112 43.7528 53.5398 43.7528C52.8964 42.7233 51.6096 42.466 51.2235 41.4365C51.4809 41.4365 51.7383 41.3078 51.9956 41.3078C51.0948 40.5357 50.194 39.7636 49.2932 38.8628C48.0064 37.5759 48.0064 36.5465 49.1646 35.0022C49.808 34.1014 50.5801 33.2006 51.3522 32.1712C51.4809 32.9433 51.7383 33.7154 51.8669 34.4875C52.1243 35.6457 52.5104 36.8038 52.3817 38.0907C52.253 39.3775 53.1538 40.2783 53.4112 41.4365C54.312 44.911 55.2128 48.3855 56.1135 51.86C56.2422 52.6321 56.4996 53.4042 56.4996 54.1763C56.6283 55.2058 55.8562 55.8492 54.9554 55.8492C54.8267 55.9779 54.698 55.9779 54.5693 55.9779C54.312 56.1066 54.0546 56.1066 53.7972 56.1066C53.6685 56.1066 53.4112 55.9779 53.2825 55.8492H53.1538C53.0251 55.4631 53.0251 55.0771 53.0251 54.8197C53.0251 54.691 52.8964 54.691 52.6391 54.5623V54.691C52.7677 54.9484 52.6391 55.2058 52.5104 55.3345C52.5104 55.4632 52.5104 55.5918 52.3817 55.7205C52.253 55.7205 52.1243 55.5918 51.9956 55.5918C51.7383 55.7205 51.4809 55.5918 51.2235 55.3345C50.7088 54.5624 50.8375 53.7902 51.4809 53.1468C52.1243 52.6321 52.6391 52.5034 52.8964 51.6026C53.0251 50.5731 52.3817 49.5436 52.1243 48.6428C51.7383 47.6134 51.6096 46.5839 51.4809 45.5544C51.2235 45.6831 50.9662 45.8118 50.7088 45.8118C50.5801 45.8118 50.5801 45.8118 50.4514 45.8118C49.9367 45.8118 49.4219 45.6831 49.0359 45.4257C48.3924 44.911 47.749 44.2676 47.1056 43.8815C46.8482 43.7528 46.8482 43.7528 46.5909 43.6241C46.4622 43.6241 46.5909 43.6241 46.4622 43.6241C46.3335 43.6241 46.2048 43.7528 46.0761 43.7528C45.4327 43.8815 44.7893 43.4954 44.5319 42.852C44.4032 42.466 44.4032 41.9512 44.2745 41.5652C44.1458 41.1791 43.8885 40.7931 43.5024 40.7931C43.3737 40.7931 43.245 40.7931 43.245 40.7931C42.9877 41.0504 42.6016 41.3078 42.0869 41.6938C42.2156 40.407 42.3443 39.2488 42.3443 38.2194C42.3443 38.0907 42.3443 37.962 42.3443 37.8333C42.0869 38.2194 41.9582 38.6054 41.8295 38.9915C41.4435 39.8923 40.8 40.6644 39.8992 41.0504C38.9984 41.4365 38.0977 41.3078 37.0682 41.3078C36.4247 41.3078 35.2666 41.1791 34.8805 41.8225C34.7518 42.0799 34.6232 42.0799 34.3658 42.0799C34.3658 42.3373 34.2371 42.5946 34.3658 42.7233C34.3658 42.852 34.6231 42.9807 34.8805 43.2381C35.3953 41.8225 35.91 41.5652 37.3255 41.8225C37.5829 41.8225 37.8403 41.9512 38.0976 41.9512C39.1271 42.2086 39.8992 42.0799 40.6713 41.3078C40.9287 41.0504 41.0574 40.9217 41.4435 40.6644V42.3373C41.3148 42.466 41.1861 42.466 41.0574 42.5947C41.0574 42.7233 41.0574 42.7233 41.0574 42.852C40.6713 44.5249 42.0869 45.8118 42.859 47.2273C44.2745 49.6723 44.6606 52.8895 43.6311 55.4632C43.5024 55.8492 43.2451 56.3639 43.5024 56.8787C43.6311 57.2647 44.0172 57.5221 44.5319 57.5221C45.6901 57.7795 47.1056 57.0074 48.1351 56.3639C48.5211 55.9779 48.7785 55.5918 48.9072 55.0771C49.2932 54.0476 49.2932 52.8894 49.1646 51.7313C48.9072 50.0584 48.6498 48.3855 48.3924 46.8412C48.3924 46.5839 48.1351 46.3265 48.0064 45.8118C47.749 46.3265 47.6203 46.5839 47.6203 46.7126C47.6203 47.4847 47.749 48.2568 47.8777 49.0289C48.1351 50.4444 48.3925 51.7313 48.5211 53.0181C48.5211 54.1763 48.3925 55.3345 47.2343 55.9779C46.5909 56.2353 45.9474 56.6213 45.304 56.75C44.7893 57.0074 44.2745 56.8787 43.7598 56.3639C43.8885 56.1066 44.0172 55.9779 44.1458 55.8492C44.7893 55.2058 45.0466 54.4337 45.1753 53.6616C45.1753 53.1468 45.4327 52.7608 45.9474 52.3747C46.0761 52.246 46.2048 51.9887 46.5909 51.6026C45.9474 51.86 45.5614 51.9887 45.1753 52.1173C44.918 51.6026 44.918 51.3452 45.304 51.0879C45.6901 50.7018 46.2048 50.3157 46.5909 49.9297C46.7195 49.801 46.7195 49.6723 46.8482 49.4149L46.7195 49.2863C46.2048 49.6723 45.6901 50.0584 45.0466 50.4444C45.0466 49.801 44.918 49.415 44.918 49.0289C45.0466 47.9994 44.5319 47.0986 44.0172 46.3265C43.8885 46.0691 43.6311 45.9405 43.3737 45.6831C42.6016 44.911 42.2156 43.8815 42.2156 42.7233C42.7303 42.2086 43.245 41.6939 43.8885 41.1791C44.5319 42.2086 44.4032 43.3668 45.5614 44.1389C45.9474 44.0102 46.4622 43.8815 46.9769 43.6241C47.363 43.8815 47.749 44.1389 48.1351 44.5249C49.0359 45.8118 50.194 46.1978 51.7383 46.0691C52.1243 47.356 52.5104 48.6428 52.7677 49.9297C52.8964 50.5731 52.7677 51.2165 52.253 51.6026C51.7383 51.9887 51.3522 52.3747 50.9661 52.8895C50.5801 53.2755 50.3227 53.7902 50.5801 54.4337C50.8375 55.0771 51.2235 55.4632 51.6096 55.9779C51.7383 55.9779 51.9956 55.9779 52.1243 56.1066C52.8964 56.75 54.0546 56.6213 54.9554 56.3639C55.7275 56.1066 56.6283 55.7205 57.0143 54.9484C56.8857 55.2058 56.757 54.305 56.757 53.5329Z" fill="black"/>
<path d="M33.5921 40.2786C33.5921 40.1499 33.4635 40.0212 33.2061 39.7639C33.2061 40.6647 33.2061 41.5655 33.0774 42.4662C32.9487 43.2384 32.6914 43.8818 32.434 44.6539C32.1766 45.2973 32.3053 46.0694 32.3053 46.7128C32.3053 47.485 32.0479 48.1284 31.7906 48.7718C31.5332 49.2865 31.1471 49.8013 31.0184 50.4447C30.8898 51.0881 31.2758 51.6029 31.5332 52.1176C31.6619 52.2463 31.6619 52.5037 31.6619 52.6324C32.0479 53.2758 32.0479 53.5332 31.4045 53.9192C31.1471 54.4339 30.6324 54.9487 30.1176 55.3348C29.3455 56.2355 29.2169 57.1363 29.3455 58.1658C29.4742 58.4232 29.4742 58.5519 29.6029 58.8092C29.8603 59.9674 29.6029 60.4821 28.1874 60.9969V59.5814H27.93C27.8013 60.0961 27.6726 60.6108 27.5439 61.2543H26.1284C25.9997 60.7395 25.9997 60.3535 25.871 59.71C25.6137 60.3535 25.485 60.6108 25.2276 61.1256C25.0989 60.7395 24.9702 60.4821 24.9702 60.3535C25.0989 59.71 25.2276 58.9379 25.6137 58.4232C25.6137 58.2945 25.7424 58.2945 25.7424 58.1658C25.871 57.3937 25.7424 56.6216 25.7424 55.8495C25.6137 55.0774 25.6137 54.1766 25.485 53.4045C25.2276 51.9889 24.9702 50.5734 24.3268 49.1579C24.1981 48.9005 24.1981 48.7718 24.3268 48.6431C24.1981 48.5144 24.0695 48.5144 23.8121 48.3858C24.5842 47.9997 25.2276 47.7423 25.871 47.485C26.6431 47.0989 27.0292 46.4555 27.0292 45.5547C27.0292 44.6539 26.9005 43.8818 26.5145 43.1097C25.9997 41.8228 26.1284 41.0507 27.2866 40.1499C27.544 39.8925 27.93 39.6352 28.1874 39.2491C28.5734 38.7344 28.7021 37.9623 28.4447 37.3188C28.3161 37.5762 28.3161 37.9623 28.0587 38.2196C27.8013 38.7344 27.4153 39.1204 27.0292 39.5065C26.6432 39.8925 26.2571 40.2786 25.9997 40.7933C25.7424 41.3081 25.871 41.9515 25.9997 42.5949C26.1284 43.4957 26.3858 44.5252 26.2571 45.426C26.2571 45.8121 25.9997 46.1981 25.7424 46.4555C25.0989 47.3563 23.9408 47.7423 23.04 48.2571C22.5252 48.5144 22.1392 48.7718 21.6244 49.0292C21.1097 49.2866 20.595 49.2866 20.0802 49.1579C19.5655 49.0292 19.1794 48.7718 18.6647 48.6431C18.1499 48.5144 17.7639 48.3858 17.3778 47.9997C16.477 47.6136 16.6057 46.5842 16.6057 45.6834C16.6057 45.5547 16.6057 45.2973 16.477 45.1686C16.477 45.0399 16.3484 45.0399 16.3484 44.9113C15.9623 44.6539 15.5762 44.5252 15.1902 44.2678C14.1607 43.7531 13.3886 42.981 13.3886 41.8228C13.3886 40.7933 14.032 39.8925 14.8041 39.1204C14.6754 38.9917 14.6754 38.9917 14.5468 38.8631C13.5173 39.6352 13.1312 40.1499 12.7452 41.4368C12.4878 42.5949 12.7452 43.4957 13.7747 44.2678C14.2894 44.6539 14.8041 44.9113 15.3189 45.1686C16.091 45.5547 16.477 46.0694 16.2197 46.8415C16.2197 46.9702 16.2197 47.2276 16.091 47.3563C15.9623 48.5144 16.2197 49.0292 17.3778 49.4152C17.8926 49.6726 18.6647 49.8013 19.1794 49.8013C20.3376 49.93 20.3376 49.93 20.7236 51.0881C20.7236 51.2168 20.8523 51.2168 20.8523 51.3455C21.2384 51.2168 21.4957 51.0881 22.0105 50.9595C21.7531 50.0587 21.7531 49.0292 23.04 48.6431C23.5547 50.5734 24.0695 52.2463 24.4555 54.0479C24.5842 54.6913 24.7129 55.4634 24.8416 56.1069C25.0989 56.879 24.9702 57.5224 24.4555 58.1658C23.8121 58.9379 23.6834 59.71 23.6834 60.6108C23.6834 61.6403 24.1981 62.4124 25.2276 62.5411C25.7424 62.6698 26.3858 62.6698 27.0292 62.6698C28.4447 62.5411 29.3455 61.6403 30.1176 60.6108C30.7611 59.8387 30.5037 58.8092 30.2463 57.9085C29.8603 56.4929 30.1176 55.5921 31.4045 54.9487C32.5627 54.3053 32.82 53.2758 32.1766 52.1176C31.9192 51.7316 31.7906 51.4742 31.6619 51.0881C31.4045 50.5734 31.4045 50.0587 31.9192 49.6726C32.82 48.9005 32.9487 47.871 32.6913 46.7128C32.5627 45.9407 32.6914 45.1686 33.2061 44.5252C33.4635 44.1392 33.7208 43.6244 33.7208 43.1097C33.7208 42.2089 33.5921 41.1794 33.5921 40.2786Z" fill="black"/>
<path d="M15.5781 9.90819C15.0634 9.0074 14.5486 8.23529 14.5486 7.20581C14.5486 6.17633 14.806 5.14685 15.4494 4.24605C15.8355 3.86 16.7363 3.08789 16.7363 2.31578C16.7363 2.31578 16.6076 2.31578 16.6076 2.18709C16.4789 2.05841 15.9642 2.18709 15.8355 2.31578C15.4494 2.57315 15.1921 3.08789 14.9347 3.47394C14.2913 4.50342 13.7765 5.5329 13.7765 6.69107C13.6478 9.13608 15.3207 10.5516 16.6076 12.2245C16.7363 12.3532 16.9936 12.3532 17.3797 12.3532C16.7363 11.7098 16.2215 10.809 15.5781 9.90819Z" fill="black"/>
<path d="M7.72623 4.63232C8.11228 4.63232 8.49834 5.01838 8.62703 5.53312C8.62703 6.17654 8.24097 6.81996 7.72623 6.94865C7.21149 6.94865 6.82544 6.69128 6.82544 5.91917C6.69675 5.27575 7.0828 4.63232 7.72623 4.63232Z" fill="black"/>
<path d="M15.0617 18.4028C13.3888 19.9471 11.9732 21.3626 10.429 22.6494C10.3003 22.6494 10.1717 22.6494 10.043 22.6494C11.7159 20.5905 14.0322 18.5315 15.0617 18.4028Z" fill="black"/>
<path d="M18.5352 38.8628C18.1491 38.9915 17.8917 39.1202 17.763 39.2489C17.1196 39.7636 17.1196 40.4071 17.763 40.9218C18.9212 41.8226 19.0499 42.466 18.5352 44.1389C18.4065 43.7529 18.4065 43.4955 18.4065 43.2381C18.5352 42.3373 18.2778 41.6939 17.5057 41.1792C17.1196 40.9218 16.6049 40.5357 16.8622 39.8923C17.1196 39.2489 17.377 38.6055 18.2778 38.6055C18.2778 38.6055 18.4065 38.7341 18.5352 38.8628Z" fill="black"/>
<path d="M11.0742 24.1933C12.1037 22.6491 13.5192 21.3622 15.1921 20.4614C13.9053 21.877 12.3611 22.9064 11.0742 24.1933Z" fill="black"/>
<path d="M23.1701 16.4727C22.9127 16.6014 22.784 16.6014 22.6553 16.7301C22.1406 17.1162 22.1406 17.5022 22.6553 17.8883C22.784 18.017 23.0414 18.1456 23.1701 18.1456C24.1995 18.7891 24.3282 19.3038 23.9422 20.848C23.8135 20.462 23.8135 20.3333 23.8135 20.2046C23.8135 19.3038 23.5561 18.5317 22.5266 18.1456C22.1406 18.017 21.6258 17.7596 21.7545 17.1162C21.8832 16.6014 22.2693 16.344 23.1701 16.4727Z" fill="black"/>
<path d="M3.35532 25.2216C3.484 24.9642 3.48401 24.8356 3.61269 24.7069C3.87006 24.0635 3.74138 23.5487 3.09795 23.034C1.8111 22.1332 1.8111 21.2324 3.09795 20.0742C2.96927 20.3316 2.96927 20.4603 2.84058 20.589C2.19716 21.6184 2.32584 22.0045 3.35532 22.6479C4.51348 23.42 4.51348 24.1921 3.35532 25.2216Z" fill="black"/>
<path d="M36.168 22.5196C36.4253 21.2327 38.0982 19.8172 39.3851 19.4312C38.2269 20.4606 37.1974 21.4901 36.168 22.5196Z" fill="black"/>
<path d="M37.71 18.6592C36.8092 19.56 35.9084 20.5894 34.8789 21.6189C35.1363 20.5894 36.6805 19.0452 37.71 18.6592Z" fill="black"/>
<path d="M29.0897 24.3207C28.4463 24.4494 28.0602 24.192 28.0602 23.6773C28.1889 22.9051 27.9315 22.2617 27.5455 21.6183C27.4168 21.4896 27.5455 21.1036 27.6742 20.8462C27.9315 21.747 28.7037 22.5191 28.4463 23.5486C28.575 23.6773 28.8323 23.9346 29.0897 24.3207Z" fill="black"/>
<path d="M52.2539 29.2104C53.026 28.0523 54.3129 27.4088 55.471 26.6367C55.2137 27.2801 54.5702 27.6662 54.0555 28.1809C53.5408 28.567 53.026 29.0817 52.5113 29.5965C52.3826 29.3391 52.3826 29.2104 52.2539 29.2104Z" fill="black"/>
<path d="M25.9977 16.2136C24.7108 14.5407 24.7108 13.2538 26.255 12.353C25.0969 13.7686 25.4829 14.9267 25.9977 16.2136Z" fill="black"/>
<path d="M23.6875 7.20527C24.3309 6.04711 25.103 5.27499 26.0038 4.76025C25.7465 5.53236 25.103 6.30448 23.6875 7.20527Z" fill="black"/>
<path d="M21.4961 39.2493C22.1395 38.9919 22.6543 39.1206 23.0403 39.6353C23.4264 40.1501 23.2977 40.6648 22.9116 41.1796C22.7829 40.4075 22.5256 39.6353 21.4961 39.2493Z" fill="black"/>
<path d="M11.3322 8.62047C11.2035 8.74915 11.0748 8.87783 11.0748 8.87783C10.4314 8.87783 9.78796 8.87783 9.14453 8.87783C9.4019 8.10572 10.0453 7.97704 11.3322 8.62047Z" fill="black"/>
<path d="M8.11328 33.5868C8.49934 32.4286 9.40013 31.9139 10.5583 31.5278C9.6575 32.2999 8.88539 32.9434 8.11328 33.5868Z" fill="black"/>
<path d="M18.0206 5.01756C17.3771 5.14624 16.8624 5.27493 16.3477 5.01756C16.8624 4.24545 17.1198 4.24545 18.0206 5.01756Z" fill="black"/>
<path d="M4.38053 20.9766C4.89527 21.4913 4.50921 22.1347 4.38053 22.6495C4.12316 22.1347 4.12316 21.62 4.38053 20.9766Z" fill="black"/>
<path d="M6.95637 12.4814C7.08506 12.7388 7.21374 12.8675 7.21374 12.9962C7.21374 13.1249 7.08506 13.2536 6.95637 13.2536C6.82769 13.2536 6.699 13.1249 6.57031 12.9962C6.699 12.8675 6.82769 12.7388 6.95637 12.4814Z" fill="black"/>
<path d="M13.3895 11.9673C13.1321 12.096 13.1321 12.2247 13.0035 12.2247C12.8748 12.2247 12.7461 12.096 12.7461 12.096C12.7461 11.9673 12.8748 11.8386 12.8748 11.71C13.0035 11.71 13.1321 11.8386 13.3895 11.9673Z" fill="black"/>
<path d="M13.648 13.125C13.7767 13.2537 13.9054 13.3824 13.9054 13.3824C13.7767 13.5111 13.7767 13.6397 13.648 13.6397C13.648 13.6397 13.3906 13.5111 13.3906 13.3824C13.5193 13.5111 13.648 13.3824 13.648 13.125Z" fill="black"/>
<path d="M46.5918 26.1226C46.5918 25.9939 46.4631 25.9939 46.3345 25.8652C46.3345 26.38 46.3345 27.0234 46.2058 27.5381V27.6668C46.2058 28.4389 45.9484 29.0824 45.5624 29.4684C45.305 29.8545 44.9189 30.2405 44.5329 30.4979C44.0181 30.8839 43.5034 31.0126 42.9887 31.3987C42.0879 32.0421 42.3452 33.2003 41.7018 34.1011C41.4444 34.3584 41.1871 34.6158 40.9297 34.7445C40.415 35.2592 39.9002 35.3879 39.1281 35.2592C38.8707 35.2592 38.742 35.2592 38.6134 35.2592C37.8412 35.2592 37.1978 35.2592 36.4257 35.2592C35.911 35.2592 35.3962 35.5166 35.0102 35.6453C34.6241 35.774 34.2381 36.0314 33.852 36.0314C33.7233 36.16 33.5946 36.4174 33.466 36.6748C33.0799 36.2887 32.9512 35.9027 32.8225 35.5166C32.6938 35.3879 32.6939 35.2592 32.6939 35.1306C32.4365 34.6158 32.0504 34.2298 31.6644 33.8437C31.5357 33.715 31.407 33.5863 31.2783 33.4577H31.1496C30.1202 33.5863 28.3186 33.715 27.2891 32.9429C26.6457 32.6855 26.2596 32.1708 26.3883 31.3987C26.517 30.8839 26.7743 30.3692 27.2891 29.9832C27.2891 29.8545 27.2891 29.7258 27.1604 29.7258C27.0317 29.7258 26.6457 29.7258 26.517 29.7258C25.2301 31.1413 25.4875 32.9429 27.1604 33.715C28.0612 34.1011 28.8333 34.2298 29.7341 34.1011C30.1201 33.9724 30.5062 33.9724 30.8923 33.9724C31.6644 33.9724 31.9217 34.2298 32.0504 35.0019C32.1791 35.3879 32.0504 35.774 32.1791 36.16C32.4365 36.9321 32.6938 37.4469 33.5946 37.7043C34.1094 37.8329 34.4954 37.5756 34.6241 37.0608C34.7528 36.4174 35.0102 36.16 35.5249 36.16C36.4257 36.0314 37.3265 35.9027 38.2273 35.9027C38.7421 35.9027 39.1281 36.0314 39.6428 36.0314C40.1576 35.9027 40.9297 35.9027 41.3157 35.5166C42.2165 34.8732 42.86 33.9724 43.1173 32.9429C43.3747 31.9134 43.8895 31.3987 44.6616 30.884C44.9189 30.7553 45.1763 30.6266 45.4337 30.3692C46.7205 29.5971 47.3639 27.6668 46.5918 26.1226Z" fill="black"/>
<path d="M18.4096 13.513C17.5088 12.9982 17.5088 12.9982 16.8654 13.7704C16.7367 13.899 16.7367 14.0277 16.608 14.0277C16.4794 14.2851 16.222 14.5425 15.9646 14.7998C15.5786 15.1859 15.0638 15.4433 14.4204 15.5719C14.2917 15.5719 14.163 15.7006 14.0343 15.7006C13.5196 15.8293 12.8762 15.7006 12.4901 15.3146C12.3614 15.1859 12.2327 15.0572 12.1041 15.0572C11.718 14.7998 11.3319 14.6711 10.9459 14.4138C10.5598 14.2851 10.3025 13.899 9.65904 14.0277C10.0451 15.1859 11.332 15.3146 11.9754 16.0867C11.8467 18.017 11.0746 18.9178 9.53036 19.0464C8.50088 19.0464 7.4714 17.8883 7.60009 16.2154C7.98614 15.8293 8.75825 15.4433 8.88694 15.0572C9.14431 13.7704 10.0451 13.1269 10.8172 12.2261C10.9459 11.9688 11.0746 11.8401 11.2033 11.5827C11.4606 10.8106 10.8172 9.9098 10.0451 9.9098C8.75825 9.78112 7.98614 10.4245 7.34272 11.454C7.60009 11.8401 7.85746 12.3548 8.11483 12.8696C8.3722 13.2556 8.62956 13.7704 9.01562 14.1564C8.62956 15.0572 7.85746 15.5719 6.82798 15.5719C6.44192 15.5719 6.05586 15.4433 5.79849 15.1859C5.15507 14.6711 4.76902 14.0277 4.76902 13.2556C4.64033 12.4835 4.8977 11.7114 5.41244 11.068C5.66981 10.8106 5.92718 10.4245 6.18455 10.2959C7.08535 9.26638 8.3722 8.62295 9.27299 7.46478C9.91642 6.69267 10.3025 5.79188 10.6885 4.7624C10.6885 3.99029 10.5598 3.34687 10.1738 2.70344C10.0451 2.44607 9.78773 2.44607 9.53036 2.31738C9.14431 2.96081 9.65904 3.21818 9.78773 3.60423C9.91641 4.24766 10.1738 4.7624 9.91642 5.40583C9.14431 6.82136 8.11483 8.10821 6.82798 9.00901C5.41244 9.9098 4.76901 11.1966 4.38296 12.7409C4.12559 13.899 4.51165 14.7998 5.41244 15.5719C5.66981 15.8293 6.05587 15.958 6.05587 16.0867C6.31324 17.2449 7.21403 17.7596 7.85745 18.6604C9.01562 20.2046 11.2033 20.0759 12.4901 18.6604C13.2622 17.7596 14.2917 17.1162 15.3212 16.3441C15.4499 16.3441 15.4499 16.2154 15.5786 16.2154C16.7367 16.0867 17.3801 15.4433 17.7662 14.5425C17.8949 14.4138 18.0236 14.2851 18.2809 14.0277C18.667 14.2851 19.053 14.4138 19.3104 14.6711C19.3104 14.5425 19.3104 14.5425 19.4391 14.4138C19.5678 14.1564 19.5678 14.0277 19.5678 13.7704C18.7957 13.6417 18.5383 13.6417 18.4096 13.513Z" fill="black"/>
<path d="M31.0189 20.5889C30.5041 19.9455 30.1181 19.3021 30.2468 18.2726C30.2468 18.0152 30.1181 17.8865 30.1181 17.7578C30.1181 17.6292 30.1181 17.6292 30.1181 17.5005C30.2468 17.1144 30.2468 16.8571 30.3755 16.471V16.3423C30.3755 16.0849 30.3755 15.9563 30.5042 15.8276C30.6328 14.9268 30.7615 14.1547 30.7615 13.2539C30.7615 12.0957 30.5041 11.0662 29.6033 10.2941C28.5739 9.39333 28.0591 8.23516 28.0591 6.81962C28.0591 5.79014 27.6731 4.88935 27.0296 4.11724C26.0002 3.08776 24.842 2.18696 23.4265 1.67222C22.9117 1.54354 22.2683 1.41485 21.7536 1.54354C21.6249 1.54354 21.4962 1.67222 21.2388 1.67222C21.2388 2.05828 21.2388 2.44433 21.2388 2.7017C22.5257 2.05828 23.6838 2.31565 24.5846 3.47381C24.1986 4.24592 23.2978 4.5033 23.4265 5.79015C24.1986 5.01804 24.3273 3.98855 25.2281 3.73118C26.5149 4.63197 27.5444 5.79015 27.4157 7.72042C27.4157 7.84911 27.4157 7.97779 27.4157 8.10647C27.5444 8.49253 27.5444 8.87859 27.6731 9.13596C27.8018 9.52201 28.0591 9.90807 28.1878 10.2941C28.3165 10.4228 28.4452 10.5515 28.5739 10.5515C29.732 11.4523 30.2468 12.7391 29.9894 14.2834C29.8607 14.9268 29.8607 15.5702 29.732 16.2136C29.732 16.5997 29.6034 16.8571 29.4747 17.2431C29.6034 18.4013 29.6034 19.4308 30.1181 20.4602C30.2468 20.7176 30.3755 21.1037 30.5042 21.361L30.6328 21.4897C31.791 22.6479 32.0484 23.6774 31.2763 25.2216C30.8902 26.1224 30.2468 26.8945 29.8607 27.7953C29.6034 28.1813 29.346 28.4387 28.9599 28.5674C28.8312 28.6961 28.8312 28.6961 28.7026 28.6961C28.5739 28.8248 28.4452 28.8248 28.3165 28.8248C27.5444 29.3395 26.901 29.5969 26.0002 29.2108C24.842 28.6961 23.4265 28.6961 22.2683 28.0527C21.7536 27.7953 21.3675 27.5379 21.1101 27.1519C20.9815 27.0232 20.8528 26.8945 20.8528 26.7658C20.4667 26.2511 20.5954 25.479 20.8528 24.8355C20.9815 24.1921 21.2388 23.6774 21.3675 23.0339C21.4962 22.3905 21.4962 21.6184 21.2388 21.1037C20.9815 20.4602 20.5954 19.9455 20.2093 19.4308C19.3086 18.0152 19.4372 16.3423 19.5659 14.6694C19.5659 13.7686 19.6946 12.9965 19.8233 12.0957C20.0807 11.3236 20.4667 10.6802 20.5954 9.77938C20.5954 9.6507 20.7241 9.52201 20.7241 9.52201C20.8528 9.13595 21.1101 8.7499 21.3675 8.36385C21.4962 8.10648 21.4962 7.97779 21.4962 7.72042C21.6249 7.33437 21.6249 6.81962 21.1101 6.81962C20.5954 7.72042 20.9815 9.00727 19.952 9.39332C19.8233 10.2941 19.5659 10.9375 19.4372 11.581C19.3085 12.2244 19.1799 12.9965 19.0512 13.7686C19.0512 13.8973 19.0512 14.026 19.0512 14.026C19.0512 14.2834 18.9225 14.412 18.9225 14.6694C18.9225 15.1841 18.9225 15.6989 18.7938 16.0849C18.6651 17.2431 18.6651 18.4013 19.3085 19.5594C19.6946 20.2029 19.952 20.975 20.4667 21.6184C21.1101 22.2618 21.1101 22.2618 20.7241 23.2913C20.4667 24.0634 20.2093 24.8355 20.0807 25.6076C19.8233 27.1519 20.338 28.0527 21.6249 28.6961C21.8823 28.8248 22.1396 28.9535 22.5257 28.9535C23.2978 29.2108 24.1986 29.4682 24.9707 29.7256C25.2281 29.8542 25.4854 30.1116 25.7428 30.2403C25.8715 30.2403 26.1289 30.2403 26.2575 30.2403C26.3862 30.2403 26.5149 30.2403 26.5149 30.2403C26.6436 30.2403 26.6436 30.2403 26.7723 30.2403C26.901 30.2403 27.0296 30.2403 27.0296 30.369C27.287 30.369 27.5444 30.4977 27.8018 30.4977C28.1878 29.8542 28.7026 29.4682 29.346 29.3395C29.6034 29.2108 29.9894 28.9534 30.2468 28.5674C30.7615 27.6666 31.2763 26.7658 31.791 25.865C32.8205 23.5487 32.6918 22.3905 31.0189 20.5889Z" fill="black"/>
<path d="M73.2264 14.7992C72.4543 13.7698 71.5535 13.1263 70.3954 12.6116C69.8806 12.3542 69.2372 12.2255 68.5938 12.0968C67.8217 11.8395 67.0496 11.7108 66.1488 11.5821C65.248 11.4534 64.4759 11.5821 63.5751 11.7108C62.6743 11.8395 61.9022 11.8395 61.0014 11.9682C60.1006 12.0968 59.3285 12.2255 58.5563 12.3542C57.7842 12.4829 57.0121 12.6116 56.1113 12.7403C55.9826 12.7403 55.854 12.869 55.7253 12.869C55.5966 12.9976 55.3392 12.9976 55.2105 12.9976C54.8245 13.1263 54.4384 13.3837 53.9237 13.5124C53.1516 13.8984 52.5082 14.2845 51.736 14.7992C50.4492 15.5713 49.4197 16.7295 48.1329 17.6303C47.8755 18.0164 47.4894 18.4024 47.1034 18.6598C46.9747 18.7885 46.846 18.7885 46.7173 18.9172C46.7173 18.9172 46.7173 19.0458 46.846 19.0458C46.7173 19.0458 46.7173 19.0458 46.5886 19.0458C45.4305 19.3032 44.1436 18.6598 42.9855 18.4024C42.2134 18.2737 41.5699 18.0164 40.7978 17.8877C40.1544 17.759 39.3823 17.759 38.7389 17.759C37.1946 17.759 35.7791 18.0164 34.3636 18.145C33.5915 18.2737 32.8193 18.2737 32.1759 18.145C31.9186 18.0164 31.6612 18.0164 31.2751 18.0164C30.8891 18.0164 30.503 18.145 30.2456 18.145C30.117 18.145 29.9883 18.145 29.9883 18.0164C29.9883 18.2737 29.9883 18.6598 29.9883 18.7885C29.9883 18.9172 30.117 18.7885 30.117 18.9172V18.7885L31.9186 18.5311C32.1759 18.6598 32.4333 18.6598 32.6907 18.9172C32.8193 19.0458 32.948 19.3032 33.0767 19.5606C33.2054 19.4319 33.3341 19.3032 33.4628 19.1745C34.8783 18.4024 36.5512 18.4024 38.2241 18.5311C40.1544 18.6598 42.2134 18.7885 44.1436 19.4319C45.0444 19.6893 45.9452 20.204 46.846 20.4614C47.8755 20.7187 48.1329 20.204 48.6476 19.4319C48.7763 18.7885 49.291 18.145 49.9345 17.6303C49.9345 17.6303 50.0631 17.6303 50.0631 17.5016C51.9934 15.7 54.4384 14.9279 56.7548 13.8984C57.7842 13.5124 58.9424 13.5124 59.9719 13.255C61.5161 12.869 63.0603 12.7403 64.6045 12.4829C65.634 12.3542 66.5348 12.3542 67.4356 12.9976C67.3069 14.2845 67.1782 15.4427 67.0496 16.7295C67.1782 16.7295 67.1782 16.7295 67.3069 16.7295C67.4356 16.3435 67.4356 15.9574 67.5643 15.5713C67.693 14.9279 67.9504 14.1558 68.079 13.5124C68.079 13.3837 68.4651 13.255 68.7225 13.1263C68.5938 14.4132 67.8217 15.4427 68.3364 16.7295C68.7225 15.5713 68.5938 14.4132 69.6233 13.3837C70.7814 14.0271 72.0683 14.5419 72.9691 15.7C71.8109 16.2148 70.7814 16.7295 69.6233 17.1156C67.5643 18.0164 66.6635 19.5606 66.5348 21.7482C66.5348 22.263 66.5348 22.7777 66.5348 23.2924C66.5348 24.5793 65.8914 25.2227 64.6045 25.4801C63.8324 25.6088 63.189 25.8661 62.5456 26.3809C61.7735 27.0243 61.2587 27.7964 61.0014 28.8259C60.4866 30.2414 59.8432 30.6275 58.299 30.6275C57.7842 30.6275 57.1408 30.4988 56.6261 30.8849C55.4679 31.5283 54.3097 31.9143 53.0229 31.2709C52.7655 31.1422 52.5082 31.2709 52.5082 31.5283C52.6368 31.657 52.7655 31.7857 52.7655 31.9143C52.8942 31.9143 52.8942 32.043 52.8942 32.043C53.1516 32.1717 53.409 32.1717 53.6663 32.3004C54.1811 32.4291 54.5671 32.4291 55.0819 32.4291C55.7253 32.4291 56.24 32.043 56.6261 31.7857C57.3982 31.3996 58.0416 31.2709 58.8137 31.2709C59.3285 31.2709 59.8432 31.3996 60.2293 31.1422C60.3579 31.1422 60.3579 31.0135 60.3579 31.0135C60.4866 30.8849 60.4866 30.8849 60.6153 30.7562C61.13 30.2414 61.3874 29.598 61.5161 28.8259C61.7735 28.0538 62.0308 27.2817 62.6743 26.8956C63.189 26.5096 63.8324 26.2522 64.4759 26.1235C64.9906 25.9948 65.5053 25.8661 66.0201 25.7375C66.1488 25.4801 66.4061 25.2227 66.5348 24.9653C66.7922 24.3219 66.9209 23.5498 67.0496 22.7777C67.3069 21.2335 67.3069 19.3032 68.8512 18.4024C69.4946 18.0164 70.138 17.759 70.7814 17.5016C71.1675 17.3729 71.5535 17.2442 71.9396 17.2442C72.3256 17.1156 72.583 16.9869 72.9691 16.8582C73.3551 16.7295 73.7412 16.6008 73.9986 16.4721C73.8699 15.4427 73.3551 15.0566 73.2264 14.7992Z" fill="black"/>
<path d="M20.338 1.15714C19.8233 0.899774 19.4372 0.642404 18.9225 0.513719C18.4078 0.385034 17.893 0.256348 17.2496 0.256348C16.9922 0.256348 16.7348 0.256348 16.4775 0.256348C15.9627 0.385033 15.448 0.385031 14.9333 0.385031C13.7751 0.385031 12.4882 0.513719 11.3301 0.513719C10.1719 0.513719 9.14243 0.513719 8.11295 1.15714C7.7269 1.41451 7.34084 1.80057 6.95479 2.18662C6.69742 2.44399 6.56873 2.57268 6.31136 2.70136C6.18268 2.83005 5.9253 2.95873 5.79662 3.08741C5.66793 3.2161 5.53925 3.34479 5.28188 3.47347V3.60216C5.28188 3.73084 5.28188 3.85953 5.15319 3.98821C5.15319 4.1169 5.02451 4.24558 5.02451 4.37426C5.02451 4.63163 4.89583 4.88901 4.89583 5.14638C4.76714 7.72008 4.76714 8.10613 5.53925 8.62087C5.79662 7.07665 5.41057 5.27506 6.31136 3.98821C7.08347 3.73084 7.85558 4.11689 8.37032 3.08741C7.85558 3.08741 7.46953 2.95873 6.8261 2.95873C7.85558 1.92925 8.88506 0.899773 10.3006 0.899773C12.6169 0.771088 15.0619 0.77109 17.3783 0.77109C18.2791 0.77109 18.9225 1.15714 19.5659 1.67188C20.0807 2.05794 20.7241 2.57268 21.2388 2.83005H21.3675C21.3675 2.57268 21.3675 2.44399 21.3675 2.18662C21.3675 2.05794 21.3675 1.92925 21.3675 1.80056C21.1101 1.67188 20.7241 1.41451 20.338 1.15714Z" fill="black"/>
<path d="M8.11531 26.5085C7.85794 26.1225 7.60057 25.6077 7.3432 25.093C6.95715 24.3209 6.95715 23.6774 7.3432 22.9053C7.60057 22.3906 7.85794 21.7472 8.11531 21.2324C8.244 21.1037 8.11531 20.8464 8.11531 20.4603C6.57109 22.2619 5.92767 24.4496 7.3432 26.2511C7.47189 26.3798 7.47189 26.5085 7.47189 26.5085C7.85794 27.4093 7.47189 29.8543 6.82846 30.3691C6.57109 30.6264 6.31372 30.7551 6.05635 30.7551C5.41293 31.0125 4.7695 30.8838 4.12608 30.7551C3.48265 30.8838 2.83922 30.8838 2.32448 30.2404C1.93843 29.7256 1.80974 28.8248 2.06711 28.1814C2.19579 27.7954 2.32448 27.538 2.45317 27.1519C2.45317 27.0233 2.58185 26.8946 2.58185 26.8946V26.7659C2.58185 26.7659 2.58185 26.7659 2.58185 26.6372C2.71054 26.3798 2.83922 26.1225 2.96791 25.9938C2.83922 25.8651 2.83923 25.7364 2.83923 25.7364C2.45317 25.3504 2.06711 24.9643 1.80974 24.7069C0.908947 23.8061 0.651575 22.648 1.295 21.6185C1.68106 20.9751 2.06711 20.4603 2.45317 19.9456C3.22528 18.4014 3.22528 17.3719 2.1958 16.5998C2.06712 16.4711 1.93843 16.3424 1.80974 16.2137C1.295 15.5703 1.16632 15.0556 1.68106 14.2834C1.93843 13.8974 2.1958 13.64 2.58185 13.254C3.09659 12.7392 3.61134 12.2245 4.12608 11.5811C4.7695 10.8089 4.7695 9.77946 4.38344 8.87866C4.25476 8.74998 4.25476 8.6213 4.12608 8.49262C3.61134 7.59182 3.61133 6.69103 3.99738 5.79023C4.12607 5.40418 4.51213 4.88943 4.7695 4.63206C5.15556 4.37469 5.5416 4.24601 5.92766 4.50338V4.63206C5.92766 4.50338 5.92766 4.37469 5.92766 4.24601C5.92766 4.11732 5.92767 3.98864 6.05635 3.85996C6.05635 3.73127 6.18504 3.60258 6.18504 3.34521L6.05635 3.4739L5.92766 3.34521C4.12607 3.73127 2.96791 4.76075 2.96791 7.07708C2.96791 7.33445 2.96791 7.59182 2.96791 7.84919C3.09659 8.10656 3.22527 8.36393 3.35396 8.74998C3.61133 9.39341 3.61133 10.1655 3.35396 10.8089C3.09659 11.4524 2.71054 12.0958 2.32448 12.6105C1.93843 13.1253 1.42369 13.5113 1.03763 14.1548C1.03763 14.2834 0.908951 14.4121 0.908951 14.5408C0.394211 16.3424 1.93843 16.5998 2.1958 18.0153C2.32449 19.0448 1.68106 19.9456 1.295 20.589C0.908945 21.1037 0.651579 21.6185 0.394209 22.1332C0.00815403 23.2914 0.00814813 23.9348 0.780258 24.5782C1.295 24.9643 1.55237 25.479 1.68106 25.9938C1.80974 26.2511 1.80974 26.3798 1.80974 26.7659C1.80974 26.8946 1.80974 27.0233 1.80974 27.1519C1.68106 28.1814 1.42369 29.3396 1.80974 30.2404C1.93843 30.3691 1.93842 30.4977 2.06711 30.6264C2.19579 30.7551 2.32448 30.8838 2.45317 30.8838C2.58185 30.8838 2.58185 31.0125 2.71053 31.0125C2.83922 31.0125 2.83922 31.0125 2.96791 31.1412C3.09659 31.1412 3.35397 31.1412 3.48265 31.2699C3.61134 31.2699 3.61133 31.3985 3.74002 31.3985C3.8687 31.3985 3.8687 31.5272 3.8687 31.5272C4.89818 31.7846 5.79898 31.7846 6.82846 31.3985H6.95714C7.08583 31.3985 7.08582 31.2699 7.21451 31.2699C7.34319 31.1412 7.60057 31.0125 7.72925 30.8838C7.85794 30.7551 7.98663 30.4978 8.11531 30.3691C8.11531 30.2404 8.24399 30.2404 8.24399 30.1117C8.37268 29.7256 8.50137 29.2109 8.75874 28.8248C8.63005 28.0527 8.63005 27.2806 8.11531 26.5085Z" fill="black"/>
<path d="M18.151 54.9491C18.4084 54.3057 18.4084 53.5336 18.4084 52.7615C18.4084 51.732 18.151 50.9599 17.765 49.9304C17.6363 49.9304 17.6363 50.0591 17.6363 50.0591C17.8937 51.2173 17.6363 52.3754 17.5076 53.5336C17.3789 54.6918 17.5076 55.9786 17.3789 57.1368C17.3789 57.3941 17.5076 57.5228 17.5076 57.7802C17.3789 57.9089 17.2502 58.0376 17.1216 58.0376C16.9929 58.1663 16.9929 58.4236 16.8642 58.5523C16.7355 58.8097 16.3495 59.1957 16.3495 59.5818C16.3495 59.9678 16.6068 60.2252 16.7355 60.6113C16.8642 61.126 16.8642 61.5121 16.4781 61.8981C16.2208 62.2842 15.706 62.2842 15.4486 62.1555C15.32 62.1555 15.32 62.1555 15.1913 62.1555C15.0626 61.6408 14.9339 61.126 14.6765 60.6113C14.1618 61.2547 14.6765 61.7694 14.6765 62.4129V62.5416C14.6765 62.9276 14.2905 63.185 13.9044 63.185C13.0036 63.0563 11.9742 63.3137 11.3307 62.6702C10.4299 61.7694 11.0734 60.6113 11.7168 59.9679C11.9742 59.5818 12.4889 59.3244 12.7463 58.9384C13.0036 58.5523 13.0036 58.1663 12.8749 57.7802C12.7463 56.3647 12.3602 55.0778 12.3602 53.6623C12.3602 53.5336 12.3602 53.4049 12.4889 53.2762C12.6176 53.0189 12.7463 52.7615 13.0036 52.5041C13.6471 51.9894 14.1618 51.2173 14.6765 50.5738C13.9044 50.8312 13.261 51.732 12.3602 52.1181C12.2315 51.0886 12.2315 51.0886 12.7463 50.7025C13.261 50.3165 13.9044 49.8017 14.5479 49.4157C14.5479 49.287 14.4192 49.287 14.4192 49.1583C13.9044 49.4157 13.3897 49.673 12.8749 49.9304C12.7463 50.3165 12.3602 50.4452 12.1028 50.3165H11.9742V50.1878C11.7168 50.0591 11.4594 49.9304 11.4594 49.5444C11.3307 47.0994 10.5586 44.783 10.1726 42.4667V42.338C9.9152 42.2093 9.78651 41.952 9.52914 41.8233C9.27177 41.4372 8.88572 40.7938 8.88572 40.1504C8.75703 38.9922 9.65783 37.9627 9.40046 36.8045C9.40046 36.5472 9.27177 36.1611 9.14308 35.9037C9.0144 35.7751 8.88572 35.6464 8.75703 35.389C8.62835 35.2603 8.49966 35.003 8.37097 34.8743C8.24229 34.8743 8.11361 34.7456 7.98493 34.6169C7.3415 34.1022 6.82676 33.4587 6.69808 32.5579C6.56939 31.9145 6.82676 31.3998 6.82676 30.7563C6.69807 30.885 6.56939 31.0137 6.31202 31.0137C6.18333 31.0137 6.18334 31.1424 6.05465 31.1424L5.92596 31.2711C5.92596 31.7858 5.92596 32.1719 5.92596 32.4293C5.79727 33.4587 6.31201 34.1022 7.08412 34.7456C7.47018 35.003 7.98492 35.5177 8.37097 35.7751C8.88571 36.1611 9.0144 36.6759 8.75703 37.3193C8.49966 37.834 8.37098 38.3488 8.24229 38.8635C7.85624 39.893 7.98493 40.6651 8.62835 41.4372C9.01441 41.9519 9.52914 42.338 9.78651 42.7241C9.78651 43.2388 9.52914 43.7535 9.65782 44.0109C10.1726 45.0404 10.1726 46.0699 10.3012 47.0993C10.816 50.4452 11.0734 53.791 12.1028 57.0081C12.2315 57.6515 12.1028 58.0376 11.5881 58.5523C11.3307 58.8097 10.9447 59.0671 10.6873 59.4531C10.1726 60.0965 9.65783 60.9973 10.0439 61.7694C10.4299 62.5416 11.0734 63.3137 11.9742 63.4423C13.0036 63.571 14.1618 63.571 15.1913 63.4423C16.7355 63.185 17.6363 61.8981 17.3789 60.4826C17.3789 60.2252 17.5076 59.8392 17.5076 59.5818C17.765 58.4236 18.2797 57.3941 17.765 56.236C17.8937 55.9786 17.8937 55.4639 18.151 54.9491Z" fill="black"/>
<path d="M15.4453 6.17776C15.4453 6.43513 15.4453 6.56381 15.4453 6.82118C15.574 7.07855 15.7027 7.46461 15.9601 7.59329C16.0887 7.72198 16.0887 7.72198 16.2174 7.72198C16.7322 7.5933 17.2469 7.20724 17.3756 6.6925C17.5043 6.30644 17.3756 5.92039 16.8608 5.79171C16.4748 5.66302 15.8314 5.66302 15.4453 6.17776Z" fill="black"/>
<path d="M7.2144 5.79013C7.35654 5.79013 7.47177 5.6749 7.47177 5.53276C7.47177 5.39062 7.35654 5.27539 7.2144 5.27539C7.07226 5.27539 6.95703 5.39062 6.95703 5.53276C6.95703 5.6749 7.07226 5.79013 7.2144 5.79013Z" fill="white"/>
<path d="M16.0933 6.56211C16.2354 6.56211 16.3507 6.44687 16.3507 6.30473C16.3507 6.16259 16.2354 6.04736 16.0933 6.04736C15.9512 6.04736 15.8359 6.16259 15.8359 6.30473C15.8359 6.44687 15.9512 6.56211 16.0933 6.56211Z" fill="white"/>
<path d="M8.36902 11.067C8.49771 10.9383 8.6264 10.8097 8.75508 10.681C8.88377 10.681 9.01245 10.5523 9.14113 10.5523C9.3985 10.5523 9.52719 10.5523 9.78456 10.681C9.91324 10.681 10.0419 10.8097 10.0419 10.8097C10.1706 10.9383 10.2993 10.8097 10.2993 10.8097C10.428 10.681 10.2993 10.5523 10.2993 10.5523C10.1706 10.5523 10.0419 10.5523 9.91325 10.4236C9.65588 10.2949 9.3985 10.2949 9.14113 10.2949C9.01245 10.2949 8.75508 10.2949 8.6264 10.4236C8.36903 10.5523 8.11166 10.681 7.98297 10.9383C7.85429 11.067 7.98297 11.1957 7.98297 11.1957C8.24034 11.1957 8.36902 11.1957 8.36902 11.067Z" fill="white"/>
</svg>
