<svg width="32" height="32" viewBox="0 0 32 32" fill="none" xmlns="http://www.w3.org/2000/svg">
<path opacity="0.2" d="M15.9991 24.961C20.9475 24.961 24.9591 20.9495 24.9591 16.001C24.9591 11.0525 20.9475 7.04102 15.9991 7.04102C11.0506 7.04102 7.03906 11.0525 7.03906 16.001C7.03906 20.9495 11.0506 24.961 15.9991 24.961Z" stroke="#129D6F" stroke-width="2" stroke-miterlimit="10"/>
<path d="M27.4607 24.9605L24.2025 26.1242L22.428 29.0624L19.0243 28.6842L16.1443 30.546L13.2062 28.7424L9.80253 29.1787L7.9698 26.2696L4.71162 25.1642L4.30435 21.7605L1.86071 19.3751L2.96616 16.1169L1.77344 12.8878L4.21707 10.4442L4.53707 7.04053L7.79526 5.8769L9.5698 2.93871L12.9734 3.3169L15.8534 1.45508L18.7916 3.25871L22.1953 2.82235L24.028 5.73144L27.2862 6.8369L27.6934 10.2405L30.1371 12.626L29.0316 15.8842L30.2243 19.1133L27.7807 21.5569L27.4607 24.9605Z" fill="#F7BE45" stroke="#129D6F" stroke-width="2" stroke-miterlimit="10"/>
<path d="M16 24C20.4183 24 24 20.4183 24 16C24 11.5817 20.4183 8 16 8C11.5817 8 8 11.5817 8 16C8 20.4183 11.5817 24 16 24Z" fill="white"/>
<path d="M11.1406 16.0019L14.3988 19.3183L20.857 12.6855" stroke="#129D6F" stroke-width="2" stroke-miterlimit="10"/>
</svg>
