<svg width="136" height="44" viewBox="0 0 136 44" fill="none" xmlns="http://www.w3.org/2000/svg">
<g filter="url(#filter0_d)">
<mask id="path-1-inside-1" fill="white">
<path fill-rule="evenodd" clip-rule="evenodd" d="M-3.05176e-05 -1.15989e-05L132.676 0L132.676 31.8422L75.1925 31.8422L66.3816 40.6531L57.5707 31.8422L-3.33013e-05 31.8422L-3.05176e-05 -1.15989e-05Z"/>
</mask>
<path fill-rule="evenodd" clip-rule="evenodd" d="M-3.05176e-05 -1.15989e-05L132.676 0L132.676 31.8422L75.1925 31.8422L66.3816 40.6531L57.5707 31.8422L-3.33013e-05 31.8422L-3.05176e-05 -1.15989e-05Z" fill="white"/>
<path d="M132.676 0L132.676 -2L134.676 -2L134.676 1.74846e-07L132.676 0ZM-3.05176e-05 -1.15989e-05L-2.00003 -1.17737e-05L-2.00003 -2.00001L-3.03427e-05 -2.00001L-3.05176e-05 -1.15989e-05ZM132.676 31.8422L134.676 31.8422L134.676 33.8422L132.676 33.8422L132.676 31.8422ZM75.1925 31.8422L73.7783 30.428L74.3641 29.8422L75.1925 29.8422L75.1925 31.8422ZM66.3816 40.6531L67.7958 42.0673L66.3816 43.4815L64.9674 42.0673L66.3816 40.6531ZM57.5707 31.8422L57.5707 29.8422L58.3991 29.8422L58.9849 30.428L57.5707 31.8422ZM-3.33013e-05 31.8422L-3.34762e-05 33.8422L-2.00003 33.8422L-2.00003 31.8422L-3.33013e-05 31.8422ZM132.676 2L-3.06924e-05 1.99999L-3.03427e-05 -2.00001L132.676 -2L132.676 2ZM130.676 31.8422L130.676 -1.74846e-07L134.676 1.74846e-07L134.676 31.8422L130.676 31.8422ZM75.1925 29.8422L132.676 29.8422L132.676 33.8422L75.1925 33.8422L75.1925 29.8422ZM64.9674 39.2389L73.7783 30.428L76.6067 33.2564L67.7958 42.0673L64.9674 39.2389ZM58.9849 30.428L67.7958 39.2389L64.9674 42.0673L56.1565 33.2564L58.9849 30.428ZM-3.31265e-05 29.8422L57.5707 29.8422L57.5707 33.8422L-3.34762e-05 33.8422L-3.31265e-05 29.8422ZM1.99997 -1.1424e-05L1.99997 31.8422L-2.00003 31.8422L-2.00003 -1.17737e-05L1.99997 -1.1424e-05Z" fill="#129D6F" mask="url(#path-1-inside-1)"/>
</g>
<path d="M29.952 19.2715H28.1942L24.7723 13.6582V19.2715H23.0145V10.7402H24.7723L28.2001 16.3652V10.7402H29.952V19.2715ZM35.2897 19.2715C35.2116 19.1191 35.1549 18.9297 35.1198 18.7031C34.7096 19.1602 34.1764 19.3887 33.5202 19.3887C32.8991 19.3887 32.3834 19.209 31.9733 18.8496C31.567 18.4902 31.3639 18.0371 31.3639 17.4902C31.3639 16.8184 31.612 16.3027 32.108 15.9434C32.608 15.584 33.3288 15.4023 34.2702 15.3984H35.0495V15.0352C35.0495 14.7422 34.9733 14.5078 34.8209 14.332C34.6725 14.1562 34.4362 14.0684 34.112 14.0684C33.8268 14.0684 33.6022 14.1367 33.4381 14.2734C33.278 14.4102 33.1979 14.5977 33.1979 14.8359H31.5045C31.5045 14.4688 31.6178 14.1289 31.8444 13.8164C32.0709 13.5039 32.3913 13.2598 32.8053 13.084C33.2194 12.9043 33.6842 12.8145 34.1998 12.8145C34.9811 12.8145 35.6002 13.0117 36.0573 13.4062C36.5182 13.7969 36.7487 14.3477 36.7487 15.0586V17.8066C36.7526 18.4082 36.8366 18.8633 37.0006 19.1719V19.2715H35.2897ZM33.8893 18.0938C34.1393 18.0938 34.3698 18.0391 34.5807 17.9297C34.7916 17.8164 34.9479 17.666 35.0495 17.4785V16.3887H34.4166C33.569 16.3887 33.1178 16.6816 33.0631 17.2676L33.0573 17.3672C33.0573 17.5781 33.1315 17.752 33.2799 17.8887C33.4284 18.0254 33.6315 18.0938 33.8893 18.0938ZM40.0824 12.9316V19.6172C40.0824 20.3164 39.8969 20.8594 39.5258 21.2461C39.1547 21.6367 38.6195 21.832 37.9203 21.832C37.6273 21.832 37.348 21.7988 37.0824 21.7324V20.3906C37.2855 20.4258 37.4633 20.4434 37.6156 20.4434C38.1273 20.4434 38.3832 20.1719 38.3832 19.6289V12.9316H40.0824ZM38.2484 11.291C38.2484 11.0371 38.3324 10.8281 38.5004 10.6641C38.6723 10.5 38.9047 10.418 39.1977 10.418C39.4906 10.418 39.7211 10.5 39.8891 10.6641C40.0609 10.8281 40.1469 11.0371 40.1469 11.291C40.1469 11.5488 40.059 11.7598 39.8832 11.9238C39.7113 12.0879 39.4828 12.1699 39.1977 12.1699C38.9125 12.1699 38.682 12.0879 38.5063 11.9238C38.3344 11.7598 38.2484 11.5488 38.2484 11.291ZM43.4338 19.2715H41.7345V10.2715H43.4338V19.2715ZM47.9921 19.3887C47.0624 19.3887 46.3046 19.1035 45.7187 18.5332C45.1366 17.9629 44.8456 17.2031 44.8456 16.2539V16.0898C44.8456 15.4531 44.9687 14.8848 45.2148 14.3848C45.4609 13.8809 45.8085 13.4941 46.2577 13.2246C46.7109 12.9512 47.2265 12.8145 47.8046 12.8145C48.6718 12.8145 49.3534 13.0879 49.8495 13.6348C50.3495 14.1816 50.5995 14.957 50.5995 15.9609V16.6523H46.5624C46.6171 17.0664 46.7812 17.3984 47.0546 17.6484C47.332 17.8984 47.6816 18.0234 48.1034 18.0234C48.7558 18.0234 49.2655 17.7871 49.6327 17.3145L50.4648 18.2461C50.2109 18.6055 49.8671 18.8867 49.4335 19.0898C48.9999 19.2891 48.5195 19.3887 47.9921 19.3887ZM47.7988 14.1855C47.4628 14.1855 47.1894 14.2988 46.9784 14.5254C46.7714 14.752 46.6386 15.0762 46.58 15.498H48.9355V15.3633C48.9277 14.9883 48.8261 14.6992 48.6308 14.4961C48.4355 14.2891 48.1581 14.1855 47.7988 14.1855ZM57.5134 16.1602C57.5134 17.1367 57.2907 17.9199 56.8454 18.5098C56.404 19.0957 55.8063 19.3887 55.0524 19.3887C54.4118 19.3887 53.8942 19.166 53.4997 18.7207V21.709H51.8063V12.9316H53.3766L53.4352 13.5527C53.8454 13.0605 54.3806 12.8145 55.0407 12.8145C55.822 12.8145 56.4294 13.1035 56.863 13.6816C57.2966 14.2598 57.5134 15.0566 57.5134 16.0723V16.1602ZM55.82 16.0371C55.82 15.4473 55.7145 14.9922 55.5036 14.6719C55.2966 14.3516 54.9938 14.1914 54.5954 14.1914C54.0641 14.1914 53.6989 14.3945 53.4997 14.8008V17.3965C53.7067 17.8145 54.0759 18.0234 54.6071 18.0234C55.4157 18.0234 55.82 17.3613 55.82 16.0371ZM62.2416 17.5195C62.2416 17.3125 62.1381 17.1504 61.9311 17.0332C61.728 16.9121 61.3998 16.8047 60.9467 16.7109C59.4389 16.3945 58.685 15.7539 58.685 14.7891C58.685 14.2266 58.9174 13.7578 59.3823 13.3828C59.851 13.0039 60.4623 12.8145 61.2163 12.8145C62.0209 12.8145 62.6635 13.0039 63.144 13.3828C63.6284 13.7617 63.8705 14.2539 63.8705 14.8594H62.1772C62.1772 14.6172 62.0991 14.418 61.9428 14.2617C61.7866 14.1016 61.5424 14.0215 61.2104 14.0215C60.9252 14.0215 60.7045 14.0859 60.5483 14.2148C60.392 14.3438 60.3139 14.5078 60.3139 14.707C60.3139 14.8945 60.4018 15.0469 60.5776 15.1641C60.7573 15.2773 61.058 15.377 61.4799 15.4629C61.9018 15.5449 62.2573 15.6387 62.5463 15.7441C63.4409 16.0723 63.8881 16.6406 63.8881 17.4492C63.8881 18.0273 63.6401 18.4961 63.144 18.8555C62.6479 19.2109 62.0073 19.3887 61.2221 19.3887C60.6909 19.3887 60.2182 19.2949 59.8041 19.1074C59.394 18.916 59.0717 18.6562 58.8373 18.3281C58.603 17.9961 58.4858 17.6387 58.4858 17.2559H60.0913C60.1069 17.5566 60.2182 17.7871 60.4252 17.9473C60.6323 18.1074 60.9096 18.1875 61.2573 18.1875C61.5815 18.1875 61.8256 18.127 61.9897 18.0059C62.1577 17.8809 62.2416 17.7188 62.2416 17.5195ZM67.1691 17.9062H70.2688V19.2715H65.007V18.2402L67.9895 14.3027H65.0949V12.9316H70.175V13.9336L67.1691 17.9062ZM73.9365 16.875L75.1084 12.9316H76.9248L74.3759 20.2559L74.2353 20.5898C73.8564 21.418 73.2314 21.832 72.3603 21.832C72.1142 21.832 71.8642 21.7949 71.6103 21.7207V20.4375L71.8681 20.4434C72.1884 20.4434 72.4267 20.3945 72.583 20.2969C72.7431 20.1992 72.8681 20.0371 72.958 19.8105L73.1572 19.2891L70.9365 12.9316H72.7588L73.9365 16.875ZM86.5747 16.9688L87.4067 12.9316H89.0415L87.4243 19.2715H86.0063L84.8052 15.2812L83.604 19.2715H82.1919L80.5747 12.9316H82.2095L83.0356 16.9629L84.1958 12.9316H85.4204L86.5747 16.9688ZM92.4924 16.875L93.6643 12.9316H95.4807L92.9319 20.2559L92.7913 20.5898C92.4123 21.418 91.7873 21.832 90.9163 21.832C90.6702 21.832 90.4202 21.7949 90.1663 21.7207V20.4375L90.4241 20.4434C90.7444 20.4434 90.9827 20.3945 91.1389 20.2969C91.2991 20.1992 91.4241 20.0371 91.5139 19.8105L91.7131 19.2891L89.4924 12.9316H91.3147L92.4924 16.875ZM102.102 16.1602C102.102 17.1758 101.885 17.9688 101.451 18.5391C101.018 19.1055 100.412 19.3887 99.6348 19.3887C98.9473 19.3887 98.3984 19.125 97.9883 18.5977L97.9121 19.2715H96.3887V10.2715H98.082V13.5C98.4727 13.043 98.9863 12.8145 99.623 12.8145C100.396 12.8145 101.002 13.0996 101.439 13.6699C101.881 14.2363 102.102 15.0352 102.102 16.0664V16.1602ZM100.408 16.0371C100.408 15.3965 100.307 14.9297 100.104 14.6367C99.9004 14.3398 99.5977 14.1914 99.1953 14.1914C98.6562 14.1914 98.2852 14.4121 98.082 14.8535V17.3555C98.2891 17.8008 98.6641 18.0234 99.207 18.0234C99.7539 18.0234 100.113 17.7539 100.285 17.2148C100.367 16.957 100.408 16.5645 100.408 16.0371ZM103.127 16.043C103.127 15.4141 103.248 14.8535 103.49 14.3613C103.732 13.8691 104.08 13.4883 104.533 13.2188C104.99 12.9492 105.519 12.8145 106.121 12.8145C106.976 12.8145 107.674 13.0762 108.213 13.5996C108.756 14.123 109.058 14.834 109.121 15.7324L109.133 16.166C109.133 17.1387 108.861 17.9199 108.318 18.5098C107.775 19.0957 107.047 19.3887 106.133 19.3887C105.219 19.3887 104.488 19.0957 103.941 18.5098C103.398 17.9238 103.127 17.127 103.127 16.1191V16.043ZM104.82 16.166C104.82 16.7676 104.933 17.2285 105.16 17.5488C105.386 17.8652 105.711 18.0234 106.133 18.0234C106.543 18.0234 106.863 17.8672 107.094 17.5547C107.324 17.2383 107.439 16.7344 107.439 16.043C107.439 15.4531 107.324 14.9961 107.094 14.6719C106.863 14.3477 106.539 14.1855 106.121 14.1855C105.707 14.1855 105.386 14.3477 105.16 14.6719C104.933 14.9922 104.82 15.4902 104.82 16.166ZM106.455 10.2715H108.301L106.678 12.0879H105.301L106.455 10.2715ZM113.978 14.5195C113.748 14.4883 113.544 14.4727 113.369 14.4727C112.728 14.4727 112.308 14.6895 112.109 15.123V19.2715H110.416V12.9316H112.015L112.062 13.6875C112.402 13.1055 112.873 12.8145 113.474 12.8145C113.662 12.8145 113.837 12.8398 114.001 12.8906L113.978 14.5195Z" fill="#129D6F"/>
<defs>
<filter id="filter0_d" x="0" y="0" width="135.329" height="43.3066" filterUnits="userSpaceOnUse" color-interpolation-filters="sRGB">
<feFlood flood-opacity="0" result="BackgroundImageFix"/>
<feColorMatrix in="SourceAlpha" type="matrix" values="0 0 0 0 0 0 0 0 0 0 0 0 0 0 0 0 0 0 127 0"/>
<feOffset dx="2.65352" dy="2.65352"/>
<feColorMatrix type="matrix" values="0 0 0 0 0 0 0 0 0 0 0 0 0 0 0 0 0 0 0.1 0"/>
<feBlend mode="normal" in2="BackgroundImageFix" result="effect1_dropShadow"/>
<feBlend mode="normal" in="SourceGraphic" in2="effect1_dropShadow" result="shape"/>
</filter>
</defs>
</svg>
