<svg width="73" height="16" viewBox="0 0 73 16" fill="none" xmlns="http://www.w3.org/2000/svg">
<path d="M72.4536 0V16H0V0H72.4536Z" fill="#FECC00"/>
<path d="M23.3814 6.68053C23.0515 7.0929 22.5155 7.83517 22.2268 8.28878C22.0619 8.49497 21.7732 8.90734 22.7629 8.90734C23.7938 8.90734 27.9175 8.90734 27.9175 8.90734C27.9175 8.90734 28.7423 7.79394 29.4433 6.84548C30.3918 5.56713 29.5258 2.88672 26.1443 2.88672C23.0928 2.88672 12.7835 2.88672 12.7835 2.88672L10.4742 6.02074C10.4742 6.02074 22.4742 6.02074 23.0928 6.02074C23.6701 6.02074 23.6701 6.26816 23.3814 6.68053ZM19.5876 9.69084C18.5979 9.69084 18.8866 9.27847 19.0515 9.07229C19.3814 8.61868 19.9175 7.91765 20.2474 7.46404C20.5773 7.05167 20.5773 6.80424 19.9175 6.80424C19.299 6.80424 14.1443 6.80424 14.1443 6.80424L9.48454 13.1135C9.48454 13.1135 17.7732 13.1135 20.8247 13.1135C24.5773 13.1135 26.6392 10.5568 27.299 9.69084C27.299 9.69084 20.6186 9.69084 19.5876 9.69084ZM26.9691 13.1135H33.6082L36.1237 9.69084H29.4845L26.9691 13.1135ZM44.1237 2.88672L41.567 6.35064H38.5979L41.1546 2.88672H34.5155L30.0619 8.90734H46.3505L50.7629 2.88672H44.1237ZM36.5773 13.1135H43.2165L45.732 9.69084H39.0928L36.5773 13.1135ZM0 11.0517V11.7939H9.27835L9.81443 11.0517H0ZM10.8041 9.69084H0V10.4331H10.268L10.8041 9.69084ZM0 13.1135H8.28866L8.82474 12.3713H0V13.1135ZM62.7217 11.7527H72.4949V11.0104H63.2577L62.7217 11.7527ZM61.732 13.1135H72.4949V12.3713H62.268L61.732 13.1135ZM64.2474 9.69084L63.7113 10.4331H72.4949V9.69084H64.2474ZM55.5464 8.90734L59.9588 2.88672H52.9072L48.4536 8.94857H55.5464V8.90734ZM47.9175 9.69084C47.9175 9.69084 47.4227 10.3506 47.1753 10.6805C46.3505 11.7939 47.0928 13.1135 49.8144 13.1135C52.9485 13.1135 60.4948 13.1135 60.4948 13.1135L63.0103 9.69084H47.9175Z" fill="#D50029"/>
</svg>
