<svg width="51" height="22" viewBox="0 0 51 22" fill="none" xmlns="http://www.w3.org/2000/svg">
<path d="M8.75423 17.1388L9.15215 15.0388C15.6515 19.2388 24.0078 19.2388 30.5072 15.0388L30.9051 17.1388C24.4057 22.3549 15.2536 22.3549 8.75423 17.1388ZM34.4863 7.4517C35.2159 7.58718 36.0117 7.51944 36.6749 7.11299C37.2055 6.77428 37.5371 6.23235 37.6697 5.62267C37.8023 5.01299 37.8687 4.47105 37.935 3.86138H40.4551C40.4551 4.13234 40.4551 4.47105 40.4551 4.80976C40.3888 5.62267 40.1899 6.36783 39.8583 7.04525C39.593 7.58718 39.1287 8.06138 38.6645 8.40009C38.5319 8.46783 38.3992 8.60331 38.2666 8.67105C38.3992 8.87428 38.5319 9.14525 38.5982 9.34847C39.2614 10.5678 39.9246 11.7194 40.6541 12.9388C40.7204 13.0743 40.7867 13.2098 40.8531 13.3452C40.9194 13.4807 40.9194 13.6162 40.9194 13.7517H38.1339L35.9454 9.68718L34.4863 9.82267V13.8194H31.7672V0.406538H34.4863V7.4517ZM8.09103 3.79363C8.09103 3.92912 8.02471 4.0646 7.95839 4.26783C7.49415 5.08073 7.02991 5.89363 6.56567 6.70654C5.70351 8.19686 4.84135 9.68718 4.04551 11.1775C4.04551 11.2452 3.97919 11.313 3.97919 11.3807C4.70871 11.3807 5.37191 11.3807 6.03511 11.3807C6.69831 11.3807 7.36151 11.3807 8.09103 11.3807V13.8194H0C0 13.684 0.0663199 13.5485 0.13264 13.413C0.530559 12.6678 0.928479 11.9904 1.3264 11.313C1.72432 10.6356 2.05592 10.0259 2.45384 9.34847C2.9844 8.40009 3.51495 7.4517 4.04551 6.57105C4.11183 6.50331 4.11183 6.43557 4.17815 6.30009C3.84655 6.30009 3.51495 6.30009 3.18336 6.30009C2.85176 6.30009 2.52016 6.30009 2.25488 6.30009H0.331599V3.79363H8.09103ZM4.31079 2.84525C3.91287 2.91299 3.58127 2.77751 3.31599 2.50654C2.91808 2.16783 2.71912 1.55815 2.91808 1.01622C3.05072 0.542022 3.51495 0.13557 4.04551 0.0678284C4.50975 -0.0676555 5.04031 0.13557 5.37191 0.47428C5.76983 0.880732 5.83615 1.42267 5.70351 1.9646C5.50455 2.50654 5.04031 2.84525 4.50975 2.84525C4.44343 2.91299 4.37711 2.91299 4.31079 2.84525ZM29.844 6.90976C29.5787 5.96138 29.0481 5.08073 28.2523 4.47105C27.5228 3.92912 26.7269 3.65815 25.8648 3.65815C25.1352 3.59041 24.3394 3.72589 23.6099 3.99686C23.5436 3.99686 23.4109 4.0646 23.3446 4.0646V0.406538H20.6255V13.2098C21.0234 13.3452 21.4213 13.413 21.8192 13.4807C22.4824 13.684 23.1456 13.8194 23.8752 13.9549C24.9363 14.0904 25.9974 13.9549 27.0585 13.6162C28.6502 13.142 29.844 11.7872 30.0429 10.0936C30.1756 9.07751 30.1756 7.92589 29.844 6.90976ZM27.2575 10.2291C27.0585 10.9065 26.528 11.4485 25.8648 11.584C25.0689 11.7872 24.2068 11.7194 23.4772 11.4485C23.4772 11.4485 23.4109 11.4485 23.4109 11.3807V6.43557C24.3394 5.75815 25.5995 5.75815 26.528 6.36783C26.8596 6.6388 27.0585 6.97751 27.1912 7.38396C27.4564 8.2646 27.5228 9.28073 27.2575 10.2291ZM18.1053 4.47105C17.4421 4.20009 16.7126 3.99686 15.9831 3.86138C14.9883 3.65815 13.9935 3.59041 12.9987 3.65815C12.1365 3.72589 11.2744 4.13234 10.6112 4.80976C10.0143 5.48718 9.55007 6.30009 9.41743 7.18073C9.28479 7.85815 9.21846 8.53557 9.21846 9.21299C9.21846 10.0936 9.41743 10.9065 9.81534 11.6517C10.1469 12.2614 10.6112 12.8033 11.2081 13.142C12.5345 13.8872 14.0598 14.1582 15.5189 13.8872C16.58 13.7517 17.5748 13.413 18.6359 13.2098V4.74202C18.5033 4.67428 18.3043 4.5388 18.1053 4.47105ZM15.9831 11.4485C15.0546 11.7872 14.0598 11.8549 13.1313 11.4485C12.6671 11.2452 12.3355 10.9065 12.1365 10.3646C11.8049 9.28073 11.8049 8.19686 12.2029 7.11299C12.4681 6.43557 13.1313 5.96138 13.7945 5.89363C14.4577 5.82589 15.1873 5.89363 15.7841 6.23234C15.8505 6.23234 15.8505 6.30009 15.9168 6.30009L15.9831 11.4485ZM50.1378 4.33557C49.342 4.0646 48.5462 3.86138 47.684 3.72589C46.8882 3.59041 46.026 3.59041 45.1638 3.72589C43.6385 3.99686 42.4447 5.14847 41.9805 6.6388C41.6489 7.79041 41.5163 9.00976 41.7152 10.2291C41.8479 11.313 42.3784 12.3291 43.2406 13.0065C43.4395 13.142 43.7048 13.3452 43.9038 13.413C44.4343 13.684 45.0975 13.8872 45.6944 13.9549C46.4239 14.0904 47.1534 14.0904 47.883 13.9549C48.9441 13.7517 50.0052 13.4807 51 13.2775V4.74202C50.7347 4.60654 50.4694 4.47105 50.1378 4.33557ZM48.4135 11.4485C48.2809 11.5162 48.2146 11.5162 48.0819 11.5162C47.5514 11.6517 47.0208 11.7194 46.4239 11.7194C45.7607 11.7194 45.1638 11.3807 44.7659 10.8388C44.567 10.5678 44.4343 10.2291 44.368 9.89041C44.2354 9.07751 44.2354 8.2646 44.5006 7.4517C44.6996 6.6388 45.4291 6.02912 46.225 5.96138C46.9545 5.82589 47.684 5.96138 48.3472 6.36783L48.4135 11.4485Z" fill="#01672C"/>
</svg>
