<svg width="59" height="57" viewBox="0 0 59 57" fill="none" xmlns="http://www.w3.org/2000/svg">
<path d="M57.8984 30.0433C57.5494 32.3217 57.1568 34.7838 56.8078 37.2566C56.3716 40.3665 54.605 42.8393 52.642 45.0746C50.2974 47.7526 47.5711 50.0202 44.2559 51.6616C39.4248 54.0588 34.2884 55.0091 29.0539 55.2682C21.9109 55.6138 15.5422 53.4217 9.86055 48.9188C5.78197 45.6901 3.65544 41.36 1.56162 36.911C1.20175 36.1552 1.02726 35.2049 1.1036 34.3734C1.37623 31.3067 1.26718 28.0564 2.29228 25.238C3.62272 21.5882 4.68054 17.8088 6.90522 14.4181C9.29348 10.8006 12.0634 7.69071 15.6076 5.29348C18.6829 3.2094 22.0963 1.79481 25.8913 1.54645C26.4693 1.51406 27.0582 1.49246 27.6362 1.39527C36.5894 -0.116495 43.7651 3.45776 50.1556 9.15929C53.9398 12.5284 55.5756 17.1069 56.7642 21.7934C57.4404 24.385 57.5276 27.1169 57.8984 30.0433ZM55.87 29.8273C56.0772 22.938 54.1688 16.5993 49.4468 11.2866C45.1719 6.4705 39.6538 3.45776 33.2742 2.93944C27.2436 2.45351 21.5619 4.23524 16.6764 8.10105C10.9511 12.6256 7.11242 18.5322 4.53877 25.1192C3.39371 28.0564 2.93569 31.6738 3.49186 34.7514C4.94226 42.6989 10.035 48.2493 17.4943 51.262C25.8368 54.6203 34.2557 54.048 42.402 50.301C51.0935 46.2948 56.1972 39.8698 55.87 29.8273Z" fill="#EB584A"/>
<path d="M30.1419 0.715506C31.8867 0.251176 33.7734 0.780296 35.2892 1.75215C36.805 2.724 37.9937 4.0954 39.1169 5.49918C37.1322 5.86633 35.4746 7.29171 34.4386 8.99785C33.4026 10.704 32.9227 12.6909 32.6065 14.667C31.6905 20.3685 32.0176 26.1781 32.3557 31.9444C32.4974 34.3308 32.6283 36.7065 32.7701 39.0929C32.8573 40.6047 32.9773 42.2136 33.8497 43.4554C34.7548 44.7297 36.2925 45.3884 37.732 46.0255C41.7778 47.818 45.6819 49.9237 49.4006 52.3209C49.6733 52.4937 49.9568 52.7097 50.0004 53.0228C50.0658 53.5627 49.3679 53.8435 48.8336 53.9191C45.3766 54.4158 41.8542 54.1134 38.3645 54.3078C30.5018 54.7613 22.4755 57.7525 14.9727 55.4092C15.2671 54.0594 16.6957 53.3144 17.928 52.6665C20.4144 51.3599 22.7045 49.6969 24.7111 47.7424C25.5617 46.9109 26.3796 46.0039 26.7722 44.8808C27.023 44.1681 27.0993 43.4015 27.1539 42.6456C27.6119 36.9656 27.7864 31.2641 27.6773 25.5733C27.5683 20.1094 27.7427 13.9111 26.4232 8.59832C24.2858 8.6955 22.53 7.47529 23.5006 5.14284C24.3076 3.16674 28.1571 1.24463 30.1419 0.715506Z" fill="white"/>
<path d="M21.3196 32.5166C20.0546 32.8945 19.2149 34.0716 18.6042 35.227C17.9935 36.3824 17.4701 37.6458 16.4777 38.5097C14.9073 39.8595 12.6172 39.8487 10.5889 40.313C8.08064 40.8745 5.45247 40.3886 3.76215 38.1965C2.86792 37.0303 2.36628 34.903 3.81668 33.942C5.48518 32.819 9.76005 33.726 11.723 33.672C14.9401 33.5856 18.1789 33.3157 21.3196 32.5166Z" fill="white"/>
<path d="M45.7055 40.3671C47.1887 41.2201 49.0644 41.1878 50.6893 40.6586C52.3251 40.1295 53.7646 39.1684 55.1714 38.1965C55.5858 37.905 56.0111 37.6134 56.3164 37.2139C56.7853 36.5875 56.9162 35.7776 57.0253 35.0001C57.1452 34.1794 57.2543 33.3695 57.3742 32.5488C57.396 32.4085 57.4069 32.2573 57.3415 32.1277C57.2652 31.9981 57.1016 31.9333 56.9489 31.9009C56.3491 31.7497 55.7384 31.7389 55.1277 31.7389C52.794 31.7173 50.4603 31.7713 48.1374 31.9225C46.2508 32.0413 42.7829 31.7389 41.2234 32.9484C38.8679 34.7626 43.8298 39.2872 45.7055 40.3671Z" fill="white"/>
<path d="M7.19574 41.0583C7.89368 41.3067 8.63524 41.5011 9.3659 41.3715C10.6418 41.1447 11.5906 39.8057 11.3834 38.5531C11.1217 37.0305 9.5622 36.1234 8.1336 35.4971C6.78134 34.8924 2.05935 32.3116 1.17602 34.8276C0.205443 37.5488 5.32003 40.3888 7.19574 41.0583Z" fill="#BCBCBB"/>
<path d="M46.5758 40.723C47.5355 40.9066 48.5715 40.9066 49.4657 40.4963C50.3599 40.0859 51.0361 39.1573 50.9488 38.1854C50.8507 37.1704 49.9892 36.4037 49.1386 35.8314C47.3392 34.622 42.3009 31.4797 40.9595 34.5356C39.5855 37.6779 44.1548 40.2695 46.5758 40.723Z" fill="#BCBCBB"/>
<path d="M50.6451 50.9059C45.9558 48.9514 41.2884 46.9429 36.5446 45.1612C34.1781 44.2757 33.9055 44.2542 33.7528 41.8137C33.1203 31.6309 33.1421 21.448 34.1127 11.2759C34.2217 10.0989 34.6797 8.95427 34.9306 7.96082C37.6569 7.49649 40.0124 7.08616 42.368 6.71901C42.8696 6.64342 43.4585 6.58943 43.8838 6.7838C45.2797 7.4209 46.632 7.58288 47.9515 7.49649C47.9297 7.4641 47.897 7.4317 47.8752 7.39931C47.7552 7.21574 47.6352 7.03216 47.548 6.83779C47.4062 6.52464 47.2536 6.18989 47.1663 5.84434C46.4139 5.76875 45.6723 5.4664 44.9743 4.75371C44.7781 4.55934 44.4073 4.53774 44.1128 4.42976C40.2851 3.04756 36.4464 1.65457 32.4224 0.207591C32.4005 0.207591 32.3787 0.196793 32.3678 0.196793C32.2261 0.164398 32.0625 0.142801 31.9098 0.132002C31.5608 0.0996074 31.201 0.0672126 30.852 0.0564142C30.4703 0.0456158 30.0886 0.0348175 29.696 0.0564142C29.5106 0.0672126 29.3252 0.0780107 29.129 0.088809C29.0853 0.088809 28.9981 0.0996076 28.9217 0.121204C28.6382 0.175196 28.3547 0.229188 28.0711 0.304777C27.8967 0.34797 27.7331 0.412761 27.5586 0.466752C27.5259 0.477551 27.5041 0.477551 27.4823 0.488349C27.4713 0.488349 27.4713 0.488349 27.4604 0.499147C27.395 0.531542 27.3296 0.574736 27.2641 0.607131C27.0024 1.04986 26.6425 1.43861 26.1191 1.77336C24.1016 3.04756 22.0732 4.32177 20.1757 5.75796C18.5072 7.02136 16.7514 7.60448 14.6685 7.30212C13.0218 7.06456 11.3206 7.08616 9.72842 6.68662C9.35764 6.58943 8.97595 6.47065 8.60517 6.34107C8.53974 6.40586 8.47431 6.47065 8.40888 6.52464C8.15806 6.89178 7.92904 7.25893 7.71094 7.64767C8.11443 7.75565 8.52883 7.83124 8.97595 7.87444C12.3675 8.16599 15.7372 9.35381 19.1724 8.21998C23.1965 9.37541 27.166 8.16599 31.1573 7.95002C31.43 7.93923 31.7135 8.1444 32.2261 8.33877C32.1715 20.0766 32.117 31.8468 32.0625 43.7898C30.9283 43.8006 30.0341 43.8222 28.9108 43.833C28.6382 42.2241 28.1366 40.7231 28.1584 39.2329C28.2783 32.2356 28.5728 25.249 28.7582 18.2625C28.8127 16.1244 28.7473 13.9863 28.6709 11.8482C28.66 11.5135 28.3001 11.2003 28.1475 10.9412C26.3917 11.0816 26.5989 12.291 26.5989 13.2628C26.5771 20.5625 26.5553 27.873 26.6207 35.1727C26.6534 38.3258 25.8465 41.5438 27.515 44.6105C23.7199 48.3683 18.3218 49.7505 15.0284 53.8971C16.0753 53.7243 16.915 53.2276 17.7329 52.7201C20.9827 50.6792 24.2434 48.6707 27.4713 46.5866C29.0526 45.5608 30.6666 45.3232 32.5096 45.6471C37.7987 46.565 42.6951 48.5195 47.3626 51.0787C47.777 51.3055 48.1151 51.6726 49.0311 52.4069C41.2447 53.3896 34.1236 54.3614 26.5989 52.5905C25.9991 52.8605 25.0177 53.314 24.0471 53.7567L23.7963 53.368C24.3306 52.6769 24.8759 51.975 25.4102 51.2839C23.6872 52.2881 21.0917 52.5257 21.5825 55.5385C22.6076 55.5277 23.5236 55.5493 24.4397 55.5061C28.1693 55.3225 31.8989 55.1389 35.6285 54.9122C40.1978 54.6422 44.7562 54.3722 49.3147 54.0483C50.5579 53.9619 51.8011 53.7135 52.1282 52.0398C51.6157 51.6186 51.1904 51.1327 50.6451 50.9059ZM21.1899 7.35611C27.853 1.14705 32.6405 -0.137957 38.8674 5.74716C33.0767 6.26548 27.2969 6.7946 21.1899 7.35611Z" fill="black"/>
<path d="M8.88793 6.60059C9.37867 7.20529 10.0112 7.74521 10.3492 8.41471C11.5597 10.8659 12.7811 13.3279 13.8062 15.8656C14.7986 18.3384 15.4638 20.93 16.4126 23.4136C17.2741 25.6812 18.2883 27.9057 19.3352 30.0978C19.6078 30.6809 20.2294 31.0912 20.8947 31.8147C20.1749 33.1213 19.4443 34.6115 18.5718 36.0045C17.7321 37.3434 16.8597 38.704 15.8019 39.8703C13.8716 41.9975 8.66982 42.775 5.5291 40.7017C3.70792 39.5031 2.14846 38.0777 1.00341 36.2852C0.458143 35.4321 0.196416 34.3307 0.0546472 33.3157C0.000120744 32.9161 0.53448 32.0847 0.894354 32.0307C1.83221 31.8903 2.07213 31.3288 2.09394 30.6269C2.19208 27.4306 3.72973 24.6122 4.51491 21.6103C5.23466 18.8891 6.08527 16.2111 6.79412 13.4899C7.36119 11.2979 7.7974 9.06261 8.28814 6.84895C8.47353 6.77336 8.68073 6.68697 8.88793 6.60059ZM18.7136 32.6462C15.4529 32.8189 12.6175 32.9701 9.78217 33.1213C7.00132 33.2725 4.15504 32.7434 1.33057 33.7044C1.77768 35.5617 2.75916 36.8143 4.22047 37.8186C5.75811 36.9007 7.12127 35.7885 9.36776 35.2594C7.63382 36.5012 6.3579 37.4082 5.1038 38.3045C5.71449 39.5247 6.36881 39.2116 7.09946 38.8012C8.39719 38.0669 9.73854 37.3866 11.0581 36.6847C11.1344 36.8143 11.2108 36.9331 11.2871 37.0627C10.0003 37.9158 8.72435 38.7688 7.39391 39.6543C8.69164 40.7341 10.7745 41.0041 12.8902 40.2158C16.2708 38.9524 17.4159 35.9289 18.7136 32.6462ZM18.0375 31.1128C17.634 30.2381 17.3395 29.6334 17.0669 29.0179C16.4453 27.6249 15.6492 26.2752 15.2566 24.8282C14.0679 20.4117 12.6284 16.1031 10.5019 12.0321C10.2838 11.611 9.97846 11.2439 9.61859 10.704C9.12785 12.734 10.4692 29.5039 11.2653 31.8147C13.4027 31.7175 15.6056 31.9659 18.0375 31.1128ZM8.11366 14.4726C7.83012 14.7101 7.64473 14.7749 7.61201 14.8937C6.25976 19.3426 4.86388 23.7807 3.60977 28.2512C3.29352 29.3743 3.41348 30.6161 3.31533 31.9011C5.47458 32.2034 7.33938 32.1279 9.50953 31.8147C9.04061 25.9404 8.58258 20.2713 8.11366 14.4726Z" fill="black"/>
<path d="M46.9817 6.60059C47.4724 7.20529 48.1049 7.74521 48.443 8.41471C49.6535 10.8659 50.8749 13.3279 51.9 15.8656C52.8923 18.3384 53.5576 20.93 54.5063 23.4136C55.3678 25.6812 56.382 27.9057 57.429 30.0978C57.7016 30.6809 58.3232 31.0912 58.9884 31.8147C58.2687 33.1213 57.538 34.6115 56.6656 36.0045C55.8259 37.3434 54.9534 38.704 53.8956 39.8703C51.9654 41.9975 46.7636 42.775 43.6228 40.7017C41.8017 39.5031 40.2422 38.0777 39.0972 36.2852C38.5519 35.4321 38.2902 34.3307 38.1484 33.3157C38.0939 32.9161 38.6282 32.0847 38.9881 32.0307C39.926 31.8903 40.1659 31.3288 40.1877 30.6269C40.2858 27.4306 41.8235 24.6122 42.6087 21.6103C43.3284 18.8891 44.179 16.2111 44.8879 13.4899C45.4549 11.2979 45.8912 9.06261 46.3819 6.84895C46.5782 6.77336 46.7745 6.68697 46.9817 6.60059ZM56.8183 32.6462C53.5576 32.8189 50.7222 32.9701 47.8868 33.1213C45.106 33.2725 42.2597 32.7434 39.4352 33.7044C39.8823 35.5617 40.8638 36.8143 42.3251 37.8186C43.8628 36.9007 45.2259 35.7885 47.4724 35.2594C45.7385 36.5012 44.4626 37.4082 43.2085 38.3045C43.8191 39.5247 44.4735 39.2116 45.2041 38.8012C46.5018 38.0669 47.8432 37.3866 49.1627 36.6847C49.2391 36.8143 49.3154 36.9331 49.3917 37.0627C48.1049 37.9158 46.829 38.7688 45.4986 39.6543C46.7963 40.7341 48.8792 41.0041 50.9948 40.2158C54.3755 38.9524 55.5205 35.9289 56.8183 32.6462ZM56.1421 31.1128C55.7386 30.2381 55.4442 29.6334 55.1716 29.0179C54.5499 27.6249 53.7539 26.2752 53.3613 24.8282C52.1726 20.4117 50.7331 16.1031 48.6066 12.0321C48.3885 11.611 48.0831 11.2439 47.7232 10.704C47.2325 12.734 48.5739 29.5039 49.3699 31.8147C51.4965 31.7175 53.7102 31.9659 56.1421 31.1128ZM46.2183 14.4726C45.9348 14.7101 45.7494 14.7749 45.7167 14.8937C44.3644 19.3426 42.9685 23.7807 41.7144 28.2512C41.3982 29.3743 41.5181 30.6161 41.42 31.9011C43.5792 32.2034 45.444 32.1279 47.6142 31.8147C47.1453 25.9404 46.6872 20.2713 46.2183 14.4726Z" fill="black"/>
</svg>
