<svg width="62" height="83" viewBox="0 0 62 83" fill="none" xmlns="http://www.w3.org/2000/svg">
<path d="M61.4677 44.5227C61.1419 47.0202 60.7076 49.6263 60.2733 52.3409C59.8389 55.7071 57.8844 58.4217 55.8212 60.8106C53.3238 63.7424 50.392 66.2399 46.8086 67.9772C41.5965 70.5833 36.0587 71.6692 30.4122 71.8863C22.7026 72.2121 15.8617 69.9318 9.78093 64.9368C5.43751 61.4621 3.04863 56.6843 0.876913 51.9066C0.44257 51.0379 0.333984 50.0606 0.333984 49.1919C0.659741 45.8258 0.551156 42.351 1.63701 39.3106C3.04863 35.293 4.24307 31.2753 6.63195 27.5834C9.23801 23.6743 12.1698 20.3081 15.9703 17.7021C19.2279 15.4218 22.9198 13.9016 27.0461 13.5758C27.6976 13.5758 28.3491 13.4673 28.892 13.3587C38.5561 11.7299 46.2657 15.639 53.1066 21.8283C57.2329 25.5203 58.9702 30.5152 60.2733 35.6187C60.9248 38.3334 61.0334 41.2652 61.4677 44.5227ZM59.296 44.3056C59.5132 36.8132 57.45 29.9723 52.3465 24.1086C47.7859 18.8965 41.8137 15.639 34.9728 14.9875C28.4577 14.4445 22.3769 16.3991 17.0562 20.6339C10.8668 25.5203 6.74054 31.9268 4.0259 39.0935C2.83145 42.2424 2.28853 46.2601 2.94004 49.5177C4.46024 58.2045 9.99811 64.1767 18.0334 67.4343C27.046 71.1262 36.0587 70.4747 44.8541 66.3485C54.0839 62.1136 59.6217 55.1641 59.296 44.3056Z" fill="#F15748"/>
<path d="M49.8344 52.168C49.8344 52.4541 49.8344 52.7401 49.7442 53.1215C49.7442 53.2168 49.7442 53.3122 49.7442 53.5028C49.7442 53.6935 49.6539 53.8842 49.6539 53.9796V54.0749C49.5637 54.2656 49.5637 54.4563 49.4734 54.647C49.3832 55.0283 49.2929 55.3144 49.1124 55.6957C49.0222 55.9818 48.9319 56.2678 48.7514 56.5538C48.0294 57.984 47.3977 59.2235 46.3147 60.2722C44.4194 62.1791 42.2534 64.372 39.6362 65.6115C39.1849 65.8022 38.6434 66.0882 38.0117 66.2789C36.2969 66.8509 34.4016 67.2323 32.5966 67.3277C32.2356 67.3277 31.9649 67.3277 31.6039 67.3277C26.6401 67.3277 21.3153 65.6115 16.5321 62.2744C15.3588 61.4164 14.3661 60.1769 13.4636 58.4607C13.0123 57.5073 12.6513 56.5538 12.2903 55.6004C12.1098 55.1237 11.9293 54.5516 11.6585 54.0749L11.3878 53.5982C11.0268 52.7401 10.6658 51.9774 10.4853 51.0239C10.3048 50.2612 10.3048 49.4031 10.2145 48.6403C10.034 44.8266 9.94379 40.8222 11.117 37.2945L11.7488 35.3876L12.2001 37.3898C12.5611 38.9153 13.1026 40.3454 13.9148 41.6803C14.0051 39.4874 14.6368 37.3898 15.1783 35.4829L15.2686 35.1969C15.9003 33.0993 16.5321 31.0971 15.9906 29.0949L15.6296 27.8554L16.7126 28.3322C17.6151 28.7135 18.1566 29.5716 18.6078 30.239C18.9688 30.7158 19.2396 31.2878 19.6006 31.8599L19.7811 32.2412C19.9616 32.718 20.2323 33.0993 20.5031 33.4807C20.5031 33.5761 20.5933 33.5761 20.5933 33.6714C20.5031 32.2412 20.9543 30.6204 21.6763 29.5716C22.7593 28.0461 24.3838 27.0927 25.6474 26.4253L25.8279 26.33C26.4596 25.9486 27.0914 25.6625 27.5426 25.1858C27.9939 24.6138 28.2646 23.851 28.5354 23.1836C29.7086 19.2745 29.4379 14.9841 27.9036 11.2657C27.7231 10.8843 27.5426 10.5029 27.3621 10.2169L26.5499 8.69141L27.9939 9.35881C28.8964 9.74018 29.8891 10.3122 30.7014 10.8843C32.3259 12.0284 33.6796 13.6493 34.9431 15.0794C35.3041 15.5561 35.6651 15.9375 36.0261 16.5096C37.4701 18.6071 38.1019 21.2767 37.8312 23.9464C37.7409 24.8045 37.4701 25.6625 37.2896 26.5206C37.1994 26.902 37.1091 27.188 37.0189 27.5694C36.8384 28.5229 36.5676 29.7623 36.7481 30.9064C36.8384 31.3832 37.0189 31.9552 37.2896 32.3366C37.2896 32.2412 37.2896 32.1459 37.2896 32.0506C37.2896 31.5738 37.3799 31.0971 37.4701 30.7158C37.7409 30.0483 38.1922 29.5716 38.6434 29.1903C38.7337 29.0949 38.9142 28.9996 39.0044 28.8089C39.7264 28.0461 40.2679 26.9974 40.5387 25.9486C40.6289 25.4719 40.7192 25.1858 40.7192 24.8045C40.7192 24.5184 40.6289 24.0417 40.4484 23.7557L39.5459 21.7535L41.2607 23.0883C42.3437 24.1371 42.5242 24.1371 42.9754 25.6625C43.3364 26.8067 43.2462 28.0461 43.1559 29.1903L42.7949 33.7667C42.6144 35.6736 42.4339 37.7712 42.8852 39.678C43.8779 38.7246 44.6902 37.5805 45.3219 36.341L46.8562 33.3854L46.4049 36.7224C46.2244 37.9619 46.0439 39.7734 46.3147 41.4896C46.4952 43.1104 47.0367 44.5406 47.8489 45.5893C48.0294 45.78 48.1197 45.9707 48.3002 46.1614C48.4807 46.3521 48.5709 46.5428 48.6612 46.8288C48.6612 46.9241 48.7514 47.1148 48.8417 47.2102C48.9319 47.3055 48.9319 47.4962 49.0222 47.5916C49.1124 47.8776 49.2027 48.1636 49.2929 48.545C49.4734 49.1171 49.5637 49.7845 49.6539 50.4519C49.8344 50.9286 49.9247 51.5006 49.8344 52.168Z" fill="white"/>
<path d="M49.8334 52.168C49.8334 52.4541 49.8334 52.7401 49.7432 53.1215C49.7432 53.2168 49.7432 53.3122 49.7432 53.5028C49.7432 53.6935 49.6529 53.8842 49.6529 53.9796V54.0749C49.5627 54.2656 49.5627 54.4563 49.4724 54.647C49.3822 55.0283 49.2919 55.3144 49.1114 55.6957C49.0212 55.9818 48.9309 56.2678 48.7504 56.5538C48.0284 57.984 47.3967 59.2235 46.3137 60.2722C44.4184 62.1791 42.2524 64.372 39.6351 65.6115C39.1839 65.8022 38.6424 66.0882 38.0106 66.2789C36.2959 66.8509 34.4006 67.2323 32.5956 67.3277C32.6859 66.8509 32.9566 66.4696 33.2274 66.0882C33.6786 65.6115 34.3104 65.1348 34.9421 64.8487C38.1911 63.1325 41.4401 61.2257 43.6964 58.1747C45.8624 55.1237 46.5844 50.5472 44.4184 47.4962C43.1549 45.6847 40.9889 44.5406 40.2669 42.3477C39.8156 40.9175 40.0864 39.106 39.1839 37.9619C38.4619 37.0084 37.2886 36.8177 36.3861 36.1503C34.5811 35.0062 33.6786 32.6226 33.4981 30.3344C33.3176 28.0461 33.7689 25.8532 33.9494 23.565C34.1299 21.2767 34.1299 18.8932 33.0469 16.9863C32.2346 15.5561 30.9711 14.5074 29.7978 13.3632C29.6173 13.1726 29.5271 13.0772 29.3466 12.8865C29.1661 12.6958 29.0758 12.6005 28.8953 12.4098C28.5343 12.0284 28.2636 11.6471 27.9026 11.2657C27.7221 10.8843 27.5416 10.5029 27.3611 10.2169L26.5488 8.69141L27.9928 9.35881C28.8953 9.74018 29.8881 10.3122 30.7003 10.8843C32.3249 12.0284 33.6786 13.6493 34.9421 15.0794C35.3031 15.5561 35.6641 15.9375 36.0251 16.5096C37.4691 18.6071 38.1009 21.2767 37.8301 23.9464C37.7399 24.8045 37.4691 25.6625 37.2886 26.5206C37.1984 26.902 37.1081 27.188 37.0179 27.5694C36.8374 28.5229 36.5666 29.7623 36.7471 30.9064C36.8374 31.3832 37.0179 31.9552 37.2886 32.3366C37.2886 32.2412 37.2886 32.1459 37.2886 32.0506C37.2886 31.5738 37.3789 31.0971 37.4691 30.7158C37.7399 30.0483 38.1911 29.5716 38.6424 29.1903C38.7326 29.0949 38.9131 28.9996 39.0034 28.8089C39.7254 28.0461 40.2669 26.9974 40.5376 25.9486C40.6279 25.4719 40.7181 25.1858 40.7181 24.8045C40.7181 24.5184 40.6279 24.0417 40.4474 23.7557L39.5449 21.7535L41.2596 23.0883C42.3426 24.1371 42.5231 24.1371 42.9744 25.6625C43.3354 26.8067 43.2451 28.0461 43.1549 29.1903L42.7939 33.7667C42.6134 35.6736 42.4329 37.7712 42.8841 39.678C43.8769 38.7246 44.6891 37.5805 45.3209 36.341L46.8552 33.3854L46.4039 36.7224C46.2234 37.9619 46.0429 39.7734 46.3137 41.4896C46.4942 43.1104 47.0357 44.5406 47.8479 45.5893C48.0284 45.78 48.1187 45.9707 48.2992 46.1614C48.4797 46.3521 48.5699 46.5428 48.6602 46.8288C48.6602 46.9241 48.7504 47.1148 48.8407 47.2102C48.9309 47.3055 48.9309 47.4962 49.0212 47.5916C49.1114 47.8776 49.2017 48.1636 49.2919 48.545C49.4724 49.1171 49.5627 49.7845 49.6529 50.4519C49.8334 50.9286 49.9237 51.5006 49.8334 52.168Z" fill="#BCBCBB"/>
<path d="M40.6314 52.3574L40.5411 54.9316C40.4509 56.3618 40.3606 58.078 39.9094 59.6035C39.2776 61.415 38.1044 62.8451 37.1116 64.1799C36.8409 64.466 36.5701 64.8473 36.2091 65.2287C35.8481 65.5148 35.3969 65.7054 35.0359 65.8961C33.8626 66.4682 32.2381 67.1356 30.5233 67.1356H30.4331C29.9818 67.1356 29.5306 67.2309 28.9891 67.2309C28.6281 67.1356 28.1768 67.0402 27.8158 67.0402C26.9133 66.9449 25.2888 66.4682 24.4766 65.8008C23.5741 65.038 22.852 64.466 22.3105 63.7986C22.6715 63.6079 23.1228 63.5125 23.4838 63.4172C23.9351 63.3219 24.2961 63.3218 24.7473 63.2265C25.8303 63.1312 26.5523 63.3219 27.5451 63.4172C28.9891 63.6079 30.5233 63.5125 31.6063 62.7498C32.6893 61.987 33.8626 60.3662 34.5846 59.0314C35.8481 56.6478 36.4799 54.0735 36.4799 54.0735C36.4799 54.0735 37.3824 50.0691 37.4726 49.3064C37.6531 48.2576 33.4113 52.6434 33.8626 51.6899C34.4041 50.5458 32.6893 48.2576 31.9673 47.1135C31.2453 45.9693 30.8843 45.3973 29.8916 44.4438C29.3501 43.8718 27.8158 43.109 27.3646 41.2022C27.0938 39.8674 27.0938 39.2953 27.3646 38.6279C27.6353 37.8651 27.7256 37.2931 28.1768 36.721C28.2671 36.6257 28.3573 36.5303 28.4476 36.435C28.5378 36.3396 28.5378 36.149 28.6281 35.9583C28.7183 35.5769 28.8988 35.2909 29.0793 35.0048C29.4403 34.4328 29.8916 33.8607 30.4331 33.384C30.9746 32.9073 31.6063 32.5259 32.2381 32.2399C32.3283 32.2399 32.4186 32.1445 32.5088 32.1445L31.2453 34.0514C30.4331 35.1955 30.0721 36.6257 30.2526 37.7698C30.3428 38.6279 30.6136 39.486 30.8843 40.1534C31.2453 41.0115 31.5161 41.5835 31.8771 42.0603C32.1478 42.4416 32.4186 42.7277 32.7796 43.2044C33.4113 43.9671 33.8626 44.8252 34.5846 45.4926C35.3066 46.2554 36.2994 46.8274 36.3896 48.1622C36.3896 48.2576 36.1189 49.5924 36.1189 49.6877C36.3896 49.3064 37.1116 48.0669 37.3824 47.6855L38.1946 46.3507L38.4654 47.8762C38.7361 49.4017 38.7361 51.0225 38.6459 52.6434C38.6459 53.1201 38.6459 53.5015 38.6459 53.8828C38.6459 54.5503 38.6459 55.599 38.3751 56.7432C38.7361 56.1711 39.1874 55.5037 39.4581 54.8363L40.6314 52.3574Z" fill="#BCBCBB"/>
<path d="M18.6092 33.1879C18.8799 34.7134 18.7897 36.2389 18.2482 37.669C18.0677 38.2411 17.7969 38.7178 17.5262 39.2898C17.3457 39.6712 17.1652 40.0526 16.8944 40.434C16.7139 40.72 16.5334 40.9107 16.3529 41.1967C16.0822 41.6734 15.9919 42.1502 15.8114 42.6269C15.6309 43.3896 15.3602 44.2477 15.1797 45.0105C14.2772 42.3408 14.2772 39.3852 15.2699 36.7156C15.5407 36.0482 15.8114 35.3808 16.0822 34.7134C16.2627 34.1413 16.3529 33.4739 16.5334 32.8065C16.6237 32.2344 16.7139 31.567 16.8944 30.995C16.9847 30.7089 16.9847 30.3276 17.1652 30.0415C17.1652 29.9462 17.2554 29.6602 17.3457 29.6602C17.4359 29.6602 17.5262 29.9462 17.6164 30.0415C17.8872 30.7089 18.1579 31.3763 18.4287 32.0437C18.4287 32.4251 18.5189 32.8065 18.6092 33.1879Z" fill="#BCBCBB"/>
<path d="M12.2002 51.3142C12.4709 51.8863 12.8319 52.363 13.1027 52.9351C13.2832 53.4118 13.4637 53.8885 13.7344 54.3652C13.9149 54.7466 14.1857 55.128 14.4565 55.5093C16.081 57.9883 17.525 60.7532 19.8715 62.4694C20.774 63.1368 21.7667 63.6135 22.4887 64.4716C21.3155 63.9949 20.2325 63.6135 19.0592 63.1368C18.5177 62.9461 17.9762 62.6601 17.525 62.4694C15.5395 61.4206 14.0052 59.4184 13.3734 57.2255C13.2832 56.9395 13.1929 56.6535 13.1027 56.3674C12.9222 55.7954 12.5612 55.2233 12.2904 54.6512C11.8392 53.6025 11.4782 52.5537 11.2977 51.5049C11.2074 50.9329 11.1172 50.3608 11.1172 49.7887C11.1172 49.6934 11.1172 49.5027 11.1172 49.4074C11.1172 49.312 11.1172 49.1213 11.1172 49.026C11.2074 48.9306 11.2074 49.1213 11.2074 49.2167C11.2977 49.312 11.2977 49.5027 11.3879 49.598C11.6587 50.1701 11.9294 50.7422 12.2002 51.3142Z" fill="#BCBCBB"/>
<path d="M21.9453 61.6133C22.1258 61.804 22.3063 62.0901 22.3966 62.2807C22.9381 61.0413 22.9381 60.7552 23.6601 59.0391C22.5771 60.2785 22.5771 60.4692 21.9453 61.6133Z" fill="black"/>
<path d="M23.2109 63.4189C23.2109 63.5142 23.3012 63.5142 23.3012 63.6096C23.3012 63.6096 23.3012 63.7049 23.3914 63.7049C23.4817 63.8003 23.5719 63.8956 23.6622 63.991C23.7524 64.0863 23.7524 64.0863 23.8427 64.1816C23.8427 64.0863 23.8427 63.8956 23.8427 63.8956L24.4744 62.5608C24.6549 62.0841 25.1062 60.5586 25.0159 60.5586C24.2037 61.8934 24.0232 62.0841 23.2109 63.3236C23.2109 63.3236 23.2109 63.3236 23.2109 63.4189Z" fill="black"/>
<path d="M25.1068 27.7578C24.836 27.8532 24.6555 28.0438 24.3848 28.1392C25.4678 28.9973 25.7385 28.9973 27.1825 30.1414C26.1898 28.6159 26.0093 28.5206 25.1068 27.7578Z" fill="black"/>
<path d="M23.7556 28.3359C23.6654 28.3359 23.6654 28.3359 23.5751 28.4313H23.4849C23.3946 28.5266 23.2141 28.622 23.1239 28.622C23.0336 28.622 23.0336 28.7173 22.9434 28.7173C23.0336 28.7173 23.1239 28.7173 23.2141 28.8127L24.3874 29.7661C24.8386 30.0521 26.1924 30.8149 26.1924 30.7195C25.1094 29.6707 24.9289 29.3847 23.9361 28.3359C23.8459 28.4313 23.8459 28.3359 23.7556 28.3359Z" fill="black"/>
<path d="M49.7438 50.2651C49.6535 49.5977 49.5633 49.0256 49.3828 48.3582C49.2925 48.0722 49.2023 47.7861 49.112 47.4048C49.0218 47.3094 49.0218 47.1187 48.9315 47.0234C48.8413 46.9281 48.8413 46.7374 48.751 46.642C48.6608 46.356 48.4803 46.1653 48.39 45.9746C48.2095 45.7839 48.1193 45.5932 47.9388 45.4026C47.1265 44.2584 46.6753 42.8283 46.4045 41.3028C46.1338 39.5866 46.3143 37.7751 46.4948 36.5356L46.946 33.1986L45.4118 36.1542C44.78 37.3937 43.9678 38.5378 42.975 39.4913C42.5237 37.5844 42.7042 35.4868 42.8847 33.58L43.2458 29.0988C43.336 28.05 43.4263 26.8106 43.0652 25.5711C42.614 24.0456 42.4335 24.0456 41.3505 22.9968L39.6357 21.7574L40.5382 23.7596C40.7187 24.0456 40.809 24.5223 40.809 24.8084C40.809 25.1897 40.7187 25.4758 40.6285 25.9525C40.448 27.0013 39.9065 28.05 39.0942 28.8128C39.004 28.9081 38.8235 29.0035 38.7332 29.1942C38.282 29.5755 37.8307 30.0523 37.56 30.7197C37.3795 31.101 37.3795 31.4824 37.3795 32.0545C37.3795 32.1498 37.3795 32.2452 37.3795 32.3405C37.1087 31.9591 36.9282 31.4824 36.838 30.9103C36.6575 29.7662 36.838 28.5268 37.1087 27.5733C37.199 27.1919 37.2892 26.9059 37.3795 26.5245C37.56 25.6665 37.8307 24.9037 37.921 23.9503C38.282 21.376 37.6502 18.7064 36.116 16.5135C35.755 16.0368 35.394 15.56 35.033 15.0833C33.7695 13.5578 32.506 12.0323 30.7912 10.8882C29.8887 10.3162 28.9862 9.74409 28.0837 9.36272L26.6397 8.69531L27.4519 10.2208C27.6324 10.6022 27.8129 10.9836 27.9934 11.2696C29.5277 14.988 29.7984 19.3738 28.6252 23.1875C28.4447 23.8549 28.1739 24.6177 27.6324 25.1897C27.1812 25.6665 26.5494 25.9525 25.9177 26.3339L25.7372 26.4292C24.4737 27.0966 22.8492 28.05 21.7662 29.5755C21.0442 30.6243 20.5929 32.1498 20.6832 33.6753C20.6832 33.58 20.5929 33.58 20.5929 33.4846C20.3222 33.1032 20.1417 32.7219 19.8709 32.2452L19.6904 31.9591C19.4197 31.3871 19.0587 30.815 18.6977 30.3383C18.2464 29.5755 17.6146 28.8128 16.8024 28.4314L15.7194 27.9547L16.0804 29.1942C16.6219 31.1964 15.9901 33.1032 15.3584 35.2961L15.2681 35.4868C14.7266 37.3937 14.0949 39.4913 14.0046 41.6842C13.1924 40.3494 12.6509 38.9192 12.2899 37.3937L11.8386 35.3915L11.2069 37.2984C9.94337 40.8261 10.0336 44.8305 10.3044 48.6442C10.3044 49.407 10.3946 50.1697 10.5751 51.0278C10.7556 51.8859 11.1166 52.744 11.4776 53.6021L11.6581 54.0788C11.8386 54.5555 12.1094 55.1276 12.2899 55.6043C12.6509 56.5577 13.0119 57.5112 13.4631 58.4646C14.3656 60.1808 15.3584 61.4203 16.5316 62.2784C21.4052 65.6154 26.6397 67.3316 31.6035 67.3316C31.9645 67.3316 32.3255 67.3316 32.5962 67.3316C34.4915 67.2362 36.2965 66.8548 38.0112 66.2828C38.643 66.0921 39.0942 65.9014 39.6357 65.6154C42.253 64.3759 44.419 62.183 46.3143 60.2761C47.3973 59.2274 48.029 57.8926 48.751 56.5577C48.9315 56.2717 49.0218 55.9857 49.112 55.6997C49.2023 55.3183 49.2925 55.0322 49.473 54.6509C49.5633 54.4602 49.5633 54.2695 49.6535 54.0788V53.9835C49.6535 53.8881 49.7438 53.6974 49.7438 53.5068C49.7438 53.4114 49.7438 53.3161 49.7438 53.1254C49.7438 52.8394 49.834 52.5533 49.834 52.1719C49.9243 51.5045 49.834 50.9325 49.7438 50.2651ZM48.751 52.0766C48.751 52.3626 48.751 52.6487 48.6608 52.9347C48.6608 53.1254 48.6608 53.2207 48.6608 53.3161C48.6608 53.4114 48.6608 53.4114 48.5705 53.5068L48.4803 53.6974C48.4803 53.8881 48.39 54.0788 48.2998 54.2695C48.2095 54.5555 48.1193 54.9369 48.029 55.2229C47.9388 55.509 47.8485 55.6997 47.7583 55.9857C47.1265 57.3205 46.4948 58.4646 45.5923 59.418C43.697 61.3249 41.6212 63.4225 39.1845 64.5666C38.7332 64.7573 38.282 64.948 37.6502 65.1387C36.2062 65.6154 34.7622 65.9014 33.228 66.0921C27.9934 66.5688 22.3077 64.8526 17.0731 61.2296C16.0804 60.5622 15.1779 59.418 14.4559 57.8926C14.0046 57.0345 13.6436 56.081 13.2826 55.1276C13.1021 54.6509 12.8314 54.0788 12.6509 53.6021L12.3801 53.03C12.0191 52.2673 11.7484 51.5045 11.5679 50.7418C11.3874 50.0744 11.3874 49.3116 11.2971 48.6442C11.2069 45.5932 11.1166 42.4469 11.7484 39.5866C12.2899 41.2074 13.1924 42.6376 14.1851 43.9724L15.4486 45.4979L15.1779 43.4003C14.8169 40.8261 15.6291 38.1565 16.3511 35.7729L16.4414 35.4868C16.9829 33.7707 17.4341 32.0545 17.3439 30.3383C17.5244 30.529 17.6146 30.815 17.7951 31.0057C18.1562 31.4824 18.4269 32.0545 18.6977 32.5312L18.8782 32.8172C19.1489 33.2939 19.3294 33.7707 19.6904 34.2474C20.0514 34.7241 20.5929 35.2961 21.4954 35.4868L22.5784 35.7729L22.0369 34.6287C21.4954 33.3893 21.7662 31.5777 22.6687 30.2429C23.5712 28.9081 25.0152 28.05 26.1884 27.3826L26.3689 27.2873C27.0909 26.9059 27.8129 26.5245 28.3544 25.8571C28.9862 25.0944 29.3472 24.2363 29.5277 23.4736C30.5204 20.2319 30.5204 16.5135 29.7082 13.1765C29.5277 12.4137 29.2569 11.7463 28.9862 10.9836C29.3472 11.1742 29.7984 11.4603 30.0692 11.7463C31.6035 12.7951 32.867 14.3206 34.0402 15.7507C34.4012 16.2274 34.7622 16.6088 35.033 17.0855C36.2965 18.9924 36.9282 21.376 36.5672 23.6642C36.477 24.427 36.2965 25.1897 36.0257 26.0478C35.9355 26.4292 35.8452 26.7152 35.755 27.0966C35.4842 28.1454 35.2135 29.5755 35.4842 30.9103C35.755 32.4358 36.5672 33.58 37.7405 34.152L39.5455 35.2961L38.4625 33.3893C38.282 32.9126 37.921 32.3405 37.921 31.6731C37.921 31.2917 38.1015 30.9103 38.1917 30.6243C38.3722 30.2429 38.7332 29.8616 39.0942 29.5755C39.1845 29.4802 39.4552 29.0988 39.5455 29.0035C40.448 28.05 41.17 27.3826 41.4407 26.0478C41.531 25.8571 41.531 25.5711 41.531 25.3804C41.6212 25.5711 41.7115 25.6665 41.7115 25.8571C41.9822 26.8106 41.892 27.8594 41.8017 28.9081L41.4407 33.4846C41.2602 35.7729 41.0797 38.3471 41.892 40.7307L42.0725 41.3028L42.4335 41.1121L43.1555 40.6354C43.7873 40.0633 44.419 39.3959 44.8703 38.7285C44.8703 39.5866 44.8703 40.54 44.9605 41.3981C45.2313 43.2097 45.7728 44.8305 46.6753 46.07C46.8558 46.2606 46.946 46.4513 47.1265 46.642L47.2168 46.7374C47.307 46.8327 47.3973 46.9281 47.3973 46.9281C47.4875 47.1187 47.5778 47.3094 47.5778 47.4048C47.668 47.5001 47.668 47.5955 47.7583 47.6908C47.8485 47.9768 47.9388 48.2629 48.029 48.5489C48.2095 49.121 48.2998 49.693 48.39 50.2651C48.751 51.0278 48.751 51.5999 48.751 52.0766Z" fill="black"/>
<path d="M21.4075 23.3672C21.588 22.7951 21.949 22.3184 22.2197 21.7464C22.5807 21.079 22.8515 20.3162 22.9417 19.5535C23.1222 18.4093 22.9417 17.2652 22.7612 16.1211C23.2125 17.1699 23.5735 18.4093 23.6637 19.5535C23.754 20.2209 23.754 20.7929 23.4832 21.365C23.2125 22.0324 22.671 22.4138 22.31 22.9858C21.8587 23.6532 21.6782 24.416 21.588 25.1787C21.588 25.3694 21.4977 25.6554 21.4977 25.8461C21.4075 25.5601 21.3172 25.2741 21.227 24.8927C21.1367 24.6067 21.1367 24.2253 21.1367 23.9393C21.3172 23.8439 21.3172 23.6532 21.4075 23.3672Z" fill="black"/>
<path d="M46.2268 26.4241C46.4976 24.8033 45.8658 23.0871 44.873 21.8477C45.5048 22.3244 46.0463 22.8011 46.5878 23.4685C47.1293 24.1359 47.4903 24.8033 47.4903 25.6614C47.4903 26.2335 47.3098 26.8055 47.0391 27.3776C46.7683 27.9496 46.4976 28.4264 46.2268 28.9984C46.1366 29.2844 46.0463 29.5705 45.9561 29.8565C45.9561 29.9519 45.8658 30.4286 45.8658 30.4286C45.7756 30.4286 45.7756 30.0472 45.7756 29.9519C45.7756 29.6658 45.6853 29.4751 45.7756 29.1891C45.8658 28.4264 46.1366 27.6636 46.3171 26.9009C46.1366 26.6148 46.1366 26.5195 46.2268 26.4241Z" fill="black"/>
<path d="M14.093 30.713C14.0027 30.1409 13.732 29.6642 13.4612 29.1875C13.5515 29.7596 13.5515 30.3316 13.6417 30.999C13.6417 31.1897 13.6417 31.3804 13.6417 31.5711C13.6417 31.7618 13.6417 32.0478 13.5515 32.2385C13.4612 32.6199 13.371 32.8106 13.4612 33.1919C13.4612 33.2873 13.5515 34.2407 13.5515 34.2407C13.5515 34.2407 13.8222 33.1919 13.9125 33.0012C14.0027 32.6199 14.1832 32.3338 14.1832 31.9525C14.2735 31.5711 14.1832 31.0944 14.093 30.713Z" fill="black"/>
<path d="M49.026 40.2486C48.9357 39.9626 48.7552 39.6766 48.665 39.3905C48.3942 38.7231 48.4845 37.9604 48.4845 37.293C48.304 37.6743 48.1235 38.0557 48.1235 38.4371C48.0332 39.1045 47.943 39.8672 48.2137 40.4393C48.304 40.63 48.3942 40.916 48.4845 41.1067C48.5747 41.3927 48.665 41.6788 48.7552 41.8695C48.7552 41.9648 48.8455 42.1555 48.8455 42.3462C48.8455 42.4415 48.9357 42.9182 48.9357 42.9182C49.026 42.9182 49.1162 42.0601 49.2065 41.9648C49.2065 41.6788 49.2065 41.3927 49.2065 41.1067C49.2065 40.8207 49.1162 40.5346 49.026 40.2486Z" fill="black"/>
<path d="M39.4559 54.5545C39.0949 55.2219 38.7339 55.8893 38.3729 56.4613C38.6437 55.3172 38.6437 54.2684 38.6437 53.601C38.6437 53.2197 38.6437 52.7429 38.6437 52.3616C38.6437 50.7407 38.6437 49.1199 38.4632 47.5944L38.1924 46.0689L37.3801 47.4037C37.1996 47.7851 36.3874 49.0245 36.1166 49.4059C36.1166 49.3106 36.3874 47.9758 36.3874 47.8804C36.2971 46.5456 35.3946 45.9736 34.5824 45.2108C33.8604 44.5434 33.4091 43.6853 32.7774 42.9226C32.4164 42.5412 32.1456 42.1598 31.8749 41.7784C31.5139 41.3017 31.2431 40.7297 30.8821 39.8716C30.6114 39.2042 30.3406 38.3461 30.2504 37.488C30.1601 36.3439 30.5211 34.9137 31.2431 33.7696L32.5066 31.8627L32.9579 31.1953L30.6114 33.0068C27.7234 35.1044 25.9184 38.4414 25.8281 41.6831C25.8281 42.6365 25.9184 43.4946 26.0086 44.3527C26.0086 44.6387 26.0989 45.0201 26.0989 45.3061C26.0989 45.4015 26.3696 47.213 26.3696 47.3084C26.2794 47.1177 26.0086 46.0689 25.2866 44.7341C24.8354 44.0667 24.6548 43.876 24.0231 43.3993L23.4816 42.9226L23.2108 43.59C22.5791 45.3061 21.8571 47.3084 21.9473 49.3106C21.9473 49.978 22.0376 50.6454 22.2181 51.1221C22.4888 52.4569 22.7596 53.601 23.1206 54.5545C22.5791 54.4591 22.1278 54.2684 21.7668 53.9824C21.4058 53.6964 21.3156 53.2197 21.0448 52.7429V52.6476C20.9546 52.4569 20.7741 51.5988 20.5936 50.8361L20.1423 49.1199L19.6008 52.0755C19.6008 52.1709 19.4203 53.029 19.4203 53.1243C19.4203 53.6964 19.3301 54.4591 19.3301 55.0312C19.3301 56.4613 19.4203 56.7474 19.6008 57.7961C19.7813 58.9403 20.0521 59.989 20.5033 60.9425C21.0448 62.0866 21.5863 62.8493 22.2181 63.5168C22.8498 64.1842 23.5718 64.7562 24.3841 65.519C25.1061 66.1864 26.8209 66.6631 27.7234 66.7584C28.0844 66.8538 28.5356 66.9491 28.8966 66.9491C29.3479 67.0445 29.7991 66.8538 30.3406 66.8538H30.4309C32.1456 66.8538 33.6799 66.1864 34.9434 65.6143C35.3044 65.4236 35.7556 65.2329 36.1166 64.9469C36.4776 64.6609 36.7484 64.2795 37.0191 63.8981C38.1021 62.5633 39.2754 61.1332 39.8169 59.3216C40.3584 57.7961 40.4487 56.1753 40.4487 54.6498L40.5389 52.0755L39.4559 54.5545ZM38.7339 59.131C38.1924 60.6564 37.1094 61.9913 36.1166 63.3261C35.8459 63.6121 35.6654 63.8981 35.3044 64.1842C35.0336 64.3748 34.6726 64.5655 34.3116 64.7562C33.2286 65.2329 32.1456 66.1864 30.6114 66.1864L30.0699 66.091C29.6186 66.091 29.4381 66.091 28.9869 65.9957C28.8064 65.9957 27.8136 65.805 27.5429 65.7097C26.8209 65.6143 26.2794 65.3283 25.7379 65.0422C24.8354 64.5655 24.0231 63.8981 23.3011 63.2307C22.4888 62.468 21.8571 61.5145 21.4058 60.4658C21.0448 59.6077 20.7741 58.7496 20.5936 57.7008C20.4131 56.7474 20.2326 55.3172 20.2326 53.9824V53.4103C20.4131 53.6964 20.5033 54.5545 20.9546 54.9358C21.7668 55.6032 22.7596 55.8893 23.9328 55.7939L24.7451 55.6986L24.3841 54.9358C23.8426 53.8871 23.4816 52.6476 23.2108 51.0268C23.1206 50.55 23.0303 49.978 23.0303 49.4059C22.9401 47.8804 23.4816 46.2596 24.0231 44.8294C24.3841 45.1155 24.6548 45.4015 24.9256 45.7829C25.5574 46.7363 25.7379 48.0711 25.9184 49.2152L26.2794 51.5988L27.0916 49.3106C27.5429 47.8804 27.4526 46.1642 27.3624 45.2108L27.2721 44.2574C27.1819 43.7807 27.0916 42.0645 27.0916 41.6831C27.0916 39.5855 27.9941 37.488 29.5284 35.6765C29.3479 36.3439 29.3479 37.0113 29.3479 37.6787C29.4381 38.7274 29.7991 39.6809 30.0699 40.3483C30.4309 41.2064 30.7919 41.8738 31.1529 42.4458C31.4236 42.9226 31.7846 43.3039 32.1456 43.6853C32.7774 44.4481 33.4994 45.2108 34.2214 45.8782C34.8531 46.5456 35.5751 47.213 35.6654 48.0711C35.6654 48.9292 35.0336 49.6919 34.5824 50.6454L33.8604 51.6942L34.4921 51.5035C34.7629 51.4081 35.0336 51.3128 35.3044 51.1221C35.4849 51.0268 35.6654 50.9314 35.7556 50.8361C36.0264 50.7407 36.2971 50.55 36.4776 50.3594C36.6581 50.1687 36.8386 50.0733 36.9289 49.8826C37.1094 49.6919 37.2899 49.4059 37.4704 49.2152C37.5606 50.1687 37.5606 51.2174 37.5606 52.2662C37.5606 52.7429 37.5606 53.1243 37.5606 53.601C37.5606 55.6986 37.1094 57.6055 36.2971 58.8449L33.9506 62.3726L37.1094 59.6077C37.9217 58.9403 38.6437 58.0822 39.2754 57.1287C39.0949 57.8915 39.0047 58.4635 38.7339 59.131Z" fill="black"/>
<path d="M5.76342 82.5251C5.22049 80.6791 6.08904 78.8332 6.84914 77.6387C10.7582 71.1236 12.8211 67.7574 16.7301 61.2423C18.5761 58.2019 20.2049 55.0529 21.9423 51.9039C24.6569 47.1262 27.4801 42.3484 30.3033 37.5706C32.3665 34.0959 34.2124 30.5126 36.4927 27.255C41.2705 20.3055 46.1569 13.4646 51.1518 6.62372C52.5634 4.66918 54.3008 2.93181 55.821 1.08586C56.1467 0.651514 56.5811 0.434343 57.124 0C57.9927 1.30303 57.4498 2.06313 56.6897 2.82323C48.4372 10.9671 42.2478 20.5227 36.2756 30.2954C33.4523 34.856 30.6291 39.4166 28.0231 43.9772C24.114 50.7095 20.4221 57.5504 16.6216 64.2827C13.6897 69.3862 10.9754 73.7297 7.93499 78.7246C6.84914 80.3534 6.84927 80.3534 5.76342 82.5251Z" fill="#F15748"/>
</svg>
