<svg width="60" height="83" viewBox="0 0 60 83" fill="none" xmlns="http://www.w3.org/2000/svg">
<path d="M59.5353 43.397C59.1696 45.8083 58.7582 48.4139 58.3925 51.0309C57.9354 54.3221 56.0841 56.9391 54.0271 59.3047C51.5701 62.1389 48.7131 64.5387 45.239 66.2758C40.1764 68.8128 34.7938 69.8185 29.3084 70.0927C21.8231 70.4584 15.1491 68.1385 9.19516 63.3731C4.9211 59.9561 2.69265 55.3735 0.498483 50.6652C0.12136 49.8652 -0.0614867 48.8596 0.018509 47.9796C0.304208 44.7341 0.189928 41.2943 1.26416 38.3116C2.65837 34.4489 3.76688 30.4491 6.09819 26.8607C8.60091 23.0324 11.5036 19.7411 15.2177 17.2041C18.4404 14.9985 22.0173 13.5015 25.9943 13.2386C26.6 13.2043 27.2171 13.1815 27.8227 13.0786C37.2051 11.4787 44.7247 15.2614 51.4215 21.2953C55.387 24.8608 57.1012 29.7063 58.3468 34.666C59.0554 37.4087 59.1468 40.3114 59.5353 43.397ZM57.4097 43.1684C57.6269 35.8774 55.627 29.1692 50.6787 23.5466C46.1989 18.4498 40.4164 15.2614 33.731 14.7128C27.4113 14.1986 21.4574 16.0842 16.3376 20.1754C10.338 24.9637 6.31532 31.2148 3.61832 38.1859C2.41838 41.2943 1.93841 45.1226 2.52123 48.3796C4.04115 56.7906 9.37801 62.6645 17.1947 65.8529C25.9371 69.407 34.7595 68.8014 43.2962 64.8359C52.4157 60.5961 57.7526 53.8079 57.4097 43.1684Z" fill="#EB584A"/>
<path d="M26.3434 62.1426C23.9206 61.6626 21.5436 60.4627 20.1723 58.4171C19.5209 57.4457 19.1209 56.2344 19.3952 55.0916C19.6123 54.1773 20.2637 53.3774 20.3437 52.4403C20.458 51.1718 19.5323 50.0747 18.8466 49.0005C17.9895 47.6634 17.4296 46.1435 17.2124 44.5778C17.1324 44.0065 17.1096 43.3665 17.441 42.8865C17.8181 42.338 18.5609 42.1437 18.9952 41.6409C19.8409 40.6466 19.1095 39.161 18.6524 37.9382C18.1038 36.464 18.001 34.8298 18.3667 33.3099C18.4466 32.9899 18.5495 32.6585 18.8009 32.4528C18.9723 32.3156 19.2009 32.2471 19.3952 32.1442C20.2523 31.6757 20.4123 30.5329 20.4237 29.5501C20.4465 27.4359 20.2294 25.3217 19.8066 23.2533C19.7037 22.739 19.578 22.2133 19.6694 21.6991C19.8294 20.7734 20.6294 20.122 21.1779 19.3449C22.8807 16.945 22.2064 13.2995 24.2635 11.2082C24.412 11.0596 24.5949 10.9111 24.8006 10.9225C24.9606 10.9339 25.0977 11.0253 25.212 11.1168C27.0405 12.5567 27.6919 14.968 28.6175 17.0936C28.7204 17.3336 28.8347 17.5736 29.0404 17.7336C29.2804 17.9278 29.6118 17.985 29.9203 18.065C31.2231 18.4307 32.1945 19.5849 32.6287 20.8763C33.063 22.1562 33.0173 23.5504 32.8459 24.8875C32.7659 25.5389 32.6516 26.2245 32.8916 26.8416C33.1316 27.4588 33.863 27.9273 34.4572 27.6302C35.0172 30.5443 35.5886 33.5156 36.9599 36.1554C37.737 37.6525 38.7884 39.1153 38.8684 40.8066C38.9027 41.4694 38.777 42.1323 38.857 42.7837C38.937 43.435 39.2913 44.1207 39.9312 44.3036C40.434 44.4521 40.994 44.2464 41.4854 44.4064C41.9311 44.5436 42.2397 44.955 42.4339 45.3778C43.0968 46.8177 42.7311 48.4976 42.3539 50.0404C41.7026 52.7146 41.0397 55.4344 39.6798 57.8343C38.5713 59.7999 36.3885 62.5769 33.8973 62.634C31.5202 62.714 28.6861 62.6112 26.3434 62.1426Z" fill="white"/>
<path d="M31.739 62.2753C31.1219 59.2241 24.5051 51.8416 22.0595 56.9728C19.0768 63.201 31.899 63.0867 31.739 62.2753Z" fill="#BCBCBB"/>
<path d="M39.2923 58.287C40.538 56.6528 40.9722 54.5729 41.3722 52.573C41.6351 51.2931 41.8865 49.9217 41.4522 48.6875C38.6867 50.9845 36.9953 54.2529 35.6811 57.5327C35.304 58.4698 33.8412 60.8926 35.464 61.1668C36.7782 61.3954 38.6181 59.1669 39.2923 58.287Z" fill="#BCBCBB"/>
<path d="M25.9329 51.4542C24.9387 51.2828 23.9216 51.2028 22.9959 50.7914C22.0817 50.38 21.2589 49.5572 21.2246 48.5515C21.2246 48.4715 21.2246 48.403 21.2589 48.3344C21.3046 48.2658 21.3846 48.2316 21.476 48.2087C21.8189 48.1173 22.196 48.1973 22.5388 48.2773C23.9902 48.6201 27.35 48.7687 28.4357 49.7629C28.8699 50.1629 29.247 51.4885 28.6756 51.9114C28.1728 52.2999 26.5386 51.5571 25.9329 51.4542Z" fill="#BCBCBB"/>
<path d="M32.8571 52.105C34.5027 51.5222 36.0569 50.5279 36.994 49.0537C37.9311 47.5795 38.1482 45.5796 37.234 44.094C37.1883 44.014 37.1311 43.934 37.0511 43.8883C36.9597 43.8426 36.8568 43.8426 36.754 43.854C35.5769 43.9683 34.6741 44.9054 33.8856 45.7739C32.9142 46.8481 31.9314 47.9338 30.96 49.008C30.6743 49.328 30.3543 49.728 30.4572 50.1508C30.5029 50.3679 30.6629 50.5508 30.8 50.7222C31.0743 51.0308 31.3371 51.3393 31.6114 51.6593C31.8285 51.9107 32.0685 52.1736 32.3999 52.2536C32.6856 52.3221 32.9942 52.2307 33.2799 52.1393C34.0798 51.865 34.8569 51.5336 35.6112 51.145" fill="#BCBCBB"/>
<path d="M24.3435 42.1086C23.075 41.4229 21.9094 40.5315 20.9152 39.4801C20.7552 39.3087 20.5837 39.0573 20.7094 38.863C20.7666 38.7716 20.8694 38.7259 20.9609 38.6802C21.658 38.3716 22.3779 38.0517 23.1322 38.0745C24.9264 38.1316 26.4577 40.0973 28.1833 39.5944C28.9262 39.3773 29.4633 38.7373 30.0461 38.2231C30.7775 37.5717 31.646 37.0917 32.5717 36.7946C32.6974 36.7603 32.8231 36.726 32.9488 36.7603C33.0745 36.7946 33.1545 36.9089 33.2231 37.0117C33.5888 37.6174 33.4631 38.4059 33.1088 39.0116C32.7545 39.6173 32.1946 40.0744 31.646 40.5087C29.4404 42.3143 27.0634 43.5828 24.3435 42.1086Z" fill="#BCBCBB"/>
<path d="M27.797 32.7256C26.6885 33.4456 25.4314 34.1998 24.1401 33.9599C22.9744 33.7427 22.083 32.7485 21.6602 31.64C21.3745 30.8972 21.2602 30.0515 21.4888 29.2858C21.5345 29.1258 21.6145 28.943 21.7745 28.8858C21.9459 28.8287 22.1287 28.9316 22.2887 29.0344C23.9686 30.0744 26.2771 29.9944 27.8884 28.8401C28.0713 28.7144 28.2541 28.5659 28.4827 28.5316C28.8712 28.4859 29.2141 28.8173 29.3741 29.183C29.7055 29.9486 29.5112 30.8515 29.0655 31.56C28.6313 32.2685 27.9684 32.8056 27.3285 33.3313C27.0885 33.5256 26.8485 33.7313 26.5514 33.8227C26.2542 33.9256 25.9 33.8913 25.6828 33.6742" fill="#BCBCBB"/>
<path d="M23.135 21.058C23.4207 20.2466 24.4264 20.0066 25.272 19.8924C25.4663 19.8695 25.6606 19.8352 25.8434 19.9038C25.992 19.9609 26.1063 20.0638 26.2206 20.1781C26.8148 20.7723 27.2605 21.5837 27.1462 22.4065C26.5634 26.7263 22.2665 23.4922 23.135 21.058Z" fill="#BCBCBB"/>
<path d="M13.477 37.8899C13.8541 38.3698 14.2656 38.8384 14.597 39.3526C16.1969 41.7525 16.6311 41.9354 19.671 41.4782C18.6767 39.0327 17.6368 36.5985 16.7111 34.1301C15.8198 31.7302 13.9799 29.7303 13.6256 26.6105C14.1741 27.159 14.4827 27.3876 14.6655 27.6733C15.1569 28.4389 15.5683 29.2617 16.0712 30.0274C17.3625 31.9702 17.4654 31.993 19.9681 31.3645C18.0482 24.3477 17.7625 17.1824 17.8196 9.79993C19.2596 10.0399 19.2139 10.9084 19.2596 11.7198C19.351 13.5483 19.3853 15.3768 19.5338 17.1938C19.6481 18.5423 20.0824 19.7994 21.3395 20.8393C21.4309 20.3822 21.5794 20.0622 21.5452 19.7651C21.1795 17.2167 21.9109 14.8854 22.9051 12.6112C23.3279 11.6284 23.4765 10.8513 23.1794 9.68565C22.6537 7.57148 22.7108 5.30874 22.7222 3.11457C22.8708 3.08029 23.0194 3.046 23.1679 3.01172C23.3279 3.32027 23.5793 3.62883 23.6365 3.96024C23.7965 4.86305 23.8536 5.77729 23.9793 6.68009C24.1507 8.04002 24.2536 9.2171 25.6707 10.2456C26.8592 11.1027 27.3506 12.9426 28.0934 14.3711C28.4362 15.0339 28.6305 15.7653 29.0191 16.8053C30.0704 15.5482 30.0933 14.3254 30.4933 13.2512C30.8818 12.2112 30.539 10.8513 32.1503 9.83421C32.0475 10.7827 32.0018 11.3541 31.9103 11.9141C31.6475 13.6626 31.4989 15.3311 32.3789 17.0453C32.8588 17.9823 32.8017 19.228 32.8246 20.3365C32.8588 22.3478 32.756 24.3592 32.7103 26.519C34.0816 26.3933 34.3902 25.5134 34.7216 24.6906C35.2016 23.5135 35.613 22.3135 36.1044 21.1479C36.2758 20.7479 36.5958 20.4165 37.2243 20.2222C36.7672 22.2907 36.0587 24.3363 35.933 26.4276C35.8073 28.5646 36.253 30.736 36.4815 33.1473C37.1786 31.7302 37.7843 30.496 38.39 29.2618C38.55 29.3189 38.71 29.3646 38.87 29.4217C38.8014 29.9246 38.8128 30.4617 38.63 30.9302C37.7729 33.0901 37.6129 35.1929 38.31 37.4899C38.9385 39.5241 39.1214 41.7068 39.4756 43.7067C40.2185 43.4324 41.167 43.2039 41.9555 42.7239C42.5041 42.3925 42.904 41.7411 43.2697 41.1697C44.0125 40.004 44.6868 38.8041 45.3953 37.6156C45.5553 37.6842 45.7153 37.7527 45.8867 37.8213C45.7039 38.347 45.521 38.8727 45.3153 39.3869C45.0753 39.9698 44.8011 40.5412 44.5497 41.124C43.944 42.5296 43.0754 43.8895 43.8754 45.5009C43.4183 48.5407 43.6697 51.6948 42.2526 54.5633C42.0012 55.0661 41.7841 55.5918 41.6012 56.1175C40.5384 59.1573 38.5843 61.4886 35.7158 63.2599C36.6301 65.2941 37.0301 67.454 38.4471 69.2025C39.7956 70.8481 41.1098 72.528 42.4469 74.1965C41.7498 74.9279 41.2241 74.3565 40.8013 73.9794C38.6528 72.1166 36.9729 69.8767 35.8644 67.2369C35.3273 65.9569 34.7445 64.6884 34.2759 63.6256C33.8188 63.4885 33.6702 63.3742 33.5674 63.4085C30.7447 64.3685 27.9791 63.6371 25.2821 62.9171C23.9908 62.5628 22.8251 61.6486 21.6709 60.8715C20.8595 60.323 20.0938 59.6601 19.4653 58.9059C17.6482 56.7117 15.4426 54.9975 13.077 53.4547C12.4828 53.0662 11.6714 52.6891 12.1514 51.3634C13.2028 52.0834 14.1741 52.6662 15.0655 53.3748C15.9912 54.1176 16.814 54.209 17.9568 53.6947C19.2481 53.1005 20.7109 52.8834 22.288 52.4491C21.8423 52.0605 21.3623 51.6263 20.8595 51.2149C19.431 50.0378 18.1625 48.7579 17.6025 46.918C16.8483 44.4609 15.1684 42.5182 13.8541 40.3812C13.4427 39.7183 13.1913 38.9527 12.8599 38.2213C13.0885 38.1184 13.2827 38.0041 13.477 37.8899ZM27.0534 31.7416L27.0649 31.6845C26.6535 32.5987 26.802 33.433 27.3506 34.2786C30.8704 30.4731 31.9103 25.9362 31.7046 21.0108C31.6589 19.8108 32.0018 18.4852 30.8361 17.5367C28.8362 19.0909 26.7677 24.0506 27.0763 26.4505C27.6591 25.8676 28.2191 25.2962 28.7905 24.7363C28.5391 25.7991 28.082 26.7476 27.362 27.4218C26.7106 28.039 26.5049 28.6789 26.6192 29.4675C26.7335 30.2331 26.9163 30.9874 27.0534 31.7416ZM22.9737 60.0601C23.2708 59.2144 23.4079 58.5859 23.6936 58.0374C23.9336 57.5688 23.9793 56.826 24.8478 56.7003C23.5222 60.3687 23.5222 60.3687 25.145 61.1229C25.6364 60.3687 26.1506 59.5916 26.6535 58.8259C26.722 58.8602 26.7906 58.9059 26.8706 58.9402C26.6192 59.7858 26.3678 60.6315 26.0135 61.82C28.5962 61.8886 30.9161 63.4314 33.4645 61.8543C32.6303 59.2487 31.8646 56.8489 31.1447 54.5747C30.059 54.4033 29.2362 54.1519 28.4248 54.1747C25.5564 54.2204 22.6765 54.2776 19.8081 54.5061C18.5739 54.609 18.2996 55.4318 19.0082 56.4489C19.9567 57.8431 21.0652 59.0887 22.9737 60.0601ZM42.0469 44.5638C40.8813 44.1295 40.1842 44.9409 39.6128 45.6837C38.07 47.6722 36.5958 49.7292 35.1216 51.7748C34.6873 52.3805 34.4816 53.0548 33.4302 53.0433C32.5389 53.0205 32.2189 53.7976 32.5389 54.7347C33.076 56.3232 33.5217 57.9459 34.0474 59.5459C34.1959 59.9801 34.493 60.3572 34.7102 60.7344C39.8071 59.1459 42.8926 51.192 42.0469 44.5638ZM27.7734 44.3924C26.8363 44.3352 26.1392 44.3581 25.4764 44.221C24.7221 44.061 23.9908 43.7981 23.2708 43.5238C21.4309 42.7925 19.6253 43.0667 17.4311 43.421C18.2082 44.9523 18.8139 46.1637 19.5338 47.5693C19.6481 47.0208 19.7167 46.7465 19.8653 46.0266C20.2995 48.8036 21.4995 50.552 23.785 51.2834C25.8307 51.9348 27.8534 53.2719 30.3104 52.0605C29.4419 49.4321 28.6076 46.9179 27.7734 44.3924ZM36.5958 36.7471C34.6645 37.7299 34.5159 39.8326 33.2817 41.124C32.0589 42.4039 30.859 43.7181 29.4876 45.1809C29.6133 45.6952 29.8076 46.4951 30.059 47.4779C30.779 46.8151 31.3389 46.3008 31.8989 45.7866C30.5618 48.8836 30.5618 48.8836 31.3961 49.7978C31.8303 49.3293 32.2646 48.8493 32.8931 48.175C32.6417 49.6949 31.0989 50.4263 31.7732 52.0605C32.4132 51.752 33.1331 51.6263 33.476 51.192C34.9502 49.3407 36.6986 47.5808 37.6243 45.4666C38.8814 42.5982 38.1157 39.6155 36.5958 36.7471ZM29.1333 42.9296C30.9618 40.6326 32.6189 38.5755 34.2531 36.5071C34.3788 36.3471 34.4702 36.1414 34.5502 35.9471C35.533 33.193 35.1559 30.5188 34.4131 27.7761C33.1103 28.119 32.516 28.8046 32.036 29.7417C31.2247 31.3645 30.2533 32.9073 29.419 34.5186C29.0419 35.2386 28.8476 36.05 28.6076 36.7128C28.5162 36.6328 28.2762 36.4042 28.0362 36.1757C27.9334 36.2557 27.842 36.3357 27.7391 36.4157C28.2991 37.3985 28.8476 38.3813 29.3848 39.3298C28.8705 39.4898 28.6419 39.5698 28.3677 39.6612C28.6305 40.7926 28.8705 41.7982 29.1333 42.9296ZM27.6706 42.8725C27.1563 40.7011 26.9735 38.9184 26.2878 37.3527C25.8535 36.3699 24.7221 35.65 23.8308 34.93C23.3051 34.5072 22.5394 34.37 21.9909 33.9472C20.8138 33.033 19.6138 32.953 18.0825 33.5015C18.5282 36.1985 19.6138 38.4498 21.4995 40.564C22.0709 39.5012 22.4937 38.7241 22.9051 37.9584C22.9851 38.8727 22.688 39.5926 22.5737 40.3354C22.5165 40.7354 22.6765 41.3982 22.9508 41.5582C23.2479 41.7297 23.8193 41.4782 24.2307 41.3182C24.4707 41.2268 24.6079 40.9183 24.8136 40.7354C24.8707 40.6897 25.0193 40.7697 25.1335 40.7926C25.0193 41.2611 24.9164 41.7297 24.7564 42.4268C25.6364 42.5525 26.4021 42.6668 27.6706 42.8725ZM24.5964 11.5598C24.0365 13.3083 23.5222 14.6682 23.1679 16.0739C22.3223 19.5251 22.1851 22.8507 25.3507 25.3077C25.8078 24.0849 26.0478 22.7021 26.7563 21.6393C28.6191 18.8737 27.202 14.4854 24.5964 11.5598ZM19.431 21.8564C19.8995 24.4277 20.2767 26.8162 20.7795 29.1818C21.2709 31.5245 22.7794 32.9073 25.1335 33.3872C25.6707 28.0047 24.1507 24.8277 19.431 21.8564Z" fill="black"/>
<path d="M4.1337 82.7667C3.59658 80.9611 3.74515 79.784 4.43082 78.6526C8.28205 72.3558 12.179 66.0933 15.9845 59.7622C17.7673 56.7909 19.3329 53.6939 21.0585 50.6884C23.7327 46.0258 26.4525 41.3746 29.1724 36.7348C31.1608 33.3522 33.0122 29.8781 35.2292 26.6554C39.8689 19.89 44.6687 13.2504 49.4913 6.61072C50.8741 4.70225 52.5197 2.9652 54.0625 1.17101C54.3939 0.793889 54.8167 0.508191 55.331 0.0625C56.1538 1.30815 55.6738 2.10811 54.9424 2.8395C46.9543 10.7248 40.9317 20.0957 35.0235 29.5238C32.2579 33.9236 29.5495 38.369 26.9553 42.8716C23.1841 49.4313 19.5957 56.1052 15.8131 62.6763C12.9447 67.636 9.88196 72.4815 6.9564 77.4184C6.00788 78.9726 5.25364 80.6182 4.1337 82.7667Z" fill="#EB584A"/>
</svg>
