<svg width="61" height="85" viewBox="0 0 61 85" fill="none" xmlns="http://www.w3.org/2000/svg">
<path d="M60.5985 44.109C60.2262 46.5634 59.8075 49.2155 59.4353 51.8792C58.97 55.2293 57.0856 57.893 54.9918 60.3008C52.4909 63.1856 49.5829 65.6283 46.0468 67.3964C40.8938 69.9787 35.4151 71.0023 29.8317 71.2815C22.2128 71.6537 15.4197 69.2924 9.35936 64.4418C5.00898 60.9639 2.74074 56.2994 0.507385 51.507C0.123528 50.6928 -0.0625847 49.6691 0.0188395 48.7735C0.30964 45.47 0.19332 41.9687 1.28673 38.9328C2.70584 35.0012 3.83415 30.9299 6.20708 27.2775C8.7545 23.3807 11.709 20.0307 15.4894 17.4484C18.7697 15.2034 22.4105 13.6796 26.4585 13.4121C27.075 13.3772 27.7031 13.3539 28.3196 13.2492C37.8695 11.6208 45.5234 15.471 52.3397 21.6127C56.376 25.2419 58.1208 30.1739 59.3887 35.2222C60.1099 38.0255 60.1914 40.9684 60.5985 44.109ZM58.4349 43.8764C58.6559 36.4552 56.6203 29.6272 51.5836 23.9042C47.0239 18.7163 41.1381 15.471 34.3333 14.9126C27.9008 14.3892 21.8405 16.3085 16.6294 20.4727C10.5226 25.3466 6.42809 31.7093 3.68293 38.8048C2.46157 41.9687 1.97302 45.8655 2.56626 49.1806C4.11332 57.7418 9.54548 63.7206 17.5018 66.966C26.4003 70.5835 35.3802 69.967 44.0694 65.9307C53.3401 61.6152 58.7839 54.7058 58.4349 43.8764Z" fill="#EB584A"/>
<path d="M39.0921 67.685C40.5693 69.9067 42.8376 72.4076 45.385 71.6166C46.7925 71.1746 47.723 69.802 48.2 68.4062C49.1305 65.7308 48.8514 62.7995 48.3628 60.0195C46.0015 46.5612 39.0455 34.4057 32.0431 22.6806C29.6469 18.6792 27.0064 14.4684 22.7723 12.5026C18.7127 10.6182 12.4082 11.8628 11.466 16.7134C10.6169 21.0289 16.2119 28.5897 18.0614 32.1142C24.459 44.3278 31.4847 56.2041 39.0921 67.685Z" fill="white"/>
<path d="M15.2363 24.2422C20.2032 33.4897 25.1817 42.7255 30.1486 51.973C31.7189 54.9042 33.3009 57.8355 35.2318 60.5458C38.2096 64.7333 41.99 68.3392 46.3055 71.1193C48.0387 67.2109 47.7828 62.4767 45.6425 58.7777C42.4902 53.3339 36.1391 50.7981 30.9628 47.2038C25.9378 43.7142 21.8084 38.9567 19.0633 33.4897" fill="#BCBCBB"/>
<path d="M41.3848 72.1069C36.3714 68.501 33.4169 63.3015 30.5787 58.0787C25.67 49.0173 20.9241 39.8629 16.1666 30.7318C14.2008 26.9514 12.3047 23.1244 10.4901 19.2626C10.1877 18.6112 10.2808 17.5876 10.5599 16.878C12.2582 12.4927 19.5399 8.23542 24.1694 8.80539C25.3908 8.95661 26.0073 9.53821 26.554 10.7363C29.3224 16.8082 32.3118 22.7755 35.1268 28.8241C37.1973 33.2908 39.2678 37.7575 41.0591 42.3405C43.9671 49.785 46.7123 57.2877 49.376 64.8136C50.0158 66.6166 50.3299 68.6289 50.3415 70.5366C50.3531 73.7587 47.3753 75.4453 44.4557 74.0262C43.3623 73.5028 42.3968 72.7467 41.3848 72.1069ZM14.445 20.7399C14.7242 21.7169 14.794 22.3916 15.0848 22.9383C17.8649 28.3007 20.61 33.6747 23.5064 38.9789C26.6354 44.6902 29.8226 50.3666 33.161 55.95C35.499 59.8468 38.1395 63.5574 40.6869 67.3262C41.0126 67.8031 41.5593 68.1404 42.1991 68.7104C42.6993 67.0237 43.1064 65.6395 43.5135 64.2437C43.781 65.8256 43.5949 67.3262 43.3623 68.8267C43.1878 69.9317 43.6414 70.3854 44.793 70.3156C45.3281 69.0477 45.8748 67.7565 46.596 66.0234C46.4215 67.9892 46.2936 69.4199 46.1074 71.4439C47.2009 70.4784 47.8057 69.955 48.5269 69.3152C48.1081 67.838 47.8057 66.384 47.2823 65.0114C46.1191 61.8824 44.6651 58.858 43.6414 55.6825C40.6404 46.3071 36.8483 37.2806 32.3002 28.5566C30.2879 24.6948 28.4733 20.7282 26.554 16.8082C25.5885 14.8308 25.0302 14.7028 23.1691 16.0056C20.5402 17.8667 18.2371 20.3211 14.445 20.7399ZM14.0495 18.8438C15.3989 18.3204 16.6784 18.0296 17.7253 17.3782C19.5864 16.2034 21.3312 14.8308 23.0527 13.4466C23.4599 13.1209 23.5646 12.423 23.8088 11.8995C23.2621 11.6901 22.6107 11.1783 22.192 11.3295C19.8539 12.1205 17.5043 12.9231 15.3058 14.0282C13.6192 14.8773 13.1888 16.4942 14.0495 18.8438Z" fill="black"/>
<path d="M26.8583 30.1728C28.6031 29.9751 29.9175 29.8122 31.2436 29.661C31.325 29.882 31.3948 30.0914 31.4762 30.3124C30.4526 30.9754 29.4173 31.6501 28.068 32.5225C29.0102 34.686 29.9524 36.8612 30.9644 39.176C31.9648 38.955 32.8255 38.7689 33.7096 38.5711C34.7448 40.4323 32.651 40.4439 32.0927 41.863C32.5813 43.2007 33.2094 44.899 33.8375 46.6089C35.3264 46.4576 36.6176 46.3181 37.9087 46.1785C37.9785 46.3995 38.0599 46.6089 38.1297 46.8299C37.6877 47.1788 37.2573 47.5511 36.8037 47.8768C36.2919 48.2373 35.7452 48.563 35.0589 48.9934C36.478 52.9483 38.5834 56.4496 40.4794 60.0322C40.9214 60.8697 42.2358 61.8352 41.0494 62.6262C39.7117 63.5218 39.165 61.9399 38.6997 61.0442C37.3504 58.4968 36.1058 55.9029 34.8611 53.2973C34.105 51.727 33.5932 49.9822 31.3715 49.575C32.779 46.9346 31.2436 45.0153 30.3712 42.9215C29.6035 42.8285 28.9172 42.7354 28.0448 42.6307C28.1494 42.0375 28.0797 41.4326 28.3356 41.2116C29.2312 40.4206 29.0684 39.6296 28.6264 38.7223C27.8121 37.0706 27.0211 35.4072 26.1836 33.6624C25.7765 33.7904 25.4276 33.9765 25.0902 33.9881C24.5784 34.0114 24.0666 33.9067 23.5548 33.8485C23.7293 33.3018 23.834 32.7202 24.1015 32.22C24.2992 31.8362 24.6947 31.557 25.0553 31.1615C23.7176 28.4862 22.4149 25.8922 20.9492 22.9609C23.5664 23.0075 23.6711 24.95 24.4737 26.1016C25.3578 27.416 26.0673 28.8235 26.8583 30.1728Z" fill="black"/>
<path d="M4.19419 84.181C3.64748 82.3432 3.7987 81.1451 4.49662 79.9935C8.41662 73.5843 12.3831 67.2099 16.2566 60.7658C18.0712 57.7414 19.6648 54.5891 21.4212 51.5299C24.1431 46.784 26.9116 42.0498 29.68 37.3272C31.704 33.8841 33.5883 30.348 35.845 27.0677C40.5676 20.1816 45.453 13.4234 50.3617 6.66516C51.7692 4.72261 53.4442 2.95454 55.0145 1.12831C55.3519 0.744451 55.7823 0.453649 56.3057 0C57.1432 1.26789 56.6547 2.08213 55.9102 2.82658C47.7794 10.8527 41.6493 20.391 35.6356 29.9874C32.8206 34.4657 30.0638 38.9906 27.4234 43.5736C23.5848 50.2504 19.9323 57.0435 16.0821 63.7319C13.1625 68.7802 10.0451 73.7122 7.0673 78.7372C6.11347 80.3192 5.33413 82.0059 4.19419 84.181Z" fill="#EB584A"/>
</svg>
